<svg width="40" height="41" viewBox="0 0 40 41" fill="none" xmlns="http://www.w3.org/2000/svg">
<path d="M39.9962 19.9448C40.2122 30.9303 30.6972 40.002 20.0301 40.002C9.35409 40.003 -0.0249502 30.9293 4.98651e-05 19.9008C0.02405 9.24398 9.21109 -0.00505656 20.0451 0.00195711C30.8202 0.00897079 40.2162 9.23195 39.9962 19.9448Z" fill="#356FEF"/>
<path d="M19.5383 8.77698C22.7864 8.77698 26.0344 8.77698 29.2824 8.77698C29.8884 8.77698 30.4524 8.90123 30.9404 9.28998C31.5684 9.79096 31.8404 10.4543 31.8544 11.2408C31.8564 11.375 31.8644 11.5093 31.8544 11.6426C31.7304 13.2086 32.0944 14.7206 32.3634 16.2425C32.8674 19.1031 33.3774 21.9617 33.8824 24.8223C33.9854 25.4054 34.0944 25.9875 34.1704 26.5747C34.3244 27.758 33.4994 28.9142 32.1354 29.1567C26.4644 30.1657 20.7953 31.1817 15.1253 32.1946C14.3183 32.3389 13.5103 32.4832 12.7013 32.6185C11.2833 32.8549 10.1173 32.0253 9.8693 30.6096C9.6353 29.2729 9.4023 27.9373 9.1663 26.6007C9.1453 26.4845 9.1433 26.3703 8.9733 26.3292C7.94229 26.0777 7.18129 25.173 7.18729 23.8454C7.20429 20.1702 7.19229 16.495 7.19429 12.8189C7.19429 12.2257 7.19429 11.6326 7.21129 11.0394C7.24629 9.79296 8.2833 8.76696 9.7093 8.77298C12.9863 8.786 16.2623 8.77698 19.5393 8.77698H19.5383ZM19.5273 15.8388C15.9073 15.8388 12.2873 15.8408 8.6663 15.8337C8.4393 15.8337 8.3643 15.8708 8.3653 16.1213C8.3763 18.7154 8.3713 21.3084 8.3723 23.9025C8.3723 24.7922 8.8263 25.2521 9.7053 25.2521C16.2483 25.2521 22.7914 25.2521 29.3344 25.2521C30.2174 25.2521 30.6744 24.7942 30.6744 23.9095C30.6744 21.3154 30.6714 18.7224 30.6804 16.1283C30.6804 15.8919 30.6274 15.8317 30.3874 15.8327C26.7674 15.8418 23.1474 15.8388 19.5263 15.8388H19.5273ZM31.9134 20.4537L31.8544 20.4638C31.8544 20.568 31.8544 20.6722 31.8544 20.7764C31.8544 21.8194 31.8554 22.8624 31.8544 23.9055C31.8544 24.4826 31.7284 25.0227 31.3654 25.4886C30.8364 26.1669 30.1304 26.4284 29.2864 26.4274C23.0874 26.4214 16.8893 26.4244 10.6903 26.4244C10.6143 26.4244 10.5373 26.4284 10.4613 26.4244C10.3413 26.4164 10.3163 26.4665 10.3373 26.5787C10.5823 27.9123 10.8113 29.2499 11.0723 30.5805C11.1973 31.2167 11.7533 31.5855 12.3963 31.4752C14.3223 31.1426 16.2453 30.7949 18.1703 30.4522C21.1173 29.9272 24.0654 29.4012 27.0124 28.8742C28.6924 28.5736 30.3734 28.28 32.0504 27.9634C32.7624 27.8291 33.1214 27.251 32.9954 26.5396C32.7914 25.3924 32.5914 24.2441 32.3884 23.0969C32.2324 22.2162 32.0734 21.3365 31.9154 20.4558L31.9134 20.4537ZM19.5243 12.902C22.6104 12.902 25.6964 12.902 28.7824 12.902C29.3464 12.902 29.9094 12.899 30.4734 12.904C30.6054 12.905 30.6824 12.897 30.6794 12.7267C30.6674 12.1716 30.6854 11.6155 30.6674 11.0614C30.6504 10.5414 30.2824 10.1066 29.7814 9.99636C29.6164 9.96029 29.4394 9.9653 29.2684 9.9653C24.0424 9.9643 18.8163 9.9643 13.5903 9.9643C12.2623 9.9643 10.9343 9.95929 9.6063 9.9663C8.8443 9.97031 8.3803 10.4452 8.3733 11.2067C8.3693 11.6756 8.3873 12.1456 8.3663 12.6135C8.3553 12.8559 8.4253 12.908 8.6623 12.908C12.2833 12.9 15.9043 12.902 19.5253 12.902H19.5243Z" fill="white"/>
<path d="M11.5962 11.5685C11.3662 11.5685 11.2672 11.5274 11.2962 11.278C11.3192 11.0796 11.3152 10.8752 11.2962 10.6758C11.2762 10.4574 11.3382 10.3872 11.5712 10.3902C12.8882 10.4033 14.2062 10.3962 15.5232 10.3962H16.0102C17.4902 10.3962 18.9692 10.4002 20.4492 10.3912C20.6442 10.3902 20.7212 10.4303 20.7002 10.6377C20.6702 10.9393 20.8232 11.3441 20.6402 11.5164C20.4812 11.6657 20.0802 11.5625 19.7862 11.5625" fill="white"/>
</svg>
