<svg width="40" height="40" viewBox="0 0 40 40" fill="none" xmlns="http://www.w3.org/2000/svg">
<path d="M39.9972 20.0315C40.1739 30.9008 30.7978 40.1422 19.7354 39.9983C9.14175 39.8601 0 30.8793 0 19.9867C0 9.09416 9.27214 -0.132822 20.2858 0.00144722C30.813 0.132519 40.1875 9.047 39.9972 20.0315Z" fill="#72DC1E"/>
<path d="M27.5402 8.02552C27.7978 8.12623 28.077 8.12942 28.3402 8.20775C29.8867 8.6681 30.98 9.63755 31.62 11.1161C31.8999 11.7651 31.9991 12.45 31.9983 13.1541C31.9951 17.7208 31.9951 22.2878 31.9983 26.8551C31.9983 28.6246 31.2952 30.0448 29.8537 31.0782C29.0268 31.6705 28.032 31.9831 27.0147 31.9701C22.3382 31.9744 17.6617 31.9744 12.9853 31.9701C11.9307 31.9722 10.9028 31.6389 10.0504 31.0184C9.19797 30.398 8.56533 29.5227 8.24402 28.5191C8.08114 28.0116 8.00013 27.4815 8.00404 26.9486C8.00404 22.3187 7.98644 17.6881 8.01284 13.0582C8.02484 10.9211 9.05276 9.3818 10.9838 8.45151C11.3986 8.25839 11.8409 8.13086 12.2949 8.07348C12.3389 8.06708 12.4013 8.09346 12.4229 8.02393L27.5402 8.02552ZM31.0856 20.0138V13.1165C31.0856 12.4828 30.9912 11.865 30.7048 11.2935C29.9289 9.74384 28.661 8.94063 26.9299 8.93504C22.311 8.92065 17.6913 8.92944 13.0717 8.93504C12.6269 8.92643 12.1837 8.99068 11.7598 9.12525C9.9999 9.71987 8.91837 11.2208 8.91677 13.0822C8.91357 17.6931 8.91357 22.3041 8.91677 26.9151C8.90843 27.3592 8.97302 27.8017 9.10796 28.225C9.69912 29.9721 11.199 31.059 13.0525 31.0614C17.6841 31.0678 22.3164 31.0678 26.9491 31.0614C28.5034 31.0614 29.7017 30.3773 30.52 29.0546C30.9304 28.3904 31.0864 27.6535 31.0856 26.8791C31.0845 24.5917 31.0845 22.3046 31.0856 20.0178V20.0138Z" fill="white"/>
<path d="M13.5991 17.445C13.7103 16.6305 13.7527 15.8009 13.9191 14.9913C14.0998 14.1121 14.651 13.5446 15.395 13.153C16.1389 12.7614 16.9348 12.5879 17.7492 12.4832C19.1294 12.3097 20.5249 12.2931 21.9089 12.4337C22.8328 12.524 23.7416 12.6918 24.5935 13.1074C25.519 13.559 26.095 14.2791 26.2214 15.3589C26.3014 16.0239 26.4078 16.6857 26.4454 17.357C26.4522 17.3846 26.4619 17.4114 26.4742 17.437C26.5406 17.2771 26.5078 17.1357 26.5086 16.9998C26.5086 16.5786 26.6134 16.4643 27.0109 16.4635C27.1949 16.4635 27.3789 16.4587 27.5629 16.4635C27.8157 16.4731 27.9533 16.6129 27.9557 16.8751C27.9605 17.506 27.9605 18.1368 27.9557 18.7677C27.9557 19.0315 27.8189 19.1729 27.5637 19.1785C27.3085 19.1841 27.0437 19.1785 26.7845 19.1625C26.6861 19.1554 26.6973 19.1961 26.7045 19.2569C26.8173 21.0016 26.7245 22.7488 26.7549 24.4943C26.7549 24.5599 26.7445 24.627 26.7997 24.679C26.9389 24.8124 26.9597 24.9883 26.9597 25.1721C26.9597 25.3559 26.9597 25.531 26.9597 25.71C26.9533 26.128 26.7605 26.3318 26.3638 26.3382C26.0974 26.3382 25.8302 26.3446 25.5638 26.3382C25.4478 26.3382 25.4038 26.3718 25.4126 26.4981C25.4214 26.7298 25.419 26.9632 25.4126 27.195C25.4038 27.6458 25.1527 27.9143 24.7239 27.9231C24.4007 27.9295 24.0773 27.9295 23.7536 27.9231C23.3176 27.9151 23.064 27.6426 23.0576 27.1814C23.0576 26.956 23.052 26.7298 23.0576 26.5044C23.0576 26.391 23.0408 26.3398 22.9144 26.3398C20.9978 26.3446 19.0814 26.3446 17.1652 26.3398C17.0524 26.3398 17.026 26.3814 17.0284 26.4901C17.0348 26.7293 17.0348 26.9691 17.0284 27.2094C17.018 27.645 16.7629 27.9151 16.3461 27.9247C16.0165 27.9322 15.6867 27.9322 15.3566 27.9247C14.9374 27.9151 14.6854 27.6482 14.6742 27.2102C14.6686 26.9776 14.667 26.745 14.6742 26.5132C14.679 26.3854 14.647 26.3366 14.5142 26.3414C14.2478 26.3518 13.9807 26.3486 13.7143 26.3414C13.3263 26.3334 13.1335 26.1312 13.1247 25.7268C13.1207 25.5278 13.1247 25.3272 13.1247 25.1289C13.1247 25.0091 13.1247 24.8748 13.2047 24.7885C13.3335 24.655 13.3287 24.4983 13.3279 24.3321C13.3279 22.911 13.3279 21.4897 13.3279 20.0681C13.3218 19.8024 13.3379 19.5367 13.3759 19.2736C13.3903 19.1937 13.3879 19.1426 13.2719 19.1633C13.0067 19.1987 12.7383 19.2035 12.472 19.1777C12.2528 19.1673 12.124 19.0219 12.1216 18.7877C12.1157 18.1435 12.1157 17.4993 12.1216 16.8551C12.1216 16.6241 12.2576 16.4811 12.4784 16.4699C12.7183 16.4571 12.9583 16.4579 13.1983 16.4699C13.4383 16.4819 13.5543 16.6233 13.5631 16.8839C13.5775 17.0693 13.5463 17.2595 13.5991 17.445ZM20.0354 19.1833H24.2039C24.6751 19.1833 24.8487 18.9931 24.8215 18.5024C24.7767 17.7031 24.7231 16.9119 24.6823 16.1166C24.6567 15.6275 24.4647 15.4269 23.9919 15.4269H16.0933C16.0421 15.4269 15.9917 15.4269 15.9405 15.4269C15.6717 15.4452 15.4989 15.5979 15.4278 15.8728C15.3758 16.0743 15.3942 16.2821 15.3798 16.4859C15.331 17.1876 15.2926 17.8909 15.2518 18.5927C15.2382 18.8237 15.3062 19.0163 15.5141 19.1218C15.6314 19.1718 15.759 19.1929 15.8861 19.1833C17.269 19.1833 18.6521 19.1833 20.0354 19.1833ZM20.0354 13.6501C19.3421 13.6501 18.6507 13.6501 17.9612 13.6501C17.6804 13.6501 17.5364 13.7668 17.5356 13.9882C17.5348 14.2096 17.6876 14.3287 17.9604 14.3327H18.0172C19.3621 14.3327 20.7071 14.3327 22.0521 14.3327C22.1328 14.335 22.2135 14.3266 22.2921 14.3079C22.335 14.2968 22.3751 14.2769 22.4099 14.2495C22.4447 14.2221 22.4734 14.1878 22.4942 14.1487C22.5151 14.1097 22.5275 14.0667 22.5309 14.0226C22.5342 13.9784 22.5284 13.9341 22.5136 13.8923C22.4569 13.6869 22.3009 13.6525 22.1249 13.6525L20.0354 13.6501ZM16.7245 21.6482C16.1693 21.6482 15.7237 22.1054 15.7165 22.6872C15.7093 23.2691 16.1549 23.7422 16.7085 23.7502C17.262 23.7582 17.7148 23.2803 17.7204 22.704C17.726 22.1278 17.2788 21.6514 16.7245 21.6482ZM23.368 21.6482C22.8152 21.6482 22.3633 22.1126 22.3585 22.692C22.3537 23.2715 22.8064 23.7486 23.3552 23.7534C23.9039 23.7582 24.3583 23.2859 24.3623 22.7056C24.3663 22.1254 23.9183 21.6506 23.368 21.6474V21.6482Z" fill="white"/>
</svg>
