<svg width="40" height="40" viewBox="0 0 40 40" fill="none" xmlns="http://www.w3.org/2000/svg">
<path d="M39.9962 19.9429C40.2122 30.9283 30.6972 40 20.0301 40C9.35409 40.001 -0.0249502 30.9273 4.98651e-05 19.8988C0.02405 9.24203 9.21109 -0.00700969 20.0451 3.98633e-06C30.8202 0.00701766 40.2162 9.23 39.9962 19.9429Z" fill="#30E2D8"/>
<path d="M35.4003 27.5734C35.1943 27.9732 34.8533 28.0653 34.4293 28.0573C33.4143 28.0383 32.3983 28.0553 31.3833 28.0473C31.2103 28.0463 31.1303 28.0964 31.0693 28.2627C30.6833 29.3198 29.7373 29.9851 28.6343 29.9931C27.5273 30.0011 26.5623 29.3328 26.1663 28.2637C26.1043 28.0954 26.0273 28.0473 25.8543 28.0473C21.8223 28.0523 17.7903 28.0523 13.7583 28.0473C13.5842 28.0473 13.5042 28.0984 13.4432 28.2637C13.0542 29.3218 12.1122 29.9851 11.0082 29.9931C9.89823 30.0011 8.94423 29.3368 8.54423 28.2617C8.48223 28.0934 8.40023 28.0443 8.22823 28.0473C7.55522 28.0573 6.88122 28.0543 6.20722 28.0503C5.66022 28.0473 5.40622 27.7878 5.40222 27.2377C5.39922 26.8369 5.39722 26.4352 5.40222 26.0344C5.40922 25.5785 5.60422 25.335 6.04522 25.2779C6.23122 25.2539 6.23122 25.1647 6.23122 25.0274C6.22822 24.1377 6.25822 23.2459 6.22222 22.3572C6.17422 21.1458 6.32322 19.9625 6.58522 18.7842C6.76322 17.9837 6.90222 17.1751 7.06722 16.3725C7.09622 16.2323 7.10222 16.1802 6.92622 16.1561C6.41922 16.085 6.23322 15.8445 6.22922 15.3215C6.21822 14.1091 6.99322 13.2965 8.19723 13.2955C16.0753 13.2915 23.9543 13.2885 31.8323 13.2965C33.4943 13.2985 34.6963 14.534 34.6983 16.2032C34.7023 19.1079 34.7003 22.0135 34.6983 24.9182C34.6983 25.1196 34.6823 25.2829 34.9653 25.321C35.1833 25.35 35.2763 25.5845 35.3993 25.7538V27.5734H35.4003ZM17.3673 16.1671C16.6363 16.1671 15.9043 16.1732 15.1733 16.1631C14.9983 16.1611 14.9433 16.2002 14.9443 16.3856C14.9533 17.5088 14.9533 18.6329 14.9443 19.7561C14.9433 19.9405 14.9813 20.0026 15.1803 20.0016C16.6333 19.9926 18.0863 19.9936 19.5393 20.0006C19.7213 20.0006 19.7893 19.9655 19.7873 19.7642C19.7773 18.641 19.7783 17.5168 19.7863 16.3936C19.7873 16.2172 19.7453 16.1601 19.5613 16.1631C18.8303 16.1742 18.0983 16.1671 17.3673 16.1671ZM23.5763 16.1671C22.8453 16.1671 22.1133 16.1732 21.3823 16.1631C21.2063 16.1611 21.1523 16.2012 21.1543 16.3866C21.1633 17.5198 21.1623 18.654 21.1553 19.7872C21.1553 19.9485 21.1923 20.0016 21.3623 20.0016C22.8353 19.9946 24.3073 19.9936 25.7803 20.0026C25.9773 20.0036 25.9973 19.9285 25.9963 19.7642C25.9903 18.64 25.9893 17.5168 25.9963 16.3926C25.9973 16.2142 25.9523 16.1601 25.7703 16.1631C25.0393 16.1742 24.3073 16.1671 23.5763 16.1671ZM31.7053 19.9966C31.5253 19.2451 31.3683 18.5307 31.1833 17.8244C30.9583 16.9667 30.4113 16.4006 29.5403 16.2233C28.8593 16.085 28.1593 16.1862 27.4683 16.1671C27.3393 16.1631 27.3693 16.2623 27.3693 16.3335C27.3683 17.4967 27.3693 18.66 27.3663 19.8233C27.3663 19.9375 27.3813 19.9986 27.5213 19.9986C28.9063 19.9936 30.2913 19.9956 31.7043 19.9956L31.7053 19.9966ZM13.5752 18.0628C13.5752 17.4957 13.5702 16.9286 13.5782 16.3625C13.5802 16.2082 13.5332 16.1631 13.3802 16.1641C12.4242 16.1701 11.4682 16.1711 10.5122 16.1641C10.3432 16.1631 10.3262 16.2353 10.3272 16.3735C10.3312 17.5168 10.3322 18.661 10.3262 19.8042C10.3262 19.9595 10.3712 20.0016 10.5232 20.0006C11.4692 19.9946 12.4152 19.9906 13.3612 20.0026C13.5592 20.0046 13.5802 19.9285 13.5772 19.7642C13.5693 19.197 13.5743 18.6309 13.5743 18.0638L13.5752 18.0628ZM27.3693 27.377C27.3733 28.0643 27.9353 28.6264 28.6203 28.6274C29.2963 28.6274 29.8713 28.0563 29.8793 27.377C29.8863 26.6957 29.2873 26.0995 28.6053 26.1105C27.9213 26.1216 27.3663 26.6907 27.3703 27.378L27.3693 27.377ZM10.9912 28.6274C11.6772 28.6304 12.2592 28.0463 12.2532 27.36C12.2472 26.6867 11.6712 26.1125 11.0002 26.1095C10.3262 26.1075 9.75123 26.6736 9.74023 27.351C9.72923 28.0413 10.3012 28.6244 10.9912 28.6274ZM7.75523 19.9976C8.10523 19.9976 8.42723 19.9866 8.74723 20.0016C8.93023 20.0106 8.97523 19.9515 8.97323 19.7722C8.96523 18.649 8.96923 17.5258 8.96823 16.4026C8.96823 16.2954 9.01523 16.1531 8.81523 16.1651C8.65623 16.1742 8.49923 16.1221 8.45323 16.3745C8.23323 17.5729 7.99423 18.7672 7.75523 19.9976Z" fill="white"/>
</svg>
