<svg width="40" height="40" viewBox="0 0 40 40" fill="none" xmlns="http://www.w3.org/2000/svg">
<path d="M39.9972 20.0315C40.1739 30.9008 30.7978 40.1422 19.7354 39.9983C9.14175 39.8601 0 30.8793 0 19.9867C0 9.09416 9.27214 -0.132822 20.2858 0.00144722C30.813 0.132519 40.1875 9.047 39.9972 20.0315Z" fill="#C57124"/>
<path d="M32.4405 27.0393C32.3285 27.1344 32.3509 27.279 32.3125 27.3997C32.0462 28.2317 31.4934 28.8167 30.7487 29.2435C29.8143 29.779 28.7856 30.0244 27.7417 30.2218C25.2547 30.6917 22.7404 30.8428 20.2142 30.8436C19.0031 30.8436 17.7928 30.8396 16.5849 30.7381C14.6122 30.5734 12.6651 30.2769 10.8253 29.5089C9.93414 29.1372 9.1454 28.6169 8.66543 27.7322C8.63584 27.6771 8.60864 27.6211 8.57984 27.5668C8.22706 26.9066 8.61824 26.6365 9.1598 26.5949C9.63336 26.5589 10.1117 26.5949 10.5877 26.5949C11.2868 26.5949 11.986 26.5949 12.6268 26.5949C12.406 26.4542 12.11 26.2888 11.8388 26.0898C10.5069 25.11 9.71416 23.7721 9.28859 22.1992C8.88862 20.7278 8.87022 19.2253 8.93821 17.7164C8.95261 17.3815 8.98461 17.0474 9.00301 16.7126C9.02941 16.2234 9.32299 15.9373 9.81255 15.9373C12.2188 15.9373 14.625 15.9421 17.0304 15.9373C20.7022 15.9293 24.3731 15.8382 28.0433 15.7455C28.1446 15.7423 28.2461 15.7447 28.3472 15.7527C28.788 15.7887 28.9368 15.9126 29.0608 16.3281C29.1888 16.7613 29.3064 17.1969 29.3976 17.6389C29.4144 17.7188 29.42 17.7987 29.5407 17.8163C31.0134 18.0313 31.7918 18.9704 32.0846 20.3482C32.3325 21.5167 32.1582 22.6372 31.4334 23.617C30.7087 24.5969 29.7023 24.8862 28.5336 24.7271C28.4392 24.7143 28.36 24.6888 28.2832 24.7839C27.7457 25.4504 27.0545 25.9292 26.3234 26.3559C26.3037 26.3689 26.285 26.3834 26.2674 26.3991C26.317 26.463 26.3842 26.4295 26.4378 26.4271C27.6945 26.3735 28.9504 26.312 30.2063 26.2632C30.7439 26.2425 31.2814 26.2401 31.819 26.2433C32.1118 26.2433 32.3453 26.3615 32.4437 26.6636L32.4405 27.0393ZM18.9471 17.121C16.1785 17.1617 13.2811 17.1553 10.3877 17.1441C10.2741 17.1441 10.1717 17.1114 10.1589 17.304C10.0613 18.7314 10.0261 20.1556 10.3189 21.5686C10.6437 23.1439 11.4092 24.4202 12.8219 25.2626C14.2834 26.133 15.8977 26.467 17.5648 26.6213C18.6047 26.7172 19.6407 26.6317 20.679 26.6213C21.9994 26.6109 23.308 26.3707 24.5459 25.9116C25.4162 25.5919 26.2186 25.1459 26.8849 24.489C27.9481 23.4404 28.376 22.1249 28.4632 20.6727C28.5352 19.4619 28.3504 18.2806 28.0401 17.113C28.0009 16.9667 27.9337 16.9427 27.7961 16.9467C24.8851 17.0243 21.9813 17.0994 18.9471 17.121ZM10.2277 27.8257C10.2669 27.8585 10.3077 27.8928 10.3461 27.924C10.9861 28.4219 11.7412 28.6745 12.5148 28.8663C14.6322 29.3914 16.7913 29.6016 18.9639 29.6415C21.8253 29.6951 24.6779 29.5712 27.5017 29.0525C28.4312 28.8815 29.352 28.6841 30.1863 28.2109C30.5312 28.0285 30.8207 27.7569 31.0246 27.4245C24.0787 27.7338 17.1696 28.087 10.2269 27.8257H10.2277ZM29.0384 23.5731C29.6831 23.5419 30.2047 23.3397 30.5511 22.837C31.1798 21.9259 31.1814 20.9596 30.7031 19.9878C30.5992 19.7677 30.4489 19.5727 30.2625 19.4161C30.0761 19.2595 29.858 19.1451 29.6231 19.0807C29.7583 20.6207 29.6655 22.1161 29.0384 23.5731Z" fill="white"/>
<path d="M14.9108 15.107C14.7971 15.1101 14.685 15.0788 14.5894 15.0171C14.4938 14.9555 14.419 14.8665 14.3749 14.7617C14.3262 14.6631 14.3102 14.5516 14.3294 14.4434C14.3485 14.3351 14.4017 14.2358 14.4812 14.1599C14.6412 13.9833 14.8364 13.8354 14.9748 13.6316C15.0577 13.5179 15.113 13.3866 15.1364 13.2479C15.1599 13.1092 15.1509 12.967 15.11 12.8324C15.0028 12.4272 14.7772 12.0811 14.5836 11.7191C14.3525 11.2875 14.1037 10.8647 13.9797 10.3844C13.8045 9.70585 13.8861 9.07286 14.2997 8.49503C14.3642 8.39597 14.4581 8.31958 14.5683 8.27658C14.6785 8.23358 14.7994 8.22612 14.914 8.25526C15.0182 8.27452 15.1147 8.32288 15.1924 8.39475C15.2702 8.46661 15.3259 8.55903 15.3532 8.66127C15.3766 8.74025 15.3808 8.82369 15.3653 8.90461C15.3499 8.98553 15.3153 9.06158 15.2644 9.12641C14.9788 9.53801 15.0036 9.96719 15.2084 10.3892C15.4692 10.9271 15.7748 11.4433 16.0299 11.9876C16.3315 12.627 16.4467 13.2927 16.1275 13.9681C15.9307 14.3861 15.6148 14.7074 15.2612 14.9943C15.1636 15.0762 15.0379 15.1166 14.9108 15.107Z" fill="white"/>
<path d="M17.9188 15.107C17.8048 15.1099 17.6926 15.0782 17.5969 15.0162C17.5012 14.9541 17.4266 14.8646 17.3829 14.7593C17.3342 14.6605 17.3184 14.5487 17.3378 14.4403C17.3573 14.3319 17.4109 14.2325 17.4909 14.1567C17.6613 13.9753 17.8589 13.8202 17.9988 13.6085C18.0747 13.4995 18.1253 13.3751 18.147 13.2442C18.1687 13.1133 18.161 12.9792 18.1244 12.8516C18.014 12.4312 17.7837 12.0684 17.5773 11.6935C17.2637 11.1261 16.9549 10.5602 16.9077 9.89289C16.8636 9.37517 17.0199 8.86027 17.3445 8.45429C17.4361 8.34052 17.5677 8.26595 17.7125 8.24575C17.8573 8.22555 18.0043 8.26126 18.1236 8.3456C18.374 8.51344 18.4764 8.80995 18.3052 9.0585C17.9252 9.61236 18.0612 10.1319 18.3364 10.6633C18.626 11.2228 18.9764 11.7487 19.1812 12.3521C19.4899 13.272 19.2732 14.0544 18.5812 14.7146C18.3892 14.8952 18.2204 15.1206 17.9188 15.107Z" fill="white"/>
<path d="M22.3187 13.2262C22.2987 13.9903 21.8387 14.5673 21.2044 15.0301C20.974 15.1987 20.6244 15.11 20.4492 14.8846C20.2741 14.6592 20.2932 14.3675 20.506 14.1429C20.6716 13.9679 20.8604 13.8161 20.9972 13.6115C21.0735 13.5027 21.1245 13.3783 21.1464 13.2474C21.1682 13.1164 21.1605 12.9822 21.1236 12.8546C21.0124 12.435 20.7812 12.0722 20.5756 11.6973C20.2645 11.1291 19.9541 10.564 19.9069 9.89589C19.8656 9.38595 20.0155 8.87888 20.3276 8.47328C20.4178 8.35341 20.551 8.27317 20.6991 8.24947C20.8473 8.22576 20.9989 8.26044 21.122 8.3462C21.3708 8.51244 21.4732 8.81455 21.3044 9.05991C20.9228 9.61297 21.0644 10.1341 21.3364 10.6647C21.6292 11.2306 21.9923 11.7613 22.1859 12.3767C22.2747 12.6511 22.3195 12.9378 22.3187 13.2262Z" fill="white"/>
<path d="M27.0536 19.8707C27.0488 21.7356 26.3454 23.2871 24.9434 24.5254C24.6738 24.7652 24.3658 24.7723 24.0946 24.5606C23.8051 24.3336 23.7747 23.9907 24.0378 23.7342C24.3954 23.3857 24.7522 23.038 25.033 22.6209C25.7657 21.5355 25.9929 20.3423 25.8049 19.0571C25.7433 18.6391 25.9513 18.3418 26.3433 18.2659C26.6633 18.2036 26.9032 18.3602 26.9544 18.6823C27.0243 19.0745 27.0575 19.4724 27.0536 19.8707Z" fill="white"/>
</svg>
