<svg width="40" height="40" viewBox="0 0 40 40" fill="none" xmlns="http://www.w3.org/2000/svg">
<path d="M39.9962 19.9429C40.2122 30.9283 30.6972 40 20.0301 40C9.35409 40.001 -0.0249502 30.9273 4.98651e-05 19.8988C0.02405 9.24203 9.21109 -0.00700969 20.0451 3.98633e-06C30.8202 0.00701766 40.2162 9.23 39.9962 19.9429Z" fill="#2C3FE6"/>
<path d="M7.253 22.8457C7.454 22.3758 7.807 22.1914 8.315 22.2285C8.94901 22.2746 9.59201 22.1633 10.222 22.2956C11.024 22.4639 11.594 22.9419 11.937 23.6823C12.005 23.8286 12.078 23.8797 12.238 23.8787C13.022 23.8697 13.806 23.8707 14.589 23.8787C14.737 23.8807 14.816 23.8376 14.88 23.7023C15.095 23.2505 15.318 22.8026 15.552 22.3607C15.637 22.2014 15.61 22.1423 15.446 22.0662C14.158 21.473 12.876 20.8698 11.592 20.2686C9.85501 19.4551 8.97801 17.9652 9.11101 16.0444C9.14501 15.5565 9.30101 15.0996 9.50501 14.6597C10.167 13.2319 10.829 11.8041 11.501 10.3804C12.288 8.71111 13.782 7.82839 15.617 7.94361C16.131 7.97568 16.614 8.13699 17.079 8.35441C22.9321 11.0887 28.7861 13.8221 34.6391 16.5564C35.2641 16.848 35.4041 17.2828 35.0891 17.889C34.7531 18.5353 34.3271 19.1094 33.7751 19.5863C33.6601 19.6855 33.6101 19.7516 33.7261 19.9069C33.9391 20.1915 33.8831 20.5031 33.7391 20.8117C32.9911 22.4108 32.2481 24.0119 31.5041 25.6121C31.3581 25.9257 31.2151 26.2403 31.0651 26.5519C30.8081 27.0869 30.3921 27.2402 29.8501 26.9908C29.1571 26.6721 28.4651 26.3485 27.7761 26.0209C27.6601 25.9658 27.5751 25.9417 27.4591 26.0399C26.6031 26.7653 25.6651 26.8435 24.6621 26.3756C23.2221 25.7022 21.7791 25.0329 20.3421 24.3536C20.1581 24.2664 20.0771 24.2674 19.9791 24.4718C19.529 25.4067 19.048 26.3265 18.596 27.2593C18.089 28.3043 17.268 28.8073 16.11 28.7953C14.889 28.7833 13.667 28.7983 12.446 28.7873C12.224 28.7853 12.15 28.8303 12.16 29.0668C12.188 29.681 12.156 30.2902 11.824 30.8383C11.389 31.5577 10.76 31.9885 9.92201 32.0456C9.29601 32.0887 8.66501 32.0646 8.036 32.0636C7.623 32.0626 7.41 31.7891 7.25 31.4535V22.8487L7.253 22.8457ZM25.8371 25.0309C26.1831 25.0059 26.4401 24.8466 26.5891 24.5269C27.1461 23.3316 27.7001 22.1343 28.2641 20.943C28.3371 20.7897 28.2701 20.7636 28.1571 20.7195C27.8951 20.6183 27.6311 20.5181 27.3761 20.3989C22.3301 18.0433 17.285 15.6867 12.242 13.3241C12.043 13.2309 11.958 13.2419 11.865 13.4564C11.594 14.0826 11.294 14.6958 11.01 15.316C10.365 16.7227 10.862 18.1124 12.257 18.7667C16.633 20.8167 21.0131 22.8597 25.3911 24.9057C25.5321 24.9718 25.6771 25.0229 25.8351 25.0309H25.8371ZM15.235 9.57379C14.704 9.5768 14.253 9.74112 13.834 10.0237C13.258 10.4134 13.005 11.0216 12.728 11.6168C12.676 11.728 12.744 11.756 12.826 11.7931C13.074 11.9053 13.319 12.0256 13.566 12.1408C18.431 14.4132 23.2951 16.6897 28.1631 18.9561C29.9611 19.7937 31.9351 19.3629 33.1331 17.9C33.2321 17.7798 33.2801 17.7257 33.0931 17.6385C27.5101 15.0354 21.9291 12.4254 16.347 9.82027C15.991 9.65395 15.613 9.54975 15.235 9.57379ZM14.313 27.1511C14.942 27.1511 15.571 27.1491 16.2 27.1511C16.576 27.1521 16.877 27.0228 17.052 26.6731C17.549 25.6812 18.042 24.6863 18.543 23.6953C18.607 23.5691 18.577 23.525 18.461 23.4729C18.08 23.3016 17.697 23.1312 17.326 22.9409C17.156 22.8527 17.1 22.9078 17.028 23.0581C16.731 23.6723 16.408 24.2735 16.119 24.8917C15.911 25.3365 15.584 25.5229 15.102 25.5159C14.2 25.5029 13.297 25.5159 12.395 25.5089C12.226 25.5079 12.156 25.5379 12.164 25.7283C12.18 26.1291 12.181 26.5319 12.164 26.9336C12.156 27.129 12.232 27.1561 12.399 27.1541C13.037 27.1461 13.675 27.1511 14.313 27.1511ZM8.89301 27.119C8.89301 28.131 8.90201 29.144 8.88601 30.1559C8.88201 30.3934 8.95201 30.4535 9.17201 30.4295C9.35201 30.4094 9.53601 30.4295 9.71801 30.4224C10.182 30.4014 10.521 30.0908 10.524 29.6289C10.536 27.9787 10.536 26.3275 10.525 24.6772C10.522 24.2153 10.183 23.8987 9.72401 23.8777C9.52401 23.8687 9.32201 23.8887 9.12401 23.8697C8.92701 23.8506 8.88701 23.9228 8.88801 24.1101C8.89801 25.1131 8.89301 26.116 8.89301 27.119ZM31.9981 20.6734C31.3311 20.8889 30.7291 21.0151 30.1101 21.0291C30.0131 21.0311 29.9921 21.1003 29.9621 21.1634C29.4671 22.2265 28.9741 23.2905 28.4761 24.3526C28.4211 24.4698 28.4341 24.5209 28.5561 24.575C28.9301 24.7404 29.3011 24.9107 29.6661 25.0951C29.8351 25.1812 29.9161 25.1792 30.0021 24.9828C30.2861 24.3336 30.5921 23.6933 30.8911 23.0501C31.2471 22.2846 31.6041 21.5191 31.9991 20.6734H31.9981Z" fill="white"/>
<path d="M25.8571 21.9277C25.8571 22.6251 25.2701 23.0118 24.7041 22.7694C24.2211 22.563 23.7501 22.3275 23.2731 22.1041C22.7881 21.8776 22.3031 21.6532 21.8201 21.4227C21.3211 21.1853 21.1311 20.7254 21.3441 20.2855C21.5521 19.8567 22.0171 19.7124 22.5061 19.9388C23.4441 20.3717 24.3791 20.8146 25.3171 21.2484C25.6531 21.4037 25.8481 21.6482 25.8571 21.9267V21.9277Z" fill="white"/>
<path d="M13.9873 16.4752C13.9903 16.929 13.6303 17.2998 13.1823 17.3038C12.7423 17.3078 12.3603 16.9321 12.3553 16.4882C12.3513 16.0453 12.7233 15.6686 13.1683 15.6646C13.6213 15.6606 13.9833 16.0193 13.9863 16.4742L13.9873 16.4752Z" fill="white"/>
<path d="M15.3321 17.8581C15.3371 17.4062 15.7101 17.0385 16.1541 17.0475C16.6021 17.0555 16.9621 17.4303 16.9561 17.8801C16.9501 18.332 16.5841 18.6897 16.1311 18.6847C15.6801 18.6797 15.3261 18.314 15.3311 17.8581H15.3321Z" fill="white"/>
</svg>
