<svg width="40" height="41" viewBox="0 0 40 41" fill="none" xmlns="http://www.w3.org/2000/svg">
<path d="M39.9962 19.9448C40.2122 30.9303 30.6972 40.002 20.0301 40.002C9.35409 40.003 -0.0249502 30.9293 4.98651e-05 19.9008C0.02405 9.24398 9.21109 -0.00505656 20.0451 0.00195711C30.8202 0.00897079 40.2162 9.23195 39.9962 19.9448Z" fill="#CE91FF"/>
<path d="M33.5412 15.1659C33.3362 15.4765 33.0442 15.5427 32.6852 15.5427C24.2412 15.5347 15.7971 15.5367 7.3541 15.5367C7.2491 15.5367 7.14209 15.5427 7.03809 15.5266C6.81209 15.4906 6.65309 15.3623 6.57609 15.1439C6.49809 14.9225 6.55309 14.7261 6.71209 14.5618C6.77909 14.4926 6.85809 14.4355 6.93709 14.3804C11.1751 11.4016 15.4141 8.42379 19.6541 5.44599C20.0441 5.17145 20.2111 5.17345 20.6041 5.453C24.7822 8.4268 28.9592 11.4026 33.1392 14.3734C33.3042 14.4906 33.4312 14.6329 33.5422 14.7962V15.1659H33.5412ZM31.1352 14.3674C31.0632 14.3143 31.0322 14.2902 31.0002 14.2682C27.4302 11.7272 23.8592 9.18728 20.2931 6.64032C20.1451 6.53511 20.0601 6.56517 19.9321 6.65534C16.3411 9.18227 12.7481 11.7052 9.1571 14.2311C9.1091 14.2642 9.0231 14.2782 9.0311 14.3684H31.1352V14.3674Z" fill="white"/>
<path d="M20.0352 31.9632C16.2562 31.9632 12.4762 31.9632 8.69718 31.9632C8.08418 31.9632 7.89518 31.7738 7.89518 31.1616C7.89518 30.325 7.89318 29.4884 7.89518 28.6517C7.89718 28.1357 8.09718 27.9343 8.61318 27.9323C9.32518 27.9293 10.0372 27.9223 10.7492 27.9374C10.9642 27.9414 11.0252 27.8933 11.0252 27.6678C11.0172 24.2682 11.0192 20.8696 11.0202 17.4699C11.0202 17.3557 11.0192 17.2395 11.0432 17.1293C11.1012 16.8628 11.3282 16.6894 11.5952 16.6914C11.8682 16.6934 12.0772 16.8598 12.1362 17.1353C12.1602 17.2455 12.1692 17.3617 12.1692 17.475C12.1712 21.077 12.1702 24.678 12.1702 28.28C12.1702 28.8862 11.9772 29.0766 11.3652 29.0776C10.6622 29.0776 9.95918 29.0836 9.25618 29.0736C9.07818 29.0706 9.03118 29.1267 9.03518 29.299C9.04618 29.7389 9.04518 30.1797 9.03518 30.6196C9.03218 30.7679 9.07218 30.83 9.22318 30.809C9.28318 30.8009 9.34618 30.8079 9.40718 30.8079C16.5172 30.8079 23.6282 30.8059 30.7383 30.815C30.9963 30.815 31.0633 30.7508 31.0483 30.4983C31.0253 30.0946 31.0353 29.6888 31.0453 29.284C31.0493 29.1217 30.9993 29.0746 30.8373 29.0756C30.1163 29.0836 29.3963 29.0796 28.6753 29.0786C28.1133 29.0786 27.9083 28.8782 27.9083 28.3231C27.9083 24.695 27.9083 21.067 27.9083 17.4389C27.9083 16.977 28.0953 16.7195 28.4423 16.6964C28.7433 16.6754 28.9903 16.8648 29.0443 17.1684C29.0623 17.2716 29.0593 17.3788 29.0593 17.484C29.0593 20.8746 29.0623 24.2652 29.0533 27.6548C29.0533 27.8913 29.1133 27.9444 29.3413 27.9394C30.0443 27.9233 30.7473 27.9313 31.4503 27.9343C31.9863 27.9363 32.1823 28.1317 32.1833 28.6648C32.1853 29.5104 32.1843 30.3551 32.1833 31.2007C32.1833 31.7598 31.9783 31.9642 31.4233 31.9642C27.6263 31.9642 23.8292 31.9642 20.0322 31.9642L20.0352 31.9632Z" fill="white"/>
<path d="M15.5149 23.4581C15.5149 25.0682 15.5149 26.6793 15.5149 28.2895C15.5149 28.4037 15.5169 28.5199 15.4959 28.6311C15.4469 28.8886 15.2099 29.072 14.9459 29.073C14.6789 29.073 14.4479 28.8947 14.3989 28.6342C14.3759 28.5139 14.3689 28.3897 14.3689 28.2674C14.3669 25.0642 14.3669 21.8609 14.3689 18.6577C14.3689 18.5355 14.3749 18.4112 14.3979 18.291C14.4479 18.0275 14.6739 17.8501 14.9419 17.8491C15.2189 17.8491 15.4539 18.0385 15.4989 18.311C15.5159 18.4142 15.5139 18.5214 15.5139 18.6266C15.5139 20.2368 15.5139 21.8479 15.5139 23.4581H15.5149Z" fill="white"/>
<path d="M24.5672 23.4656C24.5672 21.8204 24.5662 20.1742 24.5672 18.529C24.5672 18.1032 24.7812 17.8507 25.1312 17.8477C25.4092 17.8447 25.6352 18.029 25.6862 18.3086C25.7052 18.4118 25.7122 18.518 25.7122 18.6232C25.7132 21.8445 25.7132 25.0648 25.7122 28.286C25.7122 28.8051 25.5202 29.0686 25.1422 29.0736C24.7632 29.0776 24.5652 28.8131 24.5652 28.2991C24.5652 26.6889 24.5652 25.0778 24.5652 23.4677L24.5672 23.4656Z" fill="white"/>
<path d="M21.1442 23.4645C21.1442 21.8193 21.1432 20.173 21.1442 18.5278C21.1442 18.0699 21.3972 17.8104 21.7902 17.8575C22.0332 17.8866 22.1912 18.0259 22.2552 18.2583C22.2832 18.3585 22.2932 18.4657 22.2932 18.5709C22.2952 21.8273 22.2952 25.0836 22.2952 28.339C22.2952 28.5544 22.2732 28.7638 22.1042 28.9201C21.9432 29.0694 21.7462 29.1105 21.5402 29.0443C21.3342 28.9782 21.1992 28.8279 21.1602 28.6115C21.1422 28.5083 21.1442 28.4011 21.1442 28.2959C21.1442 26.6857 21.1442 25.0746 21.1442 23.4645Z" fill="white"/>
<path d="M18.937 23.4895C18.937 25.0997 18.937 26.7098 18.937 28.321C18.937 28.4442 18.942 28.5674 18.9 28.6867C18.813 28.9342 18.596 29.0834 18.3329 29.0704C18.0849 29.0584 17.8809 28.8971 17.8229 28.6526C17.7969 28.5424 17.7849 28.4272 17.7849 28.3139C17.7829 25.0756 17.7829 21.8373 17.7849 18.599C17.7849 18.4948 17.7969 18.3886 17.8199 18.2864C17.8799 18.0229 18.0789 17.8596 18.3399 17.8505C18.6109 17.8405 18.84 18.0008 18.905 18.2664C18.934 18.3836 18.934 18.5098 18.934 18.6321C18.936 20.2512 18.935 21.8704 18.935 23.4895H18.937Z" fill="white"/>
</svg>
