<svg width="40" height="40" viewBox="0 0 40 40" fill="none" xmlns="http://www.w3.org/2000/svg">
<path d="M39.9972 20.0315C40.1739 30.9008 30.7978 40.1422 19.7354 39.9983C9.14175 39.8601 0 30.8793 0 19.9867C0 9.09416 9.27214 -0.132822 20.2858 0.00144722C30.813 0.132519 40.1875 9.047 39.9972 20.0315Z" fill="#6DE6F7"/>
<path d="M7.99927 18.8063V17.4612C8.04486 17.4332 8.03367 17.3813 8.04246 17.3421C8.11907 16.9785 8.27655 16.6368 8.50323 16.3423C9.08026 15.5793 9.65888 14.8158 10.2391 14.0517C10.4583 13.764 10.6575 13.4587 10.9087 13.1966C10.9387 13.1681 10.9624 13.1335 10.9781 13.0952C10.9938 13.0569 11.0013 13.0157 10.9999 12.9744C10.9999 11.8379 10.9927 10.7006 10.9999 9.56331C10.9999 8.91594 11.3118 8.4516 11.8918 8.16308C12.0406 8.08955 12.2062 8.07517 12.3606 8.02002H12.3854C12.4078 8.04799 12.4382 8.03361 12.4653 8.03361H27.6083C27.6955 8.04959 27.7859 8.05838 27.8715 8.08156C28.5498 8.26458 28.9914 8.84881 28.9914 9.5753C28.9914 10.6471 28.9914 11.7196 28.9914 12.7914C28.9914 12.9856 28.9954 13.1606 29.173 13.2829C29.194 13.3021 29.2123 13.3242 29.2274 13.3484C29.9937 14.3608 30.7598 15.3747 31.5256 16.3902C31.7656 16.7064 31.9197 17.0792 31.9728 17.4724C32.0192 17.8168 31.9944 18.1645 31.9928 18.5114C31.9871 19.0812 31.7648 19.6276 31.3709 20.0398C30.9769 20.4519 30.4408 20.699 29.8713 20.7308C29.7529 20.7372 29.7297 20.7668 29.7297 20.881C29.734 24.0518 29.734 27.222 29.7297 30.3917C29.7337 30.5548 29.7146 30.7176 29.6729 30.8753C29.4785 31.5522 28.8962 31.979 28.1642 31.979H15.5595C14.3111 31.979 13.0629 31.979 11.815 31.979C11.4275 31.9914 11.0501 31.8546 10.7607 31.597C10.4095 31.2773 10.2623 30.8777 10.2623 30.4093C10.2623 27.2311 10.2636 24.0523 10.2663 20.8731C10.2663 20.762 10.2375 20.7356 10.1279 20.7316C9.65435 20.7091 9.20015 20.537 8.83071 20.2401C8.46127 19.9432 8.19564 19.5369 8.07206 19.0796C8.0613 18.9854 8.03678 18.8933 7.99927 18.8063ZM19.9984 20.738C17.2978 20.738 14.5969 20.738 11.8958 20.738C11.7966 20.738 11.7606 20.7508 11.7606 20.8659C11.7643 24.0281 11.7643 27.1911 11.7606 30.355C11.7606 30.4525 11.779 30.4829 11.8846 30.4829C13.4189 30.4786 14.9529 30.4786 16.4867 30.4829C16.5995 30.4829 16.6163 30.4501 16.6163 30.3478C16.6131 27.9102 16.6131 25.4728 16.6163 23.0357C16.6163 22.5866 16.9434 22.2365 17.3818 22.2365C19.2483 22.2328 21.1167 22.2328 22.987 22.2365C23.127 22.2341 23.2646 22.2731 23.3824 22.3486C23.5003 22.4241 23.5932 22.5328 23.6494 22.6609C23.7111 22.7988 23.7386 22.9496 23.7293 23.1005C23.7293 25.5141 23.728 27.9272 23.7253 30.3398C23.7253 30.4621 23.7597 30.4829 23.8733 30.4829C25.2812 30.4786 26.6889 30.4786 28.0962 30.4829C28.2034 30.4829 28.2282 30.4581 28.2282 30.351C28.225 27.1914 28.225 24.0324 28.2282 20.8739C28.2282 20.7612 28.1986 20.7372 28.0898 20.7372C25.393 20.7393 22.6958 20.7396 19.9984 20.738ZM19.9984 9.53054C17.5453 9.53054 15.0894 9.53054 12.6309 9.53054C12.5213 9.53054 12.4989 9.55772 12.4997 9.66321C12.5045 10.5802 12.5045 11.4972 12.4997 12.4141C12.4997 12.506 12.5221 12.5268 12.6133 12.5268C17.5373 12.5268 22.4609 12.5268 27.3843 12.5268C27.4771 12.5268 27.4971 12.5036 27.4971 12.4133C27.4933 11.4964 27.4933 10.5794 27.4971 9.66241C27.4971 9.55532 27.4731 9.53054 27.3651 9.53054C24.9071 9.53214 22.4516 9.53214 19.9984 9.53054ZM17.377 26.7329C17.377 27.9349 17.377 29.1372 17.377 30.3398C17.377 30.4461 17.3954 30.4821 17.5122 30.4813C19.2955 30.477 21.0783 30.477 22.8606 30.4813C22.9766 30.4813 22.9982 30.4469 22.9974 30.3406C22.9974 27.9387 22.9974 25.5376 22.9974 23.1372C22.9974 23.0317 22.979 22.9934 22.8606 22.9934C21.0773 22.9982 19.2942 22.9982 17.5114 22.9934C17.4082 22.9934 17.3754 23.0118 17.3762 23.1245C17.3786 24.3273 17.377 25.5301 17.377 26.7329ZM14.6428 14.0158C13.9116 14.0158 13.2029 14.0158 12.4925 14.0158C12.3778 14.0147 12.2645 14.0412 12.1621 14.0931C12.0598 14.145 11.9715 14.2207 11.9046 14.3139C11.1676 15.2932 10.4284 16.2717 9.68715 17.2494C9.55731 17.4136 9.48911 17.618 9.49436 17.8272C9.49996 18.027 9.49436 18.2268 9.49436 18.4266C9.49436 18.9254 9.81434 19.2418 10.3111 19.2426C10.7151 19.2426 11.119 19.2426 11.5222 19.2426C11.5592 19.2465 11.5965 19.2385 11.6287 19.2198C11.6609 19.2012 11.6864 19.1728 11.7014 19.1387C12.5216 17.7055 13.3432 16.2735 14.166 14.8429C14.3228 14.576 14.4788 14.3075 14.6428 14.0158ZM25.362 14.0158C25.3658 14.0319 25.3708 14.0476 25.3772 14.0629L28.3178 19.1827C28.327 19.2024 28.3421 19.2188 28.361 19.2295C28.38 19.2403 28.4018 19.2448 28.4234 19.2426C28.8642 19.2426 29.3033 19.2482 29.7449 19.2426C29.8452 19.2428 29.9445 19.2229 30.0369 19.184C30.1294 19.1452 30.2131 19.0883 30.2832 19.0167C30.3533 18.945 30.4083 18.8601 30.445 18.7668C30.4817 18.6736 30.4993 18.574 30.4969 18.4738C30.4969 18.254 30.4969 18.0334 30.4969 17.8136C30.5028 17.6244 30.4438 17.4389 30.3297 17.2878C29.5831 16.2983 28.8364 15.3108 28.0898 14.3251C28.0198 14.229 27.9276 14.1511 27.8211 14.0981C27.7146 14.0451 27.5968 14.0185 27.4779 14.0206C26.7731 14.0174 26.0716 14.0182 25.358 14.0182L25.362 14.0158ZM19.6152 16.6372C19.6152 15.806 19.6152 14.9748 19.6152 14.1436C19.6152 14.0461 19.5968 14.0118 19.4904 14.0134C19.0014 14.0198 18.5121 14.0198 18.0226 14.0134C18.0052 14.0105 17.9874 14.0113 17.9704 14.0156C17.9534 14.0199 17.9374 14.0277 17.9234 14.0384C17.9095 14.0491 17.8979 14.0625 17.8893 14.0779C17.8808 14.0932 17.8755 14.1102 17.8738 14.1276C17.3991 15.7916 16.9224 17.4551 16.4435 19.118C16.4123 19.2251 16.4299 19.2434 16.5387 19.2434C17.521 19.2397 18.5039 19.2397 19.4872 19.2434C19.5864 19.2434 19.616 19.2219 19.616 19.1188C19.6088 18.294 19.6112 17.4668 19.6112 16.6396L19.6152 16.6372ZM20.3824 16.6372C20.3824 17.4684 20.3824 18.2996 20.3824 19.1316C20.3824 19.2115 20.4024 19.241 20.4896 19.2402C21.4767 19.2371 22.4633 19.2371 23.4494 19.2402C23.5446 19.2402 23.5526 19.2195 23.5294 19.1332C23.0419 17.4612 22.5582 15.7871 22.0783 14.1109C22.0767 14.0963 22.0722 14.0822 22.065 14.0694C22.0578 14.0567 22.048 14.0455 22.0363 14.0367C22.0246 14.0278 22.0112 14.0215 21.997 14.018C21.9827 14.0146 21.9679 14.0141 21.9535 14.0166C21.4735 14.0166 20.9991 14.0222 20.5216 14.0166C20.4072 14.0166 20.3712 14.0381 20.3728 14.1604C20.3808 14.9868 20.3784 15.814 20.3784 16.642L20.3824 16.6372ZM27.4875 19.2387C27.4825 19.2223 27.4763 19.2062 27.4691 19.1907C26.4915 17.4857 25.514 15.7823 24.5365 14.0805C24.5253 14.0573 24.507 14.0383 24.4843 14.0261C24.4616 14.0139 24.4356 14.0091 24.4101 14.0126C23.9245 14.0126 23.439 14.0126 22.9542 14.0126C22.8662 14.0126 22.8534 14.0309 22.8782 14.1157C23.0478 14.6927 23.211 15.2713 23.3766 15.8492L24.3173 19.1308C24.3341 19.1875 24.3373 19.2418 24.4293 19.2418C25.438 19.2418 26.4564 19.2434 27.4835 19.2434L27.4875 19.2387ZM12.5045 19.2291C12.5168 19.233 12.5294 19.2359 12.5421 19.2379C13.5501 19.2379 14.5572 19.2379 15.5651 19.2379C15.6547 19.2379 15.6619 19.1883 15.6787 19.1292C16.1587 17.4572 16.6387 15.7855 17.1186 14.1141C17.1474 14.0142 17.1186 14.0086 17.0338 14.0094C16.5643 14.0094 16.0955 14.0094 15.6267 14.0094C15.5877 14.0047 15.5482 14.0125 15.514 14.0318C15.4798 14.051 15.4526 14.0807 15.4363 14.1165C14.7532 15.3148 14.0676 16.5107 13.3797 17.7042L12.5045 19.2291Z" fill="white"/>
</svg>
