<svg width="40" height="40" viewBox="0 0 40 40" fill="none" xmlns="http://www.w3.org/2000/svg">
<path d="M39.9972 20.0315C40.1739 30.9008 30.7978 40.1422 19.7354 39.9983C9.14175 39.8601 0 30.8793 0 19.9867C0 9.09416 9.27214 -0.132822 20.2858 0.00144722C30.813 0.132519 40.1875 9.047 39.9972 20.0315Z" fill="#41A256"/>
<path d="M9.41398 28.9654C9.27559 28.8855 9.114 28.8983 8.96441 28.8735C6.51579 28.4659 4.49993 26.4542 4.08476 23.9981C3.5792 20.9849 5.29347 18.1436 8.20127 17.2252C9.91474 16.6841 11.561 16.8975 13.1121 17.8047C13.2345 17.8758 13.2833 17.8574 13.3649 17.7535C13.9515 16.9996 14.5448 16.2499 15.1448 15.5044C15.1783 15.4703 15.2005 15.4267 15.2083 15.3795C15.2162 15.3323 15.2094 15.2839 15.1888 15.2407C15.1192 15.0649 15.104 14.8507 14.9904 14.7132C14.8768 14.5757 14.6424 14.6149 14.464 14.5621C14.0281 14.4343 13.6121 14.2688 13.2521 13.9859C13.1663 13.9191 13.0878 13.8436 13.0177 13.7605C12.9329 13.6598 12.8577 13.5415 12.9233 13.4048C12.9889 13.2681 13.1249 13.2242 13.2657 13.2226C13.5753 13.2226 13.8857 13.2226 14.196 13.2346C15.196 13.2809 16.1959 13.3353 17.1958 13.3824C17.4078 13.392 17.6198 13.3824 17.8358 13.3824C17.9281 13.3849 18.0202 13.3921 18.1118 13.404C18.2526 13.4216 18.3869 13.4608 18.4189 13.6222C18.4509 13.7837 18.3509 13.8988 18.2174 13.9787C17.9862 14.1177 17.7246 14.1761 17.4702 14.2504C17.0281 14.3799 16.5844 14.5046 16.1391 14.6245C16.0591 14.6469 16.0591 14.6796 16.0775 14.7492C16.1719 15.0689 16.1695 15.0689 16.5127 15.0585C18.2965 15.019 20.081 14.9812 21.8659 14.945L24.9513 14.8786C24.9721 14.8786 24.9921 14.8746 25.0257 14.8714C24.8113 14.284 24.6009 13.7053 24.3857 13.1259C24.2657 12.799 24.2657 12.799 24.5209 12.5664C24.6385 12.4609 24.7529 12.3522 24.8721 12.2467C24.9209 12.2043 24.9201 12.178 24.8721 12.134C24.7761 12.0453 24.6833 11.9534 24.5961 11.8567C24.5425 11.7975 24.4793 11.8095 24.4161 11.8095C23.7298 11.8095 23.0442 11.8055 22.3587 11.8095C22.2307 11.8095 22.1899 11.7783 22.1987 11.6497C22.2107 11.477 22.2051 11.302 22.1987 11.1286C22.1987 11.0486 22.2235 11.0271 22.3011 11.0279C23.1826 11.0279 24.0644 11.0279 24.9465 11.0279C24.9758 11.0277 25.0048 11.0337 25.0316 11.0454C25.0585 11.0571 25.0826 11.0742 25.1025 11.0958C25.4328 11.4035 25.7624 11.712 26.0976 12.0141C26.1776 12.0845 26.1696 12.1212 26.0976 12.19C25.8856 12.3922 25.6832 12.6064 25.472 12.8094C25.4434 12.8322 25.4234 12.8642 25.4156 12.9C25.4077 12.9358 25.4124 12.9732 25.4288 13.006C25.9824 14.5102 26.5333 16.0154 27.0815 17.5217C27.1239 17.6392 27.1687 17.6217 27.2543 17.5793C28.0941 17.1552 29.0217 16.9338 29.9627 16.9326C30.9036 16.9315 31.8318 17.1508 32.6726 17.5728C33.5134 17.9949 34.2435 18.608 34.8043 19.363C35.3651 20.1179 35.7409 20.9937 35.9017 21.92C35.9313 22.0919 35.9185 22.2725 35.9929 22.4363V23.4466C35.9185 23.6112 35.9313 23.7911 35.9017 23.9637C35.4881 26.3918 33.5771 28.3596 31.166 28.8303C30.926 28.8767 30.6861 28.9142 30.4413 28.9558H29.4334C29.4158 28.9046 29.3702 28.9254 29.3366 28.9214C28.1903 28.7965 27.1035 28.348 26.2032 27.6282C23.9633 25.8531 23.2978 22.6649 24.6401 20.1497C25.0195 19.4406 25.5355 18.8134 26.1584 18.3042C26.1976 18.2714 26.2768 18.2579 26.2448 18.1707C26.1496 17.9166 26.0584 17.6616 25.9592 17.3899L25.7648 17.5993L23.4554 20.0841C22.248 21.3827 21.0409 22.6809 19.834 23.9789C19.8073 24.0007 19.7861 24.0285 19.7722 24.06C19.7583 24.0915 19.7521 24.1259 19.754 24.1603C19.7786 24.37 19.7305 24.5817 19.6179 24.7602C19.5052 24.9388 19.3348 25.0735 19.1349 25.1418C19.0805 25.1626 19.0373 25.1793 19.0221 25.2417C18.8957 25.7516 18.7677 26.2615 18.6381 26.7715C18.6213 26.8394 18.6381 26.8682 18.7045 26.8554C18.8749 26.8234 18.9077 26.9081 18.8893 27.0536C18.8801 27.1292 18.8801 27.2057 18.8893 27.2814C18.9029 27.3853 18.8613 27.4069 18.7629 27.4053C18.4037 27.3989 18.043 27.4053 17.6854 27.4053C17.4454 27.4053 17.4454 27.4053 17.4454 27.1575C17.4454 26.861 17.4454 26.8578 17.7406 26.861C17.8422 26.861 17.891 26.8402 17.9198 26.7299C18.035 26.2903 18.1584 25.8526 18.2901 25.4167C18.3509 25.2185 18.4045 25.0467 18.1678 24.9156C18.0758 24.8652 18.0254 24.7597 17.895 24.7406C17.2662 24.647 16.6391 24.5423 16.0127 24.4345C15.8935 24.4145 15.8527 24.4432 15.8151 24.5623C15.1008 26.8594 13.5753 28.2932 11.2219 28.8415C10.9939 28.8943 10.7603 28.9254 10.5291 28.967L9.41398 28.9654ZM26.7183 19.3584C25.4856 20.3974 24.8665 22.2629 25.2065 23.8918C25.7512 26.5053 28.1758 28.1653 30.8125 27.7282C33.4923 27.2862 35.3193 24.6023 34.7362 21.9648C34.2354 19.6965 32.3659 18.158 30.0373 18.1012C29.2071 18.0817 28.3866 18.2822 27.6591 18.6823C27.6031 18.7126 27.5271 18.7222 27.5687 18.8309C27.7423 19.2817 27.9199 19.7293 28.1918 20.1321C28.6606 20.8266 29.2574 21.4061 29.8717 21.9704C29.8944 21.9889 29.9207 22.0026 29.9489 22.0107C29.9771 22.0188 30.0066 22.0212 30.0357 22.0175C30.2144 22.0152 30.3867 22.0837 30.5149 22.208C30.6431 22.3324 30.7167 22.5024 30.7197 22.6809C30.7259 22.8588 30.6626 23.0322 30.5431 23.1644C30.4237 23.2965 30.2575 23.3771 30.0797 23.389C29.99 23.3958 29.8999 23.3846 29.8146 23.3563C29.7292 23.3279 29.6504 23.283 29.5826 23.2239C29.5148 23.1649 29.4594 23.093 29.4196 23.0124C29.3799 22.9318 29.3565 22.8441 29.351 22.7544C29.3516 22.6945 29.3373 22.6354 29.3094 22.5824C29.2814 22.5294 29.2408 22.4841 29.191 22.4507C28.4326 21.8561 27.7583 21.1839 27.2511 20.3575C27.0549 20.0347 26.877 19.7012 26.7183 19.3584ZM5.14788 22.9614C5.15043 23.206 5.16968 23.45 5.20548 23.6919C5.23403 23.8694 5.27195 24.0452 5.31907 24.2187C6.00222 26.6652 8.33806 28.1733 10.8547 27.7218C12.7801 27.3765 14.0401 26.2088 14.672 24.3649C14.712 24.2482 14.692 24.2171 14.5648 24.1971C13.2441 23.9885 11.925 23.7711 10.6059 23.5577C10.4803 23.5369 10.3595 23.4969 10.2235 23.5489C10.0834 23.6004 9.92948 23.6006 9.78917 23.5496C9.64885 23.4985 9.53115 23.3995 9.45696 23.27C9.38277 23.1405 9.35687 22.9889 9.38385 22.8422C9.41083 22.6954 9.48895 22.563 9.60437 22.4683C9.67058 22.4123 9.73113 22.3499 9.78515 22.2821C10.6715 21.1631 11.5589 20.0442 12.4474 18.9252C12.5274 18.8253 12.5194 18.7918 12.4082 18.7302C11.4622 18.1944 10.3632 17.9925 9.28839 18.1572C6.92696 18.4888 5.15588 20.5421 5.14788 22.9614ZM19.4957 22.8671C19.5669 22.792 19.6077 22.7504 19.6469 22.7073C21.5486 20.6671 23.4524 18.6282 25.3584 16.5906C25.5352 16.402 25.5944 16.2517 25.4608 16.0224C25.4064 15.9288 25.3744 15.8769 25.2512 15.8793C22.3955 15.9432 19.5391 16.0026 16.6823 16.0575C16.5407 16.0575 16.5223 16.0911 16.5695 16.2174C17.3251 18.4553 18.0792 20.6932 18.8317 22.9311C18.8445 22.9686 18.8317 23.0334 18.9117 23.043C18.9589 22.7233 19.0053 22.41 19.0533 22.095C19.0645 22.0231 19.0669 21.9776 18.9645 21.9752C18.7013 21.9688 18.7013 21.9632 18.7013 21.6946C18.7037 21.6566 18.7037 21.6184 18.7013 21.5803C18.6901 21.4892 18.7245 21.4596 18.8181 21.4612C19.1669 21.466 19.5149 21.4612 19.8636 21.4612C20.078 21.4612 20.078 21.4612 20.078 21.673C20.078 21.9704 20.078 21.9696 19.7868 21.9768C19.7308 21.9768 19.662 21.9544 19.6469 22.0455C19.5989 22.3068 19.5493 22.565 19.4957 22.8671ZM18.0518 23.7463C17.2398 21.3414 16.4351 18.9436 15.6223 16.5299C15.1176 17.1693 14.6336 17.7799 14.1424 18.3881C14.0704 18.4769 14.0776 18.5216 14.1568 18.5951C14.5909 18.9985 14.9597 19.4665 15.2504 19.9826C15.829 20.9917 16.098 22.1485 16.0239 23.3091C16.0183 23.389 16.0359 23.4242 16.1207 23.4346C16.2663 23.4514 16.4095 23.4817 16.5543 23.5057L18.0518 23.7463ZM10.8339 22.5682C10.8947 22.5826 10.9315 22.593 10.9683 22.5994C12.2338 22.8048 13.4993 23.0078 14.764 23.2172C14.8824 23.2372 14.8704 23.1772 14.872 23.1045C14.904 21.7154 14.4264 20.5277 13.4649 19.5271C13.3689 19.4272 13.3225 19.4112 13.2289 19.5351C12.9089 19.9595 12.5722 20.3727 12.2418 20.7899C11.777 21.3781 11.3122 21.9648 10.8339 22.5698V22.5682Z" fill="white"/>
</svg>
