<svg width="40" height="40" viewBox="0 0 40 40" fill="none" xmlns="http://www.w3.org/2000/svg">
<path d="M39.9962 19.9429C40.2122 30.9283 30.6972 40 20.0301 40C9.35409 40.001 -0.0249502 30.9273 4.98651e-05 19.8988C0.02405 9.24203 9.21109 -0.00700969 20.0451 3.98633e-06C30.8202 0.00701766 40.2162 9.23 39.9962 19.9429Z" fill="#F45890"/>
<path d="M19.9712 30.2733C15.0972 30.2733 10.2222 30.2703 5.34813 30.2803C5.05613 30.2803 4.99013 30.1972 5.00113 29.9226C5.02313 29.3856 5.01713 28.8465 5.00213 28.3095C4.99713 28.1101 5.06213 28.068 5.24813 28.073C5.70213 28.086 6.15713 28.071 6.61114 28.081C6.77214 28.084 6.82914 28.046 6.80214 27.8756C6.77514 27.7033 6.77614 27.5259 6.77614 27.3506C6.77514 23.44 6.77614 19.5294 6.77414 15.6177C6.77414 15.257 6.81214 14.9144 7.08814 14.6468C7.30614 14.4344 7.56814 14.3392 7.87214 14.3392C9.70015 14.3412 11.5282 14.3462 13.3562 14.3332C13.6412 14.3312 13.5802 14.4935 13.5802 14.6478C13.5802 18.2278 13.5782 21.8078 13.5832 25.3868C13.5842 26.1723 13.5432 26.9588 13.6142 27.7434C13.6252 27.8626 13.6142 28.0369 13.7412 28.064C13.9282 28.1031 14.1312 28.082 14.3242 28.061C14.3972 28.053 14.3642 27.9548 14.3512 27.9017C14.2992 27.6863 14.3192 27.4688 14.3192 27.2524C14.3182 21.8409 14.3192 16.4303 14.3172 11.0188C14.3172 10.7041 14.3442 10.4016 14.5472 10.138C14.8152 9.78936 15.1852 9.71922 15.5942 9.72023C18.2482 9.72323 20.9022 9.72223 23.5562 9.72223C23.8552 9.72223 24.1552 9.72023 24.4542 9.72223C25.2812 9.72924 25.6872 10.136 25.6882 10.9677C25.6892 14.4024 25.6882 17.8371 25.6882 21.2728C25.6882 23.3217 25.6882 25.3697 25.6882 27.4187C25.6882 27.4909 25.6902 27.564 25.6882 27.6362C25.6732 28.0951 25.6722 28.082 26.1242 28.084C26.3062 28.084 26.3632 27.9999 26.3782 27.8556C26.4012 27.6402 26.4242 27.4227 26.4242 27.2063C26.4272 23.0262 26.4292 18.847 26.4192 14.6669C26.4192 14.3933 26.4842 14.3302 26.7542 14.3322C28.5512 14.3462 30.3482 14.3382 32.1452 14.3392C32.9742 14.3392 33.3782 14.745 33.3782 15.5786C33.3792 19.5624 33.3782 23.5452 33.3772 27.5289C33.3772 27.7023 33.2782 27.9608 33.3572 28.0299C33.5012 28.1582 33.7492 28.069 33.9532 28.075C34.2422 28.083 34.5312 28.083 34.8202 28.075C34.9522 28.071 35.0022 28.1091 35.0002 28.2484C34.9942 28.8696 34.9952 29.4898 35.0002 30.111C35.0002 30.2292 34.9663 30.2843 34.8423 30.2753C34.7603 30.2693 34.6772 30.2753 34.5942 30.2753C29.7202 30.2753 24.8452 30.2753 19.9712 30.2753V30.2733ZM20.0032 17.6727C22.0562 17.6717 23.7202 16.0075 23.7262 13.9495C23.7332 11.8804 22.0592 10.1941 20.0012 10.1941C17.9432 10.1941 16.2702 11.8824 16.2772 13.9505C16.2842 16.0075 17.9522 17.6727 20.0022 17.6717L20.0032 17.6727ZM17.9002 25.2395C17.9002 26.0871 17.9042 26.9358 17.8962 27.7834C17.8942 27.9508 17.9302 28.0139 18.1132 28.0129C19.4552 28.0049 20.7972 28.0059 22.1392 28.0129C22.3142 28.0129 22.3612 27.9668 22.3602 27.7915C22.3542 26.0851 22.3532 24.3778 22.3602 22.6715C22.3602 22.4721 22.2982 22.434 22.1142 22.436C20.7932 22.444 19.4712 22.444 18.1502 22.436C17.9462 22.435 17.8902 22.4921 17.8932 22.6965C17.9052 23.5442 17.8982 24.3928 17.8982 25.2405L17.9002 25.2395ZM9.95315 17.788C9.95315 17.2502 9.69815 16.9814 9.18815 16.9814C8.42614 16.9814 8.42214 16.9814 8.42914 17.7479C8.43114 17.9914 8.32014 18.31 8.47814 18.4593C8.63314 18.6066 8.94815 18.5013 9.19215 18.5003C9.43615 18.5003 9.75215 18.6076 9.90515 18.4563C10.0592 18.304 9.93215 17.9873 9.95315 17.788ZM12.3242 17.795C12.2952 17.5004 12.4192 17.1828 12.2682 17.0305C12.1162 16.8762 11.7992 16.9864 11.5552 16.9834C10.7932 16.9774 10.7892 16.9814 10.7962 17.7479C10.7982 17.9924 10.6852 18.324 10.8462 18.4563C10.9962 18.5795 11.3152 18.5054 11.5592 18.5013C11.8032 18.4973 12.1322 18.6096 12.2652 18.4553C12.3912 18.309 12.3142 17.9883 12.3242 17.795ZM31.9972 17.798C31.9972 17.2536 31.7429 16.9814 31.2342 16.9814H31.2032C30.4772 16.9814 30.4712 16.9814 30.4802 17.7218C30.4832 17.9763 30.3642 18.314 30.5332 18.4613C30.6762 18.5855 31.0042 18.5023 31.2502 18.5023C31.4872 18.5023 31.8012 18.5845 31.9412 18.4653C32.1082 18.323 31.9712 17.9974 31.9982 17.797L31.9972 17.798ZM12.3242 20.3469C12.2902 20.0704 12.4232 19.7468 12.2612 19.6045C12.1252 19.4843 11.8102 19.5684 11.5742 19.5624C11.5642 19.5624 11.5532 19.5624 11.5432 19.5624C11.3002 19.5855 10.9782 19.4512 10.8362 19.6195C10.7172 19.7608 10.7942 20.0724 10.7932 20.3089C10.7902 21.0824 10.7932 21.0864 11.5532 21.0804C11.7982 21.0784 12.1312 21.1906 12.2652 21.0323C12.3912 20.884 12.3132 20.5614 12.3232 20.3479L12.3242 20.3469ZM31.2082 21.0824C31.7342 21.0824 31.9972 20.8235 31.9972 20.3059V20.2748C31.9972 19.7999 31.7569 19.5627 31.2762 19.5634C31.0202 19.5634 30.6862 19.4813 30.5302 19.6095C30.3642 19.7458 30.4832 20.0935 30.4812 20.3479C30.4732 21.0824 30.4782 21.0824 31.2102 21.0824H31.2082ZM12.3212 22.9661C12.2872 22.7426 12.4242 22.409 12.2642 22.2777C12.1142 22.1545 11.7932 22.2276 11.5482 22.2346C11.3042 22.2406 10.9722 22.1214 10.8412 22.2847C10.7182 22.438 10.7952 22.7576 10.7942 23.0031C10.7912 23.7486 10.7932 23.7526 11.5492 23.7466C11.7952 23.7446 12.1142 23.8528 12.2672 23.7025C12.4202 23.5522 12.2952 23.2316 12.3212 22.9661ZM31.2352 22.2266C30.9912 22.2507 30.6712 22.1254 30.5222 22.2787C30.3752 22.43 30.4782 22.7496 30.4812 22.9951C30.4842 23.2386 30.3672 23.5722 30.5302 23.7025C30.6842 23.8257 31.0032 23.7476 31.2492 23.7486C31.9972 23.7516 32.0012 23.7486 31.9952 22.9971C31.9932 22.7516 32.1012 22.432 31.9502 22.2797C31.7992 22.1284 31.4802 22.2517 31.2352 22.2286V22.2266ZM9.16915 19.5624C8.96215 19.5865 8.63814 19.4542 8.47314 19.6125C8.32114 19.7578 8.43014 20.0814 8.42814 20.3249C8.42214 21.0824 8.42614 21.0874 9.19515 21.0804C9.43915 21.0784 9.75615 21.1906 9.90815 21.0303C10.0561 20.874 9.94915 20.5594 9.95115 20.3149C9.95715 19.5624 9.95315 19.5624 9.16915 19.5624ZM9.95315 22.956C9.92715 22.7657 10.0641 22.434 9.90315 22.2777C9.74415 22.1224 9.41415 22.2356 9.16015 22.2326C8.42614 22.2266 8.42114 22.2306 8.42814 22.954C8.43014 23.2085 8.31614 23.5382 8.47514 23.6965C8.63514 23.8568 8.96415 23.7426 9.21915 23.7446C9.95315 23.7516 9.95315 23.7466 9.95315 22.955V22.956ZM29.6092 17.7359C29.6292 16.9814 29.6292 16.9774 28.8842 16.9834C28.6392 16.9854 28.3222 16.8782 28.1682 17.0275C28.0132 17.1778 28.1272 17.4964 28.1222 17.7409C28.1172 17.9853 28.0442 18.309 28.1682 18.4553C28.2992 18.6106 28.6322 18.5013 28.8762 18.5003C29.1202 18.5003 29.4562 18.6126 29.5842 18.4533C29.7042 18.305 29.6102 17.9823 29.6102 17.7369L29.6092 17.7359ZM29.6292 20.2748C29.6092 20.0754 29.7342 19.7528 29.5792 19.6095C29.4482 19.4883 29.1302 19.5584 28.8952 19.5654C28.6412 19.5734 28.3052 19.4482 28.1582 19.6175C28.0342 19.7608 28.1142 20.0894 28.1212 20.3349C28.1282 20.5804 28.0112 20.906 28.1722 21.0473C28.3082 21.1665 28.6252 21.0804 28.8622 21.0804C29.3729 21.081 29.6282 20.8122 29.6282 20.2738L29.6292 20.2748ZM28.1102 23.0182C28.1202 23.2286 28.0412 23.5502 28.1672 23.6995C28.2982 23.8548 28.6302 23.7315 28.8732 23.7476C28.8832 23.7476 28.8942 23.7476 28.9042 23.7476C29.6282 23.7476 29.6342 23.7476 29.6252 23.0071C29.6222 22.7546 29.7422 22.418 29.5712 22.2727C29.4252 22.1485 29.1002 22.2316 28.8542 22.2316C28.6192 22.2316 28.3032 22.1525 28.1702 22.2727C28.0122 22.415 28.1412 22.7376 28.1092 23.0172L28.1102 23.0182Z" fill="white"/>
<path d="M20.0105 11.5722C20.2475 11.5722 20.4855 11.5812 20.7225 11.5692C20.8835 11.5612 20.9395 11.6113 20.9335 11.7776C20.9215 12.1182 20.9385 12.4599 20.9265 12.8016C20.9215 12.9619 20.9665 13.016 21.1315 13.01C21.4715 12.997 21.8125 13.014 22.1535 13.003C22.3185 12.997 22.3645 13.0531 22.3605 13.2134C22.3515 13.6993 22.3515 14.1853 22.3605 14.6712C22.3635 14.8205 22.3195 14.8666 22.1705 14.8616C21.8305 14.8516 21.4885 14.8686 21.1485 14.8546C20.9685 14.8476 20.9195 14.9087 20.9265 15.082C20.9395 15.4127 20.9195 15.7443 20.9345 16.075C20.9425 16.2573 20.8795 16.2994 20.7075 16.2954C20.2435 16.2844 19.7785 16.2834 19.3145 16.2954C19.1305 16.3004 19.0595 16.2593 19.0705 16.0599C19.0885 15.7403 19.0645 15.4187 19.0795 15.0991C19.0875 14.9127 19.0395 14.8446 18.8415 14.8546C18.5015 14.8716 18.1605 14.8546 17.8195 14.8616C17.6845 14.8646 17.6425 14.8225 17.6445 14.6873C17.6515 14.1913 17.6555 13.6943 17.6435 13.1983C17.6385 13.015 17.7225 13.001 17.8665 13.004C18.2075 13.011 18.5485 12.999 18.8885 13.01C19.0405 13.015 19.0825 12.9659 19.0785 12.8176C19.0685 12.4659 19.0815 12.1142 19.0725 11.7625C19.0685 11.6113 19.1205 11.5642 19.2675 11.5702C19.5145 11.5802 19.7625 11.5732 20.0105 11.5732V11.5722Z" fill="white"/>
</svg>
