<svg width="40" height="40" viewBox="0 0 40 40" fill="none" xmlns="http://www.w3.org/2000/svg">
<path d="M39.9972 20.0315C40.1739 30.9008 30.7978 40.1422 19.7354 39.9983C9.14175 39.8601 0 30.8793 0 19.9867C0 9.09416 9.27214 -0.132822 20.2858 0.00144722C30.813 0.132519 40.1875 9.047 39.9972 20.0315Z" fill="#06C4FF"/>
<path d="M7.19946 13.0847C7.32745 12.8689 7.51944 12.7523 7.75942 12.6643C10.348 11.6957 12.9159 10.6663 15.5637 9.86708C15.6269 9.8479 15.6885 9.82072 15.7525 9.80314C16.1724 9.68486 16.4844 9.90464 16.5028 10.3434C16.5404 11.2449 16.8508 12.0378 17.4875 12.6763C18.4835 13.677 19.6898 14.0102 21.0361 13.5874C22.396 13.1591 23.2023 12.192 23.4551 10.7798C23.478 10.6404 23.4924 10.4997 23.4983 10.3586C23.5263 9.89105 23.8335 9.67367 24.2838 9.81673C24.8534 9.99735 25.423 10.1796 25.9877 10.3762C26.1565 10.4345 26.2437 10.4153 26.3373 10.2515C26.6573 9.69684 26.9828 9.14698 27.3444 8.6187C27.6516 8.17034 28.0596 8.16314 28.3604 8.61151C29.035 9.59953 29.6332 10.6375 30.1498 11.7165C30.1785 11.7837 30.2216 11.8437 30.2761 11.8925C30.3305 11.9412 30.395 11.9775 30.465 11.9986C31.0818 12.2224 31.6929 12.4589 32.3049 12.6907C32.6992 12.8402 32.7992 12.9808 32.8 13.3948C32.8 15.5341 32.8 17.6733 32.8 19.8126C32.8 20.3225 32.5425 20.5318 32.0329 20.4383C30.6271 20.1767 29.2216 19.913 27.8164 19.6471C27.634 19.6127 27.5724 19.6335 27.5764 19.8405C27.5876 20.806 27.5828 21.7722 27.5764 22.7377C27.5747 22.87 27.6141 22.9996 27.6892 23.1085C28.4803 24.3201 29.2091 25.5661 29.7259 26.924C30.0514 27.7784 30.2506 28.6471 29.9026 29.5454C29.4403 30.7443 28.5627 31.4516 27.2892 31.5539C25.9629 31.661 24.955 31.0783 24.3166 29.9027C24.2892 29.8361 24.2408 29.7803 24.1787 29.7438C24.1166 29.7073 24.0442 29.6921 23.9727 29.7005C20.382 29.7042 16.791 29.7042 13.1998 29.7005C13.0837 29.701 12.9678 29.6911 12.8535 29.6709C12.7494 29.6569 12.6531 29.6086 12.5797 29.5336C12.5064 29.4585 12.4602 29.3612 12.4487 29.2569C12.4308 29.1422 12.4225 29.0262 12.4239 28.9101C12.4239 25.905 12.4239 22.9002 12.4239 19.8957C12.4239 19.6695 12.3951 19.6024 12.1407 19.6559C10.7192 19.9332 9.29851 20.1898 7.87701 20.4615C7.55704 20.5215 7.37465 20.3432 7.19946 20.129V13.0847ZM13.499 20.129C13.499 22.8842 13.499 25.6394 13.499 28.3946C13.499 28.5472 13.5038 28.6255 13.7014 28.6255C17.0612 28.6186 20.4188 28.6186 23.7743 28.6255C23.9215 28.6255 23.9743 28.5952 23.9799 28.4401C24.0015 27.8687 24.1702 27.3308 24.3798 26.8033C24.9006 25.4838 25.6109 24.2658 26.3869 23.0838C26.4629 22.9759 26.5037 22.8472 26.5037 22.7153C26.4989 20.8755 26.4989 19.036 26.5037 17.1967C26.509 17.1328 26.4945 17.0689 26.4619 17.0136C26.4294 16.9584 26.3806 16.9146 26.3221 16.8882C25.7363 16.5521 25.2795 16.0303 25.0241 15.4055C24.7688 14.7806 24.7295 14.0885 24.9126 13.4388C25.0898 12.799 25.3277 12.1776 25.6229 11.583C25.6885 11.4495 25.6861 11.388 25.5262 11.3432C25.2764 11.2804 25.0313 11.2002 24.7926 11.1035C24.5718 11.0108 24.4974 11.0483 24.4454 11.2953C23.9127 13.8096 21.1657 15.4129 18.717 14.6376C17.0156 14.0997 15.9548 12.9473 15.5341 11.2138C15.4965 11.0595 15.4581 11.0196 15.2941 11.0771C14.7773 11.2585 14.2542 11.4264 13.731 11.5846C13.5518 11.6381 13.495 11.7189 13.4958 11.9115C13.5022 14.6512 13.5033 17.3904 13.499 20.129ZM12.4199 15.281C12.4199 14.2828 12.4199 13.2829 12.4239 12.2863C12.4239 12.0945 12.3847 12.0649 12.2039 12.1345C10.9571 12.614 9.70782 13.0855 8.45617 13.5491C8.33218 13.5954 8.27379 13.649 8.27459 13.7952C8.28045 15.5668 8.28045 17.3384 8.27459 19.11C8.27459 19.2323 8.28579 19.2891 8.43857 19.2603C9.68649 19.02 10.936 18.7861 12.1871 18.5586C12.3727 18.5258 12.4271 18.4611 12.4231 18.2749C12.4151 17.2774 12.4199 16.2792 12.4199 15.281ZM27.0284 24.0676C26.5157 24.8964 26.0301 25.7156 25.6365 26.5859C25.3862 27.139 25.1566 27.696 25.0686 28.3043C24.8798 29.619 26.2101 30.7938 27.4924 30.4374C28.6267 30.1217 29.2267 29.0731 28.9179 27.9414C28.5339 26.5356 27.7756 25.3152 27.0284 24.0676ZM27.8508 9.79834C27.1092 11.0291 26.4013 12.2168 25.9925 13.5547C25.8731 13.9106 25.847 14.2911 25.9165 14.66C25.97 14.917 26.0743 15.1608 26.2232 15.377C26.3721 15.5933 26.5627 15.7777 26.7838 15.9195C27.0049 16.0613 27.2521 16.1576 27.5109 16.2027C27.7697 16.2479 28.0349 16.2411 28.2911 16.1826C28.5472 16.1242 28.7891 16.0153 29.0026 15.8623C29.2161 15.7093 29.3969 15.5153 29.5345 15.2916C29.672 15.068 29.7635 14.8192 29.8037 14.5598C29.8438 14.3004 29.8318 14.0356 29.7683 13.7809C29.4123 12.3375 28.6179 11.0995 27.8508 9.79834ZM30.7618 13.259C30.7818 13.3748 30.7882 13.4468 30.8066 13.5163C31.3185 15.464 29.7891 17.3749 27.7436 17.307C27.606 17.3022 27.5708 17.3422 27.574 17.4668C27.5903 17.7157 27.5889 17.9654 27.57 18.2141C27.5412 18.4675 27.65 18.5338 27.874 18.5714C29.084 18.7845 30.293 19.0088 31.5009 19.2443C31.6897 19.2811 31.7241 19.2443 31.7225 19.0653C31.7137 18.2916 31.7185 17.518 31.7185 16.7476C31.7185 15.7741 31.7185 14.8009 31.7185 13.828C31.7185 13.7257 31.7481 13.6186 31.5953 13.5707C31.3265 13.4859 31.0674 13.3756 30.7618 13.259Z" fill="white"/>
</svg>
