<svg width="40" height="41" viewBox="0 0 40 41" fill="none" xmlns="http://www.w3.org/2000/svg">
<path d="M39.9962 19.9448C40.2122 30.9303 30.6972 40.002 20.0301 40.002C9.35409 40.003 -0.0249502 30.9293 4.98651e-05 19.9008C0.02405 9.24398 9.21109 -0.00505656 20.0451 0.00195711C30.8202 0.00897079 40.2162 9.23195 39.9962 19.9448Z" fill="#F4553B"/>
<path d="M5 17.1876C5.219 16.884 5.52 16.8039 5.88 16.8209C6.30901 16.842 6.74001 16.8159 7.16901 16.8299C7.36201 16.837 7.42701 16.7748 7.47401 16.5845C8.14601 13.9183 9.80202 12.1759 12.418 11.3583C13.101 11.1449 13.814 11.0717 14.527 11.0687C17.0181 11.0597 19.5091 11.0607 22.0001 11.0717C22.2451 11.0727 22.3051 11.0106 22.3021 10.7681C22.2891 9.56478 22.2951 8.36043 22.2961 7.15708C22.2961 6.6551 22.5521 6.39459 23.0501 6.39359C24.4761 6.39159 25.9021 6.39159 27.3291 6.39359C27.8041 6.39359 28.0731 6.65711 28.0791 7.13604C28.0871 7.83039 28.0881 8.52575 28.0791 9.22111C28.0731 9.68401 27.8461 9.89642 27.3861 9.89642C26.1651 9.89642 24.9441 9.90243 23.7231 9.89141C23.5071 9.88941 23.4271 9.9375 23.4491 10.1629C23.4701 10.3764 23.4671 10.5938 23.4491 10.8082C23.4331 11.0126 23.5001 11.0717 23.7071 11.0697C24.9571 11.0597 26.2081 11.0877 27.4581 11.0597C29.4651 11.0146 31.2241 11.6328 32.7081 12.9844C34.2241 14.3661 34.9981 16.0965 34.9991 18.1575C35.0021 21.6814 35.0001 25.2043 34.9991 28.7281C34.9991 29.3464 34.8161 29.5277 34.1941 29.5277C31.1071 29.5277 28.0201 29.5307 24.9341 29.5217C24.6791 29.5217 24.6081 29.5768 24.6131 29.8393C24.6311 30.8182 24.6211 31.7971 24.6201 32.775C24.6201 33.261 24.3631 33.6197 24.0251 33.6107C23.6891 33.6016 23.4511 33.263 23.4511 32.7901C23.4511 31.7921 23.4431 30.7932 23.4571 29.7952C23.4601 29.5708 23.3961 29.5207 23.1801 29.5217C21.8221 29.5317 20.4641 29.5317 19.1071 29.5217C18.8891 29.5197 18.8301 29.5728 18.8331 29.7952C18.8461 30.8322 18.8361 31.8703 18.8411 32.9073C18.8411 33.1147 18.8051 33.3081 18.6351 33.4303C18.4841 33.5385 18.3351 33.6738 18.1061 33.5606C17.8541 33.4353 17.6991 33.269 17.6991 32.9774C17.7001 31.9304 17.6881 30.8823 17.7071 29.8363C17.7121 29.5628 17.6261 29.5217 17.3801 29.5217C14.274 29.5297 11.167 29.5277 8.06101 29.5267C7.49101 29.5267 7.31401 29.3474 7.31401 28.7702C7.31401 27.1651 7.31401 25.56 7.31401 23.9548C7.31401 23.8076 7.30701 23.6643 7.25401 23.523C6.52201 21.5772 5.793 19.6294 5.064 17.6826C5.051 17.6465 5.048 17.6065 5 17.5974V17.1866V17.1876ZM18.0931 12.2049L18.0741 12.262C18.1761 12.3362 18.2801 12.4073 18.3801 12.4845C20.1941 13.8912 21.1431 15.7508 21.1611 18.0423C21.1881 21.3788 21.1661 24.7163 21.1531 28.0528C21.1521 28.3304 21.2341 28.3845 21.4911 28.3815C22.4481 28.3704 23.4051 28.3885 24.3621 28.3895C27.4191 28.3915 30.4761 28.3875 33.5331 28.3955C33.7761 28.3955 33.8381 28.3334 33.8381 28.0899C33.8301 24.6843 33.8321 21.2786 33.8331 17.874C33.8331 17.4902 33.7811 17.1135 33.6871 16.7438C33.0131 14.1106 30.5691 12.2169 27.8311 12.2069C26.4731 12.2019 25.1161 12.2159 23.7581 12.1979C23.4831 12.1939 23.4471 12.2841 23.4481 12.5266C23.4581 14.317 23.4541 16.1085 23.4531 17.899C23.4531 18.3529 23.1581 18.6224 22.7561 18.5443C22.4641 18.4882 22.2981 18.2417 22.2981 17.8539C22.2981 16.1707 22.2981 14.4874 22.2981 12.8041C22.2981 12.4046 22.0947 12.2049 21.6881 12.2049H18.0951H18.0931ZM14.249 16.8259C16.045 16.8259 17.8421 16.8229 19.6381 16.8299C19.8491 16.8299 19.8731 16.7758 19.8261 16.5835C19.2471 14.1988 16.9831 12.3512 14.519 12.26C11.807 12.1598 9.41102 13.9163 8.66802 16.5364C8.59901 16.7798 8.63901 16.8309 8.88802 16.8299C10.675 16.8209 12.462 16.8249 14.248 16.8249L14.249 16.8259ZM12.777 26.0629C12.785 26.0239 12.792 26.0128 12.789 26.0048C11.81 23.3827 10.829 20.7606 9.85202 18.1375C9.80402 18.0082 9.72402 17.9932 9.60702 17.9932C8.62102 17.9962 7.63501 17.9972 6.64901 17.9932C6.49301 17.9932 6.41301 17.9992 6.48801 18.1966C7.45501 20.7626 8.41701 23.3306 9.37502 25.8996C9.42102 26.0219 9.47702 26.065 9.60502 26.0639C10.659 26.0599 11.713 26.0619 12.779 26.0619L12.777 26.0629ZM17.4171 26.0629C17.4001 26.0058 17.3931 25.9778 17.3841 25.9527C16.416 23.3647 15.447 20.7766 14.485 18.1856C14.423 18.0193 14.331 18.0002 14.18 18.0012C13.233 18.0072 12.285 18.0032 11.337 18.0062C11.245 18.0062 11.147 17.9792 11.062 18.0303C11.058 18.0473 11.051 18.0583 11.054 18.0664C12.032 20.6815 13.011 23.2966 13.986 25.9127C14.031 26.0339 14.095 26.068 14.221 26.067C15.276 26.0619 16.33 26.0639 17.4171 26.0639V26.0629ZM15.683 18.0042C15.678 18.0403 15.668 18.0623 15.674 18.0784C16.651 20.6925 17.6301 23.3056 18.6051 25.9207C18.6461 26.0319 18.7041 26.069 18.8191 26.066C19.1211 26.0589 19.4251 26.0509 19.7271 26.068C19.9281 26.079 19.9881 26.0219 19.9881 25.8125C19.9801 23.2986 19.9791 20.7847 19.9901 18.2708C19.9911 18.0213 19.9031 17.9892 19.6901 17.9912C18.4211 18.0022 17.1521 18.0012 15.883 18.0042C15.816 18.0042 15.749 18.0042 15.684 18.0042H15.683ZM8.46001 26.8856C8.46001 27.3034 8.47201 27.7212 8.45501 28.137C8.44701 28.3464 8.51201 28.3955 8.71502 28.3935C9.94502 28.3835 11.175 28.3905 12.406 28.3885C14.827 28.3845 17.2481 28.3765 19.6701 28.3795C19.9111 28.3795 20.0351 28.3384 19.9981 28.0608C19.9711 27.8595 19.9811 27.65 19.9961 27.4456C20.0101 27.2623 19.9461 27.2132 19.7661 27.2162C19.0631 27.2262 18.3611 27.2202 17.6581 27.2202C14.827 27.2202 11.995 27.2182 9.16402 27.2242C8.87402 27.2242 8.64802 27.1481 8.46001 26.8856ZM25.1811 8.73917C25.4641 8.73917 25.7471 8.74718 26.0291 8.73716C26.3171 8.72714 26.7231 8.86641 26.8631 8.67905C27.0091 8.48367 26.8991 8.09992 26.9141 7.79933C26.9221 7.64704 26.8741 7.59694 26.7191 7.59794C25.6951 7.60395 24.6711 7.60395 23.6471 7.59794C23.4981 7.59794 23.4391 7.63201 23.4491 7.79132C23.4631 8.02477 23.4611 8.26023 23.4491 8.49469C23.4401 8.67604 23.4871 8.75019 23.6891 8.74418C24.1861 8.72814 24.6841 8.73917 25.1811 8.73917Z" fill="white"/>
</svg>
