<svg width="40" height="41" viewBox="0 0 40 41" fill="none" xmlns="http://www.w3.org/2000/svg">
<path d="M39.9962 19.9449C40.2122 30.9304 30.6972 40.0021 20.0301 40.0021C9.35409 40.0031 -0.0249502 30.9294 4.98651e-05 19.9008C0.02405 9.24402 9.21109 -0.00505659 20.0451 0.00195711C30.8202 0.00897082 40.2162 9.23199 39.9962 19.9449Z" fill="#FF6B8F"/>
<path d="M33.479 15.7387C33.2739 16.0493 32.9819 16.1155 32.6229 16.1155C24.1789 16.1075 15.7349 16.1095 7.29184 16.1095C7.18684 16.1095 7.07984 16.1155 6.97584 16.0994C6.74984 16.0634 6.59084 15.9351 6.51384 15.7167C6.43584 15.4953 6.49084 15.2989 6.64984 15.1346C6.71684 15.0654 6.79584 15.0083 6.87484 14.9532C11.1129 11.9744 15.3519 8.99656 19.5919 6.01874C19.9819 5.7442 20.1489 5.74621 20.5419 6.02575C24.7199 8.99957 28.8969 11.9754 33.0769 14.9462C33.2419 15.0634 33.3689 15.2057 33.4799 15.369V15.7387H33.479ZM31.0729 14.9402C31.0009 14.8871 30.9699 14.863 30.9379 14.841C27.3679 12.3 23.7969 9.76005 20.2309 7.21308C20.0829 7.10787 19.9979 7.13793 19.8699 7.2281C16.2789 9.75504 12.6859 12.278 9.09485 14.8039C9.04685 14.837 8.96085 14.851 8.96885 14.9412H31.0729V14.9402Z" fill="white"/>
<path d="M19.973 32.536C16.194 32.536 12.4139 32.536 8.63492 32.536C8.02192 32.536 7.83292 32.3466 7.83292 31.7345C7.83292 30.8978 7.83092 30.0612 7.83292 29.2245C7.83492 28.7085 8.03492 28.5071 8.55092 28.5051C9.26293 28.5021 9.97493 28.4951 10.6869 28.5102C10.9019 28.5142 10.9629 28.4661 10.9629 28.2406C10.9549 24.841 10.9569 21.4423 10.9579 18.0427C10.9579 17.9285 10.9569 17.8122 10.9809 17.702C11.0389 17.4355 11.2659 17.2622 11.5329 17.2642C11.8059 17.2662 12.0149 17.4325 12.0739 17.708C12.0979 17.8183 12.1069 17.9345 12.1069 18.0477C12.1089 21.6497 12.1079 25.2508 12.1079 28.8528C12.1079 29.459 11.9149 29.6494 11.3029 29.6504C10.5999 29.6504 9.89693 29.6564 9.19393 29.6464C9.01593 29.6434 8.96893 29.6995 8.97293 29.8718C8.98393 30.3117 8.98293 30.7525 8.97293 31.1924C8.96993 31.3407 9.00993 31.4028 9.16093 31.3818C9.22093 31.3737 9.28393 31.3808 9.34493 31.3808C16.455 31.3808 23.566 31.3788 30.676 31.3878C30.934 31.3878 31.001 31.3237 30.986 31.0712C30.963 30.6674 30.973 30.2616 30.983 29.8568C30.987 29.6945 30.937 29.6474 30.775 29.6484C30.054 29.6564 29.334 29.6524 28.613 29.6514C28.051 29.6514 27.846 29.451 27.846 28.8959C27.846 25.2678 27.846 21.6397 27.846 18.0116C27.846 17.5497 28.033 17.2922 28.38 17.2692C28.681 17.2481 28.928 17.4375 28.982 17.7411C29 17.8443 28.997 17.9515 28.997 18.0567C28.997 21.4474 29 24.838 28.991 28.2276C28.991 28.4641 29.051 28.5172 29.279 28.5122C29.982 28.4961 30.685 28.5041 31.388 28.5071C31.924 28.5092 32.12 28.7045 32.121 29.2376C32.123 30.0832 32.122 30.9279 32.121 31.7735C32.121 32.3326 31.916 32.537 31.361 32.537C27.564 32.537 23.767 32.537 19.97 32.537L19.973 32.536Z" fill="white"/>
<path d="M15.4532 24.0308C15.4532 25.641 15.4532 27.2521 15.4532 28.8623C15.4532 28.9765 15.4552 29.0927 15.4342 29.2039C15.3852 29.4614 15.1482 29.6448 14.8842 29.6458C14.6172 29.6458 14.3862 29.4675 14.3372 29.207C14.3142 29.0867 14.3072 28.9625 14.3072 28.8402C14.3052 25.637 14.3052 22.4337 14.3072 19.2305C14.3072 19.1082 14.3132 18.984 14.3362 18.8637C14.3862 18.6002 14.6122 18.4229 14.8802 18.4219C15.1572 18.4219 15.3922 18.6112 15.4372 18.8838C15.4542 18.987 15.4522 19.0942 15.4522 19.1994C15.4522 20.8095 15.4522 22.4207 15.4522 24.0308H15.4532Z" fill="white"/>
<path d="M24.5049 24.0384C24.5049 22.3932 24.5039 20.747 24.5049 19.1018C24.5049 18.6759 24.7189 18.4235 25.0689 18.4204C25.3469 18.4174 25.5729 18.6018 25.6239 18.8813C25.6429 18.9845 25.6499 19.0908 25.6499 19.196C25.6509 22.4173 25.6509 25.6375 25.6499 28.8588C25.6499 29.3779 25.4579 29.6414 25.0799 29.6464C24.7009 29.6504 24.5029 29.3859 24.5029 28.8719C24.5029 27.2617 24.5029 25.6506 24.5029 24.0404L24.5049 24.0384Z" fill="white"/>
<path d="M21.0822 24.0382C21.0822 22.393 21.0812 20.7468 21.0822 19.1016C21.0822 18.6437 21.3352 18.3842 21.7282 18.4313C21.9712 18.4603 22.1292 18.5996 22.1932 18.832C22.2212 18.9322 22.2312 19.0394 22.2312 19.1447C22.2332 22.401 22.2332 25.6574 22.2332 28.9127C22.2332 29.1282 22.2112 29.3376 22.0422 29.4939C21.8812 29.6432 21.6842 29.6842 21.4782 29.6181C21.2722 29.552 21.1372 29.4017 21.0982 29.1853C21.0802 29.0821 21.0822 28.9749 21.0822 28.8697C21.0822 27.2595 21.0822 25.6484 21.0822 24.0382Z" fill="white"/>
<path d="M18.8752 24.0633C18.8752 25.6734 18.8752 27.2836 18.8752 28.8947C18.8752 29.018 18.8802 29.1412 18.8382 29.2604C18.7512 29.5079 18.5342 29.6572 18.2712 29.6442C18.0232 29.6322 17.8192 29.4709 17.7612 29.2264C17.7352 29.1162 17.7232 29.0009 17.7232 28.8877C17.7212 25.6494 17.7212 22.4111 17.7232 19.1727C17.7232 19.0685 17.7352 18.9623 17.7582 18.8601C17.8182 18.5966 18.0172 18.4333 18.2782 18.4243C18.5492 18.4143 18.7782 18.5746 18.8432 18.8401C18.8722 18.9573 18.8722 19.0836 18.8722 19.2058C18.8742 20.825 18.8732 22.4441 18.8732 24.0633H18.8752Z" fill="white"/>
<path d="M19.9661 9.37833C20.2031 9.37833 20.4411 9.38735 20.6781 9.37532C20.8391 9.36731 20.8951 9.4174 20.8891 9.58373C20.8771 9.9244 20.8941 10.2661 20.8821 10.6077C20.8771 10.768 20.9221 10.8221 21.0871 10.8161C21.4271 10.8031 21.7681 10.8201 22.1091 10.8091C22.2741 10.8031 22.3201 10.8592 22.3161 11.0195C22.3071 11.5055 22.3071 11.9914 22.3161 12.4774C22.3191 12.6267 22.2751 12.6728 22.1261 12.6678C21.7861 12.6577 21.4441 12.6748 21.1041 12.6607C20.9241 12.6537 20.8751 12.7148 20.8821 12.8882C20.8951 13.2188 20.8751 13.5505 20.8901 13.8811C20.8981 14.0635 20.8351 14.1056 20.6631 14.1016C20.1991 14.0905 19.7341 14.0895 19.2701 14.1016C19.0861 14.1066 19.0151 14.0655 19.0261 13.8661C19.0441 13.5465 19.0201 13.2248 19.0351 12.9052C19.0431 12.7189 18.9951 12.6507 18.7971 12.6607C18.4571 12.6778 18.1161 12.6607 17.7751 12.6678C17.6401 12.6708 17.5981 12.6287 17.6001 12.4934C17.6071 11.9974 17.6111 11.5005 17.5991 11.0045C17.5941 10.8211 17.6781 10.8071 17.8221 10.8101C18.1631 10.8171 18.5041 10.8051 18.8441 10.8161C18.9961 10.8211 19.0381 10.7721 19.0341 10.6238C19.0241 10.2721 19.0371 9.92039 19.0281 9.5687C19.0241 9.41741 19.0761 9.37031 19.2231 9.37632C19.4701 9.38634 19.7181 9.37933 19.9661 9.37933V9.37833Z" fill="white"/>
</svg>
