<svg width="40" height="40" viewBox="0 0 40 40" fill="none" xmlns="http://www.w3.org/2000/svg">
<path d="M39.9972 20.0315C40.1739 30.9008 30.7978 40.1422 19.7354 39.9983C9.14175 39.8601 0 30.8793 0 19.9867C0 9.09416 9.27214 -0.132822 20.2858 0.00144722C30.813 0.132519 40.1875 9.047 39.9972 20.0315Z" fill="#4545B8"/>
<path d="M10.9323 31.3414L13.217 29.0588C13.0149 28.9637 12.8179 28.8584 12.6266 28.7431C11.2699 27.8906 10.4276 26.68 10.0996 25.1115C10.0332 24.7791 10.001 24.4409 10.0036 24.102C10.0036 20.4432 9.9916 16.7844 10.01 13.1256C10.0172 11.7006 10.6276 10.5377 11.7323 9.64018C12.3304 9.1543 13.0461 8.83453 13.8073 8.71309C14.0452 8.67268 14.286 8.65236 14.5273 8.65234C18.1742 8.65234 21.822 8.63636 25.4689 8.65954C27.1888 8.67073 28.4951 9.47314 29.3846 10.9373C29.7985 11.6283 30.011 12.4211 29.9982 13.2263C29.9982 16.8329 29.9982 20.4403 29.9982 24.0485C30.0028 25.0916 29.709 26.1143 29.1513 26.9962C28.5936 27.878 27.7953 28.5823 26.8504 29.026L26.796 29.0524L29.0782 31.331L29.0686 31.3518H28.9886C28.3375 31.3518 27.6861 31.3518 27.0344 31.3518C27.0094 31.353 26.9845 31.3486 26.9614 31.3391C26.9383 31.3296 26.9176 31.3151 26.9008 31.2966C26.327 30.7212 25.7521 30.1465 25.1761 29.5727C25.159 29.5523 25.1371 29.5366 25.1124 29.5268C25.0877 29.517 25.0609 29.5136 25.0345 29.5167C24.8025 29.5391 24.569 29.5391 24.3354 29.5391H15.3928C15.2512 29.5391 15.108 29.5311 14.9664 29.5175C14.9401 29.5146 14.9135 29.5183 14.8889 29.5282C14.8643 29.5381 14.8426 29.5539 14.8257 29.5743C14.2502 30.1503 13.6743 30.726 13.0978 31.3014C13.0854 31.3182 13.0695 31.3319 13.051 31.3416C13.0326 31.3513 13.0122 31.3567 12.9914 31.3573C12.3162 31.3573 11.6403 31.3573 10.9651 31.3573C10.9539 31.3525 10.9403 31.3589 10.9323 31.3414ZM19.9989 21.3647C17.3031 21.3647 14.6073 21.3647 11.9115 21.3647C11.8379 21.3647 11.8171 21.3791 11.8171 21.4566C11.8171 22.3278 11.8171 23.1997 11.8171 24.0709C11.806 24.7206 11.9766 25.3606 12.3098 25.9187C13.0162 27.0807 14.0593 27.7065 15.4168 27.7161C18.4702 27.7369 21.5236 27.7225 24.5762 27.7217C24.6972 27.7218 24.8182 27.7152 24.9385 27.7017C25.5792 27.6368 26.1899 27.3983 26.7048 27.012C27.6503 26.2927 28.1447 25.3336 28.1719 24.1516C28.1919 23.2565 28.1719 22.3605 28.1783 21.4646C28.1783 21.3783 28.1527 21.3647 28.0743 21.3647C25.3844 21.3663 22.6926 21.3663 19.9989 21.3647ZM15.4552 14.1006C14.274 14.1006 13.0924 14.1006 11.9107 14.1006C11.8355 14.1006 11.8171 14.1174 11.8179 14.1933C11.8179 15.9484 11.8179 17.7038 11.8179 19.4594C11.8179 19.5345 11.8347 19.5521 11.9107 19.5521C14.2726 19.5521 16.6354 19.5521 18.999 19.5521C19.0742 19.5521 19.0918 19.5353 19.0918 19.4594C19.0918 17.7043 19.0918 15.9489 19.0918 14.1933C19.0918 14.1182 19.075 14.1006 18.999 14.1006C17.8188 14.1022 16.6381 14.1022 15.4568 14.1006H15.4552ZM24.5522 14.1006C23.3677 14.1006 22.1833 14.1006 20.9988 14.1006C20.9236 14.1006 20.906 14.1182 20.906 14.1933C20.906 15.9484 20.906 17.7038 20.906 19.4594C20.906 19.5353 20.9236 19.5521 20.9988 19.5521C23.3618 19.5521 25.7246 19.5521 28.0871 19.5521C28.1631 19.5521 28.1807 19.5353 28.1807 19.4594C28.1807 17.7043 28.1807 15.9489 28.1807 14.1933C28.1807 14.1182 28.1631 14.1006 28.0871 14.1006C26.908 14.1022 25.7302 14.1022 24.5538 14.1006H24.5522ZM28.0303 12.2824C28.0303 12.268 28.0303 12.2624 28.0263 12.2568C27.6695 11.2178 26.612 10.469 25.4969 10.469C21.8444 10.469 18.1913 10.469 14.5377 10.469C13.6649 10.469 12.9458 10.8214 12.3922 11.4984C12.2031 11.7311 12.0578 11.9962 11.9635 12.2808L28.0303 12.2824Z" fill="white"/>
<path d="M16.3653 24.5475C16.3634 24.816 16.2819 25.078 16.1311 25.3003C15.9803 25.5225 15.767 25.6952 15.5181 25.7964C15.2691 25.8976 14.9958 25.9229 14.7325 25.869C14.4692 25.8151 14.2278 25.6845 14.0387 25.4936C13.8497 25.3027 13.7215 25.0602 13.6704 24.7965C13.6192 24.5329 13.6474 24.2601 13.7513 24.0125C13.8553 23.7648 14.0303 23.5535 14.2544 23.4052C14.4784 23.2569 14.7414 23.1783 15.0102 23.1792C15.3712 23.1822 15.7163 23.3277 15.9702 23.5841C16.2241 23.8405 16.3661 24.1868 16.3653 24.5475Z" fill="white"/>
<path d="M26.3621 24.5459C26.3605 24.8145 26.2793 25.0765 26.1288 25.299C25.9782 25.5215 25.765 25.6944 25.5162 25.7959C25.2673 25.8974 24.9939 25.9229 24.7306 25.8693C24.4672 25.8156 24.2256 25.6852 24.0364 25.4944C23.8472 25.3037 23.7188 25.0612 23.6674 24.7976C23.616 24.534 23.644 24.2611 23.7478 24.0134C23.8515 23.7656 24.0265 23.5542 24.2504 23.4057C24.4744 23.2572 24.7374 23.1784 25.0062 23.1792C25.3671 23.1817 25.7123 23.3269 25.9664 23.583C26.2205 23.8391 26.3628 24.1853 26.3621 24.5459Z" fill="white"/>
</svg>
