<svg width="205" height="205" viewBox="0 0 205 205" fill="none" xmlns="http://www.w3.org/2000/svg">
<circle cx="102.5" cy="102.5" r="101" fill="#FF7B31" fill-opacity="0.3" stroke="#FF7B31" stroke-width="3"/>
<path d="M93.8485 112.249C92.5228 112.249 91.342 112.021 90.3063 111.565C89.2765 111.103 88.4627 110.47 87.8649 109.665C87.273 108.854 86.9682 107.919 86.9505 106.86H90.8212C90.8449 107.304 90.9899 107.694 91.2562 108.032C91.5285 108.363 91.8895 108.621 92.3393 108.804C92.7891 108.987 93.2952 109.079 93.8574 109.079C94.4434 109.079 94.9612 108.976 95.411 108.768C95.8609 108.561 96.213 108.274 96.4675 107.907C96.722 107.54 96.8493 107.117 96.8493 106.638C96.8493 106.152 96.7131 105.723 96.4409 105.35C96.1745 104.972 95.7898 104.676 95.2868 104.463C94.7896 104.25 94.1977 104.143 93.5112 104.143H91.8155V101.32H93.5112C94.0912 101.32 94.6032 101.219 95.0471 101.018C95.4969 100.817 95.8461 100.539 96.0946 100.184C96.3432 99.8226 96.4675 99.4023 96.4675 98.9229C96.4675 98.4672 96.358 98.0677 96.139 97.7244C95.926 97.3752 95.6241 97.103 95.2335 96.9077C94.8488 96.7124 94.399 96.6147 93.8841 96.6147C93.3632 96.6147 92.8868 96.7094 92.4547 96.8988C92.0227 97.0823 91.6764 97.3456 91.416 97.6889C91.1556 98.0322 91.0165 98.4347 90.9988 98.8963H87.3145C87.3322 97.8487 87.6311 96.9254 88.2111 96.1264C88.7911 95.3274 89.5724 94.703 90.5549 94.2532C91.5433 93.7975 92.6589 93.5696 93.9018 93.5696C95.1565 93.5696 96.2544 93.7975 97.1955 94.2532C98.1365 94.7089 98.8675 95.3245 99.3883 96.0998C99.9151 96.8692 100.175 97.7333 100.17 98.6921C100.175 99.7101 99.8588 100.559 99.2196 101.24C98.5864 101.921 97.7607 102.353 96.7427 102.536V102.678C98.0803 102.85 99.0983 103.315 99.7967 104.072C100.501 104.824 100.85 105.765 100.844 106.895C100.85 107.931 100.551 108.851 99.9476 109.656C99.3498 110.461 98.5242 111.094 97.4707 111.556C96.4172 112.018 95.2098 112.249 93.8485 112.249ZM110.736 112.4C109.209 112.394 107.896 112.018 106.795 111.272C105.7 110.526 104.856 109.446 104.264 108.032C103.679 106.617 103.389 104.915 103.394 102.927C103.394 100.944 103.687 99.2544 104.273 97.8576C104.865 96.4608 105.709 95.3984 106.804 94.6705C107.904 93.9366 109.215 93.5696 110.736 93.5696C112.257 93.5696 113.565 93.9366 114.66 94.6705C115.761 95.4044 116.608 96.4697 117.199 97.8665C117.791 99.2573 118.084 100.944 118.078 102.927C118.078 104.921 117.782 106.626 117.191 108.04C116.605 109.455 115.764 110.535 114.669 111.281C113.574 112.027 112.263 112.4 110.736 112.4ZM110.736 109.212C111.778 109.212 112.61 108.689 113.231 107.641C113.853 106.593 114.16 105.022 114.154 102.927C114.154 101.548 114.012 100.4 113.728 99.4822C113.45 98.5649 113.054 97.8754 112.539 97.4137C112.03 96.9521 111.429 96.7212 110.736 96.7212C109.701 96.7212 108.872 97.2391 108.251 98.2749C107.629 99.3106 107.315 100.861 107.31 102.927C107.31 104.324 107.449 105.49 107.727 106.425C108.011 107.354 108.41 108.052 108.925 108.52C109.44 108.982 110.044 109.212 110.736 109.212Z" fill="#FF7B31"/>
</svg>
