<svg width="50" height="76" viewBox="0 0 50 76" fill="none" xmlns="http://www.w3.org/2000/svg">
<path d="M50 24.8956C49.9838 27.0677 49.8196 29.0152 49.3644 30.9335C49.019 32.3881 48.3961 33.7298 47.764 35.0724C42.0619 47.1898 36.3626 59.3084 30.666 71.4282C29.5322 73.8397 26.9149 75.3044 24.2801 74.9525C22.0192 74.6504 20.3566 73.5031 19.3677 71.4036C13.473 58.8876 7.57234 46.374 1.66567 33.8629C0.939012 32.3224 0.510457 30.6993 0.267507 29.0205C0.0486333 27.516 -0.0200931 26.0031 0.00485855 24.4854C0.105103 18.6196 1.99924 13.4222 5.82252 8.95153C8.03052 6.37276 10.5957 4.2348 13.6162 2.66679C15.7369 1.5682 18.014 0.802234 20.3676 0.395755C22.4883 0.0297546 24.645 -0.0829529 26.7924 0.060003C32.2266 0.404656 37.009 2.35263 41.1395 5.90393C43.7411 8.15089 45.89 10.7629 47.4431 13.8425C48.6981 16.3284 49.4673 18.9589 49.7999 21.7219C49.9235 22.7755 49.9903 23.8349 50 24.8956ZM37.4997 25.0221C37.6205 18.1416 31.7542 12.5586 25.1661 12.4776C18.2747 12.3922 12.4715 18.1683 12.4715 24.9945C12.4715 31.8208 18.1928 37.4419 24.8225 37.5281C31.7446 37.6183 37.6104 31.8304 37.4997 25.0221Z" fill="#FF9431"/>
<path d="M37.4995 25.0221C37.6102 31.8304 31.7444 37.6183 24.8223 37.5281C18.1948 37.4405 12.4739 31.8168 12.4739 24.9941C12.4739 18.1713 18.2745 12.39 25.1659 12.4775C31.754 12.5585 37.6203 18.1416 37.4995 25.0221Z" fill="#FF9431"/>
<path d="M25 35.6668L24.5134 36.5405C24.8159 36.7089 25.1841 36.7089 25.4866 36.5405L25 35.6668ZM25 18.5498L24.0797 18.9409C24.2365 19.3101 24.5989 19.5498 25 19.5498C25.4011 19.5498 25.7635 19.3101 25.9203 18.9409L25 18.5498ZM12 20.9633C12 25.4391 15.3103 29.3741 18.3347 32.0692C19.8787 33.4451 21.4181 34.5592 22.5693 35.3286C23.1459 35.714 23.6276 36.0145 23.9669 36.2197C24.1367 36.3223 24.271 36.4013 24.364 36.4551C24.4105 36.4821 24.4467 36.5028 24.4719 36.517C24.4844 36.5242 24.4942 36.5297 24.5012 36.5336C24.5047 36.5356 24.5074 36.5371 24.5095 36.5383C24.5105 36.5388 24.5113 36.5393 24.512 36.5397C24.5123 36.5399 24.5127 36.5401 24.5129 36.5401C24.5132 36.5403 24.5134 36.5405 25 35.6668C25.4866 34.7932 25.4867 34.7933 25.4869 34.7934C25.4869 34.7933 25.4869 34.7934 25.4869 34.7934C25.4868 34.7933 25.4866 34.7932 25.4861 34.7929C25.4853 34.7925 25.4837 34.7916 25.4814 34.7903C25.4768 34.7877 25.4694 34.7835 25.4593 34.7778C25.439 34.7663 25.4078 34.7485 25.3665 34.7245C25.2837 34.6765 25.1602 34.604 25.0018 34.5083C24.6849 34.3167 24.2291 34.0324 23.6807 33.6658C22.5819 32.9315 21.1213 31.8735 19.6653 30.576C16.6897 27.9244 14 24.5076 14 20.9633H12ZM25.9203 18.1587C24.4058 14.5947 20.9635 12.9574 17.857 13.4061C16.2993 13.6312 14.8205 14.3826 13.734 15.6775C12.6447 16.9756 12 18.7588 12 20.9633H14C14 19.1577 14.522 17.8498 15.266 16.963C16.0129 16.073 17.034 15.5458 18.143 15.3856C20.3699 15.0639 22.9275 16.2298 24.0797 18.9409L25.9203 18.1587ZM36 20.9633C36 24.5076 33.3103 27.9244 30.3347 30.576C28.8787 31.8735 27.4181 32.9315 26.3193 33.6658C25.7709 34.0324 25.3151 34.3167 24.9982 34.5083C24.8398 34.604 24.7163 34.6765 24.6335 34.7245C24.5922 34.7485 24.561 34.7663 24.5407 34.7778C24.5306 34.7835 24.5232 34.7877 24.5186 34.7903C24.5163 34.7916 24.5147 34.7925 24.5139 34.7929C24.5134 34.7932 24.5132 34.7933 24.5131 34.7934C24.5131 34.7934 24.5131 34.7933 24.5131 34.7934C24.5133 34.7933 24.5134 34.7932 25 35.6668C25.4866 36.5405 25.4868 36.5403 25.4871 36.5401C25.4873 36.5401 25.4877 36.5399 25.488 36.5397C25.4887 36.5393 25.4895 36.5388 25.4905 36.5383C25.4926 36.5371 25.4953 36.5356 25.4988 36.5336C25.5058 36.5297 25.5156 36.5242 25.5281 36.517C25.5533 36.5028 25.5895 36.4821 25.636 36.4551C25.729 36.4013 25.8633 36.3223 26.0331 36.2197C26.3724 36.0145 26.8541 35.714 27.4307 35.3286C28.5819 34.5592 30.1213 33.4451 31.6653 32.0692C34.6897 29.3741 38 25.4391 38 20.9633H36ZM25.9203 18.9409C27.0725 16.2298 29.6301 15.0639 31.857 15.3856C32.966 15.5458 33.9871 16.073 34.734 16.963C35.478 17.8498 36 19.1577 36 20.9633H38C38 18.7588 37.3553 16.9756 36.266 15.6775C35.1795 14.3826 33.7007 13.6312 32.143 13.4061C29.0365 12.9574 25.5942 14.5947 24.0797 18.1587L25.9203 18.9409Z" fill="white"/>
</svg>
