<svg width="214" height="214" viewBox="0 0 214 214" fill="none" xmlns="http://www.w3.org/2000/svg">
<circle cx="107" cy="107" r="105" fill="#FF9431" fill-opacity="0.3" stroke="#FF9431" stroke-width="4"/>
<path d="M101.143 116.249C100.208 116.243 99.3054 116.086 98.4354 115.778C97.5713 115.47 96.7959 114.97 96.1094 114.278C95.4228 113.585 94.8783 112.668 94.4759 111.526C94.0793 110.383 93.881 108.981 93.881 107.317C93.887 105.79 94.0616 104.426 94.4048 103.225C94.754 102.017 95.2512 100.993 95.8963 100.153C96.5473 99.3126 97.3256 98.6734 98.2312 98.2354C99.1367 97.7915 100.152 97.5696 101.276 97.5696C102.49 97.5696 103.561 97.8063 104.49 98.2798C105.419 98.7474 106.165 99.3836 106.727 100.189C107.295 100.993 107.639 101.896 107.757 102.896H103.966C103.818 102.263 103.508 101.766 103.034 101.405C102.561 101.044 101.975 100.863 101.276 100.863C100.093 100.863 99.1929 101.378 98.5774 102.408C97.9678 103.438 97.6571 104.838 97.6452 106.607H97.7695C98.0418 106.069 98.4087 105.61 98.8704 105.231C99.3379 104.846 99.8677 104.554 100.46 104.352C101.057 104.145 101.688 104.042 102.35 104.042C103.428 104.042 104.386 104.296 105.227 104.805C106.067 105.308 106.73 106.001 107.216 106.882C107.701 107.764 107.944 108.773 107.944 109.91C107.944 111.141 107.656 112.236 107.082 113.195C106.514 114.153 105.718 114.905 104.694 115.45C103.676 115.988 102.493 116.254 101.143 116.249ZM101.125 113.23C101.717 113.23 102.247 113.088 102.714 112.804C103.182 112.52 103.549 112.135 103.815 111.65C104.082 111.165 104.215 110.62 104.215 110.016C104.215 109.413 104.082 108.871 103.815 108.392C103.555 107.912 103.194 107.531 102.732 107.246C102.271 106.962 101.744 106.82 101.152 106.82C100.708 106.82 100.297 106.903 99.918 107.069C99.5451 107.235 99.2166 107.465 98.9325 107.761C98.6544 108.057 98.4354 108.401 98.2756 108.791C98.1158 109.176 98.0359 109.587 98.0359 110.025C98.0359 110.611 98.169 111.147 98.4354 111.632C98.7076 112.117 99.0746 112.505 99.5362 112.795C100.004 113.085 100.533 113.23 101.125 113.23ZM117.31 116.249C116.055 116.249 114.936 116.018 113.954 115.556C112.977 115.094 112.202 114.458 111.628 113.647C111.054 112.837 110.755 111.907 110.731 110.86H114.46C114.501 111.564 114.797 112.135 115.348 112.573C115.898 113.011 116.552 113.23 117.31 113.23C117.913 113.23 118.446 113.097 118.908 112.831C119.375 112.558 119.739 112.183 120 111.703C120.266 111.218 120.399 110.661 120.399 110.034C120.399 109.395 120.263 108.833 119.991 108.347C119.724 107.862 119.355 107.483 118.881 107.211C118.408 106.939 117.866 106.8 117.256 106.794C116.724 106.794 116.206 106.903 115.703 107.122C115.206 107.341 114.818 107.64 114.54 108.019L111.122 107.406L111.983 97.8182H123.098V100.961H115.152L114.682 105.515H114.788C115.108 105.065 115.59 104.693 116.235 104.397C116.881 104.101 117.603 103.953 118.402 103.953C119.497 103.953 120.473 104.21 121.331 104.725C122.19 105.24 122.867 105.947 123.364 106.847C123.862 107.741 124.107 108.77 124.101 109.936C124.107 111.162 123.823 112.251 123.249 113.203C122.681 114.15 121.885 114.896 120.861 115.441C119.843 115.979 118.659 116.249 117.31 116.249Z" fill="#FF9431"/>
</svg>
