<svg width="156" height="156" viewBox="0 0 156 156" fill="none" xmlns="http://www.w3.org/2000/svg">
<circle cx="78" cy="78" r="76.5" fill="#FFAD31" fill-opacity="0.3" stroke="#FFAD31" stroke-width="3"/>
<path d="M70.318 87.2486C69.0632 87.2486 67.9446 87.0178 66.9621 86.5561C65.9856 86.0945 65.2102 85.4582 64.6361 84.6474C64.062 83.8365 63.7632 82.9073 63.7395 81.8597H67.4682C67.5096 82.564 67.8055 83.1352 68.356 83.5732C68.9064 84.0111 69.5604 84.2301 70.318 84.2301C70.9217 84.2301 71.4543 84.0969 71.916 83.8306C72.3835 83.5584 72.7475 83.1825 73.0079 82.7031C73.2743 82.2178 73.4074 81.6615 73.4074 81.0341C73.4074 80.3949 73.2713 79.8326 72.9991 79.3473C72.7327 78.862 72.3628 78.4832 71.8893 78.2109C71.4159 77.9387 70.8743 77.7996 70.2647 77.7937C69.732 77.7937 69.2141 77.9032 68.7111 78.1222C68.2139 78.3411 67.8262 78.64 67.5481 79.0188L64.1301 78.4062L64.9913 68.8182H76.1063V71.9609H68.1606L67.6901 76.5153H67.7967C68.1163 76.0655 68.5986 75.6926 69.2437 75.3967C69.8889 75.1007 70.6109 74.9528 71.4099 74.9528C72.5049 74.9528 73.4814 75.2102 74.3396 75.7251C75.1978 76.2401 75.8755 76.9473 76.3726 77.8469C76.8698 78.7406 77.1154 79.7705 77.1095 80.9364C77.1154 82.1616 76.8313 83.2506 76.2572 84.2035C75.6891 85.1504 74.893 85.8962 73.8691 86.4407C72.8511 86.9793 71.6674 87.2486 70.318 87.2486ZM86.5111 87.2486C85.1854 87.2486 84.0046 87.0207 82.9689 86.565C81.9391 86.1033 81.1253 85.4701 80.5275 84.6651C79.9356 83.8543 79.6308 82.9192 79.6131 81.8597H83.4838C83.5075 82.3036 83.6525 82.6942 83.9188 83.0316C84.1911 83.363 84.5521 83.6205 85.0019 83.804C85.4517 83.9875 85.9578 84.0792 86.52 84.0792C87.106 84.0792 87.6238 83.9756 88.0736 83.7685C88.5235 83.5613 88.8756 83.2743 89.1301 82.9073C89.3846 82.5404 89.5119 82.1172 89.5119 81.6378C89.5119 81.1525 89.3757 80.7234 89.1035 80.3505C88.8371 79.9717 88.4524 79.6758 87.9494 79.4627C87.4522 79.2496 86.8603 79.1431 86.1738 79.1431H84.4781V76.32H86.1738C86.7538 76.32 87.2658 76.2193 87.7097 76.0181C88.1595 75.8169 88.5087 75.5387 88.7572 75.1836C89.0058 74.8226 89.1301 74.4023 89.1301 73.9229C89.1301 73.4672 89.0206 73.0677 88.8016 72.7244C88.5886 72.3752 88.2867 72.103 87.8961 71.9077C87.5114 71.7124 87.0616 71.6147 86.5467 71.6147C86.0258 71.6147 85.5494 71.7094 85.1173 71.8988C84.6853 72.0823 84.339 72.3456 84.0786 72.6889C83.8182 73.0322 83.6791 73.4347 83.6614 73.8963H79.9771C79.9948 72.8487 80.2937 71.9254 80.8737 71.1264C81.4537 70.3274 82.235 69.703 83.2175 69.2532C84.2059 68.7975 85.3215 68.5696 86.5644 68.5696C87.8191 68.5696 88.917 68.7975 89.8581 69.2532C90.7991 69.7089 91.5301 70.3245 92.0509 71.0998C92.5777 71.8692 92.8381 72.7333 92.8322 73.6921C92.8381 74.7101 92.5214 75.5594 91.8822 76.2401C91.2489 76.9207 90.4233 77.3527 89.4053 77.5362V77.6783C90.7429 77.8499 91.7609 78.3145 92.4593 79.0721C93.1636 79.8237 93.5128 80.7648 93.5069 81.8952C93.5128 82.931 93.2139 83.8513 92.6102 84.6562C92.0124 85.4612 91.1868 86.0945 90.1333 86.5561C89.0798 87.0178 87.8724 87.2486 86.5111 87.2486Z" fill="#FFAD31"/>
</svg>
