<svg width="78" height="121" viewBox="0 0 78 121" fill="none" xmlns="http://www.w3.org/2000/svg">
<g filter="url(#filter0_d_879_109)">
<path d="M4 1.24401C4.76408 0.242564 5.8637 0 7.21398 0C28.4101 0.0242564 49.6061 0.0138608 70.8062 0.017326C73.3006 0.017326 73.9757 0.606411 73.9757 2.76177C73.9757 38.9316 73.9757 75.1014 74 111.271C74 112.203 73.7938 112.512 72.6093 112.508C57.5097 112.47 42.4101 112.47 27.3104 112.508C26.1097 112.508 25.7904 112.255 25.8025 111.219C25.8712 106.243 25.8389 101.264 25.8308 96.2876C25.8308 94.3436 25.1637 93.765 22.92 93.7546C20.4539 93.7407 17.9838 93.7338 15.5178 93.7546C13.4762 93.7719 12.7444 94.4129 12.7404 96.1837C12.7283 101.243 12.704 106.306 12.7647 111.365C12.7768 112.314 12.4736 112.536 11.4063 112.508C8.94023 112.439 6.47011 112.494 4.00404 112.501V1.24401H4ZM52.1288 16.8444C52.1288 18.2928 52.1611 19.7413 52.1167 21.1897C52.0884 22.153 52.5897 22.5238 53.6812 22.5169C57.0124 22.4961 60.3436 22.4996 63.6789 22.5169C64.7745 22.5238 65.2515 22.1045 65.2475 21.1655C65.2273 18.3101 65.2273 15.4548 65.2475 12.596C65.2515 11.65 64.726 11.2446 63.6546 11.2481C60.3234 11.255 56.9922 11.2584 53.6569 11.2481C52.5573 11.2481 52.0965 11.6847 52.1207 12.6237C52.1611 14.0306 52.1328 15.4375 52.1328 16.8444H52.1288ZM65.2353 58.1808C65.2353 56.7323 65.2232 55.2839 65.2394 53.8354C65.2515 52.8998 64.7623 52.4944 63.6546 52.5048C60.3234 52.529 56.9882 52.5325 53.6569 52.5048C52.529 52.4944 52.1086 52.9171 52.1167 53.8527C52.1409 56.7081 52.1409 59.5634 52.1167 62.4222C52.1086 63.3647 52.5573 63.7632 53.6731 63.7528C57.0043 63.7216 60.3396 63.7251 63.6708 63.7528C64.7866 63.7632 65.2515 63.337 65.2394 62.4083C65.2192 61.0015 65.2353 59.5946 65.2353 58.1877V58.1808ZM25.8348 16.9379C25.8348 15.4895 25.8065 14.041 25.847 12.5926C25.8753 11.6327 25.3537 11.2446 24.2784 11.2481C20.9472 11.2584 17.6159 11.255 14.2807 11.2481C13.1932 11.2481 12.7161 11.6847 12.7242 12.6237C12.7485 15.4791 12.7444 18.3344 12.7242 21.1932C12.7202 22.0595 13.1325 22.5134 14.1756 22.51C17.6038 22.5065 21.0321 22.5065 24.4603 22.51C25.4225 22.51 25.855 22.1219 25.8389 21.2867C25.8106 19.8383 25.8308 18.3898 25.8308 16.9414L25.8348 16.9379ZM45.5351 16.9345C45.5351 15.5276 45.4947 14.1172 45.5472 12.7138C45.5836 11.7262 45.1389 11.2446 43.9584 11.2481C40.6272 11.2619 37.2919 11.2515 33.9607 11.2515C32.9824 11.2515 32.4245 11.5842 32.4285 12.5059C32.4487 15.4444 32.4447 18.3829 32.4285 21.3249C32.4245 22.1808 32.9339 22.5134 33.8597 22.5134C37.2879 22.5134 40.7161 22.5134 44.1484 22.5134C45.0985 22.5134 45.5513 22.1219 45.5351 21.2867C45.5108 19.8383 45.527 18.3898 45.527 16.9414L45.5351 16.9345ZM25.8348 37.5282C25.8348 36.0797 25.8146 34.6312 25.8429 33.1828C25.8591 32.3096 25.4386 31.8729 24.3956 31.8764C21.0159 31.8868 17.6362 31.8868 14.2524 31.8764C13.2377 31.8764 12.7283 32.2507 12.7283 33.1412C12.7364 36.0381 12.7404 38.935 12.7283 41.8354C12.7283 42.7052 13.1528 43.1245 14.2039 43.121C17.5836 43.1037 20.9633 43.0967 24.3471 43.1245C25.4993 43.1349 25.8753 42.6775 25.847 41.7557C25.8065 40.3488 25.8348 38.942 25.8348 37.5351V37.5282ZM65.2394 37.5836C65.2394 36.1351 65.2232 34.6867 65.2434 33.2382C65.2596 32.313 64.7947 31.866 63.687 31.8729C60.3558 31.8903 57.0246 31.8937 53.6893 31.8729C52.5897 31.866 52.1126 32.261 52.1207 33.2105C52.145 36.0658 52.149 38.9212 52.1207 41.78C52.1126 42.7156 52.5129 43.1349 53.6489 43.1245C56.9801 43.0933 60.3113 43.0933 63.6466 43.1245C64.8594 43.1349 65.2758 42.6601 65.2475 41.6864C65.2111 40.3211 65.2394 38.9558 65.2394 37.5905V37.5836ZM19.2452 84.3673C20.935 84.3673 22.6249 84.3535 24.3148 84.3743C25.3214 84.3881 25.847 84.0485 25.8389 83.1372C25.8227 80.1987 25.8227 77.2602 25.8389 74.3182C25.8389 73.4762 25.3901 73.1297 24.4239 73.1366C21.0442 73.1539 17.6604 73.1574 14.2807 73.1331C13.1608 73.1262 12.7161 73.542 12.7242 74.4776C12.7444 77.333 12.7444 80.1918 12.7242 83.0471C12.7202 83.9965 13.2255 84.395 14.3171 84.3743C15.9584 84.3465 17.5998 84.3673 19.2452 84.3673V84.3673ZM58.7306 84.3673C60.3719 84.3673 62.0133 84.3465 63.6587 84.3743C64.7583 84.3916 65.2515 83.9758 65.2475 83.0401C65.2313 80.1848 65.2313 77.326 65.2475 74.4707C65.2515 73.5386 64.7987 73.1227 63.6789 73.1331C60.3477 73.1609 57.0124 73.1643 53.6812 73.1331C52.5654 73.1227 52.1086 73.497 52.1207 74.4534C52.149 77.3087 52.153 80.1675 52.1207 83.0228C52.1086 84.0589 52.6665 84.4089 53.8065 84.3812C55.4479 84.3431 57.0892 84.3708 58.7306 84.3708V84.3673ZM45.5351 37.5074C45.5351 36.0589 45.5149 34.6105 45.5432 33.162C45.5593 32.2749 45.0863 31.8729 44.0635 31.8729C40.6838 31.8799 37.3041 31.8799 33.9203 31.8729C32.9015 31.8729 32.4245 32.2576 32.4326 33.1516C32.4528 36.0485 32.4528 38.9454 32.4326 41.8458C32.4245 42.7398 32.8732 43.1175 33.9122 43.1141C37.2919 43.0967 40.6757 43.0898 44.0554 43.1141C45.2076 43.121 45.5755 42.6428 45.5513 41.728C45.5149 40.3211 45.5432 38.9142 45.5391 37.5074H45.5351ZM19.2452 52.5082C17.6038 52.5082 15.9584 52.5325 14.3211 52.5013C13.2255 52.4805 12.7242 52.8755 12.7283 53.8216C12.7485 56.6769 12.7485 59.5357 12.7283 62.391C12.7202 63.3197 13.1649 63.7494 14.2847 63.7424C17.6159 63.7182 20.9512 63.7147 24.2824 63.7424C25.3861 63.7528 25.8591 63.3786 25.851 62.4222C25.8227 59.5669 25.8146 56.7081 25.851 53.8527C25.8631 52.8132 25.3174 52.4667 24.1733 52.4978C22.5319 52.5394 20.8906 52.5082 19.2492 52.5082H19.2452ZM39.1395 52.5082C37.4011 52.5082 35.6627 52.5256 33.9243 52.5013C32.8894 52.4874 32.4285 52.879 32.4326 53.7696C32.4487 56.6665 32.4528 59.5634 32.4326 62.4603C32.4285 63.3439 32.8692 63.7424 33.9082 63.739C37.2879 63.7216 40.6676 63.7216 44.0474 63.739C45.0783 63.7424 45.5472 63.3647 45.5391 62.4742C45.523 59.5772 45.5189 56.6803 45.5391 53.7834C45.5432 52.8998 45.0985 52.4909 44.0595 52.5048C42.4181 52.5256 40.7768 52.5117 39.1354 52.5117L39.1395 52.5082ZM32.4407 78.7675C32.4407 80.1744 32.469 81.5813 32.4326 82.9882C32.4083 83.9134 32.8166 84.3777 33.9446 84.3708C37.3243 84.3535 40.704 84.3569 44.0878 84.3708C45.1308 84.3708 45.5513 83.9446 45.5472 83.0679C45.527 80.171 45.527 77.274 45.5472 74.3771C45.5513 73.4693 45.054 73.1297 44.0352 73.1366C40.6555 73.1574 37.2758 73.1539 33.892 73.1366C32.8409 73.1297 32.4164 73.542 32.4366 74.4222C32.4649 75.8706 32.4447 77.3191 32.4447 78.7675H32.4407Z" fill="#FF9431"/>
</g>
<defs>
<filter id="filter0_d_879_109" x="0" y="0" width="78" height="120.51" filterUnits="userSpaceOnUse" color-interpolation-filters="sRGB">
<feFlood flood-opacity="0" result="BackgroundImageFix"/>
<feColorMatrix in="SourceAlpha" type="matrix" values="0 0 0 0 0 0 0 0 0 0 0 0 0 0 0 0 0 0 127 0" result="hardAlpha"/>
<feOffset dy="4"/>
<feGaussianBlur stdDeviation="2"/>
<feComposite in2="hardAlpha" operator="out"/>
<feColorMatrix type="matrix" values="0 0 0 0 0 0 0 0 0 0 0 0 0 0 0 0 0 0 0.25 0"/>
<feBlend mode="normal" in2="BackgroundImageFix" result="effect1_dropShadow_879_109"/>
<feBlend mode="normal" in="SourceGraphic" in2="effect1_dropShadow_879_109" result="shape"/>
</filter>
</defs>
</svg>
