<svg width="50" height="50" viewBox="0 0 50 50" fill="none" xmlns="http://www.w3.org/2000/svg">
<path d="M29.4823 41.3509C30.4586 42.3272 32.0415 42.3272 33.0178 41.3509C33.9942 40.3746 33.9942 38.7917 33.0178 37.8154L29.4823 41.3509ZM16.6667 24.9998L14.899 23.2321C14.4301 23.7009 14.1667 24.3368 14.1667 24.9998C14.1667 25.6629 14.4301 26.2988 14.899 26.7676L16.6667 24.9998ZM33.0178 12.1843C33.9942 11.208 33.9942 9.62505 33.0178 8.64874C32.0415 7.67243 30.4586 7.67243 29.4823 8.64874L33.0178 12.1843ZM33.0178 37.8154L18.4345 23.2321L14.899 26.7676L29.4823 41.3509L33.0178 37.8154ZM18.4345 26.7676L33.0178 12.1843L29.4823 8.64874L14.899 23.2321L18.4345 26.7676Z" fill="#FF9431"/>

</svg>
