<svg width="201" height="220" viewBox="0 0 201 220" fill="none" xmlns="http://www.w3.org/2000/svg">
<path d="M108.684 0C111.548 1.02529 114.624 1.23149 117.568 2.02767C125.498 4.18301 132.917 7.90057 139.391 12.9622C152.413 22.9698 160.959 37.7119 163.173 53.9852C163.67 57.1202 163.907 60.2908 163.883 63.4648C163.414 77.5153 159.158 90.2655 150.297 101.4C146.301 106.427 141.577 110.828 136.281 114.46C135.608 114.94 135.078 115.593 134.746 116.35C128.68 128.648 122.425 140.865 116.537 153.249C113.129 160.426 109.417 167.449 106.049 174.643C104.8 177.316 103.531 179.977 102.24 182.627C101.874 183.372 101.616 184.225 100.751 184.563C95.9738 174.923 91.0421 165.358 86.4656 155.626C83.0861 148.432 79.3859 141.404 75.9492 134.238C73.7611 129.656 71.2752 125.24 69.3679 120.566C67.7984 116.723 65.2323 113.967 61.9675 111.653C55.6668 107.163 50.9871 101.189 46.9604 94.6702C42.3407 87.1926 39.4485 78.778 38.4947 70.0404C37.1622 58.7374 38.9448 47.2851 43.6497 36.9218C46.7215 30.1127 50.9588 23.8923 56.1709 18.5411C60.2442 14.3382 64.9219 10.7667 70.0495 7.94455C77.1807 4.00951 84.6613 1.23722 92.8006 0.378039C92.961 0.378039 93.0984 0.131741 93.2474 0H108.684ZM100.894 99.0062C121.514 98.7485 136.842 83.0426 137.323 63.6595C137.862 42.0941 121.113 26.4971 101.776 26.2165C80.3482 25.9129 64.9402 42.0884 64.608 61.8209C64.2472 83.1457 80.5086 98.674 100.894 99.0062Z" fill="#FF9431"/>
<path d="M101.977 219.44C97.1709 219.44 93.6024 219.503 90.034 219.44C83.109 219.291 76.2413 218.558 69.3564 217.797C59.8783 216.791 50.4939 215.043 41.2898 212.567C31.7987 209.978 22.5769 206.639 14.4032 201.002C8.1369 196.666 2.88444 191.443 1.40092 183.544C0.84354 180.808 0.847547 177.988 1.4127 175.253C1.97786 172.519 3.09238 169.928 4.68872 167.638C10.451 159.132 19.1287 154.687 28.2303 150.895C36.9824 147.252 46.1929 145.11 55.4491 143.283C59.4242 142.498 63.4681 142.137 67.512 141.45C68.5831 141.266 69.2303 141.834 69.6828 142.761C72.4093 148.392 75.1186 154.028 77.8966 159.636C78.4694 160.781 77.9252 161.085 77.0088 161.131C69.2704 161.532 61.6867 163.004 54.1431 164.619C46.4584 166.166 38.9671 168.554 31.8044 171.739C28.8513 173.025 26.0519 174.639 23.4589 176.55C21.3855 178.142 21.059 180.388 22.9205 181.997C26.678 185.245 31.0999 187.152 35.5734 189.003C42.6473 191.929 50.0649 193.768 57.5226 195.269C62.8037 196.334 68.1707 197.09 73.5606 197.634C80.4684 198.333 87.4106 198.442 94.3012 199.021C101.518 199.628 108.65 198.946 115.786 198.74C125.281 198.42 134.73 197.288 144.031 195.355C154.461 193.235 164.765 190.526 174.216 185.371C176.098 184.399 177.814 183.137 179.303 181.631C180.632 180.239 180.655 179.002 179.343 177.587C176.387 174.385 172.469 172.73 168.632 171.063C161.613 168.074 154.298 165.838 146.809 164.39C140.972 163.244 135.141 161.915 129.167 161.526C127.769 161.44 126.394 161.045 124.963 161.096C123.817 161.131 123.485 160.552 124.075 159.458C124.98 157.786 125.793 156.079 126.646 154.366C128.537 150.442 130.433 146.525 132.254 142.567C132.402 142.138 132.708 141.781 133.108 141.569C133.509 141.356 133.975 141.303 134.413 141.421C148.733 143.46 162.875 146.152 176.227 151.886C183.043 154.807 189.481 158.53 194.556 164.109C201.567 171.836 203.194 181.573 197.747 190.738C194.482 196.225 189.447 200.011 183.942 203.19C173.816 209.044 162.749 212.206 151.448 214.738C144.735 216.244 137.925 217.132 131.131 218.071C127.007 218.644 122.792 218.513 118.668 219.039C112.693 219.824 106.714 219.125 101.977 219.44Z" fill="#FF9431"/>
</svg>
