<svg width="78" height="69" viewBox="0 0 78 69" fill="none" xmlns="http://www.w3.org/2000/svg">
<g filter="url(#filter0_d_548_49)">
<path d="M74.0002 60.2988H61.2955C55.2151 60.2988 49.1348 60.2988 43.0544 60.2988C42.5008 60.2988 42.3371 60.1785 42.3371 59.6007C42.3628 52.158 42.3628 44.712 42.3371 37.2628C42.3338 37.0609 42.3753 36.8608 42.4585 36.6768C42.5417 36.4929 42.6647 36.3296 42.8185 36.1989C47.9826 31.0573 53.1434 25.8916 58.301 20.7019C58.6814 20.3216 58.8595 20.3264 59.2205 20.7019C64.054 25.9398 68.8971 31.1664 73.7498 36.3818C73.8269 36.4684 73.9183 36.5407 74.0002 36.6177V60.2988ZM62.5327 45.1966C62.5327 43.2372 62.5327 41.2778 62.5327 39.3233C62.5327 38.9381 62.4942 38.7648 62.0513 38.7696C59.8657 38.7985 57.6752 38.7696 55.4895 38.7696C55.0466 38.7696 54.9744 38.9141 54.9744 39.3137C54.9744 43.21 54.9744 47.1047 54.9744 50.9977C54.9744 51.4792 55.1333 51.5514 55.5569 51.5466C57.6993 51.5466 59.8368 51.5466 61.9791 51.5466C62.4605 51.5466 62.5664 51.3829 62.5616 50.9303C62.5183 49.0239 62.5327 47.1079 62.5327 45.1966ZM63.7074 45.1196C63.7074 47.079 63.7074 49.0384 63.7074 50.9977C63.7074 51.3829 63.7603 51.5803 64.2177 51.5514C64.9013 51.5081 65.5849 51.5514 66.2686 51.5514C66.6124 51.5571 66.954 51.4948 67.2737 51.368C67.5935 51.2413 67.8849 51.0526 68.1315 50.8128C68.378 50.573 68.5747 50.2868 68.7102 49.9707C68.8457 49.6546 68.9174 49.3149 68.9212 48.971C68.9693 46.4451 68.9693 43.9176 68.9212 41.3886C68.9212 40.7068 68.6503 40.0529 68.1682 39.5707C67.6861 39.0886 67.0322 38.8178 66.3504 38.8178C65.6475 38.7793 64.935 38.8178 64.2321 38.8178C63.7989 38.7889 63.7026 38.943 63.7074 39.3522C63.6978 41.2441 63.6978 43.1843 63.6978 45.1196H63.7074ZM53.5879 45.2062C53.5879 43.2517 53.5879 41.2971 53.5879 39.3425C53.5879 38.89 53.4579 38.7504 53.015 38.7745C52.3314 38.8082 51.6478 38.7745 50.969 38.7745C50.6222 38.7686 50.2777 38.8326 49.9562 38.9626C49.6346 39.0926 49.3425 39.286 49.0972 39.5313C48.852 39.7765 48.6586 40.0687 48.5286 40.3902C48.3985 40.7118 48.3346 41.0562 48.3404 41.403C48.2891 43.9 48.2891 46.4002 48.3404 48.9036C48.3389 49.2589 48.4092 49.6108 48.5473 49.9382C48.6853 50.2656 48.8882 50.5617 49.1436 50.8086C49.3991 51.0555 49.7019 51.2482 50.0338 51.375C50.3657 51.5019 50.7199 51.5602 51.0749 51.5466C51.7344 51.5466 52.394 51.5177 53.0535 51.5466C53.4916 51.5755 53.5783 51.4118 53.5735 51.0074C53.5494 49.0721 53.5879 47.1416 53.5879 45.2062ZM58.7728 36.1507C59.8656 36.1507 60.9585 36.1507 62.0465 36.1507C62.4894 36.1507 62.5761 36.0159 62.5664 35.6115C62.5375 34.5428 62.5664 33.474 62.5664 32.4004C62.6044 31.6285 62.5133 30.8556 62.2968 30.1137C61.4495 27.5959 58.845 26.5752 56.8183 27.9954C55.9806 28.5667 55.3959 29.4394 55.1862 30.4314C54.8011 32.2319 55.0803 34.0613 55.0033 35.8763C55.0033 36.2181 55.2488 36.1363 55.4366 36.1363L58.7728 36.1507Z" fill="#FF9431"/>
<path d="M4.00124 47.3583C4.00124 43.2566 4.00124 39.1741 4.00124 35.058C3.99302 34.8688 4.02575 34.6801 4.09721 34.5048C4.16867 34.3295 4.27716 34.1717 4.41526 34.0422C15.3018 22.7962 26.1787 11.5437 37.046 0.284906C37.3637 -0.0424609 37.5274 -0.129117 37.8789 0.246392C38.316 0.741357 38.7908 1.20169 39.2991 1.62326C39.7083 1.96025 39.6601 2.15763 39.2991 2.51389C35.0497 6.89161 30.8068 11.279 26.5703 15.6759C20.2251 22.2361 13.8784 28.8027 7.53006 35.3757C7.40763 35.4888 7.31079 35.6268 7.24602 35.7804C7.18126 35.934 7.15007 36.0997 7.15455 36.2663C7.15455 43.0319 7.15455 49.7975 7.15455 56.5631C7.15455 57.1023 7.31342 57.2082 7.79966 57.1745C8.4408 57.1305 9.0842 57.1305 9.72534 57.1745C10.2982 57.2226 10.4812 57.0926 10.4812 56.462C10.4523 50.1265 10.4812 43.7958 10.4523 37.4651C10.4382 37.2212 10.4784 36.9773 10.57 36.7509C10.6616 36.5244 10.8022 36.3211 10.9819 36.1556C21.1206 25.9366 31.2465 15.7048 41.3595 5.46019C41.7591 5.05579 41.9565 5.06542 42.3705 5.4313C47.2425 9.76088 52.1257 14.0728 57.0202 18.3671C57.4583 18.7522 57.5497 18.9641 57.0876 19.4407C51.6604 25.0123 46.2508 30.5936 40.8589 36.1845C40.6986 36.3371 40.5728 36.522 40.4898 36.7271C40.4068 36.9322 40.3685 37.1526 40.3774 37.3736C40.3774 44.8019 40.3774 52.2255 40.3774 59.649C40.3774 60.1641 40.2763 60.3326 39.7227 60.3278C37.0604 60.2941 34.3934 60.2989 31.7263 60.3278C31.2449 60.3278 31.0812 60.2122 31.086 59.6923C31.1101 56.072 31.086 52.471 31.086 48.8314C31.086 46.6939 30.0317 45.1726 28.1301 44.6864C26.7783 44.3397 25.3609 44.3397 24.0091 44.6864C22.1556 45.1678 21.0773 46.6891 21.0676 48.7063C21.0676 52.3314 21.0676 55.9276 21.0676 59.572C21.0676 60.1497 20.9665 60.3278 20.3407 60.323C15.1028 60.2941 9.86335 60.2941 4.62227 60.323C4.1216 60.3278 4.00124 60.1785 4.00124 59.6586C4.02531 55.5569 4.00124 51.4552 4.00124 47.3583ZM32.7854 34.0855C34.1045 34.0855 35.4284 34.0855 36.7475 34.0855C37.1278 34.0855 37.2289 33.994 37.2289 33.6041C37.2289 31.8276 37.2289 30.0512 37.2289 28.2747C37.2229 26.9491 36.826 25.6546 36.088 24.5534C34.5378 22.257 31.7889 22.0548 29.9595 24.1393C28.9886 25.2737 28.4663 26.7241 28.4911 28.217C28.4574 30.0127 28.4911 31.8132 28.4911 33.6089C28.4911 34.0085 28.6115 34.0903 28.9726 34.0903C30.2387 34.0711 31.5145 34.0855 32.7854 34.0855Z" fill="#FF9431"/>
</g>
<defs>
<filter id="filter0_d_548_49" x="0" y="0" width="78.0002" height="68.3281" filterUnits="userSpaceOnUse" color-interpolation-filters="sRGB">
<feFlood flood-opacity="0" result="BackgroundImageFix"/>
<feColorMatrix in="SourceAlpha" type="matrix" values="0 0 0 0 0 0 0 0 0 0 0 0 0 0 0 0 0 0 127 0" result="hardAlpha"/>
<feOffset dy="4"/>
<feGaussianBlur stdDeviation="2"/>
<feComposite in2="hardAlpha" operator="out"/>
<feColorMatrix type="matrix" values="0 0 0 0 0 0 0 0 0 0 0 0 0 0 0 0 0 0 0.25 0"/>
<feBlend mode="normal" in2="BackgroundImageFix" result="effect1_dropShadow_548_49"/>
<feBlend mode="normal" in="SourceGraphic" in2="effect1_dropShadow_548_49" result="shape"/>
</filter>
</defs>
</svg>
