<svg width="78" height="78" viewBox="0 0 78 78" fill="none" xmlns="http://www.w3.org/2000/svg">
<g filter="url(#filter0_d_548_56)">
<path d="M22.6388 22.3703H22.8816C31.0234 22.3703 39.1649 22.3703 47.3063 22.3703C47.8118 22.3703 48.2109 22.5466 48.5201 22.9546C48.7835 23.3019 48.807 23.6981 48.7482 24.0872C48.4461 26.0857 48.1187 28.0801 47.8077 30.0763C47.4915 32.0877 47.1829 34.0998 46.8672 36.1112C46.5671 38.0212 46.2638 39.9303 45.9573 41.8387C45.9367 41.9241 45.9249 42.0113 45.9221 42.0991C45.945 42.5429 45.6816 42.7457 45.3254 42.9514C42.9613 44.3198 40.7365 45.8833 38.718 47.7331C36.5679 49.7064 34.7245 51.9171 33.4672 54.5769C32.4204 56.7934 31.8955 59.1241 31.9883 61.5752C32.0806 64.0374 32.8465 66.2699 34.4054 68.2026C34.9107 68.823 35.4856 69.3833 36.1188 69.8725C36.0729 69.943 36.0083 69.9113 35.9571 69.9113C28.1383 69.9113 20.3196 69.9113 12.5011 69.9113C11.6782 69.9113 11.0904 69.3729 10.9652 68.5482C10.716 66.9024 10.4515 65.263 10.1952 63.6201C9.96711 62.1583 9.74375 60.6958 9.5151 59.234C9.25941 57.5987 8.99842 55.9641 8.74273 54.3288C8.48489 52.6791 8.22841 51.0289 7.97331 49.3784C7.76209 48.026 7.55009 46.6729 7.33731 45.319C7.10807 43.8499 6.87961 42.3805 6.65194 40.9106C6.41173 39.3709 6.16897 37.8307 5.92366 36.2899C5.68031 34.7338 5.43853 33.1783 5.19832 31.6234C4.98671 30.2691 4.77452 28.9154 4.56173 27.5623C4.38011 26.4049 4.1926 25.2476 4.0192 24.089C3.98264 23.8115 3.99839 23.5296 4.06563 23.2579C4.21141 22.6213 4.79568 22.3762 5.37348 22.3762C6.88588 22.3638 8.39828 22.372 9.91069 22.372C10.4462 22.372 10.9822 22.3756 11.5183 22.3691C11.5746 22.3649 11.6311 22.3749 11.6825 22.3984C11.7339 22.4218 11.7785 22.4578 11.8122 22.5031C13.8754 25.0205 15.9411 27.5362 18.0093 30.0504C18.9028 31.1379 19.7974 32.2245 20.6932 33.3104C20.7562 33.3802 20.7912 33.4708 20.7914 33.5649C20.8502 36.3052 22.6347 38.5094 25.3227 39.0379C27.353 39.437 29.1281 38.8374 30.5112 37.3033C33.2339 34.2814 31.9678 29.9382 28.4339 28.4405C28.0982 28.297 27.7471 28.1923 27.3876 28.1283C27.3343 28.1217 27.2828 28.1046 27.2361 28.078C27.1893 28.0513 27.1484 28.0157 27.1155 27.9732C25.6613 26.1514 24.2032 24.3327 22.7411 22.5172C22.7141 22.4779 22.6876 22.4373 22.6388 22.3703Z" fill="#FF9431"/>
<path d="M45.8063 69.9049C45.0122 69.9201 44.2182 69.8725 43.4316 69.7627C42.0744 69.581 40.7612 69.2383 39.5351 68.6165C38.1743 67.9264 36.9952 67.0088 36.147 65.7227C35.3363 64.5136 34.8705 63.1063 34.7998 61.6522C34.6605 58.8966 35.4769 56.4138 36.927 54.112C38.1743 52.1317 39.7743 50.4641 41.5612 48.9688C44.2651 46.7052 47.2675 44.913 50.4416 43.3964C50.7714 43.2383 51.043 43.2501 51.368 43.3694C54.0875 44.3683 56.811 45.3577 59.5384 46.3378C59.7829 46.4254 59.797 46.5141 59.7535 46.7398C59.2592 49.3455 58.9471 51.9671 59.0258 54.6287C59.0846 56.6483 59.7388 58.4258 60.9938 60.0105C62.3804 61.7598 64.0685 63.1441 65.9724 64.2797C68.0253 65.5076 70.2393 66.4435 72.5504 67.0606C72.8555 67.1417 73.1641 67.1999 73.4057 67.4273C73.7407 67.7436 73.9935 68.1186 73.9065 68.5865C73.806 69.1261 73.4692 69.5193 72.9396 69.7174C72.7784 69.7687 72.6094 69.7904 72.4405 69.7815C70.3339 69.7815 68.2266 69.7938 66.1199 69.7744C65.2906 69.7668 64.4741 69.5981 63.6588 69.4529C62.1153 69.1813 60.6023 68.7963 59.1375 68.2262C57.4917 67.586 55.9728 66.7443 54.6891 65.5135C53.7163 64.5801 53.0085 63.492 52.7188 62.1572C52.5345 61.286 52.5621 60.3833 52.7993 59.525C53.0056 58.7397 52.536 57.9191 51.7971 57.7616C51.1035 57.6141 50.3135 58.1066 50.1372 58.8196C49.3854 61.8433 50.056 64.5448 52.0234 66.9312C53.0091 68.1268 54.237 69.0385 55.5708 69.8114C55.6145 69.8326 55.6494 69.8683 55.6695 69.9125H55.4632C54.6779 69.9125 53.892 69.9026 53.1067 69.9167C52.6466 69.9316 52.1873 69.8674 51.7489 69.7268C50.3911 69.2789 49.0662 68.7628 47.8594 67.9822C46.5704 67.1481 45.53 66.1013 44.9575 64.6394C44.4526 63.3545 44.4155 62.0355 44.6977 60.7059C45.1991 58.3453 46.3606 56.3321 48.0099 54.5928C48.4043 54.1761 48.5871 53.7111 48.4126 53.1503C48.2439 52.609 47.8595 52.2751 47.3028 52.1723C46.7926 52.0782 46.3688 52.2663 46.0249 52.6454C44.8752 53.9133 43.9547 55.334 43.2147 56.8746C42.6028 58.1472 42.1566 59.4744 41.9509 60.8716C41.6977 62.523 41.8784 64.2117 42.4752 65.7721C43.0707 67.3392 44.1028 68.5494 45.3889 69.5757C45.5124 69.6768 45.6388 69.7715 45.8063 69.9049Z" fill="#FF9431"/>
<path d="M73.9994 3.355C74.0123 3.8317 73.8231 4.25903 73.6785 4.69576C71.3696 11.6902 69.0596 18.6849 66.7484 25.6801C65.2671 30.1638 63.7872 34.6489 62.3087 39.1354C61.8161 40.6323 61.3244 42.1302 60.8334 43.6291C60.7922 43.756 60.7511 43.7772 60.6229 43.7308C57.9806 42.7746 55.3369 41.8224 52.6918 40.8741C52.539 40.8194 52.5325 40.7689 52.586 40.6301C53.867 37.2903 55.1447 33.9502 56.419 30.61C57.7592 27.1051 59.0964 23.6001 60.4307 20.0949C62.6863 14.1836 64.9395 8.27114 67.1904 2.35751C67.583 1.3224 68.2272 0.581773 69.2694 0.189125C70.9511 -0.445108 73.5603 0.535925 73.9495 2.8301C73.9788 3.00291 73.9835 3.18042 73.9994 3.355Z" fill="#FF9431"/>
<path d="M29.1787 33.5568C29.174 34.9675 28.0589 36.206 26.7099 36.3365C25.9961 36.4145 25.2793 36.2174 24.7057 35.7854C24.1321 35.3533 23.7448 34.7188 23.6228 34.0111C23.5447 33.5833 23.5765 33.1426 23.7151 32.7303C23.734 32.6884 23.7395 32.6416 23.7307 32.5965C23.722 32.5513 23.6995 32.51 23.6663 32.4782C21.6137 29.9902 19.5627 27.5019 17.5133 25.0131C15.4724 22.5338 13.4316 20.0545 11.3908 17.5752C11.2838 17.4447 11.2444 17.4494 11.1557 17.5846C10.4944 18.5638 10.0153 19.6213 9.78081 20.7822C9.75142 20.9262 9.69616 20.9691 9.55215 20.9679C8.75922 20.9614 7.9651 20.955 7.17393 20.9714C6.95409 20.9761 6.94175 20.8986 6.97114 20.7252C7.24954 19.0753 7.89628 17.5094 8.86326 16.1439C9.03179 15.8962 9.21328 15.6576 9.40697 15.4291C9.51042 15.3115 9.48691 15.2445 9.39991 15.1399C8.42496 13.9596 7.45058 12.7774 6.4768 11.5931C6.23287 11.2928 5.98717 10.9918 5.73794 10.692C4.96087 9.76627 5.59922 8.53719 6.67489 8.31853C7.1751 8.21684 7.58421 8.38612 7.90397 8.77407C9.36288 10.5449 10.8208 12.3167 12.2778 14.0895C14.0153 16.2005 15.7532 18.3111 17.4915 20.4213C19.5132 22.8775 21.5344 25.3343 23.5552 27.7916C24.3472 28.7533 25.139 29.7155 25.9305 30.6783C25.9552 30.7178 25.9911 30.749 26.0336 30.7681C26.0761 30.7871 26.1233 30.7931 26.1692 30.7853C27.3213 30.636 28.4821 31.3807 28.9412 32.4264C29.0977 32.7827 29.1785 33.1676 29.1787 33.5568Z" fill="#FF9431"/>
<path d="M44.4849 21.0983C44.0664 21.0983 43.6479 21.0901 43.2294 21.1024C43.076 21.1071 43.0213 21.056 42.972 20.9131C42.4147 19.2791 41.3708 18.0735 39.7873 17.3617C39.1302 17.067 38.4189 16.9127 37.6988 16.9085C37.2586 16.9038 36.8171 16.8979 36.3775 16.9085C36.2123 16.9132 36.1553 16.8585 36.1224 16.7028C35.9049 15.6629 35.618 14.6455 35.1031 13.705C33.4978 10.7895 31.0726 8.99203 27.768 8.49064C23.7122 7.87522 19.7152 9.92486 17.7919 13.5574C17.6238 13.8737 17.4451 14.0142 17.076 13.9824C16.6816 13.9489 16.3018 14.1117 15.9174 14.1934C15.7963 14.2187 15.7305 14.2005 15.6541 14.1129C15.0792 13.4565 14.5016 12.8021 13.9213 12.1497C13.8202 12.0362 13.8114 11.9892 13.9701 11.9345C14.5279 11.7412 15.0969 11.6071 15.6882 11.6242C15.8704 11.6289 15.9456 11.5442 16.0309 11.4185C17.3211 9.51928 18.974 8.02628 21.0342 7.00293C23.0155 6.0083 25.2312 5.57492 27.4412 5.74974C30.1856 5.95253 32.6138 6.93122 34.7075 8.71929C36.361 10.13 37.5501 11.8752 38.3242 13.9043C38.3707 14.0265 38.4106 14.1135 38.5723 14.1282C40.2981 14.2828 41.8052 14.957 43.1077 16.0885C44.5772 17.3699 45.5059 18.9816 45.9221 20.889C45.958 21.0524 45.9439 21.1042 45.761 21.0983C45.3367 21.0889 44.9099 21.0983 44.4849 21.0983Z" fill="#FF9431"/>
</g>
<defs>
<filter id="filter0_d_548_56" x="0" y="0" width="78" height="77.9189" filterUnits="userSpaceOnUse" color-interpolation-filters="sRGB">
<feFlood flood-opacity="0" result="BackgroundImageFix"/>
<feColorMatrix in="SourceAlpha" type="matrix" values="0 0 0 0 0 0 0 0 0 0 0 0 0 0 0 0 0 0 127 0" result="hardAlpha"/>
<feOffset dy="4"/>
<feGaussianBlur stdDeviation="2"/>
<feComposite in2="hardAlpha" operator="out"/>
<feColorMatrix type="matrix" values="0 0 0 0 0 0 0 0 0 0 0 0 0 0 0 0 0 0 0.25 0"/>
<feBlend mode="normal" in2="BackgroundImageFix" result="effect1_dropShadow_548_56"/>
<feBlend mode="normal" in="SourceGraphic" in2="effect1_dropShadow_548_56" result="shape"/>
</filter>
</defs>
</svg>
