<svg width="78" height="83" viewBox="0 0 78 83" fill="none" xmlns="http://www.w3.org/2000/svg">
<g filter="url(#filter0_d_879_112)">
<path d="M4.02828 38.3544C4.02828 26.7076 4.02828 15.0609 4.02828 3.4141C4.02828 0.80631 5.03434 0.176007 7.99192 0.889427C29.1071 5.98034 50.2222 11.0712 71.3414 16.1587C73.6364 16.7128 73.9636 17.073 73.9636 19.1093C73.9636 37.2635 73.9475 55.4176 74 73.5717C74 74.7215 73.604 74.8842 72.4 74.8842C57.4101 74.8496 42.4162 74.8461 27.4263 74.8842C26.1859 74.8842 25.798 74.6834 25.8222 73.5474C25.9152 69.2392 25.8626 64.9275 25.8586 60.6158C25.8586 58.5483 25.1798 57.9838 22.7434 57.9803C20.4242 57.9769 18.101 57.9734 15.7818 57.9803C13.499 57.9873 12.7677 58.6245 12.7677 60.6124C12.7596 65.0072 12.7354 69.3985 12.7919 73.7933C12.804 74.666 12.5374 74.9189 11.5192 74.8808C9.49091 74.808 7.45455 74.8011 5.4303 74.8808C4.28283 74.9293 4 74.6487 4 73.6686C4.0404 61.8972 4.02828 50.1258 4.02828 38.3544ZM19.3657 29.8799C21.0545 29.8799 22.7434 29.866 24.4323 29.8868C25.3939 29.8972 25.8667 29.5544 25.8626 28.7128C25.8545 25.776 25.8505 22.8392 25.8626 19.9024C25.8667 19.002 25.3737 18.6487 24.3515 18.6557C21.0222 18.673 17.6889 18.6834 14.3596 18.6522C13.1556 18.6418 12.7354 19.1197 12.7434 20.0929C12.7677 22.8635 12.7758 25.6375 12.7434 28.408C12.7313 29.4435 13.1636 29.9388 14.4364 29.8972C16.0768 29.8453 17.7172 29.8834 19.3576 29.8834L19.3657 29.8799ZM19.2566 50.4998C20.9455 50.4998 22.6343 50.4756 24.3232 50.5067C25.4424 50.5275 25.8788 50.0981 25.8707 49.163C25.8465 46.3093 25.8424 43.4557 25.8707 40.5985C25.8788 39.6565 25.4424 39.2548 24.3192 39.2652C20.9899 39.2964 17.6566 39.2929 14.3273 39.2652C13.2162 39.2548 12.7475 39.6669 12.7515 40.5985C12.7677 43.4522 12.7677 46.3059 12.7515 49.163C12.7475 50.0946 13.2202 50.5241 14.3273 50.5033C15.9677 50.4721 17.6081 50.4964 19.2485 50.4964L19.2566 50.4998ZM65.2364 24.3526C65.2364 22.905 65.2162 21.4574 65.2444 20.0098C65.2606 19.0816 64.804 18.6453 63.6889 18.6522C60.3596 18.673 57.0263 18.6764 53.697 18.6522C52.5939 18.6453 52.1212 19.0297 52.1293 19.9821C52.1576 22.8357 52.1576 25.6929 52.1293 28.5466C52.1212 29.4816 52.5293 29.9041 53.6606 29.8972C56.9899 29.8695 60.3232 29.866 63.6525 29.8972C64.8687 29.9076 65.2727 29.4228 65.2444 28.4531C65.2081 27.0886 65.2364 25.7241 65.2364 24.3561V24.3526ZM52.1414 44.9033C52.1414 46.3509 52.1616 47.7985 52.1333 49.2461C52.1172 50.1431 52.602 50.5102 53.6283 50.5033C56.9576 50.486 60.2909 50.479 63.6202 50.5067C64.8121 50.5171 65.2525 50.0635 65.2444 49.0799C65.2162 46.2678 65.2162 43.4522 65.2444 40.6401C65.2566 39.6219 64.7273 39.2513 63.5717 39.2652C60.2909 39.2964 57.0061 39.2998 53.7253 39.2652C52.5212 39.2513 52.0929 39.6912 52.1253 40.6851C52.1737 42.0912 52.1374 43.4972 52.1374 44.9033H52.1414ZM45.5394 24.2938C45.5394 22.8461 45.5192 21.3985 45.5475 19.9509C45.5636 19.0712 45.1273 18.6522 44.0848 18.6557C40.7071 18.6661 37.3293 18.6695 33.9515 18.6557C32.9293 18.6522 32.4404 19.0193 32.4485 19.9163C32.4646 22.8115 32.4687 25.7067 32.4485 28.602C32.4404 29.4816 32.8687 29.8903 33.9111 29.8868C37.2889 29.873 40.6667 29.866 44.0444 29.8868C45.1838 29.8938 45.5758 29.4297 45.5515 28.5119C45.5151 27.1059 45.5434 25.6998 45.5434 24.2938H45.5394ZM32.4525 44.879C32.4525 46.3267 32.4727 47.7743 32.4444 49.2219C32.4283 50.1085 32.8889 50.5067 33.9232 50.5033C37.301 50.4929 40.6788 50.4894 44.0566 50.5033C45.0828 50.5067 45.5515 50.1258 45.5475 49.2323C45.5273 46.337 45.5273 43.4418 45.5475 40.5466C45.5556 39.66 45.1111 39.2686 44.0727 39.2721C40.6949 39.2894 37.3172 39.2894 33.9394 39.2721C32.9091 39.2652 32.4323 39.6427 32.4485 40.5327C32.4727 41.9803 32.4566 43.428 32.4566 44.8756L32.4525 44.879Z" fill="#FF9431"/>
</g>
<defs>
<filter id="filter0_d_879_112" x="0" y="0.616211" width="78" height="82.27" filterUnits="userSpaceOnUse" color-interpolation-filters="sRGB">
<feFlood flood-opacity="0" result="BackgroundImageFix"/>
<feColorMatrix in="SourceAlpha" type="matrix" values="0 0 0 0 0 0 0 0 0 0 0 0 0 0 0 0 0 0 127 0" result="hardAlpha"/>
<feOffset dy="4"/>
<feGaussianBlur stdDeviation="2"/>
<feComposite in2="hardAlpha" operator="out"/>
<feColorMatrix type="matrix" values="0 0 0 0 0 0 0 0 0 0 0 0 0 0 0 0 0 0 0.25 0"/>
<feBlend mode="normal" in2="BackgroundImageFix" result="effect1_dropShadow_879_112"/>
<feBlend mode="normal" in="SourceGraphic" in2="effect1_dropShadow_879_112" result="shape"/>
</filter>
</defs>
</svg>
