<svg width="200" height="160" viewBox="0 0 200 160" fill="none" xmlns="http://www.w3.org/2000/svg">
<path d="M166.059 0.304503C170.142 0.304503 171.458 1.60953 171.458 5.64965C171.458 21.3371 171.485 37.0245 171.425 52.712C171.37 53.4026 171.491 54.096 171.776 54.7274C172.061 55.3588 172.502 55.9076 173.057 56.3226C181.164 62.9564 189.195 69.6827 197.259 76.3764C200.658 79.1985 200.837 81.0147 198.021 84.3696C196.052 86.7132 194.1 89.0677 192.126 91.4004C189.81 94.1192 187.7 94.3204 184.938 92.0203L102.227 23.0119C100.019 21.1685 100.052 21.1685 97.8766 22.9412L15.1165 91.9496C12.2455 94.3422 10.1683 94.1791 7.78663 91.3243C5.17115 88.1923 2.59373 85.033 0 81.8847V79.1659C3.529 75.1366 7.92257 72.097 11.9899 68.6931C37.6009 47.269 63.2337 25.8811 88.8883 4.52951C94.2987 -1.85942e-06 100.052 -1.33221 106.577 1.44096C108.273 2.15872 109.649 3.38218 111.046 4.54582L138.158 27.1879C138.55 27.5142 138.968 27.8133 139.382 28.1232C139.964 27.5795 139.703 26.965 139.703 26.4212C139.703 19.3904 139.703 12.3596 139.703 5.32884C139.746 1.63128 141.057 0.315379 144.77 0.304503" fill="#FF9431"/>
<path d="M171.458 121.84C171.458 131.265 171.458 140.703 171.458 150.154C171.458 155.836 168.196 159.137 162.513 159.142C147.603 159.142 132.699 159.142 117.794 159.185C116.256 159.185 115.864 158.783 115.87 157.255C115.929 142.672 115.87 128.093 115.946 113.515C115.946 111.884 115.56 111.46 113.934 111.476C104.69 111.558 95.446 111.579 86.2021 111.476C84.2935 111.476 84.027 112.101 84.027 113.771C84.0869 128.153 84.027 142.541 84.114 156.923C84.114 158.881 83.5703 159.218 81.7324 159.207C67.1542 159.126 52.576 159.164 37.9978 159.164C31.6304 159.164 28.5038 156.059 28.5038 149.729C28.5038 130.857 28.4929 111.982 28.4712 93.1024C28.4336 92.4389 28.5633 91.7765 28.8483 91.176C29.1334 90.5756 29.5646 90.0563 30.1025 89.6659C52.741 71.0693 75.3323 52.4329 97.8766 33.7566C99.5786 32.3428 100.476 32.4081 102.145 33.7892C124.726 52.5235 147.36 71.1926 170.05 89.7964C170.534 90.1556 170.92 90.6317 171.171 91.1803C171.422 91.729 171.53 92.3322 171.485 92.9339C171.436 102.569 171.458 112.205 171.458 121.84Z" fill="#FF9431"/>
</svg>
