<svg width="83" height="53" viewBox="0 0 83 53" fill="none" xmlns="http://www.w3.org/2000/svg">
<g filter="url(#filter0_d_548_61)">
<path d="M4 17.3827C4.61657 15.7806 5.73079 15.0905 7.37644 15.2153C8.47012 15.2969 9.57847 15.203 10.6707 15.2384C11.4972 15.2661 12.3002 15.0705 13.1237 15.0489C14.1675 15.0197 14.6769 14.06 15.2362 13.3098C16.9787 10.9745 18.6816 8.60843 20.3875 6.24388C21.4768 4.7358 22.5602 3.22464 23.6171 1.69038C24.197 0.84777 24.9971 0.394885 25.9146 0.185387C26.6754 0.0385968 27.4492 -0.0213154 28.2223 0.00669818C34.4467 0.0221024 40.6711 0.00669818 46.8955 0.0190216C48.5764 0.0190216 50.1442 0.496553 51.4346 1.64109C52.0658 2.20026 52.5327 2.96585 53.0612 3.64364C54.055 4.92373 55.0357 6.21307 56.028 7.4947C57.2905 9.12755 58.5075 10.8035 59.8449 12.3671C60.6596 13.319 61.2454 14.6269 62.5681 14.9457C63.4375 15.132 64.3232 15.2219 65.2105 15.2138C67.7648 15.2538 70.2018 15.7575 72.4669 17.0422C75.7978 18.9293 77.8986 21.8176 78.8587 25.6424C78.967 26.1325 79.0135 26.6354 78.9966 27.1382C78.9966 29.2886 78.9966 31.4401 78.9966 33.5926C79.0036 33.9663 78.9388 34.3377 78.8061 34.6846C78.6734 35.0315 78.4756 35.3468 78.2244 35.6118C77.9732 35.8769 77.6738 36.0861 77.3439 36.2272C77.014 36.3683 76.6605 36.4383 76.3043 36.4331C74.4737 36.4331 72.6431 36.4331 70.8124 36.4331C70.4675 36.4331 70.2722 36.4624 70.1768 35.9248C69.8514 34.0646 69.0438 32.3345 67.8426 30.9246C66.3428 29.1206 64.3145 27.8901 62.0763 27.4262C60.1414 26.9965 58.2594 27.2892 56.4215 28.0686C55.2088 28.572 54.1057 29.3276 53.1786 30.2899C51.6695 31.8765 50.6154 33.7851 50.2954 36.0495C50.244 36.41 50.1325 36.4439 49.855 36.4439C44.2893 36.4377 38.724 36.4377 33.1592 36.4439C32.8392 36.4439 32.7511 36.3823 32.6836 36.0033C32.362 34.1173 31.549 32.3616 30.3348 30.9307C28.8398 29.1263 26.8162 27.8937 24.5816 27.4262C22.6468 26.9965 20.7648 27.2891 18.9253 28.0701C17.7151 28.576 16.6136 29.3307 15.6854 30.2899C14.188 31.855 13.1634 33.7528 12.8081 35.9741C12.7538 36.3114 12.7347 36.4531 12.3677 36.4485C10.3918 36.4285 8.41286 36.4947 6.43838 36.4192C5.16414 36.3699 4.4683 35.4365 4 34.2873V17.3827ZM20.9791 15.2261C25.778 15.2261 30.4816 15.2168 35.1851 15.2384C35.7048 15.2384 35.6373 14.955 35.6373 14.6222C35.6373 12.0035 35.6167 9.39866 35.6505 6.78765C35.6578 6.20691 35.4596 6.14221 34.9869 6.14837C32.9317 6.17456 30.8868 6.16531 28.8374 6.14837C28.2903 6.14079 27.7554 6.31851 27.3121 6.65517C26.4489 7.28674 26.0012 8.26799 25.3861 9.10598C23.9239 11.1085 22.497 13.1249 20.9791 15.2307V15.2261ZM54.6686 15.2261C53.9713 14.3018 53.3474 13.4546 52.7044 12.6212C51.4459 10.9894 50.1819 9.36067 48.9125 7.73501C48.3562 7.02333 47.6853 6.47494 46.7898 6.31782C45.175 6.03592 43.5469 6.21923 41.9263 6.16377C41.5622 6.14837 41.4858 6.28393 41.4858 6.63976C41.4995 9.35399 41.4995 12.0677 41.4858 14.7809C41.4858 15.1552 41.593 15.243 41.938 15.243C46.1541 15.2261 50.3718 15.2307 54.6686 15.2307V15.2261Z" fill="#FF9431"/>
<path d="M22.8156 30.9064C26.6031 30.9511 29.4921 34.0165 29.4672 37.9415C29.4408 42.227 26.3843 45.0275 22.7143 44.9998C18.9195 44.9643 16.0231 42.073 16.026 37.8738C16.0275 34.0366 18.8901 30.8787 22.8156 30.9064Z" fill="#FF9431"/>
<path d="M60.2722 30.9063C64.1037 30.934 66.9693 34.0195 66.9619 37.9029C66.9531 42.139 63.9833 44.9888 60.2443 44.9996C56.5302 44.9996 53.4987 42.156 53.5207 37.8351C53.5384 34.0287 56.3702 30.9016 60.2722 30.9063Z" fill="#FF9431"/>
</g>
<defs>
<filter id="filter0_d_548_61" x="0" y="0" width="83" height="53" filterUnits="userSpaceOnUse" color-interpolation-filters="sRGB">
<feFlood flood-opacity="0" result="BackgroundImageFix"/>
<feColorMatrix in="SourceAlpha" type="matrix" values="0 0 0 0 0 0 0 0 0 0 0 0 0 0 0 0 0 0 127 0" result="hardAlpha"/>
<feOffset dy="4"/>
<feGaussianBlur stdDeviation="2"/>
<feComposite in2="hardAlpha" operator="out"/>
<feColorMatrix type="matrix" values="0 0 0 0 0 0 0 0 0 0 0 0 0 0 0 0 0 0 0.25 0"/>
<feBlend mode="normal" in2="BackgroundImageFix" result="effect1_dropShadow_548_61"/>
<feBlend mode="normal" in="SourceGraphic" in2="effect1_dropShadow_548_61" result="shape"/>
</filter>
</defs>
</svg>
