<svg width="50" height="50" viewBox="0 0 50 50" fill="none" xmlns="http://www.w3.org/2000/svg">
<path d="M20.5178 8.64898C19.5415 7.67267 17.9585 7.67267 16.9822 8.64898C16.0059 9.62529 16.0059 11.2082 16.9822 12.1845L20.5178 8.64898ZM33.3333 25.0001L35.1011 26.7678C36.0774 25.7915 36.0774 24.2086 35.1011 23.2323L33.3333 25.0001ZM16.9822 37.8156C16.0059 38.792 16.0059 40.3749 16.9822 41.3512C17.9585 42.3275 19.5415 42.3275 20.5178 41.3512L16.9822 37.8156ZM16.9822 12.1845L31.5656 26.7678L35.1011 23.2323L20.5178 8.64898L16.9822 12.1845ZM31.5656 23.2323L16.9822 37.8156L20.5178 41.3512L35.1011 26.7678L31.5656 23.2323Z" fill="#FF9431"/>
</svg>
