<svg width="78" height="79" viewBox="0 0 78 79" fill="none" xmlns="http://www.w3.org/2000/svg">
<g filter="url(#filter0_d_548_48)">
<path d="M6.3622 70.0077C6.35719 69.901 6.34717 69.7929 6.34717 69.687C6.34717 57.3914 6.34717 45.0956 6.34717 32.7996C6.34717 31.3966 7.063 30.378 8.29995 30.0222C9.89625 29.5626 11.5606 30.7466 11.65 32.4088C11.6601 32.587 11.6565 32.7667 11.6565 32.9449C11.6565 40.0693 11.6541 47.1942 11.6493 54.3196C11.6493 54.6424 11.7259 54.724 12.0516 54.724C31.7698 54.7154 51.4881 54.7097 71.2063 54.7068C71.5921 54.7068 71.6602 54.8185 71.6594 55.175C71.6475 59.9892 71.6446 64.8027 71.6508 69.6154C71.6508 69.7464 71.6415 69.8767 71.6358 70.0077H66.2743C66.2743 66.7313 66.2743 63.4557 66.2914 60.1801C66.2914 59.8429 66.1941 59.7821 65.8813 59.7821C47.9407 59.7902 30.0003 59.7902 12.0602 59.7821C11.7488 59.7821 11.6465 59.8393 11.6479 60.1786C11.6615 63.455 11.6543 66.7306 11.6529 70.007L6.3622 70.0077Z" fill="#FF9431"/>
<path d="M4 17.4575C5.13745 16.8984 6.27848 16.3458 7.41236 15.7789C17.8916 10.538 28.3692 5.29507 38.8451 0.0499495C38.8978 0.0172991 38.9585 0 39.0205 0C39.0825 0 39.1432 0.0172991 39.1959 0.0499495C50.7274 5.82097 62.2614 11.5879 73.7977 17.3508C74.0196 17.4618 74.0482 17.5405 73.9358 17.7646C73.041 19.5475 72.1582 21.337 71.2872 23.1333C71.1706 23.3738 71.0782 23.3616 70.8685 23.2564C60.363 17.996 49.8594 12.738 39.3577 7.48241C39.1164 7.36215 38.9418 7.37002 38.7041 7.48956C28.2296 12.7361 17.7542 17.9798 7.27778 23.2206C6.99145 23.3638 6.87978 23.3438 6.73662 23.0481C5.88406 21.2843 5.00932 19.5305 4.14317 17.7739C4.10093 17.6894 4.04868 17.6107 4 17.5291V17.4575Z" fill="#FF9431"/>
<path d="M44.3935 50.7077H17.7646C16.5606 50.7077 15.6952 50.1808 15.3072 49.2188C15.1581 48.8532 15.1017 48.4565 15.143 48.0639C15.1844 47.6713 15.3221 47.295 15.544 46.9685C15.7659 46.6421 16.0651 46.3755 16.4149 46.1926C16.7648 46.0097 17.1544 45.9161 17.5492 45.9202C20.7069 45.9116 23.8644 45.9131 27.0217 45.9245C27.3338 45.9245 27.4391 45.8673 27.4369 45.5258C27.419 43.286 27.4212 41.0454 27.4297 38.8056C27.4348 37.5121 28.2451 36.5651 29.4792 36.3553C29.7132 36.3152 29.9266 36.3861 30.1492 36.4083C34.1049 36.8077 38.061 37.2069 42.0176 37.6059C46.0568 38.0125 50.0967 38.4181 54.1373 38.8228C57.9398 39.2046 61.7426 39.5863 65.5455 39.9681C66.4575 40.059 67.3823 40.0755 68.2771 40.2752C69.8899 40.6331 71.1032 41.4921 71.5928 43.1586C71.6806 43.4929 71.7201 43.8381 71.7102 44.1836C71.7102 46.233 71.7102 48.2825 71.7267 50.3319C71.7267 50.639 71.6644 50.7199 71.3452 50.7199C62.3615 50.7075 53.3776 50.7034 44.3935 50.7077Z" fill="#FF9431"/>
<path d="M24.6618 38.5364C24.6618 41.2158 22.4878 43.3962 19.8335 43.3854C17.1792 43.3747 15.0152 41.1964 15.0195 38.5178C15.0233 37.2347 15.5365 36.0057 16.4462 35.1008C17.3559 34.1959 18.5876 33.6894 19.8707 33.6924C22.5171 33.7003 24.6639 35.8707 24.6618 38.5364Z" fill="#FF9431"/>
</g>
<defs>
<filter id="filter0_d_548_48" x="0" y="0" width="78" height="78.0078" filterUnits="userSpaceOnUse" color-interpolation-filters="sRGB">
<feFlood flood-opacity="0" result="BackgroundImageFix"/>
<feColorMatrix in="SourceAlpha" type="matrix" values="0 0 0 0 0 0 0 0 0 0 0 0 0 0 0 0 0 0 127 0" result="hardAlpha"/>
<feOffset dy="4"/>
<feGaussianBlur stdDeviation="2"/>
<feComposite in2="hardAlpha" operator="out"/>
<feColorMatrix type="matrix" values="0 0 0 0 0 0 0 0 0 0 0 0 0 0 0 0 0 0 0.25 0"/>
<feBlend mode="normal" in2="BackgroundImageFix" result="effect1_dropShadow_548_48"/>
<feBlend mode="normal" in="SourceGraphic" in2="effect1_dropShadow_548_48" result="shape"/>
</filter>
</defs>
</svg>
