<svg width="50" height="76" viewBox="0 0 50 76" fill="none" xmlns="http://www.w3.org/2000/svg">
<path d="M50 24.8956C49.9838 27.0677 49.8196 29.0152 49.3644 30.9335C49.019 32.3881 48.3961 33.7298 47.764 35.0724C42.0619 47.1898 36.3626 59.3084 30.666 71.4282C29.5322 73.8397 26.9149 75.3044 24.2801 74.9525C22.0192 74.6504 20.3566 73.5031 19.3677 71.4036C13.473 58.8876 7.57234 46.374 1.66567 33.8629C0.939012 32.3224 0.510457 30.6993 0.267507 29.0205C0.0486333 27.516 -0.0200931 26.0031 0.00485855 24.4854C0.105103 18.6196 1.99924 13.4222 5.82252 8.95153C8.03052 6.37276 10.5957 4.2348 13.6162 2.66679C15.7369 1.5682 18.014 0.802234 20.3676 0.395755C22.4883 0.0297546 24.645 -0.0829529 26.7924 0.060003C32.2266 0.404656 37.009 2.35263 41.1395 5.90393C43.7411 8.15089 45.89 10.7629 47.4431 13.8425C48.6981 16.3284 49.4673 18.9589 49.7999 21.7219C49.9235 22.7755 49.9903 23.8349 50 24.8956ZM37.4997 25.0221C37.6205 18.1416 31.7542 12.5586 25.1661 12.4776C18.2747 12.3922 12.4715 18.1683 12.4715 24.9945C12.4715 31.8208 18.1928 37.4419 24.8225 37.5281C31.7446 37.6183 37.6104 31.8304 37.4997 25.0221Z" fill="#FF7B31"/>
<path d="M37.4998 25.0221C37.6106 31.8304 31.7448 37.6183 24.8227 37.5281C18.1952 37.4405 12.4742 31.8168 12.4742 24.9941C12.4742 18.1713 18.2748 12.39 25.1663 12.4775C31.7544 12.5585 37.6206 18.1416 37.4998 25.0221Z" fill="#FF7B31"/>
<path fill-rule="evenodd" clip-rule="evenodd" d="M25.7738 13.4436C25.3471 13.0169 24.6553 13.0169 24.2287 13.4436L14.0844 23.5878C13.4079 24.2644 13.0607 25.2028 13.1341 26.1568L13.9173 36.3384C13.9611 36.9076 14.4357 37.3471 15.0066 37.3471H21.7236V31.8844C21.7236 30.0742 23.191 28.6067 25.0012 28.6067C26.8114 28.6067 28.2788 30.0742 28.2788 31.8844V37.3471H34.9958C35.5667 37.3471 36.0413 36.9076 36.0851 36.3384L36.8683 26.1568C36.9417 25.2028 36.5945 24.2644 35.918 23.5878L25.7738 13.4436ZM22.6836 11.8985C23.9636 10.6185 26.0388 10.6185 27.3188 11.8985L37.4631 22.0427C38.5907 23.1703 39.1693 24.7344 39.047 26.3244L38.2638 36.5059C38.1324 38.2136 36.7085 39.5322 34.9958 39.5322H28.2788C27.0721 39.5322 26.0938 38.5539 26.0938 37.3471V31.8844C26.0938 31.281 25.6046 30.7918 25.0012 30.7918C24.3978 30.7918 23.9087 31.281 23.9087 31.8844V37.3471C23.9087 38.5539 22.9304 39.5322 21.7236 39.5322H15.0066C13.2939 39.5322 11.87 38.2136 11.7386 36.5059L10.9554 26.3244C10.8331 24.7344 11.4117 23.1703 12.5394 22.0427L22.6836 11.8985Z" fill="white"/>
</svg>
