<svg width="81" height="122" viewBox="0 0 81 122" fill="none" xmlns="http://www.w3.org/2000/svg">
<path d="M81 40.3309C80.9738 43.8497 80.7078 47.0047 79.9703 50.1122C79.4108 52.4687 78.4017 54.6423 77.3776 56.8172C68.1403 76.4475 58.9073 96.0796 49.6789 115.714C47.8422 119.62 43.6022 121.993 39.3338 121.423C35.6711 120.934 32.9777 119.075 31.3757 115.674C21.8263 95.3979 12.2672 75.1258 2.69839 54.8578C1.5212 52.3623 0.82694 49.7328 0.433361 47.0132C0.0787859 44.5759 -0.0325508 42.125 0.00787085 39.6664C0.170266 30.1638 3.23876 21.744 9.43249 14.5015C13.0094 10.3239 17.1651 6.86038 22.0582 4.3202C25.4938 2.54048 29.1827 1.29962 32.9954 0.641124C36.4311 0.0482025 39.9249 -0.134384 43.4036 0.0972048C52.207 0.655543 59.9545 3.81127 66.6461 9.56437C70.8606 13.2044 74.3418 17.4359 76.8578 22.4248C78.891 26.4521 80.137 30.7134 80.6759 35.1895C80.8761 36.8963 80.9843 38.6125 81 40.3309V40.3309ZM60.7495 40.5358C60.9452 29.3894 51.4419 20.3449 40.7692 20.2137C29.605 20.0754 20.2038 29.4326 20.2038 40.4911C20.2038 51.5496 29.4724 60.6559 40.2125 60.7956C51.4263 60.9416 60.9289 51.5652 60.7495 40.5358Z" fill="#5FE3C4"/>
<path d="M60.749 40.5352C60.9284 51.5646 51.4258 60.941 40.212 60.7949C29.4754 60.6531 20.2075 51.5426 20.2075 40.4898C20.2075 29.4369 29.6045 20.0712 40.7686 20.213C51.4414 20.3442 60.9447 29.3887 60.749 40.5352Z" fill="#5FE3C4"/>
<path d="M19.5266 31.3849V52.4017C19.5266 56.5057 22.4426 58.1905 25.985 56.1601L31.061 53.2657C32.1626 52.6393 33.9986 52.5745 35.1434 53.1577L46.4834 58.8385C47.6282 59.4001 49.4642 59.3569 50.5658 58.7305L59.9186 53.3737C61.1066 52.6825 62.1002 50.9977 62.1002 49.6153V28.5985C62.1002 24.4945 59.1842 22.8097 55.6418 24.8401L50.5658 27.7345C49.4642 28.3609 47.6282 28.4257 46.4834 27.8425L35.1434 22.1833C33.9986 21.6217 32.1626 21.6649 31.061 22.2913L21.7082 27.6481C20.4986 28.3393 19.5266 30.0241 19.5266 31.3849Z" fill="#5FE3C4" stroke="white" stroke-width="1.5" stroke-linecap="round" stroke-linejoin="round"/>
<path d="M33.0698 23.2207V51.3007Z" fill="#5FE3C4"/>
<path d="M33.0698 23.2207V51.3007" stroke="white" stroke-width="1.5" stroke-linecap="round" stroke-linejoin="round"/>
<path d="M48.5569 28.8804V57.7812Z" fill="#5FE3C4"/>
<path d="M48.5569 28.8804V57.7812" stroke="white" stroke-width="1.5" stroke-linecap="round" stroke-linejoin="round"/>
</svg>
