<svg width="81" height="122" viewBox="0 0 81 122" fill="none" xmlns="http://www.w3.org/2000/svg">
<path d="M81 40.3319C80.9738 43.8507 80.7078 47.0057 79.9703 50.1132C79.4108 52.4697 78.4017 54.6432 77.3776 56.8182C68.1403 76.4484 58.9073 96.0806 49.6789 115.715C47.8422 119.621 43.6022 121.994 39.3338 121.424C35.6711 120.935 32.9777 119.076 31.3757 115.675C21.8263 95.3988 12.2672 75.1268 2.69839 54.8588C1.5212 52.3633 0.82694 49.7338 0.433361 47.0142C0.0787859 44.5768 -0.0325508 42.126 0.00787085 39.6674C0.170266 30.1648 3.23876 21.745 9.43249 14.5025C13.0094 10.3248 17.1651 6.86135 22.0582 4.32117C25.4938 2.54145 29.1827 1.3006 32.9954 0.6421C36.4311 0.049179 39.9249 -0.133407 43.4036 0.0981814C52.207 0.656519 59.9545 3.81224 66.6461 9.56535C70.8606 13.2054 74.3418 17.4369 76.8578 22.4258C78.891 26.4531 80.137 30.7144 80.6759 35.1905C80.8761 36.8972 80.9843 38.6135 81 40.3319V40.3319ZM60.7495 40.5368C60.9452 29.3904 51.4419 20.3459 40.7692 20.2147C29.605 20.0764 20.2038 29.4336 20.2038 40.4921C20.2038 51.5506 29.4724 60.6568 40.2125 60.7965C51.4263 60.9426 60.9289 51.5662 60.7495 40.5368Z" fill="#FF5C00"/>
<path d="M60.749 40.5361C60.9284 51.5656 51.4258 60.9419 40.212 60.7959C29.4754 60.654 20.2075 51.5436 20.2075 40.4907C20.2075 29.4379 29.6045 20.0722 40.7686 20.214C51.4414 20.3452 60.9447 29.3897 60.749 40.5361Z" fill="#FF5C00"/>
<path d="M19.5266 31.3859V52.4027C19.5266 56.5067 22.4426 58.1915 25.985 56.1611L31.061 53.2667C32.1626 52.6403 33.9986 52.5755 35.1434 53.1587L46.4834 58.8395C47.6282 59.4011 49.4642 59.3579 50.5658 58.7315L59.9186 53.3747C61.1066 52.6835 62.1002 50.9987 62.1002 49.6163V28.5995C62.1002 24.4955 59.1842 22.8107 55.6418 24.8411L50.5658 27.7355C49.4642 28.3619 47.6282 28.4267 46.4834 27.8435L35.1434 22.1843C33.9986 21.6227 32.1626 21.6659 31.061 22.2923L21.7082 27.6491C20.4986 28.3403 19.5266 30.0251 19.5266 31.3859Z" fill="#FF5C00" stroke="white" stroke-width="1.5" stroke-linecap="round" stroke-linejoin="round"/>
<path d="M33.0698 23.2217V51.3017Z" fill="#FF5C00"/>
<path d="M33.0698 23.2217V51.3017" stroke="white" stroke-width="1.5" stroke-linecap="round" stroke-linejoin="round"/>
<path d="M48.5569 28.8813V57.7821Z" fill="#FF5C00"/>
<path d="M48.5569 28.8813V57.7821" stroke="white" stroke-width="1.5" stroke-linecap="round" stroke-linejoin="round"/>
</svg>
