<svg width="28" height="28" viewBox="0 0 28 28" fill="none" xmlns="http://www.w3.org/2000/svg">
<path d="M3.76445 1.90063C3.2498 1.38599 2.4154 1.38599 1.90075 1.90063C1.38611 2.41528 1.38611 3.24968 1.90075 3.76433L12.1511 14.0146L1.90076 24.265C1.38611 24.7796 1.38611 25.614 1.90076 26.1287C2.4154 26.6433 3.2498 26.6433 3.76445 26.1287L14.0148 15.8783L24.2649 26.1285C24.7796 26.6432 25.614 26.6432 26.1286 26.1285C26.6433 25.6139 26.6433 24.7795 26.1286 24.2648L15.8785 14.0146L26.1288 3.76433C26.6434 3.24968 26.6434 2.41528 26.1288 1.90063C25.6141 1.38599 24.7797 1.38599 24.2651 1.90063L14.0148 12.151L3.76445 1.90063Z" fill="#FF9431" stroke="#FF9431" stroke-width="2" stroke-linecap="round"/>
</svg>
