<svg width="22" height="22" viewBox="0 0 22 22" fill="none" xmlns="http://www.w3.org/2000/svg">
<path d="M18.4705 3.13538H4.47046C3.98721 3.13538 3.59546 3.52713 3.59546 4.01038V18.0104C3.59546 18.4936 3.98721 18.8854 4.47046 18.8854H18.4705C18.9537 18.8854 19.3455 18.4936 19.3455 18.0104V4.01038C19.3455 3.52713 18.9537 3.13538 18.4705 3.13538Z" fill="#FF9431" stroke="#FF9431" stroke-width="2" stroke-linecap="round" stroke-linejoin="round"/>
<path fill-rule="evenodd" clip-rule="evenodd" d="M17.9322 6.16423C18.2001 6.37858 18.1465 6.70399 17.9322 6.97194L11.086 15.8057C10.9756 15.9437 10.8117 16.0282 10.6352 16.038C10.4588 16.0477 10.2865 15.9819 10.1615 15.8569L5.81671 11.8181C5.57408 11.5755 5.57414 11.2531 5.81677 11.0104C6.0594 10.7678 6.38183 10.7678 6.62446 11.0104L10.5493 14.4875L17.1245 6.1642C17.3388 5.89626 17.6642 5.94987 17.9322 6.16423Z" fill="white" stroke="white" stroke-linecap="round" stroke-linejoin="round"/>
</svg>
