<svg width="238" height="238" viewBox="0 0 238 238" fill="none" xmlns="http://www.w3.org/2000/svg">
<rect width="238" height="238" fill="#EEEEEE"/>
<path d="M158.998 93.4665C158.892 93.6443 158.902 93.8519 158.859 94.0446C158.54 95.4638 157.57 96.3012 156.308 96.8674C155.688 97.1483 155.013 97.2869 154.333 97.2729C153.148 97.252 151.963 97.2468 150.779 97.2729C150.099 97.2894 149.785 96.9398 149.677 96.405C149.602 96.0484 149.602 95.68 149.677 95.3234C149.811 94.7154 150.194 94.4271 150.844 94.4226C151.768 94.4188 152.693 94.3822 153.614 94.4315C154.959 94.5062 155.657 93.7287 155.669 92.4686C155.682 90.9044 155.726 89.3388 155.641 87.7762C155.599 87.0009 155.058 86.1329 153.943 86.1329C152.012 86.1404 150.081 86.1384 148.15 86.1269C147.904 86.1269 147.911 86.2405 147.911 86.413C147.914 90.0925 147.914 93.7717 147.911 97.4507C147.911 99.705 147.911 101.959 147.911 104.214C147.911 105.2 147.408 105.697 146.41 105.702C146.066 105.702 145.721 105.716 145.39 105.593C144.915 105.417 144.643 105.089 144.604 104.58C144.595 104.459 144.592 104.338 144.592 104.217C144.592 97.8279 144.592 91.4383 144.592 85.0483C144.584 84.8343 144.596 84.6199 144.629 84.4082C144.766 83.73 145.301 83.3012 146.07 83.296C148.983 83.287 151.891 83.2751 154.801 83.3042C155.595 83.3117 156.306 83.6859 156.993 84.0638C158.178 84.7159 158.792 85.74 158.945 87.0629C158.949 87.1017 158.959 87.1376 159 87.1488L158.998 93.4665Z" fill="#D2D2D2"/>
<path d="M109.406 100.43C109.406 101.775 109.417 103.113 109.4 104.454C109.395 104.896 109.319 105.333 108.939 105.649C108.825 105.758 108.676 105.82 108.519 105.822C106.896 105.818 105.273 105.816 103.649 105.822C103.442 105.822 103.409 105.748 103.41 105.566C103.416 103.489 103.406 101.412 103.422 99.3344C103.422 99.0357 103.334 98.9879 103.065 98.9923C102.16 99.0095 101.255 99.0065 100.35 98.9923C100.12 98.9923 100.056 99.0484 100.057 99.2822C100.066 101.341 100.057 103.399 100.068 105.458C100.068 105.735 100.001 105.826 99.7115 105.823C98.1817 105.81 96.649 105.817 95.1214 105.817C94.6038 105.817 94.1997 105.437 94.1213 104.915C94.0784 104.576 94.0612 104.234 94.0697 103.892C94.0697 101.414 94.0685 98.9366 94.066 96.4587C94.0643 96.3313 94.0885 96.2049 94.1372 96.0871C94.1858 95.9694 94.2579 95.8627 94.3491 95.7737C95.1394 94.9162 95.9087 94.0393 96.6878 93.1721C97.0523 92.765 97.4221 92.3624 97.7896 91.9575C98.6045 91.0612 99.4329 90.1716 100.224 89.2543C100.666 88.7427 101.143 88.2609 101.596 87.7604C101.707 87.6379 101.772 87.6439 101.881 87.7604C102.534 88.467 103.18 89.1796 103.81 89.9087C104.167 90.3225 104.544 90.7184 104.91 91.1247C105.741 92.0457 106.568 92.9689 107.401 93.8884C107.849 94.3829 108.307 94.8699 108.759 95.3614C108.934 95.5526 109.111 95.7424 109.281 95.9388C109.393 96.071 109.41 96.2376 109.409 96.4049C109.406 97.7474 109.405 99.0892 109.406 100.43Z" fill="#D2D2D2"/>
<path d="M129.398 86.1343H129.061C125.998 86.1343 122.941 86.1223 119.882 86.141C118.941 86.147 118.633 85.8646 118.491 84.9287C118.441 84.5859 118.477 84.236 118.596 83.9106C118.742 83.4975 119.044 83.2914 119.492 83.2914C123.689 83.2914 127.887 83.2914 132.085 83.2914C132.625 83.2914 133.137 83.4199 133.543 83.818C133.631 83.9011 133.701 84.0018 133.747 84.1136C133.794 84.2255 133.817 84.3459 133.814 84.4671C133.814 84.6628 133.82 84.8592 133.814 85.0542C133.804 85.4389 133.686 85.8132 133.474 86.1343C129.875 91.5781 126.282 97.0278 122.697 102.484C122.662 102.537 122.632 102.593 122.575 102.688H132.631C133.224 102.688 133.535 102.912 133.664 103.491C133.761 103.9 133.764 104.325 133.672 104.735C133.542 105.288 133.204 105.53 132.588 105.531C130.657 105.531 128.726 105.531 126.795 105.531C124.594 105.531 122.392 105.531 120.191 105.531C119.921 105.533 119.651 105.512 119.384 105.468C118.444 105.303 118.12 104.851 118.114 103.883C118.11 103.225 118.452 102.741 118.787 102.24C120.691 99.3519 122.598 96.4649 124.506 93.5792L129.286 86.3375C129.316 86.2837 129.345 86.2262 129.398 86.1343Z" fill="#D2D2D2"/>
<path d="M79.0038 94.371C79.0038 91.2606 79.0038 88.1501 79.0038 85.0393C78.9944 84.7322 79.0504 84.4267 79.1681 84.1429C79.4243 83.5596 79.8964 83.3011 80.4939 83.2996C83.8619 83.2884 87.2285 83.2959 90.5957 83.2959C90.7749 83.2901 90.9513 83.3403 91.1006 83.4395C91.2499 83.5387 91.3645 83.682 91.4286 83.8494C91.6524 84.357 91.6829 84.929 91.5145 85.4576C91.3718 85.9237 91.0125 86.1373 90.4209 86.1373C88.191 86.1373 85.9616 86.1373 83.7327 86.1373C83.3316 86.1373 82.9305 86.1455 82.5301 86.1373C82.3561 86.1321 82.2874 86.1873 82.3135 86.3614C82.3165 86.3984 82.3165 86.4356 82.3135 86.4727C82.3135 91.7726 82.3113 97.0719 82.3068 102.371C82.3068 102.645 82.3777 102.702 82.6437 102.702C85.4231 102.691 88.2025 102.695 90.9819 102.695C91.5518 102.695 91.8573 102.927 92.0037 103.486C92.1119 103.892 92.1203 104.318 92.0284 104.727C91.9066 105.267 91.5608 105.532 90.9826 105.536C90.2275 105.543 89.4723 105.536 88.7164 105.536C86.0951 105.536 83.474 105.536 80.8532 105.536C80.6112 105.533 80.3699 105.508 80.1324 105.462C79.363 105.318 79.0434 104.617 79.018 104.038C78.9881 103.378 79.0045 102.716 79.0045 102.055C79.0015 99.4938 79.0013 96.9325 79.0038 94.371Z" fill="#D2D2D2"/>
<path d="M105.936 87.0418V85.7825C105.936 85.0654 105.936 84.3483 105.936 83.6313C105.936 83.269 106.137 83.071 106.496 83.0703H108.622C109.214 83.0718 109.401 83.2563 109.405 83.8568C109.405 84.7412 109.405 85.6264 109.405 86.5108C109.405 87.8612 109.414 89.211 109.398 90.5615C109.392 90.6795 109.411 90.7974 109.452 90.9083C109.493 91.0192 109.555 91.1207 109.636 91.2068C110.169 91.7984 110.705 92.387 111.238 92.9779C111.561 93.3349 111.882 93.6932 112.202 94.0527C112.416 94.2932 112.463 94.5659 112.321 94.8557C112.079 95.3582 111.781 95.8322 111.433 96.2689C111.209 96.5513 111.022 96.5341 110.775 96.2555C109.978 95.3591 109.19 94.4501 108.392 93.5515C107.869 92.9629 107.336 92.3863 106.813 91.7984C106.14 91.0448 105.487 90.2799 104.812 89.5322C104.495 89.1819 104.178 88.8323 103.867 88.4775C103.227 87.7462 102.568 87.0321 101.925 86.3024C101.776 86.1291 101.681 86.147 101.541 86.3083C100.873 87.0762 100.201 87.8398 99.524 88.5992C99.1677 89.0078 98.7942 89.4059 98.4274 89.8145C97.7268 90.6018 97.0329 91.3951 96.336 92.1824C95.8377 92.7426 95.3306 93.2946 94.8331 93.8548C94.1392 94.6354 93.4438 95.4144 92.7611 96.2047C92.4765 96.5334 92.1538 96.5177 91.9036 96.1233C91.663 95.7448 91.4275 95.3631 91.1969 94.9782C91.1058 94.8307 91.0664 94.6571 91.0851 94.4847C91.1038 94.3123 91.1794 94.1511 91.3 94.0266C92.1336 93.0974 92.9685 92.1684 93.8045 91.2397C94.7248 90.2134 95.643 89.1851 96.5593 88.1548C97.3234 87.2988 98.0906 86.4465 98.8487 85.586C99.5157 84.8294 100.166 84.057 100.879 83.3452C101.11 83.1237 101.418 83 101.738 83C102.058 83 102.366 83.1237 102.597 83.3452C103.296 84.0481 103.935 84.8055 104.588 85.5502C105.021 86.0394 105.464 86.519 105.936 87.0418Z" fill="#D2D2D2"/>
<path d="M140.088 94.4195V104.14C140.088 105.169 139.605 105.648 138.566 105.651C138.268 105.651 137.969 105.667 137.679 105.583C137.081 105.414 136.764 105.004 136.736 104.357C136.736 104.282 136.736 104.208 136.736 104.133C136.736 97.6896 136.753 91.2464 136.724 84.8032C136.717 83.3892 137.532 83.0942 138.659 83.1465C138.789 83.1534 138.918 83.1717 139.045 83.201C139.652 83.3407 140.101 83.688 140.094 84.5873C140.079 87.8642 140.088 91.1389 140.088 94.4195Z" fill="#D2D2D2"/>
<path d="M87.1157 96.2607C85.9542 96.3354 84.8106 95.2501 84.8091 93.9392C84.8091 92.6544 85.943 91.5624 87.1769 91.6109C87.7905 91.6274 88.3738 91.8813 88.8039 92.3192C89.234 92.7571 89.4774 93.3448 89.4828 93.9586C89.4962 95.2471 88.3003 96.3421 87.1157 96.2607Z" fill="#D2D2D2"/>
<path d="M111.404 103.225C111.339 101.963 112.458 101.012 113.47 100.946C114.899 100.854 115.894 102.034 115.899 103.155C115.907 104.455 114.95 105.456 113.666 105.476C112.402 105.495 111.418 104.519 111.404 103.225Z" fill="#D2D2D2"/>
<path d="M8.04418 216.995C10.7835 216.995 13.4786 216.995 16.218 216.995C17.2342 216.995 17.5876 216.776 17.5876 215.68C17.5876 200.871 17.5876 186.018 17.5876 171.209C17.5876 170.201 17.5876 169.938 18.8689 169.938H43.6554C44.5832 169.938 44.7599 170.201 44.7599 171.077C44.7599 185.974 44.7599 200.842 44.7599 215.68C44.7599 216.776 45.025 217.039 46.1296 216.995C48.8689 216.995 51.6524 216.995 54.3918 216.995C55.3638 216.995 55.5405 216.732 55.5405 215.856C55.5405 196.665 55.5405 177.474 55.5405 158.284C55.5068 157.439 55.7901 156.611 56.3358 155.961C59.296 152.193 62.3004 148.381 65.4816 144.789C65.6485 144.556 65.8665 144.365 66.1191 144.228C66.3717 144.091 66.6522 144.013 66.9396 144H78.9573C79.9735 144 80.2828 144.219 80.2828 145.314C80.2828 168.668 80.2828 192.021 80.2828 215.418C80.2828 216.557 80.5037 216.995 81.785 216.951C84.3918 216.951 87.0427 216.951 89.6937 216.951C90.754 216.951 91.0633 216.951 91.0633 215.68C91.0633 205.822 91.0633 195.964 91.0633 186.106C91.0511 185.734 91.129 185.365 91.2904 185.03C91.4519 184.694 91.6922 184.402 91.9912 184.178C95.2607 180.979 98.486 177.825 101.667 174.582C102.33 173.881 102.639 174.013 103.258 174.582C106.439 177.781 109.62 180.936 112.845 184.09C113.137 184.326 113.367 184.628 113.513 184.972C113.659 185.316 113.718 185.69 113.685 186.062C113.685 195.935 113.685 205.793 113.685 215.637C113.685 216.644 113.95 216.907 114.966 216.863H127.028C127.779 216.863 128 216.863 128 217.827C128 220.412 128 220.412 125.393 220.412C120.71 220.412 115.982 220.412 111.255 220.412C110.371 220.412 110.194 220.193 110.194 219.361C110.194 208.758 110.194 198.155 110.194 187.595C110.209 187.215 110.137 186.837 109.984 186.488C109.831 186.139 109.601 185.829 109.311 185.58C107.234 183.564 105.158 181.505 103.125 179.446C102.595 178.92 102.33 178.876 101.756 179.446C99.6937 181.578 97.5729 183.681 95.3932 185.755C95.1574 185.97 94.9748 186.236 94.8598 186.532C94.7449 186.829 94.7006 187.148 94.7305 187.464C94.7305 198.067 94.7305 208.626 94.7305 219.229C94.7305 220.149 94.7305 220.456 93.5376 220.412C88.3682 220.412 83.243 220.412 78.1178 220.412C77.1016 220.412 76.9249 220.149 76.9249 219.229C76.9249 195.862 76.9249 172.494 76.9249 149.126C76.9249 147.987 76.6598 147.68 75.511 147.724C73.2135 147.724 71.0928 147.724 68.6186 147.724C68.335 147.705 68.0515 147.76 67.7958 147.883C67.5401 148.006 67.3212 148.193 67.1605 148.425C64.6421 151.58 62.1237 154.691 59.5169 157.802C59.194 158.278 59.053 158.853 59.1193 159.423C59.1193 179.402 59.1193 199.367 59.1193 219.317C59.1193 220.325 59.1193 220.675 57.7938 220.675C52.6686 220.675 47.4993 220.675 42.3741 220.675C41.4904 220.675 41.3137 220.456 41.3137 219.58C41.3137 204.683 41.3137 189.786 41.3137 174.889C41.3137 173.881 41.3137 173.575 40.0766 173.619H22.1384C21.2548 173.619 21.0781 173.619 21.0781 174.67C21.0781 189.596 21.0781 204.508 21.0781 219.405C21.0781 220.412 21.0781 220.719 19.7968 220.719C15.8645 220.719 11.9323 220.719 8 220.719L8.04418 216.995Z" fill="#D2D2D2"/>
<path d="M69.2369 164.681C69.2369 163.717 68.9718 162.446 69.502 161.92C70.0322 161.395 71.4019 161.92 72.3739 161.657C73.3459 161.395 73.611 161.657 73.5226 162.797C73.4343 163.936 73.5226 165.557 73.5226 167.178C73.5226 167.791 73.5226 168.142 72.7274 168.054H72.4623C71.4461 168.054 70.0764 168.536 69.4578 168.054C68.8393 167.572 69.4578 166.17 69.4578 165.163L69.2369 164.681Z" fill="#D2D2D2"/>
<path d="M66.3652 195.613C66.3652 196.577 66.8512 197.804 66.3652 198.374C65.8792 198.943 64.4212 198.374 63.4492 198.593C62.4772 198.812 62.2563 198.593 62.3004 197.497C62.3446 196.402 62.3004 194.693 62.3004 193.116C62.3004 192.502 62.3004 192.152 63.1399 192.24H63.3608C64.377 192.24 65.7909 191.801 66.3652 192.502C66.9396 193.204 66.3652 194.606 66.3652 195.613Z" fill="#D2D2D2"/>
<path d="M69.1767 195.164C69.1767 194.113 68.7791 192.886 69.1767 192.273C69.5744 191.659 71.0324 192.273 72.0044 192.273C72.9764 192.273 73.3299 192.273 73.2415 193.499C73.1532 194.726 73.2415 196.216 73.2415 197.574C73.2415 198.188 73.2415 198.538 72.4021 198.407H72.1812C71.1649 198.407 69.8837 198.757 69.2651 198.407C68.6465 198.056 69.3535 196.172 69.1767 195.164Z" fill="#D2D2D2"/>
<path d="M73.5228 154.647C73.5228 155.48 73.9646 156.794 73.3019 157.32C72.6391 157.845 71.4462 157.32 70.4742 157.32C69.5021 157.32 69.1929 157.32 69.2812 156.137C69.3696 154.954 69.2812 153.333 69.2812 151.974C69.2812 151.361 69.2812 151.142 70.0765 151.186C70.8718 151.23 71.9322 151.186 72.86 151.186C73.7879 151.186 73.5228 151.186 73.5228 151.843C73.5228 152.5 73.5228 153.683 73.5228 154.647Z" fill="#D2D2D2"/>
<path d="M66.4541 175.108C66.4541 176.072 66.8517 177.299 66.4541 177.868C66.0565 178.438 64.5984 177.868 63.6264 177.868C62.6544 177.868 62.3009 177.868 62.3893 176.642C62.4777 175.415 62.3893 173.881 62.3893 172.26C62.3893 171.734 62.3893 171.515 63.1404 171.603H63.4497C64.4659 171.603 65.7914 171.252 66.4099 171.603C67.0285 171.953 66.3657 174.1 66.4541 175.108Z" fill="#D2D2D2"/>
<path d="M69.2817 175.02C69.2817 174.013 68.8399 172.698 69.5026 172.129C70.1654 171.559 71.4025 172.129 72.3303 172.129C73.2582 172.129 73.6116 172.129 73.5233 173.312C73.4349 174.495 73.5233 176.072 73.5233 177.474C73.5233 178.044 73.5233 178.306 72.7721 178.219H72.4187C71.4025 178.219 70.1212 178.657 69.5026 178.219C68.8841 177.781 69.4143 175.984 69.2817 175.02Z" fill="#D2D2D2"/>
<path d="M66.3655 185.317C66.3655 186.281 66.8515 187.507 66.3655 188.121C65.8795 188.734 64.5098 188.121 63.5378 188.121C62.5658 188.121 62.2123 188.121 62.3007 186.894C62.389 185.667 62.3007 184.134 62.3007 182.732C62.3007 182.206 62.3007 181.943 63.0076 182.031H63.3611C64.3773 182.031 65.7911 181.593 66.3655 182.031C66.9399 182.469 66.3655 184.353 66.3655 185.317Z" fill="#D2D2D2"/>
<path d="M73.5228 185.448C73.5228 186.281 73.9646 187.595 73.3019 188.165C72.6391 188.734 71.4462 188.165 70.4742 188.165C69.5021 188.165 69.1929 188.165 69.2812 186.938C69.3696 185.711 69.2812 184.178 69.2812 182.819C69.2812 182.206 69.2812 181.987 70.0765 182.031H72.86C73.3902 182.031 73.5669 182.031 73.5228 182.688C73.4786 183.345 73.5228 184.484 73.5228 185.448Z" fill="#D2D2D2"/>
<path d="M66.3651 205.866C66.3651 206.83 66.7186 208.1 66.3651 208.626C66.0116 209.152 64.4653 208.626 63.449 208.889C62.4328 209.152 62.2561 208.582 62.3003 207.662C62.3445 206.742 62.3003 204.989 62.3003 203.631C62.3003 202.273 62.5212 202.711 63.2281 202.755C64.081 202.821 64.9378 202.821 65.7907 202.755C66.4093 202.755 66.586 202.974 66.5418 203.544C66.4976 204.113 66.5418 205.121 66.5418 205.866H66.3651Z" fill="#D2D2D2"/>
<path d="M73.4344 205.866C73.4344 206.83 73.832 208.1 73.4344 208.67C73.0367 209.24 71.5345 208.67 70.5625 208.889C69.5905 209.108 69.3254 208.626 69.3696 207.662C69.4138 206.698 69.3696 204.99 69.3696 203.631C69.3696 203.018 69.3696 202.711 70.1649 202.755C71.0611 202.843 71.9638 202.843 72.86 202.755C73.5228 202.755 73.6553 202.974 73.6111 203.544C73.5669 204.113 73.6111 205.121 73.6111 205.866H73.4344Z" fill="#D2D2D2"/>
<path d="M26.8662 211.956C29.4288 211.956 29.4288 211.956 29.4288 214.498C29.4066 214.76 29.4066 215.024 29.4288 215.286C29.4288 216.031 29.4288 216.206 28.5009 216.206C27.2942 216.141 26.0847 216.141 24.878 216.206C24.3478 216.206 24.0827 216.206 24.171 215.461V214.673C24.171 211.956 24.171 211.956 26.8662 211.956Z" fill="#D2D2D2"/>
<path d="M26.7772 180.935C24.1704 180.935 24.1704 180.935 24.1704 178.263C24.1704 176.729 24.1704 176.729 25.6726 176.729C27.1748 176.729 27.5283 176.729 28.4561 176.729C29.384 176.729 29.5165 176.992 29.4281 177.693C29.4062 177.897 29.4062 178.103 29.4281 178.307C29.4281 180.935 29.4281 180.935 26.7772 180.935Z" fill="#D2D2D2"/>
<path d="M35.7022 176.73C38.2648 176.73 38.2648 176.73 38.2648 179.315C38.2427 179.665 38.2427 180.016 38.2648 180.366C38.2648 180.804 38.2648 180.936 37.6463 180.936H33.6698C33.1838 180.936 33.0071 180.936 33.0071 180.279C33.0071 179.621 33.0071 178.395 33.0071 177.474C33.0071 176.554 33.0071 176.686 33.8024 176.73C34.5977 176.773 35.0395 176.73 35.7022 176.73Z" fill="#D2D2D2"/>
<path d="M26.8656 202.098C24.1704 202.098 24.1704 202.098 24.1704 199.382C24.1704 197.892 24.1704 197.892 25.7168 197.892H28.7654C29.2514 197.892 29.4281 197.892 29.4281 198.549C29.3619 199.439 29.3619 200.332 29.4281 201.222C29.4281 201.967 29.4281 202.186 28.5003 202.098H26.8656Z" fill="#D2D2D2"/>
<path d="M35.5697 216.162C33.0071 216.162 33.0071 216.162 33.0071 213.577C33.0071 211.956 33.0071 211.956 34.686 211.956C35.5396 212 36.395 212 37.2486 211.956C38.1323 211.956 38.3532 212.219 38.2648 213.008C38.1985 213.737 38.1985 214.47 38.2648 215.199C38.2648 216.031 37.9997 216.294 37.2044 216.206C36.6616 216.147 36.1149 216.133 35.5697 216.162Z" fill="#D2D2D2"/>
<path d="M35.5697 202.098C33.0071 202.098 33.0071 202.098 33.0071 199.601C33.0071 197.892 33.0071 197.892 34.686 197.892H37.3812C38.1323 197.892 38.309 197.892 38.2648 198.812C38.1983 199.57 38.1983 200.332 38.2648 201.09C38.2648 201.967 37.9997 202.186 37.2044 202.098H35.5697Z" fill="#D2D2D2"/>
<path d="M26.7772 195C24.1704 195 24.1704 195 24.1704 192.371C24.1704 190.837 24.1704 190.837 25.6726 190.837C27.1748 190.837 27.4841 190.837 28.3678 190.837C29.2514 190.837 29.5165 191.144 29.4281 191.977C29.4064 192.122 29.4064 192.269 29.4281 192.415C29.384 195 29.384 195 26.7772 195Z" fill="#D2D2D2"/>
<path d="M26.6888 187.815C24.1704 187.815 24.1704 187.815 24.1704 185.361C24.1704 183.652 24.1704 183.652 25.9377 183.652H26.2912C29.8258 183.652 29.8258 183.652 29.4281 187.245C29.4281 187.683 29.4281 187.859 28.7654 187.815H26.6888Z" fill="#D2D2D2"/>
<path d="M35.5697 187.815C33.0071 187.815 33.0071 187.815 33.0071 185.317C33.0071 183.652 33.0071 183.652 34.7302 183.652C35.7906 183.652 37.2928 183.17 37.8672 183.871C38.4415 184.572 37.8672 185.931 37.8672 186.982C37.8672 188.034 37.8672 187.902 37.0277 187.815H35.5697Z" fill="#D2D2D2"/>
<path d="M35.5255 195C33.0071 195 33.0071 195 33.0071 192.59C33.0071 190.837 33.0071 190.837 34.7744 190.837H37.4695C38.0439 190.837 38.3532 190.837 38.2648 191.582C38.2428 191.815 38.2428 192.05 38.2648 192.283C38.2648 195 38.2648 195 35.5255 195Z" fill="#D2D2D2"/>
<path d="M26.8214 209.108C24.1704 209.108 24.1704 209.108 24.1704 206.523V205.603C24.1704 205.121 24.1704 204.902 24.789 204.902H28.7212C29.2072 204.902 29.4723 204.902 29.4281 205.516C29.4062 205.822 29.4062 206.129 29.4281 206.436C29.384 209.108 29.384 209.108 26.8214 209.108Z" fill="#D2D2D2"/>
<path d="M35.6139 209.108C33.0071 209.108 33.0071 209.108 33.0071 206.611C33.0071 204.946 33.0071 204.946 34.7302 204.946H35.0837C38.5741 204.946 38.7066 204.946 38.2648 208.626C38.2648 209.021 38.2648 209.108 37.6904 209.108H35.6139Z" fill="#D2D2D2"/>
<path d="M96.4102 198.505C96.4102 196.446 96.4102 196.446 98.5309 196.446C100.652 196.446 100.652 196.446 100.652 198.549C100.652 200.652 100.652 200.652 98.4868 200.652C96.3218 200.652 96.4102 200.652 96.4102 198.505Z" fill="#D2D2D2"/>
<path d="M98.7063 189.392C100.739 189.392 100.739 189.392 100.739 191.407C100.739 193.423 100.739 193.598 98.5738 193.598C96.4088 193.598 96.5414 193.598 96.5414 191.539C96.5414 189.479 96.4088 189.392 98.7063 189.392Z" fill="#D2D2D2"/>
<path d="M107.852 198.505C107.852 200.652 107.852 200.652 105.643 200.652C103.434 200.652 103.611 200.652 103.611 198.68C103.611 196.709 103.611 196.446 105.952 196.446C108.294 196.446 107.852 196.577 107.852 198.505Z" fill="#D2D2D2"/>
<path d="M100.828 205.603C100.828 207.706 100.828 207.706 98.7072 207.706C96.5864 207.706 96.5864 207.706 96.5864 205.647C96.5864 203.588 96.5864 203.5 98.663 203.5C100.828 203.5 100.828 203.5 100.828 205.603Z" fill="#D2D2D2"/>
<path d="M105.776 189.392C107.853 189.392 107.853 189.392 107.853 191.407C107.853 193.423 107.853 193.598 105.688 193.598C103.523 193.598 103.611 193.598 103.611 191.582C103.611 189.567 103.611 189.392 105.776 189.392Z" fill="#D2D2D2"/>
<path d="M229.956 216.996C227.24 216.996 224.567 216.996 221.851 216.996C220.843 216.996 220.492 216.777 220.492 215.681C220.492 200.872 220.492 186.019 220.492 171.209C220.492 170.201 220.492 169.938 219.222 169.938H194.642C193.722 169.938 193.546 170.201 193.546 171.078C193.546 185.975 193.546 200.843 193.546 215.681C193.546 216.777 193.284 217.04 192.188 216.996C189.472 216.996 186.711 216.996 183.995 216.996C183.031 216.996 182.856 216.733 182.856 215.857C182.856 196.666 182.856 177.475 182.856 158.284C182.889 157.439 182.608 156.611 182.067 155.961C179.131 152.193 176.152 148.381 172.997 144.789C172.832 144.556 172.616 144.365 172.365 144.228C172.115 144.091 171.837 144.013 171.552 144H159.634C158.626 144 158.32 144.219 158.32 145.314C158.32 168.668 158.32 192.021 158.32 215.418C158.32 216.558 158.101 216.996 156.83 216.952C154.245 216.952 151.616 216.952 148.987 216.952C147.936 216.952 147.629 216.952 147.629 215.681C147.629 205.823 147.629 195.965 147.629 186.106C147.641 185.735 147.564 185.366 147.404 185.03C147.244 184.695 147.005 184.403 146.709 184.178C143.466 180.98 140.268 177.825 137.113 174.583C136.456 173.882 136.149 174.013 135.536 174.583C132.381 177.781 129.227 180.936 126.028 184.091C125.739 184.326 125.511 184.629 125.366 184.973C125.221 185.316 125.163 185.691 125.196 186.062C125.196 195.935 125.196 205.794 125.196 215.637C125.196 216.645 124.933 216.908 123.925 216.864H111.964C111.219 216.864 111 216.864 111 217.828C111 220.413 111 220.413 113.585 220.413C118.229 220.413 122.918 220.413 127.606 220.413C128.482 220.413 128.657 220.194 128.657 219.362C128.657 208.759 128.657 198.155 128.657 187.596C128.643 187.216 128.715 186.837 128.866 186.489C129.018 186.14 129.246 185.829 129.534 185.58C131.593 183.565 133.652 181.506 135.668 179.446C136.193 178.921 136.456 178.877 137.026 179.446C139.07 181.579 141.174 183.682 143.335 185.756C143.569 185.971 143.75 186.237 143.864 186.533C143.978 186.829 144.022 187.148 143.992 187.464C143.992 198.068 143.992 208.627 143.992 219.23C143.992 220.15 143.992 220.457 145.175 220.413C150.302 220.413 155.384 220.413 160.466 220.413C161.474 220.413 161.649 220.15 161.649 219.23C161.649 195.862 161.649 172.494 161.649 149.126C161.649 147.987 161.912 147.68 163.052 147.724C165.33 147.724 167.433 147.724 169.887 147.724C170.168 147.705 170.449 147.76 170.702 147.883C170.956 148.006 171.173 148.193 171.332 148.425C173.83 151.58 176.327 154.691 178.912 157.802C179.233 158.278 179.372 158.853 179.307 159.423C179.307 179.402 179.307 199.368 179.307 219.318C179.307 220.326 179.307 220.676 180.621 220.676C185.704 220.676 190.83 220.676 195.912 220.676C196.789 220.676 196.964 220.457 196.964 219.581C196.964 204.684 196.964 189.787 196.964 174.89C196.964 173.882 196.964 173.575 198.191 173.619H215.979C216.856 173.619 217.031 173.619 217.031 174.67C217.031 189.597 217.031 204.508 217.031 219.406C217.031 220.413 217.031 220.72 218.302 220.72C222.201 220.72 226.101 220.72 230 220.72L229.956 216.996Z" fill="#D2D2D2"/>
<path d="M169.273 164.681C169.273 163.717 169.536 162.446 169.011 161.921C168.485 161.395 167.126 161.921 166.163 161.658C165.199 161.395 164.936 161.658 165.023 162.797C165.111 163.936 165.023 165.557 165.023 167.178C165.023 167.792 165.023 168.142 165.812 168.055H166.075C167.083 168.055 168.441 168.537 169.054 168.055C169.668 167.573 169.054 166.171 169.054 165.163L169.273 164.681Z" fill="#D2D2D2"/>
<path d="M172.121 195.614C172.121 196.578 171.639 197.805 172.121 198.374C172.603 198.944 174.049 198.374 175.013 198.593C175.977 198.812 176.196 198.593 176.152 197.498C176.108 196.403 176.152 194.694 176.152 193.117C176.152 192.503 176.152 192.153 175.32 192.24H175.1C174.093 192.24 172.691 191.802 172.121 192.503C171.551 193.204 172.121 194.606 172.121 195.614Z" fill="#D2D2D2"/>
<path d="M169.229 195.57C169.229 194.518 169.624 193.292 169.229 192.678C168.835 192.065 167.389 192.678 166.425 192.678C165.461 192.678 165.111 192.678 165.198 193.905C165.286 195.132 165.198 196.622 165.198 197.98C165.198 198.593 165.198 198.944 166.031 198.812H166.25C167.258 198.812 168.528 199.163 169.142 198.812C169.755 198.462 169.054 196.578 169.229 195.57Z" fill="#D2D2D2"/>
<path d="M165.023 154.647C165.023 155.48 164.585 156.794 165.242 157.32C165.899 157.846 167.082 157.32 168.046 157.32C169.01 157.32 169.317 157.32 169.229 156.137C169.142 154.954 169.229 153.333 169.229 151.975C169.229 151.361 169.229 151.142 168.441 151.186C167.652 151.23 166.601 151.186 165.68 151.186C164.76 151.186 165.023 151.186 165.023 151.843C165.023 152.5 165.023 153.683 165.023 154.647Z" fill="#D2D2D2"/>
<path d="M172.033 175.108C172.033 176.072 171.639 177.299 172.033 177.869C172.427 178.438 173.873 177.869 174.837 177.869C175.801 177.869 176.152 177.869 176.064 176.642C175.976 175.415 176.064 173.882 176.064 172.26C176.064 171.735 176.064 171.516 175.319 171.603H175.012C174.005 171.603 172.69 171.253 172.077 171.603C171.463 171.954 172.121 174.101 172.033 175.108Z" fill="#D2D2D2"/>
<path d="M169.229 175.021C169.229 174.013 169.667 172.699 169.01 172.129C168.353 171.56 167.126 172.129 166.206 172.129C165.286 172.129 164.935 172.129 165.023 173.312C165.11 174.495 165.023 176.072 165.023 177.475C165.023 178.044 165.023 178.307 165.768 178.219H166.118C167.126 178.219 168.397 178.658 169.01 178.219C169.623 177.781 169.098 175.985 169.229 175.021Z" fill="#D2D2D2"/>
<path d="M172.121 185.317C172.121 186.281 171.639 187.508 172.121 188.121C172.603 188.735 173.961 188.121 174.925 188.121C175.889 188.121 176.239 188.121 176.152 186.894C176.064 185.668 176.152 184.134 176.152 182.732C176.152 182.206 176.152 181.943 175.451 182.031H175.1C174.093 182.031 172.69 181.593 172.121 182.031C171.551 182.469 172.121 184.353 172.121 185.317Z" fill="#D2D2D2"/>
<path d="M165.023 185.449C165.023 186.281 164.585 187.596 165.242 188.165C165.899 188.735 167.082 188.165 168.046 188.165C169.01 188.165 169.317 188.165 169.229 186.938C169.142 185.711 169.229 184.178 169.229 182.82C169.229 182.206 169.229 181.987 168.441 182.031H165.68C165.155 182.031 164.979 182.031 165.023 182.688C165.067 183.345 165.023 184.485 165.023 185.449Z" fill="#D2D2D2"/>
<path d="M172.121 205.866C172.121 206.83 171.771 208.101 172.121 208.627C172.472 209.153 174.005 208.627 175.013 208.89C176.021 209.153 176.196 208.583 176.152 207.663C176.108 206.743 176.152 204.99 176.152 203.632C176.152 202.274 175.933 202.712 175.232 202.756C174.386 202.821 173.537 202.821 172.691 202.756C172.077 202.756 171.902 202.975 171.946 203.544C171.99 204.114 171.946 205.122 171.946 205.866H172.121Z" fill="#D2D2D2"/>
<path d="M165.111 205.867C165.111 206.83 164.716 208.101 165.111 208.671C165.505 209.24 166.995 208.671 167.959 208.89C168.923 209.109 169.185 208.627 169.142 207.663C169.098 206.699 169.142 204.99 169.142 203.632C169.142 203.019 169.142 202.712 168.353 202.756C167.464 202.843 166.569 202.843 165.68 202.756C165.023 202.756 164.892 202.975 164.935 203.544C164.979 204.114 164.935 205.122 164.935 205.867H165.111Z" fill="#D2D2D2"/>
<path d="M211.291 211.957C208.75 211.957 208.75 211.957 208.75 214.498C208.772 214.761 208.772 215.025 208.75 215.287C208.75 216.032 208.75 216.207 209.67 216.207C210.867 216.142 212.066 216.142 213.263 216.207C213.789 216.207 214.051 216.207 213.964 215.462V214.674C213.964 211.957 213.964 211.957 211.291 211.957Z" fill="#D2D2D2"/>
<path d="M211.379 180.936C213.964 180.936 213.964 180.936 213.964 178.263C213.964 176.73 213.964 176.73 212.475 176.73C210.985 176.73 210.634 176.73 209.714 176.73C208.794 176.73 208.663 176.993 208.75 177.694C208.772 177.897 208.772 178.103 208.75 178.307C208.75 180.936 208.75 180.936 211.379 180.936Z" fill="#D2D2D2"/>
<path d="M202.529 176.73C199.987 176.73 199.987 176.73 199.987 179.315C200.009 179.665 200.009 180.016 199.987 180.366C199.987 180.805 199.988 180.936 200.601 180.936H204.544C205.026 180.936 205.201 180.936 205.201 180.279C205.201 179.622 205.201 178.395 205.201 177.475C205.201 176.555 205.201 176.686 204.413 176.73C203.624 176.774 203.186 176.73 202.529 176.73Z" fill="#D2D2D2"/>
<path d="M211.292 202.099C213.964 202.099 213.964 202.099 213.964 199.382C213.964 197.893 213.964 197.893 212.431 197.893H209.408C208.926 197.893 208.75 197.893 208.75 198.55C208.816 199.439 208.816 200.333 208.75 201.223C208.75 201.967 208.75 202.186 209.671 202.099H211.292Z" fill="#D2D2D2"/>
<path d="M202.66 216.163C205.201 216.163 205.201 216.163 205.201 213.578C205.201 211.957 205.201 211.957 203.536 211.957C202.69 212.001 201.842 212.001 200.995 211.957C200.119 211.957 199.9 212.22 199.987 213.009C200.053 213.737 200.053 214.471 199.987 215.199C199.987 216.032 200.25 216.295 201.039 216.207C201.577 216.148 202.12 216.134 202.66 216.163Z" fill="#D2D2D2"/>
<path d="M202.66 202.099C205.201 202.099 205.201 202.099 205.201 199.601C205.201 197.893 205.201 197.893 203.536 197.893H200.864C200.119 197.893 199.944 197.893 199.987 198.813C200.053 199.571 200.053 200.333 199.987 201.091C199.987 201.967 200.25 202.186 201.039 202.099H202.66Z" fill="#D2D2D2"/>
<path d="M211.379 195C213.964 195 213.964 195 213.964 192.372C213.964 190.838 213.964 190.838 212.475 190.838C210.985 190.838 210.678 190.838 209.802 190.838C208.926 190.838 208.663 191.145 208.75 191.977C208.772 192.122 208.772 192.27 208.75 192.415C208.794 195 208.794 195 211.379 195Z" fill="#D2D2D2"/>
<path d="M211.467 187.815C213.964 187.815 213.964 187.815 213.964 185.361C213.964 183.653 213.964 183.653 212.212 183.653H211.861C208.356 183.653 208.356 183.653 208.75 187.246C208.75 187.684 208.75 187.859 209.408 187.815H211.467Z" fill="#D2D2D2"/>
<path d="M202.66 187.815C205.201 187.815 205.201 187.815 205.201 185.318C205.201 183.653 205.201 183.653 203.493 183.653C202.441 183.653 200.951 183.171 200.382 183.872C199.812 184.573 200.382 185.931 200.382 186.983C200.382 188.034 200.382 187.903 201.214 187.815H202.66Z" fill="#D2D2D2"/>
<path d="M202.704 195C205.201 195 205.201 195 205.201 192.591C205.201 190.838 205.201 190.838 203.449 190.838H200.776C200.207 190.838 199.9 190.838 199.987 191.583C200.009 191.816 200.009 192.051 199.987 192.284C199.987 195 199.988 195 202.704 195Z" fill="#D2D2D2"/>
<path d="M211.335 209.109C213.964 209.109 213.964 209.109 213.964 206.524V205.604C213.964 205.122 213.964 204.903 213.351 204.903H209.451C208.97 204.903 208.707 204.903 208.75 205.516C208.772 205.823 208.772 206.13 208.75 206.436C208.794 209.109 208.794 209.109 211.335 209.109Z" fill="#D2D2D2"/>
<path d="M202.616 209.109C205.201 209.109 205.201 209.109 205.201 206.612C205.201 204.947 205.201 204.947 203.493 204.947H203.142C199.681 204.947 199.549 204.947 199.987 208.627C199.987 209.021 199.987 209.109 200.557 209.109H202.616Z" fill="#D2D2D2"/>
<path d="M142.327 198.506C142.327 196.446 142.327 196.446 140.224 196.446C138.121 196.446 138.121 196.446 138.121 198.549C138.121 200.653 138.121 200.653 140.268 200.653C142.415 200.653 142.327 200.653 142.327 198.506Z" fill="#D2D2D2"/>
<path d="M140.05 189.392C138.034 189.392 138.034 189.392 138.034 191.408C138.034 193.423 138.034 193.599 140.181 193.599C142.328 193.599 142.196 193.599 142.196 191.539C142.196 189.48 142.328 189.392 140.05 189.392Z" fill="#D2D2D2"/>
<path d="M130.98 198.506C130.98 200.653 130.98 200.653 133.171 200.653C135.361 200.653 135.186 200.653 135.186 198.681C135.186 196.709 135.186 196.446 132.864 196.446C130.542 196.446 130.98 196.578 130.98 198.506Z" fill="#D2D2D2"/>
<path d="M137.946 205.604C137.946 207.707 137.946 207.707 140.049 207.707C142.152 207.707 142.152 207.707 142.152 205.648C142.152 203.588 142.152 203.501 140.093 203.501C137.946 203.501 137.946 203.501 137.946 205.604Z" fill="#D2D2D2"/>
<path d="M133.039 189.392C130.979 189.392 130.979 189.392 130.979 191.408C130.979 193.423 130.979 193.599 133.126 193.599C135.273 193.599 135.186 193.599 135.186 191.583C135.186 189.568 135.186 189.392 133.039 189.392Z" fill="#D2D2D2"/>
</svg>
