<svg width="140" height="40" viewBox="0 0 140 40" fill="none" xmlns="http://www.w3.org/2000/svg">
<path d="M139.997 18.3162C139.81 18.6273 139.829 18.9907 139.753 19.328C139.195 21.8116 137.497 23.2769 135.289 24.2677C134.204 24.7595 133.023 25.002 131.833 24.9775C129.76 24.9409 127.685 24.9318 125.613 24.9775C124.424 25.0063 123.874 24.3945 123.685 23.4586C123.554 22.8345 123.554 22.1899 123.685 21.5658C123.919 20.5018 124.59 19.9972 125.727 19.9894C127.344 19.9829 128.964 19.9188 130.575 20.0051C132.928 20.1358 134.15 18.775 134.17 16.5699C134.194 13.8326 134.271 11.0928 134.122 8.35824C134.048 7.00141 133.101 5.48248 131.15 5.48248C127.772 5.49555 124.392 5.49207 121.012 5.47202C120.582 5.47202 120.595 5.67071 120.595 5.97267C120.6 12.4118 120.6 18.8504 120.595 25.2886C120.595 29.2337 120.595 33.1787 120.595 37.1237C120.595 38.8492 119.714 39.7197 117.968 39.7289C117.365 39.7289 116.763 39.7537 116.182 39.538C115.352 39.2295 114.875 38.6557 114.807 37.7655C114.791 37.5538 114.786 37.342 114.786 37.1302C114.786 25.9488 114.786 14.7668 114.786 3.58448C114.772 3.20988 114.793 2.83478 114.85 2.46424C115.091 1.27733 116.027 0.527019 117.373 0.517869C122.471 0.502183 127.56 0.481268 132.652 0.532248C134.041 0.54532 135.285 1.20021 136.488 1.86163C138.561 3.00279 139.637 4.79491 139.903 7.1099C139.911 7.17787 139.928 7.24062 140 7.26022L139.997 18.3162Z" fill="white"/>
<path d="M53.2108 30.5028C53.2108 32.8557 53.2291 35.1982 53.2003 37.5445C53.1912 38.3184 53.0579 39.0831 52.3925 39.636C52.1945 39.8258 51.9322 39.9341 51.6579 39.9393C48.8174 39.9314 45.977 39.9275 43.1365 39.9393C42.7744 39.9393 42.7156 39.8085 42.7169 39.4909C42.7273 35.8557 42.7104 32.2205 42.7378 28.5852C42.7378 28.0624 42.5849 27.9787 42.113 27.9865C40.53 28.0166 38.9457 28.0114 37.3627 27.9865C36.9601 27.9865 36.8477 28.0846 36.849 28.4937C36.866 32.0963 36.849 35.6988 36.8686 39.3014C36.8686 39.7863 36.7523 39.9458 36.2451 39.9406C33.568 39.917 30.8857 39.9301 28.2126 39.9301C27.3067 39.9301 26.5995 39.2648 26.4623 38.3511C26.3873 37.7572 26.3571 37.1586 26.3721 36.5602C26.3721 32.2248 26.3699 27.8889 26.3656 23.5526C26.3626 23.3297 26.4049 23.1085 26.4901 22.9024C26.5753 22.6963 26.7015 22.5097 26.861 22.354C28.244 20.8533 29.5903 19.3187 30.9537 17.8011C31.5916 17.0887 32.2387 16.3842 32.8818 15.6757C34.3079 14.1071 35.7575 12.5502 37.1418 10.945C37.9157 10.0496 38.7496 9.20651 39.5431 8.33071C39.7366 8.11634 39.8503 8.12679 40.0411 8.33071C41.1849 9.56729 42.3156 10.8143 43.4175 12.0901C44.0424 12.8143 44.7025 13.5071 45.343 14.2182C46.7966 15.8299 48.2436 17.4456 49.7011 19.0547C50.4854 19.92 51.2867 20.7723 52.0775 21.6324C52.3847 21.9671 52.6945 22.2991 52.9925 22.6429C53.1886 22.8742 53.2173 23.1657 53.216 23.4585C53.2108 25.8079 53.2091 28.156 53.2108 30.5028Z" fill="white"/>
<path d="M88.1958 5.48508H87.6062C82.2468 5.48508 76.8966 5.46416 71.5425 5.49684C69.8968 5.5073 69.3582 5.01319 69.1085 3.37531C69.0215 2.77533 69.0848 2.16311 69.2928 1.59365C69.5477 0.870787 70.0771 0.51001 70.8614 0.51001C78.206 0.51001 85.5518 0.51001 92.8989 0.51001C93.844 0.51001 94.7394 0.734842 95.4492 1.43156C95.6037 1.57695 95.7257 1.75324 95.8075 1.94897C95.8892 2.14469 95.9289 2.35544 95.9237 2.56749C95.9237 2.90996 95.9355 3.25375 95.9237 3.59492C95.9064 4.26824 95.7003 4.92316 95.329 5.48508C89.0302 15.0117 82.7436 24.5488 76.4692 34.0963C76.4077 34.1891 76.3555 34.2871 76.2561 34.4545H93.8545C94.8924 34.4545 95.4361 34.8466 95.6623 35.8597C95.8319 36.5747 95.8364 37.319 95.6753 38.0361C95.4479 39.0047 94.8571 39.4282 93.7786 39.4295C90.4001 39.4295 87.021 39.4295 83.6416 39.4295C79.7889 39.4295 75.9363 39.4295 72.0836 39.4295C71.6108 39.4336 71.1385 39.3968 70.6719 39.3197C69.0275 39.0295 68.4602 38.2387 68.4497 36.5459C68.4419 35.393 69.0406 34.546 69.6262 33.6702C72.9594 28.6158 76.2958 23.5636 79.6351 18.5136L88.001 5.84063C88.052 5.74651 88.1029 5.64586 88.1958 5.48508Z" fill="white"/>
<path d="M0.00658325 19.899C0.00658325 14.456 0.00658325 9.01252 0.00658325 3.56862C-0.0098688 3.03128 0.0881588 2.49658 0.29416 2.00002C0.742517 0.979125 1.56865 0.526846 2.61438 0.524232C8.50838 0.504624 14.3998 0.517696 20.2925 0.517696C20.606 0.507584 20.9148 0.595442 21.176 0.769046C21.4373 0.942651 21.6379 1.19337 21.75 1.4863C22.1416 2.37468 22.1951 3.37558 21.9003 4.30063C21.6506 5.1163 21.0219 5.49015 19.9866 5.49015C16.0843 5.49015 12.1828 5.49015 8.28224 5.49015C7.5803 5.49015 6.87835 5.50453 6.17771 5.49015C5.87314 5.481 5.75288 5.57773 5.79863 5.8823C5.80387 5.94712 5.80387 6.01225 5.79863 6.07707C5.79863 15.3518 5.79471 24.6257 5.78687 33.8988C5.78687 34.3785 5.91105 34.4791 6.3764 34.4778C11.2404 34.4595 16.1043 34.4661 20.9683 34.4661C21.9656 34.4661 22.5003 34.8726 22.7565 35.8504C22.9458 36.5605 22.9606 37.3058 22.7996 38.0229C22.5865 38.9679 21.9813 39.4307 20.9696 39.4385C19.648 39.4503 18.3265 39.4385 17.0036 39.4385C12.4164 39.4385 7.82953 39.4385 3.24312 39.4385C2.81957 39.4331 2.39738 39.3893 1.98171 39.3078C0.635329 39.0555 0.075863 37.8294 0.0314194 36.8163C-0.0208672 35.6621 0.00789041 34.5027 0.00789041 33.3458C0.00266176 28.864 0.00222603 24.3817 0.00658325 19.899Z" fill="white"/>
<path d="M47.1377 7.07321V4.86933C47.1377 3.61445 47.1377 2.35957 47.1377 1.10469C47.1377 0.470719 47.4894 0.12432 48.1181 0.123013H51.8383C52.8749 0.125627 53.2017 0.448497 53.2095 1.49946C53.2095 3.04714 53.2095 4.59613 53.2095 6.14381C53.2095 8.50717 53.2252 10.8692 53.1964 13.2326C53.1869 13.4391 53.2189 13.6455 53.2905 13.8395C53.3621 14.0335 53.4719 14.2112 53.6134 14.362C54.5454 15.3972 55.484 16.4273 56.4173 17.4612C56.982 18.0861 57.5441 18.7131 58.1035 19.3423C58.4774 19.7632 58.5597 20.2403 58.3127 20.7475C57.8878 21.6269 57.3666 22.4564 56.7585 23.2206C56.3663 23.7147 56.0382 23.6847 55.6056 23.1971C54.2108 21.6285 52.8317 20.0377 51.4357 18.4651C50.5207 17.4351 49.5874 16.426 48.6723 15.3972C47.4959 14.0783 46.3521 12.7398 45.1705 11.4313C44.6162 10.8182 44.062 10.2065 43.5182 9.58558C42.3967 8.30586 41.2437 7.05621 40.1196 5.77911C39.8581 5.47585 39.6921 5.50722 39.4464 5.78957C38.2786 7.13334 37.1022 8.4697 35.917 9.79865C35.2935 10.5137 34.6399 11.2104 33.9981 11.9254C32.772 13.3032 31.5576 14.6914 30.3381 16.0691C29.4662 17.0495 28.5786 18.0155 27.708 18.9959C26.4937 20.3618 25.2767 21.7252 24.082 23.1082C23.5839 23.6833 23.0192 23.6559 22.5813 22.9657C22.1604 22.3034 21.7482 21.6355 21.3448 20.9618C21.1852 20.7038 21.1164 20.3998 21.149 20.0982C21.1817 19.7966 21.3141 19.5144 21.5251 19.2965C22.9839 17.6704 24.4449 16.0447 25.9081 14.4195C27.5185 12.6234 29.1254 10.8239 30.7289 9.02088C32.0661 7.52287 33.4086 6.0314 34.7354 4.52554C35.9027 3.20139 37.0412 1.84978 38.2882 0.60405C38.6927 0.216412 39.2312 0 39.7915 0C40.3517 0 40.8903 0.216412 41.2947 0.60405C42.5182 1.83409 43.6358 3.15956 44.7796 4.4628C45.5365 5.31899 46.3116 6.15819 47.1377 7.07321Z" fill="white"/>
<path d="M106.904 19.9841V36.9956C106.904 38.7955 106.058 39.6347 104.241 39.6387C103.718 39.6387 103.195 39.6674 102.688 39.521C101.643 39.2243 101.087 38.5066 101.039 37.3746C101.039 37.2439 101.039 37.1132 101.039 36.9825C101.039 25.7069 101.067 14.4313 101.016 3.15569C101.005 0.681228 102.431 0.164898 104.403 0.256399C104.631 0.268559 104.857 0.300487 105.079 0.351822C106.142 0.596262 106.926 1.20409 106.914 2.77792C106.888 8.51245 106.904 14.2431 106.904 19.9841Z" fill="white"/>
<path d="M14.2024 23.2062C12.1698 23.337 10.1685 21.4376 10.1659 19.1436C10.1659 16.8952 12.1502 14.9842 14.3096 15.0691C15.3834 15.0979 16.4041 15.5422 17.1568 16.3086C17.9095 17.0749 18.3354 18.1034 18.3448 19.1776C18.3684 21.4324 16.2756 23.3487 14.2024 23.2062Z" fill="white"/>
<path d="M56.7061 35.393C56.5924 33.1852 58.5519 31.5212 60.3218 31.4062C62.8224 31.2441 64.5635 33.3094 64.574 35.2715C64.587 37.5459 62.9126 39.2975 60.6655 39.3328C58.4538 39.3668 56.731 37.6583 56.7061 35.393Z" fill="white"/>
</svg>
