<svg width="120" height="35" viewBox="0 0 120 35" fill="none" xmlns="http://www.w3.org/2000/svg">
<path d="M119.998 16.0508C119.838 16.3234 119.853 16.6419 119.788 16.9374C119.31 19.1138 117.854 20.3979 115.962 21.2661C115.032 21.697 114.02 21.9096 113 21.8881C111.223 21.8561 109.444 21.848 107.669 21.8881C106.649 21.9133 106.177 21.3772 106.016 20.5571C105.903 20.0102 105.903 19.4453 106.016 18.8985C106.216 17.966 106.791 17.5239 107.766 17.517C109.152 17.5113 110.54 17.4552 111.922 17.5308C113.938 17.6453 114.986 16.4529 115.003 14.5205C115.023 12.1219 115.089 9.72097 114.961 7.32465C114.899 6.13565 114.086 4.80462 112.415 4.80462C109.519 4.81608 106.622 4.81302 103.725 4.79546C103.356 4.79546 103.367 4.96957 103.367 5.23417C103.372 10.8767 103.372 16.5189 103.367 22.1607C103.367 25.6178 103.367 29.0748 103.367 32.5318C103.367 34.0438 102.612 34.8067 101.115 34.8147C100.599 34.8147 100.082 34.8365 99.5847 34.6475C98.8732 34.3772 98.4642 33.8743 98.406 33.0942C98.3925 32.9087 98.3881 32.7231 98.3881 32.5375C98.3881 22.7392 98.3881 12.9405 98.3881 3.1414C98.3759 2.81314 98.3943 2.48444 98.443 2.15974C98.6491 1.11965 99.4513 0.462154 100.605 0.454135C104.975 0.44039 109.337 0.422062 113.702 0.466735C114.892 0.47819 115.959 1.05207 116.989 1.63168C118.766 2.63167 119.689 4.20211 119.917 6.23073C119.924 6.29029 119.938 6.34528 120 6.36246L119.998 16.0508Z" fill="#FF9431"/>
<path d="M45.6094 26.7295C45.6094 28.7913 45.625 30.844 45.6004 32.9001C45.5926 33.5782 45.4783 34.2483 44.908 34.7329C44.7382 34.8992 44.5134 34.9941 44.2783 34.9986C41.8436 34.9918 39.4089 34.9883 36.9742 34.9986C36.6639 34.9986 36.6134 34.8841 36.6146 34.6057C36.6235 31.4202 36.609 28.2346 36.6325 25.0491C36.6325 24.5909 36.5014 24.5176 36.0969 24.5245C34.7401 24.5508 33.3821 24.5462 32.0253 24.5245C31.6802 24.5245 31.5838 24.6104 31.585 24.9689C31.5995 28.1258 31.585 31.2827 31.6018 34.4396C31.6018 34.8646 31.502 35.0044 31.0673 34.9998C28.7727 34.9792 26.4736 34.9906 24.1823 34.9906C23.4058 34.9906 22.7997 34.4076 22.682 33.6069C22.6177 33.0865 22.5919 32.5619 22.6047 32.0376C22.6047 28.2385 22.6029 24.4389 22.5991 20.639C22.5966 20.4437 22.6329 20.2498 22.7059 20.0692C22.7789 19.8887 22.887 19.7252 23.0238 19.5887C24.2092 18.2737 25.3632 16.9289 26.5318 15.599C27.0786 14.9747 27.6332 14.3573 28.1845 13.7365C29.4068 12.3619 30.6494 10.9976 31.8359 9.59101C32.4992 8.80636 33.2141 8.06754 33.8942 7.30008C34.06 7.11222 34.1575 7.12138 34.321 7.30008C35.3014 8.38369 36.2706 9.47646 37.2151 10.5944C37.7507 11.229 38.3165 11.8361 38.8655 12.4593C40.1114 13.8716 41.3517 15.2874 42.601 16.6975C43.2733 17.4558 43.9601 18.2026 44.6379 18.9564C44.9012 19.2496 45.1668 19.5405 45.4222 19.8418C45.5903 20.0445 45.615 20.3 45.6138 20.5566C45.6094 22.6154 45.6079 24.673 45.6094 26.7295Z" fill="#FF9431"/>
<path d="M75.5965 4.80594H75.0911C70.4974 4.80594 65.9115 4.78761 61.3222 4.81625C59.9116 4.82541 59.45 4.39242 59.236 2.95715C59.1613 2.43139 59.2156 1.8949 59.3939 1.39588C59.6124 0.762438 60.0662 0.446289 60.7385 0.446289C67.0338 0.446289 73.3302 0.446289 79.6278 0.446289C80.4378 0.446289 81.2053 0.643309 81.8137 1.25384C81.9461 1.38124 82.0507 1.53573 82.1208 1.70724C82.1909 1.87875 82.2248 2.06344 82.2204 2.24925C82.2204 2.54937 82.2305 2.85063 82.2204 3.14959C82.2056 3.73962 82.0289 4.31353 81.7106 4.80594C76.3117 13.1541 70.9231 21.5114 65.5451 29.8779C65.4924 29.9593 65.4476 30.0452 65.3625 30.1918H80.4468C81.3364 30.1918 81.8025 30.5354 81.9963 31.4232C82.1418 32.0498 82.1456 32.702 82.0075 33.3304C81.8126 34.1792 81.3062 34.5503 80.3818 34.5514C77.4859 34.5514 74.5896 34.5514 71.6929 34.5514C68.3906 34.5514 65.0883 34.5514 61.7861 34.5514C61.3807 34.555 60.9759 34.5228 60.576 34.4552C59.1665 34.2009 58.6802 33.5079 58.6713 32.0245C58.6645 31.0142 59.1777 30.272 59.6797 29.5045C62.5367 25.0754 65.3964 20.6481 68.2588 16.2228L75.4295 5.11751C75.4732 5.03503 75.5169 4.94683 75.5965 4.80594Z" fill="#FF9431"/>
<path d="M0.00564279 17.4378C0.00564279 12.6681 0.00564279 7.89795 0.00564279 3.12746C-0.00845898 2.65658 0.0755648 2.18803 0.252137 1.7529C0.636444 0.858286 1.34455 0.461954 2.2409 0.459663C7.29291 0.442481 12.3427 0.453936 17.3936 0.453936C17.6623 0.445074 17.927 0.522065 18.1509 0.674194C18.3748 0.826323 18.5468 1.04602 18.6428 1.30273C18.9786 2.08121 19.0244 2.9583 18.7717 3.76892C18.5577 4.48369 18.0188 4.81129 17.1314 4.81129C13.7865 4.81129 10.4424 4.81129 7.09907 4.81129C6.4974 4.81129 5.89573 4.82389 5.29518 4.81129C5.03412 4.80328 4.93105 4.88804 4.97026 5.15493C4.97475 5.21173 4.97475 5.26881 4.97026 5.32561C4.97026 13.4531 4.9669 21.5798 4.96018 29.7057C4.96018 30.1261 5.06662 30.2143 5.46549 30.2132C9.6346 30.1971 13.8037 30.2029 17.9728 30.2029C18.8277 30.2029 19.286 30.5591 19.5056 31.4159C19.6678 32.0382 19.6805 32.6913 19.5425 33.3197C19.3599 34.1479 18.8412 34.5534 17.974 34.5602C16.8412 34.5705 15.7084 34.5602 14.5746 34.5602C10.6426 34.5602 6.71103 34.5602 2.77982 34.5602C2.41678 34.5555 2.0549 34.5171 1.69861 34.4457C0.544569 34.2246 0.0650255 33.1502 0.0269309 32.2624C-0.0178862 31.251 0.00676322 30.2349 0.00676322 29.2212C0.00228151 25.2938 0.00190803 21.366 0.00564279 17.4378Z" fill="#FF9431"/>
<path d="M40.4038 6.19825V4.26699C40.4038 3.16734 40.4038 2.06769 40.4038 0.968042C40.4038 0.41249 40.7052 0.108942 41.2441 0.107796H44.4329C45.3214 0.110087 45.6015 0.393018 45.6082 1.31397C45.6082 2.67021 45.6082 4.02759 45.6082 5.38382C45.6082 7.45483 45.6216 9.52468 45.597 11.5957C45.5888 11.7767 45.6162 11.9576 45.6776 12.1276C45.739 12.2975 45.8331 12.4532 45.9544 12.5854C46.7533 13.4926 47.5577 14.3952 48.3577 15.3013C48.8417 15.8488 49.3235 16.3983 49.8031 16.9496C50.1235 17.3184 50.1941 17.7365 49.9823 18.181C49.6182 18.9516 49.1714 19.6785 48.6502 20.3482C48.314 20.7812 48.0328 20.7548 47.6619 20.3276C46.4664 18.953 45.2844 17.559 44.0878 16.181C43.3035 15.2784 42.5035 14.3941 41.7192 13.4926C40.7108 12.3368 39.7304 11.1638 38.7176 10.0172C38.2425 9.48001 37.7674 8.94393 37.3013 8.39984C36.34 7.27842 35.3518 6.18336 34.3882 5.06423C34.1641 4.79849 34.0218 4.82598 33.8112 5.0734C32.8103 6.25094 31.8019 7.42199 30.786 8.58655C30.2516 9.21312 29.6914 9.82365 29.1413 10.4502C28.0903 11.6575 27.0494 12.874 26.0041 14.0814C25.2567 14.9405 24.496 15.787 23.7498 16.6461C22.7089 17.8431 21.6658 19.0378 20.6417 20.2497C20.2148 20.7537 19.7308 20.7296 19.3554 20.1248C18.9947 19.5445 18.6413 18.9591 18.2955 18.3688C18.1588 18.1427 18.0997 17.8764 18.1278 17.612C18.1558 17.3477 18.2692 17.1005 18.4501 16.9095C19.7005 15.4846 20.9528 14.06 22.2069 12.6358C23.5873 11.0619 24.9647 9.48498 26.3391 7.90499C27.4853 6.59229 28.6359 5.28531 29.7732 3.96573C30.7737 2.80537 31.7496 1.62096 32.8185 0.529328C33.1652 0.189642 33.6268 0 34.107 0C34.5872 0 35.0488 0.189642 35.3955 0.529328C36.4442 1.60721 37.4022 2.76872 38.3825 3.91075C39.0313 4.66103 39.6957 5.39642 40.4038 6.19825Z" fill="#FF9431"/>
<path d="M91.632 17.5123V32.4194C91.632 33.9967 90.9071 34.7321 89.3497 34.7356C88.9015 34.7356 88.4534 34.7608 88.0186 34.6325C87.1223 34.3724 86.6461 33.7436 86.6047 32.7516C86.6047 32.6371 86.6047 32.5225 86.6047 32.408C86.6047 22.5272 86.6293 12.6464 86.5856 2.76556C86.5755 0.597188 87.7979 0.144729 89.4886 0.224911C89.6837 0.235567 89.8775 0.263545 90.0679 0.30853C90.9788 0.522733 91.6511 1.05538 91.641 2.43452C91.6186 7.45969 91.632 12.4814 91.632 17.5123Z" fill="#FF9431"/>
<path d="M12.1734 20.3356C10.4311 20.4501 8.71577 18.7857 8.71353 16.7755C8.71353 14.8052 10.4143 13.1306 12.2653 13.205C13.1857 13.2302 14.0606 13.6196 14.7057 14.2911C15.3509 14.9627 15.716 15.864 15.7241 16.8052C15.7442 18.7812 13.9504 20.4604 12.1734 20.3356Z" fill="#FF9431"/>
<path d="M48.6053 31.0147C48.5078 29.08 50.1874 27.6218 51.7044 27.521C53.8478 27.379 55.3402 29.1888 55.3492 30.9082C55.3604 32.9013 53.9251 34.4362 51.9991 34.4672C50.1033 34.4969 48.6266 32.9998 48.6053 31.0147Z" fill="#FF9431"/>
</svg>
