<svg width="80" height="32" viewBox="0 0 80 32" fill="none" xmlns="http://www.w3.org/2000/svg">
<path d="M16 1H64C72.2843 1 79 7.71573 79 16C79 24.2843 72.2843 31 64 31H16C7.71573 31 1 24.2843 1 16C1 7.71573 7.71573 1 16 1Z" stroke="#68DBEB" stroke-width="2"/>
<path d="M21.0659 14.904C24.9299 14.376 27.6419 12.72 28.9619 10.464C30.2819 12.72 32.9939 14.376 36.8579 14.904L37.9859 12.432C33.4979 11.88 31.1699 9.72 30.8579 7.608H37.1219V5.088H20.7299V7.608H27.0899C26.7779 9.72 24.4259 11.88 19.9139 12.432L21.0659 14.904ZM38.9459 16.176H18.9779V18.696H27.3059V26.112H30.4739V18.696H38.9459V16.176ZM50.968 13.584C48.952 13.896 47.2 14.016 44.824 14.04V12.168H50.248V9.768H44.824V7.944H50.464V5.448H41.776V16.584H43.312C46.6 16.584 48.736 16.512 51.256 16.104L50.968 13.584ZM44.656 20.928H56.704V26.088H59.872V18.408H44.656V20.928ZM56.872 3.96V9.384H55.096V4.344H52.144V17.304H55.096V11.904H56.872V17.448H59.872V3.96H56.872Z" fill="#68DBEB"/>
</svg>
