<svg width="80" height="32" viewBox="0 0 80 32" fill="none" xmlns="http://www.w3.org/2000/svg">
<path d="M1 16C1 7.71573 7.71573 1 16 1H64C72.2843 1 79 7.71573 79 16C79 24.2843 72.2843 31 64 31H16C7.71573 31 1 24.2843 1 16Z" stroke="#4E4EDE" stroke-width="2"/>
<path d="M31.3099 9.672V12.24H34.7659V20.088H37.9339V3.96H34.7659V9.672H31.3099ZM32.7739 14.76C29.2939 13.584 27.7819 10.872 27.7819 8.256V7.968H32.0779V5.448H20.1979V7.968H24.5419V8.28C24.5419 11.064 22.9579 13.968 19.3339 15.144L20.9419 17.664C23.5099 16.8 25.2379 15.048 26.2219 12.864C27.1819 14.856 28.8139 16.44 31.2379 17.232L32.7739 14.76ZM26.5339 23.16V18.744H23.3659V25.68H38.4379V23.16H26.5339ZM48.588 5.88H45.54V9.6C45.54 13.368 44.364 17.328 41.124 19.296L43.02 21.672C45.012 20.472 46.308 18.36 47.076 15.912C47.772 18.144 48.948 20.016 50.82 21.168L52.548 18.72C49.548 16.728 48.588 13.056 48.588 9.48V5.88ZM53.004 11.424H50.22V13.992H53.004V25.08H55.956V4.32H53.004V11.424ZM57.492 3.96V26.064H60.492V3.96H57.492Z" fill="#4E4EDE"/>
</svg>