<svg width="88" height="40" viewBox="0 0 88 40" fill="none" xmlns="http://www.w3.org/2000/svg">
<g filter="url(#filter0_d_595_571)">
<path d="M5 16C5 7.71573 11.7157 1 20 1H68C76.2843 1 83 7.71573 83 16C83 24.2843 76.2843 31 68 31H20C11.7157 31 5 24.2843 5 16Z" stroke="#5FE3C4" stroke-width="2"/>
<path d="M34.9739 14.184V16.104H38.8859V16.752H42.0539V3.96H38.8859V14.184H34.9739ZM30.4859 6.36C32.0699 6.36 33.0539 6.768 33.0539 7.608C33.0539 8.424 32.0699 8.832 30.4859 8.832C28.9019 8.832 27.8939 8.424 27.8939 7.608C27.8939 6.768 28.9019 6.36 30.4859 6.36ZM30.4859 10.872C33.7739 10.872 36.0059 9.6 36.0059 7.608C36.0059 5.568 33.7739 4.296 30.4859 4.296C27.1739 4.296 24.9659 5.568 24.9659 7.608C24.9659 9.6 27.1739 10.872 30.4859 10.872ZM28.8059 16.776H31.9739V13.728C33.9179 13.632 35.8619 13.464 37.7819 13.2L37.5899 11.256C32.9579 11.736 27.7019 11.736 23.4779 11.736L23.7899 13.896C25.3499 13.896 27.0539 13.896 28.8059 13.872V16.776ZM29.7659 23.736V22.608H42.0539V17.424H26.6219V19.56H38.9339V20.616H26.6459V25.896H42.5579V23.736H29.7659ZM52.588 5.88H49.54V9.6C49.54 13.368 48.364 17.328 45.124 19.296L47.02 21.672C49.012 20.472 50.308 18.36 51.076 15.912C51.772 18.144 52.948 20.016 54.82 21.168L56.548 18.72C53.548 16.728 52.588 13.056 52.588 9.48V5.88ZM57.004 11.424H54.22V13.992H57.004V25.08H59.956V4.32H57.004V11.424ZM61.492 3.96V26.064H64.492V3.96H61.492Z" fill="#5FE3C4"/>
</g>
<defs>
<filter id="filter0_d_595_571" x="0" y="0" width="88" height="40" filterUnits="userSpaceOnUse" color-interpolation-filters="sRGB">
<feFlood flood-opacity="0" result="BackgroundImageFix"/>
<feColorMatrix in="SourceAlpha" type="matrix" values="0 0 0 0 0 0 0 0 0 0 0 0 0 0 0 0 0 0 127 0" result="hardAlpha"/>
<feOffset dy="4"/>
<feGaussianBlur stdDeviation="2"/>
<feComposite in2="hardAlpha" operator="out"/>
<feColorMatrix type="matrix" values="0 0 0 0 0 0 0 0 0 0 0 0 0 0 0 0 0 0 0.25 0"/>
<feBlend mode="normal" in2="BackgroundImageFix" result="effect1_dropShadow_595_571"/>
<feBlend mode="normal" in="SourceGraphic" in2="effect1_dropShadow_595_571" result="shape"/>
</filter>
</defs>
</svg>