<svg width="80" height="32" viewBox="0 0 80 32" fill="none" xmlns="http://www.w3.org/2000/svg">
<path d="M1 16C1 7.71573 7.71573 1 16 1H64C72.2843 1 79 7.71573 79 16C79 24.2843 72.2843 31 64 31H16C7.71573 31 1 24.2843 1 16Z" stroke="#5FE3C4" stroke-width="2"/>
<path d="M30.9739 14.184V16.104H34.8859V16.752H38.0539V3.96H34.8859V14.184H30.9739ZM26.4859 6.36C28.0699 6.36 29.0539 6.768 29.0539 7.608C29.0539 8.424 28.0699 8.832 26.4859 8.832C24.9019 8.832 23.8939 8.424 23.8939 7.608C23.8939 6.768 24.9019 6.36 26.4859 6.36ZM26.4859 10.872C29.7739 10.872 32.0059 9.6 32.0059 7.608C32.0059 5.568 29.7739 4.296 26.4859 4.296C23.1739 4.296 20.9659 5.568 20.9659 7.608C20.9659 9.6 23.1739 10.872 26.4859 10.872ZM24.8059 16.776H27.9739V13.728C29.9179 13.632 31.8619 13.464 33.7819 13.2L33.5899 11.256C28.9579 11.736 23.7019 11.736 19.4779 11.736L19.7899 13.896C21.3499 13.896 23.0539 13.896 24.8059 13.872V16.776ZM25.7659 23.736V22.608H38.0539V17.424H22.6219V19.56H34.9339V20.616H22.6459V25.896H38.5579V23.736H25.7659ZM48.588 5.88H45.54V9.6C45.54 13.368 44.364 17.328 41.124 19.296L43.02 21.672C45.012 20.472 46.308 18.36 47.076 15.912C47.772 18.144 48.948 20.016 50.82 21.168L52.548 18.72C49.548 16.728 48.588 13.056 48.588 9.48V5.88ZM53.004 11.424H50.22V13.992H53.004V25.08H55.956V4.32H53.004V11.424ZM57.492 3.96V26.064H60.492V3.96H57.492Z" fill="#5FE3C4"/>
</svg>
