<svg width="123" height="32" viewBox="0 0 123 32" fill="none" xmlns="http://www.w3.org/2000/svg">
<path d="M1 16C1 7.71573 7.71573 1 16 1H107C115.284 1 122 7.71573 122 16C122 24.2843 115.284 31 107 31H16C7.71573 31 1 24.2843 1 16Z" stroke="#75C0EA" stroke-width="2"/>
<path d="M23.2478 11.184C23.2478 8.928 25.3358 7.608 28.3598 7.608C31.4078 7.608 33.4958 8.928 33.4958 11.184C33.4958 13.44 31.4078 14.76 28.3598 14.76C25.3358 14.76 23.2478 13.44 23.2478 11.184ZM29.9438 20.928V17.184C33.8558 16.728 36.6158 14.472 36.6158 11.184C36.6158 7.488 33.0878 5.088 28.3598 5.088C23.6558 5.088 20.1278 7.488 20.1278 11.184C20.1278 14.472 22.8878 16.704 26.7758 17.184V20.928H18.3758V23.496H38.3918V20.928H29.9438ZM45.9739 8.544H48.4459V18.288C47.6059 18.312 46.7899 18.36 45.9739 18.36V8.544ZM51.4939 8.544H53.3899V6H40.9819V8.544H42.9019V18.432C42.0379 18.432 41.1979 18.432 40.4059 18.432L40.7419 21.024C44.7019 21 49.7899 20.904 54.4459 20.112L54.2539 17.832C53.3419 17.952 52.4299 18.048 51.4939 18.096V8.544ZM55.6699 3.984V26.088H58.8619V3.984H55.6699ZM81.852 14.352C76.86 13.512 74.124 10.08 74.124 6.84V5.256H70.74V6.84C70.74 10.008 67.98 13.512 63.012 14.352L64.356 17.016C68.196 16.272 71.004 14.112 72.42 11.304C73.836 14.112 76.668 16.248 80.508 17.016L81.852 14.352ZM62.532 20.808V23.376H82.548V20.808H62.532ZM103.45 3.984H100.45V15.648H103.45V3.984ZM96.1061 15.528H99.0581V4.32H96.1061V8.616H93.9461V11.112H96.1061V15.528ZM94.5701 12.36C92.5301 12.672 90.7541 12.792 88.4741 12.816V11.304H93.0101V9H88.4741V7.632H93.7781V5.184H85.4741V15.264H86.9861C90.1061 15.264 92.2901 15.192 94.8341 14.76L94.5701 12.36ZM91.5941 23.52V22.248H103.45V16.464H88.4261V18.864H100.33V20.04H88.4741V25.896H104.146V23.52H91.5941Z" fill="#75C0EA"/>
</svg>
