<svg width="80" height="32" viewBox="0 0 80 32" fill="none" xmlns="http://www.w3.org/2000/svg">
<path d="M1 16C1 7.71573 7.71573 1 16 1H64C72.2843 1 79 7.71573 79 16C79 24.2843 72.2843 31 64 31H16C7.71573 31 1 24.2843 1 16Z" stroke="#FF9431" stroke-width="2"/>
<path d="M30.2339 16.8V18.96H34.3859V20.712H37.5539V3.96H34.3859V16.8H30.2339ZM25.9859 7.008C27.4499 7.008 28.4819 7.584 28.4819 8.664C28.4819 9.744 27.4499 10.296 25.9859 10.296C24.4979 10.296 23.4659 9.744 23.4659 8.664C23.4659 7.584 24.4979 7.008 25.9859 7.008ZM25.9859 12.6C29.2019 12.6 31.4819 11.016 31.4819 8.664C31.4819 6.312 29.2019 4.704 25.9859 4.704C22.7459 4.704 20.4899 6.312 20.4899 8.664C20.4899 11.016 22.7459 12.6 25.9859 12.6ZM24.8099 23.16V20.136H27.8579V15.96C29.6339 15.816 31.4099 15.624 33.1379 15.336L32.9219 13.08C28.2659 13.68 22.8899 13.728 18.8579 13.752L19.2659 16.272C20.9219 16.272 22.7699 16.248 24.7139 16.152V19.104H21.6419V25.68H38.0339V23.16H24.8099ZM55.48 8.016H43.528V13.896H59.032V11.52H46.648V10.248H58.6V4.368H43.48V6.768H55.48V8.016ZM55.624 23.328H46.672V21.456H55.624V23.328ZM61.048 17.52V15.024H41.032V17.52H49.456V18.96H43.552V25.8H58.72V18.96H52.624V17.52H61.048Z" fill="#FF9431"/>
</svg>
