<svg width="102" height="32" viewBox="0 0 102 32" fill="none" xmlns="http://www.w3.org/2000/svg">
<path d="M16 1H86C94.2843 1 101 7.71573 101 16C101 24.2843 94.2843 31 86 31H16C7.71573 31 1 24.2843 1 16C1 7.71573 7.71573 1 16 1Z" stroke="#5CEA83" stroke-width="2"/>
<path d="M39.0268 14.712C36.0268 13.416 34.8748 10.728 34.8748 8.04V5.544H31.6828V8.04C31.6828 10.224 30.9388 12.576 28.8988 14.112C26.8588 12.576 26.0908 10.2 26.0908 8.04V5.544H22.9468V8.04C22.9468 10.632 21.7708 13.392 18.7948 14.712L20.4268 17.04C22.4428 16.176 23.7388 14.616 24.5068 12.72C25.2748 14.76 26.6668 16.488 28.8988 17.376C31.1308 16.488 32.5228 14.76 33.2908 12.744C34.0588 14.64 35.3548 16.176 37.3948 17.04L39.0268 14.712ZM18.9148 23.352H38.9068V20.784H18.9148V23.352ZM45.4089 14.376H52.5849V5.832H42.1449V8.352H49.3449V11.88H42.1689V20.976H44.1609C48.1689 20.976 51.4089 20.832 55.0089 20.208L54.6729 17.64C51.5529 18.168 48.7689 18.336 45.4089 18.36V14.376ZM56.2089 3.936V26.112H59.3769V3.936H56.2089ZM77.5191 8.016H65.5671V13.896H81.0711V11.52H68.6871V10.248H80.6391V4.368H65.5191V6.768H77.5191V8.016ZM77.6631 23.328H68.7111V21.456H77.6631V23.328ZM83.0871 17.52V15.024H63.0711V17.52H71.4951V18.96H65.5911V25.8H80.7591V18.96H74.6631V17.52H83.0871Z" fill="#5CEA83"/>
</svg>
