<svg width="80" height="32" viewBox="0 0 80 32" fill="none" xmlns="http://www.w3.org/2000/svg">
<path d="M1 16C1 7.71573 7.71573 1 16 1H64C72.2843 1 79 7.71573 79 16C79 24.2843 72.2843 31 64 31H16C7.71573 31 1 24.2843 1 16Z" stroke="#ED63CF" stroke-width="2"/>
<path d="M23.0299 8.712H25.8619V18.072H23.0299V8.712ZM20.0779 20.544H28.7899V6.216H20.0779V20.544ZM35.4139 3.936V12.384H33.5659V4.296H30.6139V25.056H33.5659V14.928H35.4139V26.04H38.4139V3.936H35.4139ZM45.108 8.712H47.94V18.072H45.108V8.712ZM42.156 20.544H50.868V6.216H42.156V20.544ZM57.492 3.936V12.384H55.644V4.296H52.692V25.056H55.644V14.928H57.492V26.04H60.492V3.936H57.492Z" fill="#ED63CF"/>

</svg>

