<svg width="80" height="32" viewBox="0 0 80 32" fill="none" xmlns="http://www.w3.org/2000/svg">
<path d="M1 16C1 7.71573 7.71573 1 16 1H64C72.2843 1 79 7.71573 79 16C79 24.2843 72.2843 31 64 31H16C7.71573 31 1 24.2843 1 16Z" stroke="#D58FFF" stroke-width="2"/>
<path d="M36.8579 12.984H24.5699V11.328H36.1619V8.928H24.5699V7.32H36.6419V4.824H21.4259V15.48H36.8579V12.984ZM38.9459 17.064H18.9299V19.632H27.3299V26.088H30.4979V19.632H38.9459V17.064ZM55.48 8.016H43.528V13.896H59.032V11.52H46.648V10.248H58.6V4.368H43.48V6.768H55.48V8.016ZM55.624 23.328H46.672V21.456H55.624V23.328ZM61.048 17.52V15.024H41.032V17.52H49.456V18.96H43.552V25.8H58.72V18.96H52.624V17.52H61.048Z" fill="#D58FFF"/>
</svg>
