<svg width="80" height="32" viewBox="0 0 80 32" fill="none" xmlns="http://www.w3.org/2000/svg">
<path d="M1 16C1 7.71573 7.71573 1 16 1H64C72.2843 1 79 7.71573 79 16C79 24.2843 72.2843 31 64 31H16C7.71573 31 1 24.2843 1 16Z" stroke="#EA7587" stroke-width="2"/>
<path d="M37.2899 3.96H34.1219V15.312H37.2899V3.96ZM27.6899 12.168H23.2019V9.768H27.6899V12.168ZM30.8099 4.896H27.6899V7.392H23.2019V4.896H20.0579V14.64H30.8099V4.896ZM25.7459 23.52V22.152H37.3139V16.272H22.5779V18.648H34.1699V19.92H22.6019V25.896H37.8659V23.52H25.7459ZM45.064 14.376H52.072V5.832H41.92V8.352H48.952V11.88H41.944V21H43.816C47.656 21 50.704 20.856 54.016 20.256L53.728 17.688C50.848 18.192 48.232 18.36 45.064 18.384V14.376ZM61.552 12.288H58.384V3.936H55.216V26.112H58.384V14.904H61.552V12.288Z" fill="#EA7587"/>
</svg>
