<svg width="76" height="101" viewBox="0 0 76 101" fill="none" xmlns="http://www.w3.org/2000/svg">
<path d="M23.5418 91.585V92.62H26.1068V91.585H23.5418ZM28.3718 86.32V99.88H29.5718V86.32H28.3718ZM25.6868 86.605V99.205H26.8718V86.605H25.6868ZM21.0968 87.445C19.3418 87.445 18.2168 89.26 18.2168 92.17C18.2168 95.08 19.3418 96.895 21.0968 96.895C22.8518 96.895 23.9918 95.08 23.9918 92.17C23.9918 89.26 22.8518 87.445 21.0968 87.445ZM21.0968 88.6C22.1768 88.6 22.8518 89.98 22.8518 92.17C22.8518 94.36 22.1768 95.74 21.0968 95.74C20.0318 95.74 19.3568 94.36 19.3568 92.17C19.3568 89.98 20.0318 88.6 21.0968 88.6ZM35.4656 87.355C33.4856 87.355 32.0906 89.2 32.0906 92.08C32.0906 94.975 33.4856 96.82 35.4656 96.82C37.4306 96.82 38.8406 94.975 38.8406 92.08C38.8406 89.2 37.4306 87.355 35.4656 87.355ZM35.4656 88.48C36.7706 88.48 37.6556 89.89 37.6556 92.08C37.6556 94.285 36.7706 95.725 35.4656 95.725C34.1606 95.725 33.2756 94.285 33.2756 92.08C33.2756 89.89 34.1606 88.48 35.4656 88.48ZM41.7806 86.305V99.895H43.0106V86.305H41.7806ZM38.4356 91.48V92.5H42.3206V91.48H38.4356ZM52.5944 90.64V91.66H55.7744V90.64H52.5944ZM51.3494 87.4V87.85C51.3494 90.595 49.8644 92.755 45.9944 94.015L46.4894 95.02C50.8394 93.55 52.6244 90.94 52.6244 87.4H51.3494ZM46.6094 87.4V88.42H52.0844V87.4H46.6094ZM51.3344 89.98L45.9344 90.235L46.1444 91.255L51.3344 90.865V89.98ZM55.5494 86.32V96.4H56.7944V86.32H55.5494ZM48.2894 98.56V99.58H57.1994V98.56H48.2894ZM48.2894 95.395V99.145H49.5344V95.395H48.2894Z" fill="#7D7D7D"/>
<path d="M37.6247 60.7041C36.4577 60.1805 35.9482 59.2823 35.9752 58.0038C36.0127 56.2333 35.9846 54.4604 35.9846 52.5279C34.9702 53.5541 34.0708 54.5074 33.121 55.4208C32.1395 56.3601 30.7212 56.4106 29.7068 55.4361C28.9214 54.6812 28.8216 53.0128 29.7209 52.1393C31.7356 50.1798 33.7045 48.1733 35.6957 46.1892C35.7895 46.1099 35.8647 46.0109 35.9161 45.8993C35.9674 45.7878 35.9936 45.6663 35.9928 45.5434C35.9799 41.9907 35.9846 38.4392 35.9846 34.836C35.0934 35.3444 34.2235 35.8316 33.3699 36.3271C31.7388 37.2663 30.1095 38.2099 28.4823 39.1577C27.8953 39.4982 27.3012 39.8234 26.7212 40.1721C26.4617 40.3271 26.3302 40.5455 26.2516 40.8765C25.5788 43.5194 24.9038 46.1598 24.1383 48.7815C23.6135 50.5884 21.688 51.1813 20.238 50.0131C19.5641 49.4707 19.2013 48.5678 19.6674 47.0779C19.9974 46.0283 20.2392 44.9494 20.555 43.7506C19.6745 44.2508 18.9031 44.7016 18.1212 45.1325C17.1021 45.6937 16.1699 46.424 15.051 46.7903C13.9721 47.1425 12.9659 46.7339 12.4587 45.9684C11.739 44.8813 11.9163 43.7377 12.6665 42.9629C13.3064 42.3042 14.1376 41.9672 14.8972 41.5082C15.9539 40.8707 17.0258 40.2731 18.1529 39.6238C16.7511 39.2188 15.4455 38.829 14.1329 38.465C13.2066 38.2079 12.7358 37.5023 12.5937 36.6652C12.4481 35.8069 12.6818 35.0215 13.4696 34.4098C14.4088 33.6842 15.3481 33.932 16.3178 34.1879C18.7834 34.8442 21.256 35.5205 23.7215 36.1979C23.8122 36.2242 23.9075 36.2306 24.001 36.2166C24.0944 36.2026 24.1837 36.1686 24.2627 36.1169C26.2978 34.9217 28.3375 33.7269 30.3819 32.5325C31.2907 32.0034 32.2049 31.4841 33.1245 30.9745C33.2419 30.9076 33.3981 30.8759 33.3993 30.7268C33.4004 30.5777 33.2478 30.5472 33.1281 30.4779C30.1874 28.7747 27.2523 27.0625 24.3226 25.3414C23.9211 25.1065 23.5829 25.3014 23.2342 25.3942C20.5363 26.0998 17.8688 26.8911 15.1544 27.5192C14.0108 27.7811 12.7029 26.8911 12.5562 25.3648C12.4458 24.2107 13.1268 23.2868 14.282 22.8993C15.5113 22.4907 16.7851 22.2148 18.113 21.8603C17.5917 21.42 16.9835 21.1887 16.4505 20.8424C15.2765 20.0816 13.985 19.5392 12.8673 18.6844C12.1628 18.1467 11.7954 17.1899 12.1182 16.159C12.4223 15.1881 13.1127 14.6468 14.1634 14.5506C15.1731 14.459 15.9245 15.0484 16.7194 15.4992C17.9639 16.2036 19.1966 16.9222 20.5609 17.7064C20.2369 16.4972 19.968 15.4147 19.6534 14.3463C19.3904 13.4505 19.3458 12.6004 19.9269 11.8021C20.1576 11.4885 20.4635 11.2381 20.8164 11.074C21.1693 10.9098 21.5579 10.8372 21.9463 10.8628C23.6323 11.0225 24.0385 12.2717 24.3872 13.5925C25.02 15.9935 25.6305 18.4062 26.2868 20.7954C26.4347 21.3343 27.0382 21.4423 27.4609 21.6912C30.2035 23.3067 32.9613 24.8964 35.7169 26.4919C35.803 26.528 35.8933 26.5532 35.9857 26.5671C35.9857 22.9991 35.9857 19.4464 35.9939 15.8937C35.994 15.7707 35.967 15.6492 35.9149 15.5378C35.8627 15.4264 35.7867 15.3279 35.6922 15.2491C33.7292 13.2931 31.7896 11.3125 29.8019 9.37882C28.8533 8.45718 28.8721 6.85459 29.7162 5.98813C30.5228 5.15924 32.1325 4.99605 33.1421 6.02335C34.052 6.95556 34.9749 7.87133 35.9846 8.88806C35.9846 6.86633 35.9846 4.96553 35.9846 3.06472C35.9815 2.81713 36.0212 2.57088 36.102 2.3368C36.5364 1.0923 37.4686 0.560446 38.8446 0.745948C39.8249 0.877443 40.6526 1.82608 40.6655 3.04946C40.6831 4.76711 40.6655 6.48476 40.6655 8.20241V8.87163C41.6635 7.87368 42.5804 6.95556 43.4997 6.03862C44.8241 4.71662 47.0982 5.27313 47.4915 7.01661C47.6899 7.90303 47.5631 8.6603 46.9045 9.31425C44.9274 11.2843 42.9526 13.2567 40.9802 15.2315C40.7806 15.4299 40.6561 15.6154 40.6573 15.9266C40.6714 19.4593 40.6667 22.9921 40.6667 26.5953C41.2537 26.27 41.8255 25.973 42.3785 25.656C44.0738 24.6745 45.7633 23.6824 47.4575 22.7009C48.2558 22.2383 49.0695 21.8039 49.8584 21.3272C49.9959 21.2521 50.1158 21.1487 50.2103 21.0239C50.3048 20.899 50.3718 20.7555 50.4067 20.6028C51.0818 17.9401 51.7604 15.2785 52.5282 12.6415C53.0448 10.8652 54.955 10.2723 56.3909 11.4135C57.2726 12.1179 57.336 13.1429 57.0601 14.1796C56.7607 15.302 56.4355 16.4103 56.1009 17.6102C56.6809 17.4798 57.0836 17.1312 57.5239 16.8881C58.6627 16.26 59.7546 15.5567 60.8923 14.9216C62.3951 14.0798 64.2888 14.5693 64.6751 16.6956C64.8125 17.4552 64.1409 18.5635 63.3038 19.0437C61.7247 19.9501 60.1538 20.8682 58.4725 21.8438C59.69 22.1667 60.7948 22.4966 61.9172 22.7479C63.4811 23.1001 64.1021 24.2319 64.101 25.2134C64.101 25.551 64.0263 25.8844 63.8823 26.1897C63.7382 26.495 63.5283 26.7646 63.2677 26.9792C63.0071 27.1938 62.7022 27.348 62.3749 27.4309C62.0477 27.5137 61.7061 27.523 61.3748 27.4582C59.1441 27.0426 57.0108 26.2841 54.8059 25.7922C54.1649 25.649 53.5462 25.4165 52.9122 25.2427C52.3874 25.0983 52.0692 25.5445 51.6947 25.7535C49.7211 26.8536 47.778 28.0065 45.8244 29.1394C45.0424 29.5915 44.2605 30.0435 43.4762 30.4884C43.1686 30.661 43.1839 30.789 43.4833 30.9581C45.5739 32.1595 47.6618 33.3649 49.7469 34.5742C50.5934 35.0649 51.4458 35.5463 52.2723 36.0711C52.6797 36.3306 53.046 36.158 53.4135 36.0605C56.1044 35.3491 58.7766 34.5601 61.4852 33.9261C62.6451 33.6549 63.9847 34.573 64.0998 36.1192C64.1984 37.4318 63.2897 38.3053 61.9654 38.6834C61.4053 38.8431 60.8488 39.0356 60.2759 39.1295C59.7029 39.2235 59.1875 39.5311 58.57 39.6438C59.3531 40.1052 60.1373 40.5631 60.9181 41.028C61.889 41.6068 62.9281 42.0706 63.8227 42.7785C64.4626 43.2857 64.8218 44.2003 64.5553 45.2675C64.3405 46.1246 63.4212 46.8161 62.5688 46.896C61.5321 46.9934 60.7655 46.4122 59.9483 45.9567C58.7038 45.2523 57.4734 44.529 56.0997 43.7342C56.3533 44.6887 56.5917 45.4953 56.7819 46.323C56.9333 46.984 57.2198 47.6145 57.1963 48.3189C57.1623 49.3474 56.4085 50.3148 55.4939 50.5168C54.1942 50.8044 53.2879 50.282 52.8065 49.3427C52.2113 48.1804 52.0328 46.8772 51.6876 45.6268C51.2321 43.9761 50.8317 42.3112 50.3797 40.6605C50.2341 40.1287 49.6647 40.0054 49.2655 39.7706C46.4912 38.1363 43.6934 36.5443 40.9015 34.9405C40.8255 34.9082 40.747 34.8823 40.6667 34.863C40.6667 38.4721 40.6667 42.0588 40.6585 45.6468C40.6585 45.9321 40.8358 46.0565 40.9943 46.215C42.9514 48.1769 44.898 50.1505 46.8763 52.0924C47.7886 52.987 47.7792 54.5097 46.9879 55.3938C46.1965 56.2779 44.5622 56.4505 43.5678 55.4654C42.6286 54.5344 41.6987 53.5869 40.6667 52.5502V53.675C40.6667 55.2013 40.6597 56.7205 40.6667 58.2433C40.6726 59.3445 40.2053 60.1358 39.1874 60.582C39.1169 60.6125 39.0371 60.6125 39.0242 60.71L37.6247 60.7041Z" fill="#D2D2D2"/>
</svg>
