<svg width="65" height="75" viewBox="0 0 65 75" fill="none" xmlns="http://www.w3.org/2000/svg">
<path d="M31.6096 74.0064C30.17 73.3605 29.5415 72.2525 29.5748 70.6754C29.6212 68.4914 29.5864 66.3045 29.5864 63.9206C28.3351 65.1864 27.2257 66.3624 26.054 67.4891C24.8433 68.6478 23.0938 68.71 21.8425 67.508C20.8736 66.5767 20.7505 64.5187 21.8598 63.4412C24.3451 61.024 26.7738 58.5489 29.2301 56.1014C29.3458 56.0035 29.4386 55.8815 29.5019 55.7438C29.5652 55.6062 29.5975 55.4563 29.5965 55.3048C29.5806 50.9223 29.5864 46.5413 29.5864 42.0965C28.4872 42.7236 27.414 43.3247 26.3611 43.9358C24.3489 45.0945 22.3392 46.2584 20.3319 47.4276C19.6078 47.8476 18.8749 48.2488 18.1595 48.6789C17.8394 48.8701 17.6772 49.1395 17.5802 49.5479C16.7503 52.808 15.9176 56.0651 14.9733 59.2991C14.3259 61.528 11.9507 62.2594 10.1621 60.8184C9.33081 60.1493 8.88329 59.0356 9.45826 57.1977C9.86522 55.9029 10.1636 54.572 10.5532 53.0933C9.46695 53.7103 8.51543 54.2664 7.55088 54.7979C6.29378 55.4902 5.14385 56.391 3.76364 56.8429C2.43267 57.2774 1.1915 56.7734 0.565846 55.8291C-0.321947 54.488 -0.103257 53.0774 0.822191 52.1215C1.6115 51.309 2.63688 50.8934 3.57391 50.3271C4.87736 49.5407 6.19964 48.8035 7.58998 48.0026C5.86074 47.5029 4.25026 47.0221 2.63109 46.5731C1.4884 46.256 0.907639 45.3856 0.732398 44.3529C0.552811 43.2943 0.841018 42.3254 1.81281 41.5708C2.97143 40.6758 4.13005 40.9814 5.32633 41.2971C8.36771 42.1067 11.4178 42.9409 14.4592 43.7765C14.5711 43.809 14.6887 43.8169 14.8039 43.7996C14.9192 43.7824 15.0293 43.7404 15.1268 43.6766C17.6372 42.2022 20.1533 40.7284 22.6752 39.255C23.7962 38.6023 24.9239 37.9617 26.0584 37.3331C26.2032 37.2506 26.3958 37.2115 26.3973 37.0276C26.3987 36.8436 26.2105 36.806 26.0627 36.7205C22.4353 34.6196 18.8146 32.5075 15.2007 30.3843C14.7054 30.0947 14.2883 30.3351 13.8581 30.4495C10.53 31.3199 7.2395 32.296 3.89109 33.0709C2.48047 33.3938 0.867087 32.296 0.686053 30.4133C0.549915 28.9896 1.38991 27.8498 2.81502 27.3719C4.33136 26.8679 5.90274 26.5276 7.54074 26.0902C6.89771 25.5471 6.1475 25.2618 5.48998 24.8345C4.04171 23.896 2.4486 23.2269 1.06985 22.1726C0.20088 21.5093 -0.25243 20.3289 0.145846 19.0574C0.520949 17.8596 1.37254 17.192 2.66874 17.0732C3.91426 16.9603 4.84116 17.6873 5.82164 18.2434C7.35681 19.1124 8.8775 19.9987 10.5604 20.9662C10.1607 19.4745 9.82902 18.1392 9.44088 16.8212C9.11646 15.7162 9.06143 14.6676 9.77833 13.6828C10.0628 13.296 10.4402 12.9872 10.8755 12.7847C11.3109 12.5822 11.7903 12.4926 12.2694 12.5242C14.3491 12.7212 14.8502 14.2621 15.2803 15.8914C16.0609 18.8532 16.814 21.8294 17.6236 24.7766C17.8061 25.4414 18.5505 25.5746 19.0719 25.8816C22.4551 27.8745 25.8571 29.8354 29.2562 31.8036C29.3625 31.8481 29.4739 31.8792 29.5878 31.8963C29.5878 27.495 29.5878 23.1125 29.598 18.73C29.5981 18.5783 29.5648 18.4284 29.5004 18.291C29.4361 18.1536 29.3423 18.0321 29.2258 17.9349C26.8043 15.5221 24.4117 13.0789 21.9598 10.6936C20.7896 9.55667 20.8127 7.57977 21.854 6.51094C22.849 5.48846 24.8346 5.28715 26.0801 6.55439C27.2025 7.70432 28.3409 8.83398 29.5864 10.0882C29.5864 7.59425 29.5864 5.2495 29.5864 2.90474C29.5827 2.59932 29.6316 2.29556 29.7312 2.00681C30.2671 0.471634 31.417 -0.184435 33.1144 0.0443924C34.3237 0.206599 35.3447 1.37681 35.3607 2.88591C35.3824 5.00474 35.3607 7.12356 35.3607 9.24239V10.0679C36.5917 8.83687 37.7228 7.70432 38.8568 6.57322C40.4905 4.94246 43.2958 5.62894 43.7809 7.77963C44.0257 8.87308 43.8693 9.80722 43.0568 10.6139C40.6179 13.0441 38.1819 15.4772 35.7488 17.9132C35.5026 18.158 35.3491 18.3868 35.3505 18.7706C35.3679 23.1285 35.3621 27.4863 35.3621 31.9311C36.0863 31.5299 36.7916 31.1635 37.4737 30.7725C39.565 29.5617 41.6491 28.3379 43.7389 27.1271C44.7238 26.5565 45.7274 26.0207 46.7007 25.4327C46.8702 25.34 47.0181 25.2125 47.1347 25.0584C47.2513 24.9044 47.3339 24.7274 47.377 24.5391C48.2098 21.2544 49.0469 17.9711 49.994 14.7183C50.6313 12.5271 52.9876 11.7957 54.7589 13.2034C55.8465 14.0724 55.9247 15.3367 55.5844 16.6156C55.2151 18.0001 54.8139 19.3673 54.4011 20.8474C55.1166 20.6867 55.6134 20.2565 56.1565 19.9567C57.5613 19.1819 58.9082 18.3144 60.3116 17.5309C62.1654 16.4925 64.5014 17.0964 64.9779 19.7192C65.1474 20.6563 64.3189 22.0234 63.2863 22.6158C61.3384 23.7338 59.4006 24.8664 57.3267 26.0699C58.8285 26.4682 60.1913 26.8752 61.5759 27.1851C63.505 27.6196 64.2711 29.0157 64.2697 30.2265C64.2697 30.6429 64.1776 31.0542 63.9999 31.4308C63.8222 31.8074 63.5633 32.14 63.2418 32.4047C62.9203 32.6694 62.5442 32.8597 62.1405 32.9618C61.7368 33.064 61.3155 33.0755 60.9068 32.9956C58.1551 32.4829 55.5236 31.5473 52.8037 30.9405C52.0129 30.7638 51.2497 30.477 50.4676 30.2627C49.8203 30.0845 49.4278 30.6349 48.9658 30.8927C46.5312 32.2497 44.1343 33.6719 41.7244 35.0695C40.7598 35.6271 39.7953 36.1847 38.8278 36.7336C38.4484 36.9465 38.4672 37.1043 38.8365 37.3129C41.4154 38.7949 43.9909 40.2818 46.5631 41.7736C47.6073 42.3789 48.6587 42.9727 49.6783 43.6201C50.1809 43.9402 50.6327 43.7273 51.086 43.6071C54.4055 42.7294 57.7018 41.7562 61.0429 40.9741C62.4738 40.6396 64.1263 41.7721 64.2682 43.6795C64.3899 45.2987 63.2689 46.3762 61.6353 46.8425C60.9445 47.0395 60.258 47.277 59.5512 47.3929C58.8445 47.5087 58.2087 47.8882 57.4469 48.0272C58.4129 48.5964 59.3803 49.1612 60.3434 49.7347C61.5411 50.4487 62.8229 51.0208 63.9265 51.8941C64.7158 52.5198 65.1589 53.648 64.8302 54.9645C64.5651 56.0217 63.4311 56.8747 62.3797 56.9732C61.1009 57.0934 60.1551 56.3765 59.1471 55.8146C57.612 54.9456 56.0942 54.0535 54.3997 53.073C54.7125 54.2505 55.0065 55.2454 55.2411 56.2665C55.428 57.0818 55.7814 57.8596 55.7524 58.7285C55.7104 59.9972 54.7806 61.1906 53.6524 61.4397C52.0491 61.7945 50.9311 61.15 50.3373 59.9914C49.603 58.5576 49.3829 56.95 48.9571 55.4076C48.3951 53.3714 47.9013 51.3177 47.3437 49.2814C47.1641 48.6254 46.4617 48.4733 45.9693 48.1836C42.547 46.1676 39.0958 44.2038 35.6518 42.2254C35.558 42.1856 35.4611 42.1536 35.3621 42.1298C35.3621 46.5818 35.3621 51.0063 35.352 55.4323C35.352 55.7842 35.5707 55.9377 35.7662 56.1332C38.1805 58.5533 40.5817 60.9878 43.022 63.3833C44.1474 64.4869 44.1358 66.3653 43.1596 67.4558C42.1835 68.5464 40.1675 68.7593 38.9408 67.5442C37.7822 66.3957 36.6351 65.2269 35.3621 63.9481V65.3356C35.3621 67.2183 35.3534 69.0924 35.3621 70.9708C35.3694 72.3293 34.7929 73.3054 33.5373 73.8558C33.4504 73.8934 33.3519 73.8934 33.336 74.0136L31.6096 74.0064Z" fill="#D2D2D2"/>
</svg>
