<svg width="76" height="85" viewBox="0 0 76 85" fill="none" xmlns="http://www.w3.org/2000/svg">
<path d="M68 20.6225C67.709 20.9863 67.7199 21.4482 67.5162 21.8411C66.4722 23.8563 64.8099 24.842 62.5546 24.842H42.9884C42.3883 24.842 41.5807 24.6347 41.2352 24.9366C40.8896 25.2385 41.1042 26.1115 41.1042 26.7263C41.1042 30.7324 41.1042 34.7337 41.1042 38.7301C41.1042 39.2102 40.9914 39.3921 40.4967 39.3412C40.002 39.2903 39.4055 39.483 39.14 39.2466C38.8744 39.0102 39.0345 38.3336 39.0345 37.8571C39.0345 33.6958 39.0345 29.5357 39.0345 25.3768C39.0345 24.9548 38.9544 24.7729 38.4997 24.8311C38.0451 24.8893 37.343 24.6238 37.0447 24.933C36.7465 25.2422 36.9574 25.8969 36.9574 26.388C36.9574 30.5105 36.9574 34.633 36.9574 38.7555C36.9574 39.1993 36.8738 39.403 36.39 39.3375C35.9062 39.2721 35.2987 39.5412 34.9859 39.2357C34.6731 38.9301 34.9204 38.3154 34.9204 37.8316C34.9204 33.7091 34.9204 29.5866 34.9204 25.4641C34.9204 24.9657 34.8222 24.8202 34.2948 24.8239C27.3653 24.8457 20.4322 24.8239 13.4991 24.8239C11.2766 24.8239 9.59605 23.8963 8.55572 21.9138C8.17745 21.1632 7.98768 20.3317 8.00282 19.4913C8.00282 14.7892 8.00282 10.0834 8.00282 5.37407C7.96366 4.19219 8.33294 3.03292 9.04849 2.09145C9.76403 1.14999 10.7821 0.483832 11.9313 0.205157C12.4988 0.0574599 13.0839 -0.0110892 13.6701 0.00145656C29.8958 0.00145656 46.1216 0.00145656 62.3473 0.00145656C65.2355 0.00145656 67.3998 1.722 67.8945 4.22097C67.8945 4.26099 67.9636 4.29736 68 4.33374V20.6225ZM37.9905 22.7687H62.471C64.6753 22.7687 65.9157 21.5283 65.9193 19.3312C65.9193 14.7237 65.9193 10.1162 65.9193 5.50865C65.9193 3.34797 64.6608 2.1003 62.5001 2.1003H13.4773C11.3566 2.1003 10.0944 3.35888 10.0908 5.48319C10.0908 10.1101 10.0908 14.737 10.0908 19.364C10.0802 19.7133 10.1119 20.0626 10.1853 20.4043C10.5818 21.9502 11.764 22.7687 13.5682 22.7687H37.9905Z" fill="#D2D2D2"/>
<path d="M30.7554 33.9652C30.7554 32.1465 30.7554 30.295 30.7554 28.4616C30.7554 28.047 30.8645 27.9124 31.2719 27.9488C31.7775 27.9924 32.4323 27.796 32.7269 28.047C33.0215 28.298 32.8288 28.9964 32.8288 29.502C32.8288 32.686 32.8288 35.8676 32.8288 39.0468C32.8288 40.7965 32.2395 42.2951 30.8172 43.3864C30.0929 43.987 29.2107 44.3659 28.2764 44.4775C27.3421 44.5891 26.3955 44.4288 25.5501 44.0157C23.6113 43.139 22.5964 41.5494 22.5128 39.4033C22.493 39.1356 22.5804 38.871 22.7557 38.6677C22.931 38.4644 23.1799 38.3391 23.4476 38.3193C23.7153 38.2995 23.9799 38.3869 24.1832 38.5622C24.3865 38.7376 24.5118 38.9864 24.5316 39.2542C24.6298 40.269 24.9463 41.1602 25.7974 41.8004C26.2326 42.1548 26.7601 42.3773 27.3176 42.4417C27.875 42.5062 28.4393 42.4099 28.9439 42.1642C29.4655 41.9543 29.9132 41.5945 30.2304 41.1303C30.5476 40.6661 30.7202 40.1183 30.7263 39.5561C30.7772 37.7046 30.7263 35.8494 30.7263 33.9943L30.7554 33.9652Z" fill="#D2D2D2"/>
<path d="M45.2617 34.0082C45.2617 35.8269 45.2363 37.6457 45.2617 39.4645C45.2753 40.113 45.4979 40.7399 45.8964 41.2517C46.2948 41.7636 46.8479 42.1331 47.4734 42.3054C48.0859 42.483 48.7384 42.4668 49.3415 42.2591C49.9445 42.0513 50.4685 41.6622 50.8417 41.145C51.1922 40.6271 51.4004 40.0263 51.4455 39.4026C51.5292 38.6751 51.9584 38.275 52.5586 38.3114C53.1588 38.3477 53.4971 38.8279 53.4789 39.5663C53.4253 40.8173 52.9181 42.006 52.0522 42.9104C51.1862 43.8148 50.0206 44.373 48.7731 44.4809C47.5256 44.5887 46.2815 44.2387 45.2732 43.4963C44.2649 42.7539 43.5613 41.6698 43.2939 40.4466C43.1903 39.9688 43.1451 39.4802 43.1593 38.9916C43.1593 35.4996 43.1593 32.0039 43.1593 28.5119C43.1593 28.0427 43.2866 27.8972 43.7376 27.9444C44.1887 27.9917 44.8289 27.748 45.1563 28.039C45.4836 28.33 45.2472 28.9557 45.2508 29.4358C45.2508 30.9599 45.2508 32.4804 45.2508 34.0045L45.2617 34.0082Z" fill="#D2D2D2"/>
<path d="M38.0124 16.5665C30.2839 16.5665 22.5542 16.5665 14.8233 16.5665C14.2922 16.5665 14.1467 16.4247 14.2085 15.9263C14.2704 15.428 14.0157 14.8351 14.3067 14.5841C14.5977 14.3331 15.1943 14.4968 15.6563 14.4968C30.8199 14.4968 45.9859 14.4968 61.1543 14.4968C61.6999 14.4968 61.8563 14.6459 61.8018 15.1661C61.7509 15.6062 61.9364 16.1991 61.7108 16.4647C61.4853 16.7302 60.8378 16.5629 60.3795 16.5629C52.9226 16.5702 45.4669 16.5714 38.0124 16.5665Z" fill="#D2D2D2"/>
<path d="M37.4668 17.596C43.6506 17.596 49.8343 17.596 56.0181 17.596C56.5019 17.596 56.6838 17.7015 56.622 18.1962C56.5601 18.6909 56.822 19.3093 56.5274 19.604C56.2327 19.8986 55.5998 19.6876 55.1197 19.6876C43.094 19.6876 31.0684 19.6876 19.0428 19.6876C18.4862 19.6876 18.2753 19.6076 18.3153 18.9601C18.3735 17.5742 18.3335 17.5742 19.723 17.5742L37.4668 17.596Z" fill="#D2D2D2"/>
<path d="M23.5418 75.3848V76.4198H26.1068V75.3848H23.5418ZM28.3718 70.1198V83.6798H29.5718V70.1198H28.3718ZM25.6868 70.4048V83.0048H26.8718V70.4048H25.6868ZM21.0968 71.2448C19.3418 71.2448 18.2168 73.0598 18.2168 75.9698C18.2168 78.8798 19.3418 80.6948 21.0968 80.6948C22.8518 80.6948 23.9918 78.8798 23.9918 75.9698C23.9918 73.0598 22.8518 71.2448 21.0968 71.2448ZM21.0968 72.3998C22.1768 72.3998 22.8518 73.7798 22.8518 75.9698C22.8518 78.1598 22.1768 79.5398 21.0968 79.5398C20.0318 79.5398 19.3568 78.1598 19.3568 75.9698C19.3568 73.7798 20.0318 72.3998 21.0968 72.3998ZM35.4656 71.1548C33.4856 71.1548 32.0906 72.9998 32.0906 75.8798C32.0906 78.7748 33.4856 80.6198 35.4656 80.6198C37.4306 80.6198 38.8406 78.7748 38.8406 75.8798C38.8406 72.9998 37.4306 71.1548 35.4656 71.1548ZM35.4656 72.2798C36.7706 72.2798 37.6556 73.6898 37.6556 75.8798C37.6556 78.0848 36.7706 79.5248 35.4656 79.5248C34.1606 79.5248 33.2756 78.0848 33.2756 75.8798C33.2756 73.6898 34.1606 72.2798 35.4656 72.2798ZM41.7806 70.1048V83.6948H43.0106V70.1048H41.7806ZM38.4356 75.2798V76.2998H42.3206V75.2798H38.4356ZM52.5944 74.4398V75.4598H55.7744V74.4398H52.5944ZM51.3494 71.1998V71.6498C51.3494 74.3948 49.8644 76.5548 45.9944 77.8148L46.4894 78.8198C50.8394 77.3498 52.6244 74.7398 52.6244 71.1998H51.3494ZM46.6094 71.1998V72.2198H52.0844V71.1998H46.6094ZM51.3344 73.7798L45.9344 74.0348L46.1444 75.0548L51.3344 74.6648V73.7798ZM55.5494 70.1198V80.1998H56.7944V70.1198H55.5494ZM48.2894 82.3598V83.3798H57.1994V82.3598H48.2894ZM48.2894 79.1948V82.9448H49.5344V79.1948H48.2894Z" fill="#7D7D7D"/>
</svg>
