<svg width="60" height="45" viewBox="0 0 60 45" fill="none" xmlns="http://www.w3.org/2000/svg">
<path d="M60 20.6225C59.709 20.9863 59.7199 21.4482 59.5162 21.8411C58.4722 23.8563 56.8099 24.842 54.5546 24.842H34.9884C34.3883 24.842 33.5807 24.6347 33.2352 24.9366C32.8896 25.2385 33.1042 26.1115 33.1042 26.7263C33.1042 30.7324 33.1042 34.7337 33.1042 38.7301C33.1042 39.2102 32.9914 39.3921 32.4967 39.3412C32.002 39.2903 31.4055 39.483 31.1399 39.2466C30.8744 39.0102 31.0345 38.3336 31.0345 37.8571C31.0345 33.6958 31.0345 29.5357 31.0345 25.3768C31.0345 24.9548 30.9544 24.7729 30.4997 24.8311C30.0451 24.8893 29.343 24.6238 29.0447 24.933C28.7465 25.2422 28.9574 25.8969 28.9574 26.388C28.9574 30.5105 28.9574 34.633 28.9574 38.7555C28.9574 39.1993 28.8738 39.403 28.39 39.3375C27.9062 39.2721 27.2987 39.5412 26.9859 39.2357C26.6731 38.9301 26.9204 38.3154 26.9204 37.8316C26.9204 33.7091 26.9204 29.5866 26.9204 25.4641C26.9204 24.9657 26.8222 24.8202 26.2948 24.8239C19.3653 24.8457 12.4322 24.8239 5.49911 24.8239C3.27659 24.8239 1.59605 23.8963 0.555725 21.9138C0.177452 21.1632 -0.0123167 20.3317 0.0028227 19.4913C0.0028227 14.7892 0.0028227 10.0834 0.0028227 5.37407C-0.0363367 4.19219 0.332945 3.03292 1.04849 2.09145C1.76403 1.14999 2.78212 0.483832 3.93134 0.205157C4.49876 0.0574599 5.08388 -0.0110892 5.67007 0.00145656C21.8958 0.00145656 38.1216 0.00145656 54.3473 0.00145656C57.2355 0.00145656 59.3998 1.722 59.8945 4.22097C59.8945 4.26099 59.9636 4.29736 60 4.33374V20.6225ZM29.9905 22.7687H54.471C56.6753 22.7687 57.9157 21.5283 57.9193 19.3312C57.9193 14.7237 57.9193 10.1162 57.9193 5.50866C57.9193 3.34797 56.6608 2.1003 54.5001 2.1003H5.47728C3.35661 2.1003 2.09439 3.35888 2.09076 5.48319C2.09076 10.1101 2.09076 14.737 2.09076 19.364C2.08017 19.7133 2.11193 20.0626 2.18533 20.4043C2.58182 21.9502 3.76401 22.7687 5.56822 22.7687H29.9905Z" fill="#D2D2D2"/>
<path d="M22.7554 33.9652C22.7554 32.1465 22.7554 30.295 22.7554 28.4616C22.7554 28.047 22.8645 27.9124 23.2719 27.9488C23.7775 27.9924 24.4323 27.796 24.7269 28.047C25.0215 28.298 24.8288 28.9964 24.8288 29.502C24.8288 32.686 24.8288 35.8676 24.8288 39.0468C24.8288 40.7965 24.2395 42.2951 22.8172 43.3864C22.0929 43.987 21.2107 44.3659 20.2764 44.4775C19.3421 44.5891 18.3955 44.4288 17.5501 44.0157C15.6113 43.139 14.5964 41.5494 14.5128 39.4033C14.493 39.1356 14.5804 38.871 14.7557 38.6677C14.931 38.4644 15.1799 38.3391 15.4476 38.3193C15.7153 38.2995 15.9799 38.3869 16.1832 38.5622C16.3865 38.7376 16.5118 38.9864 16.5316 39.2542C16.6298 40.269 16.9463 41.1602 17.7974 41.8004C18.2326 42.1548 18.7601 42.3773 19.3176 42.4417C19.875 42.5062 20.4393 42.4099 20.9439 42.1642C21.4655 41.9543 21.9132 41.5945 22.2304 41.1303C22.5476 40.6661 22.7202 40.1183 22.7263 39.5561C22.7772 37.7046 22.7263 35.8494 22.7263 33.9943L22.7554 33.9652Z" fill="#D2D2D2"/>
<path d="M37.2617 34.0082C37.2617 35.8269 37.2363 37.6457 37.2617 39.4645C37.2753 40.113 37.4979 40.7399 37.8964 41.2517C38.2948 41.7636 38.8479 42.1331 39.4734 42.3054C40.0859 42.483 40.7384 42.4668 41.3415 42.2591C41.9445 42.0513 42.4685 41.6622 42.8417 41.145C43.1922 40.6271 43.4004 40.0263 43.4455 39.4026C43.5292 38.6751 43.9584 38.275 44.5586 38.3114C45.1588 38.3477 45.4971 38.8279 45.4789 39.5663C45.4253 40.8173 44.9181 42.006 44.0522 42.9104C43.1862 43.8148 42.0206 44.373 40.7731 44.4809C39.5256 44.5887 38.2815 44.2387 37.2732 43.4963C36.2649 42.7539 35.5613 41.6698 35.2939 40.4466C35.1903 39.9688 35.1451 39.4802 35.1593 38.9916C35.1593 35.4996 35.1593 32.0039 35.1593 28.5119C35.1593 28.0427 35.2866 27.8972 35.7376 27.9444C36.1887 27.9917 36.8289 27.748 37.1563 28.039C37.4836 28.33 37.2472 28.9557 37.2508 29.4358C37.2508 30.9599 37.2508 32.4804 37.2508 34.0045L37.2617 34.0082Z" fill="#D2D2D2"/>
<path d="M30.0124 16.5665C22.2839 16.5665 14.5542 16.5665 6.82327 16.5665C6.2922 16.5665 6.14669 16.4247 6.20853 15.9263C6.27037 15.428 6.01574 14.8351 6.30675 14.5841C6.59775 14.3331 7.1943 14.4968 7.65626 14.4968C22.8199 14.4968 37.9859 14.4968 53.1543 14.4968C53.6999 14.4968 53.8563 14.6459 53.8018 15.1661C53.7509 15.6062 53.9364 16.1991 53.7108 16.4647C53.4853 16.7302 52.8378 16.5629 52.3795 16.5629C44.9226 16.5702 37.4669 16.5714 30.0124 16.5665Z" fill="#D2D2D2"/>
<path d="M29.4668 17.596C35.6506 17.596 41.8344 17.596 48.0181 17.596C48.5019 17.596 48.6838 17.7015 48.622 18.1962C48.5601 18.6909 48.822 19.3093 48.5274 19.604C48.2327 19.8986 47.5998 19.6876 47.1197 19.6876C35.094 19.6876 23.0684 19.6876 11.0428 19.6876C10.4862 19.6876 10.2753 19.6076 10.3153 18.9601C10.3735 17.5742 10.3335 17.5742 11.723 17.5742L29.4668 17.596Z" fill="#D2D2D2"/>
</svg>
