<svg width="80" height="79" viewBox="0 0 80 79" fill="none" xmlns="http://www.w3.org/2000/svg">
<path d="M0.00463197 47.2229C0.109424 46.839 0.289293 46.4796 0.533835 46.1657C0.605433 46.0689 0.696331 45.9881 0.800779 45.9283C0.905226 45.8685 1.02095 45.831 1.14062 45.8183C1.6293 45.7627 2.11913 45.7395 2.60896 45.7279C6.14547 45.6434 9.68198 45.6573 13.2197 45.6492C23.637 45.626 34.0539 45.6067 44.4704 45.5913C46.2854 45.5913 48.0996 45.5863 49.913 45.5762C50.3009 45.5762 50.2419 45.6029 50.243 45.2555C50.243 44.7101 50.243 44.1635 50.3716 43.6273C50.4052 43.493 50.4526 43.3633 50.4955 43.2313C50.6506 42.7554 50.9946 42.5249 51.4717 42.4427C52.1966 42.3176 52.9284 42.3142 53.6591 42.3003C55.9462 42.2586 58.2332 42.3072 60.5202 42.3188C62.3163 42.3281 64.11 42.3385 65.9095 42.3396C65.9915 42.3323 66.074 42.3452 66.1497 42.3773C66.2255 42.4094 66.2921 42.4597 66.3438 42.5238C66.4031 42.595 66.4686 42.6609 66.5395 42.7206C66.6919 42.8564 66.8159 43.0211 66.9041 43.2052C66.9924 43.3893 67.0432 43.5891 67.0536 43.7929C67.0953 44.2816 67.1347 44.7703 67.1775 45.2589C67.1984 45.4987 67.2007 45.4987 67.4311 45.5021C70.0976 45.5392 72.7641 45.5778 75.4306 45.6179C76.4299 45.6341 77.4304 45.6446 78.4286 45.721C78.5108 45.7268 78.5954 45.7314 78.6764 45.7441C79.3874 45.8599 79.7881 46.234 79.9502 46.945C79.9524 46.9581 79.9583 46.9704 79.967 46.9804C79.9758 46.9905 79.9873 46.9978 80 47.0017V47.8355C79.9176 48.0466 79.7967 48.2406 79.6433 48.4075C79.3742 48.6639 79.0449 48.8483 78.6857 48.9437C78.3001 49.0595 77.9006 49.0676 77.5057 49.1116C77.2961 49.1348 77.2949 49.1313 77.2845 49.3362C77.2475 50.075 77.2088 50.8142 77.1687 51.5538C77.1139 52.7919 76.9582 54.0234 76.7032 55.2362C75.8706 59.0854 74.1614 62.4945 71.5142 65.4266C69.9787 67.1242 68.2834 68.6307 66.2407 69.7111C65.1985 70.2635 64.1563 70.8286 63.0435 71.242C62.8536 71.3126 62.6579 71.3717 62.4738 71.4551C62.1009 71.623 62.0801 71.6774 62.197 72.0665C62.4124 72.7845 62.6915 73.4793 62.9682 74.174C63.3302 75.0334 63.6468 75.9112 63.9166 76.8039C63.9603 76.9409 63.9752 77.0856 63.9602 77.2287C63.9453 77.3718 63.9009 77.5102 63.8298 77.6353C63.5762 78.0881 63.267 78.4841 62.7239 78.615H62.0013C61.4744 78.5142 61.149 78.1657 60.8943 77.7245C60.6845 77.3546 60.4955 76.9734 60.328 76.5827C59.8034 75.3911 59.3425 74.1706 58.7983 72.9871C58.6466 72.6594 58.6478 72.6571 58.2957 72.6478C55.6671 72.5795 53.0373 72.5899 50.4086 72.5749C42.8531 72.5316 35.2976 72.5185 27.7421 72.5355C25.8997 72.5355 24.0573 72.5552 22.215 72.5563C22.1299 72.546 22.044 72.5668 21.9731 72.6149C21.9022 72.663 21.8511 72.7352 21.8293 72.818C21.5792 73.4549 21.3129 74.0849 21.0535 74.7171C20.6262 75.7593 20.1908 76.8015 19.6778 77.8055C19.5874 77.9931 19.4563 78.158 19.294 78.2885C19.1317 78.4189 18.9424 78.5114 18.7398 78.5594C18.6564 78.5825 18.5545 78.5756 18.4955 78.6613H17.9396C17.9093 78.642 17.8775 78.625 17.8447 78.6103C16.9391 78.2757 16.5037 77.4269 16.7735 76.5062C17.0491 75.5648 17.4255 74.6604 17.7891 73.7514C18.0126 73.1932 18.2315 72.6339 18.4086 72.0596C18.5036 71.7504 18.5013 71.7492 18.2025 71.5964C17.9037 71.4435 17.5969 71.3323 17.2796 71.2165C14.8478 70.3047 12.6106 68.9409 10.686 67.1971C8.06079 64.8233 6.03662 62.0325 4.74314 58.7322C4.00355 56.8541 3.54167 54.8783 3.37208 52.867C3.3107 52.1467 3.28754 51.4253 3.26323 50.7038C3.2596 50.3245 3.22747 49.9459 3.16711 49.5713C3.08953 49.1568 2.97489 49.0606 2.55222 49.056C2.23723 49.062 1.92222 49.0453 1.60961 49.0062C0.914815 48.9008 0.413404 48.543 0.142433 47.8853C0.0984295 47.7753 0.0474777 47.6676 0 47.5587L0.00463197 47.2229ZM28.4067 49.1278H6.84953C6.64225 49.1278 6.63878 49.1278 6.63994 49.3455C6.64688 50.1978 6.63994 51.0489 6.66657 51.9012C6.67966 52.5582 6.73692 53.2135 6.83795 53.8628C7.14651 55.8393 7.76023 57.7559 8.65716 59.544C11.5938 65.3803 17.1244 68.6215 23.124 69.1078C24.3329 69.2063 25.5488 69.1542 26.7612 69.1553C34.3913 69.1669 42.0213 69.1738 49.6513 69.1298C52.1051 69.1159 54.5589 69.1217 57.0127 69.0546C58.1626 69.0233 59.2974 68.9168 60.4149 68.6111C62.9543 67.9163 65.2784 66.8127 67.3223 65.1371C70.2485 62.7284 72.1222 59.6482 73.1123 56.0086C73.6009 54.2045 73.7908 52.3563 73.8962 50.4977C73.9173 50.2764 73.9227 50.0539 73.9124 49.8319C73.8742 49.3687 73.7075 49.1869 73.2535 49.1209C73.0237 49.0843 72.7914 49.0657 72.5587 49.0653L67.4207 49.1278C67.3929 49.1278 67.3651 49.1278 67.3373 49.1278C67.2401 49.122 67.2065 49.1741 67.2088 49.2633C67.2088 49.3189 67.2088 49.3791 67.2088 49.43C67.181 51.4102 67.1532 53.3908 67.1254 55.3717C67.0976 57.3527 67.0756 59.3336 67.0594 61.3145C67.063 61.3869 67.0489 61.459 67.0182 61.5246C66.9875 61.5902 66.9412 61.6473 66.8834 61.6909C66.6518 61.8773 66.4306 62.073 66.221 62.2815C66.1599 62.3424 66.0864 62.3895 66.0055 62.4197C65.9246 62.4499 65.8382 62.4623 65.752 62.4563C63.5009 62.4505 61.2509 62.4563 59.0009 62.4505C56.8529 62.4424 54.7048 62.4887 52.5567 62.3903C52.1123 62.3835 51.6699 62.3276 51.2378 62.2236C50.7746 62.095 50.5267 61.7789 50.4549 61.3169C50.4248 61.1258 50.4086 60.9312 50.3959 60.7379C50.3334 59.7779 50.3102 58.8144 50.2928 57.8521C50.2453 55.0579 50.2129 52.2625 50.177 49.4671C50.177 49.0826 50.2268 49.1313 49.8296 49.1313L28.4067 49.1278ZM58.686 45.6179C57.5697 45.6179 56.3931 45.6179 55.2178 45.6179C54.8704 45.6179 54.5322 45.6365 54.1906 45.6585C53.8838 45.677 53.8097 45.7546 53.7738 46.0649C53.7498 46.2486 53.7352 46.4333 53.7298 46.6184C53.7159 48.367 53.6892 50.1167 53.7749 51.8653C53.7749 51.9394 53.7842 52.0135 53.7888 52.0876C53.7958 52.2185 53.8479 52.2822 53.9949 52.2833C54.281 52.2833 54.5681 52.3169 54.8542 52.3216C57.4099 52.3667 59.9656 52.3818 62.5212 52.3331C62.8082 52.3286 63.0947 52.3077 63.3793 52.2706C63.6665 52.2324 63.7267 52.1687 63.7591 51.8873C63.7719 51.7866 63.773 51.6847 63.7788 51.5828C63.861 50.1665 63.8008 48.7503 63.7603 47.3352C63.7499 46.9878 63.7256 46.6323 63.6873 46.2826C63.6283 45.7488 63.6213 45.7511 63.0782 45.7268C61.6342 45.6619 60.189 45.6631 58.686 45.6179ZM58.6732 59.1549C59.8185 59.1398 61.0494 59.1271 62.2792 59.1051C62.6266 59.0981 62.9636 59.075 63.3041 59.0391C63.6445 59.0032 63.6758 58.9684 63.7267 58.6384C63.8332 57.8588 63.8472 57.0694 63.7684 56.2865C63.7597 56.2223 63.7445 56.159 63.7232 56.0978C63.7044 56.0205 63.6597 55.952 63.5965 55.9037C63.5332 55.8554 63.4554 55.8303 63.3758 55.8326C63.1083 55.8199 62.8409 55.7932 62.5722 55.7828C60.5469 55.7122 58.5192 55.7052 56.4939 55.7098C55.7261 55.7098 54.9584 55.6959 54.1918 55.755C53.856 55.7805 53.7969 55.8326 53.761 56.1742C53.6983 56.9397 53.6929 57.7088 53.7448 58.4751C53.7506 58.6037 53.768 58.7322 53.7761 58.8619C53.7842 58.9916 53.834 59.0611 53.981 59.0622C54.2485 59.0622 54.516 59.097 54.7847 59.1016C56.0527 59.1225 57.3161 59.1375 58.6732 59.1549Z" fill="#D2D2D2"/>
<path d="M42.6789 33.7267C42.6396 35.935 41.7664 37.7727 40.1742 39.2781C39 40.3886 37.5965 41.0441 36.0054 41.3417C34.6367 41.5988 33.342 41.3417 32.1238 40.7546C29.7071 39.5862 28.1785 37.6581 27.5625 35.0434C27.2151 33.5773 27.4467 32.1484 28.0998 30.8051C29.2103 28.5181 30.9797 26.9941 33.4509 26.3283C34.9482 25.9253 36.4107 26.0967 37.8119 26.7243C40.0121 27.7075 41.5499 29.3321 42.3466 31.6238C42.5774 32.3004 42.6899 33.0118 42.6789 33.7267ZM39.2791 33.7615C39.2721 33.421 39.286 33.0968 39.2501 32.7748C39.1841 32.1646 38.883 31.6539 38.5437 31.1664C38.0668 30.462 37.3552 29.9498 36.5358 29.7212C35.4977 29.417 34.391 29.4417 33.3675 29.7918C32.8691 29.9447 32.4131 30.2114 32.0356 30.571C31.6582 30.9306 31.3696 31.3731 31.1928 31.8635C30.7134 33.1373 30.6983 34.4447 31.2171 35.7104C31.7567 37.0258 32.7931 37.7484 34.1874 37.958C34.8594 38.0402 35.5401 38.016 36.2046 37.8862C37.9532 37.5944 39 36.1099 39.2374 34.7701C39.2976 34.4308 39.2663 34.0868 39.2791 33.7615Z" fill="#D2D2D2"/>
<path d="M22.553 22.178C22.5438 22.5937 22.5785 23.0118 22.5009 23.424C22.4758 23.5793 22.4331 23.7312 22.3735 23.8768C21.6081 25.6138 20.4049 26.9316 18.6205 27.6565C17.1718 28.2471 15.7371 28.1984 14.3359 27.4643C13.0876 26.81 12.0952 25.894 11.4409 24.6422C10.6755 23.182 10.5736 21.6639 11.2163 20.1434C11.9817 18.3312 13.2833 17.0388 15.1801 16.4378C16.8117 15.9214 18.3669 16.1599 19.7808 17.1407C20.8276 17.8531 21.6607 18.8371 22.1906 19.9871C22.4318 20.479 22.5566 21.0199 22.5553 21.5678C22.5495 21.7704 22.553 21.9742 22.553 22.178ZM16.6716 24.6098C16.9306 24.6168 17.1898 24.6017 17.4463 24.5646C18.0982 24.4871 19.0223 23.9023 19.1752 22.9851C19.2848 22.4021 19.2785 21.8032 19.1566 21.2227C18.976 20.4306 18.4896 19.9176 17.7045 19.708C17.1112 19.556 16.4916 19.5367 15.8899 19.6513C15.4299 19.7334 15.0171 19.984 14.7319 20.3542C13.9526 21.3037 13.8136 23.0708 14.9832 24.135C15.1855 24.3261 15.4355 24.4593 15.707 24.5206C16.0246 24.5805 16.3472 24.6099 16.6704 24.6086L16.6716 24.6098Z" fill="#D2D2D2"/>
<path d="M26.3803 0H27.2696C29.7558 0.374032 31.2902 1.85279 32.0591 4.1792C32.3439 5.04422 32.2374 5.91619 31.9363 6.76616C31.2184 8.79844 29.8068 10.0803 27.7108 10.5875C26.7764 10.8216 25.7895 10.7199 24.9223 10.3004C23.1622 9.45965 22.0274 8.10017 21.5827 6.19411C21.4022 5.4608 21.4425 4.6905 21.6985 3.98002C22.3609 2.16661 23.5802 0.892813 25.4041 0.220019C25.7216 0.11531 26.0485 0.0416263 26.3803 0V0ZM26.8608 3.42535C26.6756 3.42535 26.4914 3.42535 26.3062 3.42535C25.7063 3.43229 25.3184 3.77274 25.0845 4.27763C24.9219 4.62231 24.8396 4.99932 24.8436 5.38038C24.8476 5.76144 24.9379 6.13664 25.1076 6.47782C25.19 6.65972 25.3155 6.81875 25.4733 6.94105C25.6312 7.06336 25.8165 7.14524 26.0132 7.17956C26.4761 7.27688 26.9528 7.28943 27.4201 7.21662C28.1856 7.10082 28.57 6.71868 28.7287 5.95556C28.7858 5.6183 28.8036 5.27558 28.7819 4.93421C28.7634 4.30542 28.3743 3.90939 27.9192 3.55504C27.826 3.49411 27.7188 3.45785 27.6077 3.44966C27.3603 3.41494 27.11 3.40679 26.8608 3.42535Z" fill="#D2D2D2"/>
</svg>
