<svg width="76" height="100" viewBox="0 0 76 100" fill="none" xmlns="http://www.w3.org/2000/svg">
<path d="M27.9662 89.6751V92.2401H29.1962V89.6751H27.9662ZM32.9462 89.6751V92.2401H34.1762V89.6751H32.9462ZM31.0712 85.2651C28.1312 85.2651 26.3012 86.2251 26.3012 87.8451C26.3012 89.4801 28.1312 90.4401 31.0712 90.4401C33.9962 90.4401 35.8412 89.4801 35.8412 87.8451C35.8412 86.2251 33.9962 85.2651 31.0712 85.2651ZM31.0712 86.2551C33.2162 86.2551 34.5662 86.8401 34.5662 87.8451C34.5662 88.8501 33.2162 89.4501 31.0712 89.4501C28.9112 89.4501 27.5762 88.8501 27.5762 87.8451C27.5762 86.8401 28.9112 86.2551 31.0712 86.2551ZM24.9362 91.8801V92.9001H37.1912V91.8801H24.9362ZM26.3012 94.1601V95.1801H34.4312V98.5401H35.6762V94.1601H26.3012ZM38.75 95.7651V96.8001H51.035V95.7651H38.75ZM44.27 92.4801V96.1101H45.5V92.4801H44.27ZM44.24 86.6901V87.5301C44.24 89.6751 41.675 91.5801 39.335 91.9701L39.845 92.9601C42.515 92.4051 45.29 90.3051 45.29 87.5301V86.6901H44.24ZM44.465 86.6901V87.5301C44.465 90.3051 47.255 92.3751 49.97 92.9151L50.465 91.9251C48.095 91.5351 45.515 89.6751 45.515 87.5301V86.6901H44.465ZM39.755 86.2101V87.2301H50V86.2101H39.755Z" fill="#7D7D7D"/>
<path d="M8.00347 35.7874C8.08207 35.4995 8.21697 35.23 8.40038 34.9945C8.45407 34.9219 8.52225 34.8613 8.60058 34.8165C8.67892 34.7716 8.76571 34.7435 8.85547 34.7339C9.22197 34.6922 9.58935 34.6749 9.95672 34.6662C12.6091 34.6028 15.2615 34.6132 17.9147 34.6071C25.7277 34.5898 33.5404 34.5753 41.3528 34.5637C42.714 34.5637 44.0747 34.5599 45.4348 34.5524C45.7257 34.5524 45.6814 34.5724 45.6823 34.3118C45.6823 33.9028 45.6823 33.4929 45.7787 33.0907C45.8039 32.99 45.8395 32.8927 45.8716 32.7937C45.988 32.4368 46.2459 32.2639 46.6037 32.2023C47.1474 32.1085 47.6963 32.1059 48.2443 32.0954C49.9596 32.0642 51.6749 32.1007 53.3902 32.1093C54.7372 32.1163 56.0825 32.1241 57.4321 32.125C57.4936 32.1194 57.5555 32.1291 57.6123 32.1532C57.6691 32.1773 57.7191 32.215 57.7578 32.2631C57.8023 32.3165 57.8514 32.3659 57.9046 32.4107C58.0189 32.5125 58.1119 32.6361 58.1781 32.7741C58.2443 32.9122 58.2824 33.062 58.2902 33.2149C58.3215 33.5814 58.351 33.9479 58.3831 34.3145C58.3988 34.4942 58.4005 34.4942 58.5733 34.4968C60.5732 34.5246 62.5731 34.5536 64.5729 34.5837C65.3224 34.5958 66.0728 34.6037 66.8214 34.661C66.8831 34.6653 66.9465 34.6688 67.0073 34.6784C67.5406 34.7652 67.8411 35.0457 67.9627 35.579C67.9643 35.5888 67.9687 35.598 67.9753 35.6056C67.9819 35.6131 67.9904 35.6186 68 35.6215V36.2469C67.9382 36.4052 67.8475 36.5507 67.7325 36.6759C67.5307 36.8681 67.2836 37.0064 67.0143 37.078C66.725 37.1649 66.4254 37.1709 66.1293 37.2039C65.9721 37.2213 65.9712 37.2187 65.9634 37.3724C65.9356 37.9265 65.9066 38.4809 65.8765 39.0356C65.8354 39.9642 65.7186 40.8878 65.5274 41.7974C64.9029 44.6843 63.621 47.2411 61.6357 49.4402C60.484 50.7134 59.2126 51.8433 57.6805 52.6536C56.8989 53.0679 56.1172 53.4917 55.2826 53.8017C55.1402 53.8547 54.9934 53.899 54.8553 53.9616C54.5757 54.0875 54.56 54.1283 54.6478 54.4201C54.8093 54.9586 55.0186 55.4797 55.2262 56.0008C55.4977 56.6453 55.7351 57.3037 55.9375 57.9731C55.9702 58.0759 55.9814 58.1844 55.9702 58.2917C55.959 58.3991 55.9256 58.5029 55.8723 58.5967C55.6821 58.9363 55.4502 59.2333 55.0429 59.3315H54.501C54.1058 59.2559 53.8618 58.9945 53.6707 58.6636C53.5134 58.3862 53.3716 58.1003 53.246 57.8072C52.8526 56.9136 52.5069 55.9982 52.0987 55.1106C51.9849 54.8648 51.9858 54.863 51.7218 54.8561C49.7503 54.8049 47.778 54.8127 45.8065 54.8014C40.1398 54.769 34.4732 54.7591 28.8065 54.7719C27.4248 54.7719 26.043 54.7866 24.6612 54.7875C24.5974 54.7797 24.533 54.7953 24.4798 54.8314C24.4266 54.8675 24.3883 54.9216 24.372 54.9838C24.1844 55.4614 23.9847 55.9339 23.7901 56.4081C23.4696 57.1897 23.1431 57.9714 22.7583 58.7244C22.6905 58.865 22.5922 58.9888 22.4705 59.0866C22.3488 59.1844 22.2068 59.2538 22.0549 59.2898C21.9923 59.3071 21.9159 59.3019 21.8716 59.3662H21.4547C21.4319 59.3518 21.4081 59.339 21.3835 59.328C20.7043 59.077 20.3778 58.4404 20.5802 57.7499C20.7869 57.0438 21.0691 56.3655 21.3418 55.6838C21.5094 55.2652 21.6736 54.8457 21.8065 54.4149C21.8777 54.183 21.8759 54.1822 21.6519 54.0675C21.4278 53.9529 21.1977 53.8695 20.9597 53.7826C19.1359 53.0988 17.4579 52.0759 16.0145 50.7681C14.0456 48.9877 12.5275 46.8946 11.5574 44.4194C11.0027 43.0108 10.6563 41.529 10.5291 40.0205C10.483 39.4803 10.4657 38.9392 10.4474 38.3981C10.4447 38.1136 10.4206 37.8297 10.3753 37.5487C10.3171 37.2378 10.2312 37.1657 9.91416 37.1622C9.67792 37.1667 9.44166 37.1542 9.20721 37.1249C8.68611 37.0459 8.31005 36.7775 8.10682 36.2842C8.07382 36.2017 8.03561 36.1209 8 36.0393L8.00347 35.7874ZM29.3051 37.2161H13.1371C12.9817 37.2161 12.9791 37.2161 12.98 37.3794C12.9852 38.0186 12.98 38.6569 12.9999 39.2961C13.0097 39.7889 13.0527 40.2804 13.1285 40.7674C13.3599 42.2497 13.8202 43.6872 14.4929 45.0282C16.6954 49.4054 20.8433 51.8363 25.343 52.2011C26.2497 52.2749 27.1616 52.2359 28.0709 52.2367C33.7934 52.2454 39.516 52.2506 45.2385 52.2176C47.0788 52.2072 48.9192 52.2115 50.7595 52.1612C51.6219 52.1377 52.473 52.0578 53.3111 51.8285C55.2157 51.3074 56.9588 50.4798 58.4917 49.223C60.6864 47.4166 62.0916 45.1064 62.8342 42.3767C63.2007 41.0236 63.3431 39.6375 63.4222 38.2435C63.4379 38.0776 63.442 37.9107 63.4343 37.7441C63.4057 37.3967 63.2806 37.2604 62.9401 37.2109C62.7678 37.1834 62.5936 37.1695 62.419 37.1692L58.5655 37.2161C58.5447 37.2161 58.5238 37.2161 58.503 37.2161C58.43 37.2118 58.4049 37.2508 58.4066 37.3177C58.4066 37.3594 58.4066 37.4046 58.4066 37.4428C58.3858 38.9279 58.3649 40.4133 58.3441 41.899C58.3232 43.3847 58.3067 44.8704 58.2946 46.3561C58.2973 46.4104 58.2867 46.4645 58.2637 46.5137C58.2406 46.5629 58.2059 46.6057 58.1626 46.6384C57.9889 46.7782 57.823 46.925 57.6658 47.0813C57.6199 47.127 57.5648 47.1624 57.5041 47.185C57.4434 47.2076 57.3786 47.217 57.314 47.2125C55.6257 47.2081 53.9382 47.2125 52.2507 47.2081C50.6396 47.2021 49.0286 47.2368 47.4175 47.163C47.0842 47.1579 46.7524 47.1159 46.4283 47.0379C46.0809 46.9415 45.8951 46.7044 45.8412 46.3579C45.8186 46.2146 45.8065 46.0687 45.7969 45.9236C45.75 45.2036 45.7326 44.4811 45.7196 43.7593C45.684 41.6637 45.6597 39.5671 45.6328 37.4706C45.6328 37.1822 45.6701 37.2187 45.3722 37.2187L29.3051 37.2161ZM52.0145 34.5837C51.1772 34.5837 50.2949 34.5837 49.4133 34.5837C49.1528 34.5837 48.8992 34.5976 48.643 34.6141C48.4128 34.628 48.3572 34.6862 48.3303 34.9189C48.3124 35.0567 48.3014 35.1952 48.2973 35.3341C48.2869 36.6455 48.2669 37.9578 48.3312 39.2692C48.3312 39.3248 48.3381 39.3804 48.3416 39.436C48.3468 39.5341 48.3859 39.5819 48.4962 39.5827C48.7107 39.5827 48.9261 39.6079 49.1406 39.6114C51.0574 39.6453 52.9742 39.6566 54.8909 39.6201C55.1062 39.6167 55.321 39.601 55.5345 39.5732C55.7499 39.5445 55.795 39.4968 55.8194 39.2857C55.8289 39.2102 55.8298 39.1337 55.8341 39.0573C55.8958 37.9951 55.8506 36.933 55.8202 35.8717C55.8124 35.6111 55.7942 35.3445 55.7655 35.0822C55.7212 34.6818 55.716 34.6836 55.3087 34.6653C54.2257 34.6167 53.1418 34.6176 52.0145 34.5837V34.5837ZM52.0049 44.7364C52.8639 44.7251 53.7871 44.7156 54.7094 44.6991C54.97 44.6938 55.2227 44.6765 55.478 44.6495C55.7334 44.6226 55.7568 44.5966 55.795 44.349C55.8749 43.7644 55.8854 43.1723 55.8263 42.5851C55.8197 42.5369 55.8084 42.4895 55.7924 42.4436C55.7783 42.3856 55.7448 42.3342 55.6973 42.298C55.6499 42.2618 55.5915 42.243 55.5319 42.2447C55.3313 42.2351 55.1306 42.2152 54.9291 42.2073C53.4101 42.1544 51.8894 42.1491 50.3704 42.1526C49.7946 42.1526 49.2188 42.1422 48.6438 42.1865C48.392 42.2056 48.3477 42.2447 48.3208 42.5009C48.2737 43.075 48.2697 43.6519 48.3086 44.2266C48.3129 44.323 48.326 44.4194 48.332 44.5167C48.3381 44.6139 48.3755 44.666 48.4858 44.6669C48.6864 44.6669 48.887 44.693 49.0885 44.6964C50.0395 44.7121 50.987 44.7234 52.0049 44.7364V44.7364Z" fill="#D2D2D2"/>
<path d="M40.0093 25.665C39.9797 27.3212 39.3249 28.6996 38.1307 29.8286C37.25 30.6615 36.1974 31.1531 35.0041 31.3763C33.9776 31.5691 33.0066 31.3763 32.0929 30.9359C30.2804 30.0596 29.134 28.6136 28.6719 26.6525C28.4114 25.553 28.5851 24.4813 29.0749 23.4738C29.9078 21.7585 31.2348 20.6156 33.0882 20.1162C34.2112 19.814 35.3081 19.9425 36.359 20.4132C38.0091 21.1506 39.1625 22.3691 39.76 24.0878C39.9331 24.5953 40.0175 25.1289 40.0093 25.665ZM37.4594 25.6911C37.4541 25.4357 37.4646 25.1926 37.4376 24.9511C37.3881 24.4934 37.1623 24.1104 36.9079 23.7448C36.5502 23.2165 36.0164 22.8323 35.4019 22.6609C34.6234 22.4328 33.7933 22.4513 33.0257 22.7139C32.6519 22.8285 32.3099 23.0286 32.0268 23.2982C31.7437 23.5679 31.5273 23.8998 31.3947 24.2676C31.0351 25.223 31.0238 26.2035 31.4129 27.1528C31.8176 28.1394 32.5949 28.6813 33.6406 28.8385C34.1446 28.9001 34.6552 28.882 35.1535 28.7847C36.4649 28.5658 37.25 27.4524 37.4281 26.4475C37.4733 26.1931 37.4498 25.9351 37.4594 25.6911Z" fill="#D2D2D2"/>
<path d="M24.9149 17.0038C24.9079 17.3155 24.934 17.6291 24.8758 17.9383C24.857 18.0547 24.8249 18.1686 24.7803 18.2778C24.2062 19.5806 23.3038 20.5689 21.9655 21.1126C20.879 21.5555 19.8029 21.5191 18.752 20.9684C17.8158 20.4777 17.0715 19.7908 16.5808 18.8519C16.0067 17.7567 15.9303 16.6181 16.4123 15.4778C16.9864 14.1186 17.9626 13.1494 19.3852 12.6986C20.6089 12.3113 21.7753 12.4902 22.8357 13.2258C23.6208 13.7601 24.2456 14.4981 24.643 15.3606C24.824 15.7295 24.9176 16.1351 24.9166 16.5461C24.9123 16.698 24.9149 16.8509 24.9149 17.0038ZM20.5038 18.8276C20.6981 18.8328 20.8925 18.8215 21.0848 18.7937C21.5738 18.7355 22.2668 18.2969 22.3815 17.6091C22.4637 17.1718 22.459 16.7227 22.3676 16.2872C22.2321 15.6932 21.8673 15.3084 21.2785 15.1513C20.8335 15.0373 20.3688 15.0227 19.9176 15.1087C19.5726 15.1703 19.2629 15.3582 19.0491 15.6359C18.4646 16.348 18.3604 17.6734 19.2375 18.4715C19.3893 18.6148 19.5767 18.7147 19.7803 18.7607C20.0186 18.8056 20.2605 18.8277 20.5029 18.8267L20.5038 18.8276Z" fill="#D2D2D2"/>
<path d="M27.7852 0.370117H28.4522C30.3169 0.650641 31.4676 1.75971 32.0443 3.50452C32.2579 4.15328 32.178 4.80726 31.9522 5.44473C31.4138 6.96894 30.3551 7.93037 28.7831 8.31077C28.0823 8.48629 27.3421 8.41005 26.6918 8.09538C25.3716 7.46485 24.5205 6.44524 24.187 5.0157C24.0517 4.46572 24.0819 3.88799 24.2739 3.35514C24.7707 1.99507 25.6852 1.03973 27.0531 0.535131C27.2912 0.4566 27.5364 0.401337 27.7852 0.370117V0.370117ZM28.1456 2.93913C28.0067 2.93913 27.8686 2.93913 27.7296 2.93913C27.2797 2.94434 26.9888 3.19967 26.8134 3.57834C26.6915 3.83685 26.6297 4.11961 26.6327 4.4054C26.6357 4.69119 26.7034 4.97259 26.8307 5.22848C26.8925 5.36491 26.9866 5.48418 27.105 5.57591C27.2234 5.66764 27.3624 5.72905 27.5099 5.75479C27.8571 5.82777 28.2146 5.83719 28.5651 5.78258C29.1392 5.69573 29.4275 5.40913 29.5465 4.83679C29.5893 4.58385 29.6027 4.3268 29.5865 4.07078C29.5726 3.59918 29.2807 3.30216 28.9394 3.0364C28.8695 2.9907 28.7891 2.9635 28.7058 2.95736C28.5203 2.93132 28.3325 2.92521 28.1456 2.93913V2.93913Z" fill="#D2D2D2"/>
</svg>
