<svg width="80" height="64" viewBox="0 0 80 64" fill="none" xmlns="http://www.w3.org/2000/svg">
<path d="M40.0085 0.000419764H71.8565C74.1346 0.000419764 76.0033 1.38626 76.6165 3.52587C76.7426 3.97848 76.8044 4.44658 76.8001 4.91641C76.8001 12.9289 76.7951 20.9413 76.7853 28.9537C76.7759 29.3548 76.8847 29.7497 77.0979 30.0894C78.2551 31.995 78.9013 34.0889 79.3229 36.2615C79.879 39.1246 80.0061 42.02 79.9954 44.9288C79.9812 50.4298 79.9886 55.9308 79.9873 61.4318C79.9873 62.2132 79.9819 62.9945 79.992 63.7752C79.992 63.9527 79.9469 63.9957 79.7708 63.995C76.1846 63.9897 72.5984 63.9897 69.0122 63.995C68.8105 63.995 68.7869 63.9278 68.7869 63.755C68.7923 61.6136 68.7923 59.472 68.7869 57.3301C68.7886 56.8843 68.7168 56.4413 68.5745 56.0189C68.2383 55.0325 67.4757 54.5941 66.4947 54.4522C66.1448 54.4081 65.7922 54.3894 65.4397 54.3964H14.549C14.0534 54.3964 13.5626 54.4193 13.0771 54.541C12.0254 54.8039 11.4747 55.5038 11.2918 56.5387C11.2289 56.9112 11.1988 57.2885 11.2017 57.6663C11.2017 59.6903 11.1977 61.7142 11.2071 63.7389C11.2071 63.9527 11.1506 63.995 10.9455 63.9944C7.38446 63.9876 3.82338 63.9876 0.262293 63.9944C0.0605696 63.9944 0.000725107 63.954 0.00139752 63.7395C0.00744921 56.9139 -0.0127231 50.0856 0.0155181 43.2572C0.0276215 40.2657 0.328861 37.2983 1.11155 34.3962C1.56475 32.7152 2.21699 31.1196 3.14021 29.6403C3.18215 29.5789 3.21148 29.5097 3.22648 29.4369C3.24149 29.364 3.24188 29.289 3.22762 29.216C3.21011 29.1084 3.20201 28.9995 3.20341 28.8905C3.20341 20.9204 3.2135 12.9504 3.19602 4.97962C3.19064 2.62618 4.65851 0.93776 6.31466 0.31578C6.90584 0.099272 7.53156 -0.00759681 8.1611 0.000419764H40.0085ZM39.9997 43.1987H73.4857C74.4849 43.1987 75.4848 43.19 76.484 43.2055C76.7194 43.2088 76.753 43.1382 76.7449 42.9231C76.6918 41.8472 76.6568 40.7767 76.56 39.7056C76.4134 38.0918 76.1774 36.4962 75.741 34.9315C74.8084 31.5909 72.9451 28.9376 69.9583 27.1127C68.0661 25.9555 66.0099 25.1983 63.8817 24.6167C60.8417 23.7849 57.7339 23.3351 54.6065 23.0123C52.4944 22.7945 50.375 22.6593 48.2536 22.5645C44.6373 22.4045 41.0184 22.3668 37.3995 22.4119C32.9751 22.4663 28.556 22.6411 24.153 23.1515C21.8305 23.4205 19.5221 23.7748 17.248 24.3242C14.9074 24.889 12.6279 25.626 10.5239 26.8276C8.84292 27.7871 7.38782 29.0048 6.26893 30.5978C4.78022 32.7172 4.06343 35.1217 3.68083 37.6466C3.4286 39.3743 3.29023 41.1167 3.26662 42.8625C3.25922 43.2196 3.17854 43.1987 3.58669 43.1987H39.9997ZM6.40678 25.8398C7.84305 24.69 9.34992 23.7325 10.996 23.0022C11.16 22.9296 11.2058 22.8368 11.2058 22.666C11.1997 20.5325 11.2185 18.3989 11.1943 16.266C11.1829 15.2191 11.5937 14.4028 12.3744 13.7452C13.0172 13.2032 13.7656 12.8515 14.5524 12.5812C16.5649 11.8906 18.6541 11.6109 20.7614 11.4247C22.2837 11.2902 23.8101 11.229 25.3392 11.2155C28.8357 11.1839 32.3208 11.2707 35.7669 11.9303C37.0741 12.1805 38.3718 12.4864 39.5438 13.1467C39.88 13.3363 40.11 13.3417 40.4523 13.1501C41.7002 12.4508 43.0841 12.1415 44.4739 11.8819C46.9229 11.4253 49.4014 11.2667 51.8866 11.2229C54.3133 11.1806 56.7387 11.2061 59.1594 11.4179C60.8902 11.5699 62.6082 11.7925 64.2926 12.2295C65.3819 12.5126 66.4443 12.873 67.3648 13.5421C68.3062 14.2226 68.8246 15.1001 68.8038 16.3097C68.7674 18.4251 68.797 20.5419 68.7883 22.6586C68.7883 22.8496 68.8481 22.9377 69.0142 23.0096C70.355 23.5933 71.5943 24.3544 72.775 25.2104C73.0399 25.4034 73.2975 25.6071 73.5913 25.8304V25.5614C73.5913 18.6746 73.5913 11.788 73.5913 4.90162C73.5913 3.85199 72.9471 3.20647 71.9009 3.20647H8.08108C7.07246 3.20647 6.40678 3.8735 6.40678 4.87539V25.8398ZM40.0011 46.392H23.8034C17.0259 46.392 10.2487 46.392 3.47171 46.392C3.31167 46.392 3.20274 46.3732 3.20274 46.6132C3.21126 51.2654 3.21126 55.9178 3.20274 60.5705C3.20274 60.7648 3.25788 60.8051 3.44279 60.8045C4.88713 60.7964 6.33147 60.7964 7.7758 60.8045C7.95937 60.8045 8.01854 60.7675 8.01653 60.5725C8.0051 59.6311 8.01249 58.6897 8.01048 57.7484C8.01048 57.0168 8.05687 56.2912 8.22363 55.5758C8.62304 53.8605 9.54155 52.5499 11.1782 51.8103C12.2453 51.3275 13.3797 51.1903 14.5362 51.1903C31.5173 51.1903 48.4983 51.1903 65.4794 51.1903C66.1592 51.1819 66.838 51.2466 67.504 51.3833C68.6236 51.6261 69.6322 52.0867 70.4303 52.9339C71.4645 54.0313 71.8693 55.3855 71.9674 56.8487C72.0501 58.0812 71.9943 59.3164 71.9984 60.551C71.9984 60.7446 72.0434 60.8031 72.2458 60.8018C73.6731 60.7924 75.1006 60.7924 76.5284 60.8018C76.7637 60.8018 76.8142 60.7345 76.8142 60.5113C76.807 55.9093 76.807 51.3071 76.8142 46.7047C76.8142 46.4357 76.7362 46.3846 76.4833 46.3846C64.3226 46.3927 52.1618 46.3952 40.0011 46.392ZM65.6011 21.7865V21.4967C65.6011 19.8513 65.591 18.2053 65.6105 16.5599C65.6105 16.2559 65.5015 16.11 65.2554 15.9823C64.4613 15.5687 63.6101 15.3327 62.742 15.1491C60.6763 14.7121 58.5791 14.544 56.4751 14.4579C54.1095 14.3574 51.7402 14.3823 49.3772 14.5325C47.6437 14.6448 45.9196 14.8203 44.2225 15.2016C43.3893 15.3892 42.5703 15.6225 41.8219 16.0542C41.6633 16.1457 41.5893 16.2499 41.5927 16.4496C41.6075 17.2722 41.6075 18.095 41.5927 18.918C41.5873 19.1567 41.6639 19.2045 41.8852 19.2058C44.874 19.2287 47.8615 19.3033 50.8444 19.4922C53.0794 19.6341 55.3092 19.8318 57.5301 20.1317C59.6146 20.4135 61.6829 20.7671 63.7224 21.2842C64.3437 21.4416 64.9616 21.6144 65.6011 21.7865ZM26.1864 14.3974C24.7562 14.4075 23.0704 14.4505 21.3874 14.587C19.8409 14.7128 18.3024 14.8923 16.7915 15.2554C16.0269 15.4396 15.2765 15.6676 14.5914 16.071C14.5293 16.1024 14.4782 16.1518 14.4447 16.2128C14.4112 16.2737 14.3969 16.3434 14.4038 16.4126C14.4105 18.1172 14.4138 19.8224 14.4038 21.5229C14.4038 21.7778 14.471 21.7784 14.6774 21.7166C16.9764 21.0321 19.3231 20.5735 21.6954 20.2326C23.3892 19.9898 25.089 19.8069 26.7936 19.663C28.6508 19.507 30.5107 19.4048 32.3746 19.3268C34.3212 19.2461 36.2685 19.2186 38.2158 19.1997C38.3913 19.1997 38.4175 19.1325 38.4135 18.9805C38.4075 18.1158 38.4061 17.2511 38.4135 16.3864C38.4186 16.3252 38.4052 16.2638 38.375 16.2103C38.3448 16.1568 38.2991 16.1137 38.2441 16.0865C37.863 15.8593 37.4568 15.6772 37.0337 15.5439C35.4576 15.02 33.8209 14.8076 32.1789 14.6455C30.2713 14.4619 28.3583 14.4014 26.1864 14.3974Z" fill="#D2D2D2"/>
</svg>
