<svg width="76" height="89" viewBox="0 0 76 89" fill="none" xmlns="http://www.w3.org/2000/svg">
<path d="M28.6262 76.495V77.065C28.6262 78.88 27.2312 80.53 25.1912 81.175L25.8062 82.15C28.0862 81.4 29.6462 79.435 29.6462 77.065V76.495H28.6262ZM28.8362 76.495V77.065C28.8362 79.33 30.4262 81.175 32.7362 81.865L33.3062 80.89C31.2962 80.305 29.8562 78.775 29.8562 77.065V76.495H28.8362ZM25.5362 75.91V76.915H32.9162V75.91H25.5362ZM28.6262 74.245V76.345H29.8562V74.245H28.6262ZM34.8062 74.335V82.36H36.0662V74.335H34.8062ZM27.3062 83.05V87.7H36.0662V83.05H27.3062ZM34.8362 84.04V86.695H28.5212V84.04H34.8362ZM49.055 74.32V87.88H50.255V74.32H49.055ZM46.76 79.75V80.785H49.37V79.75H46.76ZM45.98 74.62V87.19H47.15V74.62H45.98ZM39.23 83.5V84.535H40.115C42.155 84.535 43.52 84.475 45.14 84.13L45.02 83.095C43.445 83.425 42.095 83.5 40.115 83.5H39.23ZM39.23 75.97V83.965H40.46V76.99H44.27V75.97H39.23Z" fill="#7D7D7D"/>
<path d="M38.0079 0.710276H61.8951C63.6038 0.710276 65.0053 1.74971 65.4653 3.35449C65.5598 3.69397 65.6062 4.04507 65.6029 4.39745C65.6029 10.4071 65.5992 16.4167 65.5918 22.4264C65.5849 22.7271 65.6664 23.0233 65.8264 23.2782C66.6943 24.7075 67.179 26.2779 67.4952 27.9074C67.9123 30.0549 68.0076 32.2266 67.9995 34.4083C67.9889 38.5342 67.9945 42.6602 67.9935 46.7861C67.9935 47.3722 67.9894 47.9582 67.997 48.5437C67.997 48.6769 67.9632 48.7092 67.8311 48.7087C65.1413 48.7046 62.4515 48.7046 59.7618 48.7087C59.6105 48.7087 59.5928 48.6582 59.5928 48.5286C59.5968 46.9225 59.5968 45.3162 59.5928 43.7097C59.5941 43.3754 59.5402 43.0431 59.4334 42.7263C59.1813 41.9864 58.6094 41.6576 57.8735 41.5512C57.6111 41.5181 57.3467 41.5041 57.0822 41.5093H18.9123C18.5406 41.5093 18.1724 41.5265 17.8083 41.6177C17.0195 41.8149 16.6065 42.3399 16.4693 43.1161C16.4221 43.3955 16.3995 43.6785 16.4017 43.9619C16.4017 45.4799 16.3987 46.998 16.4058 48.5165C16.4058 48.6769 16.3634 48.7087 16.2096 48.7082C13.5386 48.7031 10.8677 48.7031 8.19673 48.7082C8.04543 48.7082 8.00054 48.6779 8.00105 48.517C8.00559 43.3975 7.99046 38.276 8.01164 33.1545C8.02072 30.9107 8.24666 28.6851 8.8337 26.5084C9.17362 25.2476 9.66283 24.0508 10.3553 22.9413C10.3867 22.8952 10.4087 22.8434 10.42 22.7887C10.4312 22.7341 10.4315 22.6778 10.4208 22.623C10.4077 22.5424 10.4016 22.4607 10.4027 22.3789C10.4027 16.4011 10.4102 10.4232 10.3971 4.44486C10.3931 2.6797 11.4941 1.41332 12.7362 0.946808C13.1796 0.784419 13.649 0.704263 14.1211 0.710276H38.0079ZM38.0013 33.1106H63.1171C63.8665 33.1106 64.6165 33.1041 65.3659 33.1157C65.5424 33.1182 65.5676 33.0653 65.5616 32.9039C65.5217 32.0969 65.4955 31.294 65.4229 30.4906C65.313 29.2802 65.1359 28.0835 64.8086 26.9099C64.1091 24.4043 62.7116 22.4143 60.4714 21.0455C59.0522 20.1775 57.5099 19.6097 55.9137 19.1734C53.6336 18.5495 51.3026 18.2121 48.9569 17.9701C47.3728 17.8067 45.7832 17.7053 44.192 17.6342C41.4797 17.5142 38.7654 17.4859 36.051 17.5197C32.7325 17.5605 29.4181 17.6917 26.1157 18.0745C24.3737 18.2762 22.6423 18.542 20.9367 18.954C19.1811 19.3777 17.4714 19.9304 15.8934 20.8317C14.6325 21.5513 13.5411 22.4647 12.7019 23.6594C11.5853 25.2491 11.0477 27.0526 10.7608 28.9464C10.5716 30.2422 10.4678 31.549 10.4501 32.8585C10.4445 33.1263 10.384 33.1106 10.6902 33.1106H38.0013ZM12.8053 20.0908C13.8826 19.2284 15.0128 18.5102 16.2474 17.9625C16.3705 17.908 16.4047 17.8384 16.4047 17.7103C16.4002 16.1101 16.4143 14.5098 16.3962 12.9101C16.3876 12.1248 16.6958 11.5126 17.2813 11.0193C17.7634 10.6129 18.3247 10.3491 18.9148 10.1463C20.4243 9.6284 21.9912 9.41859 23.5718 9.27889C24.7136 9.17803 25.8585 9.13213 27.0053 9.12205C29.6279 9.09834 32.2418 9.1634 34.8265 9.65815C35.8069 9.84576 36.7803 10.0752 37.6594 10.5705C37.9115 10.7127 38.084 10.7167 38.3407 10.573C39.2768 10.0485 40.3147 9.81651 41.3571 9.62184C43.1939 9.2794 45.0529 9.16038 46.9169 9.12759C48.737 9.09582 50.5562 9.11499 52.3718 9.27385C53.6699 9.38783 54.9585 9.55476 56.2218 9.88258C57.0389 10.0949 57.8357 10.3652 58.5261 10.867C59.2322 11.3774 59.6211 12.0356 59.6054 12.9429C59.5782 14.5295 59.6004 16.1171 59.5938 17.7048C59.5938 17.848 59.6387 17.9141 59.7633 17.9681C60.7689 18.4058 61.6984 18.9767 62.584 19.6187C62.7827 19.7635 62.9759 19.9163 63.1963 20.0837V19.882C63.1963 14.7166 63.1963 9.5514 63.1963 4.38636C63.1963 3.5991 62.7131 3.11494 61.9284 3.11494H14.0611C13.3046 3.11494 12.8053 3.61523 12.8053 4.36669V20.0908ZM38.0023 35.5057H25.8534C20.7701 35.5057 15.6869 35.5057 10.6039 35.5057C10.4839 35.5057 10.4022 35.4916 10.4022 35.6717C10.4086 39.161 10.4086 42.6504 10.4022 46.1401C10.4022 46.2858 10.4435 46.3161 10.5822 46.3156C11.6655 46.3096 12.7488 46.3096 13.8321 46.3156C13.9698 46.3156 14.0142 46.2879 14.0127 46.1416C14.0041 45.4355 14.0097 44.7295 14.0082 44.0234C14.0082 43.4747 14.043 42.9305 14.168 42.3939C14.4676 41.1074 15.1565 40.1244 16.3841 39.5696C17.1844 39.2075 18.0353 39.1046 18.9027 39.1046C31.6391 39.1046 44.3756 39.1046 57.112 39.1046C57.6219 39.0983 58.131 39.1468 58.6305 39.2494C59.4703 39.4315 60.2268 39.7769 60.8254 40.4124C61.6011 41.2355 61.9047 42.2512 61.9783 43.3486C62.0403 44.2731 61.9985 45.1995 62.0015 46.1255C62.0015 46.2707 62.0353 46.3146 62.1871 46.3136C63.2576 46.3065 64.3283 46.3065 65.3992 46.3136C65.5757 46.3136 65.6135 46.2632 65.6135 46.0957C65.6082 42.6441 65.6082 39.1922 65.6135 35.7402C65.6135 35.5385 65.555 35.5002 65.3654 35.5002C56.2444 35.5062 47.1233 35.5081 38.0023 35.5057ZM57.2033 17.0507V16.8333C57.2033 15.5992 57.1957 14.3646 57.2103 13.1305C57.2103 12.9025 57.1286 12.7931 56.9441 12.6973C56.3484 12.3871 55.71 12.2101 55.0589 12.0724C53.5095 11.7446 51.9365 11.6185 50.3585 11.5539C48.5841 11.4785 46.8071 11.4972 45.0347 11.6099C43.7346 11.6941 42.4414 11.8258 41.1685 12.1117C40.5436 12.2524 39.9294 12.4274 39.368 12.7512C39.249 12.8198 39.1935 12.898 39.1961 13.0478C39.2072 13.6647 39.2072 14.2819 39.1961 14.8992C39.192 15.0782 39.2495 15.114 39.4155 15.115C41.6572 15.1322 43.898 15.1882 46.1352 15.3299C47.8116 15.4363 49.484 15.5846 51.1498 15.8095C52.7132 16.0208 54.2645 16.2861 55.7942 16.6739C56.2602 16.7919 56.7237 16.9216 57.2033 17.0507ZM27.6408 11.5086C26.5681 11.5161 25.3037 11.5484 24.0414 11.6508C22.8814 11.7451 21.7275 11.8797 20.5942 12.1521C20.0208 12.2903 19.458 12.4612 18.9441 12.7638C18.8975 12.7874 18.8592 12.8244 18.8341 12.8702C18.809 12.9159 18.7983 12.9681 18.8034 13.02C18.8084 14.2985 18.8109 15.5775 18.8034 16.853C18.8034 17.0441 18.8538 17.0446 19.0086 16.9982C20.7329 16.4848 22.4931 16.1409 24.2723 15.8852C25.5428 15.7031 26.8177 15.5659 28.0962 15.458C29.4892 15.341 30.8842 15.2643 32.2822 15.2058C33.7422 15.1453 35.2028 15.1246 36.6633 15.1105C36.7949 15.1105 36.8146 15.0601 36.8116 14.9461C36.807 14.2975 36.806 13.6489 36.8116 13.0004C36.8154 12.9544 36.8054 12.9084 36.7827 12.8683C36.76 12.8282 36.7258 12.7958 36.6845 12.7754C36.3987 12.605 36.094 12.4684 35.7767 12.3684C34.5945 11.9756 33.367 11.8162 32.1354 11.6947C30.7046 11.557 29.2698 11.5116 27.6408 11.5086Z" fill="#D2D2D2"/>
</svg>
