<svg width="76" height="101" viewBox="0 0 76 101" fill="none" xmlns="http://www.w3.org/2000/svg">
<path d="M34.7912 86.305V99.895H36.0362V86.305H34.7912ZM25.7162 87.46V96.625H32.1062V87.46H30.8612V91.045H26.9462V87.46H25.7162ZM26.9462 92.035H30.8612V95.605H26.9462V92.035ZM49.055 86.32V99.88H50.255V86.32H49.055ZM43.43 91.495V92.515H46.835V91.495H43.43ZM46.325 86.635V99.19H47.51V86.635H46.325ZM39.245 95.575V96.625H40.115C42.275 96.625 43.58 96.565 45.125 96.235L45.005 95.2C43.505 95.515 42.23 95.575 40.115 95.575H39.245ZM39.245 87.97V95.98H40.475V88.99H44.345V87.97H39.245Z" fill="#7D7D7D"/>
<path d="M27.2825 60.71C26.5112 60.0552 26.4053 59.7586 26.881 59.0069C29.0638 55.5699 29.6817 51.7864 29.7908 47.8869C29.8208 46.8137 29.775 45.7375 29.8303 44.6657C29.8572 44.1269 29.6723 43.8567 29.1507 43.6028C25.1361 41.6545 22.2295 38.7857 20.796 34.7335C20.4745 33.8663 20.2784 32.9633 20.2128 32.0482C20.1922 31.6944 20.0453 31.5079 19.7007 31.3405C18.4015 30.7034 17.7867 29.4393 18.0664 28.0885C18.3241 26.8509 19.4336 25.9274 20.8608 25.7483C21.5942 25.6572 22.3307 25.713 23.0641 25.7027C23.927 25.6925 23.9349 25.7027 23.6615 24.9687C22.5836 22.1013 21.9514 19.1429 21.6131 16.1258C21.3093 13.2298 21.1853 10.32 21.2417 7.41072C21.2417 6.83666 21.1216 6.64433 20.4673 6.67663C19.432 6.73096 19.078 6.35804 19.0748 5.38757C19.0748 4.25512 19.0748 3.12267 19.0748 1.99021C19.078 1.06673 19.4478 0.709961 20.4325 0.709961H56.4337C57.4326 0.709961 57.8104 1.05939 57.8151 1.97847C57.8151 3.12952 57.8151 4.28155 57.8151 5.43456C57.8151 6.35804 57.4405 6.7427 56.4432 6.68251C55.7446 6.6414 55.6055 6.87924 55.653 7.45624C55.6909 8.0802 55.6909 8.70566 55.653 9.32963C55.6403 9.63501 55.7367 9.73778 56.0734 9.72457C56.6819 9.70255 57.292 9.70695 57.9021 9.72457C58.7299 9.74436 59.5178 10.0593 60.1025 10.604C60.6871 11.1488 61.0238 11.8816 61.0426 12.6506C61.1042 14.201 59.7513 15.587 58.0222 15.6883C57.2683 15.7338 56.5096 15.7177 55.7541 15.7C55.4238 15.7 55.2894 15.7558 55.2547 16.0994C54.944 19.2065 54.2264 22.2667 53.1178 25.2124C52.974 25.5897 52.9961 25.7292 53.4766 25.7042C54.1262 25.6704 54.7805 25.6895 55.4317 25.6969C57.1292 25.716 58.4126 26.5778 58.7808 27.9461C59.1649 29.3644 58.5374 30.6226 57.0296 31.4007C56.928 31.4464 56.8418 31.5171 56.7805 31.6051C56.7192 31.6931 56.6851 31.7951 56.6819 31.8999C56.0086 37.2925 52.7811 41.0188 47.793 43.5661C47.2414 43.8479 47.028 44.1166 47.0486 44.7098C47.1165 46.7579 47.0754 48.806 47.2983 50.8511C47.6144 53.72 48.4205 56.4302 49.9725 58.9393C50.4941 59.7806 50.3456 60.2137 49.4747 60.7011L27.2825 60.71ZM38.5137 6.70159C33.6599 6.70159 28.8045 6.70159 23.9507 6.69131C23.4766 6.69131 23.3486 6.78968 23.3659 7.23307C23.4197 8.55443 23.4007 9.88754 23.4387 11.2148C23.573 15.9746 24.1847 20.6566 26.0149 25.1492C26.1967 25.5897 26.4211 25.716 26.9127 25.7115C30.1274 25.6895 33.3438 25.7013 36.5539 25.7013H50.0437C50.3519 25.7013 50.6127 25.7483 50.7739 25.3474C51.9681 22.3483 52.7544 19.2223 53.1146 16.0421C53.1447 15.7896 53.0957 15.6971 52.7985 15.7059C52.2318 15.7292 51.664 15.7238 51.0979 15.6898C49.3988 15.562 48.0775 14.2098 48.1186 12.6741C48.1352 11.9065 48.4681 11.174 49.0489 10.6277C49.6297 10.0813 50.414 9.76282 51.2401 9.73778C51.8277 9.70989 52.4164 9.70989 53.004 9.73778C53.4371 9.76421 53.5303 9.61299 53.5129 9.24301C53.475 8.59994 53.475 7.95542 53.5129 7.31235C53.5477 6.8352 53.4149 6.69572 52.8807 6.69719C48.0965 6.7104 43.3043 6.70159 38.5137 6.70159ZM38.4426 31.7149H23.69C22.2754 31.7149 22.2785 31.7149 22.5836 33.0113C23.4213 36.535 25.5566 39.2643 28.8298 41.0995C35.1994 44.6701 41.6985 44.6833 48.057 41.0995C51.5863 39.1072 53.8006 36.1488 54.447 32.267C54.5387 31.7193 54.338 31.7135 53.8923 31.7135C48.7418 31.7213 43.592 31.7218 38.4426 31.7149ZM47.3805 58.703C47.2224 58.355 47.096 58.0716 46.9648 57.7898C45.9754 55.6536 45.4522 53.4175 45.1851 51.1198C44.9528 49.1554 44.9402 47.1851 44.9354 45.2148C44.9354 44.8213 44.8659 44.6995 44.4107 44.8404C43.1324 45.2236 41.8126 45.4752 40.4752 45.5907C37.8544 45.8434 35.2056 45.6094 32.6832 44.9021C31.9767 44.7068 31.9735 44.7127 31.9656 45.4306C31.9545 46.3115 31.9656 47.1924 31.934 48.066C31.8297 50.9803 31.4835 53.8609 30.4183 56.6284C30.1527 57.317 29.8335 57.988 29.5253 58.7015L47.3805 58.703ZM38.4173 29.7065H55.0539C55.2642 29.7065 55.4744 29.7065 55.6862 29.6932C56.3184 29.6316 56.7214 29.2528 56.7261 28.7213C56.7309 28.1898 56.3468 27.8096 55.7067 27.7274C55.5404 27.7095 55.373 27.7026 55.2057 27.7068C44.0303 27.7068 32.8549 27.7068 21.6795 27.7068C21.4281 27.7014 21.177 27.7251 20.9319 27.7773C20.7101 27.8352 20.5153 27.9599 20.3779 28.1317C20.2405 28.3036 20.1683 28.5128 20.1727 28.7268C20.177 28.9408 20.2576 29.1475 20.4019 29.3144C20.5461 29.4813 20.7459 29.599 20.9699 29.6492C21.2383 29.6941 21.5113 29.7118 21.7838 29.7021C27.3262 29.706 32.8707 29.7074 38.4173 29.7065ZM38.4173 4.70193C43.6741 4.70193 48.9299 4.70193 54.1847 4.70193C54.6588 4.70193 55.291 4.8928 55.5771 4.61972C55.8632 4.34664 55.6087 3.76524 55.6751 3.32625C55.7541 2.80211 55.5455 2.69787 54.9986 2.69787C44.251 2.71549 33.5087 2.72087 22.7717 2.71402C22.2738 2.71402 21.621 2.51435 21.3176 2.79918C21.0141 3.084 21.2812 3.69183 21.2196 4.1499C21.158 4.60797 21.3476 4.71662 21.8313 4.71662C27.3584 4.69606 32.887 4.70193 38.4157 4.70193H38.4173ZM54.564 11.7213C53.5556 11.7213 52.5472 11.7213 51.5404 11.7213C50.7834 11.7213 50.3092 12.1089 50.295 12.6932C50.2808 13.2776 50.7565 13.7048 51.4993 13.7092C53.5561 13.7219 55.6135 13.7219 57.6713 13.7092C58.4173 13.7092 58.8915 13.2864 58.8851 12.702C58.8788 12.1177 58.4031 11.7286 57.6492 11.7213C56.6202 11.7125 55.5913 11.7213 54.564 11.7213Z" fill="#D2D2D2"/>
<path d="M35.5993 16.2725C35.7956 16.273 35.9874 16.3277 36.1503 16.4296C36.3132 16.5314 36.44 16.6759 36.5145 16.8447C36.589 17.0135 36.6079 17.199 36.5688 17.3778C36.5298 17.5566 36.4346 17.7206 36.2951 17.849C36.1557 17.9775 35.9784 18.0647 35.7857 18.0995C35.5929 18.1344 35.3933 18.1153 35.2122 18.0448C35.0311 17.9742 34.8766 17.8553 34.7683 17.7032C34.6599 17.5511 34.6026 17.3725 34.6035 17.1901C34.6052 16.9459 34.7109 16.7123 34.8975 16.5403C35.0841 16.3684 35.3364 16.2721 35.5993 16.2725V16.2725Z" fill="#D2D2D2"/>
<path d="M39.2725 19.6139C39.2728 19.7958 39.2151 19.9738 39.1066 20.1253C38.9981 20.2768 38.8437 20.395 38.6629 20.465C38.4822 20.535 38.2831 20.5537 38.0909 20.5187C37.8987 20.4837 37.722 20.3966 37.583 20.2684C37.4441 20.1401 37.3492 19.9765 37.3103 19.7982C37.2714 19.6199 37.2902 19.4348 37.3645 19.2665C37.4387 19.0981 37.565 18.9539 37.7273 18.8522C37.8897 18.7505 38.0809 18.6957 38.2768 18.6948C38.5399 18.6944 38.7925 18.791 38.9791 18.9632C39.1657 19.1355 39.2713 19.3695 39.2725 19.6139Z" fill="#D2D2D2"/>
<path d="M38.2847 22.062C38.4811 22.0623 38.6729 22.1167 38.836 22.2183C38.9991 22.3199 39.1261 22.4642 39.2009 22.6329C39.2757 22.8016 39.2949 22.9871 39.2562 23.1659C39.2174 23.3447 39.1225 23.5089 38.9833 23.6376C38.8441 23.7662 38.6669 23.8537 38.4742 23.8888C38.2815 23.9239 38.0819 23.9052 37.9007 23.8349C37.7195 23.7646 37.5648 23.646 37.4562 23.494C37.3475 23.342 37.2899 23.1635 37.2905 22.9811C37.2907 22.8601 37.3166 22.7403 37.3667 22.6286C37.4168 22.5169 37.4901 22.4154 37.5825 22.3301C37.6748 22.2447 37.7843 22.1771 37.9048 22.1311C38.0253 22.0851 38.1544 22.0616 38.2847 22.062V22.062Z" fill="#D2D2D2"/>
<path d="M32.6674 14.5962C32.8638 14.5968 33.0555 14.6515 33.2184 14.7533C33.3814 14.8552 33.5081 14.9996 33.5826 15.1684C33.6571 15.3372 33.676 15.5227 33.637 15.7015C33.5979 15.8803 33.5027 16.0443 33.3633 16.1728C33.2238 16.3012 33.0465 16.3884 32.8538 16.4232C32.661 16.4581 32.4614 16.439 32.2804 16.3685C32.0993 16.2979 31.9447 16.1791 31.8364 16.0269C31.728 15.8748 31.6707 15.6962 31.6716 15.5138C31.6733 15.2696 31.779 15.036 31.9656 14.8641C32.1522 14.6921 32.4045 14.5958 32.6674 14.5962V14.5962Z" fill="#D2D2D2"/>
<path d="M29.9552 16.2725C30.1515 16.273 30.3432 16.3277 30.5061 16.4295C30.669 16.5313 30.7957 16.6757 30.8703 16.8444C30.9448 17.0131 30.9638 17.1985 30.9249 17.3772C30.886 17.556 30.7909 17.72 30.6517 17.8485C30.5124 17.977 30.3352 18.0643 30.1426 18.0993C29.9499 18.1343 29.7504 18.1155 29.5693 18.0452C29.3882 17.9749 29.2335 17.8562 29.125 17.7043C29.0165 17.5523 28.9589 17.3739 28.9595 17.1915C28.9599 17.0705 28.986 16.9506 29.0362 16.8389C29.0865 16.7272 29.16 16.6258 29.2524 16.5404C29.3449 16.4551 29.4545 16.3875 29.5751 16.3415C29.6957 16.2955 29.8249 16.2721 29.9552 16.2725V16.2725Z" fill="#D2D2D2"/>
<path d="M46.9396 16.1714C47.1359 16.172 47.3276 16.2266 47.4905 16.3284C47.6534 16.4302 47.7801 16.5746 47.8546 16.7433C47.9292 16.912 47.9482 17.0974 47.9093 17.2762C47.8704 17.4549 47.7753 17.6189 47.636 17.7474C47.4968 17.876 47.3196 17.9633 47.127 17.9983C46.9343 18.0333 46.7348 18.0144 46.5537 17.9441C46.3725 17.8738 46.2179 17.7552 46.1094 17.6032C46.0008 17.4513 45.9432 17.2728 45.9439 17.0905C45.9443 16.9694 45.9703 16.8496 46.0206 16.7379C46.0709 16.6261 46.1443 16.5247 46.2368 16.4394C46.3293 16.354 46.4389 16.2864 46.5595 16.2405C46.6801 16.1945 46.8092 16.171 46.9396 16.1714V16.1714Z" fill="#D2D2D2"/>
<path d="M44.3949 14.75C44.5912 14.7506 44.7829 14.8052 44.9458 14.907C45.1087 15.0088 45.2354 15.1532 45.31 15.3219C45.3845 15.4906 45.4035 15.676 45.3646 15.8548C45.3257 16.0335 45.2306 16.1975 45.0914 16.3261C44.9521 16.4546 44.7749 16.5419 44.5823 16.5769C44.3896 16.6119 44.1901 16.593 44.009 16.5227C43.8279 16.4524 43.6732 16.3338 43.5647 16.1818C43.4562 16.0299 43.3986 15.8514 43.3992 15.6691C43.3996 15.548 43.4257 15.4282 43.4759 15.3165C43.5262 15.2048 43.5997 15.1033 43.6921 15.018C43.7846 14.9326 43.8942 14.865 44.0148 14.8191C44.1354 14.7731 44.2646 14.7496 44.3949 14.75V14.75Z" fill="#D2D2D2"/>
<path d="M41.2418 16.2725C41.4381 16.273 41.6299 16.3277 41.7927 16.4295C41.9556 16.5313 42.0823 16.6757 42.1569 16.8444C42.2314 17.0131 42.2505 17.1985 42.2115 17.3772C42.1726 17.556 42.0775 17.72 41.9383 17.8485C41.799 17.977 41.6219 18.0643 41.4292 18.0993C41.2365 18.1343 41.037 18.1155 40.8559 18.0452C40.6748 17.9749 40.5202 17.8562 40.4116 17.7043C40.3031 17.5523 40.2455 17.3739 40.2461 17.1915C40.2465 17.0705 40.2726 16.9506 40.3229 16.8389C40.3731 16.7272 40.4466 16.6258 40.539 16.5404C40.6315 16.4551 40.7412 16.3875 40.8617 16.3415C40.9823 16.2955 41.1115 16.2721 41.2418 16.2725V16.2725Z" fill="#D2D2D2"/>
</svg>
