<svg width="65" height="90" viewBox="0 0 65 90" fill="none" xmlns="http://www.w3.org/2000/svg">
<path d="M13.9237 90C12.7668 89.0178 12.608 88.5729 13.3216 87.4454C16.5956 82.2899 17.5226 76.6146 17.6862 70.7654C17.7312 69.1555 17.6625 67.5413 17.7455 65.9336C17.7858 65.1254 17.5084 64.7202 16.726 64.3392C10.7042 61.4168 6.34432 57.1136 4.19402 51.0353C3.71177 49.7345 3.4176 48.3801 3.3192 47.0074C3.28837 46.4766 3.06789 46.1969 2.55106 45.9459C0.602268 44.9901 -0.31997 43.0939 0.0996602 41.0679C0.486099 39.2113 2.15039 37.8261 4.29122 37.5574C5.39127 37.4209 6.49606 37.5046 7.5961 37.4892C8.89056 37.4738 8.90241 37.4892 8.49226 36.388C6.87538 32.087 5.92707 27.6494 5.41972 23.1238C4.9639 18.7798 4.77788 14.415 4.86258 10.0511C4.86258 9.19005 4.6824 8.90156 3.70089 8.95001C2.14802 9.03149 1.61697 8.47212 1.61223 7.01642C1.61223 5.31774 1.61223 3.61906 1.61223 1.92038C1.61697 0.535151 2.17173 0 3.64874 0H57.6506C59.149 0 59.7156 0.524139 59.7227 1.90276C59.7227 3.62933 59.7227 5.35738 59.7227 7.08689C59.7227 8.47212 59.1608 9.04911 57.6648 8.95882C56.617 8.89715 56.4083 9.25392 56.4795 10.1194C56.5364 11.0554 56.5364 11.9936 56.4795 12.9295C56.4605 13.3876 56.6051 13.5417 57.1101 13.5219C58.0228 13.4889 58.938 13.4955 59.8531 13.5219C61.0948 13.5516 62.2767 14.0239 63.1537 14.8411C64.0307 15.6582 64.5356 16.7575 64.5639 17.911C64.6563 20.2366 62.6269 22.3156 60.0333 22.4675C58.9024 22.5358 57.7644 22.5116 56.6312 22.4851C56.1357 22.4851 55.9342 22.5688 55.882 23.0842C55.4159 27.7448 54.3395 32.3352 52.6767 36.7536C52.461 37.3196 52.4942 37.5288 53.2149 37.4914C54.1893 37.4407 55.1708 37.4694 56.1475 37.4804C58.6938 37.509 60.6189 38.8017 61.1712 40.8542C61.7473 42.9816 60.8061 44.869 58.5444 46.0362C58.392 46.1047 58.2628 46.2107 58.1708 46.3427C58.0788 46.4748 58.0276 46.6277 58.0228 46.7849C57.0129 54.8739 52.1717 60.4632 44.6895 64.2841C43.8621 64.707 43.542 65.11 43.5729 65.9997C43.6748 69.0719 43.6132 72.144 43.9474 75.2118C44.4216 79.515 45.6307 83.5804 47.9588 87.3441C48.7412 88.606 48.5183 89.2556 47.212 89.9868L13.9237 90ZM30.7706 8.98745C23.4899 8.98745 16.2068 8.98745 8.92612 8.97203C8.21488 8.97203 8.02285 9.11958 8.04892 9.78467C8.12953 11.7667 8.10108 13.7664 8.15798 15.7572C8.3595 22.897 9.27699 29.92 12.0224 36.6589C12.295 37.3196 12.6317 37.509 13.369 37.5024C18.1912 37.4693 23.0157 37.487 27.8308 37.487H48.0655C48.5278 37.487 48.919 37.5574 49.1608 36.9562C50.9522 32.4575 52.1317 27.7686 52.672 22.9983C52.717 22.6195 52.6435 22.4807 52.1978 22.4939C51.3476 22.5288 50.4961 22.5207 49.6468 22.4697C47.0982 22.2781 45.1162 20.2498 45.1779 17.9463C45.2027 16.7948 45.7022 15.696 46.5734 14.8766C47.4446 14.0571 48.621 13.5793 49.8602 13.5417C50.7416 13.4999 51.6246 13.4999 52.506 13.5417C53.1556 13.5814 53.2955 13.3545 53.2694 12.7996C53.2125 11.835 53.2125 10.8682 53.2694 9.90359C53.3216 9.18785 53.1224 8.97864 52.3211 8.98084C45.1447 9.00066 37.9565 8.98745 30.7706 8.98745ZM30.6639 46.5075H8.53494C6.41308 46.5075 6.41782 46.5075 6.87538 48.452C8.1319 53.7375 11.3348 57.8315 16.2447 60.5843C25.799 65.9402 35.5477 65.9601 45.0854 60.5843C50.3794 57.5959 53.7009 53.1583 54.6705 47.3355C54.808 46.5141 54.507 46.5052 53.8384 46.5052C46.1128 46.517 38.3879 46.5177 30.6639 46.5075ZM44.0707 86.9895C43.8336 86.4676 43.644 86.0425 43.4472 85.6197C41.9631 82.4154 41.1784 79.0613 40.7777 75.6148C40.4292 72.6682 40.4102 69.7127 40.4031 66.7573C40.4031 66.1671 40.2988 65.9843 39.616 66.1957C37.6985 66.7705 35.7189 67.1479 33.7127 67.3211C29.7816 67.7002 25.8084 67.3491 22.0247 66.2882C20.965 65.9953 20.9603 66.0041 20.9484 67.081C20.9318 68.4024 20.9484 69.7237 20.901 71.0341C20.7445 75.4056 20.2253 79.7264 18.6274 83.8777C18.2291 84.9106 17.7502 85.917 17.2879 86.9873L44.0707 86.9895ZM30.626 43.4948H55.5809C55.8962 43.4948 56.2116 43.4948 56.5292 43.4749C57.4776 43.3824 58.0821 42.8143 58.0892 42.017C58.0963 41.2198 57.5202 40.6494 56.5601 40.5261C56.3107 40.4992 56.0595 40.4889 55.8085 40.4953C39.0454 40.4953 22.2824 40.4953 5.51929 40.4953C5.14222 40.4872 4.76554 40.5227 4.3979 40.601C4.0652 40.6879 3.77293 40.8749 3.56685 41.1327C3.36077 41.3904 3.2525 41.7043 3.25901 42.0253C3.26551 42.3463 3.38642 42.6563 3.6028 42.9066C3.81918 43.157 4.11881 43.3336 4.4548 43.4089C4.85751 43.4762 5.26689 43.5028 5.67576 43.4881C13.9893 43.494 22.3061 43.4962 30.626 43.4948ZM30.626 5.98796C38.5112 5.98796 46.3949 5.98796 54.277 5.98796C54.9882 5.98796 55.9365 6.27426 56.3657 5.86463C56.7948 5.45501 56.4131 4.58292 56.5126 3.92444C56.6312 3.13823 56.3182 2.98187 55.4979 2.98187C39.3766 3.0083 23.2631 3.01637 7.15751 3.00609C6.41071 3.00609 5.43157 2.70658 4.97638 3.13382C4.52119 3.56106 4.92185 4.4728 4.82939 5.15991C4.73693 5.84702 5.02142 6.00998 5.74689 6.00998C14.0375 5.97915 22.3306 5.98796 30.6236 5.98796H30.626ZM54.846 16.517C53.3334 16.517 51.8208 16.517 50.3107 16.517C49.175 16.517 48.4638 17.0984 48.4425 17.9749C48.4211 18.8514 49.1347 19.4923 50.249 19.4989C53.3342 19.5179 56.4202 19.5179 59.507 19.4989C60.626 19.4989 61.3372 18.8646 61.3277 17.9881C61.3182 17.1116 60.6046 16.528 59.4738 16.517C57.9304 16.5038 56.387 16.517 54.846 16.517Z" fill="#D2D2D2"/>
<path d="M26.3989 23.3438C26.6935 23.3446 26.9811 23.4266 27.2255 23.5794C27.4699 23.7322 27.6599 23.9489 27.7717 24.2021C27.8834 24.4553 27.9118 24.7335 27.8533 25.0017C27.7947 25.2699 27.6518 25.5159 27.4427 25.7086C27.2336 25.9013 26.9676 26.0321 26.6785 26.0843C26.3893 26.1366 26.09 26.108 25.8184 26.0022C25.5467 25.8964 25.315 25.7181 25.1524 25.4899C24.9899 25.2617 24.9039 24.9938 24.9053 24.7202C24.9078 24.3539 25.0663 24.0035 25.3462 23.7456C25.6261 23.4876 26.0046 23.3432 26.3989 23.3438Z" fill="#D2D2D2"/>
<path d="M31.9088 28.3562C31.9092 28.6291 31.8226 28.896 31.6599 29.1232C31.4971 29.3504 31.2656 29.5278 30.9944 29.6328C30.7232 29.7378 30.4246 29.7659 30.1363 29.7134C29.848 29.6609 29.5829 29.5302 29.3745 29.3378C29.1661 29.1455 29.0238 28.9001 28.9654 28.6326C28.9071 28.3651 28.9353 28.0876 29.0467 27.835C29.158 27.5825 29.3475 27.3662 29.591 27.2136C29.8346 27.061 30.1214 26.9788 30.4152 26.9775C30.8098 26.977 31.1887 27.1217 31.4686 27.3801C31.7486 27.6386 31.9069 27.9895 31.9088 28.3562Z" fill="#D2D2D2"/>
<path d="M30.427 32.0283C30.7216 32.0288 31.0094 32.1104 31.254 32.2628C31.4987 32.4152 31.6891 32.6316 31.8013 32.8846C31.9135 33.1376 31.9424 33.4159 31.8843 33.6841C31.8262 33.9524 31.6837 34.1986 31.4749 34.3916C31.2661 34.5847 31.0004 34.7158 30.7113 34.7685C30.4223 34.8212 30.1229 34.793 29.8511 34.6876C29.5792 34.5822 29.3472 34.4042 29.1842 34.1763C29.0213 33.9483 28.9349 33.6806 28.9358 33.4069C28.9361 33.2254 28.9749 33.0457 29.0501 32.8782C29.1252 32.7106 29.2352 32.5585 29.3737 32.4304C29.5122 32.3024 29.6765 32.201 29.8573 32.132C30.038 32.063 30.2316 32.0277 30.427 32.0283Z" fill="#D2D2D2"/>
<path d="M22.0009 20.8291C22.2955 20.83 22.5832 20.912 22.8275 21.0648C23.0719 21.2176 23.262 21.4343 23.3737 21.6874C23.4855 21.9406 23.5139 22.2189 23.4553 22.4871C23.3968 22.7552 23.2539 23.0012 23.0448 23.194C22.8356 23.3867 22.5697 23.5174 22.2805 23.5697C21.9914 23.6219 21.6921 23.5934 21.4204 23.4875C21.1488 23.3817 20.917 23.2034 20.7545 22.9752C20.5919 22.747 20.5059 22.4791 20.5073 22.2055C20.5098 21.8393 20.6684 21.4889 20.9483 21.2309C21.2282 20.973 21.6067 20.8285 22.0009 20.8291Z" fill="#D2D2D2"/>
<path d="M17.9328 23.3438C18.2273 23.3446 18.5149 23.4266 18.7592 23.5793C19.0035 23.732 19.1936 23.9485 19.3054 24.2016C19.4172 24.4546 19.4458 24.7328 19.3874 25.0009C19.329 25.269 19.1864 25.515 18.9775 25.7078C18.7686 25.9006 18.5029 26.0316 18.2139 26.0841C17.9249 26.1366 17.6256 26.1083 17.3539 26.0028C17.0822 25.8973 16.8503 25.7194 16.6875 25.4915C16.5247 25.2636 16.4383 24.9959 16.4392 24.7224C16.4398 24.5408 16.479 24.361 16.5544 24.1935C16.6298 24.0259 16.74 23.8737 16.8786 23.7457C17.0173 23.6177 17.1818 23.5163 17.3627 23.4473C17.5436 23.3784 17.7373 23.3432 17.9328 23.3438Z" fill="#D2D2D2"/>
<path d="M43.4094 23.1919C43.7038 23.1928 43.9914 23.2747 44.2357 23.4274C44.4801 23.5801 44.6701 23.7967 44.782 24.0497C44.8938 24.3028 44.9223 24.5809 44.8639 24.8491C44.8056 25.1172 44.6629 25.3632 44.4541 25.556C44.2452 25.7488 43.9794 25.8797 43.6904 25.9322C43.4014 25.9847 43.1022 25.9565 42.8305 25.851C42.5588 25.7455 42.3269 25.5675 42.1641 25.3396C42.0012 25.1117 41.9148 24.8441 41.9158 24.5705C41.9164 24.3889 41.9555 24.2092 42.0309 24.0416C42.1063 23.874 42.2165 23.7219 42.3552 23.5939C42.4939 23.4658 42.6584 23.3645 42.8393 23.2955C43.0201 23.2265 43.2139 23.1913 43.4094 23.1919Z" fill="#D2D2D2"/>
<path d="M39.5922 21.0601C39.8867 21.0609 40.1743 21.1429 40.4186 21.2956C40.6629 21.4483 40.853 21.6649 40.9648 21.9179C41.0766 22.1709 41.1052 22.4491 41.0468 22.7172C40.9884 22.9853 40.8458 23.2313 40.6369 23.4241C40.428 23.6169 40.1623 23.7479 39.8733 23.8004C39.5843 23.8529 39.285 23.8246 39.0134 23.7191C38.7417 23.6137 38.5097 23.4357 38.3469 23.2078C38.1841 22.9799 38.0977 22.7122 38.0986 22.4387C38.0993 22.2571 38.1384 22.0773 38.2138 21.9098C38.2892 21.7422 38.3994 21.59 38.5381 21.462C38.6768 21.334 38.8412 21.2326 39.0221 21.1637C39.203 21.0947 39.3967 21.0595 39.5922 21.0601Z" fill="#D2D2D2"/>
<path d="M34.8627 23.3438C35.1572 23.3446 35.4448 23.4266 35.6891 23.5793C35.9334 23.732 36.1235 23.9485 36.2353 24.2016C36.3472 24.4546 36.3757 24.7328 36.3173 25.0009C36.2589 25.269 36.1163 25.515 35.9074 25.7078C35.6985 25.9006 35.4328 26.0316 35.1438 26.0841C34.8548 26.1366 34.5556 26.1083 34.2839 26.0028C34.0122 25.8973 33.7803 25.7194 33.6174 25.4915C33.4546 25.2636 33.3682 24.9959 33.3691 24.7224C33.3698 24.5408 33.4089 24.361 33.4843 24.1935C33.5597 24.0259 33.6699 23.8737 33.8086 23.7457C33.9473 23.6177 34.1117 23.5163 34.2926 23.4473C34.4735 23.3784 34.6672 23.3432 34.8627 23.3438Z" fill="#D2D2D2"/>
</svg>
