<svg width="70" height="46" viewBox="0 0 70 46" fill="none" xmlns="http://www.w3.org/2000/svg">
<path d="M34.9999 28.5083C23.5646 28.5083 12.1293 28.513 0.693993 28.5223C0.140507 28.5223 -0.0010521 28.4037 0.00149852 27.8349C0.0244541 21.0886 0.0168023 14.3422 0.0168023 7.59448C0.0155269 3.96622 2.87733 0.650409 6.47626 0.110952C6.95748 0.038177 7.44342 0.00109179 7.93011 0C26.0242 0.00510125 44.1217 0.00510125 62.2227 0C66.2552 0 69.645 3.14874 69.9166 7.1545C69.9562 7.74369 69.9804 8.33671 69.9804 8.92846C69.9804 15.2502 69.9804 21.5732 69.9957 27.8949C69.9957 28.405 69.8682 28.5172 69.3695 28.516C57.9138 28.5049 46.4573 28.5024 34.9999 28.5083ZM41.958 18.7471V18.6999C43.4883 18.6999 45.0187 18.6922 46.5389 18.6999C47.049 18.6999 47.4431 18.5456 47.7364 18.1196C48.3613 17.2129 48.9964 16.3138 49.6315 15.4134C49.9669 14.9377 49.9606 14.4761 49.6162 14.0106C49.1673 13.3946 48.7235 12.7735 48.2835 12.1524C47.3462 10.8389 47.3474 10.8389 46.192 11.9956C45.2993 12.8883 45.1156 12.896 44.2382 11.9956C42.9183 10.645 43.0547 10.8478 41.898 11.9956C41.0181 12.8692 40.8293 12.8704 39.9417 11.9841C38.9763 11.0187 38.9763 11.0187 37.9471 11.8936C37.4918 12.2761 36.9498 12.141 36.8452 11.562C36.7407 10.983 36.4002 10.7968 35.8658 10.7968C35.5687 10.7968 35.2702 10.7828 34.9731 10.7968C34.6759 10.8108 34.4936 10.7305 34.3099 10.4537C32.3319 7.49501 28.7368 6.24903 25.407 7.35855C22.0274 8.48465 19.8836 11.6946 20.1068 15.3025C20.307 18.5545 22.6714 21.424 25.8635 22.2886C29.0914 23.1622 32.4199 21.9328 34.2691 19.1679C34.463 18.8784 34.6581 18.7382 35.0343 18.7407C37.3388 18.7598 39.6497 18.7471 41.958 18.7471Z" fill="#D2D2D2"/>
<path d="M34.992 37.1586H69.2979C70.0631 37.1586 70.0337 37.1587 69.9712 37.9417C69.7353 40.9438 68.3401 43.1896 65.6581 44.5924C64.5983 45.1393 63.4201 45.417 62.2276 45.401C44.028 45.401 25.8276 45.401 7.62636 45.401C3.50838 45.401 0.020405 41.8926 0 37.7695C0 37.2594 0.133908 37.1472 0.626178 37.1484C12.0819 37.1621 23.5372 37.1655 34.992 37.1586Z" fill="#D2D2D2"/>
<path d="M26.242 14.8345C26.2557 14.57 26.2171 14.3054 26.1283 14.0559C26.0395 13.8064 25.9023 13.5769 25.7245 13.3805C25.5468 13.1842 25.332 13.0249 25.0925 12.9117C24.853 12.7986 24.5936 12.7339 24.329 12.7213C24.0502 12.6833 23.7666 12.7034 23.4959 12.7803C23.2252 12.8572 22.9734 12.9892 22.7562 13.1681C22.539 13.347 22.3612 13.5688 22.2338 13.8197C22.1065 14.0706 22.0324 14.3452 22.0163 14.6261C22.0002 14.907 22.0423 15.1882 22.14 15.4521C22.2378 15.7159 22.3891 15.9567 22.5843 16.1593C22.7796 16.3618 23.0147 16.5218 23.2748 16.6292C23.5348 16.7366 23.8143 16.789 24.0956 16.7832C24.3655 16.8004 24.636 16.7633 24.8912 16.6739C25.1464 16.5846 25.3811 16.4449 25.5813 16.2632C25.7815 16.0814 25.9431 15.8613 26.0566 15.6159C26.1701 15.3705 26.2331 15.1048 26.242 14.8345Z" fill="#D2D2D2"/>
<path d="M26.2421 14.8345C26.2333 15.1051 26.1702 15.3712 26.0564 15.6168C25.9427 15.8625 25.7807 16.0828 25.5801 16.2646C25.3795 16.4464 25.1444 16.586 24.8887 16.6751C24.6331 16.7642 24.3621 16.801 24.092 16.7832C23.8107 16.789 23.5312 16.7366 23.2711 16.6292C23.011 16.5218 22.776 16.3618 22.5807 16.1593C22.3854 15.9567 22.2341 15.7159 22.1364 15.4521C22.0386 15.1882 21.9965 14.907 22.0126 14.6261C22.0288 14.3452 22.1028 14.0706 22.2302 13.8197C22.3575 13.5688 22.5354 13.347 22.7525 13.1681C22.9697 12.9892 23.2216 12.8572 23.4922 12.7803C23.7629 12.7034 24.0466 12.6833 24.3253 12.7213C24.5902 12.7334 24.8501 12.7978 25.09 12.9107C25.3299 13.0236 25.5452 13.1828 25.7233 13.3792C25.9015 13.5756 26.039 13.8053 26.1281 14.0551C26.2171 14.3048 26.2559 14.5697 26.2421 14.8345Z" fill="#D2D2D2"/>
</svg>
