<svg width="76" height="80" viewBox="0 0 76 80" fill="none" xmlns="http://www.w3.org/2000/svg">
<path d="M23.8118 66.1299V66.2649C23.8118 69.9549 22.4618 72.9849 18.1718 75.0999L18.8468 76.0599C23.7068 73.6449 25.0268 70.0449 25.0268 66.1299H23.8118ZM18.9068 66.1299V67.1349H24.5468V66.1299H18.9068ZM23.6168 69.4899L18.2318 69.8499L18.4268 70.9599L23.6168 70.4499V69.4899ZM27.2168 64.7049V78.2799H28.4768V64.7049H27.2168ZM28.1318 70.2099V71.2449H30.6368V70.2099H28.1318ZM33.3956 71.2149V72.2349H42.7106V71.2149H33.3956ZM31.8506 75.4149V76.4499H44.1356V75.4149H31.8506ZM33.3956 65.9649V71.6649H34.6406V66.9999H42.5756V65.9649H33.3956ZM51.6494 66.1299V66.2649C51.6494 69.9699 50.1944 72.9999 45.9044 75.0999L46.5794 76.0749C51.4694 73.6749 52.8494 70.0449 52.8494 66.1299H51.6494ZM46.6394 66.1299V67.1349H52.2794V66.1299H46.6394ZM51.4694 69.4899L45.9644 69.8499L46.1744 70.9449L51.4694 70.4499V69.4899ZM55.5194 64.7199V78.2799H56.7644V64.7199H55.5194Z" fill="#7D7D7D"/>
<path d="M38.0001 24.6256C28.1984 24.6256 18.3967 24.6296 8.59506 24.6377C8.12064 24.6377 7.99931 24.536 8.00149 24.0485C8.02117 18.2658 8.01461 12.4832 8.01461 6.6995C8.01352 3.58956 10.4665 0.747435 13.5513 0.285043C13.9638 0.222665 14.3803 0.190877 14.7974 0.189941C30.3067 0.194314 45.8189 0.194314 61.3339 0.189941C64.7904 0.189941 67.6959 2.88886 67.9287 6.32237C67.9626 6.82739 67.9834 7.33569 67.9834 7.8429C67.9834 13.2615 67.9834 18.6812 67.9965 24.0998C67.9965 24.5371 67.8872 24.6333 67.4598 24.6322C57.6406 24.6227 47.8207 24.6205 38.0001 24.6256ZM43.9642 16.2589V16.2184C45.2759 16.2184 46.5877 16.2119 47.8907 16.2184C48.3279 16.2184 48.6657 16.0862 48.9171 15.721C49.4528 14.9438 49.9971 14.1732 50.5415 13.4014C50.829 12.9937 50.8235 12.598 50.5284 12.199C50.1436 11.671 49.7632 11.1387 49.3861 10.6063C48.5826 9.4804 48.5837 9.4804 47.5934 10.4719C46.8282 11.2371 46.6708 11.2436 45.9187 10.4719C44.7873 9.31425 44.9043 9.48806 43.9128 10.4719C43.1586 11.2207 42.9968 11.2218 42.236 10.462C41.4085 9.63453 41.4085 9.63453 40.5263 10.3844C40.1361 10.7124 39.6715 10.5965 39.5819 10.1002C39.4922 9.60393 39.2004 9.44433 38.7423 9.44433C38.4876 9.44433 38.2318 9.43231 37.9771 9.44433C37.7224 9.45636 37.5661 9.38749 37.4087 9.15028C35.7133 6.61423 32.6318 5.54625 29.7776 6.49727C26.8808 7.4625 25.0433 10.2139 25.2346 13.3063C25.4062 16.0938 27.4329 18.5533 30.169 19.2945C32.9357 20.0433 35.7887 18.9895 37.3737 16.6196C37.5399 16.3715 37.7071 16.2512 38.0296 16.2534C40.0049 16.2698 41.9856 16.2589 43.9642 16.2589Z" fill="#D2D2D2"/>
<path d="M37.9931 32.04H67.3982C68.0541 32.04 68.0289 32.04 67.9753 32.7112C67.7731 35.2844 66.5772 37.2094 64.2784 38.4118C63.3699 38.8806 62.3601 39.1186 61.3379 39.1049C45.7383 39.1049 30.138 39.1049 14.5369 39.1049C11.0072 39.1049 8.01749 36.0977 8 32.5636C8 32.1264 8.11478 32.0302 8.53672 32.0313C18.3559 32.0429 28.1747 32.0458 37.9931 32.04Z" fill="#D2D2D2"/>
<path d="M30.4931 12.9055C30.5048 12.6787 30.4717 12.4519 30.3956 12.2381C30.3195 12.0242 30.2019 11.8275 30.0495 11.6592C29.8972 11.4909 29.7131 11.3543 29.5078 11.2573C29.3025 11.1604 29.0801 11.1049 28.8534 11.0941C28.6144 11.0616 28.3713 11.0788 28.1393 11.1447C27.9073 11.2106 27.6914 11.3237 27.5053 11.4771C27.3191 11.6304 27.1666 11.8206 27.0575 12.0356C26.9484 12.2507 26.8849 12.486 26.871 12.7268C26.8572 12.9676 26.8933 13.2086 26.9771 13.4348C27.0609 13.6609 27.1906 13.8673 27.3579 14.0409C27.5253 14.2146 27.7268 14.3517 27.9497 14.4438C28.1726 14.5358 28.4122 14.5807 28.6533 14.5757C28.8846 14.5905 29.1165 14.5587 29.3353 14.4821C29.554 14.4055 29.7551 14.2858 29.9267 14.13C30.0983 13.9742 30.2369 13.7856 30.3342 13.5752C30.4314 13.3648 30.4855 13.1371 30.4931 12.9055V12.9055Z" fill="#D2D2D2"/>
<path d="M30.4932 12.9055C30.4856 13.1374 30.4315 13.3654 30.334 13.576C30.2365 13.7866 30.0976 13.9754 29.9257 14.1313C29.7537 14.2871 29.5522 14.4067 29.3331 14.4831C29.114 14.5595 28.8817 14.591 28.6501 14.5757C28.409 14.5807 28.1695 14.5358 27.9465 14.4438C27.7236 14.3517 27.5221 14.2146 27.3548 14.0409C27.1874 13.8673 27.0577 13.6609 26.9739 13.4348C26.8901 13.2086 26.854 12.9676 26.8679 12.7268C26.8817 12.486 26.9452 12.2507 27.0543 12.0356C27.1635 11.8206 27.3159 11.6304 27.5021 11.4771C27.6882 11.3237 27.9041 11.2106 28.1361 11.1447C28.3681 11.0788 28.6112 11.0616 28.8502 11.0941C29.0772 11.1045 29.3 11.1597 29.5056 11.2564C29.7113 11.3532 29.8958 11.4897 30.0485 11.658C30.2011 11.8264 30.319 12.0233 30.3954 12.2373C30.4717 12.4514 30.5049 12.6785 30.4932 12.9055V12.9055Z" fill="#D2D2D2"/>
</svg>
