<svg width="76" height="92" viewBox="0 0 76 92" fill="none" xmlns="http://www.w3.org/2000/svg">
<g clip-path="url(#clip0_1205_113)">
<path d="M8 32.2747C8.43028 31.2703 9.18805 30.8767 10.2762 30.9531C11.6361 31.05 13.0136 30.8062 14.3632 31.0999C16.0814 31.4612 17.3002 32.4818 18.0345 34.0664C18.1814 34.3792 18.337 34.4878 18.6792 34.4849C20.3592 34.4673 22.0387 34.4673 23.7177 34.4849C24.0364 34.4849 24.2038 34.3982 24.3419 34.1075C24.803 33.1426 25.2803 32.1822 25.7825 31.238C25.9631 30.8973 25.9073 30.7695 25.5549 30.6079C22.797 29.3406 20.0479 28.0483 17.2973 26.7633C13.5804 25.0216 11.7007 21.8334 11.9841 17.7274C12.0561 16.6833 12.3924 15.7067 12.83 14.7654C14.2486 11.7128 15.6736 8.66214 17.1049 5.61345C18.7937 2.04197 21.9937 0.154902 25.9264 0.400147C27.0293 0.469168 28.0631 0.814275 29.0603 1.28127L66.6886 18.8215C68.0264 19.4456 68.3275 20.3737 67.6534 21.6704C66.9549 23.0505 65.9971 24.283 64.8324 25.3007C64.5857 25.5136 64.4799 25.6546 64.7281 25.985C65.1848 26.5944 65.0659 27.2597 64.756 27.9191C63.1543 31.3388 61.5575 34.761 59.9656 38.1856C59.6543 38.8553 59.3459 39.5278 59.0258 40.1946C58.4751 41.34 57.5822 41.6631 56.4221 41.1344C54.9359 40.4491 53.4541 39.7579 51.9768 39.0608C51.7286 38.9434 51.5465 38.892 51.2983 39.102C49.4641 40.6542 47.4537 40.8216 45.3052 39.8186C42.2213 38.378 39.1271 36.9491 36.0535 35.4938C35.6599 35.3073 35.4866 35.3102 35.2751 35.7464C34.3103 37.7436 33.2823 39.7114 32.3116 41.7072C31.2264 43.9423 29.4671 45.0187 26.9852 44.9923C24.3683 44.9658 21.7514 44.9923 19.1344 44.9746C18.6586 44.9746 18.4986 45.0686 18.5221 45.5723C18.5823 46.8852 18.5133 48.1878 17.8025 49.3626C16.87 50.8973 15.5204 51.8224 13.7273 51.9443C12.3865 52.0368 11.034 51.9869 9.68735 51.9825C8.80623 51.9825 8.34511 51.3951 8.00294 50.677L8 32.2747ZM47.8238 36.9462C48.558 36.8918 49.1161 36.5511 49.4392 35.8682C50.6346 33.3115 51.8197 30.7504 53.0297 28.2025C53.1854 27.8735 53.043 27.8192 52.7992 27.7252C52.2367 27.5079 51.6728 27.2935 51.1265 27.0394C40.3112 22.0043 29.4999 16.9618 18.6924 11.912C18.2665 11.7123 18.0844 11.7358 17.8847 12.1954C17.2973 13.5333 16.6614 14.8388 16.0535 16.1708C14.6716 19.1769 15.7348 22.1521 18.7203 23.5502C28.0984 27.9352 37.4799 32.3119 46.8648 36.6804C47.164 36.8309 47.4898 36.9212 47.8238 36.9462V36.9462ZM25.104 3.89086C24.0273 3.8968 22.9782 4.23249 22.098 4.85275C20.8673 5.68688 20.3254 6.988 19.7321 8.25976C19.622 8.49619 19.7659 8.55346 19.9421 8.6357C20.4738 8.87654 20.9995 9.13354 21.5282 9.38025C31.9548 14.2411 42.3814 19.1 52.808 23.9569C56.6614 25.7471 60.8849 24.8263 63.4593 21.6969C63.6708 21.4399 63.7736 21.3253 63.3726 21.1388C51.408 15.5701 39.4463 9.99655 27.4875 4.41806C26.7238 4.06268 25.9161 3.83799 25.104 3.89086ZM23.1259 41.4825C24.4726 41.4825 25.8207 41.4825 27.1688 41.4825C27.9736 41.4825 28.6183 41.2093 28.9942 40.4545C30.0604 38.3325 31.1148 36.2045 32.1897 34.0869C32.3263 33.8182 32.2617 33.7227 32.015 33.6111C31.197 33.2454 30.3776 32.8768 29.5816 32.473C29.2174 32.285 29.0985 32.4025 28.9428 32.7226C28.3069 34.0443 27.6138 35.3234 26.9955 36.6451C26.555 37.5952 25.8501 37.9947 24.8177 37.98C22.8836 37.9521 20.9496 37.98 19.017 37.9639C18.6542 37.9639 18.5044 38.0255 18.5206 38.4338C18.5544 39.2914 18.5573 40.152 18.5206 41.0111C18.5015 41.4281 18.6675 41.4869 19.0243 41.4825C20.393 41.4737 21.7602 41.4825 23.1259 41.4825ZM11.5113 41.4134C11.5113 43.5781 11.5304 45.7442 11.4966 47.9073C11.4892 48.4154 11.6434 48.5447 12.1104 48.4947C12.4967 48.4521 12.8902 48.4947 13.2853 48.4786C14.2795 48.4345 15.0064 47.7693 15.0123 46.7824C15.0377 43.2521 15.0377 39.7222 15.0123 36.1928C15.0123 35.203 14.278 34.5275 13.2955 34.482C12.8667 34.4629 12.435 34.5054 12.0091 34.4643C11.5832 34.4232 11.501 34.5789 11.5039 34.9798C11.5245 37.1224 11.5127 39.2679 11.5127 41.4134H11.5113ZM61.0215 27.6298C59.5912 28.0894 58.3033 28.364 56.9742 28.3905C56.7672 28.3905 56.7216 28.5373 56.6585 28.6842C55.5982 30.9575 54.5369 33.2308 53.4747 35.5041C53.3572 35.7537 53.3837 35.8638 53.6451 35.9799C54.4454 36.3323 55.2428 36.6965 56.0226 37.093C56.3853 37.2766 56.5586 37.2722 56.7437 36.8522C57.3516 35.4615 58.0066 34.0943 58.6528 32.7182C59.412 31.072 60.1771 29.439 61.023 27.6298H61.0215Z" fill="#D2D2D2"/>
<path d="M47.8649 30.3117C47.8649 31.8023 46.6078 32.6305 45.3934 32.1121C44.3654 31.6716 43.3492 31.1664 42.3285 30.6891C41.3079 30.2119 40.2491 29.7258 39.2138 29.2338C38.1447 28.7242 37.7379 27.7418 38.1946 26.8005C38.6352 25.8841 39.6367 25.5757 40.6911 26.0662C42.7015 26.9928 44.7046 27.9386 46.7121 28.8682C47.4273 29.1927 47.8473 29.7155 47.8649 30.3117Z" fill="#D2D2D2"/>
<path d="M22.4313 18.65C22.4368 19.1137 22.2582 19.5606 21.9348 19.8928C21.6113 20.2251 21.1694 20.4156 20.7057 20.4225C20.2424 20.4174 19.7991 20.2329 19.4689 19.9079C19.1387 19.5829 18.9472 19.1426 18.9347 18.6794C18.9373 18.2161 19.1212 17.7723 19.447 17.4429C19.7728 17.1135 20.2146 16.9248 20.6778 16.9171C20.9072 16.9142 21.1348 16.9569 21.3475 17.0427C21.5602 17.1285 21.7538 17.2557 21.9169 17.4169C22.0801 17.5781 22.2095 17.7702 22.2978 17.9818C22.3861 18.1935 22.4315 18.4206 22.4313 18.65V18.65Z" fill="#D2D2D2"/>
<path d="M25.3111 21.6076C25.3152 21.263 25.4215 20.9272 25.6166 20.643C25.8116 20.3588 26.0866 20.1388 26.4067 20.011C26.7268 19.8831 27.0777 19.8531 27.4148 19.9248C27.752 19.9965 28.0603 20.1666 28.3008 20.4136C28.5412 20.6606 28.7029 20.9734 28.7655 21.3124C28.828 21.6514 28.7885 22.0013 28.6521 22.3179C28.5156 22.6344 28.2883 22.9034 27.9989 23.0906C27.7095 23.2779 27.371 23.3751 27.0264 23.3699C26.7976 23.3682 26.5715 23.3211 26.3611 23.2313C26.1507 23.1416 25.9602 23.011 25.8006 22.8471C25.6411 22.6831 25.5157 22.4892 25.4316 22.2764C25.3476 22.0637 25.3066 21.8364 25.3111 21.6076V21.6076Z" fill="#D2D2D2"/>
</g>
<path d="M26.7061 86.6089H28.1123C28.0391 87.2827 27.8462 87.8857 27.5337 88.418C27.2212 88.9502 26.7793 89.3726 26.208 89.6851C25.6367 89.9927 24.9238 90.1465 24.0693 90.1465C23.4443 90.1465 22.8755 90.0293 22.3628 89.7949C21.855 89.5605 21.418 89.2285 21.0518 88.7988C20.6855 88.3643 20.4023 87.8442 20.2021 87.2388C20.0068 86.6284 19.9092 85.9497 19.9092 85.2026V84.1406C19.9092 83.3936 20.0068 82.7173 20.2021 82.1118C20.4023 81.5015 20.688 80.979 21.0591 80.5444C21.4351 80.1099 21.8867 79.7754 22.4141 79.541C22.9414 79.3066 23.5347 79.1895 24.1938 79.1895C24.9995 79.1895 25.6807 79.3408 26.2373 79.6436C26.7939 79.9463 27.2261 80.3662 27.5337 80.9033C27.8462 81.4355 28.0391 82.0532 28.1123 82.7563H26.7061C26.6377 82.2583 26.5107 81.8311 26.3252 81.4746C26.1396 81.1133 25.876 80.835 25.5342 80.6396C25.1924 80.4443 24.7456 80.3467 24.1938 80.3467C23.7202 80.3467 23.3027 80.437 22.9414 80.6177C22.585 80.7983 22.2847 81.0547 22.0405 81.3867C21.8013 81.7188 21.6206 82.1167 21.4985 82.5806C21.3765 83.0444 21.3154 83.5596 21.3154 84.126V85.2026C21.3154 85.7251 21.3691 86.2158 21.4766 86.6748C21.5889 87.1338 21.7573 87.5366 21.9819 87.8833C22.2065 88.23 22.4922 88.5034 22.8389 88.7036C23.1855 88.8989 23.5957 88.9966 24.0693 88.9966C24.6699 88.9966 25.1484 88.9014 25.5049 88.7109C25.8613 88.5205 26.1299 88.2471 26.3105 87.8906C26.4961 87.5342 26.6279 87.1069 26.7061 86.6089ZM36.4766 86.6089H37.8828C37.8096 87.2827 37.6167 87.8857 37.3042 88.418C36.9917 88.9502 36.5498 89.3726 35.9785 89.6851C35.4072 89.9927 34.6943 90.1465 33.8398 90.1465C33.2148 90.1465 32.646 90.0293 32.1333 89.7949C31.6255 89.5605 31.1885 89.2285 30.8223 88.7988C30.4561 88.3643 30.1729 87.8442 29.9727 87.2388C29.7773 86.6284 29.6797 85.9497 29.6797 85.2026V84.1406C29.6797 83.3936 29.7773 82.7173 29.9727 82.1118C30.1729 81.5015 30.4585 80.979 30.8296 80.5444C31.2056 80.1099 31.6572 79.7754 32.1846 79.541C32.7119 79.3066 33.3052 79.1895 33.9644 79.1895C34.77 79.1895 35.4512 79.3408 36.0078 79.6436C36.5645 79.9463 36.9966 80.3662 37.3042 80.9033C37.6167 81.4355 37.8096 82.0532 37.8828 82.7563H36.4766C36.4082 82.2583 36.2812 81.8311 36.0957 81.4746C35.9102 81.1133 35.6465 80.835 35.3047 80.6396C34.9629 80.4443 34.5161 80.3467 33.9644 80.3467C33.4907 80.3467 33.0732 80.437 32.7119 80.6177C32.3555 80.7983 32.0552 81.0547 31.811 81.3867C31.5718 81.7188 31.3911 82.1167 31.269 82.5806C31.147 83.0444 31.0859 83.5596 31.0859 84.126V85.2026C31.0859 85.7251 31.1396 86.2158 31.2471 86.6748C31.3594 87.1338 31.5278 87.5366 31.7524 87.8833C31.9771 88.23 32.2627 88.5034 32.6094 88.7036C32.9561 88.8989 33.3662 88.9966 33.8398 88.9966C34.4404 88.9966 34.9189 88.9014 35.2754 88.7109C35.6318 88.5205 35.9004 88.2471 36.0811 87.8906C36.2666 87.5342 36.3984 87.1069 36.4766 86.6089ZM43.5298 79.3359V90H42.1382V79.3359H43.5298ZM46.9575 79.3359V80.4932H38.7178V79.3359H46.9575ZM52.0991 88.3813L55.2412 79.3359H56.772L52.8242 90H51.7329L52.0991 88.3813ZM49.1621 79.3359L52.2749 88.3813L52.6631 90H51.5718L47.6313 79.3359H49.1621Z" fill="#7D7D7D"/>
<defs>
<clipPath id="clip0_1205_113">
<rect width="60" height="51.6205" fill="white" transform="translate(8 0.379883)"/>
</clipPath>
</defs>
</svg>
