<svg width="50" height="44" viewBox="0 0 50 44" fill="none" xmlns="http://www.w3.org/2000/svg">
<g clip-path="url(#clip0_550_295)">
<path d="M0 26.5789C0.358568 25.7418 0.990039 25.4138 1.89686 25.4775C3.03008 25.5583 4.17799 25.3551 5.30264 25.5999C6.73447 25.9009 7.7502 26.7514 8.36209 28.0719C8.48447 28.3326 8.61419 28.4231 8.89933 28.4207C10.2993 28.406 11.6989 28.406 13.0981 28.4207C13.3637 28.4207 13.5032 28.3485 13.6182 28.1062C14.0025 27.3021 14.4002 26.5018 14.8188 25.7149C14.9693 25.431 14.9228 25.3245 14.6291 25.1899C12.3308 24.1338 10.0399 23.0568 7.74776 21.986C4.65037 20.5346 3.08393 17.8778 3.32012 14.4561C3.38008 13.586 3.66033 12.7722 4.02501 11.9877C5.20719 9.44391 6.39466 6.90171 7.58744 4.36115C8.99479 1.38491 11.6614 -0.187647 14.9387 0.0167242C15.8577 0.0742419 16.7193 0.36183 17.5502 0.750993L48.9072 15.3678C50.022 15.8879 50.2729 16.6614 49.7112 17.742C49.1291 18.892 48.331 19.9191 47.3603 20.7671C47.1547 20.9446 47.0666 21.0621 47.2734 21.3374C47.654 21.8453 47.5549 22.3997 47.2967 22.9492C45.9619 25.7989 44.6313 28.6507 43.3047 31.5046C43.0453 32.0626 42.7883 32.6231 42.5215 33.1787C42.0626 34.1333 41.3185 34.4025 40.3517 33.962C39.1133 33.3909 37.8785 32.8149 36.6473 32.234C36.4405 32.1361 36.2888 32.0932 36.0819 32.2682C34.5534 33.5618 32.8781 33.7013 31.0877 32.8654C28.5178 31.6649 25.9393 30.4742 23.3779 29.2614C23.0499 29.106 22.9055 29.1084 22.7293 29.4719C21.9253 31.1362 21.0686 32.7761 20.2597 34.4392C19.3553 36.3018 17.8892 37.1989 15.821 37.1768C13.6403 37.1548 11.4595 37.1768 9.2787 37.1621C8.8822 37.1621 8.74881 37.2405 8.76839 37.6602C8.81856 38.7543 8.76105 39.8398 8.16874 40.8188C7.39164 42.0976 6.26698 42.8686 4.77274 42.9702C3.65543 43.0473 2.52833 43.0057 1.40612 43.002C0.671856 43.002 0.287588 42.5125 0.00244756 41.9141L0 26.5789ZM33.1865 30.4717C33.7984 30.4265 34.2634 30.1425 34.5326 29.5735C35.5288 27.4429 36.5164 25.3086 37.5248 23.1853C37.6545 22.9112 37.5358 22.8659 37.3327 22.7876C36.8639 22.6065 36.394 22.4278 35.9388 22.2161C26.926 18.0202 17.9166 13.8181 8.91035 9.60994C8.55545 9.44351 8.4037 9.46309 8.23727 9.84613C7.74776 10.961 7.21786 12.0489 6.71121 13.1589C5.55964 15.664 6.44565 18.1434 8.9336 19.3084C16.7487 22.9626 24.5666 26.6099 32.3874 30.2502C32.6367 30.3757 32.9082 30.4509 33.1865 30.4717ZM14.2534 2.92565C13.3561 2.9306 12.4818 3.21034 11.7483 3.72723C10.7228 4.42233 10.2712 5.5066 9.77678 6.5664C9.685 6.76343 9.80493 6.81115 9.95178 6.87969C10.3948 7.08039 10.8329 7.29455 11.2735 7.50014C19.9623 11.5509 28.6512 15.5999 37.34 19.6474C40.5512 21.1392 44.0708 20.3719 46.2161 17.764C46.3923 17.5498 46.478 17.4544 46.1439 17.299C36.1733 12.6584 26.2052 8.01372 16.2396 3.36499C15.6032 3.06883 14.9301 2.88159 14.2534 2.92565ZM12.6049 34.252C13.7271 34.252 14.8506 34.252 15.974 34.252C16.6446 34.252 17.1819 34.0244 17.4952 33.3953C18.3836 31.627 19.2623 29.8537 20.1581 28.089C20.2719 27.8651 20.2181 27.7855 20.0125 27.6925C19.3308 27.3878 18.648 27.0806 17.9847 26.7441C17.6812 26.5875 17.5821 26.6854 17.4523 26.9521C16.9224 28.0535 16.3448 29.1195 15.8296 30.2209C15.4625 31.0126 14.8751 31.3455 14.0147 31.3333C12.403 31.31 10.7913 31.3333 9.1808 31.3198C8.87853 31.3198 8.7537 31.3712 8.76716 31.7114C8.79531 32.4261 8.79776 33.1432 8.76716 33.8592C8.75126 34.2067 8.88954 34.2557 9.18692 34.252C10.3275 34.2446 11.4668 34.252 12.6049 34.252ZM2.92606 34.1945C2.92606 35.9983 2.94197 37.8034 2.91382 39.606C2.9077 40.0295 3.0362 40.1372 3.42536 40.0955C3.74722 40.0601 4.07519 40.0955 4.40439 40.0821C5.23289 40.0454 5.83866 39.491 5.84355 38.6686C5.86476 35.7266 5.86476 32.7851 5.84355 29.8439C5.84355 29.0191 5.23166 28.4562 4.41295 28.4182C4.05561 28.4023 3.69582 28.4378 3.34092 28.4035C2.98602 28.3693 2.91749 28.499 2.91994 28.8331C2.93707 30.6186 2.92728 32.4065 2.92728 34.1945H2.92606ZM44.1846 22.7081C42.9926 23.0911 41.9194 23.32 40.8119 23.342C40.6393 23.342 40.6014 23.4644 40.5487 23.5867C39.6652 25.4812 38.7808 27.3756 37.8956 29.27C37.7977 29.478 37.8197 29.5698 38.0376 29.6665C38.7045 29.9602 39.369 30.2637 40.0189 30.5941C40.3211 30.7471 40.4655 30.7434 40.6197 30.3934C41.1264 29.2345 41.6722 28.0951 42.2106 26.9485C42.8433 25.5766 43.4809 24.2158 44.1858 22.7081H44.1846Z" fill="#D2D2D2"/>
<path d="M33.2208 24.943C33.2208 26.1851 32.1732 26.8753 31.1611 26.4433C30.3045 26.0762 29.4576 25.6552 28.6071 25.2575C27.7566 24.8597 26.8742 24.4547 26.0115 24.0447C25.1206 23.62 24.7816 22.8013 25.1622 22.0169C25.5293 21.2533 26.3639 20.9963 27.2426 21.405C28.9179 22.1772 30.5872 22.9653 32.2601 23.74C32.8561 24.0104 33.2061 24.4461 33.2208 24.943Z" fill="#D2D2D2"/>
<path d="M12.0261 15.2249C12.0307 15.6113 11.8819 15.9838 11.6124 16.2606C11.3429 16.5375 10.9745 16.6962 10.5882 16.702C10.2021 16.6978 9.83266 16.544 9.55747 16.2732C9.28228 16.0023 9.12273 15.6354 9.1123 15.2494C9.11449 14.8634 9.26774 14.4935 9.53924 14.219C9.81074 13.9445 10.1789 13.7873 10.5649 13.7809C10.7561 13.7784 10.9457 13.814 11.123 13.8855C11.3003 13.957 11.4615 14.063 11.5975 14.1974C11.7334 14.3317 11.8413 14.4917 11.9149 14.6681C11.9885 14.8445 12.0263 15.0338 12.0261 15.2249Z" fill="#D2D2D2"/>
<path d="M14.4259 17.69C14.4294 17.4027 14.5179 17.123 14.6805 16.8861C14.843 16.6492 15.0721 16.4659 15.3389 16.3594C15.6057 16.2528 15.8981 16.2279 16.179 16.2876C16.46 16.3473 16.7169 16.4891 16.9173 16.6949C17.1177 16.9008 17.2524 17.1614 17.3046 17.4439C17.3567 17.7264 17.3238 18.018 17.2101 18.2818C17.0964 18.5456 16.9069 18.7697 16.6658 18.9258C16.4246 19.0819 16.1425 19.1628 15.8553 19.1585C15.6647 19.1571 15.4763 19.1178 15.3009 19.043C15.1256 18.9683 14.9668 18.8594 14.8339 18.7228C14.7009 18.5862 14.5964 18.4246 14.5264 18.2473C14.4563 18.07 14.4222 17.8806 14.4259 17.69Z" fill="#D2D2D2"/>
</g>
<defs>
<clipPath id="clip0_550_295">
<rect width="50" height="43.0171" fill="white"/>
</clipPath>
</defs>
</svg>
