<svg width="70" height="89" viewBox="0 0 70 89" fill="none" xmlns="http://www.w3.org/2000/svg">
<g clip-path="url(#clip0_598_598)">
<path d="M69.9804 44.7457C69.9804 58.8378 69.9869 72.9282 70 87.0169C70 87.9025 69.7817 88.0696 69.0571 88.0596C66.1454 88.0147 63.2338 88.0197 60.3265 88.0596C59.7022 88.0596 59.401 87.9075 59.532 87.1541C59.6913 86.2187 59.3639 86.0092 58.5476 86.0092C42.8718 86.0408 27.1952 86.0408 11.5179 86.0092C10.7409 86.0092 10.3436 86.1489 10.516 87.1317C10.647 87.8601 10.3764 88.0646 9.73029 88.0546C6.76406 88.0147 3.79564 88.0072 0.82941 88.0546C0.109133 88.0721 0 87.8052 0 87.0568C0.0174613 68.1155 0.0218266 49.1734 0.0130959 30.2304V2.70151C0.0130959 0.618627 0.560943 0 2.40092 0H67.562C69.4653 0 69.9804 0.588694 69.9804 2.74391V44.7457ZM3.50316 42.9223C3.50316 55.644 3.49807 68.3658 3.48789 81.0876C3.48789 81.791 3.61012 82.013 4.27146 82.0105C11.3214 81.9806 18.3707 81.9806 25.4192 82.0105C26.1089 82.0105 26.2552 81.8085 26.2552 81.0452C26.2348 55.6914 26.2348 30.3377 26.2552 4.98394C26.2552 4.2356 26.1133 4.0111 25.4214 4.0136C18.4005 4.04685 11.3782 4.04685 4.3544 4.0136C3.61666 4.0136 3.48134 4.2381 3.48134 5.03134C3.50753 17.6616 3.51481 30.292 3.50316 42.9223ZM29.7649 42.9223C29.7649 55.6457 29.7605 68.3675 29.7518 81.0876C29.7518 81.791 29.8762 82.018 30.5376 82.013C35.872 81.9781 41.2064 81.9781 46.5408 82.013C47.1672 82.013 47.2895 81.8235 47.2895 81.14C47.272 55.7264 47.272 30.3119 47.2895 4.89664C47.2895 4.1034 47.0428 4.02108 46.4622 4.02357C41.1824 4.04602 35.9025 4.056 30.6205 4.02357C29.8937 4.02357 29.7474 4.23311 29.7474 5.04131C29.7722 17.6616 29.778 30.287 29.7649 42.9173V42.9223ZM50.7402 42.9946C50.7402 55.6881 50.7366 68.3808 50.7293 81.0726C50.7293 81.7711 50.8385 82.0255 51.5173 82.0205C56.2798 81.9823 61.0431 81.9823 65.8071 82.0205C66.3812 82.0205 66.5339 81.8384 66.5296 81.1874C66.5012 77.7974 66.4947 74.4074 66.5296 71.0149C66.5296 70.2267 66.4117 69.9648 65.6565 69.9747C62.09 70.0296 58.5236 69.9747 54.9615 70.0172C54.3831 70.0172 54.2085 69.8475 54.2565 69.1965C54.3111 68.4836 54.3111 67.7666 54.2565 67.0537C54.1932 66.2755 54.3525 66.0061 55.1121 66.0185C58.6786 66.0759 62.245 66.0185 65.8071 66.0584C66.3877 66.0584 66.5339 65.8763 66.5296 65.2253C66.5012 61.8054 66.4947 58.383 66.5296 54.9606C66.5296 54.1773 66.3397 53.9852 65.6718 53.9927C62.0791 54.0301 58.4865 53.9927 54.8916 54.0226C54.4049 54.0226 54.215 53.9079 54.2521 53.3117C54.3067 52.5355 54.3067 51.7556 54.2521 50.9794C54.1932 50.231 54.3634 49.9816 55.0706 50.0041C58.6633 50.0514 62.2559 50.0041 65.8508 50.039C66.3812 50.039 66.5339 49.8893 66.5296 49.2707C66.5019 45.7884 66.5019 42.3045 66.5296 38.8189C66.5296 38.1055 66.296 38.0306 65.7722 38.0331C62.8343 38.0581 59.895 38.0581 56.9543 38.0331C56.0812 38.0331 54.9397 38.4497 54.4333 37.8785C53.8833 37.2573 54.3569 35.9303 54.2521 34.9225C54.1692 34.1043 54.4704 33.9721 55.1252 33.9796C58.6917 34.017 62.2581 33.9796 65.8202 34.012C66.4008 34.012 66.5405 33.8225 66.5361 33.1789C66.5078 29.7565 66.5012 26.3341 66.5361 22.9142C66.5361 22.1658 66.3724 21.9937 65.7329 21.9987C62.1686 22.0361 58.6022 21.9987 55.0379 22.0386C54.3831 22.0386 54.2128 21.8141 54.2609 21.1107C54.3169 20.3637 54.3169 19.6126 54.2609 18.8656C54.2019 18.1472 54.4267 18.0026 55.0248 18.0075C58.6174 18.0425 62.2101 18.0075 65.8028 18.0375C66.3637 18.0375 66.5427 17.8853 66.5383 17.2168C66.5121 13.1109 66.5121 9.00419 66.5383 4.89664C66.5383 4.20567 66.4008 4.00861 65.7787 4.0136C61.0424 4.04685 56.306 4.04685 51.5696 4.0136C50.8756 4.0136 50.7337 4.24558 50.7337 5.01138C50.7497 17.6683 50.7519 30.3277 50.7402 42.9896V42.9946Z" fill="#D2D2D2"/>
<path d="M22.7652 45.0402C22.7652 46.0031 22.7805 46.966 22.7652 47.9263C22.7369 49.1536 22.0559 49.9818 21.089 50.0167C20.0587 50.0541 19.2861 49.2683 19.2599 48.0211C19.2162 46.038 19.2206 44.0499 19.2599 42.0643C19.2861 40.8171 20.1002 39.939 21.054 39.9815C22.0078 40.0239 22.7412 40.9019 22.7674 42.1616C22.7805 43.117 22.7652 44.0774 22.7652 45.0402Z" fill="#D2D2D2"/>
<path d="M40.2525 45.015C40.2525 44.0172 40.2372 43.0194 40.2525 42.0366C40.2464 41.5039 40.423 40.9896 40.7444 40.6036C41.0658 40.2177 41.5065 39.9907 41.9724 39.9712C42.2034 39.9712 42.432 40.0235 42.6452 40.1252C42.8583 40.2269 43.0517 40.3759 43.2141 40.5636C43.3765 40.7513 43.5047 40.9739 43.5913 41.2186C43.6779 41.4634 43.7211 41.7253 43.7185 41.9892C43.7505 43.9748 43.7505 45.9604 43.7185 47.946C43.7011 49.2381 42.9982 50.0264 41.9724 50.0164C40.9465 50.0064 40.2634 49.1583 40.2459 47.9011C40.2415 46.9407 40.2525 45.9779 40.2525 45.015Z" fill="#D2D2D2"/>
</g>
<defs>
<clipPath id="clip0_598_598">
<rect width="70" height="88.0621" fill="white"/>
</clipPath>
</defs>
</svg>
