<svg width="76" height="101" viewBox="0 0 76 101" fill="none" xmlns="http://www.w3.org/2000/svg">
<path d="M12.6673 94.66V99.325H13.9123V95.575H21.9523V94.66H12.6673ZM12.6673 98.8V99.73H22.1023V98.8H12.6673ZM13.4623 96.715V97.615H21.6523V96.715H13.4623ZM16.6423 92.86V94.93H17.8723V92.86H16.6423ZM11.1373 92.26V93.265H23.3923V92.26H11.1373ZM12.7723 86.56V91.135H21.8023V86.56H20.5573V87.865H14.0023V86.56H12.7723ZM14.0023 88.825H20.5573V90.16H14.0023V88.825ZM34.2212 86.32V94.495H35.4662V86.32H34.2212ZM35.1212 89.83V90.88H37.4762V89.83H35.1212ZM26.6612 95.215V96.235H34.2212V99.88H35.4662V95.215H26.6612ZM25.5062 87.16V93.58H31.7762V87.16H30.5612V89.275H26.7362V87.16H25.5062ZM26.7362 90.265H30.5612V92.59H26.7362V90.265ZM48.59 86.305V99.895H49.835V86.305H48.59ZM42.68 87.355C40.685 87.355 39.245 89.2 39.245 92.08C39.245 94.975 40.685 96.82 42.68 96.82C44.69 96.82 46.13 94.975 46.13 92.08C46.13 89.2 44.69 87.355 42.68 87.355ZM42.68 88.48C44.015 88.48 44.93 89.89 44.93 92.08C44.93 94.285 44.015 95.725 42.68 95.725C41.36 95.725 40.43 94.285 40.43 92.08C40.43 89.89 41.36 88.48 42.68 88.48ZM55.8788 87.775V88.87C55.8788 90.805 54.5288 92.56 52.4888 93.28L53.1188 94.27C55.3988 93.445 56.8988 91.36 56.8988 88.87V87.775H55.8788ZM56.1038 87.775V88.855C56.1038 91.165 57.5438 93.1 59.8088 93.85L60.4088 92.875C58.4138 92.215 57.1238 90.625 57.1238 88.855V87.775H56.1038ZM52.8638 87.325V88.345H60.1088V87.325H52.8638ZM61.8188 86.32V94.495H63.0638V86.32H61.8188ZM62.7188 89.755V90.805H65.0738V89.755H62.7188ZM58.7438 94.855C55.9838 94.855 54.2888 95.77 54.2888 97.345C54.2888 98.935 55.9838 99.85 58.7438 99.85C61.5038 99.85 63.1988 98.935 63.1988 97.345C63.1988 95.77 61.5038 94.855 58.7438 94.855ZM58.7438 95.86C60.7538 95.86 61.9838 96.4 61.9838 97.345C61.9838 98.305 60.7538 98.875 58.7438 98.875C56.7338 98.875 55.5038 98.305 55.5038 97.345C55.5038 96.4 56.7338 95.86 58.7438 95.86Z" fill="#7D7D7D"/>
<g clip-path="url(#clip0_1205_117)">
<path d="M61.6802 31.1969C61.6802 40.7983 61.6847 50.3987 61.6936 59.9978C61.6936 60.6012 61.5449 60.7151 61.0512 60.7083C59.0673 60.6777 57.0835 60.6811 55.1027 60.7083C54.6774 60.7083 54.4721 60.6046 54.5614 60.0913C54.6699 59.454 54.4468 59.3112 53.8907 59.3112C43.2101 59.3327 32.5291 59.3327 21.8476 59.3112C21.3181 59.3112 21.0475 59.4064 21.165 60.076C21.2542 60.5723 21.0698 60.7117 20.6296 60.7049C18.6086 60.6777 16.5861 60.6726 14.5651 60.7049C14.0744 60.7168 14 60.5349 14 60.025C14.0119 47.1196 14.0149 34.2136 14.0089 21.3071V2.5506C14.0089 1.13145 14.3822 0.709961 15.6358 0.709961H60.0325C61.3293 0.709961 61.6802 1.11106 61.6802 2.57949V31.1969ZM16.3868 29.9545C16.3868 38.6223 16.3834 47.2901 16.3764 55.958C16.3764 56.4372 16.4597 56.5885 16.9103 56.5868C21.7137 56.5664 26.5166 56.5664 31.3191 56.5868C31.789 56.5868 31.8886 56.4491 31.8886 55.9291C31.8748 38.6546 31.8748 21.3802 31.8886 4.10571C31.8886 3.59583 31.792 3.44287 31.3206 3.44457C26.537 3.46723 21.7524 3.46723 16.9668 3.44457C16.4642 3.44457 16.372 3.59753 16.372 4.138C16.3898 12.7435 16.3948 21.349 16.3868 29.9545ZM34.2799 29.9545C34.2799 38.6235 34.277 47.2913 34.271 55.958C34.271 56.4372 34.3558 56.5919 34.8064 56.5885C38.4409 56.5647 42.0754 56.5647 45.71 56.5885C46.1368 56.5885 46.2201 56.4593 46.2201 55.9937C46.2082 38.6784 46.2082 21.3626 46.2201 4.04622C46.2201 3.50576 46.052 3.44967 45.6564 3.45137C42.0591 3.46667 38.4617 3.47347 34.8629 3.45137C34.3677 3.45137 34.268 3.59414 34.268 4.1448C34.2849 12.7435 34.2889 21.3456 34.2799 29.9511V29.9545ZM48.5712 30.0038C48.5712 38.6523 48.5687 47.3003 48.5638 55.9478C48.5638 56.4236 48.6381 56.597 49.1006 56.5936C52.3455 56.5675 55.5909 56.5675 58.8368 56.5936C59.228 56.5936 59.3321 56.4695 59.3291 56.0259C59.3097 53.7162 59.3053 51.4065 59.3291 49.0951C59.3291 48.558 59.2488 48.3796 58.7342 48.3864C56.3043 48.4238 53.8743 48.3864 51.4473 48.4153C51.0532 48.4153 50.9343 48.2997 50.967 47.8561C51.0041 47.3704 51.0041 46.8819 50.967 46.3962C50.9238 45.8659 51.0324 45.6823 51.5499 45.6908C53.9799 45.7299 56.4099 45.6908 58.8368 45.718C59.2324 45.718 59.3321 45.594 59.3291 45.1504C59.3097 42.8203 59.3053 40.4885 59.3291 38.1566C59.3291 37.623 59.1997 37.4921 58.7446 37.4972C56.2968 37.5227 53.849 37.4972 51.3997 37.5176C51.0681 37.5176 50.9387 37.4394 50.964 37.0332C51.0012 36.5044 51.0012 35.973 50.964 35.4441C50.9238 34.9342 51.0398 34.7643 51.5217 34.7796C53.9695 34.8119 56.4173 34.7796 58.8666 34.8034C59.228 34.8034 59.3321 34.7014 59.3291 34.2799C59.3102 31.9073 59.3102 29.5336 59.3291 27.1587C59.3291 26.6726 59.17 26.6216 58.813 26.6233C56.8114 26.6403 54.8087 26.6403 52.8051 26.6233C52.2102 26.6233 51.4324 26.9072 51.0874 26.518C50.7127 26.0948 51.0354 25.1906 50.964 24.504C50.9075 23.9465 51.1127 23.8564 51.5588 23.8615C53.9888 23.887 56.4188 23.8615 58.8458 23.8836C59.2413 23.8836 59.3365 23.7545 59.3335 23.316C59.3142 20.9842 59.3097 18.6523 59.3335 16.3222C59.3335 15.8124 59.222 15.6951 58.7863 15.6985C56.3578 15.724 53.9278 15.6985 51.4994 15.7257C51.0532 15.7257 50.9372 15.5727 50.9699 15.0934C51.0081 14.5845 51.0081 14.0728 50.9699 13.5638C50.9298 13.0743 51.083 12.9758 51.4904 12.9792C53.9383 13.003 56.3861 12.9792 58.8339 12.9996C59.2161 12.9996 59.338 12.8959 59.335 12.4404C59.3172 9.64291 59.3172 6.84485 59.335 4.04622C59.335 3.57544 59.2413 3.44117 58.8175 3.44457C55.5904 3.46723 52.3634 3.46723 49.1363 3.44457C48.6634 3.44457 48.5668 3.60263 48.5668 4.1244C48.5777 12.748 48.5791 21.3734 48.5712 30.0004V30.0038Z" fill="#D2D2D2"/>
<path d="M29.5106 31.3974C29.5106 32.0535 29.521 32.7095 29.5106 33.3638C29.4913 34.2 29.0273 34.7643 28.3685 34.7881C27.6666 34.8136 27.1401 34.2782 27.1223 33.4284C27.0925 32.0773 27.0955 30.7227 27.1223 29.3699C27.1401 28.5201 27.6948 27.9218 28.3447 27.9507C28.9946 27.9796 29.4942 28.5779 29.5121 29.4361C29.521 30.0871 29.5106 30.7414 29.5106 31.3974Z" fill="#D2D2D2"/>
<path d="M41.4256 31.3804C41.4256 30.7006 41.4152 30.0207 41.4256 29.3511C41.4215 28.9881 41.5418 28.6377 41.7607 28.3747C41.9797 28.1118 42.28 27.9571 42.5974 27.9438C42.7548 27.9438 42.9106 27.9795 43.0558 28.0488C43.201 28.1181 43.3328 28.2196 43.4434 28.3475C43.5541 28.4754 43.6414 28.6271 43.7004 28.7938C43.7594 28.9605 43.7889 29.139 43.7871 29.3188C43.8089 30.6717 43.8089 32.0245 43.7871 33.3774C43.7752 34.2578 43.2964 34.7948 42.5974 34.788C41.8985 34.7812 41.433 34.2034 41.4211 33.3468C41.4181 32.6925 41.4256 32.0364 41.4256 31.3804Z" fill="#D2D2D2"/>
</g>
<defs>
<clipPath id="clip0_1205_117">
<rect width="47.6936" height="60" fill="white" transform="translate(14 0.709961)"/>
</clipPath>
</defs>
</svg>
