<svg width="80" height="50" viewBox="0 0 80 50" fill="none" xmlns="http://www.w3.org/2000/svg">
<path d="M80 39.3704C79.6633 39.6327 79.7122 40.0653 79.54 40.404C78.5103 42.4222 76.8503 43.3403 74.6128 43.3227C73.3228 43.3109 73.3228 43.3227 73.3228 44.6421C73.3228 45.7873 73.3365 46.9324 73.3228 48.0776C73.3012 49.3617 72.6729 49.9882 71.3848 49.9921C68.2331 50.0025 65.0828 50.0025 61.9337 49.9921C60.6652 49.9921 60.0192 49.3304 60.0075 48.0561C59.9918 46.6858 59.984 45.2979 60.0075 43.9178C60.0173 43.4401 59.89 43.309 59.4026 43.309C46.4631 43.3233 33.5237 43.3233 20.5842 43.309C20.089 43.309 19.9754 43.4558 19.997 43.9237C20.0263 45.2763 20.0146 46.631 19.997 47.9856C19.9794 49.3402 19.3529 49.9921 17.9866 49.994C14.8884 50.0019 11.7902 50.0019 8.69209 49.994C7.30418 49.994 6.69342 49.3833 6.67972 47.9973C6.66601 46.7739 6.62686 45.5484 6.69342 44.3269C6.73844 43.5321 6.53682 43.2268 5.69115 43.3051C4.4207 43.4206 3.19918 43.1837 2.13819 42.4144C1.4608 41.944 0.911085 41.3125 0.538594 40.5768C0.166104 39.841 -0.0174591 39.0241 0.00444899 38.1998C-0.0020762 31.6406 -0.00142368 25.0809 0.00640655 18.5204C0.0161943 15.4647 2.13036 13.3995 5.24679 13.3212C6.67776 13.284 6.6758 13.284 6.67972 11.8295C6.67972 9.48045 6.63274 7.14312 6.713 4.80189C6.805 2.15331 8.78213 0.195756 11.4405 0.0156605C11.6225 0 11.8046 0 11.9867 0C30.6487 0 49.3153 0 67.9865 0C70.639 0 72.53 1.41336 73.1818 3.84856C73.2977 4.38259 73.3438 4.9294 73.3189 5.47529C73.3189 7.66188 73.3189 9.84847 73.3189 12.0351C73.3189 13.3094 73.3189 13.3153 74.5658 13.3173C76.3531 13.3173 77.8663 13.9045 78.9958 15.3492C79.4989 15.9952 79.6653 16.7802 79.9961 17.5025L80 39.3704ZM40.0306 3.32785C30.7648 3.32785 21.4991 3.32785 12.2333 3.32785C10.6046 3.32785 10.0036 3.91511 10.0017 5.52227C10.0017 8.02207 10.0115 10.5219 10.0017 13.0197C9.978 13.2046 10.0175 13.392 10.1138 13.5516C10.2101 13.7112 10.3576 13.8335 10.5322 13.8987C12.2431 14.7658 13.2219 16.1675 13.306 18.1035C13.3628 19.6108 13.3511 21.122 13.3217 22.6313C13.31 23.1696 13.4509 23.3321 14.0069 23.3302C31.3469 23.3158 48.6882 23.3158 66.0309 23.3302C66.6181 23.3302 66.7062 23.1344 66.6984 22.6137C66.671 21.1299 66.6612 19.6441 66.7101 18.1622C66.7747 16.1949 67.7477 14.7639 69.4918 13.8928C69.9225 13.6794 70.0204 13.4367 70.0184 13.0021C70.0008 10.5806 70.0086 8.1591 70.0086 5.7376C69.9988 3.84856 69.4879 3.32785 67.6048 3.32785H40.0306ZM39.9582 40.0007H74.4112C76.1123 40.0007 76.6859 39.4134 76.6859 37.6986C76.6859 33.037 76.6859 28.3774 76.6859 23.7197C76.6859 22.0264 76.7015 20.3351 76.6859 18.6438C76.6663 17.3087 76.0379 16.7019 74.7087 16.6862C73.8748 16.6745 73.0428 16.6862 72.2089 16.6862C70.5646 16.6862 70.0145 17.2441 70.0145 18.8943C70.0145 22.9282 70.0145 26.9634 70.0145 30.9999C70.0145 32.8165 69.5075 33.3274 67.7046 33.3294H12.3155C10.5107 33.3294 10.0017 32.8165 10.0017 31.0038C10.0017 26.8903 10.0017 22.7794 10.0017 18.6712C10.0017 17.3361 9.37919 16.7136 8.04413 16.694C7.26111 16.6823 6.47809 16.694 5.69507 16.694C3.85496 16.694 3.31859 17.2245 3.31859 19.0431C3.31859 25.2394 3.31859 31.4344 3.31859 37.6282C3.31859 39.4683 3.85496 40.0144 5.66766 40.0144L39.9582 40.0007ZM40.0012 30.0015H65.6961C65.8782 30.0015 66.0622 29.9859 66.2423 30.0015C66.5868 30.0367 66.6945 29.8899 66.6827 29.5532C66.6383 28.9015 66.6383 28.2474 66.6827 27.5957C66.761 26.8498 66.532 26.6502 65.7646 26.6521C48.5812 26.6756 31.3991 26.6815 14.2183 26.6698C14.0879 26.6787 13.9571 26.6787 13.8268 26.6698C13.4137 26.6228 13.306 26.8185 13.3158 27.21C13.3622 27.8617 13.3622 28.5159 13.3158 29.1676C13.2473 29.8547 13.4626 30.023 14.1556 30.0211C22.7669 29.9878 31.3841 29.9976 40.0012 29.9976V30.0015ZM13.3432 46.6721C14.279 46.6721 15.2147 46.6564 16.1504 46.6721C16.5536 46.6838 16.7024 46.5585 16.6867 46.1435C16.6593 45.3605 16.6652 44.5775 16.6867 43.8062C16.6867 43.4441 16.5869 43.3012 16.2032 43.3031C14.2809 43.3188 12.3586 43.3188 10.4363 43.3031C10.0898 43.3031 9.98995 43.4225 9.99778 43.7533C10.0154 44.5579 10.0271 45.3644 9.99778 46.169C9.9782 46.6094 10.1622 46.6819 10.5439 46.6721C11.4738 46.6584 12.4095 46.6721 13.3432 46.6721ZM66.716 43.3188C65.7549 43.3188 64.7937 43.3286 63.8325 43.3188C63.486 43.3188 63.304 43.3853 63.3157 43.7847C63.3392 44.5892 63.3373 45.3957 63.3157 46.2003C63.304 46.5918 63.4547 46.6877 63.8169 46.6858C65.7144 46.6714 67.6106 46.6714 69.5055 46.6858C69.8599 46.6858 70.0204 46.6114 70.0067 46.2179C69.9812 45.4134 69.9832 44.6068 70.0067 43.8023C70.0184 43.4284 69.899 43.307 69.5212 43.3168C68.5874 43.3344 67.6517 43.3188 66.716 43.3188Z" fill="#D2D2D2"/>
</svg>
