<svg width="76" height="78" viewBox="0 0 76 78" fill="none" xmlns="http://www.w3.org/2000/svg">
<path d="M24.9512 74.09V75.125H37.2362V74.09H24.9512ZM30.4112 70.805V74.435H31.6412V70.805H30.4112ZM30.3812 64.22V65.27C30.3812 67.505 27.8162 69.5 25.4312 69.935L25.9562 70.97C28.6862 70.4 31.4612 68.165 31.4612 65.27V64.22H30.3812ZM30.6062 64.22V65.27C30.6062 68.165 33.3812 70.4 36.1112 70.97L36.6512 69.935C34.2662 69.5 31.6862 67.52 31.6862 65.27V64.22H30.6062ZM38.915 64.775V65.795H46.46V64.775H38.915ZM38.72 73.535C41.105 73.535 44.33 73.49 47.165 73.025L47.09 72.095C44.3 72.44 41.015 72.47 38.57 72.47L38.72 73.535ZM40.37 65.54V72.755H41.585V65.54H40.37ZM43.79 65.54V72.755H45.005V65.54H43.79ZM47.915 63.32V76.88H49.175V63.32H47.915ZM48.875 68.735V69.785H51.395V68.735H48.875Z" fill="#7D7D7D"/>
<path d="M68 29.7377C67.7475 29.9345 67.7842 30.2589 67.655 30.5129C66.8827 32.0266 65.6377 32.7152 63.9596 32.702C62.9921 32.6932 62.9921 32.702 62.9921 33.6915C62.9921 34.5504 63.0024 35.4093 62.9921 36.2682C62.9759 37.2313 62.5046 37.7011 61.5386 37.704C59.1748 37.7119 56.8121 37.7119 54.4503 37.704C53.4989 37.704 53.0144 37.2078 53.0056 36.252C52.9939 35.2243 52.988 34.1834 53.0056 33.1483C53.0129 32.7901 52.9175 32.6917 52.5519 32.6917C42.8474 32.7025 33.1428 32.7025 23.4382 32.6917C23.0667 32.6917 22.9816 32.8018 22.9977 33.1527C23.0198 34.1672 23.0109 35.1832 22.9977 36.1992C22.9845 37.2151 22.5147 37.704 21.4899 37.7055C19.1663 37.7114 16.8427 37.7114 14.5191 37.7055C13.4781 37.7055 13.0201 37.2474 13.0098 36.208C12.9995 35.2904 12.9701 34.3713 13.0201 33.4551C13.0538 32.8591 12.9026 32.63 12.2684 32.6888C11.3155 32.7754 10.3994 32.5977 9.60364 32.0207C9.0956 31.668 8.68331 31.1944 8.40395 30.6425C8.12458 30.0907 7.98691 29.4781 8.00334 28.8598C7.99844 23.9404 7.99893 19.0206 8.0048 14.1003C8.01215 11.8085 9.59777 10.2596 11.9351 10.2008C13.0083 10.1729 13.0069 10.1729 13.0098 9.0821C13.0098 7.3203 12.9746 5.5673 13.0347 3.81138C13.1038 1.82495 14.5866 0.356778 16.5804 0.221706C16.7169 0.209961 16.8535 0.209961 16.99 0.209961C30.9865 0.209961 44.9865 0.209961 58.9899 0.209961C60.9792 0.209961 62.3975 1.26998 62.8864 3.09638C62.9733 3.4969 63.0078 3.90701 62.9891 4.31643C62.9891 5.95637 62.9891 7.59631 62.9891 9.23626C62.9891 10.192 62.9891 10.1964 63.9244 10.1979C65.2648 10.1979 66.3997 10.6384 67.2468 11.7219C67.6241 12.2064 67.7489 12.7951 67.9971 13.3368L68 29.7377ZM38.023 2.70585C31.0736 2.70585 24.1243 2.70585 17.175 2.70585C15.9535 2.70585 15.5027 3.1463 15.5013 4.35166C15.5013 6.22651 15.5086 8.10136 15.5013 9.97474C15.4835 10.1134 15.5131 10.254 15.5854 10.3737C15.6576 10.4933 15.7682 10.5851 15.8991 10.634C17.1823 11.2843 17.9164 12.3356 17.9795 13.7876C18.0221 14.9181 18.0133 16.0515 17.9913 17.1834C17.9825 17.5872 18.0882 17.7091 18.5051 17.7076C31.5102 17.6968 44.5162 17.6968 57.5232 17.7076C57.9636 17.7076 58.0297 17.5608 58.0238 17.1702C58.0032 16.0574 57.9959 14.943 58.0326 13.8316C58.0811 12.3561 58.8107 11.2829 60.1189 10.6295C60.4419 10.4695 60.5153 10.2875 60.5138 9.96153C60.5006 8.14541 60.5065 6.32928 60.5065 4.51316C60.4991 3.09638 60.1159 2.70585 58.7036 2.70585H38.023ZM37.9686 30.2105H63.8084C65.0842 30.2105 65.5144 29.77 65.5144 28.4839C65.5144 24.9877 65.5144 21.493 65.5144 17.9997C65.5144 16.7298 65.5261 15.4613 65.5144 14.1928C65.4997 13.1915 65.0284 12.7364 64.0315 12.7246C63.4061 12.7158 62.7821 12.7246 62.1567 12.7246C60.9234 12.7246 60.5109 13.143 60.5109 14.3807C60.5109 17.4061 60.5109 20.4325 60.5109 23.4599C60.5109 24.8223 60.1306 25.2055 58.7784 25.207H17.2366C15.883 25.207 15.5013 24.8223 15.5013 23.4628C15.5013 20.3777 15.5013 17.2945 15.5013 14.2133C15.5013 13.2121 15.0344 12.7452 14.0331 12.7305C13.4458 12.7217 12.8586 12.7305 12.2713 12.7305C10.8912 12.7305 10.4889 13.1284 10.4889 14.4923C10.4889 19.1395 10.4889 23.7858 10.4889 28.4311C10.4889 29.8112 10.8912 30.2208 12.2507 30.2208L37.9686 30.2105ZM38.0009 22.7111H57.2721C57.4086 22.7111 57.5466 22.6994 57.6817 22.7111C57.9401 22.7375 58.0209 22.6274 58.0121 22.3749C57.9787 21.8861 57.9787 21.3955 58.0121 20.9067C58.0708 20.3473 57.899 20.1976 57.3235 20.1991C44.4359 20.2167 31.5493 20.2211 18.6637 20.2123C18.5659 20.219 18.4678 20.219 18.3701 20.2123C18.0603 20.177 17.9795 20.3239 17.9869 20.6175C18.0217 21.1063 18.0217 21.5969 17.9869 22.0857C17.9355 22.601 18.097 22.7272 18.6167 22.7258C25.0752 22.7008 31.5381 22.7082 38.0009 22.7082V22.7111ZM18.0074 35.214C18.7092 35.214 19.411 35.2023 20.1128 35.214C20.4152 35.2228 20.5268 35.1289 20.5151 34.8176C20.4945 34.2303 20.4989 33.6431 20.5151 33.0646C20.5151 32.793 20.4402 32.6858 20.1524 32.6873C18.7107 32.699 17.2689 32.699 15.8272 32.6873C15.5673 32.6873 15.4925 32.7769 15.4983 33.025C15.5115 33.6284 15.5204 34.2333 15.4983 34.8367C15.4836 35.167 15.6217 35.2214 15.908 35.214C16.6053 35.2037 17.3071 35.214 18.0074 35.214ZM58.037 32.699C57.3161 32.699 56.5953 32.7064 55.8744 32.699C55.6145 32.699 55.478 32.749 55.4868 33.0485C55.5044 33.6519 55.503 34.2568 55.4868 34.8602C55.478 35.1538 55.591 35.2258 55.8627 35.2243C57.2858 35.2135 58.708 35.2135 60.1292 35.2243C60.3949 35.2243 60.5153 35.1685 60.505 34.8734C60.4859 34.27 60.4874 33.6651 60.505 33.0617C60.5138 32.7813 60.4243 32.6902 60.1409 32.6976C59.4406 32.7108 58.7388 32.699 58.037 32.699Z" fill="#D2D2D2"/>
</svg>
