<svg width="76" height="91" viewBox="0 0 76 91" fill="none" xmlns="http://www.w3.org/2000/svg">
<path d="M4.23793 83.945V84.965H16.5379V83.945H4.23793ZM9.72793 84.56V89.63H10.9579V84.56H9.72793ZM5.79793 76.82V82.115H14.9479V76.82H5.79793ZM13.7329 77.825V81.11H7.02793V77.825H13.7329ZM27.9068 76.085V85.985H29.1668V76.085H27.9068ZM20.4518 88.31V89.33H29.5718V88.31H20.4518ZM20.4518 84.965V88.655H21.6818V84.965H20.4518ZM21.8918 77.015C19.8668 77.015 18.3518 78.395 18.3518 80.36C18.3518 82.31 19.8668 83.705 21.8918 83.705C23.9168 83.705 25.4168 82.31 25.4168 80.36C25.4168 78.395 23.9168 77.015 21.8918 77.015ZM21.8918 78.095C23.2118 78.095 24.2168 79.025 24.2168 80.36C24.2168 81.68 23.2118 82.61 21.8918 82.61C20.5718 82.61 19.5668 81.68 19.5668 80.36C19.5668 79.025 20.5718 78.095 21.8918 78.095ZM32.4206 82.55V83.585H33.2906C35.4656 83.585 36.7556 83.525 38.3156 83.225L38.1956 82.205C36.6806 82.505 35.4206 82.55 33.2906 82.55H32.4206ZM32.4206 77.06V83.105H33.6206V78.08H37.6706V77.06H32.4206ZM33.2456 79.76V80.735H37.5056V79.76H33.2456ZM42.0806 76.07V84.29H43.2656V76.07H42.0806ZM39.8906 79.61V80.63H42.4556V79.61H39.8906ZM39.0956 76.325V84.215H40.2656V76.325H39.0956ZM34.1756 85.01V86.03H42.0356V89.63H43.2656V85.01H34.1756ZM46.1294 77.345V86.24H51.3044V77.345H50.1494V80.66H47.3144V77.345H46.1294ZM47.3144 81.665H50.1494V85.22H47.3144V81.665ZM55.9694 76.07V89.63H57.1694V76.07H55.9694ZM53.7944 81.44V82.46H56.4044V81.44H53.7944ZM52.9694 76.355V88.955H54.1544V76.355H52.9694ZM68.7182 76.07V84.23H69.9632V76.07H68.7182ZM69.6182 79.67V80.705H71.9732V79.67H69.6182ZM61.4432 84.995V89.45H69.9632V84.995H61.4432ZM68.7482 86V88.445H62.6582V86H68.7482ZM59.4782 77.495V78.515H67.4882V77.495H59.4782ZM63.4832 79.175C61.5332 79.175 60.2282 80.135 60.2282 81.605C60.2282 83.075 61.5332 84.005 63.4832 84.005C65.4182 84.005 66.7232 83.075 66.7232 81.605C66.7232 80.135 65.4182 79.175 63.4832 79.175ZM63.4832 80.135C64.6982 80.135 65.5382 80.705 65.5382 81.605C65.5382 82.49 64.6982 83.06 63.4832 83.06C62.2382 83.06 61.4132 82.49 61.4132 81.605C61.4132 80.705 62.2382 80.135 63.4832 80.135ZM62.8532 75.95V78.02H64.0982V75.95H62.8532Z" fill="#7D7D7D"/>
<path d="M8 0.629883H28.765C28.765 0.823412 28.755 1.01777 28.755 1.2113C28.755 15.692 28.7564 30.1721 28.7592 44.6516C28.7592 45.0445 28.7176 45.1741 28.51 45.1683C27.6794 45.1434 26.8438 45.1683 26.0107 45.1483C25.8039 45.1425 25.7258 45.2206 25.7316 45.6891C25.7491 47.1476 25.7316 48.6078 25.7416 50.0671C25.7416 50.3903 25.6984 50.4708 25.5439 50.4625C25.1358 50.4401 24.7269 50.4401 24.3188 50.4625C24.1676 50.4717 24.1327 50.3795 24.1344 50.0863C24.1427 48.5912 24.1344 47.1027 24.1427 45.611C24.1427 45.2497 24.1012 45.1483 23.9184 45.1492C20.2261 45.1608 16.5339 45.1608 12.8416 45.1492C12.6588 45.1492 12.6148 45.2497 12.6173 45.611C12.6281 47.1061 12.6173 48.5945 12.6256 50.0863C12.6256 50.3828 12.5924 50.4717 12.4412 50.4625C12.0331 50.4401 11.6242 50.4401 11.2161 50.4625C11.0616 50.4708 11.0159 50.3903 11.0184 50.0671C11.0275 48.6078 11.0109 47.1476 11.0284 45.6891C11.0342 45.2206 10.9561 45.1425 10.7493 45.1483C9.93197 45.1708 9.11466 45.1334 8.29819 45.1716C8.04901 45.1841 8.00249 45.0287 8.00249 44.5545C8.0108 30.1081 8.01329 15.6604 8.00997 1.2113C8.00997 1.01777 8 0.823412 8 0.629883ZM18.3825 14.3805C21.2173 14.3805 24.0522 14.3738 26.8878 14.3921C27.1054 14.3921 27.1453 14.2725 27.1436 13.8588C27.1348 10.6965 27.1348 7.53465 27.1436 4.37339C27.1436 3.97471 27.0963 3.8659 26.8945 3.8659C21.2198 3.87753 15.5427 3.87863 9.86303 3.86922C9.65372 3.86922 9.61884 4.00129 9.61967 4.38751C9.62687 7.54988 9.62687 10.7117 9.61967 13.873C9.61967 14.3082 9.67449 14.3954 9.88131 14.3946C12.7153 14.3755 15.5501 14.3805 18.3825 14.3805ZM18.3825 28.1543C21.2182 28.1543 24.0538 28.1485 26.8895 28.1659C27.1071 28.1659 27.1486 28.0471 27.1478 27.6302C27.1389 24.4517 27.1389 21.2733 27.1478 18.0949C27.1478 17.7419 27.1137 17.6381 26.9285 17.6381C21.2339 17.6497 15.5391 17.6497 9.84393 17.6381C9.66452 17.6381 9.6205 17.7253 9.62216 18.0882C9.62936 21.2672 9.62936 24.4457 9.62216 27.6235C9.62216 28.0961 9.69774 28.1626 9.90373 28.1618C12.7261 28.1501 15.5535 28.1543 18.3825 28.1543ZM18.37 41.899C21.2223 41.899 24.0738 41.899 26.9252 41.9082C27.1054 41.9082 27.147 41.8193 27.1461 41.458C27.1389 38.2624 27.1389 35.0671 27.1461 31.872C27.1461 31.5149 27.1179 31.3812 26.9177 31.382C21.2298 31.3942 15.5421 31.3942 9.85473 31.382C9.6612 31.382 9.6205 31.4925 9.62133 31.8646C9.62853 35.0264 9.62853 38.189 9.62133 41.3525C9.62133 41.7753 9.66037 41.9115 9.88795 41.9107C12.7128 41.8932 15.541 41.899 18.3684 41.899H18.37Z" fill="#D2D2D2"/>
<path d="M10.834 9.13145C10.8342 8.95484 10.8867 8.78226 10.9851 8.63556C11.0834 8.48887 11.2231 8.37466 11.3864 8.30742C11.5497 8.24018 11.7293 8.22293 11.9024 8.25785C12.0756 8.29277 12.2344 8.37829 12.3589 8.50358C12.4834 8.62887 12.5678 8.78828 12.6016 8.96163C12.6354 9.13498 12.617 9.31446 12.5487 9.47732C12.4804 9.64019 12.3653 9.77911 12.2179 9.87649C12.0706 9.97388 11.8977 10.0253 11.7211 10.0243C11.4857 10.0213 11.261 9.92608 11.0951 9.75912C10.9292 9.59216 10.8355 9.3668 10.834 9.13145V9.13145Z" fill="#D2D2D2"/>
<path d="M12.6173 23.2073C12.6189 23.3265 12.5967 23.4448 12.5518 23.5553C12.507 23.6657 12.4405 23.7661 12.3562 23.8504C12.2719 23.9347 12.1716 24.0012 12.0612 24.0461C11.9508 24.091 11.8325 24.1133 11.7133 24.1117C11.5941 24.1101 11.4764 24.0846 11.3672 24.0367C11.2581 23.9889 11.1596 23.9197 11.0776 23.8331C10.9957 23.7466 10.9319 23.6445 10.89 23.5328C10.8482 23.4212 10.8291 23.3024 10.834 23.1833C10.8435 22.9511 10.9432 22.7318 11.1119 22.572C11.2806 22.4122 11.505 22.3246 11.7374 22.3277C11.9697 22.3309 12.1917 22.4245 12.356 22.5888C12.5203 22.7531 12.6141 22.975 12.6173 23.2073V23.2073Z" fill="#D2D2D2"/>
<path d="M10.8348 36.9692C10.8377 36.8521 10.8637 36.7368 10.9112 36.6298C10.9587 36.5228 11.0268 36.4262 11.1116 36.3456C11.1965 36.2649 11.2964 36.2017 11.4056 36.1596C11.5149 36.1176 11.6314 36.0974 11.7484 36.1004C11.8655 36.1033 11.9808 36.1293 12.0878 36.1768C12.1948 36.2243 12.2914 36.2924 12.372 36.3773C12.4527 36.4621 12.5159 36.562 12.558 36.6713C12.6 36.7805 12.6202 36.897 12.6172 37.014C12.6113 37.2504 12.5117 37.4747 12.3403 37.6377C12.169 37.8006 11.9399 37.8888 11.7036 37.8828C11.4672 37.8769 11.2429 37.7773 11.0799 37.606C10.917 37.4346 10.8288 37.2056 10.8348 36.9692V36.9692Z" fill="#D2D2D2"/>
<path d="M27.6852 0.629883H48.4501C48.446 0.823412 48.4402 1.01777 48.4402 1.2113C48.4402 15.692 48.4402 30.1721 48.4402 44.6516C48.4402 45.0445 48.3995 45.1741 48.191 45.1683C47.3604 45.1434 46.5256 45.1683 45.6925 45.1483C45.4849 45.1425 45.4077 45.2206 45.4135 45.6891C45.4309 47.1476 45.4135 48.6078 45.4234 50.0671C45.4234 50.3903 45.3802 50.4708 45.2249 50.4625C44.8168 50.4401 44.4079 50.4401 43.9998 50.4625C43.8494 50.4717 43.8146 50.3795 43.8162 50.0863C43.8237 48.5912 43.8162 47.1027 43.8245 45.611C43.8245 45.2497 43.783 45.1483 43.6003 45.1492C39.9074 45.1608 36.2151 45.1608 32.5234 45.1492C32.3398 45.1492 32.2966 45.2497 32.2991 45.611C32.3091 47.1061 32.2991 48.5945 32.3066 50.0863C32.3066 50.3828 32.2734 50.4717 32.123 50.4625C31.715 50.4401 31.306 50.4401 30.8979 50.4625C30.7434 50.4708 30.6977 50.3903 30.6994 50.0671C30.7085 48.6078 30.6928 47.1476 30.7102 45.6891C30.716 45.2206 30.6379 45.1425 30.4303 45.1483C29.6138 45.1708 28.7965 45.1334 27.98 45.1716C27.7308 45.1841 27.6843 45.0287 27.6843 44.5545C27.691 30.1065 27.6926 15.6579 27.6893 1.20881C27.6943 1.01777 27.6852 0.823412 27.6852 0.629883ZM38.0676 14.3805C40.9025 14.3805 43.7373 14.3738 46.5722 14.3921C46.7906 14.3921 46.8296 14.2725 46.8288 13.8588C46.8194 10.6965 46.8194 7.53465 46.8288 4.37339C46.8288 3.97471 46.7815 3.8659 46.5796 3.8659C40.905 3.87753 35.2276 3.87863 29.5474 3.86922C29.338 3.86922 29.3023 4.00129 29.3032 4.38751C29.3115 7.54988 29.3115 10.7117 29.3032 13.873C29.3032 14.3082 29.358 14.3954 29.5648 14.3946C32.3988 14.3755 35.2336 14.3805 38.0676 14.3805ZM38.0676 28.1543C40.9033 28.1543 43.7381 28.1485 46.5738 28.1659C46.7914 28.1659 46.8338 28.0471 46.833 27.6302C46.8235 24.4517 46.8235 21.2733 46.833 18.0949C46.833 17.7419 46.7989 17.6381 46.6137 17.6381C40.918 17.6497 35.2231 17.6497 29.5291 17.6381C29.3488 17.6381 29.3057 17.7253 29.3065 18.0882C29.3148 21.2672 29.3148 24.4457 29.3065 27.6235C29.3065 28.0961 29.3821 28.1626 29.5881 28.1618C32.4104 28.1501 35.2378 28.1543 38.0676 28.1543ZM38.0552 41.899C40.9075 41.899 43.7589 41.899 46.6104 41.9082C46.7914 41.9082 46.833 41.8193 46.8321 41.458C46.8244 38.2624 46.8244 35.0671 46.8321 31.872C46.8321 31.5149 46.8039 31.3812 46.6029 31.382C40.9155 31.3942 35.2278 31.3942 29.5399 31.382C29.3472 31.382 29.3065 31.4925 29.3073 31.8646C29.314 35.0264 29.314 38.189 29.3073 41.3525C29.3073 41.7753 29.3464 41.9115 29.5731 41.9107C32.3971 41.8932 35.2253 41.899 38.0527 41.899H38.0552Z" fill="#D2D2D2"/>
<path d="M30.5181 9.13145C30.5182 8.95484 30.5708 8.78226 30.6692 8.63556C30.7675 8.48887 30.9072 8.37466 31.0705 8.30742C31.2338 8.24018 31.4134 8.22293 31.5865 8.25785C31.7596 8.29277 31.9185 8.37829 32.043 8.50358C32.1674 8.62887 32.2519 8.78828 32.2857 8.96163C32.3195 9.13498 32.3011 9.31446 32.2328 9.47732C32.1645 9.64019 32.0493 9.77911 31.902 9.87649C31.7547 9.97388 31.5818 10.0253 31.4051 10.0243C31.1698 10.0215 30.9449 9.92636 30.779 9.75935C30.613 9.59235 30.5194 9.36686 30.5181 9.13145Z" fill="#D2D2D2"/>
<path d="M32.3016 23.2073C32.3033 23.3265 32.281 23.4448 32.2362 23.5553C32.1913 23.6657 32.1248 23.7661 32.0405 23.8504C31.9563 23.9347 31.8559 24.0012 31.7455 24.0461C31.6351 24.091 31.5168 24.1133 31.3976 24.1117C31.2784 24.1101 31.1607 24.0846 31.0516 24.0367C30.9424 23.9889 30.8439 23.9197 30.7619 23.8331C30.68 23.7466 30.6162 23.6445 30.5743 23.5328C30.5325 23.4212 30.5135 23.3024 30.5183 23.1833C30.5278 22.9511 30.6275 22.7318 30.7962 22.572C30.965 22.4122 31.1893 22.3246 31.4217 22.3277C31.654 22.3309 31.876 22.4245 32.0403 22.5888C32.2047 22.7531 32.2984 22.975 32.3016 23.2073V23.2073Z" fill="#D2D2D2"/>
<path d="M30.5183 36.9692C30.5213 36.8521 30.5473 36.7368 30.5948 36.6298C30.6423 36.5228 30.7104 36.4262 30.7952 36.3456C30.8801 36.2649 30.98 36.2017 31.0892 36.1596C31.1985 36.1176 31.315 36.0974 31.432 36.1004C31.549 36.1033 31.6644 36.1293 31.7714 36.1768C31.8784 36.2243 31.975 36.2924 32.0556 36.3773C32.1363 36.4621 32.1995 36.562 32.2416 36.6713C32.2836 36.7805 32.3038 36.897 32.3008 37.014C32.2949 37.2504 32.1953 37.4747 32.0239 37.6377C31.8526 37.8006 31.6235 37.8888 31.3872 37.8828C31.1508 37.8769 30.9265 37.7773 30.7635 37.606C30.6006 37.4346 30.5124 37.2056 30.5183 36.9692V36.9692Z" fill="#D2D2D2"/>
<path d="M47.2351 0.629883H68C68 0.823412 67.9901 1.01777 67.9901 1.2113C67.9901 15.692 67.9901 30.1721 67.9901 44.6516C67.9901 45.0445 67.9485 45.1741 67.7409 45.1683C66.9103 45.1434 65.2424 45.1483 65.2424 45.1483C65.2424 45.1483 64.9517 45.3824 64.9625 45.6891C64.9733 45.9957 64.9625 48.6078 64.9733 50.0671C64.9733 50.3903 64.9293 50.4708 64.7748 50.4625C64.3667 50.4401 63.9578 50.4401 63.5497 50.4625C63.3993 50.4716 63.3645 50.3795 63.3653 50.0863C63.3736 48.5912 63.3653 47.1027 63.3736 45.611C63.3736 45.2497 63.3321 45.1483 63.1493 45.1492C59.4576 45.1608 55.7653 45.1608 52.0725 45.1492C51.8897 45.1492 51.8457 45.2497 51.8482 45.611C51.859 47.1061 51.8482 48.5945 51.8565 50.0863C51.8565 50.3828 51.8233 50.4716 51.6721 50.4625C51.264 50.4401 50.8551 50.4401 50.447 50.4625C50.2925 50.4708 50.2468 50.3903 50.2493 50.0671C50.2584 48.6078 50.2418 47.1476 50.2593 45.6891C50.2651 45.2206 50.1878 45.1425 49.9802 45.1483C49.1629 45.1708 48.3456 45.1334 47.5291 45.1716C47.2799 45.1841 47.2334 45.0287 47.2334 44.5545C47.24 30.1065 47.2417 15.6579 47.2384 1.20881C47.245 1.01777 47.2384 0.823412 47.2351 0.629883ZM57.6175 14.3805C60.4524 14.3805 63.288 14.3738 66.1229 14.3921C66.3405 14.3921 66.3804 14.2725 66.3787 13.8588C66.3693 10.6965 66.3693 7.53465 66.3787 4.37339C66.3787 3.97471 66.3314 3.8659 66.1295 3.8659C60.4515 3.87753 54.7736 3.87753 49.0956 3.8659C48.8863 3.8659 48.8514 3.99796 48.8522 4.38419C48.8594 7.54656 48.8594 10.7084 48.8522 13.8696C48.8522 14.3049 48.9071 14.3921 49.1139 14.3913C51.9504 14.3755 54.7852 14.3805 57.62 14.3805H57.6175ZM57.6175 28.1543C60.4532 28.1543 63.2889 28.1485 66.1245 28.1659C66.3422 28.1659 66.3845 28.0471 66.3829 27.6302C66.3734 24.4517 66.3734 21.2733 66.3829 18.0949C66.3829 17.7419 66.3488 17.6381 66.1636 17.6381C60.469 17.6497 54.7741 17.6497 49.079 17.6381C48.8996 17.6381 48.8564 17.7253 48.8572 18.0882C48.8644 21.2672 48.8644 24.4457 48.8572 27.6235C48.8572 28.0961 48.9328 28.1626 49.138 28.1618C51.9612 28.1501 54.7885 28.1543 57.6159 28.1543H57.6175ZM57.6059 41.899C60.4574 41.899 63.3088 41.899 66.1611 41.9082C66.3413 41.9082 66.3837 41.8193 66.3829 41.458C66.3746 38.2624 66.3746 35.0671 66.3829 31.872C66.3829 31.5149 66.3546 31.3812 66.1544 31.382C60.4665 31.3942 54.7788 31.3942 49.0914 31.382C48.8979 31.382 48.8572 31.4925 48.858 31.8646C48.8652 35.0264 48.8652 38.189 48.858 41.3525C48.858 41.7753 48.8971 41.9115 49.1247 41.9107C51.9479 41.8932 54.7761 41.899 57.6043 41.899H57.6059Z" fill="#D2D2D2"/>
<path d="M50.0691 9.13145C50.0693 8.95484 50.1218 8.78226 50.2202 8.63556C50.3185 8.48887 50.4582 8.37466 50.6215 8.30742C50.7848 8.24018 50.9644 8.22293 51.1375 8.25785C51.3107 8.29277 51.4695 8.37829 51.594 8.50358C51.7185 8.62887 51.803 8.78828 51.8367 8.96163C51.8705 9.13498 51.8521 9.31446 51.7838 9.47732C51.7155 9.64019 51.6004 9.77911 51.453 9.87649C51.3057 9.97388 51.1328 10.0253 50.9562 10.0243C50.7208 10.0213 50.4961 9.92608 50.3302 9.75912C50.1644 9.59216 50.0706 9.3668 50.0691 9.13145V9.13145Z" fill="#D2D2D2"/>
<path d="M51.8556 23.2073C51.8572 23.3265 51.835 23.4448 51.7901 23.5553C51.7453 23.6657 51.6788 23.7661 51.5945 23.8504C51.5102 23.9347 51.4099 24.0012 51.2995 24.0461C51.189 24.091 51.0707 24.1133 50.9515 24.1117C50.8324 24.1101 50.7147 24.0846 50.6055 24.0367C50.4963 23.9889 50.3979 23.9197 50.3159 23.8331C50.2339 23.7466 50.1701 23.6445 50.1283 23.5328C50.0865 23.4212 50.0674 23.3024 50.0723 23.1833C50.0818 22.9511 50.1815 22.7318 50.3502 22.572C50.5189 22.4122 50.7433 22.3246 50.9756 22.3277C51.208 22.3309 51.4299 22.4245 51.5943 22.5888C51.7586 22.7531 51.8524 22.975 51.8556 23.2073V23.2073Z" fill="#D2D2D2"/>
<path d="M50.0699 36.9692C50.0728 36.8521 50.0988 36.7368 50.1463 36.6298C50.1938 36.5228 50.2619 36.4262 50.3468 36.3456C50.4316 36.2649 50.5315 36.2017 50.6408 36.1596C50.75 36.1176 50.8665 36.0974 50.9835 36.1004C51.1006 36.1033 51.2159 36.1293 51.3229 36.1768C51.4299 36.2243 51.5265 36.2924 51.6072 36.3773C51.6878 36.4621 51.751 36.562 51.7931 36.6713C51.8351 36.7805 51.8553 36.897 51.8523 37.014C51.8464 37.2504 51.7468 37.4747 51.5754 37.6377C51.4041 37.8006 51.175 37.8888 50.9387 37.8828C50.7023 37.8769 50.478 37.7773 50.315 37.606C50.1521 37.4346 50.0639 37.2056 50.0699 36.9692V36.9692Z" fill="#D2D2D2"/>
</svg>
