<svg width="75" height="63" viewBox="0 0 75 63" fill="none" xmlns="http://www.w3.org/2000/svg">
<path d="M0 0H25.9562C25.9562 0.241912 25.9438 0.484862 25.9438 0.726774C25.9438 18.8276 25.9455 36.9277 25.949 55.0272C25.949 55.5183 25.897 55.6803 25.6375 55.673C24.5992 55.6418 23.5548 55.673 22.5134 55.6481C22.2549 55.6408 22.1573 55.7384 22.1645 56.324C22.1863 58.1471 22.1645 59.9724 22.177 61.7966C22.177 62.2005 22.123 62.3012 21.9299 62.2908C21.4198 62.2628 20.9086 62.2628 20.3985 62.2908C20.2095 62.3022 20.1659 62.187 20.168 61.8205C20.1784 59.9516 20.168 58.0911 20.1784 56.2264C20.1784 55.7747 20.1265 55.6481 19.898 55.6491C15.2827 55.6636 10.6673 55.6636 6.05195 55.6491C5.82354 55.6491 5.76851 55.7747 5.77163 56.2264C5.78512 58.0952 5.77163 59.9558 5.78201 61.8205C5.78201 62.1911 5.74048 62.3022 5.55152 62.2908C5.04143 62.2628 4.53019 62.2628 4.0201 62.2908C3.82699 62.3012 3.76988 62.2005 3.773 61.7966C3.78442 59.9724 3.76365 58.1471 3.78546 56.324C3.79272 55.7384 3.69513 55.6408 3.4366 55.6481C2.41497 55.6761 1.39333 55.6294 0.372731 55.6771C0.0612567 55.6927 0.00311475 55.4986 0.00311475 54.9057C0.0134972 36.8478 0.016612 18.7882 0.012459 0.726774C0.012459 0.484862 0 0.241912 0 0ZM12.9781 17.1882C16.5217 17.1882 20.0652 17.1799 23.6098 17.2027C23.8818 17.2027 23.9316 17.0532 23.9296 16.5362C23.9185 12.5832 23.9185 8.63096 23.9296 4.67939C23.9296 4.18103 23.8704 4.04502 23.6181 4.04502C16.5248 4.05955 9.42834 4.06094 2.32879 4.04917C2.06715 4.04917 2.02355 4.21425 2.02459 4.69704C2.03358 8.65 2.03358 12.6023 2.02459 16.5538C2.02459 17.0979 2.09311 17.2069 2.35163 17.2059C5.89414 17.182 9.43768 17.1882 12.9781 17.1882ZM12.9781 34.4055C16.5227 34.4055 20.0673 34.3982 23.6119 34.42C23.8839 34.42 23.9358 34.2716 23.9348 33.7504C23.9237 29.7773 23.9237 25.8043 23.9348 21.8313C23.9348 21.39 23.8922 21.2602 23.6607 21.2602C16.5424 21.2748 9.42384 21.2748 2.30491 21.2602C2.08065 21.2602 2.02562 21.3692 2.0277 21.823C2.0367 25.7967 2.0367 29.7697 2.0277 33.7421C2.0277 34.3328 2.12218 34.4159 2.37967 34.4148C5.90764 34.4003 9.44184 34.4055 12.9781 34.4055ZM12.9625 51.5864C16.5279 51.5864 20.0922 51.5864 23.6565 51.5979C23.8818 51.5979 23.9337 51.4868 23.9327 51.0351C23.9237 47.0406 23.9237 43.0465 23.9327 39.0527C23.9327 38.6063 23.8974 38.4391 23.6472 38.4401C16.5372 38.4554 9.42765 38.4554 2.31841 38.4401C2.0765 38.4401 2.02562 38.5782 2.02666 39.0434C2.03566 42.9956 2.03566 46.9489 2.02666 50.9033C2.02666 51.4317 2.07546 51.602 2.35994 51.601C5.89102 51.5792 9.42626 51.5864 12.9605 51.5864H12.9625Z" fill="#D2D2D2"/>
<path d="M3.54248 10.6267C3.54269 10.406 3.60842 10.1902 3.73135 10.0069C3.85428 9.82349 4.02887 9.68073 4.23301 9.59668C4.43714 9.51263 4.66163 9.49106 4.87804 9.53471C5.09444 9.57836 5.29302 9.68526 5.44861 9.84187C5.6042 9.99849 5.70981 10.1978 5.75204 10.4144C5.79428 10.6311 5.77124 10.8555 5.68586 11.0591C5.60048 11.2626 5.45658 11.4363 5.27242 11.558C5.08825 11.6797 4.87209 11.7441 4.65133 11.7428C4.35717 11.739 4.07624 11.62 3.8689 11.4113C3.66156 11.2026 3.54436 10.9209 3.54248 10.6267Z" fill="#D2D2D2"/>
<path d="M5.77156 28.2217C5.77362 28.3707 5.7458 28.5186 5.68975 28.6566C5.6337 28.7947 5.55054 28.9201 5.4452 29.0255C5.33986 29.1309 5.21447 29.2141 5.07643 29.2702C4.93839 29.3263 4.79051 29.3541 4.64152 29.3521C4.49253 29.3501 4.34546 29.3183 4.20899 29.2585C4.07252 29.1986 3.94942 29.1121 3.84696 29.0039C3.7445 28.8957 3.66477 28.7681 3.61246 28.6286C3.56016 28.4891 3.53635 28.3405 3.54244 28.1916C3.5543 27.9014 3.67894 27.6273 3.88983 27.4275C4.10072 27.2278 4.38122 27.1182 4.67164 27.1222C4.96207 27.1261 5.23951 27.2432 5.44492 27.4485C5.65034 27.6539 5.76753 27.9313 5.77156 28.2217Z" fill="#D2D2D2"/>
<path d="M3.54332 45.4243C3.547 45.278 3.57946 45.1338 3.63885 45.0001C3.69824 44.8663 3.78339 44.7456 3.88944 44.6447C3.99549 44.5439 4.12037 44.4649 4.25694 44.4123C4.39351 44.3597 4.5391 44.3346 4.6854 44.3382C4.83169 44.3419 4.97583 44.3744 5.10959 44.4338C5.24334 44.4932 5.36409 44.5783 5.46493 44.6844C5.56578 44.7904 5.64475 44.9153 5.69733 45.0519C5.74992 45.1884 5.77509 45.334 5.7714 45.4803C5.76397 45.7758 5.63947 46.0562 5.42529 46.2599C5.21111 46.4635 4.92479 46.5738 4.62933 46.5663C4.33387 46.5589 4.05346 46.4344 3.84979 46.2202C3.64613 46.006 3.53589 45.7197 3.54332 45.4243Z" fill="#D2D2D2"/>
<path d="M24.6065 0H50.5627C50.5575 0.241912 50.5503 0.484862 50.5503 0.726774C50.5503 18.8276 50.5503 36.9277 50.5503 55.0272C50.5503 55.5183 50.4994 55.6803 50.2388 55.673C49.2005 55.6418 48.1571 55.673 47.1157 55.6481C46.8562 55.6408 46.7596 55.7384 46.7669 56.324C46.7887 58.1471 46.7669 59.9724 46.7794 61.7966C46.7794 62.2005 46.7254 62.3012 46.5312 62.2908C46.0211 62.2628 45.5099 62.2628 44.9998 62.2908C44.8119 62.3022 44.7683 62.187 44.7703 61.8205C44.7797 59.9516 44.7703 58.0911 44.7807 56.2264C44.7807 55.7747 44.7288 55.6481 44.5004 55.6491C39.8843 55.6636 35.269 55.6636 30.6543 55.6491C30.4249 55.6491 30.3709 55.7747 30.374 56.2264C30.3864 58.0952 30.374 59.9558 30.3833 61.8205C30.3833 62.1911 30.3418 62.3022 30.1539 62.2908C29.6438 62.2628 29.1325 62.2628 28.6225 62.2908C28.4293 62.3012 28.3722 62.2005 28.3743 61.7966C28.3857 59.9724 28.366 58.1471 28.3878 56.324C28.3951 55.7384 28.2975 55.6408 28.0379 55.6481C27.0173 55.6761 25.9957 55.6294 24.9751 55.6771C24.6636 55.6927 24.6055 55.4986 24.6055 54.9057C24.6138 36.8457 24.6159 18.785 24.6117 0.72366C24.6179 0.484862 24.6065 0.241912 24.6065 0ZM37.5846 17.1882C41.1282 17.1882 44.6717 17.1799 48.2153 17.2027C48.4883 17.2027 48.5371 17.0532 48.5361 16.5362C48.5243 12.5832 48.5243 8.63096 48.5361 4.67939C48.5361 4.18103 48.4769 4.04502 48.2246 4.04502C41.1313 4.05955 34.0345 4.06094 26.9343 4.04917C26.6726 4.04917 26.628 4.21425 26.629 4.69704C26.6394 8.65 26.6394 12.6023 26.629 16.5538C26.629 17.0979 26.6975 17.2069 26.9561 17.2059C30.4986 17.182 34.0421 17.1882 37.5846 17.1882ZM37.5846 34.4055C41.1292 34.4055 44.6727 34.3982 48.2173 34.42C48.4893 34.42 48.5423 34.2716 48.5413 33.7504C48.5295 29.7773 48.5295 25.8043 48.5413 21.8313C48.5413 21.39 48.4987 21.2602 48.2672 21.2602C41.1475 21.2748 34.029 21.2748 26.9114 21.2602C26.6861 21.2602 26.6321 21.3692 26.6332 21.823C26.6435 25.7967 26.6435 29.7697 26.6332 33.7421C26.6332 34.3328 26.7276 34.4159 26.9851 34.4148C30.5131 34.4003 34.0473 34.4055 37.5846 34.4055ZM37.569 51.5864C41.1344 51.5864 44.6987 51.5864 48.263 51.5979C48.4893 51.5979 48.5413 51.4868 48.5402 51.0351C48.5305 47.0406 48.5305 43.0465 48.5402 39.0527C48.5402 38.6063 48.5049 38.4391 48.2537 38.4401C41.1444 38.4554 34.0348 38.4554 26.9249 38.4401C26.684 38.4401 26.6332 38.5782 26.6342 39.0434C26.6425 42.9956 26.6425 46.9489 26.6342 50.9033C26.6342 51.4317 26.683 51.602 26.9664 51.601C30.4965 51.5792 34.0317 51.5864 37.5659 51.5864H37.569Z" fill="#D2D2D2"/>
<path d="M28.1477 10.6267C28.1479 10.406 28.2136 10.1902 28.3366 10.0069C28.4595 9.82349 28.6341 9.68073 28.8382 9.59668C29.0424 9.51263 29.2669 9.49106 29.4833 9.53471C29.6997 9.57836 29.8982 9.68526 30.0538 9.84187C30.2094 9.99849 30.315 10.1978 30.3573 10.4144C30.3995 10.6311 30.3765 10.8555 30.2911 11.0591C30.2057 11.2626 30.0618 11.4363 29.8776 11.558C29.6935 11.6797 29.4773 11.7441 29.2566 11.7428C28.9623 11.7393 28.6812 11.6203 28.4738 11.4116C28.2664 11.2028 28.1493 10.921 28.1477 10.6267Z" fill="#D2D2D2"/>
<path d="M30.377 28.2217C30.3791 28.3707 30.3513 28.5186 30.2952 28.6566C30.2392 28.7947 30.156 28.9201 30.0507 29.0255C29.9453 29.1309 29.8199 29.2141 29.6819 29.2702C29.5439 29.3263 29.396 29.3541 29.247 29.3521C29.098 29.3501 28.9509 29.3183 28.8145 29.2585C28.678 29.1986 28.5549 29.1121 28.4524 29.0039C28.35 28.8957 28.2702 28.7681 28.2179 28.6286C28.1656 28.4891 28.1418 28.3405 28.1479 28.1916C28.1598 27.9014 28.2844 27.6273 28.4953 27.4275C28.7062 27.2278 28.9867 27.1182 29.2771 27.1222C29.5675 27.1261 29.845 27.2432 30.0504 27.4485C30.2558 27.6539 30.373 27.9313 30.377 28.2217Z" fill="#D2D2D2"/>
<path d="M28.1478 45.4243C28.1515 45.278 28.184 45.1338 28.2433 45.0001C28.3027 44.8663 28.3879 44.7456 28.4939 44.6447C28.6 44.5439 28.7249 44.4649 28.8614 44.4123C28.998 44.3597 29.1436 44.3346 29.2899 44.3382C29.4362 44.3419 29.5803 44.3744 29.7141 44.4338C29.8478 44.4932 29.9686 44.5783 30.0694 44.6844C30.1703 44.7904 30.2492 44.9153 30.3018 45.0519C30.3544 45.1884 30.3796 45.334 30.3759 45.4803C30.3685 45.7758 30.244 46.0562 30.0298 46.2599C29.8156 46.4635 29.5293 46.5738 29.2338 46.5663C28.9384 46.5589 28.658 46.4344 28.4543 46.2202C28.2506 46.006 28.1404 45.7197 28.1478 45.4243Z" fill="#D2D2D2"/>
<path d="M49.0438 0H75C75 0.241912 74.9876 0.484862 74.9876 0.726774C74.9876 18.8276 74.9876 36.9277 74.9876 55.0272C74.9876 55.5183 74.9357 55.6802 74.6761 55.673C73.6379 55.6418 71.5531 55.6481 71.5531 55.6481C71.5531 55.6481 71.1897 55.9406 71.2032 56.324C71.2167 56.7073 71.2032 59.9724 71.2167 61.7966C71.2167 62.2005 71.1616 62.3012 70.9685 62.2908C70.4584 62.2627 69.9472 62.2627 69.4371 62.2908C69.2492 62.3022 69.2056 62.187 69.2066 61.8205C69.217 59.9516 69.2066 58.0911 69.217 56.2264C69.217 55.7747 69.1651 55.6481 68.9367 55.6491C64.322 55.6636 59.7066 55.6636 55.0906 55.6491C54.8622 55.6491 54.8071 55.7747 54.8103 56.2264C54.8238 58.0952 54.8103 59.9558 54.8206 61.8205C54.8206 62.1911 54.7791 62.3022 54.5901 62.2908C54.0801 62.2627 53.5688 62.2627 53.0587 62.2908C52.8656 62.3012 52.8085 62.2005 52.8116 61.7966C52.8231 59.9724 52.8023 58.1471 52.8241 56.324C52.8314 55.7384 52.7348 55.6408 52.4752 55.6481C51.4536 55.6761 50.432 55.6294 49.4114 55.6771C49.0999 55.6927 49.0417 55.4986 49.0417 54.9057C49.0501 36.8457 49.0521 18.785 49.048 0.723659C49.0563 0.484862 49.048 0.241912 49.0438 0ZM62.0219 17.1882C65.5655 17.1882 69.1101 17.1799 72.6536 17.2027C72.9256 17.2027 72.9755 17.0532 72.9734 16.5362C72.9616 12.5832 72.9616 8.63096 72.9734 4.67939C72.9734 4.18103 72.9142 4.04502 72.6619 4.04502C65.5644 4.05955 58.467 4.05955 51.3695 4.04502C51.1079 4.04502 51.0643 4.2101 51.0653 4.69288C51.0743 8.64584 51.0743 12.5981 51.0653 16.5497C51.0653 17.0937 51.1338 17.2027 51.3923 17.2017C54.938 17.182 58.4815 17.1882 62.0251 17.1882H62.0219ZM62.0219 34.4055C65.5665 34.4055 69.1111 34.3982 72.6557 34.42C72.9277 34.42 72.9807 34.2716 72.9786 33.7504C72.9668 29.7773 72.9668 25.8043 72.9786 21.8313C72.9786 21.39 72.936 21.2602 72.7045 21.2602C65.5862 21.2748 58.4677 21.2748 51.3487 21.2602C51.1245 21.2602 51.0705 21.3692 51.0715 21.823C51.0805 25.7967 51.0805 29.7697 51.0715 33.7421C51.0715 34.3328 51.166 34.4159 51.4225 34.4148C54.9515 34.4003 58.4857 34.4055 62.0199 34.4055H62.0219ZM62.0074 51.5864C65.5717 51.5864 69.136 51.5864 72.7014 51.5979C72.9267 51.5979 72.9796 51.4868 72.9786 51.0351C72.9682 47.0406 72.9682 43.0465 72.9786 39.0527C72.9786 38.6063 72.9433 38.4391 72.6931 38.4401C65.5831 38.4554 58.4735 38.4554 51.3643 38.4401C51.1224 38.4401 51.0715 38.5782 51.0726 39.0434C51.0816 42.9956 51.0816 46.9489 51.0726 50.9033C51.0726 51.4317 51.1214 51.602 51.4058 51.601C54.9348 51.5792 58.4701 51.5864 62.0053 51.5864H62.0074Z" fill="#D2D2D2"/>
<path d="M52.5864 10.6267C52.5866 10.406 52.6524 10.1902 52.7753 10.0069C52.8982 9.82349 53.0728 9.68073 53.277 9.59668C53.4811 9.51263 53.7056 9.49106 53.922 9.53471C54.1384 9.57836 54.337 9.68526 54.4926 9.84187C54.6481 9.99849 54.7538 10.1978 54.796 10.4144C54.8382 10.6311 54.8152 10.8555 54.7298 11.0591C54.6444 11.2626 54.5005 11.4363 54.3164 11.558C54.1322 11.6797 53.916 11.7441 53.6953 11.7428C53.4011 11.739 53.1202 11.62 52.9128 11.4113C52.7055 11.2026 52.5883 10.9209 52.5864 10.6267Z" fill="#D2D2D2"/>
<path d="M54.8194 28.2217C54.8215 28.3707 54.7937 28.5186 54.7376 28.6566C54.6816 28.7947 54.5984 28.9201 54.4931 29.0255C54.3877 29.1309 54.2623 29.2141 54.1243 29.2702C53.9862 29.3263 53.8384 29.3541 53.6894 29.3521C53.5404 29.3501 53.3933 29.3183 53.2568 29.2585C53.1204 29.1986 52.9973 29.1121 52.8948 29.0039C52.7924 28.8957 52.7126 28.7681 52.6603 28.6286C52.608 28.4891 52.5842 28.3405 52.5903 28.1916C52.6022 27.9014 52.7268 27.6273 52.9377 27.4275C53.1486 27.2278 53.4291 27.1182 53.7195 27.1222C54.0099 27.1261 54.2874 27.2432 54.4928 27.4485C54.6982 27.6539 54.8154 27.9313 54.8194 28.2217Z" fill="#D2D2D2"/>
<path d="M52.5873 45.4243C52.5909 45.278 52.6234 45.1338 52.6828 45.0001C52.7422 44.8663 52.8273 44.7456 52.9334 44.6447C53.0394 44.5439 53.1643 44.4649 53.3009 44.4123C53.4374 44.3597 53.583 44.3346 53.7293 44.3382C53.8756 44.3419 54.0198 44.3744 54.1535 44.4338C54.2873 44.4932 54.408 44.5783 54.5089 44.6844C54.6097 44.7904 54.6887 44.9153 54.7413 45.0519C54.7939 45.1884 54.819 45.334 54.8154 45.4803C54.8079 45.7758 54.6834 46.0562 54.4692 46.2599C54.2551 46.4635 53.9687 46.5738 53.6733 46.5663C53.3778 46.5589 53.0974 46.4344 52.8937 46.2202C52.6901 46.006 52.5798 45.7197 52.5873 45.4243Z" fill="#D2D2D2"/>
</svg>
