<svg width="81" height="66" viewBox="0 0 81 66" fill="none" xmlns="http://www.w3.org/2000/svg">
<path d="M0 26.3169C0.246636 26.2347 0.211402 25.9861 0.293614 25.8099C0.978713 24.3595 2.09053 23.5374 3.70149 23.4904C5.23807 23.4512 6.77465 23.4571 8.30927 23.4904C8.79276 23.4904 8.93174 23.371 8.91803 22.8856C8.8828 21.7111 8.90042 20.5366 8.90825 19.3622C8.91607 18.1877 9.37216 17.7551 10.6053 17.7512C13.6511 17.7512 16.6975 17.7512 19.7446 17.7512H32.0059C33.5209 17.7512 33.8967 18.129 33.8987 19.6421C33.8987 20.7343 33.9202 21.8285 33.8889 22.9227C33.8752 23.3769 34.024 23.4806 34.4605 23.4787C39.4323 23.4656 44.4049 23.4656 49.378 23.4787C49.791 23.4787 49.9516 23.3299 50.1003 22.9658C50.9596 20.8596 52.5823 19.8339 54.8216 19.7654C56.2271 19.7263 57.6344 19.7341 59.0379 19.7654C59.5351 19.7791 59.6369 19.6166 59.6349 19.1508C59.6173 14.725 59.6349 10.2993 59.6173 5.87356C59.6173 4.25086 58.8344 3.13317 57.4798 2.68687C56.1801 2.2582 54.9352 2.6673 54.0034 3.86133C54.3851 4.02771 54.7688 3.9318 55.1368 3.9455C55.7847 3.9729 56.231 4.26847 56.4189 4.88898C56.965 6.70155 57.5248 8.51413 58.024 10.3404C58.3 11.3544 57.6814 11.9846 56.458 11.9886C53.5924 12.0003 50.7286 11.9886 47.8649 11.9886C47.7612 11.9886 47.6574 11.9886 47.5537 11.9886C46.5202 11.8985 46.0152 11.2193 46.297 10.2093C46.7903 8.46128 47.3129 6.72113 47.8395 4.98293C48.0548 4.27435 48.552 3.86329 49.2997 3.96507C50.5192 4.13145 51.2376 3.76933 51.864 2.57922C52.9464 0.55328 55.5322 -0.390199 57.7186 0.150051C60.1243 0.737278 61.7822 2.60466 62.0602 4.97706C62.2148 6.27679 62.1346 7.57848 62.1404 8.87821C62.1587 12.288 62.1587 15.6985 62.1404 19.1097C62.1404 19.6675 62.2892 19.8026 62.8295 19.785C64.1037 19.7439 65.3741 19.7713 66.6562 19.7713C69.0599 19.7713 70.804 20.8009 71.6946 23.0833C71.8512 23.4865 72.0861 23.4747 72.413 23.4747C73.6364 23.4747 74.8598 23.4571 76.0832 23.4747C78.4321 23.5119 79.9687 25.0759 79.998 27.4229C80.0098 28.4368 80.0176 29.4527 79.998 30.4686C79.9569 32.1579 78.943 33.5535 77.3301 34.0076C76.7683 34.1662 76.7076 34.4246 76.7076 34.9139C76.7194 44.3383 76.7194 53.7633 76.7076 63.1889C76.722 63.4502 76.7135 63.7122 76.6822 63.9719C76.5608 64.6316 76.185 65.0798 75.4803 65.0837C73.2684 65.1013 71.0546 65.1131 68.8427 65.0837C68.048 65.072 67.6545 64.5494 67.6506 63.6489C67.6408 61.1239 67.6252 58.5988 67.6643 56.0737C67.6741 55.4375 67.5331 55.2614 66.8696 55.2614C48.9578 55.2836 31.0454 55.2836 13.1324 55.2614C12.4551 55.2614 12.3318 55.4571 12.3494 56.0835C12.3866 58.5557 12.369 61.0299 12.3631 63.5021C12.3631 64.6766 11.9423 65.1033 10.7698 65.1111C8.8691 65.1209 6.96844 65.1111 5.06778 65.1111C3.69758 65.1111 3.30609 64.7197 3.30609 63.3495C3.30609 53.899 3.31066 44.4486 3.31979 34.9981C3.31979 34.4109 3.21409 34.1525 2.60925 33.992C1.52092 33.7023 0.786885 32.9408 0.317103 31.9171C0.225104 31.7214 0.264252 31.4434 0.0156594 31.3201L0 26.3169ZM39.998 52.7539C48.9513 52.7539 57.9046 52.7591 66.8578 52.7696C67.5136 52.7696 67.6604 52.6091 67.6584 51.9631C67.6297 46.2905 67.6297 40.614 67.6584 34.9335C67.6584 34.358 67.5331 34.2034 66.9381 34.2053C48.9807 34.2236 31.0219 34.2236 13.0619 34.2053C12.4747 34.2053 12.3377 34.3541 12.3396 34.9335C12.3631 40.6087 12.3631 46.2853 12.3396 51.9631C12.3396 52.613 12.4903 52.7715 13.1422 52.7696C22.0928 52.7461 31.0448 52.7409 39.998 52.7539ZM40.0783 25.9979H4.23587C2.92831 25.9979 2.51529 26.4148 2.50942 27.7243C2.50942 28.3487 2.50942 28.9731 2.50942 29.5976C2.50942 31.4023 2.79716 31.692 4.57646 31.692H75.4059C75.6134 31.692 75.8229 31.692 76.0303 31.692C77.0091 31.6431 77.4534 31.2027 77.4769 30.2337C77.4965 29.4801 77.4769 28.7246 77.4769 27.9709C77.4769 26.3267 77.1519 25.9979 75.5292 25.9979H40.0783ZM9.83802 48.4221C9.83802 43.9709 9.82628 39.5217 9.85368 35.0705C9.85368 34.4285 9.7656 34.1349 9.03156 34.2093C8.25007 34.2774 7.46414 34.2774 6.68265 34.2093C5.99364 34.1603 5.77049 34.3404 5.77441 35.0842C5.80964 41.4087 5.79398 47.7331 5.79398 54.0576C5.79398 56.6864 5.80768 59.3152 5.78224 61.944C5.78224 62.4432 5.89381 62.6272 6.42231 62.5998C7.30642 62.5518 8.19248 62.5518 9.07658 62.5998C9.67556 62.635 9.84977 62.4725 9.84585 61.8481C9.82432 57.3754 9.83802 52.8988 9.83802 48.4221ZM74.1904 48.4221C74.1904 43.92 74.1904 39.418 74.2021 34.9159C74.2021 34.3815 74.0807 34.1877 73.5209 34.219C72.6368 34.268 71.7507 34.268 70.8667 34.219C70.2912 34.1858 70.1326 34.3345 70.1346 34.9335C70.1639 39.645 70.1522 44.3566 70.1522 49.07C70.1522 53.3646 70.1522 57.6592 70.1404 61.9558C70.1404 62.4393 70.2285 62.6409 70.7668 62.6096C71.6247 62.5567 72.4849 62.5567 73.3428 62.6096C73.9966 62.6507 74.2178 62.5058 74.2119 61.7816C74.1708 57.3265 74.1864 52.8753 74.1864 48.4221H74.1904ZM21.3242 23.4904C24.4561 23.4904 27.5703 23.4786 30.6924 23.5021C31.2131 23.5021 31.448 23.4101 31.3991 22.8327C31.354 22.2091 31.354 21.5831 31.3991 20.9594C31.4284 20.4779 31.3188 20.2822 30.7747 20.2841C24.5292 20.3037 18.2824 20.3037 12.0343 20.2841C11.5801 20.2841 11.3726 20.3683 11.4098 20.8714C11.4602 21.5229 11.4602 22.1773 11.4098 22.8288C11.3609 23.416 11.5919 23.5021 12.1145 23.4982C15.1818 23.4689 18.253 23.4904 21.3242 23.4904ZM52.6939 23.4415H69.0502C68.6822 22.8327 68.1948 22.4373 67.5899 22.4119C63.125 22.2161 58.6582 22.2279 54.1933 22.4119C53.561 22.4197 53.0658 22.819 52.6939 23.4317V23.4415ZM55.1583 9.49872C54.8843 8.5846 54.6063 7.77618 54.4086 6.95406C54.3107 6.54496 54.1091 6.48624 53.7548 6.49211C52.69 6.50777 51.6232 6.50973 50.5564 6.49211C50.208 6.49211 49.9907 6.54496 49.8948 6.9384C49.7186 7.63525 49.5229 8.32426 49.2821 9.00545C49.1412 9.42042 49.2821 9.49089 49.6638 9.48893C51.4549 9.4811 53.242 9.48893 55.1583 9.48893V9.49872Z" fill="#D2D2D2"/>
</svg>
