<svg width="76" height="89" viewBox="0 0 76 89" fill="none" xmlns="http://www.w3.org/2000/svg">
<path d="M27.7712 76.9301V77.3651C27.7712 79.0901 26.7662 80.7251 25.0412 81.4151L25.6562 82.3451C27.6212 81.5201 28.7162 79.5551 28.7162 77.3651V76.9301H27.7712ZM28.0112 76.9301V77.3651C28.0112 79.4501 29.1062 81.3251 31.1012 82.1051L31.6862 81.1751C29.9762 80.5151 28.9412 78.9851 28.9412 77.3651V76.9301H28.0112ZM25.3112 76.2251V77.2301H31.3562V76.2251H25.3112ZM27.7712 74.5901V76.6451H28.9412V74.5901H27.7712ZM35.1812 74.4551V82.7651H36.3662V74.4551H35.1812ZM32.9912 78.0551V79.0751H35.5562V78.0551H32.9912ZM32.3012 74.6801V82.6751H33.4712V74.6801H32.3012ZM27.2762 83.4851V84.4901H35.1362V88.0001H36.3662V83.4851H27.2762ZM42.035 75.1451V76.5251C42.035 78.5951 40.715 80.4251 38.675 81.1751L39.335 82.1801C41.6 81.2951 43.07 79.1351 43.07 76.5251V75.1451H42.035ZM42.26 75.1451V76.6151C42.26 78.9701 43.745 80.9801 45.92 81.7901L46.58 80.8151C44.63 80.1401 43.28 78.4451 43.28 76.6151V75.1451H42.26ZM48.02 74.4401V82.6601H49.265V74.4401H48.02ZM48.92 77.9351V78.9851H51.275V77.9351H48.92ZM44.945 83.0351C42.17 83.0351 40.49 83.9501 40.49 85.5101C40.49 87.0701 42.17 87.9701 44.945 87.9701C47.72 87.9701 49.4 87.0701 49.4 85.5101C49.4 83.9501 47.72 83.0351 44.945 83.0351ZM44.945 84.0251C46.955 84.0251 48.185 84.5651 48.185 85.5101C48.185 86.4551 46.955 86.9951 44.945 86.9951C42.935 86.9951 41.705 86.4551 41.705 85.5101C41.705 84.5651 42.935 84.0251 44.945 84.0251Z" fill="#7D7D7D"/>
<path d="M8 19.7352C8.18495 19.6736 8.15853 19.4872 8.22018 19.3551C8.73394 18.2673 9.5677 17.6508 10.7758 17.6156C11.9281 17.5862 13.0804 17.5906 14.2312 17.6156C14.5937 17.6156 14.698 17.5261 14.6877 17.162C14.6613 16.2813 14.6745 15.4006 14.6804 14.5198C14.6862 13.6391 15.0282 13.3147 15.953 13.3118C18.237 13.3118 20.5216 13.3118 22.8066 13.3118H32.0014C33.1376 13.3118 33.4194 13.5951 33.4209 14.7297C33.4209 15.5488 33.437 16.3694 33.4135 17.1899C33.4032 17.5305 33.5148 17.6083 33.8421 17.6068C37.5706 17.597 41.2995 17.597 45.0289 17.6068C45.3386 17.6068 45.459 17.4952 45.5706 17.2222C46.215 15.6428 47.4318 14.8736 49.1111 14.8222C50.165 14.7929 51.2204 14.7987 52.2729 14.8222C52.6458 14.8325 52.7221 14.7107 52.7206 14.3613C52.7074 11.0424 52.7206 7.72352 52.7074 4.40462C52.7074 3.18775 52.1203 2.34958 51.1045 2.01491C50.1298 1.69344 49.1962 2.00023 48.4975 2.89564C48.7838 3.02041 49.0715 2.94848 49.3474 2.95876C49.8333 2.97931 50.168 3.20096 50.3089 3.66628C50.7184 5.02554 51.1382 6.3848 51.5126 7.75434C51.7195 8.51471 51.2557 8.98737 50.3383 8.9903C48.1893 8.99911 46.0417 8.9903 43.8942 8.9903C43.8164 8.9903 43.7386 8.9903 43.6608 8.9903C42.8858 8.92278 42.5071 8.41342 42.7185 7.65599C43.0884 6.34517 43.4803 5.04022 43.8751 3.73674C44.0366 3.20536 44.4095 2.8971 44.9702 2.97343C45.8847 3.09821 46.4234 2.82665 46.8931 1.93417C47.7049 0.414909 49.6439 -0.292613 51.2836 0.112524C53.0876 0.55289 54.3309 1.95325 54.5393 3.73233C54.6553 4.70701 54.5951 5.68315 54.5995 6.65783C54.6132 9.21489 54.6132 11.7724 54.5995 14.3305C54.5995 14.7488 54.7111 14.8501 55.1162 14.8369C56.0718 14.8061 57.0245 14.8266 57.9859 14.8266C59.7885 14.8266 61.0964 15.5987 61.7643 17.3103C61.8817 17.6127 62.0579 17.6039 62.303 17.6039C63.2204 17.6039 64.1379 17.5906 65.0553 17.6039C66.8167 17.6317 67.969 18.8046 67.9911 20.5646C67.9999 21.325 68.0057 22.0868 67.9911 22.8486C67.9602 24.1154 67.1999 25.162 65.9903 25.5026C65.569 25.6215 65.5235 25.8152 65.5235 26.1822C65.5323 33.2496 65.5323 40.3174 65.5235 47.3858C65.5343 47.5817 65.5279 47.7782 65.5045 47.973C65.4134 48.4676 65.1316 48.8038 64.6032 48.8067C62.9445 48.8199 61.2843 48.8287 59.6256 48.8067C59.0296 48.7979 58.7346 48.406 58.7316 47.7308C58.7243 45.8372 58.7125 43.9436 58.7419 42.05C58.7492 41.573 58.6436 41.4409 58.1459 41.4409C44.7138 41.4575 31.2812 41.4575 17.8481 41.4409C17.3402 41.4409 17.2477 41.5877 17.2609 42.0574C17.2888 43.9113 17.2756 45.7667 17.2712 47.6207C17.2712 48.5014 16.9556 48.8214 16.0763 48.8273C14.651 48.8346 13.2257 48.8273 11.8004 48.8273C10.7728 48.8273 10.4793 48.5337 10.4793 47.5062C10.4793 40.4192 10.4827 33.3323 10.4895 26.2453C10.4895 25.8049 10.4103 25.6112 9.95669 25.4908C9.14055 25.2736 8.59009 24.7026 8.2378 23.9349C8.16881 23.7881 8.19816 23.5796 8.01174 23.4872L8 19.7352ZM37.9948 39.5605C44.7089 39.5605 51.423 39.5644 58.1371 39.5722C58.6289 39.5722 58.739 39.4519 58.7375 38.9675C58.716 34.7135 58.716 30.4567 58.7375 26.1969C58.7375 25.7653 58.6436 25.6493 58.1973 25.6508C44.7309 25.6645 31.2636 25.6645 17.7952 25.6508C17.3548 25.6508 17.2521 25.7624 17.2536 26.1969C17.2712 30.4528 17.2712 34.7096 17.2536 38.9675C17.2536 39.4548 17.3666 39.5737 17.8554 39.5722C24.5675 39.5546 31.2807 39.5507 37.9948 39.5605ZM38.055 19.496H11.1765C10.196 19.496 9.88623 19.8086 9.88183 20.7906C9.88183 21.2589 9.88183 21.7272 9.88183 22.1954C9.88183 23.5488 10.0976 23.766 11.4319 23.766H64.5474C64.703 23.766 64.8601 23.766 65.0157 23.766C65.7496 23.7294 66.0828 23.3991 66.1004 22.6725C66.1151 22.1073 66.1004 21.5407 66.1004 20.9756C66.1004 19.7426 65.8567 19.496 64.6399 19.496H38.055ZM15.3776 36.3121C15.3776 32.9741 15.3688 29.6376 15.3893 26.2996C15.3893 25.8182 15.3233 25.598 14.7728 25.6538C14.1868 25.7048 13.5974 25.7048 13.0114 25.6538C12.4947 25.6171 12.3273 25.7521 12.3303 26.3099C12.3567 31.0526 12.3449 35.7954 12.3449 40.5381C12.3449 42.5095 12.3552 44.4809 12.3361 46.4522C12.3361 46.8265 12.4198 46.9645 12.8161 46.944C13.4791 46.908 14.1436 46.908 14.8066 46.944C15.2558 46.9704 15.3864 46.8486 15.3835 46.3803C15.3673 43.0262 15.3776 39.6691 15.3776 36.3121ZM63.6358 36.3121C63.6358 32.9359 63.6358 29.5598 63.6446 26.1837C63.6446 25.7829 63.5536 25.6376 63.1338 25.6611C62.4708 25.6978 61.8063 25.6978 61.1434 25.6611C60.7118 25.6361 60.5929 25.7477 60.5944 26.1969C60.6164 29.7301 60.6076 33.2633 60.6076 36.7979C60.6076 40.0185 60.6076 43.239 60.5988 46.461C60.5988 46.8236 60.6648 46.9748 61.0685 46.9513C61.7118 46.9117 62.3569 46.9117 63.0002 46.9513C63.4905 46.9821 63.6564 46.8735 63.652 46.3304C63.6212 42.9895 63.6329 39.6515 63.6329 36.3121H63.6358ZM23.9912 17.6156C26.3398 17.6156 28.6752 17.6068 31.0165 17.6244C31.4069 17.6244 31.5831 17.5554 31.5464 17.1224C31.5126 16.6547 31.5126 16.1853 31.5464 15.7176C31.5684 15.3565 31.4862 15.2097 31.0781 15.2112C26.3946 15.2259 21.7101 15.2259 17.0246 15.2112C16.684 15.2112 16.5284 15.2743 16.5563 15.6516C16.594 16.1401 16.594 16.6309 16.5563 17.1195C16.5196 17.5598 16.6928 17.6244 17.0847 17.6215C19.3849 17.5995 21.688 17.6156 23.9912 17.6156ZM47.5155 17.5789H59.7812C59.5052 17.1224 59.1397 16.8259 58.6861 16.8068C55.3379 16.66 51.9882 16.6688 48.6399 16.8068C48.1658 16.8127 47.7944 17.1121 47.5155 17.5716V17.5789ZM49.3636 7.12315C49.1581 6.43765 48.9496 5.83141 48.8014 5.2149C48.728 4.90811 48.5768 4.86407 48.3111 4.86848C47.5126 4.88022 46.7126 4.88169 45.9126 4.86848C45.6513 4.86848 45.4884 4.90811 45.4164 5.20315C45.2843 5.72572 45.1375 6.24242 44.957 6.75324C44.8513 7.06443 44.957 7.11728 45.2432 7.11581C46.5863 7.10994 47.9265 7.11581 49.3636 7.11581V7.12315Z" fill="#D2D2D2"/>
</svg>
