<svg width="76" height="101" viewBox="0 0 76 101" fill="none" xmlns="http://www.w3.org/2000/svg">
<path d="M7.77793 86.8448V88.1648C7.77793 90.1898 6.41293 92.0648 4.35793 92.8148L4.98793 93.8048C7.28293 92.9348 8.81293 90.7298 8.81293 88.1648V86.8448H7.77793ZM8.00293 86.8448V88.1648C8.00293 90.6548 9.53293 92.7248 11.7979 93.5498L12.4279 92.5748C10.4179 91.8698 9.02293 90.1148 9.02293 88.1648V86.8448H8.00293ZM6.30793 95.0498V96.0698H14.1079V99.7598H15.3679V95.0498H6.30793ZM14.1079 86.1998V94.3598H15.3679V86.1998H14.1079ZM27.9218 86.1998V99.7598H29.1668V86.1998H27.9218ZM23.9468 87.6548V87.8648C23.9468 91.4648 22.1318 94.3448 18.2168 96.2348L18.8768 97.2398C23.4068 95.0198 25.1768 91.5848 25.1768 87.6548H23.9468ZM18.8318 87.6548V88.6748H24.4868V87.6548H18.8318ZM37.1906 91.0448V92.0798H39.7856V91.0448H37.1906ZM34.6556 87.4748V90.0548C34.6556 92.3798 33.5456 94.8098 31.6856 95.9048L32.4656 96.8498C34.4456 95.6348 35.6306 92.8898 35.6306 90.0548V87.4748H34.6556ZM34.8956 87.4748V90.0098C34.8956 92.6498 35.9906 95.3498 37.9406 96.5498L38.6606 95.5748C36.8756 94.4948 35.8556 92.1848 35.8556 90.0098V87.4748H34.8956ZM42.1706 86.1998V99.7598H43.3706V86.1998H42.1706ZM39.4256 86.4848V99.0848H40.5956V86.4848H39.4256ZM52.8194 90.1748V91.2098H55.8194V90.1748H52.8194ZM47.7494 95.1698V96.1898H55.5494V99.7748H56.7944V95.1698H47.7494ZM55.5494 86.1998V94.4498H56.7944V86.1998H55.5494ZM49.0244 88.6148V89.1848C49.0244 91.0148 47.6744 92.6798 45.6794 93.3548L46.2794 94.3298C48.5444 93.5498 50.0444 91.5698 50.0444 89.1848V88.6148H49.0244ZM49.2494 88.6148V89.1848C49.2494 91.4498 50.7794 93.3548 53.0594 94.0748L53.6444 93.0998C51.6494 92.4848 50.2694 90.9098 50.2694 89.1848V88.6148H49.2494ZM46.0244 87.8348V88.8398H53.2544V87.8348H46.0244ZM49.0244 86.1398V88.3598H50.2694V86.1398H49.0244ZM69.3182 86.1998V99.7598H70.5632V86.1998H69.3182ZM65.3432 87.6548V87.8648C65.3432 91.4648 63.5282 94.3448 59.6132 96.2348L60.2732 97.2398C64.8032 95.0198 66.5732 91.5848 66.5732 87.6548H65.3432ZM60.2282 87.6548V88.6748H65.8832V87.6548H60.2282Z" fill="#7D7D7D"/>
<path d="M11 30.5225V2.61775C11 2.43999 11 2.26224 11 2.08448C11.0557 1.09998 11.5827 0.589844 12.5683 0.589844C16.1445 0.589844 19.7206 0.589844 23.2968 0.589844H63.591C65.1782 0.589844 65.601 1.01057 65.601 2.60303C65.601 21.2728 65.601 39.943 65.601 58.6135C65.601 60.1481 65.1603 60.5888 63.6215 60.5898H12.9985C11.4207 60.5898 11 60.1649 11 58.5609V30.5225ZM38.2306 57.8825C46.2006 57.8825 54.1705 57.8877 62.1405 57.8982C62.7443 57.8982 62.8558 57.7352 62.8547 57.162C62.8379 43.9988 62.8379 30.8349 62.8547 17.6703C62.8547 17.1087 62.7495 16.9341 62.1458 16.9341C46.2507 16.9551 30.3552 16.9551 14.4594 16.9341C13.8641 16.9341 13.7431 17.0845 13.7442 17.6588C13.7624 30.8009 13.7624 43.9427 13.7442 57.0841C13.7442 57.7015 13.8494 57.893 14.5204 57.8909C22.4228 57.873 30.3261 57.8825 38.2306 57.8825ZM38.2306 14.2141C46.2244 14.2141 54.2182 14.2183 62.2121 14.2267C62.738 14.2267 62.8621 14.091 62.8579 13.5756C62.8333 10.357 62.8333 7.13812 62.8579 3.91885C62.8579 3.44238 62.7737 3.28776 62.2499 3.28776C46.2875 3.30459 30.3254 3.30459 14.3637 3.28776C13.8483 3.28776 13.7484 3.43186 13.7516 3.91885C13.7736 7.11533 13.7789 10.3129 13.7516 13.5093C13.7516 14.0794 13.8652 14.2351 14.4626 14.234C22.3796 14.2056 30.3051 14.2141 38.2306 14.2141V14.2141Z" fill="#D2D2D2"/>
<path d="M26.0588 29.2351C29.0102 29.2351 31.9616 29.2519 34.9119 29.2204C35.4862 29.2141 35.6019 29.3855 35.5914 29.9251C35.5462 32.1655 35.623 34.409 35.5188 36.6462C35.3211 40.8966 32.1183 44.5422 27.9457 45.3532C27.5019 45.4394 27.362 45.5793 27.3757 46.0243C27.4083 47.0656 27.4125 48.11 27.3757 49.1513C27.3588 49.6162 27.5282 49.6983 27.9405 49.6867C28.9166 49.6593 29.8948 49.7025 30.8698 49.6678C31.3463 49.6499 31.564 49.7508 31.5009 50.2778C31.4231 50.9752 31.7933 51.9144 31.3515 52.312C30.9655 52.6581 30.0462 52.4225 29.3615 52.4246C26.6268 52.4246 23.9026 52.4109 21.1741 52.4393C20.6661 52.4446 20.5241 52.3099 20.562 51.8166C20.6146 51.1329 20.3316 50.2094 20.6777 49.8182C21.0732 49.3732 22.0135 49.7235 22.714 49.6741C23.3503 49.6299 24.1971 49.9549 24.562 49.5394C24.8776 49.185 24.6578 48.3582 24.6672 47.7398C24.6725 47.0519 24.8608 46.2798 24.6115 45.6982C24.338 45.0608 23.4208 45.2406 22.8023 45.0071C19.0505 43.5956 16.5745 40.2319 16.4778 36.2287C16.4231 34.0556 16.4778 31.8804 16.4494 29.7074C16.443 29.2362 16.6534 29.2298 17.0047 29.2309C20.0224 29.2393 23.0401 29.2351 26.0588 29.2351ZM26.0241 31.9456C23.9383 31.9456 21.8515 31.9562 19.7647 31.9372C19.344 31.9372 19.1862 32.0245 19.1988 32.4821C19.2346 33.7022 19.2093 34.9233 19.2177 36.1435C19.2107 37.7127 19.7847 39.229 20.8291 40.4002C22.6709 42.5038 24.988 43.34 27.6986 42.6237C30.4417 41.9001 32.1446 40.0489 32.7063 37.2542C33.0218 35.6764 32.7673 34.0651 32.8483 32.4726C32.8714 32.0098 32.6968 31.933 32.2845 31.9372C30.1977 31.9562 28.1109 31.9456 26.0241 31.9456V31.9456Z" fill="#D2D2D2"/>
<path d="M41.02 37.3825C41.02 32.6104 41.0274 27.8383 41.0095 23.0672C41.0095 22.5634 41.1063 22.3457 41.6574 22.3983C42.2111 22.4372 42.7667 22.4372 43.3204 22.3983C43.6664 22.3815 43.7842 22.4866 43.7695 22.8432C43.7411 23.5069 43.7832 24.1748 43.7516 24.8417C43.7369 25.1782 43.8642 25.3076 44.1723 25.3876C47.1879 26.188 49.2789 28.9848 49.2326 32.3632C49.1874 35.6912 49.1769 39.0223 49.2326 42.3503C49.2937 45.8213 47.2174 48.6096 44.1397 49.4364C43.7947 49.5289 43.7527 49.7035 43.7579 49.997C43.7716 50.6617 43.7411 51.3286 43.7705 51.9954C43.7863 52.3615 43.6527 52.4477 43.3141 52.433C42.7379 52.3972 42.16 52.3972 41.5838 52.433C41.0863 52.4719 41.0106 52.2679 41.0116 51.8272C41.0253 47.0151 41.02 42.1988 41.02 37.3825ZM43.8168 28.4978V46.3303C45.5092 45.7119 46.459 44.4791 46.4716 42.7783C46.4983 39.2085 46.4983 35.6379 46.4716 32.0666C46.4558 30.3322 45.4997 29.0942 43.8168 28.4978Z" fill="#D2D2D2"/>
<path d="M51.9314 37.4532C51.9314 32.659 51.9377 27.8658 51.9209 23.0727C51.9209 22.5762 52.0061 22.3438 52.5636 22.3985C53.095 22.44 53.6288 22.44 54.1602 22.3985C54.5536 22.3753 54.7145 22.4731 54.6861 22.9054C54.6472 23.546 54.6967 24.1929 54.6672 24.8345C54.6525 25.1647 54.7724 25.3057 55.0774 25.3877C58.1098 26.1934 60.1893 28.9702 60.1451 32.4244C60.1009 35.7976 60.1545 39.1718 60.1293 42.545C60.1072 45.5416 58.7756 47.7547 56.0588 49.0915C55.9808 49.1338 55.9008 49.172 55.8189 49.2062C55.4508 49.3398 54.9007 49.3671 54.7556 49.6269C54.5631 49.9667 54.6788 50.4852 54.6777 50.927C54.6777 52.4248 54.6777 52.4248 53.1599 52.4248C51.9293 52.4248 51.9293 52.4248 51.9293 51.1626L51.9314 37.4532ZM54.7051 46.2884C56.2018 45.935 57.3578 44.5266 57.3725 42.8942C57.4054 39.2374 57.4054 35.5799 57.3725 31.9216C57.3578 30.2913 56.3259 29.026 54.7061 28.4948L54.7051 46.2884Z" fill="#D2D2D2"/>
<path d="M41.0249 6.05275C41.3851 6.05136 41.7421 6.12142 42.0751 6.25888C42.408 6.39634 42.7104 6.59848 42.9648 6.8536C43.2191 7.10871 43.4203 7.41174 43.5567 7.74513C43.6932 8.07853 43.7622 8.43568 43.7596 8.7959C43.7612 9.1577 43.6908 9.5162 43.5524 9.85051C43.4141 10.1848 43.2106 10.4883 42.9538 10.7432C42.6971 10.9981 42.3921 11.1993 42.0568 11.3352C41.7215 11.4712 41.3625 11.539 41.0007 11.5348C40.639 11.5306 40.2816 11.4545 39.9496 11.3109C39.6175 11.1672 39.3173 10.959 39.0665 10.6982C38.8157 10.4374 38.6193 10.1293 38.4887 9.79191C38.3582 9.45449 38.296 9.09446 38.306 8.73279C38.3162 8.01845 38.6072 7.33683 39.116 6.83531C39.6248 6.33379 40.3105 6.05268 41.0249 6.05275V6.05275Z" fill="#D2D2D2"/>
<path d="M54.68 8.76226C54.6798 8.40295 54.7512 8.0472 54.8902 7.71583C55.0291 7.38447 55.2327 7.08415 55.4892 6.83243C55.7456 6.58072 56.0496 6.38267 56.3835 6.24989C56.7174 6.1171 57.0744 6.05223 57.4336 6.05909C58.1489 6.06869 58.8319 6.35818 59.3363 6.86547C59.8406 7.37276 60.1261 8.05747 60.1315 8.77278C60.1387 9.13524 60.0734 9.49548 59.9396 9.83243C59.8059 10.1694 59.6062 10.4762 59.3524 10.7351C59.0986 10.994 58.7957 11.1996 58.4614 11.34C58.1272 11.4803 57.7683 11.5526 57.4058 11.5526C57.0432 11.5526 56.6843 11.4803 56.3501 11.34C56.0158 11.1996 55.7129 10.994 55.4591 10.7351C55.2053 10.4762 55.0057 10.1694 54.8719 9.83243C54.7381 9.49548 54.6728 9.13524 54.68 8.77278V8.76226Z" fill="#D2D2D2"/>
<path d="M49.1811 6.05911C49.5407 6.05206 49.898 6.11723 50.232 6.25076C50.5659 6.3843 50.8697 6.58348 51.1253 6.83652C51.3809 7.08955 51.5831 7.3913 51.72 7.7239C51.8568 8.05649 51.9256 8.41317 51.9221 8.77281C51.9229 9.30955 51.7648 9.83451 51.4677 10.2815C51.1706 10.7285 50.7477 11.0775 50.2525 11.2845C49.7573 11.4915 49.2119 11.5473 48.685 11.4448C48.1582 11.3422 47.6735 11.086 47.292 10.7084C46.9106 10.3307 46.6495 9.84864 46.5417 9.32284C46.4339 8.79704 46.4842 8.25109 46.6862 7.75383C46.8883 7.25657 47.233 6.83026 47.677 6.52866C48.121 6.22707 48.6444 6.06368 49.1811 6.05911V6.05911Z" fill="#D2D2D2"/>
</svg>
