<svg width="76" height="101" viewBox="0 0 76 101" fill="none" xmlns="http://www.w3.org/2000/svg">
<path d="M19.4602 60.71C18.9361 60.431 18.3679 60.2387 17.9392 59.7894C17.1905 59.0069 17.0143 58.0541 17.0862 57.0308C17.1156 56.6139 17.004 56.3819 16.6047 56.1734C15.574 55.6346 15.0529 54.739 15 53.5645C15 53.428 15 53.2915 15 53.1549C15 37.4948 15 21.8347 15 6.17453C15 3.9547 15.9073 2.27515 17.9069 1.23571C18.6454 0.870617 19.4617 0.690733 20.2853 0.711588C31.9218 0.711588 43.5577 0.711588 55.1932 0.711588C58.2587 0.711588 60.4785 2.92701 60.4785 5.99688C60.4873 21.7931 60.4873 37.5883 60.4785 53.3825C60.4785 54.695 59.9118 55.6757 58.7255 56.2468C58.3967 56.4054 58.3908 56.6227 58.3996 56.9031C58.4349 57.8926 58.3614 58.8425 57.6655 59.6485C57.1855 60.2005 56.5512 60.4501 55.9038 60.7041L19.4602 60.71ZM37.7312 15.1096C31.014 15.1096 24.2977 15.1062 17.5825 15.0993C17.1053 15.0993 16.9277 15.161 16.9291 15.713C16.9477 28.1501 16.9531 40.5867 16.9453 53.0228C16.9453 54.2927 17.2683 54.6157 18.5367 54.6157H56.9608C58.1955 54.6157 58.5362 54.2825 58.5362 53.0639C58.5362 40.6063 58.5401 28.1496 58.5479 15.6939C58.5479 15.1962 58.4158 15.0964 57.9386 15.0979C51.2028 15.1155 44.467 15.1194 37.7312 15.1096ZM37.7106 13.1452C44.4641 13.1452 51.2199 13.1487 57.9783 13.1555C58.4437 13.1555 58.5523 13.0307 58.5464 12.58C58.5229 10.4527 58.5376 8.32241 58.5362 6.19508C58.5362 5.60783 58.4995 5.02057 58.2234 4.48617C57.5422 3.16485 56.4235 2.65981 54.9642 2.66127C43.4824 2.67596 32.0005 2.67889 20.5187 2.67008C20.3044 2.67008 20.0886 2.67889 19.8757 2.69357C18.3195 2.80515 17.0554 3.9826 16.9981 5.55644C16.9189 7.87757 16.9717 10.2016 16.9321 12.5242C16.9233 13.0278 17.0334 13.1643 17.559 13.1629C24.2757 13.1379 30.9924 13.1452 37.7106 13.1452V13.1452ZM37.74 56.5757H19.698C19.5409 56.5757 19.3853 56.5757 19.2297 56.5757C19.0961 56.5757 19.0403 56.6403 19.0065 56.7812C18.7129 58.0086 19.3002 58.7515 20.5775 58.7515H54.904C56.124 58.7515 56.4382 58.4035 56.4852 57.1923C56.5057 56.6608 56.3384 56.5595 55.8407 56.561C49.8066 56.583 43.7755 56.5757 37.74 56.5757V56.5757Z" fill="#D2D2D2"/>
<path d="M54.2624 34.8354C54.2918 43.9158 46.8307 51.3798 37.7327 51.3666C33.3605 51.3574 29.1697 49.6184 26.0754 46.5296C22.981 43.4408 21.2347 39.253 21.2176 34.8809C21.1912 25.8166 28.6831 18.313 37.7474 18.3291C42.1198 18.3488 46.3078 20.0939 49.4004 23.1849C52.4931 26.2759 54.2404 30.4629 54.2624 34.8354V34.8354ZM37.7136 49.4404C45.6841 49.4874 52.2026 42.9938 52.3039 34.9191C52.4038 26.9544 45.806 20.3155 37.7694 20.2891C29.768 20.2627 23.2745 26.7269 23.1805 34.809C23.0836 42.7721 29.6594 49.392 37.7136 49.4404Z" fill="#D2D2D2"/>
<path d="M28.9354 10.9458C26.8066 10.9458 24.6783 10.9458 22.5505 10.9458C20.9355 10.9458 20.178 10.1838 20.1736 8.58944C20.1736 8.17836 20.1736 7.76826 20.1736 7.35914C20.1736 5.58123 20.9077 4.85156 22.7105 4.85156C25.3267 4.85156 27.943 4.85156 30.5592 4.85156C32.1418 4.85156 33.723 4.85156 35.3042 4.85156C36.9104 4.85156 37.662 5.61499 37.6694 7.22701C37.6694 7.65571 37.6694 8.08587 37.6694 8.51457C37.6694 10.2191 36.95 10.9443 35.2616 10.9473C33.1524 10.9473 31.0437 10.9468 28.9354 10.9458ZM28.9075 9.01667C31.0143 9.01667 33.1211 9.00639 35.2205 9.02548C35.6316 9.02548 35.7755 8.91537 35.7402 8.50282C35.7017 8.11227 35.7017 7.71886 35.7402 7.32831C35.7916 6.86732 35.6052 6.7895 35.1838 6.79097C31.4004 6.80859 27.617 6.79097 23.8337 6.80712C23.2772 6.80712 22.5329 6.55313 22.2187 6.92017C21.9456 7.23582 22.1658 7.96108 22.1247 8.50282C22.0939 8.91684 22.2363 9.02401 22.6445 9.02107C24.7351 9.00639 26.8213 9.01667 28.9075 9.01667V9.01667Z" fill="#D2D2D2"/>
<path d="M43.9885 10.9374C43.1813 10.9425 42.4049 10.6281 41.8287 10.0629C41.2525 9.49767 40.9232 8.72747 40.9127 7.92036C40.9051 7.11241 41.2188 6.33454 41.7848 5.75786C42.3507 5.18118 43.1225 4.85294 43.9305 4.84535C44.7384 4.83776 45.5163 5.15143 46.093 5.71737C46.6697 6.28331 46.9979 7.05515 47.0055 7.86311C47.0102 8.26331 46.9357 8.66049 46.7864 9.03184C46.6372 9.40319 46.416 9.7414 46.1357 10.0271C45.8554 10.3127 45.5214 10.5402 45.1529 10.6964C44.7844 10.8526 44.3887 10.9345 43.9885 10.9374ZM45.0382 7.88953C45.0308 7.67641 44.9605 7.47025 44.8361 7.29707C44.7116 7.12389 44.5387 6.99147 44.339 6.91652C44.1394 6.84156 43.922 6.82744 43.7144 6.87594C43.5067 6.92443 43.3181 7.03337 43.1723 7.18899C43.0265 7.34462 42.9301 7.53995 42.8952 7.75033C42.8603 7.96071 42.8886 8.1767 42.9764 8.37103C43.0642 8.56537 43.2076 8.72933 43.3885 8.84222C43.5694 8.95511 43.7797 9.01186 43.9929 9.00532C44.2782 8.99236 44.5472 8.86845 44.7425 8.66001C44.9377 8.45157 45.0439 8.1751 45.0382 7.88953V7.88953Z" fill="#D2D2D2"/>
<path d="M52.2701 10.9375C51.8702 10.9402 51.4738 10.8638 51.1036 10.7126C50.7334 10.5615 50.3967 10.3386 50.113 10.0568C49.8293 9.77501 49.6042 9.43988 49.4505 9.07071C49.2969 8.70154 49.2178 8.30563 49.2178 7.90576C49.2152 7.304 49.3911 6.71498 49.7233 6.21322C50.0555 5.71146 50.5291 5.31951 51.0841 5.08694C51.6391 4.85438 52.2507 4.79165 52.8413 4.9067C53.432 5.02175 53.9753 5.3094 54.4024 5.73327C54.8296 6.15714 55.1214 6.69818 55.241 7.28794C55.3606 7.8777 55.3026 8.48969 55.0744 9.04649C54.8461 9.60328 54.4578 10.0799 53.9586 10.4159C53.4595 10.752 52.8718 10.9325 52.2701 10.9345V10.9375ZM52.2583 6.81494C52.0407 6.81115 51.827 6.87226 51.6443 6.99047C51.4616 7.10868 51.3182 7.27864 51.2325 7.47867C51.1468 7.67869 51.1226 7.89971 51.1631 8.11353C51.2035 8.32734 51.3067 8.52427 51.4596 8.67918C51.6124 8.83409 51.8079 8.93997 52.0212 8.9833C52.2344 9.02663 52.4557 9.00545 52.6569 8.92247C52.8581 8.83949 53.0299 8.69846 53.1506 8.51738C53.2713 8.3363 53.3353 8.12337 53.3345 7.90576C53.3322 7.61967 53.2186 7.34572 53.0177 7.14205C52.8167 6.93838 52.5443 6.82104 52.2583 6.81494V6.81494Z" fill="#D2D2D2"/>
<path d="M25.362 34.8805C25.3048 28.127 30.8851 22.529 37.7032 22.4953C44.5212 22.4615 49.9944 27.9083 50.1163 34.8056C50.2337 41.5121 44.6298 47.1703 37.8059 47.2334C31.0129 47.2951 25.4237 41.7455 25.362 34.8805ZM37.7237 45.2764C40.4867 45.2775 43.1375 44.1834 45.0953 42.2336C47.053 40.2839 48.158 37.6376 48.1681 34.8746C48.1813 29.1489 43.5097 24.4582 37.7575 24.4259C32.0523 24.3936 27.3234 29.1092 27.3117 34.8408C27.3129 37.6041 28.4095 40.2542 30.3612 42.2103C32.3129 44.1664 34.9605 45.269 37.7237 45.2764V45.2764Z" fill="#D2D2D2"/>
<path d="M45.9455 34.492C45.9543 34.648 45.9543 34.8044 45.9455 34.9604C45.9255 35.1962 45.8171 35.4158 45.6421 35.575C45.467 35.7343 45.2382 35.8215 45.0015 35.8192C44.5097 35.7884 44.1412 35.5461 44.0678 35.022C43.9591 34.2322 43.921 33.4379 43.6273 32.673C43.1976 31.5261 42.4428 30.5295 41.4553 29.8051C40.4678 29.0807 39.2905 28.66 38.0675 28.5945C37.9897 28.5945 37.9119 28.5945 37.8341 28.5842C37.1279 28.5079 36.7447 28.11 36.7961 27.5052C36.8431 26.9443 37.2835 26.5949 37.9706 26.6243C40.8305 26.7711 43.0768 28.0263 44.6638 30.4165C45.461 31.6297 45.9048 33.0409 45.9455 34.492V34.492Z" fill="#D2D2D2"/>
<path d="M27.9518 86.32V96.34H29.1968V86.32H27.9518ZM25.0268 90.505V91.54H28.1918V90.505H25.0268ZM23.7668 87.37V87.865C23.7668 90.55 21.5618 92.68 18.2468 93.79L18.7868 94.795C22.6118 93.52 25.0718 90.865 25.0718 87.37H23.7668ZM18.9218 87.37V88.39H24.5768V87.37H18.9218ZM20.6318 98.56V99.58H29.5418V98.56H20.6318ZM20.6318 95.335V99.07H21.8768V95.335H20.6318ZM31.8506 97.105V98.14H44.1356V97.105H31.8506ZM37.3706 93.82V97.45H38.6006V93.82H37.3706ZM37.3406 88.03V88.87C37.3406 91.015 34.7756 92.92 32.4356 93.31L32.9456 94.3C35.6156 93.745 38.3906 91.645 38.3906 88.87V88.03H37.3406ZM37.5656 88.03V88.87C37.5656 91.645 40.3556 93.715 43.0706 94.255L43.5656 93.265C41.1956 92.875 38.6156 91.015 38.6156 88.87V88.03H37.5656ZM32.8556 87.55V88.57H43.1006V87.55H32.8556ZM55.5194 86.32V99.88H56.7644V86.32H55.5194ZM51.5444 87.775V87.985C51.5444 91.585 49.7294 94.465 45.8144 96.355L46.4744 97.36C51.0044 95.14 52.7744 91.705 52.7744 87.775H51.5444ZM46.4294 87.775V88.795H52.0844V87.775H46.4294Z" fill="#7D7D7D"/>
</svg>
