<svg width="57" height="76" viewBox="0 0 57 76" fill="none" xmlns="http://www.w3.org/2000/svg">
<path d="M5.5754 75.002C4.92023 74.6533 4.21 74.4129 3.67411 73.8513C2.73815 72.8732 2.51792 71.6821 2.60785 70.403C2.64455 69.8818 2.50508 69.5918 2.0059 69.3312C0.717572 68.6577 0.066068 67.5382 0 66.07C0 65.8993 0 65.7286 0 65.558C0 45.9823 0 26.4066 0 6.83089C0 4.05604 1.13417 1.95654 3.63374 0.657208C4.55692 0.200825 5.5773 -0.0240361 6.6068 0.00203413C21.1528 0.00203413 35.6981 0.00203413 50.2429 0.00203413C54.0748 0.00203413 56.8497 2.77138 56.8497 6.60883C56.8607 26.3546 56.8607 46.0991 56.8497 65.8424C56.8497 67.4831 56.1413 68.709 54.6584 69.423C54.2473 69.6212 54.24 69.8928 54.251 70.2433C54.295 71.4802 54.2033 72.6676 53.3334 73.6752C52.7333 74.3652 51.9404 74.6772 51.1311 74.9947L5.5754 75.002ZM28.4147 18C20.018 18 11.6225 17.9958 3.22815 17.9872C2.63171 17.9872 2.40965 18.0643 2.41148 18.7543C2.43473 34.3011 2.44146 49.8473 2.43167 65.3928C2.43167 66.9803 2.83542 67.384 4.42105 67.384H52.4525C53.9959 67.384 54.4217 66.9674 54.4217 65.4442C54.4217 49.8717 54.4266 34.3005 54.4363 18.7305C54.4363 18.1083 54.2712 17.9835 53.6747 17.9854C45.2547 18.0074 36.8347 18.0123 28.4147 18ZM28.389 15.5445C36.8311 15.5445 45.2761 15.5488 53.7243 15.5574C54.306 15.5574 54.4418 15.4014 54.4345 14.838C54.4051 12.1787 54.4235 9.51582 54.4217 6.85659C54.4217 6.1225 54.3758 5.38841 54.0308 4.72039C53.1792 3.06869 51.7808 2.43737 49.9566 2.43921C35.6039 2.45756 21.2513 2.46123 6.8986 2.45022C6.63066 2.45022 6.36088 2.46123 6.09477 2.47958C4.14944 2.61906 2.56931 4.09091 2.49774 6.05826C2.39863 8.95975 2.4647 11.8649 2.41515 14.7682C2.40414 15.3977 2.54178 15.5684 3.19879 15.5665C11.5949 15.5353 19.9911 15.5445 28.389 15.5445ZM28.4257 69.834H5.87271C5.67634 69.834 5.48181 69.834 5.28727 69.834C5.12027 69.834 5.05053 69.9148 5.00832 70.091C4.64128 71.6252 5.37536 72.5538 6.97201 72.5538H49.8813C51.4064 72.5538 51.7991 72.1189 51.8579 70.6048C51.8836 69.9405 51.6743 69.8139 51.0522 69.8157C43.5094 69.8432 35.9703 69.834 28.4257 69.834Z" fill="#D2D2D2"/>
<path d="M49.0792 42.6578C49.1159 54.0087 39.7893 63.339 28.4165 63.3224C22.9511 63.3108 17.7124 61.1371 13.8444 57.276C9.97642 53.4148 7.79338 48.18 7.77206 42.7147C7.73903 31.3841 17.1042 22.0043 28.4348 22.0244C33.9006 22.049 39.1356 24.2305 43.0016 28.0943C46.8675 31.9582 49.0517 37.1921 49.0792 42.6578ZM28.3926 60.9146C38.356 60.9734 46.5044 52.8562 46.631 42.7624C46.7558 32.8064 38.5084 24.5075 28.4623 24.4745C18.4604 24.4414 10.3432 32.5219 10.2258 42.6248C10.1046 52.5791 18.3246 60.8541 28.3926 60.9146Z" fill="#D2D2D2"/>
<path d="M17.4199 12.7953C14.7588 12.7953 12.0984 12.7953 9.43851 12.7953C7.41976 12.7953 6.47279 11.8428 6.46729 9.84972C6.46729 9.33586 6.46729 8.82322 6.46729 8.3118C6.46729 6.08935 7.3849 5.17725 9.63855 5.17725C12.9089 5.17725 16.1793 5.17725 19.4496 5.17725C21.428 5.17725 23.4045 5.17725 25.3811 5.17725C27.3888 5.17725 28.3284 6.13156 28.3376 8.14663C28.3376 8.68252 28.3376 9.22024 28.3376 9.75612C28.3376 11.8868 27.4384 12.7934 25.3279 12.7971C22.6913 12.7971 20.0553 12.7965 17.4199 12.7953ZM17.385 10.3838C20.0186 10.3838 22.6521 10.3709 25.2765 10.3948C25.7903 10.3948 25.9702 10.2571 25.9261 9.74144C25.8779 9.25324 25.8779 8.76147 25.9261 8.27326C25.9904 7.69701 25.7573 7.59974 25.2306 7.60157C20.5012 7.6236 15.7719 7.60157 11.0425 7.62176C10.3469 7.62176 9.41649 7.30427 9.02375 7.76307C8.6824 8.15765 8.95768 9.06425 8.90629 9.74144C8.86775 10.259 9.04577 10.3929 9.55596 10.3893C12.1693 10.3709 14.7772 10.3838 17.385 10.3838Z" fill="#D2D2D2"/>
<path d="M36.2366 12.7844C35.2276 12.7908 34.257 12.3978 33.5367 11.6912C32.8164 10.9847 32.4048 10.0219 32.3918 9.01298C32.3823 8.00302 32.7744 7.03065 33.4818 6.30978C34.1893 5.58891 35.1541 5.1786 36.1641 5.16911C37.174 5.15962 38.1464 5.55173 38.8673 6.25917C39.5881 6.96661 39.9984 7.93144 40.0079 8.94141C40.0138 9.44168 39.9207 9.93816 39.7341 10.4024C39.5475 10.8666 39.2711 11.2893 38.9207 11.6464C38.5702 12.0035 38.1527 12.2878 37.6921 12.4831C37.2315 12.6784 36.7368 12.7808 36.2366 12.7844ZM37.5487 8.97445C37.5396 8.70804 37.4516 8.45032 37.2961 8.23385C37.1405 8.01737 36.9243 7.85183 36.6748 7.75814C36.4252 7.66445 36.1535 7.6468 35.8939 7.70742C35.6343 7.76804 35.3985 7.90421 35.2163 8.09875C35.034 8.29328 34.9135 8.53745 34.8699 8.80043C34.8263 9.06341 34.8617 9.33341 34.9714 9.57634C35.0812 9.81926 35.2604 10.0242 35.4866 10.1653C35.7127 10.3065 35.9756 10.3774 36.2421 10.3692C36.5987 10.353 36.935 10.1981 37.1791 9.93757C37.4232 9.67701 37.5558 9.33141 37.5487 8.97445Z" fill="#D2D2D2"/>
<path d="M46.5889 12.7846C46.0891 12.788 45.5935 12.6925 45.1307 12.5035C44.668 12.3146 44.2472 12.036 43.8925 11.6837C43.5379 11.3315 43.2564 10.9126 43.0644 10.4511C42.8723 9.98961 42.7735 9.4947 42.7735 8.99486C42.7702 8.24263 42.9901 7.50634 43.4054 6.87912C43.8207 6.2519 44.4127 5.76195 45.1064 5.47123C45.8002 5.18052 46.5646 5.10211 47.303 5.24592C48.0414 5.38974 48.7205 5.74932 49.2544 6.27917C49.7884 6.80902 50.1532 7.48533 50.3027 8.22256C50.4522 8.95978 50.3797 9.72479 50.0944 10.4208C49.809 11.1168 49.3237 11.7126 48.6997 12.1327C48.0757 12.5528 47.3411 12.7784 46.5889 12.7809V12.7846ZM46.5742 7.63129C46.3022 7.62655 46.035 7.70294 45.8066 7.85071C45.5783 7.99848 45.3991 8.21094 45.2919 8.46097C45.1848 8.711 45.1546 8.98729 45.2051 9.25457C45.2557 9.52185 45.3847 9.76801 45.5757 9.96166C45.7668 10.1553 46.0112 10.2876 46.2778 10.3418C46.5443 10.396 46.821 10.3695 47.0725 10.2658C47.3239 10.162 47.5388 9.98575 47.6896 9.7594C47.8405 9.53304 47.9205 9.26687 47.9194 8.99486C47.9166 8.63724 47.7746 8.29478 47.5234 8.04019C47.2723 7.7856 46.9318 7.63892 46.5742 7.63129Z" fill="#D2D2D2"/>
<path d="M12.9529 42.7145C12.8814 34.2725 19.857 27.2748 28.3798 27.2326C36.9026 27.1904 43.7443 33.9991 43.8966 42.6209C44.0434 51.0042 37.0384 58.0772 28.5083 58.1561C20.0167 58.2332 13.03 51.296 12.9529 42.7145ZM28.4055 55.7097C31.8594 55.7112 35.1729 54.3435 37.6202 51.9062C40.0674 49.469 41.4486 46.161 41.4613 42.7072C41.4778 35.5498 35.6381 29.6863 28.4477 29.6459C21.316 29.6056 15.4048 35.5003 15.3901 42.665C15.3916 46.1192 16.7623 49.4319 19.2021 51.8771C21.6418 54.3223 24.9514 55.7005 28.4055 55.7097Z" fill="#D2D2D2"/>
<path d="M38.6828 42.2287C38.6938 42.4237 38.6938 42.6191 38.6828 42.8141C38.6578 43.1089 38.5223 43.3834 38.3035 43.5825C38.0846 43.7816 37.7986 43.8907 37.5028 43.8877C36.888 43.8492 36.4273 43.5464 36.3356 42.8912C36.1998 41.9039 36.152 40.911 35.785 39.9549C35.2478 38.5213 34.3043 37.2754 33.0699 36.3699C31.8355 35.4644 30.3638 34.9385 28.835 34.8566C28.7377 34.8566 28.6405 34.8566 28.5432 34.8438C27.6605 34.7483 27.1815 34.251 27.2457 33.4949C27.3044 32.7938 27.855 32.357 28.7139 32.3937C32.2889 32.5773 35.0968 34.1464 37.0807 37.1341C38.0772 38.6507 38.6319 40.4147 38.6828 42.2287Z" fill="#D2D2D2"/>
</svg>
