<svg width="45" height="57" viewBox="0 0 45 57" fill="none" xmlns="http://www.w3.org/2000/svg">
<g clip-path="url(#clip0_550_192)">
<path d="M13.943 0C14.4384 0.216662 14.8859 0.503912 15.2658 0.849123C17.4418 2.70047 19.6227 4.55081 21.8083 6.40015C21.9839 6.53952 22.1454 6.69114 22.2909 6.85342C22.5224 7.09266 22.6397 7.3964 22.6199 7.70501C22.6 8.01362 22.4444 8.30482 22.1836 8.52144C21.9268 8.74188 21.5798 8.87071 21.214 8.88139C20.8482 8.89207 20.4915 8.78379 20.2173 8.57886C19.6489 8.17696 19.1448 7.7116 18.6085 7.2674C17.0855 5.98616 15.5589 4.70795 14.0574 3.40858C13.7249 3.1064 13.5569 3.08827 13.1994 3.40858C11.2831 5.06452 9.33467 6.69628 7.39338 8.33107C6.69981 8.9173 6.05271 9.03817 5.39847 8.73297C5.21365 8.65495 5.05104 8.54401 4.9218 8.40778C4.79257 8.27156 4.69979 8.11329 4.64984 7.94386C4.5999 7.77443 4.59398 7.59786 4.63249 7.42631C4.671 7.25477 4.75303 7.09231 4.87292 6.95011C5.03458 6.75285 5.21901 6.56964 5.42349 6.40317C7.56856 4.5901 9.72436 2.76897 11.8909 0.939776C12.2913 0.604358 12.7275 0.317288 13.1493 0H13.943Z" fill="#D2D2D2"/>
<path d="M39.2262 0C40.6277 0.619467 40.7671 1.47161 39.6195 2.44463L32.7374 8.25553C31.7364 9.09861 30.9963 9.09861 29.9953 8.25553C27.793 6.39813 25.5931 4.53873 23.3956 2.6773C22.0156 1.51089 22.0013 1.13619 23.2919 0H24.082C24.6003 0.169083 25.0601 0.445467 25.4191 0.803796C27.2389 2.35095 29.08 3.883 30.8855 5.43922C31.243 5.7414 31.4325 5.80788 31.8329 5.46037C33.6455 3.87998 35.5081 2.33886 37.3386 0.7766C37.6928 0.460028 38.1088 0.197329 38.5684 0L39.2262 0Z" fill="#D2D2D2"/>
<path d="M45 35.512V55.2171C45 56.589 44.5102 56.9999 42.8764 56.9999H2.11647C0.493366 56.9999 0 56.5829 0 55.211V15.9278C0 14.5559 0.486216 14.1479 2.12362 14.1479H42.9014C44.5352 14.1479 45.0179 14.5589 45.0179 15.9338L45 35.512ZM3.00667 35.5724C3.00667 41.6724 3.00667 47.7744 3.00667 53.8784C3.00667 54.3045 3.06388 54.4828 3.65377 54.4828C16.2286 54.4687 28.8035 54.4687 41.3784 54.4828C41.8932 54.4828 42.0148 54.374 42.0148 53.9419C42.0005 41.6976 42.0005 29.4553 42.0148 17.2151C42.0148 16.7648 41.861 16.6802 41.3641 16.6802C28.7916 16.6923 16.2167 16.6923 3.63947 16.6802C3.12465 16.6802 3.0031 16.792 3.0031 17.2211C3.01502 23.3332 3.01621 29.4503 3.00667 35.5724Z" fill="#D2D2D2"/>
<path d="M18.7944 41.7006V49.3216C18.7944 50.5877 18.2796 51.0258 16.7959 51.0258H10.3607C9.02365 51.0258 8.49095 50.5756 8.48738 49.4394C8.48738 44.3024 8.50883 39.1653 8.48738 34.0283C8.4695 30.7708 11.705 29.0242 14.5651 29.4654C17.0677 29.8552 18.798 31.6532 18.8123 33.9648C18.8087 36.5364 18.7944 39.114 18.7944 41.7006ZM15.7878 40.9784C15.7878 38.6244 15.7878 36.2705 15.7878 33.9165C15.7878 32.7501 14.9154 31.9493 13.6677 31.9372C12.42 31.9251 11.4726 32.7078 11.469 33.8591C11.469 38.6063 11.469 43.3505 11.469 48.0977C11.469 48.4603 11.6228 48.5268 12.0017 48.5178C13.0528 48.4996 14.1075 48.4906 15.1585 48.5178C15.6591 48.5329 15.8235 48.4392 15.8199 47.9829C15.7699 45.6289 15.7878 43.3052 15.7878 40.9693V40.9784Z" fill="#D2D2D2"/>
<path d="M36.4234 41.7492V49.3037C36.4234 50.5668 35.905 51.0079 34.4142 51.0079H27.979C26.6562 51.0079 26.1021 50.5426 26.1021 49.4215C26.1021 44.2845 26.1021 39.1474 26.1021 34.0104C26.1021 30.7045 29.3804 28.9851 32.2513 29.4596C34.7288 29.8675 36.4234 31.6625 36.4377 33.9923C36.4341 36.594 36.4234 39.1716 36.4234 41.7492ZM33.4203 40.9696C33.4203 38.5975 33.4203 36.2223 33.4203 33.8502C33.4203 32.7322 32.5158 31.9405 31.2752 31.9284C30.0347 31.9163 29.0873 32.711 29.0837 33.8532C29.0837 38.6005 29.0837 43.3447 29.0837 48.0919C29.0837 48.4576 29.2339 48.518 29.6128 48.5089C30.6854 48.4908 31.7579 48.4757 32.8304 48.5089C33.356 48.5271 33.431 48.3669 33.4275 47.971C33.4096 45.6292 33.4203 43.3054 33.4203 40.9696Z" fill="#D2D2D2"/>
<path d="M13.8358 20.1222C15.1852 20.1466 16.4699 20.6155 17.4162 21.4289C18.3625 22.2423 18.8955 23.3359 18.9018 24.4766C18.8589 26.8941 16.4457 28.9066 13.6571 28.8189C12.2926 28.7989 10.9935 28.3216 10.0455 27.4919C9.09743 26.6623 8.57815 25.5483 8.60185 24.3951C8.62556 23.2418 9.19031 22.1437 10.1719 21.3424C11.1534 20.5411 12.4714 20.1022 13.8358 20.1222ZM13.7178 26.2897C14.0025 26.2925 14.285 26.2478 14.5491 26.1581C14.8133 26.0684 15.0539 25.9355 15.2572 25.7671C15.4604 25.5987 15.6224 25.398 15.7337 25.1765C15.845 24.9551 15.9035 24.7172 15.9058 24.4766C15.9058 23.9918 15.6779 23.5268 15.2723 23.1839C14.8667 22.8411 14.3165 22.6485 13.7429 22.6485C13.1692 22.6485 12.6191 22.8411 12.2134 23.1839C11.8078 23.5268 11.5799 23.9918 11.5799 24.4766C11.5855 24.955 11.8123 25.4125 12.2118 25.7514C12.6114 26.0902 13.1519 26.2834 13.7178 26.2897Z" fill="#D2D2D2"/>
<path d="M31.461 20.1219C32.8231 20.1465 34.1181 20.6261 35.0628 21.4558C36.0075 22.2854 36.525 23.3975 36.502 24.5488C36.3876 26.9663 33.9994 28.9153 31.2608 28.8186C28.4329 28.7068 26.1627 26.7548 26.2092 24.434C26.2318 23.2743 26.7971 22.1694 27.7815 21.3612C28.7658 20.553 30.0889 20.1074 31.461 20.1219ZM31.3931 26.2894C31.9594 26.2824 32.5002 26.0891 32.9007 25.7506C33.3012 25.4121 33.5299 24.955 33.5382 24.4763C33.5382 23.9923 33.3107 23.528 32.9057 23.1857C32.5008 22.8435 31.9515 22.6512 31.3788 22.6512C30.8061 22.6512 30.2569 22.8435 29.8519 23.1857C29.447 23.528 29.2194 23.9923 29.2194 24.4763C29.2194 24.7165 29.2758 24.9542 29.3854 25.1758C29.495 25.3974 29.6556 25.5983 29.8578 25.767C30.06 25.9357 30.2999 26.0687 30.5634 26.1584C30.827 26.2481 31.109 26.2926 31.3931 26.2894Z" fill="#D2D2D2"/>
</g>
<defs>
<clipPath id="clip0_550_192">
<rect width="45" height="57" fill="white"/>
</clipPath>
</defs>
</svg>
