<svg width="76" height="100" viewBox="0 0 76 100" fill="none" xmlns="http://www.w3.org/2000/svg">
<g clip-path="url(#clip0_1205_111)">
<path d="M28.6768 0C29.1983 0.228065 29.6693 0.530434 30.0692 0.893813C32.3598 2.8426 34.6554 4.79033 36.956 6.737C37.1409 6.8837 37.3108 7.04331 37.464 7.21412C37.7077 7.46596 37.8312 7.78568 37.8103 8.11053C37.7895 8.43539 37.6257 8.74191 37.3511 8.96994C37.0808 9.20198 36.7155 9.33759 36.3305 9.34883C35.9454 9.36007 35.5699 9.2461 35.2813 9.03038C34.683 8.60733 34.1523 8.11748 33.5879 7.6499C31.9847 6.30123 30.3778 4.95573 28.7972 3.58798C28.4472 3.26989 28.2703 3.25081 27.894 3.58798C25.8769 5.33107 23.8259 7.04872 21.7824 8.76955C21.0524 9.38663 20.3712 9.51386 19.6825 9.1926C19.488 9.11047 19.3168 8.99369 19.1808 8.8503C19.0447 8.70691 18.9471 8.5403 18.8945 8.36196C18.8419 8.18361 18.8357 7.99775 18.8762 7.81717C18.9168 7.6366 19.0031 7.46559 19.1293 7.31591C19.2995 7.10826 19.4936 6.91541 19.7089 6.74018C21.9668 4.83168 24.2361 2.9147 26.5166 0.989238C26.9381 0.636166 27.3973 0.333987 27.8413 0H28.6768Z" fill="#D2D2D2"/>
<path d="M55.2907 0C56.7659 0.65207 56.9126 1.54906 55.7046 2.57329L48.4603 8.69003C47.4066 9.57748 46.6276 9.57748 45.5739 8.69003C43.2557 6.73488 40.94 4.77761 38.6268 2.81822C37.1742 1.59042 37.1592 1.19599 38.5177 0H39.3494C39.895 0.177982 40.3789 0.468913 40.7569 0.846101C42.6724 2.47469 44.6105 4.08737 46.5109 5.72549C46.8872 6.04358 47.0867 6.11356 47.5082 5.74776C49.4162 4.08419 51.3768 2.46196 53.3036 0.817473C53.6765 0.48424 54.1144 0.207715 54.5982 0L55.2907 0Z" fill="#D2D2D2"/>
<path d="M61.3684 37.381V58.1232C61.3684 59.5673 60.8528 59.9999 59.133 59.9999H16.2279C14.5193 59.9999 14 59.561 14 58.1169V16.7661C14 15.322 14.5118 14.8926 16.2354 14.8926H59.1594C60.8792 14.8926 61.3872 15.3252 61.3872 16.7724L61.3684 37.381ZM17.1649 37.4447C17.1649 43.8657 17.1649 50.2889 17.1649 56.7141C17.1649 57.1626 17.2251 57.3503 17.8461 57.3503C31.0828 57.3355 44.3195 57.3355 57.5562 57.3503C58.0981 57.3503 58.2261 57.2358 58.2261 56.7809C58.211 43.8922 58.211 31.0056 58.2261 18.1211C58.2261 17.6472 58.0643 17.5581 57.5412 17.5581C44.307 17.5708 31.0702 17.5708 17.831 17.5581C17.2891 17.5581 17.1612 17.6758 17.1612 18.1275C17.1737 24.5612 17.175 31.0003 17.1649 37.4447V37.4447Z" fill="#D2D2D2"/>
<path d="M33.7835 43.8955V51.9175C33.7835 53.2503 33.2415 53.7115 31.6798 53.7115H24.9059C23.4984 53.7115 22.9377 53.2376 22.9339 52.0416C22.9339 46.6342 22.9565 41.2268 22.9339 35.8194C22.9151 32.3904 26.3209 30.5519 29.3315 31.0163C31.9658 31.4266 33.7872 33.3192 33.8023 35.7526C33.7985 38.4594 33.7835 41.1727 33.7835 43.8955ZM30.6185 43.1353C30.6185 40.6574 30.6185 38.1795 30.6185 35.7017C30.6185 34.4739 29.7003 33.6309 28.3869 33.6182C27.0735 33.6055 26.0763 34.4293 26.0725 35.6412C26.0725 40.6383 26.0725 45.6322 26.0725 50.6293C26.0725 51.011 26.2343 51.081 26.6332 51.0714C27.7396 51.0523 28.8498 51.0428 29.9562 51.0714C30.4831 51.0873 30.6562 50.9887 30.6524 50.5084C30.5997 48.0306 30.6185 45.5845 30.6185 43.1257V43.1353Z" fill="#D2D2D2"/>
<path d="M52.3404 43.9465V51.8986C52.3404 53.2281 51.7947 53.6925 50.2255 53.6925H43.4516C42.0591 53.6925 41.4758 53.2027 41.4758 52.0226C41.4758 46.6152 41.4758 41.2078 41.4758 35.8004C41.4758 32.3205 44.9268 30.5107 47.9487 31.01C50.5566 31.4395 52.3404 33.3289 52.3555 35.7813C52.3517 38.52 52.3404 41.2332 52.3404 43.9465ZM49.1793 43.1258C49.1793 40.6289 49.1793 38.1287 49.1793 35.6318C49.1793 34.4549 48.2272 33.6215 46.9213 33.6088C45.6154 33.5961 44.6182 34.4326 44.6144 35.635C44.6144 40.6321 44.6144 45.626 44.6144 50.623C44.6144 51.0079 44.7725 51.0715 45.1714 51.062C46.3004 51.0429 47.4293 51.027 48.5583 51.062C49.1115 51.0811 49.1906 50.9125 49.1868 50.4958C49.168 48.0307 49.1793 45.5846 49.1793 43.1258V43.1258Z" fill="#D2D2D2"/>
<path d="M28.564 21.1814C29.9843 21.2071 31.3367 21.7006 32.3328 22.5568C33.3289 23.413 33.89 24.5641 33.8965 25.7649C33.8514 28.3096 31.3112 30.428 28.3758 30.3358C26.9396 30.3147 25.5721 29.8122 24.5741 28.9389C23.5762 28.0656 23.0296 26.893 23.0545 25.6791C23.0795 24.4651 23.674 23.3092 24.7072 22.4658C25.7404 21.6223 27.1277 21.1603 28.564 21.1814V21.1814ZM28.4398 27.6734C28.7394 27.6764 29.0368 27.6293 29.3148 27.5349C29.5929 27.4405 29.8461 27.3006 30.0601 27.1233C30.2741 26.946 30.4445 26.7348 30.5617 26.5017C30.6789 26.2686 30.7405 26.0182 30.7429 25.7649C30.7429 25.2545 30.503 24.7651 30.0761 24.4042C29.6491 24.0433 29.07 23.8405 28.4661 23.8405C27.8623 23.8405 27.2832 24.0433 26.8562 24.4042C26.4292 24.7651 26.1893 25.2545 26.1893 25.7649C26.1952 26.2685 26.4339 26.7501 26.8545 27.1067C27.2751 27.4634 27.8441 27.6668 28.4398 27.6734V27.6734Z" fill="#D2D2D2"/>
<path d="M47.1169 21.181C48.5506 21.2069 49.9138 21.7118 50.9082 22.5851C51.9026 23.4584 52.4473 24.629 52.4231 25.8409C52.3027 28.3856 49.7888 30.4372 46.9061 30.3355C43.9294 30.2178 41.5397 28.163 41.5886 25.7201C41.6124 24.4993 42.2075 23.3362 43.2436 22.4855C44.2798 21.6348 45.6725 21.1657 47.1169 21.181ZM47.0454 27.6731C47.6415 27.6657 48.2108 27.4623 48.6323 27.1059C49.0539 26.7496 49.2946 26.2685 49.3034 25.7646C49.3034 25.2551 49.0639 24.7664 48.6376 24.4061C48.2113 24.0458 47.6332 23.8434 47.0303 23.8434C46.4275 23.8434 45.8493 24.0458 45.4231 24.4061C44.9968 24.7664 44.7573 25.2551 44.7573 25.7646C44.7573 26.0174 44.8167 26.2677 44.932 26.5009C45.0474 26.7341 45.2164 26.9456 45.4293 27.1232C45.6421 27.3008 45.8946 27.4408 46.1721 27.5352C46.4495 27.6296 46.7463 27.6765 47.0454 27.6731V27.6731Z" fill="#D2D2D2"/>
</g>
<path d="M10.0129 88.7V89.72H12.3229V88.7H10.0129ZM14.4829 85.625V92.66H15.6679V85.625H14.4829ZM11.9179 85.895V92.57H13.1029V85.895H11.9179ZM6.72793 93.29V94.295H14.4529V95.585H6.75793V98.555H8.00293V96.53H15.6679V93.29H6.72793ZM6.75793 97.985V98.99H16.1929V97.985H6.75793ZM7.46293 86.24C5.64793 86.24 4.37293 87.455 4.37293 89.225C4.37293 90.995 5.64793 92.21 7.46293 92.21C9.24793 92.21 10.5379 90.995 10.5379 89.225C10.5379 87.455 9.24793 86.24 7.46293 86.24ZM7.46293 87.23C8.58793 87.23 9.41293 88.055 9.41293 89.225C9.41293 90.38 8.58793 91.22 7.46293 91.22C6.32293 91.22 5.49793 90.38 5.49793 89.225C5.49793 88.055 6.32293 87.23 7.46293 87.23ZM27.9218 85.595V99.185H29.1668V85.595H27.9218ZM18.8318 94.88V95.915H19.9568C22.2818 95.915 24.3218 95.825 26.7818 95.42L26.6468 94.4C24.2468 94.79 22.2218 94.88 19.9568 94.88H18.8318ZM18.8018 86.87V87.89H23.8118V90.695H18.8318V95.27H20.0768V91.715H25.0718V86.87H18.8018ZM32.3306 86.945V95.765H37.5206V86.945H36.3656V90.245H33.5156V86.945H32.3306ZM33.5156 91.25H36.3656V94.745H33.5156V91.25ZM42.1706 85.61V99.17H43.3706V85.61H42.1706ZM37.3106 90.755V91.79H39.9206V90.755H37.3106ZM39.4856 85.895V98.495H40.6706V85.895H39.4856ZM55.4894 85.595V99.185H56.7344V85.595H55.4894ZM49.5794 86.645C47.5844 86.645 46.1444 88.49 46.1444 91.37C46.1444 94.265 47.5844 96.11 49.5794 96.11C51.5894 96.11 53.0294 94.265 53.0294 91.37C53.0294 88.49 51.5894 86.645 49.5794 86.645ZM49.5794 87.77C50.9144 87.77 51.8294 89.18 51.8294 91.37C51.8294 93.575 50.9144 95.015 49.5794 95.015C48.2594 95.015 47.3294 93.575 47.3294 91.37C47.3294 89.18 48.2594 87.77 49.5794 87.77ZM69.3782 85.595V99.185H70.6082V85.595H69.3782ZM66.5582 90.71V91.745H69.5582V90.71H66.5582ZM60.0632 94.895V95.93H61.0982C63.6782 95.93 65.3282 95.855 67.2782 95.51L67.1582 94.49C65.2532 94.85 63.6482 94.895 61.0982 94.895H60.0632ZM60.0632 86.84V95.255H61.2932V87.875H66.3332V86.84H60.0632ZM60.9782 90.65V91.655H65.7482V90.65H60.9782Z" fill="#7D7D7D"/>
<defs>
<clipPath id="clip0_1205_111">
<rect width="47.3684" height="60" fill="white" transform="translate(14)"/>
</clipPath>
</defs>
</svg>
