<svg width="60" height="80" viewBox="0 0 60 80" fill="none" xmlns="http://www.w3.org/2000/svg">
<path d="M5.91747 79.544C5.43278 79.1313 4.77485 79.1547 4.23177 78.8685C1.4599 77.4476 0.0603426 75.174 0.0175188 72.081C-0.0175188 69.6478 0.0175188 67.2146 0.0175188 64.7815C0.0123281 45.7781 0.00648845 26.7773 0 7.77913C0 5.17856 0.873994 3.02375 2.97625 1.43732C4.24922 0.481006 5.80491 -0.0231729 7.39683 0.00467168C22.4617 -0.00311446 37.5285 -0.00116792 52.5973 0.0105113C56.9186 0.0105113 59.9805 3.21645 59.9942 7.61173C60.0019 18.6668 60.0019 29.7211 59.9942 40.7749C59.9942 51.1564 59.9942 61.5379 59.9942 71.9194C59.9942 75.0339 58.6511 77.3697 55.8461 78.8257C55.1862 79.1664 54.4426 79.2325 53.7789 79.544H5.91747ZM2.64729 39.6887V71.6878C2.64729 75.065 4.49455 76.9064 7.87763 76.9064H52.1477C55.484 76.9064 57.3488 75.0553 57.3488 71.7364V7.81806C57.3488 4.49144 55.4899 2.63639 52.1594 2.63639H7.88736C4.49844 2.63639 2.64923 4.47002 2.64729 7.84532V39.6887Z" fill="#D2D2D2"/>
<path d="M29.9767 27.0635C22.9601 27.0635 15.9435 27.0635 8.92689 27.0635C7.39496 27.0635 7.01733 26.6741 7.01733 25.1286C7.01733 19.7172 7.01733 14.3059 7.01733 8.89449C7.01733 7.43848 7.45336 7.0083 8.92689 7.0083H51.0304C52.5604 7.0083 52.977 7.42097 52.977 8.93342V25.1675C52.977 26.6644 52.5877 27.0635 51.1064 27.0635C44.0638 27.0661 37.0206 27.0661 29.9767 27.0635ZM30.0254 9.6478C23.4772 9.6478 16.9291 9.64391 10.3809 9.63612C9.83592 9.63612 9.63348 9.71593 9.63737 10.3349C9.66851 14.812 9.66851 19.289 9.63737 23.766C9.63737 24.3149 9.78725 24.4415 10.3226 24.4395C23.4448 24.424 36.5664 24.424 49.6873 24.4395C50.2596 24.4395 50.3531 24.2604 50.3492 23.7407C50.3297 19.2896 50.3297 14.8386 50.3492 10.3875C50.3492 9.77043 50.1876 9.62834 49.5842 9.63028C43.0711 9.65559 36.5482 9.6478 30.0273 9.6478H30.0254Z" fill="#D2D2D2"/>
<path d="M40.8815 59.1601C40.8815 56.4431 40.8718 53.7261 40.8815 51.0091C40.895 47.6611 42.7347 45.5706 45.6593 45.5528C46.4547 45.5528 47.2539 45.5061 48.0338 45.7327C48.9894 46.0051 49.8372 46.6402 50.4404 47.5355C51.0436 48.4308 51.3669 49.5341 51.358 50.6669C51.3947 56.3364 51.4024 62.0082 51.358 67.6777C51.3348 70.4969 49.6534 72.4786 47.1883 72.7141C45.864 72.8407 44.5204 72.9363 43.2772 72.1765C41.8004 71.2678 40.951 69.8482 40.9124 67.9288C40.8564 65.0074 40.8989 62.0837 40.8989 59.1601H40.8815ZM43.4934 59.1312C43.4934 61.7883 43.4934 64.4453 43.4934 67.1023C43.4934 69.024 44.1401 69.7682 45.8196 69.7682H46.4354C48.0975 69.7549 48.7519 68.9974 48.7519 67.0779C48.7519 62.0897 48.7519 57.1014 48.7519 52.1132C48.7519 48.9652 48.3658 48.5231 45.6439 48.5586C44.1729 48.5808 43.4972 49.3562 43.4934 51.0668C43.4876 53.7594 43.4934 56.4453 43.4934 59.1312Z" fill="#D2D2D2"/>
<path d="M25.4867 59.3413C25.5825 60.8537 25.124 62.0929 23.7019 62.8298C22.0595 63.6801 19.4613 63.224 18.4329 61.9203C17.6402 60.9181 17.6557 59.7381 17.7723 58.5709C17.9511 56.6411 19.2618 55.4791 21.215 55.4791C22.0284 55.4791 22.8496 55.4225 23.6112 55.796C25.0878 56.5329 25.5903 57.7954 25.4867 59.3413ZM21.6191 61.2762C23.2097 61.2762 23.5698 60.9 23.5672 59.2949C23.5711 59.0703 23.5607 58.8457 23.5361 58.6224C23.448 57.9371 23.075 57.5171 22.3859 57.4373C21.8799 57.378 21.3687 57.378 20.8627 57.4373C20.1918 57.5146 19.8265 57.8933 19.7177 58.5658C19.6188 59.1214 19.6276 59.6907 19.7436 60.243C19.7889 60.504 19.9196 60.7428 20.1154 60.9222C20.3113 61.1016 20.5613 61.2116 20.8265 61.235C21.0881 61.2762 21.3549 61.2659 21.6191 61.2788V61.2762Z" fill="#D2D2D2"/>
<path d="M30.5958 63.2366C30.0457 63.3053 29.4871 63.2352 28.9713 63.0326C28.4555 62.8299 27.9991 62.5013 27.6439 62.077C27.2004 61.5762 26.9407 60.9402 26.9072 60.2731C26.871 59.4484 26.7806 58.6109 27.039 57.8069C27.1961 57.2298 27.521 56.7119 27.9726 56.3185C28.4243 55.9251 28.9827 55.6736 29.5774 55.5959C30.5076 55.4029 31.4714 55.4436 32.3819 55.7144C32.9676 55.8888 33.4877 56.2337 33.8755 56.7048C34.2632 57.1759 34.501 57.7517 34.5584 58.3584C34.6983 59.1779 34.6746 60.0168 34.4886 60.8271C34.0724 62.4377 32.7981 63.2366 30.5958 63.2366ZM30.7276 61.3271C30.8956 61.3271 31.0662 61.3271 31.2446 61.3271C32.0924 61.2961 32.6275 60.8761 32.6714 60.0386C32.7567 58.4924 32.8705 57.3018 30.4459 57.4616C30.3709 57.4616 30.2934 57.4616 30.2184 57.4616C29.3577 57.5157 28.8665 57.977 28.8148 58.8377C28.77 59.3064 28.7822 59.7789 28.851 60.2447C28.8918 60.5158 29.021 60.7659 29.2186 60.9564C29.4163 61.1469 29.6713 61.2672 29.9444 61.2987C30.2003 61.3193 30.464 61.3142 30.7276 61.3271Z" fill="#D2D2D2"/>
<path d="M12.452 63.2473C11.047 63.3549 9.78896 62.8913 9.02208 61.5033C8.13702 59.9001 8.59137 57.3238 9.91765 56.2866C12.0187 54.6373 15.7585 55.6438 16.3783 58.0537C16.6015 58.9498 16.6015 59.885 16.3783 60.7811C15.9739 62.4585 14.7159 63.2447 12.452 63.2473ZM14.5294 59.4417C14.5294 59.2368 14.5425 59.032 14.5294 58.8271C14.4821 58.0946 14.0856 57.6388 13.3476 57.5312C12.8179 57.448 12.2779 57.448 11.7482 57.5312C11.4686 57.5584 11.207 57.6778 11.0064 57.8697C10.8059 58.0615 10.6784 58.3143 10.6451 58.5863C10.544 59.1386 10.544 59.7039 10.6451 60.2561C10.7817 60.9476 11.2597 61.3266 12.0397 61.3215C12.9458 61.3215 13.9884 61.5904 14.4532 60.4354C14.5408 60.1115 14.5666 59.7747 14.5294 59.4417Z" fill="#D2D2D2"/>
<path d="M25.4867 49.414C25.5825 50.9264 25.124 52.1657 23.7019 52.9026C22.0595 53.7528 19.4613 53.2968 18.4329 51.9931C17.6402 50.9908 17.6557 49.8108 17.7723 48.6437C17.9511 46.7139 19.2618 45.5519 21.215 45.5519C22.0284 45.5519 22.8496 45.4952 23.6112 45.8688C25.0878 46.6057 25.5903 47.8681 25.4867 49.414ZM21.6191 51.349C23.2097 51.349 23.5698 50.9728 23.5672 49.3677C23.5711 49.1431 23.5607 48.9185 23.5361 48.6952C23.448 48.0098 23.075 47.5899 22.3859 47.51C21.8799 47.4508 21.3687 47.4508 20.8627 47.51C20.1918 47.5873 19.8265 47.966 19.7177 48.6385C19.6188 49.1941 19.6276 49.7635 19.7436 50.3158C19.7889 50.5768 19.9196 50.8155 20.1154 50.9949C20.3113 51.1743 20.5613 51.2843 20.8265 51.3077C21.0881 51.349 21.3549 51.3386 21.6191 51.3515V51.349Z" fill="#D2D2D2"/>
<path d="M30.5958 53.309C30.0457 53.3795 29.4871 53.3076 28.9713 53.0999C28.4555 52.8922 27.9991 52.5554 27.6439 52.1204C27.2004 51.6072 26.9407 50.9552 26.9072 50.2714C26.871 49.4262 26.7806 48.5677 27.039 47.7436C27.1961 47.1521 27.521 46.6213 27.9726 46.218C28.4243 45.8147 28.9827 45.557 29.5774 45.4773C30.5076 45.2794 31.4714 45.3212 32.3819 45.5988C32.9676 45.7776 33.4877 46.1311 33.8755 46.6139C34.2632 47.0968 34.501 47.687 34.5584 48.3089C34.6983 49.1488 34.6746 50.0087 34.4886 50.8393C34.0724 52.4902 32.7981 53.309 30.5958 53.309ZM30.7276 51.3518C30.8956 51.3518 31.0662 51.3518 31.2446 51.3518C32.0924 51.3201 32.6275 50.8895 32.6714 50.0311C32.7567 48.4462 32.8705 47.2259 30.4459 47.3896C30.3709 47.3896 30.2934 47.3896 30.2184 47.3896C29.3577 47.4451 28.8665 47.9179 28.8148 48.8002C28.77 49.2806 28.7822 49.7649 28.851 50.2424C28.8918 50.5202 29.021 50.7765 29.2186 50.9718C29.4163 51.1671 29.6713 51.2904 29.9444 51.3227C30.2003 51.3438 30.464 51.3385 30.7276 51.3518Z" fill="#D2D2D2"/>
<path d="M12.452 53.32C11.047 53.4303 9.78896 52.9551 9.02208 51.5324C8.13702 49.8891 8.59137 47.2484 9.91765 46.1853C12.0187 44.4948 15.7585 45.5264 16.3783 47.9965C16.6015 48.915 16.6015 49.8736 16.3783 50.7921C15.9739 52.5115 14.7159 53.3174 12.452 53.32ZM14.5294 49.4193C14.5294 49.2093 14.5425 48.9993 14.5294 48.7893C14.4821 48.0385 14.0856 47.5713 13.3476 47.461C12.8179 47.3757 12.2779 47.3757 11.7482 47.461C11.4686 47.4889 11.207 47.6113 11.0064 47.8079C10.8059 48.0046 10.6784 48.2637 10.6451 48.5425C10.544 49.1085 10.544 49.688 10.6451 50.254C10.7817 50.9628 11.2597 51.3513 12.0397 51.346C12.9458 51.346 13.9884 51.6216 14.4532 50.4378C14.5408 50.1058 14.5666 49.7606 14.5294 49.4193Z" fill="#D2D2D2"/>
<path d="M16.5308 69.206C16.6362 70.7802 16.1382 72.0238 14.6864 72.7663C13.05 73.6085 10.3914 73.1388 9.36636 71.8506C7.91713 70.0298 8.52054 66.6505 10.4757 65.6404C12.1278 64.7877 14.797 65.2521 15.8378 66.5666C16.4729 67.3537 16.5941 68.2667 16.5308 69.206ZM14.5783 69.1928C14.6048 68.8298 14.5728 68.4649 14.4835 68.1119C14.2674 67.5294 13.7615 67.2382 12.971 67.2225C12.1805 67.2067 11.1792 67.0572 10.7813 68.0489C10.4861 68.7905 10.4861 69.6162 10.7813 70.3577C11.1555 71.2918 12.0567 71.1737 12.863 71.1789C13.5586 71.1789 14.1804 71.032 14.4756 70.3263C14.6231 69.9642 14.5652 69.5733 14.5783 69.1928Z" fill="#D2D2D2"/>
<path d="M25.4896 69.3352C25.5777 70.7508 25.1037 72.0108 23.6767 72.7621C22.0451 73.6189 19.419 73.1312 18.4115 71.8079C17.6527 70.8114 17.6708 69.6462 17.7511 68.4916C17.8858 66.5619 19.046 65.3941 20.9444 65.2518C21.8275 65.1832 22.7262 65.149 23.5679 65.5365C24.9172 66.1533 25.4896 67.2632 25.4896 69.3352ZM23.5653 69.2508C23.5653 69.0584 23.5653 68.9239 23.5653 68.7895C23.542 67.9644 23.2105 67.3897 22.6019 67.279C21.5193 67.0786 20.271 67.0786 19.8903 67.8484C19.8295 67.9442 19.7841 68.0492 19.7556 68.1594C19.3931 70.6822 19.9136 71.2991 22.1254 71.162C22.2574 71.162 22.3843 71.1172 22.5164 71.0961C22.7324 71.0607 22.9345 70.9655 23.1008 70.8209C23.2671 70.6762 23.3911 70.4878 23.4591 70.2763C23.567 69.9463 23.6032 69.5964 23.5653 69.2508Z" fill="#D2D2D2"/>
<path d="M26.872 68.983C26.7865 67.6068 27.2399 66.3694 28.6647 65.6389C30.3227 64.7822 32.9573 65.2607 33.9702 66.5881C34.7163 67.5682 34.693 68.7052 34.6049 69.8294C34.452 71.7176 33.2837 72.8391 31.3796 72.9601C30.5144 73.0141 29.6336 73.0552 28.8072 72.6874C27.4549 72.07 26.872 70.9844 26.872 68.983ZM28.7968 69.0448C28.7968 69.176 28.7968 69.2506 28.7968 69.3278C28.7683 70.03 28.9108 70.7375 29.6543 70.9278C30.5377 71.149 31.4936 71.2931 32.3019 70.632C32.4891 70.4693 32.6075 70.2423 32.6335 69.9966C32.9625 67.5245 32.307 66.9611 29.9574 67.2261C29.9007 67.2307 29.8445 67.2393 29.789 67.2518C29.585 67.2965 29.3961 67.3926 29.2404 67.531C29.0848 67.6693 28.9677 67.8451 28.9004 68.0415C28.7978 68.3611 28.7626 68.6982 28.7968 69.0319V69.0448Z" fill="#D2D2D2"/>
<path d="M29.9781 42.4341H9.66329C7.69456 42.4341 7.00732 41.9315 7.00732 40.449C7.00732 37.8743 7.00732 35.2996 7.00732 32.7249C7.00732 31.3202 7.75099 30.7549 9.62013 30.7549H50.3294C52.1986 30.7549 52.9323 31.3177 52.9389 32.7198C52.9389 35.3197 52.9389 37.9212 52.9389 40.5244C52.9389 41.8964 52.2152 42.4291 50.3859 42.4291C43.5844 42.4358 36.7818 42.4374 29.9781 42.4341ZM27.8832 39.4665C31.5584 39.4665 35.0942 39.4665 38.6299 39.4665C38.8012 39.4832 38.9743 39.4487 39.1125 39.3703C39.2507 39.292 39.3432 39.176 39.3703 39.0469C39.9435 37.4622 40.5223 35.8775 41.1066 34.2928C41.2361 33.936 41.2029 33.7601 40.602 33.7626C37.2422 33.7802 33.8857 33.7626 30.5259 33.7626C30.2337 33.7626 29.9416 33.7626 29.842 34.0265C29.1979 35.8231 28.5505 37.6121 27.8832 39.4665ZM17.8437 33.7702C15.6624 33.7702 13.5974 33.7702 11.5357 33.7702C10.9913 33.7702 10.9913 33.9687 10.9913 34.2727C10.9913 35.8382 11.0079 37.4036 10.9913 38.9715C10.9913 39.356 11.144 39.4892 11.6553 39.4741C12.835 39.449 14.0124 39.449 15.1877 39.4741C15.2729 39.4859 15.3605 39.4845 15.445 39.47C15.5295 39.4554 15.6092 39.4281 15.6794 39.3896C15.7495 39.351 15.8086 39.3021 15.853 39.2458C15.8975 39.1895 15.9264 39.127 15.938 39.062C16.5489 37.3508 17.1697 35.6371 17.8437 33.7702ZM43.3177 39.4615C45.0407 39.4615 46.6376 39.4414 48.2578 39.4615C48.8487 39.4615 48.9716 39.2982 48.9683 38.8936C48.9417 37.3508 48.9683 35.808 48.9683 34.2627C48.9683 34.0918 49.0878 33.7928 48.7657 33.7827C47.6934 33.7501 46.621 33.7651 45.5487 33.7953C45.3196 33.7953 45.303 34.029 45.2466 34.1848C44.6091 35.9186 43.9817 37.6348 43.3177 39.4665V39.4615ZM19.8888 39.4615C21.064 39.4615 22.1364 39.449 23.2087 39.4615C23.2864 39.4727 23.3663 39.4721 23.4436 39.4596C23.521 39.4472 23.5942 39.4232 23.6592 39.389C23.7241 39.3548 23.7794 39.3112 23.8217 39.2607C23.8641 39.2101 23.8927 39.1537 23.9059 39.0947C24.4946 37.4513 25.0878 35.8088 25.6854 34.1672C25.7717 33.9159 25.7684 33.7526 25.3235 33.7601C24.3574 33.7727 23.388 33.7601 22.4219 33.7601C22.3523 33.7519 22.2812 33.7543 22.2128 33.7671C22.1444 33.7799 22.0801 33.8029 22.0236 33.8347C21.967 33.8665 21.9194 33.9065 21.8835 33.9524C21.8476 33.9982 21.8241 34.049 21.8143 34.1019C21.1902 35.8834 20.5461 37.6473 19.8888 39.4665V39.4615Z" fill="#D2D2D2"/>
</svg>
