<svg width="76" height="101" viewBox="0 0 76 101" fill="none" xmlns="http://www.w3.org/2000/svg">
<path d="M19.4635 60.25C19.0979 59.9387 18.6017 59.9563 18.192 59.7405C16.1012 58.6687 15.0455 56.9537 15.0132 54.6206C14.9868 52.7853 15.0132 50.95 15.0132 49.1146C15.0093 34.7804 15.0049 20.4481 15 6.1178C15 4.15619 15.6593 2.53081 17.245 1.33417C18.2052 0.612822 19.3786 0.232521 20.5794 0.253524C31.9429 0.247651 43.3078 0.249119 54.6741 0.257929C57.9337 0.257929 60.2433 2.67617 60.2536 5.99153C60.2594 14.3303 60.2594 22.6686 60.2536 31.0065C60.2536 38.8372 60.2536 46.668 60.2536 54.4988C60.2536 56.848 59.2405 58.6099 57.1247 59.7082C56.6269 59.9652 56.0661 60.0151 55.5654 60.25H19.4635ZM16.9968 30.1872V54.3241C16.9968 56.8715 18.3902 58.2605 20.9421 58.2605H54.335C56.8516 58.2605 58.2582 56.8642 58.2582 54.3608V6.14716C58.2582 3.63789 56.856 2.23863 54.3438 2.23863H20.9494C18.3932 2.23863 16.9983 3.62174 16.9968 6.16772V30.1872Z" fill="#D2D2D2"/>
<path d="M34.2246 45.0112C34.2969 46.152 33.951 47.0868 32.8783 47.6426C31.6394 48.284 29.6796 47.94 28.9039 46.9566C28.3059 46.2006 28.3177 45.3105 28.4056 44.4301C28.5404 42.9745 29.5291 42.098 31.0024 42.098C31.616 42.098 32.2354 42.0553 32.8099 42.3371C33.9236 42.8929 34.3027 43.8452 34.2246 45.0112ZM31.3073 46.4707C32.507 46.4707 32.7786 46.187 32.7767 44.9762C32.7796 44.8068 32.7718 44.6374 32.7532 44.469C32.6868 43.9521 32.4054 43.6353 31.8856 43.575C31.504 43.5303 31.1184 43.5303 30.7367 43.575C30.2306 43.6333 29.9551 43.919 29.873 44.4262C29.7984 44.8454 29.805 45.2748 29.8926 45.6914C29.9267 45.8883 30.0253 46.0684 30.173 46.2037C30.3207 46.339 30.5093 46.422 30.7093 46.4396C30.9067 46.4707 31.108 46.463 31.3073 46.4727V46.4707Z" fill="#D2D2D2"/>
<path d="M38.0783 47.9495C37.6634 48.0013 37.242 47.9484 36.853 47.7956C36.4639 47.6427 36.1196 47.3949 35.8517 47.0748C35.5172 46.6971 35.3213 46.2173 35.296 45.7141C35.2687 45.0921 35.2005 44.4603 35.3955 43.8538C35.514 43.4185 35.759 43.0279 36.0997 42.7311C36.4404 42.4344 36.8615 42.2447 37.3101 42.1861C38.0118 42.0405 38.7388 42.0712 39.4256 42.2755C39.8674 42.407 40.2597 42.6672 40.5522 43.0225C40.8447 43.3778 41.024 43.8122 41.0673 44.2698C41.1728 44.888 41.1549 45.5208 41.0146 46.132C40.7007 47.3469 39.7395 47.9495 38.0783 47.9495ZM38.1778 46.5091C38.3045 46.5091 38.4332 46.5091 38.5677 46.5091C39.2072 46.4858 39.6108 46.1689 39.644 45.5372C39.7083 44.3709 39.7941 43.4729 37.9652 43.5934C37.9087 43.5934 37.8502 43.5934 37.7937 43.5934C37.1444 43.6342 36.7739 43.9821 36.7349 44.6314C36.7011 44.985 36.7103 45.3413 36.7622 45.6927C36.793 45.8971 36.8904 46.0858 37.0395 46.2295C37.1886 46.3732 37.381 46.464 37.587 46.4877C37.78 46.5033 37.9789 46.4994 38.1778 46.5091V46.5091Z" fill="#D2D2D2"/>
<path d="M24.3925 47.9575C23.3326 48.0387 22.3837 47.689 21.8053 46.642C21.1377 45.4328 21.4804 43.4894 22.4808 42.7071C24.0656 41.463 26.8866 42.2222 27.3541 44.04C27.5225 44.7159 27.5225 45.4213 27.3541 46.0973C27.049 47.3626 26.1001 47.9556 24.3925 47.9575ZM25.9594 45.087C25.9594 44.9324 25.9694 44.7779 25.9594 44.6234C25.9238 44.0709 25.6247 43.727 25.068 43.6459C24.6684 43.5831 24.2611 43.5831 23.8616 43.6459C23.6507 43.6664 23.4533 43.7565 23.302 43.9012C23.1508 44.0459 23.0546 44.2366 23.0295 44.4418C22.9533 44.8583 22.9533 45.2847 23.0295 45.7013C23.1325 46.2228 23.4931 46.5087 24.0814 46.5049C24.7649 46.5049 25.5514 46.7077 25.902 45.8365C25.968 45.5922 25.9875 45.3381 25.9594 45.087V45.087Z" fill="#D2D2D2"/>
<path d="M27.4691 52.4519C27.5486 53.6393 27.173 54.5774 26.0778 55.1375C24.8436 55.7727 22.8381 55.4185 22.065 54.4468C20.9718 53.0733 21.427 50.5244 22.9017 49.7624C24.1479 49.1192 26.1613 49.4695 26.9464 50.461C27.4254 51.0547 27.5168 51.7434 27.4691 52.4519ZM25.9963 52.442C26.0163 52.1682 25.9922 51.8929 25.9248 51.6267C25.7618 51.1873 25.3802 50.9677 24.7839 50.9558C24.1877 50.9439 23.4324 50.8311 23.1323 51.5792C22.9096 52.1385 22.9096 52.7614 23.1323 53.3207C23.4145 54.0253 24.0943 53.9362 24.7024 53.9401C25.2272 53.9401 25.6962 53.8293 25.9188 53.297C26.0301 53.0239 25.9864 52.729 25.9963 52.442V52.442Z" fill="#D2D2D2"/>
<path d="M34.2267 52.5494C34.2932 53.6172 33.9357 54.5677 32.8593 55.1344C31.6285 55.7806 29.6477 55.4127 28.8877 54.4145C28.3153 53.6629 28.329 52.784 28.3896 51.9131C28.4912 50.4575 29.3663 49.5767 30.7983 49.4693C31.4644 49.4176 32.1423 49.3917 32.7772 49.684C33.795 50.1493 34.2267 50.9865 34.2267 52.5494ZM32.7753 52.4858C32.7753 52.3406 32.7753 52.2392 32.7753 52.1378C32.7577 51.5154 32.5076 51.0819 32.0486 50.9984C31.232 50.8473 30.2904 50.8473 30.0032 51.4279C29.9574 51.5002 29.9231 51.5794 29.9016 51.6625C29.6281 53.5655 30.0208 54.0308 31.6891 53.9274C31.7887 53.9274 31.8845 53.8936 31.9841 53.8777C32.147 53.851 32.2995 53.7791 32.4249 53.67C32.5503 53.561 32.6438 53.4188 32.6952 53.2593C32.7765 53.0104 32.8038 52.7465 32.7753 52.4858Z" fill="#D2D2D2"/>
<path d="M35.2695 52.2838C35.205 51.2457 35.547 50.3123 36.6217 49.7613C37.8723 49.1151 39.8596 49.476 40.6236 50.4773C41.1864 51.2166 41.1688 52.0742 41.1024 52.9222C40.9871 54.3464 40.1058 55.1924 38.6696 55.2836C38.0169 55.3244 37.3525 55.3554 36.7292 55.078C35.7091 54.6123 35.2695 53.7934 35.2695 52.2838ZM36.7214 52.3304C36.7214 52.4293 36.7214 52.4856 36.7214 52.5438C36.6999 53.0735 36.8073 53.6071 37.3681 53.7507C38.0345 53.9176 38.7555 54.0263 39.3652 53.5276C39.5064 53.4048 39.5958 53.2337 39.6153 53.0483C39.8635 51.1836 39.3691 50.7586 37.5968 50.9585C37.554 50.962 37.5116 50.9684 37.4698 50.9779C37.3159 51.0116 37.1734 51.0841 37.056 51.1885C36.9386 51.2928 36.8502 51.4255 36.7995 51.5736C36.7221 51.8146 36.6955 52.0689 36.7214 52.3207V52.3304Z" fill="#D2D2D2"/>
<path d="M37.6125 32.2579H22.289C20.804 32.2579 20.2856 31.8788 20.2856 30.7605C20.2856 28.8184 20.2856 26.8763 20.2856 24.9342C20.2856 23.8747 20.8466 23.4482 22.2565 23.4482H52.9635C54.3734 23.4482 54.9268 23.8728 54.9318 24.9304C54.9318 26.8915 54.9318 28.8538 54.9318 30.8174C54.9318 31.8523 54.3859 32.2541 53.0061 32.2541C47.8757 32.2591 42.7445 32.2604 37.6125 32.2579ZM36.0323 30.0194C38.8045 30.0194 41.4715 30.0194 44.1385 30.0194C44.2677 30.032 44.3983 30.006 44.5026 29.9469C44.6068 29.8878 44.6766 29.8003 44.697 29.7029C45.1294 28.5076 45.566 27.3122 46.0067 26.1169C46.1044 25.8478 46.0793 25.7151 45.6261 25.717C43.0918 25.7303 40.56 25.717 38.0257 25.717C37.8053 25.717 37.5849 25.717 37.5098 25.916C37.024 27.2712 36.5357 28.6207 36.0323 30.0194ZM28.4595 25.7227C26.8142 25.7227 25.2566 25.7227 23.7014 25.7227C23.2907 25.7227 23.2907 25.8724 23.2907 26.1017C23.2907 27.2826 23.3033 28.4634 23.2907 29.6461C23.2907 29.9361 23.4059 30.0365 23.7916 30.0251C24.6814 30.0062 25.5696 30.0062 26.4561 30.0251C26.5204 30.034 26.5864 30.033 26.6502 30.022C26.7139 30.0111 26.774 29.9904 26.827 29.9614C26.8799 29.9323 26.9244 29.8954 26.958 29.853C26.9915 29.8105 27.0133 29.7633 27.0221 29.7143C27.4828 28.4236 27.9511 27.1309 28.4595 25.7227ZM47.6745 30.0157C48.9742 30.0157 50.1788 30.0005 51.4008 30.0157C51.8466 30.0157 51.9393 29.8925 51.9368 29.5873C51.9167 28.4236 51.9368 27.2598 51.9368 26.0942C51.9368 25.9653 52.0269 25.7397 51.784 25.7321C50.9751 25.7075 50.1663 25.7189 49.3574 25.7416C49.1846 25.7416 49.1721 25.9179 49.1295 26.0354C48.6487 27.3432 48.1754 28.6377 47.6745 30.0194V30.0157ZM30.0021 30.0157C30.8886 30.0157 31.6975 30.0062 32.5063 30.0157C32.5649 30.0241 32.6252 30.0236 32.6835 30.0142C32.7419 30.0048 32.7972 29.9867 32.8461 29.9609C32.8951 29.9352 32.9368 29.9023 32.9688 29.8641C33.0007 29.826 33.0223 29.7835 33.0322 29.7389C33.4763 28.4994 33.9237 27.2604 34.3745 26.0221C34.4396 25.8326 34.4371 25.7094 34.1015 25.7151C33.3728 25.7246 32.6416 25.7151 31.9128 25.7151C31.8603 25.7089 31.8067 25.7107 31.7551 25.7204C31.7036 25.73 31.655 25.7474 31.6124 25.7714C31.5698 25.7953 31.5338 25.8255 31.5067 25.8601C31.4796 25.8947 31.4619 25.933 31.4546 25.9729C30.9838 27.3167 30.4979 28.6472 30.0021 30.0194V30.0157Z" fill="#D2D2D2"/>
<path d="M37.6115 20.6637C32.3188 20.6637 27.0262 20.6637 21.7336 20.6637C20.5781 20.6637 20.2932 20.3701 20.2932 19.2043C20.2932 15.1225 20.2932 11.0407 20.2932 6.95889C20.2932 5.86062 20.6221 5.53613 21.7336 5.53613H53.4923C54.6463 5.53613 54.9606 5.84741 54.9606 6.98825V19.2336C54.9606 20.3627 54.6669 20.6637 53.5495 20.6637C48.2373 20.6657 42.9246 20.6657 37.6115 20.6637ZM37.6482 7.52711C32.7089 7.52711 27.7696 7.52417 22.8304 7.5183C22.4193 7.5183 22.2666 7.5785 22.2695 8.04541C22.293 11.4224 22.293 14.7995 22.2695 18.1765C22.2695 18.5905 22.3826 18.686 22.7863 18.6845C32.6844 18.6728 42.5821 18.6728 52.4792 18.6845C52.9108 18.6845 52.9813 18.5494 52.9784 18.1574C52.9637 14.7999 52.9637 11.4425 52.9784 8.08505C52.9784 7.61961 52.8565 7.51243 52.4014 7.51389C47.4885 7.53298 42.5683 7.52711 37.6496 7.52711H37.6482Z" fill="#D2D2D2"/>
<path d="M45.837 44.8744C45.837 42.825 45.8297 40.7755 45.837 38.7261C45.8472 36.2007 47.2349 34.6238 49.4409 34.6104C50.0408 34.6104 50.6437 34.5752 51.232 34.7462C51.9527 34.9516 52.5923 35.4306 53.0473 36.106C53.5023 36.7813 53.7461 37.6135 53.7394 38.468C53.7671 42.7445 53.7729 47.0227 53.7394 51.2992C53.7219 53.4258 52.4537 54.9205 50.5942 55.0982C49.5953 55.1937 48.5818 55.2657 47.644 54.6926C46.5301 54.0073 45.8894 52.9365 45.8603 51.4886C45.818 49.285 45.8501 47.0797 45.8501 44.8744H45.837ZM47.8071 44.8526C47.8071 46.8568 47.8071 48.861 47.8071 50.8652C47.8071 52.3147 48.2949 52.8761 49.5618 52.8761H50.0263C51.28 52.8661 51.7736 52.2946 51.7736 50.8468C51.7736 47.0842 51.7736 43.3215 51.7736 39.5589C51.7736 37.1844 51.4824 36.8509 49.4293 36.8777C48.3197 36.8945 47.81 37.4793 47.8071 38.7696C47.8028 40.8006 47.8071 42.8266 47.8071 44.8526Z" fill="#D2D2D2"/>
<path d="M34.2246 37.5229C34.2969 38.6637 33.951 39.5985 32.8783 40.1543C31.6394 40.7957 29.6796 40.4517 28.9039 39.4683C28.3059 38.7123 28.3177 37.8222 28.4056 36.9419C28.5404 35.4862 29.5291 34.6097 31.0024 34.6097C31.616 34.6097 32.2354 34.567 32.8099 34.8488C33.9236 35.4046 34.3027 36.3569 34.2246 37.5229ZM31.3073 38.9825C32.507 38.9825 32.7786 38.6987 32.7767 37.488C32.7796 37.3186 32.7718 37.1491 32.7532 36.9807C32.6868 36.4638 32.4054 36.147 31.8856 36.0867C31.504 36.042 31.1184 36.042 30.7367 36.0867C30.2306 36.145 29.9551 36.4307 29.873 36.938C29.7984 37.3571 29.805 37.7865 29.8926 38.2031C29.9267 38.4 30.0253 38.5801 30.173 38.7154C30.3207 38.8507 30.5093 38.9337 30.7093 38.9514C30.9067 38.9825 31.108 38.9747 31.3073 38.9844V38.9825Z" fill="#D2D2D2"/>
<path d="M38.0783 40.461C37.6634 40.5142 37.242 40.4599 36.853 40.3033C36.4639 40.1466 36.1196 39.8926 35.8517 39.5645C35.5172 39.1773 35.3213 38.6856 35.296 38.1698C35.2687 37.5322 35.2005 36.8847 35.3955 36.263C35.514 35.8168 35.759 35.4165 36.0997 35.1123C36.4404 34.8081 36.8615 34.6137 37.3101 34.5535C38.0118 34.4043 38.7388 34.4358 39.4256 34.6452C39.8674 34.7801 40.2597 35.0467 40.5522 35.4109C40.8447 35.7751 41.024 36.2203 41.0673 36.6894C41.1728 37.323 41.1549 37.9716 41.0146 38.5981C40.7007 39.8434 39.7395 40.461 38.0783 40.461ZM38.1778 38.9847C38.3045 38.9847 38.4332 38.9847 38.5677 38.9847C39.2072 38.9608 39.6108 38.636 39.644 37.9885C39.7083 36.793 39.7941 35.8725 37.9652 35.9961C37.9087 35.9961 37.8502 35.9961 37.7937 35.9961C37.1444 36.0379 36.7739 36.3945 36.7349 37.06C36.7011 37.4224 36.7103 37.7877 36.7622 38.1479C36.793 38.3574 36.8904 38.5508 37.0395 38.6981C37.1886 38.8454 37.381 38.9384 37.587 38.9628C37.78 38.9787 37.9789 38.9747 38.1778 38.9847V38.9847Z" fill="#D2D2D2"/>
<path d="M24.3925 40.4693C23.3326 40.5525 22.3837 40.1941 21.8053 39.1209C21.1377 37.8814 21.4804 35.8895 22.4808 35.0876C24.0656 33.8125 26.8866 34.5906 27.3541 36.4538C27.5225 37.1467 27.5225 37.8697 27.3541 38.5625C27.049 39.8595 26.1001 40.4673 24.3925 40.4693ZM25.9594 37.527C25.9594 37.3686 25.9694 37.2102 25.9594 37.0518C25.9238 36.4855 25.6247 36.133 25.068 36.0499C24.6684 35.9855 24.2611 35.9855 23.8616 36.0499C23.6507 36.0709 23.4533 36.1632 23.302 36.3116C23.1508 36.4599 23.0546 36.6553 23.0295 36.8657C22.9533 37.2926 22.9533 37.7297 23.0295 38.1566C23.1325 38.6913 23.4931 38.9843 24.0814 38.9803C24.7649 38.9803 25.5514 39.1882 25.902 38.2952C25.968 38.0448 25.9875 37.7844 25.9594 37.527V37.527Z" fill="#D2D2D2"/>
<path d="M21.0523 85.875V96.21H22.2973V85.875H21.0523ZM18.7573 89.46V90.48H21.5773V89.46H18.7573ZM18.7573 92.325V93.33H21.5773V92.325H18.7573ZM11.1673 87.51V88.515H18.7573V87.51H11.1673ZM15.0073 89.265C13.1923 89.265 11.9323 90.3 11.9323 91.86C11.9323 93.405 13.1923 94.455 15.0073 94.455C16.8073 94.455 18.0673 93.405 18.0673 91.86C18.0673 90.3 16.8073 89.265 15.0073 89.265ZM15.0073 90.24C16.1323 90.24 16.8973 90.9 16.8973 91.86C16.8973 92.82 16.1323 93.465 15.0073 93.465C13.8823 93.465 13.1173 92.82 13.1173 91.86C13.1173 90.9 13.8823 90.24 15.0073 90.24ZM14.3923 85.845V88.155H15.6373V85.845H14.3923ZM13.5823 98.1V99.12H22.6273V98.1H13.5823ZM13.5823 95.325V98.595H14.8273V95.325H13.5823ZM25.6712 86.91V87.93H31.6712V86.91H25.6712ZM27.7112 89.94V93.33H28.9412V89.94H27.7112ZM31.1762 86.91V87.63C31.1762 88.5 31.1762 89.73 30.8312 91.515L32.0462 91.65C32.4062 89.865 32.4062 88.515 32.4062 87.63V86.91H31.1762ZM34.2512 85.86V96.075H35.4962V85.86H34.2512ZM34.9262 90.27V91.305H37.4312V90.27H34.9262ZM26.9312 98.1V99.12H35.9312V98.1H26.9312ZM26.9312 95.13V98.415H28.1612V95.13H26.9312ZM24.9812 93.915C27.3662 93.915 30.6062 93.855 33.4262 93.36L33.3362 92.46C30.5912 92.835 27.2612 92.895 24.8462 92.895L24.9812 93.915ZM38.75 96.66V97.695H51.035V96.66H38.75ZM44.24 93.42V96.96H45.485V93.42H44.24ZM40.19 86.82V93.75H49.565V86.82H48.335V89.235H41.42V86.82H40.19ZM41.42 90.24H48.335V92.73H41.42V90.24ZM61.8188 85.845V95.835H63.0638V85.845H61.8188ZM62.6738 89.97V91.005H65.0738V89.97H62.6738ZM54.6188 98.1V99.12H63.6788V98.1H54.6188ZM54.6188 94.815V98.505H55.8638V94.815H54.6188ZM56.3288 86.805C54.3038 86.805 52.7888 88.2 52.7888 90.15C52.7888 92.115 54.3038 93.495 56.3288 93.495C58.3538 93.495 59.8688 92.115 59.8688 90.15C59.8688 88.2 58.3538 86.805 56.3288 86.805ZM56.3288 87.9C57.6488 87.9 58.6538 88.83 58.6538 90.15C58.6538 91.485 57.6488 92.4 56.3288 92.4C55.0088 92.4 54.0038 91.485 54.0038 90.15C54.0038 88.83 55.0088 87.9 56.3288 87.9Z" fill="#7D7D7D"/>
</svg>
