<svg width="76" height="95" viewBox="0 0 76 95" fill="none" xmlns="http://www.w3.org/2000/svg">
<path d="M54.9496 23.715C54.9496 28.3572 53.5732 32.8952 50.9945 36.7552C48.4158 40.6153 44.7505 43.6241 40.462 45.4013C36.1735 47.1786 31.4543 47.6444 26.9011 46.7399C22.3479 45.8355 18.165 43.6013 14.8814 40.32C11.5977 37.0386 9.36068 32.8573 8.45306 28.3047C7.54544 23.7521 8.00799 19.0326 9.78224 14.7429C11.5565 10.4532 14.5628 6.78578 18.421 4.20438C22.2793 1.62297 26.8163 0.24346 31.4585 0.240234C37.6819 0.253149 43.647 2.73001 48.0492 7.12912C52.4513 11.5282 54.9323 17.4916 54.9496 23.715V23.715ZM31.4748 19.8162C30.7004 19.8162 29.9435 20.0458 29.2996 20.476C28.6558 20.9062 28.154 21.5177 27.8576 22.2331C27.5613 22.9485 27.4838 23.7357 27.6348 24.4951C27.7859 25.2546 28.1588 25.9522 28.7063 26.4998C29.2539 27.0473 29.9515 27.4202 30.711 27.5713C31.4705 27.7224 32.2577 27.6448 32.9731 27.3485C33.6885 27.0522 34.2999 26.5503 34.7302 25.9065C35.1604 25.2626 35.39 24.5057 35.39 23.7313C35.39 22.693 34.9775 21.6971 34.2433 20.9629C33.509 20.2286 32.5132 19.8162 31.4748 19.8162V19.8162Z" fill="#D2D2D2"/>
<path d="M41.8992 47.6298V51.023C41.9103 51.5488 41.815 52.0714 41.6189 52.5593C41.4228 53.0473 41.13 53.4905 40.7581 53.8624C40.3863 54.2342 39.943 54.527 39.4551 54.7231C38.9671 54.9192 38.4445 55.0146 37.9188 55.0034H25.015C24.4912 55.0101 23.9714 54.9115 23.4864 54.7136C23.0014 54.5157 22.561 54.2225 22.1913 53.8513C21.8217 53.4802 21.5303 53.0386 21.3344 52.5528C21.1385 52.067 21.0421 51.5468 21.0508 51.023C21.0508 49.9463 21.0508 48.8697 21.0508 47.7604C21.0508 47.5646 21.0508 47.5646 21.2466 47.6298C24.9611 49.2362 29.0015 49.946 33.0411 49.7016C36.0239 49.5103 38.9527 48.8153 41.7034 47.6462H41.8666L41.8992 47.6298Z" fill="#D2D2D2"/>
<path d="M62.7633 26.3418C63.7964 26.3386 64.8073 26.642 65.6679 27.2137C66.5285 27.7853 67.2001 28.5994 67.5978 29.553C67.9954 30.5066 68.1011 31.5567 67.9015 32.5704C67.7019 33.5842 67.206 34.5158 66.4766 35.2475C65.7472 35.9792 64.8171 36.478 63.804 36.6808C62.7909 36.8835 61.7405 36.7811 60.7857 36.3865C59.8308 35.9919 59.0146 35.3228 58.4402 34.464C57.8659 33.6052 57.5593 32.5952 57.5593 31.5621C57.5636 30.1817 58.1127 28.8589 59.0873 27.8813C60.0618 26.9037 61.3829 26.3504 62.7633 26.3418Z" fill="#D2D2D2"/>
<path d="M47.4947 51.1053H44.6562C44.4767 51.1053 44.4441 51.1053 44.4441 50.8769C44.4441 50.1483 44.4441 49.4142 44.4441 48.6746C44.4441 48.5278 44.4441 48.4789 44.6398 48.4789H49.6806C52.3232 48.4671 54.8852 47.5683 56.9559 45.9266C59.0266 44.2848 60.4859 41.9952 61.0999 39.425C61.0999 39.2292 61.1978 39.1803 61.3936 39.2129C62.1438 39.3433 62.9109 39.3433 63.6611 39.2129C63.7753 39.2129 63.7916 39.2129 63.759 39.3271C63.1067 42.8194 61.1756 45.943 58.343 48.0874C56.5621 49.4695 54.4753 50.4038 52.2581 50.8117C51.4071 50.9612 50.5448 51.0376 49.6806 51.0401L47.4947 51.1053Z" fill="#D2D2D2"/>
<path d="M7.76293 88.6955V90.9005H9.00793V88.6955H7.76293ZM13.4629 80.6105V94.1705H14.7079V80.6105H13.4629ZM14.3029 86.3705V87.4205H16.8079V86.3705H14.3029ZM4.26793 91.5905C6.63793 91.5905 9.81793 91.5755 12.7429 91.0505L12.6379 90.1205C9.83293 90.5255 6.51793 90.5555 4.08793 90.5555L4.26793 91.5905ZM4.31293 82.2455V83.2505H12.4279V82.2455H4.31293ZM8.37793 84.0455C6.48793 84.0455 5.19793 85.0355 5.19793 86.5505C5.19793 88.0805 6.48793 89.0555 8.37793 89.0555C10.2679 89.0555 11.5729 88.0805 11.5729 86.5505C11.5729 85.0355 10.2679 84.0455 8.37793 84.0455ZM8.37793 85.0055C9.59293 85.0055 10.4029 85.6205 10.4029 86.5505C10.4029 87.4805 9.59293 88.0955 8.37793 88.0955C7.16293 88.0955 6.36793 87.4805 6.36793 86.5505C6.36793 85.6205 7.16293 85.0055 8.37793 85.0055ZM7.76293 80.6255V82.9205H9.00793V80.6255H7.76293ZM28.4168 80.6105V94.1705H29.6018V80.6105H28.4168ZM26.2718 86.0705V87.1205H28.8818V86.0705H26.2718ZM25.4618 80.8955V93.4955H26.6318V80.8955H25.4618ZM20.8418 82.7105V84.2705C20.8418 87.0305 19.8518 89.3405 17.9018 90.4205L18.6668 91.3805C20.7518 90.1355 21.8168 87.5255 21.8168 84.2705V82.7105H20.8418ZM21.0668 82.7105V84.2705C21.0668 87.2555 22.1468 89.7605 24.2168 90.9005L24.9518 89.9405C23.0468 88.9655 22.0418 86.7605 22.0418 84.2705V82.7105H21.0668ZM18.2168 82.2005V83.2355H24.5168V82.2005H18.2168ZM38.3306 83.1005V84.1205H41.9606V83.1005H38.3306ZM38.2106 85.9205V86.9405H41.8706V85.9205H38.2106ZM41.7506 80.6105V88.7405H42.9956V80.6105H41.7506ZM37.5056 81.6305V82.1705C37.5056 84.7355 35.4806 86.7305 32.0156 87.7355L32.5256 88.7405C36.4256 87.5705 38.8406 85.1255 38.8406 81.6305H37.5056ZM32.7206 81.6305V82.6505H38.3606V81.6305H32.7206ZM38.5856 88.8905C35.8406 88.8905 34.1006 89.8655 34.1006 91.5005C34.1006 93.1355 35.8406 94.1105 38.5856 94.1105C41.3306 94.1105 43.0706 93.1355 43.0706 91.5005C43.0706 89.8655 41.3306 88.8905 38.5856 88.8905ZM38.5856 89.8655C40.5806 89.8655 41.8556 90.4805 41.8556 91.5005C41.8556 92.5205 40.5806 93.1205 38.5856 93.1205C36.6056 93.1205 35.3306 92.5205 35.3306 91.5005C35.3306 90.4805 36.6056 89.8655 38.5856 89.8655ZM45.6494 91.4105V92.4455H57.9344V91.4105H45.6494ZM51.1394 88.1705V91.7105H52.3844V88.1705H51.1394ZM47.0894 81.5705V88.5005H56.4644V81.5705H55.2344V83.9855H48.3194V81.5705H47.0894ZM48.3194 84.9905H55.2344V87.4805H48.3194V84.9905ZM69.3182 80.6105V94.1705H70.5632V80.6105H69.3182ZM65.3432 82.0655V82.2755C65.3432 85.8755 63.5282 88.7555 59.6132 90.6455L60.2732 91.6505C64.8032 89.4305 66.5732 85.9955 66.5732 82.0655H65.3432ZM60.2282 82.0655V83.0855H65.8832V82.0655H60.2282Z" fill="#7D7D7D"/>
</svg>
