<svg width="75" height="69" viewBox="0 0 75 69" fill="none" xmlns="http://www.w3.org/2000/svg">
<path d="M58.687 29.3435C58.687 35.1462 56.9665 40.8187 53.7431 45.6437C50.5197 50.4688 45.9381 54.2298 40.5775 56.4514C35.2168 58.6729 29.3179 59.2552 23.6264 58.1246C17.9348 56.9941 12.7063 54.2014 8.60173 50.0997C4.49716 45.9979 1.70086 40.7713 0.566328 35.0806C-0.568198 29.3899 0.00999232 23.4905 2.2278 18.1283C4.44562 12.7662 8.20347 8.18193 13.0263 4.95518C17.8491 1.72842 23.5204 0.00403247 29.3231 0C37.1024 0.0161434 44.5588 3.11222 50.0615 8.61111C55.5642 14.11 58.6654 21.5642 58.687 29.3435ZM29.3435 24.4699C28.3756 24.4699 27.4294 24.7569 26.6245 25.2947C25.8197 25.8324 25.1925 26.5968 24.8221 27.491C24.4516 28.3853 24.3547 29.3693 24.5436 30.3186C24.7324 31.268 25.1985 32.14 25.8829 32.8244C26.5674 33.5089 27.4394 33.975 28.3887 34.1638C29.3381 34.3527 30.3221 34.2557 31.2163 33.8853C32.1106 33.5149 32.8749 32.8876 33.4127 32.0828C33.9504 31.278 34.2375 30.3318 34.2375 29.3639C34.2375 28.0659 33.7219 26.8211 32.8041 25.9033C31.8863 24.9855 30.6415 24.4699 29.3435 24.4699Z" fill="#D2D2D2"/>
<path d="M42.3741 59.2373V63.4787C42.388 64.1359 42.2688 64.7891 42.0237 65.3991C41.7786 66.009 41.4126 66.5631 40.9478 67.0279C40.4829 67.4927 39.9289 67.8587 39.319 68.1038C38.709 68.349 38.0558 68.4682 37.3986 68.4543H21.2688C20.6141 68.4625 19.9643 68.3393 19.3581 68.092C18.7518 67.8446 18.2014 67.4781 17.7393 67.0141C17.2772 66.5502 16.913 65.9982 16.6681 65.3909C16.4232 64.7837 16.3027 64.1334 16.3137 63.4787C16.3137 62.1329 16.3137 60.787 16.3137 59.4004C16.3137 59.1557 16.3137 59.1557 16.5584 59.2373C21.2015 61.2452 26.252 62.1324 31.3015 61.827C35.0299 61.5879 38.691 60.7191 42.1294 59.2577H42.3333L42.3741 59.2373Z" fill="#D2D2D2"/>
<path d="M68.4541 32.627C69.7456 32.6229 71.0092 33.0022 72.0849 33.7168C73.1607 34.4313 74.0002 35.449 74.4973 36.641C74.9943 37.833 75.1264 39.1456 74.8769 40.4128C74.6275 41.6799 74.0076 42.8445 73.0958 43.7591C72.1841 44.6737 71.0214 45.2972 69.7551 45.5507C68.4887 45.8041 67.1757 45.6761 65.9821 45.1828C64.7886 44.6895 63.7683 43.8532 63.0504 42.7797C62.3325 41.7061 61.9492 40.4437 61.9492 39.1523C61.9546 37.4268 62.641 35.7733 63.8591 34.5513C65.0773 33.3293 66.7287 32.6377 68.4541 32.627Z" fill="#D2D2D2"/>
<path d="M49.3684 63.5812H45.8203C45.596 63.5812 45.5552 63.5812 45.5552 63.2957C45.5552 62.3849 45.5552 61.4673 45.5552 60.5429C45.5552 60.3593 45.5552 60.2982 45.7999 60.2982H52.1009C55.404 60.2835 58.6066 59.16 61.1949 57.1078C63.7833 55.0556 65.6075 52.1936 66.375 48.9808C66.375 48.7361 66.4973 48.675 66.742 48.7158C67.6798 48.8787 68.6387 48.8787 69.5765 48.7158C69.7192 48.7158 69.7396 48.7158 69.6988 48.8585C68.8835 53.2239 66.4696 57.1284 62.9288 59.8088C60.7027 61.5365 58.0942 62.7044 55.3227 63.2142C54.2589 63.4011 53.181 63.4966 52.1009 63.4996L49.3684 63.5812Z" fill="#D2D2D2"/>
</svg>
