<svg width="76" height="100" viewBox="0 0 76 100" fill="none" xmlns="http://www.w3.org/2000/svg">
<path d="M53.1463 0C54.0256 0.228955 54.7944 0.69936 55.3361 1.33982C55.7537 1.96585 55.9456 2.68521 55.8872 3.4059V41.6972C55.8872 46.7059 55.8872 51.6144 55.8872 56.573C55.9261 57.0305 55.8504 57.4899 55.6652 57.9199C55.48 58.3499 55.1897 58.7404 54.814 59.0648C54.4383 59.3892 53.986 59.6399 53.488 59.7998C52.99 59.9597 52.458 60.025 51.9281 59.9914C42.5307 59.9914 33.0753 59.9914 23.7214 59.9914C22.9099 60.0442 22.103 59.8466 21.4445 59.4339C20.7859 59.0211 20.3182 58.42 20.1248 57.7375C20.0338 57.3928 19.9996 57.0387 20.0233 56.6857V3.2932C19.9282 2.59466 20.126 1.88981 20.581 1.30635C21.0359 0.722898 21.7178 0.299438 22.5032 0.112695C22.5032 0.112695 22.5902 0 22.6337 0H53.1463ZM53.5668 18.8577V3.39338C53.5668 2.2539 53.2768 1.99095 51.9281 1.99095H23.9824C22.6482 1.99095 22.3437 2.2539 22.3437 3.39338C22.3437 13.7279 22.3437 24.0542 22.3437 34.372C22.3437 34.898 22.4887 34.9981 23.0833 34.9981H52.8417C53.4218 34.9981 53.5813 34.898 53.5813 34.372C53.5523 29.2006 53.5668 24.0291 53.5668 18.8577ZM37.948 36.9891C32.9882 36.9891 28.014 36.9891 23.0398 36.9891C22.5177 36.9891 22.3292 37.0642 22.3292 37.5776C22.3292 43.9386 22.3292 50.2996 22.3292 56.6606C22.3292 57.6999 22.6627 57.9879 23.7794 57.9879H52.0586C53.2333 57.9879 53.5088 57.6999 53.5088 56.6606C53.5088 50.2996 53.5088 43.9386 53.5088 37.5776C53.5088 37.0517 53.3203 36.9891 52.7982 36.9891C47.8965 37.0016 42.9222 36.9891 37.948 36.9891Z" fill="#D2D2D2"/>
<path d="M28.0729 26.9835C28.0729 28.098 28.0729 29.2124 28.0729 30.3268C27.9946 31.0412 27.614 31.7057 27.0039 32.1931C26.3938 32.6805 25.5971 32.9567 24.766 32.9689C24.4703 32.9935 24.1752 32.9167 23.9445 32.755C23.7138 32.5933 23.5661 32.3598 23.5332 32.1049C23.4917 31.8526 23.5675 31.5964 23.7442 31.3923C23.9209 31.1882 24.1839 31.0527 24.4759 31.0155C25.6362 30.7776 25.8103 30.6023 25.8103 29.588V24.3164C25.8103 23.3898 25.5782 23.1644 24.5339 22.9641C24.3828 22.9519 24.2361 22.9132 24.1029 22.8505C23.9696 22.7877 23.8526 22.7021 23.7589 22.599C23.6653 22.4959 23.597 22.3773 23.5581 22.2507C23.5193 22.124 23.5108 21.9918 23.5332 21.8622C23.556 21.7266 23.6101 21.5963 23.6922 21.4791C23.7743 21.3618 23.8827 21.2599 24.0111 21.1794C24.1395 21.0989 24.2853 21.0414 24.4399 21.0102C24.5944 20.9791 24.7546 20.975 24.911 20.9982C25.7435 21.0467 26.5261 21.3582 27.1093 21.8733C27.6925 22.3884 28.0356 23.0709 28.0729 23.7905C28.0729 24.8548 28.0729 25.9317 28.0729 26.9961V26.9835Z" fill="#D2D2D2"/>
<path d="M37.4263 7.97714C37.0011 7.99592 36.5751 7.99592 36.15 7.97714C35.8857 7.9739 35.6333 7.88182 35.4465 7.72046C35.2596 7.5591 35.1529 7.34117 35.1492 7.113C35.1153 6.99658 35.1102 6.87528 35.1344 6.75706C35.1586 6.63884 35.2115 6.52637 35.2895 6.42704C35.3676 6.3277 35.4691 6.24374 35.5874 6.18065C35.7057 6.11757 35.8381 6.0768 35.9759 6.06101C36.9354 5.91391 37.9173 5.91391 38.8767 6.06101C39.1478 6.10104 39.3903 6.23061 39.5527 6.42229C39.7151 6.61397 39.7848 6.8527 39.747 7.08795C39.7289 7.32511 39.6088 7.54787 39.4102 7.71241C39.2116 7.87696 38.9488 7.97139 38.6737 7.97714H37.4263Z" fill="#D2D2D2"/>
<path d="M28.0579 45.0029C28.0579 46.1299 28.0579 47.2693 28.0579 48.3963C27.9638 49.0919 27.5817 49.7347 26.982 50.2064C26.3824 50.6781 25.6055 50.9468 24.7945 50.9632C24.6439 50.9789 24.4912 50.9686 24.3452 50.9329C24.1992 50.8972 24.0629 50.8368 23.9442 50.7553C23.8254 50.6737 23.7266 50.5727 23.6535 50.4579C23.5804 50.3431 23.5344 50.2169 23.5182 50.0867C23.4999 49.9609 23.5106 49.8332 23.5496 49.7109C23.5885 49.5887 23.6551 49.4743 23.7453 49.3742C23.8356 49.2742 23.9478 49.1905 24.0756 49.128C24.2034 49.0655 24.3442 49.0253 24.49 49.0098C25.6503 48.7594 25.7953 48.6092 25.7953 47.5699V42.3107C25.7953 41.3967 25.5778 41.1838 24.5625 40.9834C23.8373 40.8457 23.4457 40.445 23.5182 39.9066C23.532 39.7704 23.5783 39.6381 23.6543 39.5181C23.7303 39.3981 23.8342 39.293 23.9596 39.2095C24.085 39.126 24.2291 39.0658 24.3828 39.0327C24.5365 38.9997 24.6964 38.9945 24.8526 39.0175C25.6611 39.0444 26.431 39.3229 27.0202 39.8016C27.6094 40.2803 27.978 40.927 28.0579 41.6221C28.0579 42.749 28.0579 43.8885 28.0579 45.0154V45.0029Z" fill="#D2D2D2"/>
<path d="M28.2818 85.61V93.815H29.4668V85.61H28.2818ZM26.0618 89.135V90.17H28.6118V89.135H26.0618ZM25.2518 85.865V93.335H26.4218V85.865H25.2518ZM25.0118 94.025C22.2368 94.025 20.4968 94.985 20.4968 96.59C20.4968 98.195 22.2368 99.14 25.0118 99.14C27.7868 99.14 29.5418 98.195 29.5418 96.59C29.5418 94.985 27.7868 94.025 25.0118 94.025ZM25.0118 95.03C27.0368 95.03 28.2968 95.6 28.2968 96.59C28.2968 97.565 27.0368 98.15 25.0118 98.15C22.9868 98.15 21.7118 97.565 21.7118 96.59C21.7118 95.6 22.9868 95.03 25.0118 95.03ZM18.7118 86.69V91.91H19.9568V86.69H18.7118ZM18.7118 91.55V92.6H19.5668C21.1718 92.6 22.6568 92.525 24.4418 92.165L24.3068 91.13C22.5818 91.475 21.1118 91.55 19.5668 91.55H18.7118ZM35.1806 87.065V88.16C35.1806 90.095 33.8306 91.85 31.7906 92.57L32.4206 93.56C34.7006 92.735 36.2006 90.65 36.2006 88.16V87.065H35.1806ZM35.4056 87.065V88.145C35.4056 90.455 36.8456 92.39 39.1106 93.14L39.7106 92.165C37.7156 91.505 36.4256 89.915 36.4256 88.145V87.065H35.4056ZM32.1656 86.615V87.635H39.4106V86.615H32.1656ZM41.1206 85.61V93.785H42.3656V85.61H41.1206ZM42.0206 89.045V90.095H44.3756V89.045H42.0206ZM38.0456 94.145C35.2856 94.145 33.5906 95.06 33.5906 96.635C33.5906 98.225 35.2856 99.14 38.0456 99.14C40.8056 99.14 42.5006 98.225 42.5006 96.635C42.5006 95.06 40.8056 94.145 38.0456 94.145ZM38.0456 95.15C40.0556 95.15 41.2856 95.69 41.2856 96.635C41.2856 97.595 40.0556 98.165 38.0456 98.165C36.0356 98.165 34.8056 97.595 34.8056 96.635C34.8056 95.69 36.0356 95.15 38.0456 95.15ZM46.9394 86.96V87.995H55.6694V86.96H46.9394ZM45.6494 96.245V97.28H57.9044V96.245H45.6494ZM50.4044 91.4V96.755H51.6494V91.4H50.4044ZM55.2044 86.96V88.31C55.2044 89.93 55.2044 91.835 54.6944 94.43L55.9394 94.595C56.4344 91.85 56.4344 89.99 56.4344 88.31V86.96H55.2044Z" fill="#7D7D7D"/>
</svg>
