<svg width="35" height="59" viewBox="0 0 35 59" fill="none" xmlns="http://www.w3.org/2000/svg">
<path d="M32.3176 0C33.175 0.223231 33.9246 0.681876 34.4527 1.30633C34.8599 1.9167 35.047 2.61808 34.99 3.32075V40.6548C34.99 45.5383 34.99 50.324 34.99 55.1587C35.028 55.6048 34.9541 56.0527 34.7736 56.4719C34.593 56.8912 34.3099 57.2719 33.9436 57.5882C33.5773 57.9044 33.1364 58.1489 32.6508 58.3048C32.1653 58.4607 31.6465 58.5244 31.1299 58.4916C21.9674 58.4916 12.7484 58.4916 3.62833 58.4916C2.83713 58.5431 2.05047 58.3504 1.40835 57.948C0.766219 57.5456 0.310291 56.9595 0.121704 56.2941C0.0329798 55.958 -0.000341471 55.6127 0.0227271 55.2685V3.21087C-0.0699928 2.52979 0.122897 1.84256 0.566448 1.27369C1.01 0.704825 1.67487 0.291952 2.4406 0.109878C2.4406 0.109878 2.52544 0 2.56786 0H32.3176ZM32.7276 18.3862V3.30854C32.7276 2.19756 32.4449 1.94117 31.1299 1.94117H3.88284C2.582 1.94117 2.28507 2.19756 2.28507 3.30854C2.28507 13.3847 2.28507 23.4528 2.28507 33.5127C2.28507 34.0255 2.42646 34.1232 3.00619 34.1232H32.0207C32.5863 34.1232 32.7418 34.0255 32.7418 33.5127C32.7135 28.4706 32.7276 23.4284 32.7276 18.3862ZM17.4993 36.0643C12.6635 36.0643 7.81365 36.0643 2.96377 36.0643C2.45474 36.0643 2.27093 36.1376 2.27093 36.6382C2.27093 42.8401 2.27093 49.0421 2.27093 55.2441C2.27093 56.2575 2.59614 56.5382 3.68489 56.5382H31.2571C32.4024 56.5382 32.6711 56.2575 32.6711 55.2441C32.6711 49.0421 32.6711 42.8401 32.6711 36.6382C32.6711 36.1254 32.4873 36.0643 31.9783 36.0643C27.1991 36.0766 22.3492 36.0643 17.4993 36.0643Z" fill="#D2D2D2"/>
<path d="M7.87098 26.3091C7.87098 27.3957 7.87098 28.4823 7.87098 29.5688C7.79458 30.2654 7.4235 30.9132 6.82869 31.3884C6.23388 31.8636 5.45706 32.1329 4.64674 32.1448C4.35839 32.1688 4.07069 32.0939 3.84578 31.9363C3.62087 31.7787 3.47681 31.551 3.44472 31.3024C3.40427 31.0565 3.47825 30.8067 3.65049 30.6076C3.82272 30.4086 4.07922 30.2765 4.36391 30.2403C5.49523 30.0083 5.66492 29.8374 5.66492 28.8485V23.7087C5.66492 22.8052 5.43866 22.5855 4.42048 22.3901C4.27312 22.3783 4.13012 22.3406 4.0002 22.2794C3.87028 22.2182 3.75618 22.1347 3.66486 22.0342C3.57354 21.9337 3.50692 21.8181 3.46907 21.6946C3.43122 21.571 3.42294 21.4422 3.44472 21.3158C3.46703 21.1836 3.51975 21.0566 3.59979 20.9423C3.67983 20.8279 3.78556 20.7286 3.91075 20.6501C4.03595 20.5716 4.17807 20.5155 4.32876 20.4852C4.47945 20.4548 4.63565 20.4508 4.78816 20.4734C5.59979 20.5207 6.3628 20.8245 6.93146 21.3267C7.50013 21.8289 7.83459 22.4943 7.87098 23.1959C7.87098 24.2336 7.87098 25.2836 7.87098 26.3213V26.3091Z" fill="#D2D2D2"/>
<path d="M16.9907 7.77755C16.5762 7.79586 16.1608 7.79586 15.7463 7.77755C15.4886 7.77439 15.2426 7.68461 15.0604 7.52729C14.8781 7.36996 14.7742 7.15749 14.7705 6.93501C14.7374 6.8215 14.7325 6.70324 14.7561 6.58798C14.7797 6.47271 14.8312 6.36306 14.9074 6.2662C14.9835 6.16935 15.0824 6.08748 15.1978 6.02598C15.3131 5.96447 15.4422 5.92472 15.5766 5.90932C16.512 5.7659 17.4694 5.7659 18.4049 5.90932C18.6692 5.94836 18.9056 6.07469 19.064 6.26158C19.2223 6.44846 19.2902 6.68123 19.2533 6.91059C19.2358 7.14183 19.1186 7.35901 18.925 7.51945C18.7313 7.67988 18.4752 7.77195 18.2069 7.77755H16.9907Z" fill="#D2D2D2"/>
<path d="M7.85659 43.8778C7.85659 44.9766 7.85659 46.0876 7.85659 47.1864C7.76476 47.8646 7.39222 48.4913 6.80756 48.9512C6.22291 49.4111 5.46549 49.6732 4.67477 49.6891C4.52791 49.7044 4.37899 49.6944 4.23666 49.6596C4.09433 49.6247 3.96142 49.5659 3.84565 49.4864C3.72988 49.4069 3.63355 49.3083 3.56226 49.1964C3.49096 49.0845 3.44612 48.9615 3.43033 48.8345C3.41252 48.7119 3.42291 48.5874 3.46091 48.4682C3.49891 48.349 3.56378 48.2374 3.65178 48.1399C3.73979 48.0423 3.84922 47.9608 3.9738 47.8998C4.09838 47.8388 4.23567 47.7997 4.3778 47.7846C5.50912 47.5404 5.65053 47.3939 5.65053 46.3806V41.253C5.65053 40.3617 5.43841 40.1542 4.44851 39.9588C3.74144 39.8245 3.35962 39.4339 3.43033 38.9089C3.44376 38.7761 3.48895 38.6471 3.56302 38.5301C3.6371 38.4132 3.73847 38.3107 3.86072 38.2293C3.98297 38.1478 4.12346 38.0891 4.27331 38.0569C4.42316 38.0247 4.57912 38.0196 4.73134 38.0421C5.51962 38.0682 6.27032 38.3398 6.84478 38.8065C7.41923 39.2733 7.77863 39.9038 7.85659 40.5815C7.85659 41.6803 7.85659 42.7913 7.85659 43.89V43.8778Z" fill="#D2D2D2"/>
</svg>
