<svg width="75" height="70" viewBox="0 0 75 70" fill="none" xmlns="http://www.w3.org/2000/svg">
<path d="M75 51.149C74.8819 51.149 74.8701 51.2553 74.8465 51.3616C74.2222 54.3981 72.5862 57.133 70.2061 59.1193C66.2366 62.5274 61.5575 65.0081 56.509 66.381C51.9781 67.7389 47.3078 68.5786 42.5877 68.8843C38.4262 69.1934 34.2454 69.1302 30.0951 68.6953C23.5324 68.1204 17.1299 66.3517 11.2027 63.4763C7.83408 61.9032 4.86963 59.5809 2.53577 56.6869C0.787953 54.5524 -0.111037 51.8481 0.010972 49.092C0.132981 46.336 1.26741 43.7217 3.19701 41.75C6.22451 38.5223 9.94766 36.0267 14.0838 34.4528C20.0852 32.0435 26.4462 30.6508 32.9053 30.3319C40.367 29.7986 47.8654 30.5129 55.0921 32.4455C59.831 33.617 64.3033 35.6808 68.2696 38.5265C71.1861 40.711 73.6303 43.2496 74.6458 46.9337C74.6812 47.3812 74.8014 47.818 75 48.2207V51.149ZM37.534 63.8896C40.055 63.8904 42.5741 63.7485 45.0791 63.4645C50.2039 62.9709 55.2135 61.6427 59.9097 59.5325C63.0599 58.2332 65.8069 56.1179 67.8681 53.4043C68.8017 52.2035 69.3592 50.7533 69.4706 49.2364C69.5819 47.7194 69.2421 46.2034 68.4939 44.8791C66.9506 42.2221 64.659 40.0784 61.9052 38.7154C56.3399 35.769 50.2167 34.027 43.9338 33.6027C38.1735 33.0094 32.3585 33.228 26.659 34.2521C21.3743 35.0653 16.3184 36.9758 11.8167 39.8608C9.66005 41.2215 7.91973 43.1497 6.78657 45.4341C6.11514 47.0295 5.9533 48.7935 6.32321 50.4845C6.69312 52.1755 7.57668 53.7109 8.85293 54.8803C11.448 57.4353 14.5774 59.3831 18.0157 60.5834C24.2707 62.8478 30.8822 63.9678 37.534 63.8896Z" fill="#D2D2D2"/>
<path d="M38.8918 18.016C39.2771 17.5735 39.5562 17.0487 39.7076 16.4818C39.859 15.915 39.8789 15.321 39.7656 14.7452C39.5794 13.0709 39.0744 11.4476 38.2778 9.96309C37.7248 8.9672 37.304 7.90339 37.0262 6.79861C36.8508 6.05899 36.8672 5.28683 37.0738 4.55532C37.2805 3.82381 37.6705 3.15719 38.207 2.61867C39.63 1.27597 41.4087 0.370222 43.3316 0.00915103C43.5085 -0.00305034 43.686 -0.00305034 43.8629 0.00915103C43.5205 0.375192 43.2489 0.634962 43.0128 0.930156C41.5132 2.8194 41.832 4.83853 42.6703 6.83404C43.1899 7.87664 43.6472 8.94909 44.04 10.0457C45.3035 14.2729 42.7058 16.9415 39.1634 18.0278C39.0734 18.0194 38.9855 17.9955 38.9037 17.9569L38.8918 18.016Z" fill="#D2D2D2"/>
<path d="M27.5802 8.4751C31.276 9.78576 33.4841 12.962 31.9727 16.7405C31.4849 17.8291 30.9083 18.8756 30.2487 19.8696C29.6736 20.7496 29.2987 21.7453 29.1506 22.7861C29.0469 23.5679 29.1405 24.3633 29.4231 25.0996C29.7057 25.8359 30.1681 26.4898 30.7683 27.0015C28.4067 26.5528 25.4784 24.7344 24.6519 22.7271C24.3594 21.9857 24.2487 21.1852 24.3288 20.3923C24.4089 19.5994 24.6776 18.8371 25.1124 18.1693C26.1295 16.6416 27.0144 15.0299 27.7573 13.3517C28.2542 12.1535 28.3936 10.8371 28.1588 9.56141C28.0844 9.14766 27.882 8.76768 27.5802 8.4751Z" fill="#D2D2D2"/>
<path d="M50.3926 27.4389C49.8375 27.1787 49.3274 26.832 48.8812 26.4116C47.992 25.7235 47.2221 24.8938 46.6023 23.9556C45.8983 22.9902 45.5742 21.7995 45.6918 20.6105C45.8094 19.4215 46.3605 18.3174 47.2399 17.5086C48.3026 16.4223 49.4952 15.4776 50.4634 14.3087C51.3139 13.3637 51.9538 12.2489 52.3409 11.0379C52.5155 10.5054 52.568 9.94041 52.4944 9.38485C52.4944 9.24315 52.2936 9.10146 52.4944 8.99519C52.6951 8.88892 52.8014 8.99519 52.9431 9.10146C54.7851 10.8018 56.0839 12.7264 55.5053 15.3596C55.1521 16.7229 54.4095 17.9538 53.3681 18.9019C52.9076 19.3742 52.4117 19.8111 51.9276 20.2598C49.6015 22.5859 49.1646 24.4397 50.3926 27.4389Z" fill="#D2D2D2"/>
<path d="M38.9037 17.981L38.9155 18.0046L38.8918 18.0164L38.9037 17.981Z" fill="#D2D2D2"/>
<path d="M37.959 62.0119C31.99 62.1025 26.0549 61.098 20.4481 59.0482C17.4402 58.0163 14.7093 56.3075 12.4661 54.0535C11.6068 53.2528 10.9459 52.2628 10.536 51.1622C10.1261 50.0615 9.97834 48.8804 10.1045 47.7127C10.3809 45.9687 11.2085 44.359 12.4661 43.1195C14.7099 40.8632 17.4461 39.1576 20.4599 38.1366C27.1077 35.7281 34.1911 34.7582 41.2416 35.2909C45.9969 35.5095 50.6894 36.4655 55.1511 38.1248C58.1591 39.1524 60.8931 40.8525 63.145 43.0959C64.0486 43.924 64.736 44.9605 65.1476 46.115C65.5592 47.2695 65.6824 48.507 65.5066 49.72C65.1881 51.3882 64.3635 52.9178 63.145 54.1007C60.886 56.3354 58.1484 58.0272 55.1393 59.0482C49.6399 61.0704 43.8182 62.0747 37.959 62.0119ZM37.038 59.5087C41.4805 59.6095 45.9113 59.0119 50.1683 57.7375C53.2639 56.9022 56.104 55.3118 58.4337 53.1089C59.6059 52.0646 60.3201 50.601 60.4217 49.0344C60.5234 47.4678 60.0043 45.9241 58.9769 44.7372C57.8892 43.3836 56.5295 42.2733 54.9858 41.4782C51.5058 39.6509 47.712 38.4971 43.8039 38.0776C37.7001 37.2079 31.4803 37.6711 25.5727 39.4355C22.4174 40.2599 19.5292 41.887 17.1892 44.1586C16.0388 45.1958 15.3421 46.6436 15.2493 48.1898C15.1565 49.736 15.6751 51.2567 16.6933 52.424C18.1966 54.2334 20.1288 55.6379 22.3138 56.5095C26.965 58.506 31.9765 59.5268 37.038 59.5087Z" fill="#D2D2D2"/>
<path d="M37.7937 57.6306C33.334 57.7335 28.9042 56.8757 24.8052 55.1156C23.0584 54.4077 21.5103 53.2851 20.2946 51.8448C19.8673 51.3572 19.5402 50.7902 19.3321 50.1762C19.1239 49.5621 19.0388 48.9131 19.0815 48.2661C19.1243 47.6192 19.2941 46.987 19.5813 46.4057C19.8684 45.8244 20.2673 45.3054 20.7551 44.8783C22.608 43.0577 24.9032 41.7513 27.4147 41.088C34.5988 38.8646 42.3079 39.0137 49.4008 41.513C51.4739 42.1791 53.3569 43.3332 54.8914 44.8783C55.4105 45.3476 55.8254 45.9206 56.1094 46.5603C56.3934 47.1999 56.5401 47.892 56.5401 48.5918C56.5401 49.2916 56.3934 49.9837 56.1094 50.6233C55.8254 51.263 55.4105 51.836 54.8914 52.3053C52.9064 54.2073 50.4673 55.5691 47.8067 56.2609C44.5576 57.2218 41.1815 57.6836 37.7937 57.6306ZM37.8528 42.3632C35.453 42.348 33.0647 42.6943 30.7681 43.3905C29.0001 43.8656 27.3825 44.7841 26.0686 46.059C25.6949 46.3891 25.3967 46.7959 25.1943 47.2516C24.9919 47.7072 24.8901 48.2012 24.8957 48.6998C24.9013 49.1984 25.0142 49.6899 25.2268 50.1409C25.4394 50.5919 25.7466 50.9919 26.1277 51.3135C27.4184 52.5123 28.9963 53.3581 30.7091 53.7695C35.3581 55.1863 40.3238 55.1863 44.9729 53.7695C46.7206 53.3275 48.3186 52.4266 49.6015 51.16C49.9551 50.8359 50.2375 50.4418 50.4306 50.0027C50.6238 49.5636 50.7236 49.0892 50.7236 48.6095C50.7236 48.1298 50.6238 47.6554 50.4306 47.2163C50.2375 46.7772 49.9551 46.3831 49.6015 46.059C48.9685 45.3772 48.2162 44.817 47.3816 44.4059C44.4066 43.0081 41.1512 42.3093 37.8646 42.3632H37.8528Z" fill="#D2D2D2"/>
<path d="M37.6521 52.9435C35.2319 53.006 32.8378 52.4318 30.7091 51.2786C30.3166 51.0319 29.9523 50.7428 29.6228 50.4167C29.3512 50.1952 29.1323 49.9161 28.982 49.5995C28.8317 49.2829 28.7537 48.9369 28.7537 48.5865C28.7537 48.236 28.8317 47.89 28.982 47.5734C29.1323 47.2569 29.3512 46.9777 29.6228 46.7563C31.0849 45.4843 32.9028 44.6928 34.83 44.4892C37.8431 43.9326 40.9519 44.2312 43.8039 45.3511C44.6423 45.6691 45.409 46.1507 46.0592 46.7681C46.3329 46.9894 46.5536 47.2692 46.7053 47.5869C46.8569 47.9046 46.9356 48.2521 46.9356 48.6042C46.9356 48.9562 46.8569 49.3038 46.7053 49.6214C46.5536 49.9391 46.3329 50.2189 46.0592 50.4403C44.5438 51.719 42.6814 52.5165 40.7103 52.731C39.6986 52.8873 38.6756 52.9584 37.6521 52.9435Z" fill="#D2D2D2"/>
</svg>
