<svg width="76" height="100" viewBox="0 0 76 100" fill="none" xmlns="http://www.w3.org/2000/svg">
<path d="M10.3198 67.595V81.17H11.5798V67.595H10.3198ZM11.2348 73.1V74.135H13.7398V73.1H11.2348ZM6.85479 69.065V69.26C6.85479 72.845 4.97979 75.74 1.22979 77.645L1.91979 78.605C6.29979 76.4 8.06979 72.92 8.06979 69.065H6.85479ZM1.85979 69.065V70.085H7.49979V69.065H1.85979ZM20.3836 68.54V69.575C20.3836 71.885 17.8336 73.955 15.4486 74.405L16.0036 75.44C18.7186 74.825 21.4636 72.53 21.4636 69.575V68.54H20.3836ZM20.6086 68.54V69.575C20.6086 72.545 23.3686 74.825 26.0686 75.44L26.6236 74.405C24.2536 73.955 21.6886 71.9 21.6886 69.575V68.54H20.6086ZM14.9536 78.32V79.34H27.2386V78.32H14.9536ZM29.1874 76.805V77.84H30.0874C31.7974 77.84 33.3274 77.78 35.2324 77.45L35.1274 76.43C33.2674 76.745 31.7374 76.805 30.0874 76.805H29.1874ZM29.1574 69.095V70.115H32.8024V72.815H29.1874V77.225H30.4024V73.82H34.0024V69.095H29.1574ZM39.0574 67.61V81.17H40.2574V67.61H39.0574ZM34.6474 72.47V73.505H36.8374V72.47H34.6474ZM36.3274 67.94V80.465H37.4824V67.94H36.3274ZM52.4063 67.625V77.525H53.6663V67.625H52.4063ZM44.9513 79.85V80.87H54.0713V79.85H44.9513ZM44.9513 76.505V80.195H46.1813V76.505H44.9513ZM46.3913 68.555C44.3663 68.555 42.8513 69.935 42.8513 71.9C42.8513 73.85 44.3663 75.245 46.3913 75.245C48.4163 75.245 49.9163 73.85 49.9163 71.9C49.9163 69.935 48.4163 68.555 46.3913 68.555ZM46.3913 69.635C47.7113 69.635 48.7163 70.565 48.7163 71.9C48.7163 73.22 47.7113 74.15 46.3913 74.15C45.0713 74.15 44.0663 73.22 44.0663 71.9C44.0663 70.565 45.0713 69.635 46.3913 69.635ZM59.9351 69.545V71.75C59.9351 74.09 58.3001 76.64 56.3351 77.57L57.0551 78.56C59.2151 77.495 60.9401 74.615 60.9401 71.75V69.545H59.9351ZM60.1751 69.545V71.75C60.1751 74.57 61.9151 77.21 64.1051 78.23L64.8101 77.24C62.8151 76.385 61.1801 74.045 61.1801 71.75V69.545H60.1751ZM56.7851 68.99V70.04H64.3601V68.99H56.7851ZM66.1901 67.61V81.17H67.4351V67.61H66.1901ZM75.1484 69.3359L70.7026 80.9155H69.5381L73.9912 69.3359H75.1484ZM27.9068 85.625V95.525H29.1668V85.625H27.9068ZM20.4518 97.85V98.87H29.5718V97.85H20.4518ZM20.4518 94.505V98.195H21.6818V94.505H20.4518ZM21.8918 86.555C19.8668 86.555 18.3518 87.935 18.3518 89.9C18.3518 91.85 19.8668 93.245 21.8918 93.245C23.9168 93.245 25.4168 91.85 25.4168 89.9C25.4168 87.935 23.9168 86.555 21.8918 86.555ZM21.8918 87.635C23.2118 87.635 24.2168 88.565 24.2168 89.9C24.2168 91.22 23.2118 92.15 21.8918 92.15C20.5718 92.15 19.5668 91.22 19.5668 89.9C19.5668 88.565 20.5718 87.635 21.8918 87.635ZM32.5856 92.06V93.095H33.5906C36.2906 93.095 37.8356 93.005 39.6356 92.645L39.4856 91.64C37.7456 92 36.2456 92.06 33.5906 92.06H32.5856ZM32.5856 86.555V92.39H33.8006V87.56H38.7506V86.555H32.5856ZM33.9506 94.415V95.435H41.7506V99.17H42.9956V94.415H33.9506ZM41.7506 85.61V93.725H42.9956V85.61H41.7506ZM37.9556 89.12V90.125H42.0956V89.12H37.9556ZM52.8344 87.605V88.64H55.8794V87.605H52.8344ZM52.8344 90.395V91.415H55.8794V90.395H52.8344ZM49.0394 86.375V88.1C49.0394 90.23 47.6894 92.165 45.6644 92.945L46.3244 93.935C48.5894 93.02 50.0444 90.755 50.0444 88.1V86.375H49.0394ZM49.2644 86.375V88.1C49.2644 90.62 50.7194 92.81 52.8644 93.71L53.5544 92.735C51.5894 91.955 50.2844 90.08 50.2844 88.1V86.375H49.2644ZM55.5494 85.625V95.735H56.7944V85.625H55.5494ZM48.0794 97.85V98.87H57.1244V97.85H48.0794ZM48.0794 94.715V98.405H49.3244V94.715H48.0794Z" fill="#7D7D7D"/>
<path d="M68 40.9196C67.9055 40.9196 67.8961 41.0046 67.8772 41.0896C67.3777 43.5189 66.069 45.7068 64.1648 47.2958C60.9893 50.0223 57.246 52.0069 53.2072 53.1052C49.5825 54.1915 45.8463 54.8633 42.0702 55.1078C38.7409 55.3551 35.3963 55.3046 32.0761 54.9567C26.8259 54.4967 21.7039 53.0818 16.9621 50.7814C14.2673 49.5229 11.8957 47.6651 10.0286 45.3499C8.63036 43.6423 7.91117 41.4789 8.00878 39.274C8.10638 37.0692 9.01393 34.9778 10.5576 33.4004C12.9796 30.8182 15.9581 28.8218 19.267 27.5627C24.0682 25.6352 29.1569 24.521 34.3243 24.2659C40.2936 23.8392 46.2923 24.4107 52.0737 25.9568C55.8648 26.894 59.4426 28.5451 62.6157 30.8216C64.9489 32.5692 66.9042 34.6001 67.7166 37.5473C67.745 37.9054 67.8411 38.2548 68 38.5769V40.9196ZM38.0272 51.1121C40.044 51.1127 42.0593 50.9992 44.0633 50.772C48.1631 50.3771 52.1708 49.3146 55.9277 47.6264C58.4479 46.5869 60.6455 44.8947 62.2945 42.7238C63.0413 41.7632 63.4874 40.603 63.5765 39.3895C63.6655 38.1759 63.3937 36.9631 62.7951 35.9037C61.5605 33.7781 59.7272 32.0631 57.5242 30.9727C53.0719 28.6156 48.1733 27.222 43.147 26.8825C38.5388 26.4079 33.8868 26.5828 29.3272 27.4021C25.0995 28.0526 21.0548 29.581 17.4533 31.889C15.728 32.9776 14.3358 34.5201 13.4293 36.3476C12.8921 37.624 12.7626 39.0352 13.0586 40.388C13.3545 41.7408 14.0613 42.9691 15.0823 43.9046C17.1584 45.9487 19.6619 47.5069 22.4126 48.4671C27.4166 50.2787 32.7058 51.1746 38.0272 51.1121V51.1121Z" fill="#D2D2D2"/>
<path d="M39.1135 14.4128C39.4218 14.0588 39.645 13.639 39.7661 13.1855C39.8873 12.732 39.9032 12.2568 39.8125 11.7962C39.6636 10.4567 39.2595 9.15808 38.6223 7.97047C38.1799 7.17376 37.8433 6.32271 37.621 5.43889C37.4807 4.84719 37.4938 4.22946 37.6591 3.64425C37.8244 3.05905 38.1365 2.52575 38.5656 2.09493C39.704 1.02077 41.127 0.296178 42.6653 0.00732082C42.8068 -0.00244027 42.9489 -0.00244027 43.0904 0.00732082C42.8164 0.300153 42.5992 0.50797 42.4103 0.744125C41.2106 2.25552 41.4656 3.87082 42.1363 5.46723C42.5519 6.30132 42.9178 7.15927 43.2321 8.0366C44.2428 11.4183 42.1647 13.5532 39.3308 14.4222C39.2588 14.4155 39.1884 14.3964 39.123 14.3656L39.1135 14.4128Z" fill="#D2D2D2"/>
<path d="M30.064 6.77979C33.0207 7.82831 34.7871 10.3693 33.578 13.3921C33.1877 14.263 32.7265 15.1002 32.1988 15.8954C31.7387 16.5994 31.4388 17.3959 31.3203 18.2286C31.2373 18.8541 31.3123 19.4903 31.5383 20.0794C31.7644 20.6685 32.1344 21.1915 32.6145 21.6009C30.7252 21.2419 28.3826 19.7872 27.7213 18.1814C27.4874 17.5883 27.3988 16.9478 27.4629 16.3135C27.527 15.6792 27.7419 15.0694 28.0897 14.5351C28.9035 13.313 29.6113 12.0236 30.2057 10.6811C30.6032 9.72252 30.7148 8.66939 30.5269 7.64884C30.4674 7.31783 30.3055 7.01385 30.064 6.77979V6.77979Z" fill="#D2D2D2"/>
<path d="M48.3142 21.9508C47.8701 21.7427 47.462 21.4653 47.1051 21.129C46.3937 20.5785 45.7778 19.9147 45.2819 19.1642C44.7188 18.3919 44.4595 17.4393 44.5536 16.4881C44.6476 15.5369 45.0885 14.6536 45.792 14.0066C46.6422 13.1375 47.5963 12.3818 48.3708 11.4467C49.0512 10.6907 49.5631 9.79879 49.8728 8.83005C50.0125 8.40405 50.0545 7.95204 49.9956 7.50758C49.9956 7.39423 49.835 7.28088 49.9956 7.19586C50.1562 7.11084 50.2412 7.19586 50.3545 7.28087C51.8282 8.64113 52.8672 10.1809 52.4044 12.2874C52.1218 13.378 51.5277 14.3627 50.6946 15.1212C50.3262 15.4991 49.9295 15.8486 49.5422 16.2075C47.6813 18.0684 47.3318 19.5515 48.3142 21.9508Z" fill="#D2D2D2"/>
<path d="M39.1228 14.3848L39.1322 14.4034L39.1135 14.4127L39.1228 14.3848Z" fill="#D2D2D2"/>
<path d="M38.3672 49.6095C33.5919 49.682 28.8439 48.8784 24.3585 47.2385C21.9521 46.413 19.7674 45.046 17.9728 43.2428C17.2854 42.6022 16.7567 41.8103 16.4288 40.9297C16.1008 40.0492 15.9826 39.1043 16.0836 38.1702C16.3047 36.7749 16.9667 35.4872 17.9728 34.4956C19.7679 32.6906 21.9569 31.3261 24.3679 30.5093C29.6861 28.5825 35.3528 27.8066 40.9932 28.2328C44.7975 28.4076 48.5515 29.1724 52.1209 30.4998C54.5272 31.3219 56.7144 32.682 58.516 34.4767C59.2388 35.1392 59.7888 35.9684 60.1181 36.892C60.4473 37.8156 60.5459 38.8056 60.4052 39.776C60.1504 41.1105 59.4908 42.3342 58.516 43.2806C56.7087 45.0683 54.5187 46.4218 52.1114 47.2385C47.7118 48.8563 43.0545 49.6597 38.3672 49.6095V49.6095ZM37.6304 47.6069C41.1844 47.6876 44.729 47.2095 48.1346 46.19C50.6111 45.5218 52.8831 44.2495 54.7469 42.4871C55.6847 41.6517 56.256 40.4808 56.3373 39.2275C56.4186 37.9742 56.0034 36.7393 55.1814 35.7897C54.3113 34.7069 53.2236 33.8187 51.9886 33.1826C49.2046 31.7207 46.1696 30.7977 43.0431 30.4621C38.16 29.7663 33.1842 30.1369 28.4581 31.5484C25.9339 32.2079 23.6233 33.5096 21.7513 35.3269C20.831 36.1566 20.2736 37.3149 20.1994 38.5518C20.1252 39.7888 20.5401 41.0053 21.3546 41.9392C22.5572 43.3867 24.103 44.5103 25.851 45.2076C29.5719 46.8048 33.5811 47.6214 37.6304 47.6069V47.6069Z" fill="#D2D2D2"/>
<path d="M38.2352 46.1043C34.6674 46.1866 31.1236 45.5004 27.8444 44.0923C26.4469 43.526 25.2084 42.6279 24.2359 41.4757C23.894 41.0856 23.6324 40.632 23.4658 40.1407C23.2993 39.6495 23.2312 39.1303 23.2654 38.6127C23.2996 38.0952 23.4355 37.5894 23.6652 37.1244C23.895 36.6593 24.2141 36.2441 24.6043 35.9024C26.0866 34.4459 27.9228 33.4009 29.932 32.8702C35.6793 31.0915 41.8466 31.2107 47.5208 33.2102C49.1793 33.7431 50.6857 34.6664 51.9133 35.9024C52.3286 36.2779 52.6605 36.7363 52.8877 37.248C53.1149 37.7597 53.2323 38.3134 53.2323 38.8732C53.2323 39.4331 53.1149 39.9868 52.8877 40.4985C52.6605 41.0102 52.3286 41.4686 51.9133 41.8441C50.3253 43.3657 48.3741 44.4551 46.2456 45.0086C43.6463 45.7772 40.9454 46.1467 38.2352 46.1043V46.1043ZM38.2824 33.8904C36.3626 33.8782 34.452 34.1552 32.6147 34.7122C31.2002 35.0923 29.9062 35.8271 28.8551 36.847C28.5561 37.1111 28.3176 37.4365 28.1557 37.8011C27.9937 38.1656 27.9122 38.5608 27.9167 38.9596C27.9212 39.3585 28.0116 39.7517 28.1816 40.1125C28.3517 40.4733 28.5975 40.7933 28.9023 41.0506C29.9349 42.0096 31.1972 42.6863 32.5675 43.0154C36.2867 44.1488 40.2592 44.1488 43.9785 43.0154C45.3767 42.6618 46.6551 41.9411 47.6814 40.9278C47.9643 40.6685 48.1902 40.3532 48.3447 40.002C48.4992 39.6507 48.579 39.2712 48.579 38.8874C48.579 38.5037 48.4992 38.1241 48.3447 37.7729C48.1902 37.4216 47.9643 37.1063 47.6814 36.847C47.175 36.3016 46.5732 35.8534 45.9055 35.5246C43.5255 34.4063 40.9212 33.8473 38.2919 33.8904H38.2824Z" fill="#D2D2D2"/>
<path d="M38.1217 42.3548C36.1855 42.4048 34.2702 41.9455 32.5673 41.0229C32.2533 40.8255 31.9618 40.5943 31.6982 40.3333C31.481 40.1562 31.3059 39.9329 31.1856 39.6796C31.0653 39.4264 31.0029 39.1495 31.0029 38.8692C31.0029 38.5888 31.0653 38.312 31.1856 38.0587C31.3059 37.8055 31.481 37.5822 31.6982 37.405C32.8679 36.3874 34.3223 35.7543 35.864 35.5913C38.2745 35.1461 40.7615 35.385 43.0431 36.2809C43.7138 36.5353 44.3272 36.9206 44.8474 37.4145C45.0663 37.5916 45.2429 37.8154 45.3642 38.0695C45.4855 38.3237 45.5485 38.6017 45.5485 38.8833C45.5485 39.165 45.4855 39.443 45.3642 39.6972C45.2429 39.9513 45.0663 40.1751 44.8474 40.3522C43.6351 41.3752 42.1452 42.0132 40.5682 42.1848C39.7589 42.3098 38.9405 42.3667 38.1217 42.3548V42.3548Z" fill="#D2D2D2"/>
</svg>
