<svg width="52" height="75" viewBox="0 0 52 75" fill="none" xmlns="http://www.w3.org/2000/svg">
<path d="M4.66516 75C4.5092 74.7601 4.21461 74.785 3.97695 74.7035C1.69199 73.9249 0.389832 72.4288 0.0482012 70.2266C0.00726414 69.8869 -0.00762572 69.5451 0.00364074 69.2035C0.00364074 48.0668 0.00364074 26.9301 0.00364074 5.79335C0.00364074 2.94379 1.53603 0.949771 4.28887 0.21418C4.90906 0.0604241 5.55016 -0.0112236 6.1926 0.0014242C19.2703 0.0014242 32.3496 0.0014242 45.4306 0.0014242C49.144 0.0014242 51.6195 2.26478 51.6195 5.63944C51.6195 26.8712 51.6261 48.1053 51.6393 69.3416C51.6393 72.3451 49.3271 74.6265 46.7253 74.8891C46.6931 74.8891 46.6684 74.9593 46.6411 74.9977L4.66516 75ZM48.6934 37.5731V5.86125C48.6934 3.69522 47.5868 2.69256 45.2053 2.69256C32.2861 2.69256 19.3652 2.69256 6.44263 2.69256C4.02151 2.69256 2.93473 3.6907 2.93473 5.91557C2.93473 26.9784 2.93473 48.0427 2.93473 69.1085C2.93473 71.322 4.02646 72.3157 6.45996 72.3157H45.1434C47.619 72.3157 48.6934 71.3288 48.6934 69.0542V37.5731Z" fill="#D2D2D2"/>
<path d="M25.8137 42.2045H10.6755C9.20504 42.2045 8.69507 41.7518 8.69507 40.4165C8.69507 38.0973 8.69507 35.7781 8.69507 33.4589C8.69507 32.196 9.24712 31.689 10.6384 31.689C20.7586 31.689 30.8779 31.689 40.9965 31.689C42.3877 31.689 42.9373 32.1937 42.9398 33.4589C42.9398 35.8007 42.9398 38.1441 42.9398 40.4889C42.9398 41.7224 42.4001 42.2023 41.0361 42.2045H25.8137ZM24.264 39.5315C27.007 39.5315 29.641 39.5315 32.2775 39.5315C32.4063 39.547 32.5367 39.5156 32.6404 39.4441C32.7442 39.3725 32.813 39.2665 32.832 39.149C33.2578 37.7201 33.6886 36.2919 34.1243 34.8645C34.2233 34.5453 34.196 34.3846 33.748 34.3869C31.2451 34.405 28.7399 34.3869 26.2346 34.3869C26.0167 34.3869 25.7989 34.3756 25.7246 34.6132C25.232 36.2519 24.7591 37.8634 24.264 39.5315ZM16.7655 34.405C15.1415 34.405 13.6017 34.4163 12.0619 34.405C11.6633 34.405 11.6534 34.5883 11.6559 34.8577C11.6559 36.2677 11.6559 37.6778 11.6559 39.0879C11.6559 39.4364 11.7673 39.5564 12.151 39.5405C13.0273 39.5157 13.9062 39.5157 14.7825 39.5405C14.8468 39.5529 14.9133 39.5529 14.9776 39.5406C15.0419 39.5283 15.1027 39.504 15.1562 39.4691C15.2098 39.4342 15.2548 39.3896 15.2884 39.338C15.3221 39.2864 15.3437 39.229 15.3519 39.1694C15.8 37.6257 16.2654 36.0844 16.7655 34.405ZM35.7606 39.5315C37.0454 39.5315 38.2362 39.5156 39.4443 39.5315C39.8874 39.5315 39.979 39.3866 39.9741 39.0222C39.9567 37.6325 39.9741 36.2406 39.9617 34.8509C39.9617 34.6947 40.0508 34.4276 39.8107 34.4186C39.0135 34.3891 38.2114 34.4027 37.4143 34.4299C37.241 34.4299 37.2286 34.6404 37.1865 34.7807C36.7236 36.3356 36.2582 37.8815 35.7606 39.5315ZM18.2904 39.5315C19.1668 39.5315 19.9664 39.5315 20.766 39.5315C20.8239 39.5413 20.8833 39.5405 20.9409 39.5291C20.9984 39.5178 21.053 39.4961 21.1013 39.4654C21.1496 39.4346 21.1908 39.3955 21.2225 39.3501C21.2542 39.3047 21.2757 39.2541 21.2859 39.201C21.7265 37.7208 22.1688 36.2413 22.6128 34.7626C22.6772 34.5363 22.6747 34.3892 22.343 34.3959C21.6226 34.3959 20.9022 34.3959 20.1793 34.3959C20.1274 34.3889 20.0745 34.3914 20.0236 34.4032C19.9728 34.415 19.925 34.436 19.8831 34.4648C19.8412 34.4937 19.806 34.5299 19.7795 34.5713C19.753 34.6127 19.7357 34.6585 19.7287 34.706C19.2633 36.3039 18.7806 37.8928 18.2904 39.5315Z" fill="#D2D2D2"/>
<path d="M25.7866 5.80473C28.2331 5.79894 30.6266 6.45615 32.6649 7.69333C34.7031 8.93051 36.2946 10.6922 37.2384 12.7558C38.1822 14.8195 38.4359 17.0926 37.9676 19.288C37.4992 21.4834 36.3297 23.5027 34.6069 25.0908C32.884 26.6789 30.685 27.7646 28.2877 28.2108C25.8903 28.657 23.4021 28.4436 21.1373 27.5977C18.8725 26.7517 16.9326 25.3111 15.5628 23.4578C14.193 21.6045 13.4546 19.4216 13.4409 17.1849C13.4317 15.6959 13.7441 14.2199 14.3601 12.8415C14.976 11.4631 15.8834 10.2093 17.0303 9.15212C18.1772 8.09493 19.541 7.25506 21.0436 6.68065C22.5462 6.10623 24.158 5.80857 25.7866 5.80473ZM35.2582 17.0921C35.2508 15.3854 34.6906 13.719 33.6483 12.3032C32.6059 10.8873 31.1281 9.7856 29.4014 9.13703C27.6747 8.48845 25.7766 8.32212 23.9466 8.65902C22.1166 8.99592 20.4368 9.82095 19.1193 11.03C17.8017 12.239 16.9055 13.7778 16.5437 15.4521C16.1819 17.1264 16.3708 18.8612 17.0865 20.4375C17.8022 22.0137 19.0127 23.3608 20.5651 24.3086C22.1174 25.2565 23.9422 25.7625 25.8089 25.763C27.0522 25.7615 28.2831 25.536 29.4311 25.0993C30.579 24.6627 31.6216 24.0234 32.4992 23.2181C33.3768 22.4128 34.0721 21.4573 34.5455 20.4061C35.0189 19.355 35.2611 18.2289 35.2582 17.0921Z" fill="#D2D2D2"/>
<path d="M38.0955 63.7785C35.4045 63.9392 33.0428 61.9203 32.8967 59.3332C32.7631 56.9703 34.9292 54.8178 37.6003 54.6526C40.378 54.4806 42.7322 56.4361 42.9154 59.0662C43.0788 61.4812 40.9077 63.6132 38.0955 63.7785ZM37.9048 61.0941C38.4426 61.0873 38.9565 60.8905 39.3391 60.5449C39.7216 60.1994 39.9431 59.7319 39.9571 59.2404C39.9571 58.7446 39.7417 58.2691 39.3582 57.9185C38.9747 57.5679 38.4546 57.3709 37.9123 57.3709C37.37 57.3709 36.8498 57.5679 36.4664 57.9185C36.0829 58.2691 35.8674 58.7446 35.8674 59.2404C35.8807 59.7298 36.0999 60.1956 36.4795 60.5409C36.859 60.8862 37.3695 61.0844 37.9048 61.0941Z" fill="#D2D2D2"/>
<path d="M14.226 52.738C14.2195 53.0942 14.0601 53.4339 13.7823 53.6837C13.5044 53.9335 13.1303 54.0734 12.7406 54.0734C12.3559 54.0755 11.986 53.9378 11.7123 53.6905C11.4386 53.4433 11.2836 53.1068 11.2813 52.755C11.279 52.4032 11.4296 52.065 11.7 51.8148C11.9705 51.5646 12.3386 51.4228 12.7233 51.4207C12.9166 51.4168 13.1089 51.4478 13.2891 51.512C13.4693 51.5761 13.6339 51.6721 13.7735 51.7944C13.9131 51.9168 14.0249 52.0631 14.1025 52.225C14.1802 52.3869 14.2221 52.5613 14.226 52.738Z" fill="#D2D2D2"/>
<path d="M14.2259 47.9072C14.208 48.2626 14.0402 48.5979 13.7577 48.8427C13.4752 49.0875 13.1 49.2227 12.7108 49.2199C12.5181 49.2144 12.3286 49.174 12.1531 49.1009C11.9776 49.0278 11.8198 48.9236 11.6887 48.7943C11.5577 48.6651 11.456 48.5133 11.3897 48.3478C11.3233 48.1822 11.2936 48.0063 11.3022 47.8302C11.3133 47.4862 11.4728 47.1602 11.7461 46.9235C12.0194 46.6869 12.3841 46.5588 12.7604 46.5673C12.9533 46.5658 13.1446 46.5994 13.3231 46.6662C13.5017 46.733 13.6639 46.8317 13.8003 46.9564C13.9367 47.0811 14.0446 47.2294 14.1177 47.3927C14.1908 47.5559 14.2276 47.7308 14.2259 47.9072Z" fill="#D2D2D2"/>
<path d="M12.7578 61.1123C12.9487 61.1151 13.137 61.1523 13.3122 61.2217C13.4873 61.291 13.6457 61.3913 13.7785 61.5166C13.9113 61.642 14.0157 61.7901 14.0859 61.9523C14.1561 62.1146 14.1906 62.2879 14.1875 62.4624C14.1844 62.6369 14.1438 62.8091 14.0679 62.9692C13.992 63.1293 13.8824 63.2742 13.7452 63.3956C13.6081 63.5169 13.4462 63.6124 13.2687 63.6766C13.0912 63.7407 12.9016 63.7723 12.7108 63.7695C12.3374 63.7587 11.9825 63.6185 11.7181 63.3772C11.4538 63.1359 11.2997 62.8117 11.2874 62.4703C11.2873 62.1125 11.4418 61.7691 11.7171 61.5148C11.9925 61.2605 12.3665 61.1159 12.7578 61.1123Z" fill="#D2D2D2"/>
<path d="M12.748 58.9214C12.3626 58.9238 11.9919 58.7861 11.7176 58.5386C11.4432 58.2912 11.2876 57.9542 11.2849 57.6018C11.2823 57.2495 11.4329 56.9106 11.7036 56.6597C11.9742 56.4089 12.3428 56.2666 12.7282 56.2642C13.1136 56.2618 13.4843 56.3995 13.7587 56.6469C14.033 56.8944 14.1887 57.2314 14.1913 57.5837C14.1939 57.9361 14.0433 58.275 13.7727 58.5258C13.502 58.7767 13.1334 58.919 12.748 58.9214Z" fill="#D2D2D2"/>
<path d="M26.3018 57.5771C26.3018 57.9288 26.1489 58.2662 25.8769 58.5149C25.6048 58.7637 25.2358 58.9034 24.8511 58.9034C24.4663 58.9034 24.0973 58.7637 23.8253 58.5149C23.5532 58.2662 23.4004 57.9288 23.4004 57.5771C23.4099 57.2347 23.5606 56.9082 23.8223 56.6631C24.084 56.4179 24.4373 56.2723 24.8115 56.2553C25.0047 56.251 25.1969 56.2821 25.3769 56.3465C25.5569 56.4109 25.721 56.5075 25.8597 56.6305C25.9984 56.7536 26.109 56.9006 26.1849 57.0631C26.2608 57.2257 26.3005 57.4004 26.3018 57.5771Z" fill="#D2D2D2"/>
<path d="M24.8512 61.1117C25.0442 61.1135 25.2349 61.15 25.4124 61.2192C25.5899 61.2885 25.7508 61.389 25.8858 61.5152C26.0207 61.6413 26.1272 61.7905 26.199 61.9543C26.2708 62.1181 26.3066 62.2932 26.3043 62.4697C26.3038 62.8136 26.1561 63.1437 25.8929 63.3894C25.6297 63.6352 25.2718 63.777 24.8957 63.7847C24.6992 63.7943 24.5025 63.7676 24.3175 63.7061C24.1325 63.6446 23.963 63.5496 23.8192 63.4268C23.6753 63.3039 23.56 63.1559 23.4802 62.9913C23.4003 62.8268 23.3577 62.6493 23.3547 62.4694C23.3517 62.2894 23.3884 62.1108 23.4627 61.9441C23.537 61.7775 23.6473 61.6262 23.787 61.4995C23.9267 61.3727 24.093 61.273 24.2759 61.2064C24.4587 61.1398 24.6544 61.1075 24.8512 61.1117Z" fill="#D2D2D2"/>
<path d="M18.7661 61.1256C19.1428 61.1151 19.509 61.2396 19.7866 61.4726C20.0641 61.7057 20.231 62.0287 20.2515 62.3727C20.2674 62.5479 20.2441 62.7242 20.183 62.8909C20.1219 63.0576 20.0244 63.2111 19.8963 63.3422C19.7682 63.4733 19.6122 63.5792 19.4379 63.6534C19.2636 63.7275 19.0747 63.7685 18.8825 63.7737C18.6906 63.7835 18.4985 63.7584 18.3173 63.6998C18.1361 63.6412 17.9694 63.5503 17.8269 63.4324C17.6844 63.3146 17.5689 63.172 17.487 63.013C17.4052 62.854 17.3586 62.6818 17.3501 62.5063C17.3432 62.1529 17.4873 61.811 17.7517 61.5533C18.0161 61.2955 18.38 61.1421 18.7661 61.1256Z" fill="#D2D2D2"/>
<path d="M20.254 47.8605C20.2599 48.2145 20.1121 48.5562 19.843 48.8108C19.5738 49.0653 19.2053 49.2119 18.8181 49.2185C18.4308 49.209 18.062 49.0653 17.7862 48.8166C17.5104 48.5678 17.3483 48.2325 17.3328 47.8786C17.3403 47.536 17.4924 47.2093 17.7572 46.9668C18.022 46.7243 18.379 46.5847 18.7537 46.5771C18.9457 46.5664 19.1381 46.5915 19.319 46.651C19.5 46.7106 19.6657 46.8032 19.8062 46.9234C19.9466 47.0435 20.0588 47.1886 20.1358 47.3497C20.2127 47.5108 20.253 47.6846 20.254 47.8605Z" fill="#D2D2D2"/>
<path d="M20.249 52.7219C20.2547 52.8965 20.2218 53.0705 20.1523 53.2333C20.0828 53.3961 19.9782 53.5445 19.8447 53.6695C19.7111 53.7946 19.5514 53.8938 19.375 53.9611C19.1987 54.0285 19.0093 54.0628 18.8181 54.0618C18.6251 54.0654 18.4332 54.0338 18.2537 53.969C18.0741 53.9041 17.9104 53.8073 17.7722 53.6841C17.634 53.5609 17.5239 53.4137 17.4485 53.2513C17.373 53.0888 17.3337 52.9142 17.3328 52.7377C17.3455 52.3958 17.499 52.0709 17.7624 51.8279C18.0259 51.5849 18.3799 51.4418 18.7537 51.4272C18.9454 51.4206 19.1366 51.449 19.3161 51.5108C19.4956 51.5726 19.6598 51.6665 19.7991 51.7871C19.9384 51.9077 20.0499 52.0525 20.1272 52.213C20.2044 52.3735 20.2458 52.5465 20.249 52.7219Z" fill="#D2D2D2"/>
<path d="M18.8181 58.9121C18.6259 58.9157 18.4349 58.8845 18.2559 58.8202C18.077 58.7559 17.9138 58.6599 17.7757 58.5376C17.6376 58.4153 17.5274 58.2693 17.4513 58.1079C17.3753 57.9464 17.335 57.7728 17.3328 57.5971C17.3454 57.2427 17.5067 56.9064 17.7833 56.6578C18.0598 56.4092 18.4303 56.2673 18.8181 56.2617C19.1912 56.2751 19.5451 56.4164 19.8093 56.6576C20.0736 56.8988 20.2288 57.2221 20.244 57.5631C20.2525 57.7385 20.2217 57.9136 20.1537 58.0778C20.0856 58.2419 19.9817 58.3917 19.8483 58.5179C19.7149 58.6441 19.5547 58.7442 19.3776 58.812C19.2005 58.8797 19.0101 58.9138 18.8181 58.9121Z" fill="#D2D2D2"/>
<path d="M26.3045 47.8641C26.3061 48.2159 26.1548 48.5539 25.884 48.8037C25.7498 48.9273 25.5904 49.0257 25.4147 49.093C25.239 49.1603 25.0505 49.1954 24.86 49.1961C24.4752 49.1976 24.1056 49.0593 23.8324 48.8117C23.5591 48.564 23.4047 48.2272 23.4031 47.8755C23.4014 47.5237 23.5527 47.1857 23.8236 46.9359C24.0945 46.6861 24.4628 46.545 24.8476 46.5435C25.2323 46.542 25.602 46.6803 25.8752 46.9279C26.1484 47.1756 26.3028 47.5124 26.3045 47.8641Z" fill="#D2D2D2"/>
<path d="M24.8884 54.0643C24.6959 54.0713 24.5038 54.0426 24.3237 53.98C24.1436 53.9174 23.9792 53.8221 23.8404 53.6999C23.7017 53.5777 23.5914 53.431 23.5162 53.2688C23.441 53.1066 23.4025 52.9322 23.403 52.756C23.3983 52.5819 23.4312 52.4085 23.4997 52.246C23.5683 52.0834 23.6712 51.9348 23.8025 51.8086C24.0679 51.5537 24.4331 51.4056 24.8178 51.3969C25.2026 51.3882 25.5753 51.5196 25.8541 51.7622C26.1329 52.0047 26.2949 52.3386 26.3044 52.6904C26.3131 52.8663 26.283 53.0419 26.216 53.207C26.149 53.372 26.0464 53.5231 25.9143 53.6512C25.7823 53.7794 25.6234 53.8819 25.4472 53.9529C25.2709 54.0238 25.0809 54.0617 24.8884 54.0643Z" fill="#D2D2D2"/>
<path d="M25.8338 10.5322C27.2605 10.5358 28.6541 10.926 29.8383 11.6534C31.0226 12.3808 31.9444 13.4129 32.4874 14.6192C33.0303 15.8255 33.17 17.1518 32.8887 18.4306C32.6074 19.7094 31.9178 20.8833 30.9071 21.8039C29.8963 22.7246 28.6098 23.3506 27.21 23.6029C25.8102 23.8553 24.36 23.7226 23.0427 23.2217C21.7254 22.7207 20.6 21.874 19.8089 20.7886C19.0177 19.7031 18.5962 18.4275 18.5977 17.1231C18.6081 15.3737 19.3747 13.6991 20.7303 12.4644C22.0858 11.2297 23.9204 10.5352 25.8338 10.5322ZM25.8338 21.0319C26.6806 21.0297 27.5076 20.7979 28.2102 20.3658C28.9128 19.9337 29.4595 19.3208 29.781 18.6047C30.1026 17.8885 30.1846 17.1012 30.0166 16.3424C29.8486 15.5836 29.4383 14.8874 28.8375 14.3419C28.2366 13.7963 27.4723 13.426 26.6412 13.2777C25.8101 13.1294 24.9496 13.2099 24.1685 13.5088C23.3874 13.8078 22.7209 14.3118 22.2532 14.9572C21.7855 15.6026 21.5377 16.3603 21.5411 17.1344C21.5597 18.1659 22.0175 19.1501 22.8173 19.8779C23.617 20.6057 24.6956 21.0197 25.8239 21.0319H25.8338Z" fill="#D2D2D2"/>
</svg>
