<svg width="76" height="101" viewBox="0 0 76 101" fill="none" xmlns="http://www.w3.org/2000/svg">
<path d="M20.7321 60.71C20.6074 60.518 20.3717 60.5379 20.1816 60.4728C18.3536 59.8499 17.3119 58.653 17.0386 56.8912C17.0058 56.6195 16.9939 56.346 17.0029 56.0728C17.0029 39.1634 17.0029 22.254 17.0029 5.34464C17.0029 3.06499 18.2288 1.46978 20.4311 0.881305C20.9272 0.7583 21.4401 0.700982 21.9541 0.7111C32.4162 0.7111 42.8797 0.7111 53.3445 0.7111C56.3152 0.7111 58.2956 2.52179 58.2956 5.22152C58.2956 22.207 58.3009 39.1942 58.3115 56.1832C58.3115 58.586 56.4617 60.4112 54.3802 60.6212C54.3545 60.6212 54.3347 60.6774 54.3129 60.7082L20.7321 60.71ZM55.9547 30.7685V5.39896C55.9547 3.66614 55.0695 2.86401 53.1642 2.86401C42.8289 2.86401 32.4921 2.86401 22.1541 2.86401C20.2172 2.86401 19.3478 3.66252 19.3478 5.44242C19.3478 22.2927 19.3478 39.1441 19.3478 55.9967C19.3478 57.7676 20.2212 58.5625 22.168 58.5625H53.1147C55.0952 58.5625 55.9547 57.773 55.9547 55.9533V30.7685Z" fill="#D2D2D2"/>
<path d="M37.651 34.4735H25.5404C24.364 34.4735 23.9561 34.1113 23.9561 33.043C23.9561 31.1877 23.9561 29.3323 23.9561 27.477C23.9561 26.4666 24.3977 26.061 25.5107 26.061C33.6069 26.061 41.7024 26.061 49.7972 26.061C50.9102 26.061 51.3499 26.4648 51.3518 27.477C51.3518 29.3504 51.3518 31.2251 51.3518 33.101C51.3518 34.0878 50.9201 34.4717 49.8289 34.4735H37.651ZM36.4112 32.3351C38.6056 32.3351 40.7128 32.3351 42.822 32.3351C42.925 32.3475 43.0293 32.3224 43.1123 32.2651C43.1953 32.2079 43.2504 32.1231 43.2656 32.0291C43.6062 30.8859 43.9508 29.7434 44.2994 28.6014C44.3786 28.3461 44.3568 28.2176 43.9984 28.2194C41.9961 28.2339 39.9919 28.2194 37.9877 28.2194C37.8134 28.2194 37.6391 28.2103 37.5797 28.4004C37.1856 29.7114 36.8073 31.0006 36.4112 32.3351ZM30.4124 28.2339C29.1132 28.2339 27.8813 28.2429 26.6495 28.2339C26.3306 28.2339 26.3227 28.3805 26.3247 28.596C26.3247 29.7241 26.3247 30.8521 26.3247 31.9802C26.3247 32.259 26.4138 32.355 26.7208 32.3423C27.4219 32.3224 28.1249 32.3224 28.826 32.3423C28.8775 32.3522 28.9306 32.3522 28.9821 32.3424C29.0335 32.3325 29.0822 32.3131 29.125 32.2851C29.1678 32.2572 29.2038 32.2215 29.2308 32.1802C29.2577 32.139 29.275 32.093 29.2815 32.0453C29.64 30.8105 30.0123 29.5774 30.4124 28.2339ZM45.6085 32.3351C46.6364 32.3351 47.589 32.3224 48.5554 32.3351C48.9099 32.3351 48.9832 32.2192 48.9792 31.9277C48.9654 30.8159 48.9792 29.7023 48.9693 28.5906C48.9693 28.4656 49.0406 28.252 48.8485 28.2447C48.2108 28.2212 47.5692 28.232 46.9314 28.2538C46.7928 28.2538 46.7829 28.4222 46.7492 28.5344C46.3789 29.7784 46.0066 31.0151 45.6085 32.3351ZM31.6323 32.3351C32.3334 32.3351 32.9731 32.3351 33.6128 32.3351C33.6591 32.3429 33.7067 32.3422 33.7527 32.3332C33.7988 32.3241 33.8424 32.3067 33.881 32.2822C33.9197 32.2576 33.9527 32.2262 33.978 32.1899C34.0034 32.1536 34.0206 32.1131 34.0287 32.0707C34.3812 30.8865 34.7351 29.7029 35.0902 28.5199C35.1417 28.3389 35.1397 28.2212 34.8744 28.2266C34.298 28.2266 33.7217 28.2266 33.1434 28.2266C33.1019 28.221 33.0596 28.223 33.0189 28.2324C32.9782 28.2419 32.94 28.2587 32.9065 28.2817C32.8729 28.3048 32.8448 28.3338 32.8236 28.3669C32.8024 28.4 32.7886 28.4366 32.783 28.4747C32.4107 29.753 32.0245 31.0241 31.6323 32.3351Z" fill="#D2D2D2"/>
<path d="M37.6292 5.35355C39.5864 5.34892 41.5012 5.87468 43.1318 6.86443C44.7624 7.85418 46.0356 9.26351 46.7906 10.9144C47.5457 12.5654 47.7486 14.3838 47.3739 16.1402C46.9992 17.8965 46.0637 19.5119 44.6854 20.7824C43.3071 22.0529 41.5479 22.9215 39.63 23.2784C37.7121 23.6354 35.7216 23.4647 33.9097 22.7879C32.0979 22.1112 30.546 20.9587 29.4501 19.476C28.3543 17.9934 27.7636 16.2471 27.7526 14.4577C27.7453 13.2665 27.9952 12.0857 28.4879 10.9829C28.9807 9.88021 29.7066 8.87722 30.6242 8.03146C31.5417 7.18571 32.6327 6.51381 33.8348 6.05428C35.0368 5.59475 36.3263 5.35662 37.6292 5.35355V5.35355ZM45.2064 14.3834C45.2006 13.0181 44.7524 11.685 43.9185 10.5523C43.0846 9.41964 41.9024 8.53825 40.521 8.01939C39.1397 7.50053 37.6212 7.36746 36.1572 7.63698C34.6932 7.9065 33.3494 8.56653 32.2953 9.53374C31.2413 10.501 30.5243 11.732 30.2349 13.0715C29.9455 14.4109 30.0966 15.7987 30.6691 17.0598C31.2417 18.3208 32.21 19.3984 33.452 20.1567C34.6939 20.9149 36.1536 21.3198 37.647 21.3202C38.6417 21.319 39.6264 21.1386 40.5447 20.7892C41.4631 20.4399 42.2972 19.9285 42.9992 19.2843C43.7013 18.64 44.2576 17.8756 44.6363 17.0347C45.0151 16.1938 45.2088 15.2928 45.2064 14.3834V14.3834Z" fill="#D2D2D2"/>
<path d="M47.4764 51.7329C45.3237 51.8615 43.4343 50.2464 43.3174 48.1767C43.2105 46.2864 44.9434 44.5644 47.0803 44.4323C49.3024 44.2946 51.1858 45.8591 51.3324 47.9631C51.4631 49.8951 49.7262 51.6008 47.4764 51.7329ZM47.3239 49.5855C47.7541 49.58 48.1653 49.4225 48.4713 49.1461C48.7773 48.8697 48.9545 48.4957 48.9657 48.1025C48.9657 47.7058 48.7934 47.3254 48.4866 47.0449C48.1798 46.7645 47.7637 46.6069 47.3299 46.6069C46.896 46.6069 46.4799 46.7645 46.1731 47.0449C45.8664 47.3254 45.694 47.7058 45.694 48.1025C45.7046 48.494 45.88 48.8667 46.1836 49.1429C46.4872 49.4191 46.8957 49.5777 47.3239 49.5855Z" fill="#D2D2D2"/>
<path d="M28.3807 42.9003C28.3755 43.1853 28.248 43.457 28.0257 43.6568C27.8034 43.8566 27.5042 43.9686 27.1924 43.9686C26.8846 43.9703 26.5887 43.8601 26.3697 43.6623C26.1508 43.4645 26.0268 43.1953 26.0249 42.9139C26.0231 42.6324 26.1436 42.3619 26.3599 42.1617C26.5763 41.9615 26.8707 41.8481 27.1785 41.8465C27.3332 41.8433 27.487 41.8681 27.6312 41.9194C27.7753 41.9707 27.907 42.0475 28.0187 42.1454C28.1304 42.2433 28.2198 42.3603 28.2819 42.4899C28.344 42.6194 28.3776 42.7589 28.3807 42.9003V42.9003Z" fill="#D2D2D2"/>
<path d="M28.3806 39.0356C28.3663 39.32 28.232 39.5882 28.0061 39.784C27.7801 39.9798 27.4799 40.088 27.1686 40.0858C27.0144 40.0814 26.8627 40.049 26.7224 39.9906C26.582 39.9321 26.4557 39.8488 26.3509 39.7453C26.2461 39.6419 26.1647 39.5205 26.1117 39.3881C26.0586 39.2557 26.0348 39.1149 26.0417 38.9741C26.0505 38.6989 26.1782 38.4381 26.3968 38.2487C26.6154 38.0594 26.9071 37.9569 27.2082 37.9637C27.3625 37.9625 27.5156 37.9894 27.6584 38.0428C27.8013 38.0963 27.931 38.1752 28.0402 38.275C28.1493 38.3747 28.2356 38.4934 28.2941 38.624C28.3525 38.7546 28.3819 38.8945 28.3806 39.0356V39.0356Z" fill="#D2D2D2"/>
<path d="M27.2062 49.5996C27.3588 49.6019 27.5095 49.6316 27.6496 49.6871C27.7897 49.7426 27.9165 49.8228 28.0227 49.9231C28.1289 50.0234 28.2125 50.1418 28.2686 50.2716C28.3247 50.4014 28.3524 50.5401 28.3499 50.6797C28.3474 50.8193 28.3149 50.957 28.2542 51.0851C28.1935 51.2132 28.1058 51.3291 27.9961 51.4262C27.8864 51.5233 27.7569 51.5997 27.6149 51.651C27.4729 51.7024 27.3212 51.7276 27.1686 51.7254C26.8699 51.7168 26.5859 51.6046 26.3744 51.4115C26.1629 51.2185 26.0397 50.9591 26.0298 50.686C26.0298 50.3998 26.1533 50.1251 26.3736 49.9216C26.5939 49.7182 26.8931 49.6025 27.2062 49.5996V49.5996Z" fill="#D2D2D2"/>
<path d="M27.1983 47.847C26.89 47.8489 26.5935 47.7387 26.374 47.5408C26.1545 47.3428 26.03 47.0732 26.0279 46.7913C26.0258 46.5094 26.1462 46.2383 26.3628 46.0376C26.5793 45.837 26.8741 45.7231 27.1825 45.7212C27.4908 45.7193 27.7873 45.8294 28.0068 46.0274C28.2263 46.2254 28.3508 46.495 28.3529 46.7768C28.355 47.0587 28.2346 47.3298 28.018 47.5305C27.8015 47.7312 27.5066 47.845 27.1983 47.847Z" fill="#D2D2D2"/>
<path d="M38.0413 46.7716C38.0413 47.053 37.919 47.3229 37.7014 47.5219C37.4838 47.7209 37.1886 47.8327 36.8808 47.8327C36.573 47.8327 36.2778 47.7209 36.0601 47.5219C35.8425 47.3229 35.7202 47.053 35.7202 46.7716C35.7278 46.4977 35.8484 46.2365 36.0577 46.0404C36.2671 45.8443 36.5497 45.7278 36.8491 45.7142C37.0037 45.7108 37.1574 45.7356 37.3014 45.7872C37.4454 45.8387 37.5767 45.9159 37.6877 46.0144C37.7987 46.1128 37.8871 46.2305 37.9478 46.3605C38.0085 46.4905 38.0403 46.6302 38.0413 46.7716V46.7716Z" fill="#D2D2D2"/>
<path d="M36.8809 49.5994C37.0353 49.6008 37.1879 49.6301 37.3299 49.6855C37.472 49.7408 37.6006 49.8213 37.7086 49.9222C37.8166 50.0231 37.9017 50.1425 37.9592 50.2735C38.0167 50.4046 38.0453 50.5447 38.0435 50.6858C38.043 50.961 37.9249 51.225 37.7143 51.4216C37.5038 51.6182 37.2175 51.7317 36.9166 51.7378C36.7593 51.7455 36.602 51.7241 36.454 51.6749C36.306 51.6257 36.1704 51.5497 36.0553 51.4515C35.9402 51.3532 35.848 51.2347 35.7841 51.1031C35.7203 50.9715 35.6861 50.8295 35.6837 50.6855C35.6813 50.5416 35.7107 50.3987 35.7702 50.2653C35.8296 50.132 35.9178 50.011 36.0296 49.9096C36.1414 49.8082 36.2744 49.7285 36.4207 49.6752C36.567 49.6219 36.7235 49.5961 36.8809 49.5994Z" fill="#D2D2D2"/>
<path d="M32.0129 49.6104C32.3142 49.6019 32.6072 49.7016 32.8292 49.888C33.0513 50.0744 33.1848 50.3328 33.2012 50.608C33.2139 50.7482 33.1952 50.8892 33.1464 51.0226C33.0975 51.1559 33.0195 51.2788 32.917 51.3836C32.8146 51.4885 32.6898 51.5732 32.5504 51.6325C32.4109 51.6919 32.2597 51.7247 32.106 51.7289C31.9525 51.7367 31.7988 51.7165 31.6538 51.6697C31.5089 51.6228 31.3755 51.5501 31.2615 51.4558C31.1475 51.3615 31.0551 51.2475 30.9896 51.1203C30.9241 50.9931 30.8869 50.8553 30.8801 50.7149C30.8746 50.4322 30.9898 50.1587 31.2014 49.9525C31.4129 49.7462 31.704 49.6235 32.0129 49.6104Z" fill="#D2D2D2"/>
<path d="M33.2032 38.9983C33.2079 39.2815 33.0897 39.5549 32.8744 39.7586C32.6591 39.9622 32.3642 40.0795 32.0545 40.0847C31.7447 40.0772 31.4496 39.9622 31.2289 39.7632C31.0083 39.5642 30.8787 39.296 30.8662 39.0128C30.8723 38.7387 30.9939 38.4774 31.2058 38.2834C31.4176 38.0894 31.7032 37.9777 32.003 37.9717C32.1566 37.963 32.3104 37.9832 32.4552 38.0308C32.6 38.0784 32.7326 38.1526 32.8449 38.2487C32.9573 38.3448 33.047 38.4608 33.1086 38.5897C33.1702 38.7186 33.2024 38.8577 33.2032 38.9983V38.9983Z" fill="#D2D2D2"/>
<path d="M33.1992 42.8875C33.2037 43.0273 33.1774 43.1664 33.1218 43.2967C33.0663 43.427 32.9826 43.5456 32.8757 43.6457C32.7689 43.7457 32.6411 43.8251 32.5 43.879C32.3589 43.9329 32.2074 43.9603 32.0545 43.9595C31.9001 43.9624 31.7466 43.9371 31.6029 43.8853C31.4593 43.8334 31.3283 43.7559 31.2178 43.6573C31.1072 43.5587 31.0191 43.441 30.9588 43.3111C30.8984 43.1811 30.867 43.0414 30.8662 42.9002C30.8764 42.6267 30.9992 42.3667 31.2099 42.1724C31.4207 41.978 31.7039 41.8635 32.003 41.8518C32.1563 41.8465 32.3093 41.8692 32.4529 41.9187C32.5965 41.9681 32.7279 42.0433 32.8393 42.1397C32.9507 42.2362 33.0399 42.352 33.1017 42.4805C33.1635 42.6089 33.1967 42.7473 33.1992 42.8875V42.8875Z" fill="#D2D2D2"/>
<path d="M32.0545 47.8395C31.9007 47.8424 31.7479 47.8174 31.6047 47.766C31.4616 47.7146 31.331 47.6378 31.2206 47.5399C31.1101 47.4421 31.0219 47.3253 30.9611 47.1962C30.9002 47.067 30.868 46.9281 30.8662 46.7875C30.8763 46.504 31.0054 46.235 31.2266 46.0361C31.4478 45.8372 31.7443 45.7237 32.0545 45.7192C32.353 45.7299 32.6361 45.843 32.8475 46.0359C33.0589 46.2289 33.183 46.4875 33.1952 46.7604C33.202 46.9007 33.1774 47.0408 33.1229 47.1721C33.0685 47.3034 32.9854 47.4232 32.8786 47.5242C32.7719 47.6252 32.6438 47.7052 32.5021 47.7594C32.3604 47.8137 32.2081 47.8409 32.0545 47.8395V47.8395Z" fill="#D2D2D2"/>
<path d="M38.0435 39.0014C38.0448 39.2828 37.9238 39.5531 37.7071 39.753C37.5998 39.8519 37.4722 39.9306 37.3317 39.9845C37.1911 40.0383 37.0403 40.0664 36.8879 40.067C36.5801 40.0682 36.2844 39.9575 36.0658 39.7594C35.8473 39.5612 35.7237 39.2918 35.7224 39.0104C35.7211 38.729 35.8421 38.4587 36.0588 38.2588C36.2756 38.059 36.5702 37.946 36.878 37.9448C37.1858 37.9436 37.4815 38.0543 37.7001 38.2524C37.9187 38.4506 38.0422 38.72 38.0435 39.0014V39.0014Z" fill="#D2D2D2"/>
<path d="M36.9108 43.9614C36.7568 43.967 36.6031 43.9441 36.459 43.894C36.315 43.8439 36.1835 43.7676 36.0724 43.6699C35.9614 43.5721 35.8732 43.4548 35.8131 43.325C35.7529 43.1953 35.7221 43.0557 35.7225 42.9148C35.7188 42.7755 35.745 42.6368 35.7999 42.5067C35.8547 42.3767 35.937 42.2578 36.0421 42.1568C36.2544 41.9529 36.5466 41.8344 36.8544 41.8275C37.1622 41.8205 37.4604 41.9256 37.6834 42.1197C37.9064 42.3138 38.036 42.5809 38.0436 42.8623C38.0505 43.003 38.0265 43.1435 37.9729 43.2756C37.9193 43.4076 37.8372 43.5284 37.7316 43.631C37.6259 43.7335 37.4988 43.8155 37.3578 43.8723C37.2169 43.929 37.0648 43.9593 36.9108 43.9614V43.9614Z" fill="#D2D2D2"/>
<path d="M37.6671 9.13574C38.8085 9.13861 39.9233 9.45073 40.8707 10.0327C41.8181 10.6146 42.5556 11.4403 42.9899 12.4053C43.4243 13.3703 43.536 14.4314 43.311 15.4545C43.086 16.4775 42.5343 17.4166 41.7257 18.1531C40.9171 18.8896 39.8879 19.3904 38.768 19.5923C37.6482 19.7942 36.4881 19.688 35.4342 19.2873C34.3804 18.8866 33.4801 18.2092 32.8471 17.3408C32.2142 16.4724 31.877 15.452 31.8782 14.4085C31.8865 13.009 32.4998 11.6692 33.5843 10.6815C34.6687 9.69376 36.1363 9.13811 37.6671 9.13574V9.13574ZM37.6671 17.5355C38.3445 17.5337 39.0061 17.3483 39.5682 17.0026C40.1303 16.657 40.5676 16.1666 40.8249 15.5937C41.0821 15.0207 41.1477 14.3909 41.0133 13.7839C40.879 13.1768 40.5507 12.6199 40.07 12.1835C39.5894 11.747 38.9779 11.4508 38.313 11.3321C37.6482 11.2135 36.9597 11.2778 36.3349 11.517C35.71 11.7562 35.1768 12.1594 34.8026 12.6757C34.4285 13.192 34.2302 13.7982 34.233 14.4175C34.2478 15.2427 34.6141 16.0301 35.2539 16.6123C35.8936 17.1945 36.7565 17.5257 37.6592 17.5355H37.6671Z" fill="#D2D2D2"/>
<path d="M27.9068 86.335V96.235H29.1668V86.335H27.9068ZM20.4518 98.56V99.58H29.5718V98.56H20.4518ZM20.4518 95.215V98.905H21.6818V95.215H20.4518ZM21.8918 87.265C19.8668 87.265 18.3518 88.645 18.3518 90.61C18.3518 92.56 19.8668 93.955 21.8918 93.955C23.9168 93.955 25.4168 92.56 25.4168 90.61C25.4168 88.645 23.9168 87.265 21.8918 87.265ZM21.8918 88.345C23.2118 88.345 24.2168 89.275 24.2168 90.61C24.2168 91.93 23.2118 92.86 21.8918 92.86C20.5718 92.86 19.5668 91.93 19.5668 90.61C19.5668 89.275 20.5718 88.345 21.8918 88.345ZM41.7806 86.305V99.895H43.0106V86.305H41.7806ZM38.9606 91.42V92.455H41.9606V91.42H38.9606ZM32.4656 95.605V96.64H33.5006C36.0806 96.64 37.7306 96.565 39.6806 96.22L39.5606 95.2C37.6556 95.56 36.0506 95.605 33.5006 95.605H32.4656ZM32.4656 87.55V95.965H33.6956V88.585H38.7356V87.55H32.4656ZM33.3806 91.36V92.365H38.1506V91.36H33.3806ZM46.7744 86.935V87.94H56.7344V86.935H46.7744ZM46.8344 91.015V92.02H56.6744V91.015H46.8344ZM48.8294 87.4V91.465H50.0744V87.4H48.8294ZM53.4494 87.4V91.465H54.6794V87.4H53.4494ZM45.6344 93.655V94.675H57.8894V93.655H45.6344ZM51.1544 91.69V94.285H52.3844V91.69H51.1544ZM47.2244 98.56V99.58H56.5394V98.56H47.2244ZM47.2244 95.845V98.89H48.4694V95.845H47.2244Z" fill="#7D7D7D"/>
</svg>
