<svg width="76" height="82" viewBox="0 0 76 82" fill="none" xmlns="http://www.w3.org/2000/svg">
<g clip-path="url(#clip0_1205_108)">
<path d="M68 34.1846C67.6418 34.8392 67.517 35.6016 67.062 36.2212C66.3529 37.1825 65.4898 37.8918 64.358 38.2198C64.0189 38.317 63.8545 38.4643 63.8075 38.8531C63.6049 40.5237 62.3748 41.6795 60.8349 41.6947C59.295 41.7098 58.0325 40.5495 57.8035 38.8486C57.7668 38.5752 57.6861 38.44 57.4101 38.4689C57.2932 38.475 57.1762 38.475 57.0593 38.4689C44.3497 38.4689 31.6401 38.4664 18.9304 38.4613C18.4666 38.4613 18.2317 38.4977 18.1671 39.1052C18.01 40.5723 16.6052 41.7174 15.1548 41.6871C14.437 41.6727 13.7473 41.396 13.2078 40.9059C12.6683 40.4159 12.3138 39.7441 12.2072 39.0096C12.1617 38.6527 12.1514 38.358 11.689 38.2183C9.45622 37.5546 8.05138 35.5848 8.00881 33.1352C7.99119 32.1875 8.00881 31.2368 8.00881 30.2876C8.00881 22.049 8.00881 13.8089 8.00881 5.56737C8.00881 3.31814 8.93656 1.6187 10.8919 0.555592C11.6454 0.168643 12.4789 -0.0221624 13.3199 -0.000259306C29.7787 -0.000259306 46.2365 -0.000259306 62.6933 -0.000259306C65.227 -0.000259306 67.0473 1.43949 67.8194 3.94841C67.862 4.08206 67.8018 4.2886 68 4.35543V34.1846ZM32.0349 2.02723C25.8695 2.02723 19.6952 2.06368 13.5269 2.00597C11.3763 1.98623 9.93037 3.51406 9.94064 5.67823C9.98468 14.7268 9.98468 23.7748 9.94064 32.8223C9.93037 35.111 11.4879 36.4915 13.4755 36.487C25.9698 36.4637 38.4646 36.4637 50.9599 36.487C51.4605 36.487 51.5574 36.3351 51.5559 35.8461C51.5422 24.7776 51.5422 13.7097 51.5559 2.64231C51.5559 2.13354 51.4179 2.01356 50.9408 2.01508C44.6374 2.03229 38.333 2.03634 32.0276 2.02723H32.0349ZM53.4892 19.2495C53.4892 24.803 53.4858 30.3579 53.4789 35.9144C53.4789 36.3533 53.5626 36.4915 54.0162 36.487C56.867 36.4642 59.7178 36.4475 62.5685 36.487C64.54 36.5128 66.077 35.0973 66.0682 32.842C66.0329 23.7723 66.0549 14.7025 66.0491 5.63267C66.0612 5.25011 66.0272 4.86747 65.9478 4.49363C65.5514 2.93846 64.3697 2.03786 62.683 2.03027C59.8132 2.0166 56.9418 2.03938 54.072 2.01356C53.5787 2.01356 53.4686 2.14417 53.4701 2.64535C53.4877 8.17956 53.4819 13.7138 53.4819 19.2495H53.4892ZM15.2136 38.4689C14.9803 38.4826 14.7466 38.4826 14.5133 38.4689C14.092 38.4188 14.0539 38.6056 14.186 38.9519C14.2545 39.1297 14.3655 39.2867 14.5086 39.4081C14.6518 39.5295 14.8223 39.6113 15.0043 39.6459C15.1864 39.6805 15.3739 39.6668 15.5494 39.6059C15.7249 39.5451 15.8826 39.4392 16.0077 39.2981C16.1824 39.0946 16.3321 38.8273 16.2587 38.5919C16.1854 38.3565 15.88 38.5069 15.6804 38.478C15.5251 38.4643 15.3692 38.4613 15.2136 38.4689V38.4689ZM60.8995 38.4689C60.6264 38.4689 60.3519 38.4886 60.0818 38.4689C59.7383 38.44 59.6737 38.5722 59.7794 38.8881C59.8299 39.0728 59.9283 39.2398 60.0639 39.371C60.1994 39.5021 60.367 39.5925 60.5486 39.6322C60.7473 39.6894 60.958 39.6841 61.1538 39.6171C61.3496 39.55 61.5217 39.4242 61.6481 39.2556C61.7949 39.0627 61.9491 38.8182 61.8757 38.595C61.7876 38.3322 61.5013 38.5175 61.3076 38.4795C61.1722 38.4623 61.0355 38.4587 60.8995 38.4689Z" fill="#D2D2D2"/>
<path d="M30.7049 33.108C26.0177 33.108 21.3305 33.0624 16.6448 33.1293C14.5999 33.1581 13.1496 31.7487 13.1628 29.5162C13.2024 22.6683 13.176 15.8189 13.1775 8.971C13.1775 6.62002 14.4076 5.35796 16.7006 5.35645H44.8179C47.0757 5.35645 48.3087 6.62002 48.3087 8.93455C48.3087 15.8427 48.3087 22.7513 48.3087 29.6605C48.3087 31.4161 47.4397 32.6524 45.9277 33.0214C45.5639 33.0915 45.1936 33.119 44.8238 33.1034C40.1175 33.1065 35.4112 33.108 30.7049 33.108ZM30.7534 7.38849H16.5861C15.5027 7.38849 15.1431 7.75754 15.1431 8.87228C15.1431 15.7794 15.1431 22.6855 15.1431 29.5906C15.1431 30.716 15.5233 31.1094 16.6228 31.1094H44.8458C45.9791 31.1094 46.3431 30.7282 46.3431 29.5542C46.3431 22.6693 46.3431 15.7845 46.3431 8.89962C46.3431 7.74691 45.9938 7.39305 44.8678 7.39305L30.7534 7.38849Z" fill="#D2D2D2"/>
<path d="M59.7604 13.9478C61.9843 13.9372 63.8707 15.8933 63.8545 18.185C63.8368 19.2955 63.4028 20.3553 62.6442 21.1411C61.8856 21.9268 60.8616 22.3769 59.7883 22.3964C57.5761 22.4223 55.6868 20.4616 55.6971 18.1547C55.7085 17.0431 56.1402 15.9804 56.8997 15.1941C57.6591 14.4078 58.686 13.9604 59.7604 13.9478V13.9478ZM57.7317 17.617C57.4381 19.4395 58.7886 20.8063 60.2742 20.2505L57.7317 17.617ZM61.8155 18.6953C62.046 17.9451 61.8434 17.2434 61.2944 16.6481C61.0443 16.3616 60.7208 16.1545 60.3614 16.0507C60.002 15.9469 59.6215 15.9508 59.2642 16.0619L61.8155 18.6953Z" fill="#D2D2D2"/>
<path d="M59.7515 24.6851C60.5548 24.6824 61.3408 24.9259 62.0105 25.3847C62.6802 25.8436 63.2037 26.4973 63.5148 27.2635C63.8259 28.0297 63.9108 28.874 63.7587 29.69C63.6067 30.506 63.2245 31.2572 62.6604 31.8488C62.0963 32.4404 61.3755 32.846 60.589 33.0145C59.8024 33.1829 58.9852 33.1066 58.2404 32.7952C57.4957 32.4839 56.8567 31.9514 56.4041 31.2648C55.9515 30.5783 55.7054 29.7685 55.697 28.9375C55.6946 27.8189 56.1193 26.7446 56.8786 25.9482C57.6379 25.1518 58.6704 24.6979 59.7515 24.6851ZM59.2921 31.0151C60.12 31.2277 60.8657 30.9847 61.4456 30.2421C61.9315 29.6224 62.021 28.9527 61.7803 28.4439L59.2921 31.0151ZM57.736 29.4265L60.28 26.8234C58.7915 26.2737 57.4307 27.6405 57.736 29.4265Z" fill="#D2D2D2"/>
<path d="M62.3557 7.37663C61.359 7.38726 60.8555 7.03491 60.8745 6.34997C60.8936 5.66503 61.3737 5.35521 62.3425 5.35825C62.5559 5.35415 62.7692 5.36531 62.9811 5.39166C63.5183 5.47367 63.8075 5.82601 63.8428 6.3682C63.8751 6.87089 63.4772 7.29613 62.937 7.37207C62.7436 7.38644 62.5494 7.38796 62.3557 7.37663V7.37663Z" fill="#D2D2D2"/>
<path d="M57.1503 7.38402C56.1844 7.38402 55.7088 7.06053 55.6985 6.38926C55.6882 5.71798 56.1771 5.35653 57.1797 5.35805C57.3545 5.35069 57.5295 5.35475 57.7038 5.3702C58.2909 5.44917 58.6565 5.84252 58.6491 6.38774C58.6418 6.93296 58.2675 7.32327 57.6759 7.38098C57.5026 7.39769 57.3236 7.38402 57.1503 7.38402Z" fill="#D2D2D2"/>
<path d="M57.1268 11.6515C56.152 11.6515 55.6926 11.3341 55.6999 10.6537C55.7073 9.97329 56.1594 9.6665 57.1429 9.6665C57.3367 9.6665 57.5319 9.6665 57.7301 9.67865C58.3173 9.73333 58.6681 10.1343 58.652 10.7008C58.6344 11.2338 58.2733 11.612 57.714 11.65C57.5158 11.6651 57.3235 11.6515 57.1268 11.6515Z" fill="#D2D2D2"/>
<path d="M62.3292 11.6499C61.3472 11.6575 60.8847 11.3461 60.8774 10.6733C60.8701 10.0005 61.3398 9.66642 62.3087 9.66642C62.5227 9.66109 62.7368 9.66717 62.9502 9.68464C63.195 9.69801 63.4251 9.80952 63.5917 9.99552C63.7583 10.1815 63.8484 10.4274 63.8427 10.6809C63.8339 11.2049 63.4581 11.5922 62.912 11.6468C62.7197 11.6635 62.5245 11.6499 62.3292 11.6499Z" fill="#D2D2D2"/>
</g>
<path d="M11.4379 71.0349V72.0549H14.8579V71.0349H11.4379ZM14.1529 67.3149V77.2449H15.3979V67.3149H14.1529ZM6.74293 79.5399V80.5599H15.7729V79.5399H6.74293ZM6.74293 76.3749V80.0649H7.98793V76.3749H6.74293ZM7.70293 68.9949V70.0899C7.70293 72.0099 6.30793 73.8099 4.28293 74.5299L4.92793 75.5199C7.19293 74.6799 8.72293 72.5499 8.72293 70.0899V68.9949H7.70293ZM7.94293 68.9949V70.0749C7.94293 72.3699 9.39793 74.4099 11.6029 75.2049L12.2329 74.2299C10.2679 73.5399 8.94793 71.8299 8.94793 70.0749V68.9949H7.94293ZM4.67293 68.4099V69.4149H11.9179V68.4099H4.67293ZM21.3968 69.2349V71.4399C21.3968 73.7349 19.7618 76.3149 17.8268 77.2599L18.5468 78.2499C20.6618 77.1699 22.3868 74.2599 22.3868 71.4399V69.2349H21.3968ZM21.6218 69.2349V71.4399C21.6218 74.1249 23.2568 76.8549 25.4018 77.9199L26.1068 76.9299C24.1418 75.9999 22.6118 73.5849 22.6118 71.4399V69.2349H21.6218ZM18.3068 68.6799V69.7299H25.6118V68.6799H18.3068ZM27.2168 67.2999V80.8599H28.4768V67.2999H27.2168ZM28.1768 72.7749V73.8249H30.6968V72.7749H28.1768ZM32.2856 76.4949V77.5299H33.1856C34.8956 77.5299 36.4256 77.4699 38.3306 77.1399L38.2256 76.1199C36.3656 76.4349 34.8356 76.4949 33.1856 76.4949H32.2856ZM32.2556 68.7849V69.8049H35.9006V72.5049H32.2856V76.9149H33.5006V73.5099H37.1006V68.7849H32.2556ZM42.1556 67.2999V80.8599H43.3556V67.2999H42.1556ZM37.7456 72.1599V73.1949H39.9356V72.1599H37.7456ZM39.4256 67.6299V80.1549H40.5806V67.6299H39.4256ZM55.5044 67.3149V77.2149H56.7644V67.3149H55.5044ZM48.0494 79.5399V80.5599H57.1694V79.5399H48.0494ZM48.0494 76.1949V79.8849H49.2794V76.1949H48.0494ZM49.4894 68.2449C47.4644 68.2449 45.9494 69.6249 45.9494 71.5899C45.9494 73.5399 47.4644 74.9349 49.4894 74.9349C51.5144 74.9349 53.0144 73.5399 53.0144 71.5899C53.0144 69.6249 51.5144 68.2449 49.4894 68.2449ZM49.4894 69.3249C50.8094 69.3249 51.8144 70.2549 51.8144 71.5899C51.8144 72.9099 50.8094 73.8399 49.4894 73.8399C48.1694 73.8399 47.1644 72.9099 47.1644 71.5899C47.1644 70.2549 48.1694 69.3249 49.4894 69.3249ZM63.0332 69.2349V71.4399C63.0332 73.7799 61.3982 76.3299 59.4332 77.2599L60.1532 78.2499C62.3132 77.1849 64.0382 74.3049 64.0382 71.4399V69.2349H63.0332ZM63.2732 69.2349V71.4399C63.2732 74.2599 65.0132 76.8999 67.2032 77.9199L67.9082 76.9299C65.9132 76.0749 64.2782 73.7349 64.2782 71.4399V69.2349H63.2732ZM59.8832 68.6799V69.7299H67.4582V68.6799H59.8832ZM69.2882 67.2999V80.8599H70.5332V67.2999H69.2882Z" fill="#7D7D7D"/>
<defs>
<clipPath id="clip0_1205_108">
<rect width="60" height="41.6949" fill="white" transform="translate(8)"/>
</clipPath>
</defs>
</svg>
