<svg width="59" height="41" viewBox="0 0 59 41" fill="none" xmlns="http://www.w3.org/2000/svg">
<g clip-path="url(#clip0_524_50)">
<path d="M59 33.6148C58.6478 34.2585 58.5251 35.0082 58.0776 35.6175C57.3804 36.5628 56.5316 37.2602 55.4187 37.5828C55.0853 37.6784 54.9236 37.8232 54.8774 38.2055C54.6782 39.8483 53.4685 40.9848 51.9543 40.9997C50.4401 41.0146 49.1987 39.8737 48.9735 38.2011C48.9374 37.9323 48.858 37.7993 48.5866 37.8277C48.4717 37.8337 48.3566 37.8337 48.2416 37.8277C35.7439 37.8277 23.2461 37.8252 10.7483 37.8203C10.2921 37.8203 10.0612 37.8561 9.99766 38.4534C9.84321 39.8961 8.46179 41.0221 7.03561 40.9922C6.32977 40.9781 5.65152 40.706 5.12101 40.2241C4.59049 39.7422 4.24193 39.0817 4.13707 38.3594C4.09232 38.0084 4.08222 37.7187 3.62752 37.5813C1.43196 36.9287 0.0505366 34.9917 0.00867521 32.5829C-0.00864674 31.651 0.00867521 30.7161 0.00867521 29.7827C0.00867521 21.6815 0.00867521 13.5788 0.00867521 5.47454C0.00867521 3.26281 0.920965 1.59168 2.8437 0.5463C3.58469 0.1658 4.40426 -0.0218255 5.23124 -0.000287537C21.4157 -0.000287537 37.5992 -0.000287537 53.7818 -0.000287537C56.2732 -0.000287537 58.0632 1.41546 58.8225 3.88257C58.8643 4.01399 58.8051 4.21709 59 4.2828V33.6148ZM23.6344 1.99341C17.5717 1.99341 11.5003 2.02925 5.43478 1.9725C3.32005 1.95309 1.89821 3.45546 1.90832 5.58356C1.95162 14.4813 1.95162 23.3785 1.90832 32.2752C1.89821 34.5258 3.42976 35.8833 5.38425 35.8788C17.6703 35.8559 29.9569 35.8559 42.2439 35.8788C42.7361 35.8788 42.8314 35.7295 42.83 35.2486C42.8165 24.3647 42.8165 13.4812 42.83 2.59824C42.83 2.09795 42.6943 1.97997 42.2251 1.98146C36.0268 1.99839 29.8274 2.00237 23.6271 1.99341H23.6344ZM44.7311 18.9286C44.7311 24.3895 44.7277 29.8519 44.721 35.3158C44.721 35.7474 44.8032 35.8833 45.2493 35.8788C48.0525 35.8564 50.8558 35.84 53.6591 35.8788C55.5977 35.9042 57.109 34.5124 57.1004 32.2946C57.0657 23.376 57.0874 14.4574 57.0816 5.53876C57.0936 5.16258 57.0601 4.78632 56.982 4.4187C56.5923 2.88946 55.4302 2.00387 53.7717 1.9964C50.9496 1.98296 48.1262 2.00536 45.3041 1.97997C44.8191 1.97997 44.7108 2.1084 44.7123 2.60123C44.7296 8.0432 44.7238 13.4852 44.7238 18.9286H44.7311ZM7.09335 37.8277C6.86402 37.8412 6.63414 37.8412 6.4048 37.8277C5.99052 37.7784 5.95299 37.9621 6.0829 38.3026C6.15026 38.4775 6.25942 38.6319 6.40016 38.7513C6.54091 38.8706 6.70863 38.9511 6.88762 38.9851C7.06662 39.0192 7.25104 39.0056 7.4236 38.9458C7.59616 38.886 7.75123 38.7818 7.87428 38.6431C8.04606 38.443 8.19329 38.1802 8.12112 37.9487C8.04895 37.7172 7.7487 37.8651 7.55238 37.8367C7.39973 37.8232 7.24639 37.8202 7.09335 37.8277ZM52.0178 37.8277C51.7493 37.8277 51.4794 37.8471 51.2138 37.8277C50.876 37.7993 50.8125 37.9293 50.9164 38.2399C50.9661 38.4216 51.0628 38.5858 51.1961 38.7147C51.3295 38.8437 51.4943 38.9325 51.6728 38.9717C51.8682 39.0279 52.0754 39.0227 52.2679 38.9567C52.4604 38.8908 52.6297 38.7671 52.754 38.6013C52.8984 38.4116 53.0499 38.1712 52.9777 37.9517C52.8911 37.6933 52.6097 37.8755 52.4191 37.8382C52.286 37.8212 52.1516 37.8177 52.0178 37.8277Z" fill="#D2D2D2"/>
<path d="M22.3265 32.5561C17.7174 32.5561 13.1084 32.5113 8.50072 32.577C6.48993 32.6054 5.06376 31.2195 5.07675 29.0242C5.11572 22.2904 5.08974 15.5552 5.09118 8.8214C5.09118 6.5096 6.30083 5.26858 8.55557 5.26709H36.2043C38.4244 5.26709 39.6369 6.5096 39.6369 8.78556C39.6369 15.5786 39.6369 22.3721 39.6369 29.1661C39.6369 30.8925 38.7824 32.1081 37.2956 32.471C36.9378 32.5399 36.5737 32.567 36.2101 32.5516C31.5822 32.5546 26.9544 32.5561 22.3265 32.5561ZM22.3742 7.26527H8.44298C7.37768 7.26527 7.02402 7.62817 7.02402 8.72433C7.02402 15.5163 7.02402 22.3074 7.02402 29.0974C7.02402 30.204 7.39789 30.5908 8.47907 30.5908H36.2317C37.3461 30.5908 37.7041 30.216 37.7041 29.0615C37.7041 22.2914 37.7041 15.5213 37.7041 8.75121C37.7041 7.61771 37.3605 7.26975 36.2534 7.26975L22.3742 7.26527Z" fill="#D2D2D2"/>
<path d="M50.8976 13.7154C53.0845 13.7049 54.9394 15.6284 54.9235 17.882C54.9061 18.9739 54.4794 20.0161 53.7334 20.7887C52.9874 21.5614 51.9804 22.004 50.925 22.0232C48.7497 22.0486 46.8919 20.1206 46.902 17.8521C46.9133 16.7591 47.3378 15.7141 48.0846 14.9409C48.8314 14.1677 49.8411 13.7278 50.8976 13.7154ZM48.9027 17.3234C48.614 19.1155 49.942 20.4596 51.4028 19.913L48.9027 17.3234ZM52.9185 18.3838C53.1451 17.646 52.9459 16.9561 52.4061 16.3707C52.1601 16.089 51.842 15.8853 51.4886 15.7832C51.1352 15.6812 50.7611 15.685 50.4097 15.7942L52.9185 18.3838Z" fill="#D2D2D2"/>
<path d="M50.889 24.2739C51.6789 24.2713 52.4518 24.5107 53.1104 24.9619C53.7689 25.4132 54.2836 26.056 54.5895 26.8094C54.8955 27.5628 54.9789 28.393 54.8294 29.1954C54.6799 29.9978 54.3041 30.7365 53.7494 31.3183C53.1948 31.9 52.486 32.2989 51.7125 32.4645C50.939 32.6301 50.1355 32.5551 49.4031 32.2489C48.6708 31.9428 48.0425 31.4191 47.5974 30.744C47.1523 30.0689 46.9104 29.2726 46.9021 28.4555C46.8998 27.3555 47.3173 26.2991 48.064 25.516C48.8106 24.7329 49.8259 24.2865 50.889 24.2739ZM50.4372 30.4985C51.2514 30.7075 51.9847 30.4686 52.5548 29.7383C53.0326 29.129 53.1207 28.4704 52.884 27.9701L50.4372 30.4985ZM48.9071 28.9364L51.4087 26.3767C49.945 25.8361 48.6069 27.1801 48.9071 28.9364Z" fill="#D2D2D2"/>
<path d="M53.4498 7.25362C52.4697 7.26407 51.9745 6.9176 51.9933 6.24407C52.0121 5.57055 52.4841 5.26589 53.4368 5.26888C53.6466 5.26485 53.8564 5.27583 54.0647 5.30173C54.593 5.38238 54.8774 5.72885 54.9121 6.26199C54.9438 6.75631 54.5526 7.17447 54.0214 7.24914C53.8312 7.26327 53.6402 7.26477 53.4498 7.25362Z" fill="#D2D2D2"/>
<path d="M48.3311 7.26084C47.3813 7.26084 46.9136 6.94274 46.9035 6.28266C46.8934 5.62257 47.3741 5.26714 48.36 5.26863C48.5318 5.2614 48.7039 5.26539 48.8753 5.28058C49.4527 5.35824 49.8121 5.74503 49.8049 6.28116C49.7977 6.8173 49.4296 7.2011 48.8479 7.25785C48.6775 7.27428 48.5014 7.26084 48.3311 7.26084Z" fill="#D2D2D2"/>
<path d="M48.3081 11.4573C47.3496 11.4573 46.8978 11.1451 46.905 10.4761C46.9122 9.80704 47.3568 9.50537 48.3239 9.50537C48.5145 9.50537 48.7065 9.50537 48.9013 9.51732C49.4787 9.57108 49.8237 9.96534 49.8079 10.5224C49.7905 11.0466 49.4354 11.4184 48.8855 11.4558C48.6906 11.4707 48.5015 11.4573 48.3081 11.4573Z" fill="#D2D2D2"/>
<path d="M53.4238 11.4561C52.4581 11.4636 52.0034 11.1575 51.9962 10.4959C51.989 9.83429 52.4509 9.50574 53.4036 9.50574C53.614 9.5005 53.8246 9.50648 54.0344 9.52366C54.2751 9.5368 54.5014 9.64646 54.6653 9.82936C54.8291 10.0123 54.9176 10.254 54.912 10.5033C54.9034 11.0186 54.5338 11.3994 53.9969 11.4531C53.8078 11.4696 53.6158 11.4561 53.4238 11.4561Z" fill="#D2D2D2"/>
</g>
<defs>
<clipPath id="clip0_524_50">
<rect width="59" height="41" fill="white"/>
</clipPath>
</defs>
</svg>
