<svg width="76" height="101" viewBox="0 0 76 101" fill="none" xmlns="http://www.w3.org/2000/svg">
<path d="M20.3173 86.2151V99.7901H21.5773V86.2151H20.3173ZM21.2323 91.7201V92.7551H23.7373V91.7201H21.2323ZM16.8523 87.6851V87.8801C16.8523 91.4651 14.9773 94.3601 11.2273 96.2651L11.9173 97.2251C16.2973 95.0201 18.0673 91.5401 18.0673 87.6851H16.8523ZM11.8573 87.6851V88.7051H17.4973V87.6851H11.8573ZM30.3812 87.1601V88.1951C30.3812 90.5051 27.8312 92.5751 25.4462 93.0251L26.0012 94.0601C28.7162 93.4451 31.4612 91.1501 31.4612 88.1951V87.1601H30.3812ZM30.6062 87.1601V88.1951C30.6062 91.1651 33.3662 93.4451 36.0662 94.0601L36.6212 93.0251C34.2512 92.5751 31.6862 90.5201 31.6862 88.1951V87.1601H30.6062ZM24.9512 96.9401V97.9601H37.2362V96.9401H24.9512ZM44.24 93.8951V97.2701H45.485V93.8951H44.24ZM44.87 87.1151C42.005 87.1151 39.935 88.5101 39.935 90.6701C39.935 92.8301 42.005 94.2251 44.87 94.2251C47.735 94.2251 49.79 92.8301 49.79 90.6701C49.79 88.5101 47.735 87.1151 44.87 87.1151ZM44.87 88.1051C47.015 88.1051 48.59 89.1251 48.59 90.6701C48.59 92.2151 47.015 93.2351 44.87 93.2351C42.71 93.2351 41.135 92.2151 41.135 90.6701C41.135 89.1251 42.71 88.1051 44.87 88.1051ZM38.75 97.0301V98.0651H51.035V97.0301H38.75ZM54.1688 86.8001V92.2151H63.1988V86.8001H61.9538V88.4951H55.3988V86.8001H54.1688ZM55.3988 89.4701H61.9538V91.2101H55.3988V89.4701ZM52.5338 93.5051V94.5251H64.7888V93.5051H52.5338ZM54.1238 98.4701V99.4901H63.4388V98.4701H54.1238ZM54.1238 95.7251V98.8151H55.3688V95.7251H54.1238Z" fill="#7D7D7D"/>
<path d="M12.8432 0.620117H62.2981C63.1414 0.939304 63.3772 1.57291 63.3772 2.4352C63.3629 21.2021 63.3589 39.969 63.3653 58.736C63.3653 60.2104 62.9603 60.6201 61.4954 60.6201H13.9175C12.4073 60.6201 12.0119 60.2247 12.0119 58.7145C12.004 40.0651 12 21.4149 12 2.76391C12 1.91116 12.0619 1.13939 12.8432 0.620117ZM37.6898 57.9428C45.1534 57.9428 52.6169 57.9428 60.0805 57.9428C60.5784 57.9428 60.7213 57.8499 60.7213 57.3187C60.7022 43.708 60.7022 30.0981 60.7213 16.4889C60.7213 15.9649 60.5879 15.853 60.0781 15.853C45.151 15.8672 30.231 15.8672 15.3181 15.853C14.8012 15.853 14.6774 15.9768 14.6797 16.4913C14.694 30.102 14.694 43.7127 14.6797 57.3234C14.6797 57.8618 14.8346 57.9451 15.3253 57.9428C22.7745 57.9332 30.2294 57.9332 37.6898 57.9428ZM37.6279 13.2089C45.1248 13.2089 52.6209 13.2089 60.1162 13.2089C60.5498 13.2089 60.7141 13.1351 60.7094 12.6492C60.6832 9.70027 60.6903 6.75375 60.7094 3.80484C60.7094 3.41896 60.6474 3.27604 60.2139 3.27842C45.2026 3.29112 30.1897 3.29112 15.1752 3.27842C14.7536 3.27842 14.6726 3.40467 14.675 3.80008C14.6917 6.72755 14.7012 9.6574 14.675 12.5849C14.675 13.1208 14.8274 13.2113 15.3229 13.2113C22.7531 13.2018 30.1881 13.201 37.6279 13.2089V13.2089Z" fill="#D2D2D2"/>
<path d="M37.6636 54.5108H19.9702C18.5696 54.5108 18.1194 54.0606 18.1194 52.6552V28.1707C18.1194 26.7939 18.5648 26.3413 19.9345 26.3413C31.7682 26.3413 43.5988 26.3413 55.4261 26.3413C56.8029 26.3413 57.2484 26.7867 57.2484 28.1635V52.6981C57.2484 54.0248 56.772 54.5036 55.4619 54.5036L37.6636 54.5108ZM37.6874 51.831C43.097 51.831 48.5065 51.831 53.916 51.831C54.4138 51.831 54.5948 51.7548 54.5924 51.1903C54.5686 44.0062 54.5686 36.8205 54.5924 29.6332C54.5924 29.083 54.4352 28.9782 53.9183 28.9782C43.0993 28.9941 32.2811 28.9941 21.4637 28.9782C20.9492 28.9782 20.7872 29.0806 20.7872 29.6332C20.8079 36.8189 20.8079 44.0046 20.7872 51.1903C20.7872 51.7524 20.9635 51.8334 21.4637 51.8334C26.8684 51.8334 32.2779 51.8334 37.6874 51.8334V51.831Z" fill="#D2D2D2"/>
<path d="M37.6922 20.0739H55.438C55.7505 20.0541 56.064 20.0888 56.3646 20.1763C56.6256 20.2649 56.8517 20.4341 57.0105 20.6593C57.1692 20.8846 57.2525 21.1544 57.2482 21.43C57.244 21.7055 57.1525 21.9727 56.9869 22.1929C56.8213 22.4132 56.5901 22.5753 56.3265 22.6559C56.044 22.7319 55.7519 22.7664 55.4595 22.7584C43.6099 22.7584 31.7594 22.7584 19.9082 22.7584C19.6355 22.766 19.3631 22.7363 19.0984 22.6702C18.8189 22.6003 18.5705 22.4395 18.3923 22.2132C18.2141 21.9868 18.116 21.7077 18.1136 21.4196C18.1111 21.1315 18.2044 20.8508 18.3787 20.6215C18.5531 20.3921 18.7987 20.2271 19.0769 20.1525C19.3608 20.0804 19.6541 20.0531 19.9464 20.0715L37.6922 20.0739Z" fill="#D2D2D2"/>
<path d="M37.7019 12.2183C36.6485 12.2114 35.64 11.7908 34.8941 11.047C34.1481 10.3033 33.7244 9.29607 33.7144 8.24272C33.7039 7.71269 33.7994 7.18589 33.9955 6.69333C34.1915 6.20077 34.4841 5.75239 34.856 5.37459C35.2279 4.99678 35.6716 4.69718 36.1611 4.4934C36.6505 4.28963 37.1757 4.1858 37.7058 4.18802C38.236 4.19025 38.7603 4.29848 39.248 4.50636C39.7357 4.71423 40.1769 5.01755 40.5456 5.39846C40.9143 5.77937 41.2032 6.23018 41.3951 6.72437C41.587 7.21856 41.6781 7.74614 41.6631 8.27607C41.644 9.31893 41.22 10.3135 40.4807 11.0492C39.7414 11.785 38.7448 12.2042 37.7019 12.2183ZM37.69 9.53376C38.0316 9.53188 38.3586 9.39518 38.5999 9.15341C38.8413 8.91163 38.9774 8.58433 38.9786 8.24272C38.9643 7.91023 38.8222 7.59609 38.5819 7.36587C38.3415 7.13565 38.0216 7.00713 37.6888 7.00713C37.356 7.00713 37.036 7.13565 36.7957 7.36587C36.5553 7.59609 36.4132 7.91023 36.3989 8.24272C36.3989 8.58513 36.5349 8.91351 36.7771 9.15563C37.0192 9.39775 37.3476 9.53376 37.69 9.53376V9.53376Z" fill="#D2D2D2"/>
<path d="M27.0971 6.68729C27.3064 6.68334 27.5145 6.72191 27.7085 6.80066C27.9025 6.87941 28.0786 6.9967 28.226 7.14545C28.3734 7.29419 28.4891 7.47129 28.5661 7.66604C28.6431 7.86078 28.6798 8.06913 28.674 8.27846C28.6665 8.69069 28.4981 9.08365 28.2048 9.37341C27.9115 9.66316 27.5165 9.82671 27.1042 9.82913C26.6919 9.82445 26.2973 9.66084 26.0027 9.3724C25.708 9.08396 25.536 8.69295 25.5226 8.28084C25.5201 8.07248 25.5589 7.86568 25.6369 7.67245C25.7149 7.47922 25.8305 7.30339 25.9769 7.15516C26.1234 7.00693 26.2978 6.88925 26.4901 6.80893C26.6824 6.72862 26.8887 6.68727 27.0971 6.68729V6.68729Z" fill="#D2D2D2"/>
<path d="M48.254 6.68984C48.464 6.68282 48.6733 6.71809 48.8694 6.79355C49.0655 6.86902 49.2444 6.98314 49.3955 7.12913C49.5466 7.27513 49.6668 7.45001 49.749 7.64339C49.8311 7.83677 49.8736 8.0447 49.8738 8.25481C49.8672 8.66747 49.7014 9.06162 49.4112 9.355C49.1209 9.64838 48.7285 9.81831 48.316 9.82931C48.1071 9.83088 47.9001 9.79114 47.7067 9.71239C47.5133 9.63364 47.3373 9.51742 47.189 9.37043C47.0407 9.22343 46.9229 9.04856 46.8424 8.85588C46.7619 8.66319 46.7203 8.45649 46.72 8.24766C46.7184 8.04465 46.7569 7.84332 46.8331 7.65516C46.9094 7.467 47.0219 7.2957 47.1644 7.15104C47.3068 7.00638 47.4764 6.89119 47.6633 6.81206C47.8503 6.73293 48.051 6.6914 48.254 6.68984V6.68984Z" fill="#D2D2D2"/>
<path d="M54.3495 6.68938C54.5544 6.68813 54.7575 6.72735 54.9471 6.80481C55.1368 6.88227 55.3093 6.99643 55.4547 7.14074C55.6001 7.28505 55.7156 7.45666 55.7945 7.64572C55.8734 7.83479 55.9142 8.03757 55.9145 8.24244C55.9148 8.45266 55.8732 8.66084 55.7921 8.85477C55.7109 9.0487 55.5919 9.22447 55.4419 9.37179C55.2919 9.5191 55.114 9.63499 54.9187 9.71266C54.7233 9.79032 54.5144 9.82821 54.3042 9.82408C54.0991 9.81945 53.897 9.7744 53.7093 9.69153C53.5216 9.60866 53.3521 9.48958 53.2105 9.34112C53.0689 9.19266 52.958 9.01773 52.8841 8.82634C52.8101 8.63495 52.7747 8.43087 52.7798 8.22577C52.7794 8.02108 52.82 7.81838 52.8992 7.62962C52.9783 7.44086 53.0945 7.26986 53.2408 7.12668C53.3871 6.98351 53.5605 6.87105 53.7509 6.79595C53.9414 6.72085 54.1449 6.68461 54.3495 6.68938V6.68938Z" fill="#D2D2D2"/>
<path d="M21.0945 6.68925C21.2995 6.6938 21.5015 6.73928 21.6887 6.82301C21.8759 6.90674 22.0444 7.02703 22.1844 7.17682C22.3245 7.32661 22.4331 7.50287 22.5041 7.69525C22.575 7.88764 22.6068 8.09226 22.5975 8.29709C22.5882 8.71113 22.4153 9.10463 22.1167 9.39161C21.8181 9.6786 21.4181 9.83574 21.004 9.82871C20.5905 9.81814 20.1976 9.64627 19.9092 9.34983C19.6207 9.0534 19.4597 8.65591 19.4605 8.24231C19.4612 8.03166 19.5046 7.82333 19.588 7.6299C19.6714 7.43647 19.7931 7.26193 19.9458 7.1168C20.0985 6.97168 20.279 6.85898 20.4764 6.7855C20.6738 6.71202 20.8841 6.67928 21.0945 6.68925V6.68925Z" fill="#D2D2D2"/>
<path d="M44.6331 37.1481C44.645 38.1008 44.2353 38.8607 43.5874 39.53C42.718 40.4233 42.718 40.4257 43.5636 41.2975C45.0285 42.8077 45.019 44.6537 43.5422 46.171C43.2139 46.4476 42.982 46.8213 42.88 47.2382C42.8617 47.4086 42.8082 47.5734 42.7229 47.722C42.6375 47.8707 42.5222 48 42.3842 48.1017C42.2462 48.2033 42.0886 48.2752 41.9213 48.3128C41.7541 48.3503 41.5809 48.3526 41.4127 48.3196C41.0717 48.2692 40.7634 48.0894 40.5517 47.8174C40.3401 47.5454 40.2415 47.2023 40.2764 46.8594C40.3209 46.0523 40.6599 45.2895 41.2292 44.7156C41.3745 44.556 41.5198 44.3988 41.6747 44.2511C42.0439 43.9034 42.0606 43.5604 41.689 43.2031C41.5222 43.0411 41.3626 42.8672 41.2126 42.6957C39.9501 41.3142 39.9596 39.48 41.234 38.1175L41.3984 37.9508C42.1701 37.1576 42.1773 37.0647 41.3769 36.2643C40.7899 35.7135 40.4077 34.9793 40.2931 34.1825C40.1812 33.3369 40.6385 32.6556 41.3912 32.5151C42.1439 32.3745 42.7561 32.839 42.9109 33.6894C42.9919 34.142 43.2897 34.404 43.5707 34.6851C43.9087 34.9997 44.1776 35.3811 44.3605 35.805C44.5433 36.229 44.6362 36.6863 44.6331 37.1481Z" fill="#D2D2D2"/>
<path d="M35.1052 37.0886C35.0942 37.9508 34.7533 38.776 34.1524 39.3944C33.9952 39.5659 33.8332 39.735 33.676 39.8994C33.3116 40.259 33.3187 40.6021 33.676 40.9546C34.2429 41.5001 34.767 42.0837 34.9718 42.8602C35.3005 44.1036 34.9409 45.1707 34.069 46.0783C33.7022 46.4594 33.3759 46.8238 33.2878 47.4003C33.1996 47.9767 32.5517 48.3769 31.911 48.3197C31.6169 48.2974 31.3401 48.1726 31.1285 47.9672C30.917 47.7618 30.7842 47.4886 30.7533 47.1954C30.7107 46.8066 30.7479 46.4132 30.8626 46.0393C30.9772 45.6653 31.167 45.3187 31.4203 45.0206C31.5695 44.8382 31.7285 44.6641 31.8967 44.499C32.6113 43.7487 32.6113 43.6748 31.8967 42.9316C30.3055 41.3047 30.3103 39.5325 31.8967 37.8866C32.6113 37.1529 32.6113 37.0743 31.8752 36.3288C31.2249 35.6713 30.7557 34.9305 30.7343 33.973C30.7176 33.1607 31.1964 32.5747 31.9253 32.5009C32.616 32.4294 33.202 32.8915 33.3378 33.6776C33.4211 34.154 33.7427 34.4208 34.0524 34.7233C34.3746 35.0291 34.6334 35.3954 34.8141 35.8012C34.9947 36.2071 35.0936 36.6445 35.1052 37.0886V37.0886Z" fill="#D2D2D2"/>
</svg>
