<svg width="65" height="76" viewBox="0 0 65 76" fill="none" xmlns="http://www.w3.org/2000/svg">
<path d="M1.06681 0H63.6348C64.7017 0.40382 65 1.20543 65 2.29635C64.9819 26.0394 64.9769 49.7824 64.9849 73.5254C64.9849 75.3908 64.4726 75.9092 62.6193 75.9092H2.42594C0.515323 75.9092 0.0150679 75.4089 0.0150679 73.4983C0.00502264 49.9039 0 26.3086 0 2.71223C0 1.63336 0.0783532 0.656961 1.06681 0ZM32.5015 72.5219C41.9441 72.5219 51.3866 72.5219 60.8292 72.5219C61.459 72.5219 61.6399 72.4044 61.6399 71.7323C61.6157 54.5127 61.6157 37.2941 61.6399 20.0765C61.6399 19.4135 61.4711 19.2719 60.8262 19.2719C41.9411 19.29 23.065 19.29 4.19792 19.2719C3.54398 19.2719 3.38727 19.4286 3.39028 20.0795C3.40836 37.2991 3.40836 54.5188 3.39028 71.7384C3.39028 72.4194 3.58617 72.5249 4.20696 72.5219C13.6314 72.5098 23.063 72.5098 32.5015 72.5219ZM32.4232 15.9268C41.9079 15.9268 51.3917 15.9268 60.8744 15.9268C61.4229 15.9268 61.6308 15.8334 61.6248 15.2186C61.5916 11.4878 61.6007 7.75998 61.6248 4.02916C61.6248 3.54096 61.5464 3.36015 60.998 3.36316C42.0064 3.37923 23.0127 3.37923 4.01711 3.36316C3.4837 3.36316 3.38124 3.52288 3.38425 4.02314C3.40535 7.72683 3.4174 11.4335 3.38425 15.1372C3.38425 15.8153 3.57712 15.9298 4.20395 15.9298C13.6043 15.9178 23.0107 15.9167 32.4232 15.9268Z" fill="#D2D2D2"/>
<path d="M32.4684 68.1797H10.0835C8.31151 68.1797 7.74194 67.6101 7.74194 65.8321V34.8554C7.74194 33.1136 8.30548 32.541 10.0383 32.541C25.0098 32.541 39.9772 32.541 54.9407 32.541C56.6826 32.541 57.2461 33.1046 57.2461 34.8464V65.8863C57.2461 67.5649 56.6434 68.1706 54.9859 68.1706L32.4684 68.1797ZM32.4985 64.7894C39.3424 64.7894 46.1862 64.7894 53.0301 64.7894C53.6599 64.7894 53.889 64.6929 53.8859 63.9787C53.8558 54.8898 53.8558 45.7988 53.8859 36.7058C53.8859 36.0097 53.687 35.8771 53.0331 35.8771C39.3454 35.8971 25.6587 35.8971 11.973 35.8771C11.3221 35.8771 11.1172 36.0066 11.1172 36.7058C11.1433 45.7968 11.1433 54.8877 11.1172 63.9787C11.1172 64.6899 11.3402 64.7924 11.973 64.7924C18.8108 64.7924 25.6547 64.7924 32.4985 64.7924V64.7894Z" fill="#D2D2D2"/>
<path d="M32.5046 24.6121H54.9558C55.3512 24.5871 55.7478 24.631 56.1281 24.7417C56.4583 24.8538 56.7443 25.0678 56.9452 25.3528C57.146 25.6378 57.2514 25.9792 57.246 26.3278C57.2407 26.6764 57.1249 27.0144 56.9154 27.2931C56.7058 27.5718 56.4133 27.7768 56.0799 27.8788C55.7225 27.9749 55.3529 28.0185 54.983 28.0084C39.9914 28.0084 24.9988 28.0084 10.0052 28.0084C9.66019 28.018 9.31546 27.9805 8.98059 27.8969C8.62701 27.8084 8.31281 27.605 8.08731 27.3187C7.86182 27.0323 7.73778 26.6792 7.73468 26.3147C7.73158 25.9502 7.84958 25.595 8.07017 25.3049C8.29076 25.0147 8.60144 24.806 8.95347 24.7115C9.31256 24.6204 9.68368 24.5858 10.0534 24.6091L32.5046 24.6121Z" fill="#D2D2D2"/>
<path d="M32.5167 14.6732C31.184 14.6646 29.9081 14.1324 28.9644 13.1914C28.0206 12.2504 27.4846 10.9762 27.4719 9.64353C27.4586 8.97295 27.5795 8.30647 27.8275 7.68331C28.0756 7.06014 28.4457 6.49288 28.9163 6.0149C29.3868 5.53692 29.9481 5.15788 30.5673 4.90007C31.1865 4.64226 31.851 4.5109 32.5217 4.51372C33.1924 4.51653 33.8558 4.65346 34.4728 4.91646C35.0898 5.17945 35.648 5.56319 36.1145 6.0451C36.581 6.52701 36.9464 7.09736 37.1892 7.72258C37.432 8.34781 37.5473 9.01528 37.5283 9.68572C37.5041 11.0051 36.9676 12.2633 36.0323 13.1942C35.097 14.125 33.8362 14.6554 32.5167 14.6732ZM32.5016 11.2769C32.9338 11.2745 33.3476 11.1016 33.6529 10.7957C33.9582 10.4898 34.1304 10.0757 34.132 9.64353C34.1139 9.22287 33.9341 8.82544 33.63 8.53418C33.3259 8.24291 32.9212 8.08031 32.5001 8.08031C32.0791 8.08031 31.6743 8.24291 31.3702 8.53418C31.0662 8.82544 30.8863 9.22287 30.8683 9.64353C30.8683 10.0767 31.0403 10.4922 31.3467 10.7985C31.653 11.1048 32.0684 11.2769 32.5016 11.2769Z" fill="#D2D2D2"/>
<path d="M19.1 7.67564C19.3649 7.67065 19.6281 7.71944 19.8736 7.81907C20.1191 7.9187 20.3418 8.0671 20.5283 8.25528C20.7148 8.44347 20.8612 8.66753 20.9586 8.91391C21.056 9.1603 21.1024 9.42388 21.095 9.68872C21.0856 10.2102 20.8726 10.7074 20.5015 11.074C20.1304 11.4406 19.6307 11.6475 19.1091 11.6506C18.5875 11.6446 18.0882 11.4376 17.7155 11.0727C17.3427 10.7078 17.1251 10.2131 17.1081 9.69173C17.1049 9.42812 17.154 9.16649 17.2527 8.92203C17.3514 8.67756 17.4976 8.45511 17.6829 8.26758C17.8682 8.08004 18.0889 7.93115 18.3321 7.82954C18.5754 7.72793 18.8364 7.67562 19.1 7.67564Z" fill="#D2D2D2"/>
<path d="M45.8668 7.67884C46.1325 7.66996 46.3973 7.71458 46.6453 7.81005C46.8934 7.90553 47.1198 8.04991 47.311 8.23461C47.5021 8.41932 47.6542 8.64058 47.7582 8.88523C47.8621 9.12989 47.9158 9.39294 47.9161 9.65877C47.9077 10.1808 47.698 10.6795 47.3308 11.0507C46.9635 11.4218 46.4671 11.6368 45.9452 11.6507C45.681 11.6527 45.419 11.6025 45.1743 11.5028C44.9297 11.4032 44.7071 11.2562 44.5194 11.0702C44.3318 10.8842 44.1828 10.663 44.0809 10.4192C43.9791 10.1754 43.9265 9.91392 43.9261 9.64973C43.9241 9.39288 43.9727 9.13816 44.0692 8.90011C44.1656 8.66206 44.308 8.44534 44.4883 8.26233C44.6685 8.07931 44.883 7.93359 45.1195 7.83347C45.356 7.73336 45.61 7.68081 45.8668 7.67884Z" fill="#D2D2D2"/>
<path d="M53.5786 7.67826C53.8378 7.67667 54.0947 7.7263 54.3347 7.8243C54.5746 7.92229 54.7929 8.06672 54.9768 8.2493C55.1608 8.43187 55.3069 8.64899 55.4067 8.88818C55.5065 9.12737 55.5581 9.38393 55.5585 9.64312C55.559 9.90908 55.5063 10.1725 55.4036 10.4178C55.301 10.6632 55.1504 10.8855 54.9606 11.0719C54.7709 11.2583 54.5458 11.4049 54.2987 11.5032C54.0515 11.6014 53.7873 11.6494 53.5213 11.6441C53.2618 11.6383 53.006 11.5813 52.7686 11.4764C52.5312 11.3716 52.3167 11.2209 52.1376 11.0331C51.9584 10.8453 51.8181 10.624 51.7246 10.3818C51.6311 10.1397 51.5862 9.88151 51.5926 9.62202C51.5922 9.36306 51.6435 9.10662 51.7437 8.86781C51.8439 8.629 51.9908 8.41265 52.1759 8.23151C52.361 8.05037 52.5804 7.9081 52.8213 7.81309C53.0622 7.71807 53.3197 7.67223 53.5786 7.67826Z" fill="#D2D2D2"/>
<path d="M11.5058 7.67848C11.7651 7.68424 12.0207 7.74178 12.2575 7.84771C12.4943 7.95364 12.7076 8.10583 12.8847 8.29533C13.0619 8.48484 13.1994 8.70784 13.2891 8.95123C13.3789 9.19463 13.4191 9.4535 13.4074 9.71265C13.3955 10.2365 13.1768 10.7343 12.799 11.0974C12.4213 11.4605 11.9152 11.6593 11.3913 11.6504C10.8682 11.637 10.3711 11.4196 10.0062 11.0445C9.64127 10.6695 9.43752 10.1666 9.43848 9.64334C9.4394 9.37683 9.49428 9.11327 9.59981 8.86855C9.70534 8.62383 9.85934 8.40301 10.0525 8.21941C10.2457 8.0358 10.474 7.89322 10.7238 7.80026C10.9736 7.70729 11.2396 7.66587 11.5058 7.67848Z" fill="#D2D2D2"/>
<path d="M41.286 46.2137C41.301 47.4191 40.7827 48.3804 39.963 49.2272C38.8631 50.3573 38.8631 50.3603 39.9329 51.4633C41.7862 53.3739 41.7742 55.7095 39.9058 57.6291C39.4904 57.979 39.1971 58.4517 39.068 58.9792C39.0449 59.1948 38.9772 59.4033 38.8692 59.5914C38.7612 59.7794 38.6153 59.943 38.4408 60.0716C38.2662 60.2003 38.0668 60.2912 37.8552 60.3387C37.6436 60.3862 37.4244 60.3891 37.2116 60.3474C36.7803 60.2837 36.3901 60.0561 36.1224 59.712C35.8546 59.3679 35.7299 58.9338 35.7741 58.5C35.8303 57.4789 36.2593 56.5138 36.9796 55.7878C37.1634 55.5859 37.3472 55.387 37.5431 55.2002C38.0102 54.7602 38.0313 54.3262 37.5612 53.8742C37.3502 53.6693 37.1483 53.4493 36.9585 53.2323C35.3613 51.4844 35.3733 49.1639 36.9856 47.4402L37.1935 47.2292C38.1699 46.2257 38.179 46.1082 37.1664 45.0956C36.4237 44.3987 35.9401 43.4699 35.7952 42.4617C35.6536 41.3919 36.2322 40.53 37.1845 40.3522C38.1368 40.1744 38.9113 40.7621 39.1072 41.8379C39.2096 42.4105 39.5863 42.742 39.9419 43.0976C40.3695 43.4956 40.7097 43.9781 40.9411 44.5145C41.1724 45.0509 41.2899 45.6295 41.286 46.2137Z" fill="#D2D2D2"/>
<path d="M29.2316 46.138C29.2177 47.2288 28.7864 48.2728 28.0262 49.0552C27.8273 49.2722 27.6224 49.4861 27.4235 49.6941C26.9624 50.1491 26.9715 50.5831 27.4235 51.0291C28.1407 51.7192 28.8037 52.4575 29.0629 53.4399C29.4788 55.013 29.0237 56.3631 27.9207 57.5113C27.4566 57.9935 27.0438 58.4546 26.9323 59.1838C26.8208 59.9131 26.0011 60.4194 25.1904 60.3471C24.8184 60.3188 24.4682 60.161 24.2005 59.9011C23.9329 59.6412 23.7649 59.2957 23.7258 58.9247C23.6719 58.4328 23.719 57.9351 23.864 57.462C24.0091 56.9889 24.2492 56.5504 24.5696 56.1733C24.7584 55.9425 24.9596 55.7222 25.1723 55.5133C26.0764 54.564 26.0764 54.4706 25.1723 53.5304C23.1593 51.4721 23.1653 49.23 25.1723 47.1476C26.0764 46.2194 26.0764 46.12 25.1452 45.1767C24.3225 44.345 23.7288 43.4077 23.7017 42.1963C23.6806 41.1686 24.2863 40.4273 25.2085 40.3339C26.0824 40.2435 26.8238 40.8281 26.9956 41.8226C27.101 42.4253 27.5079 42.7628 27.8996 43.1455C28.3073 43.5324 28.6347 43.9958 28.8633 44.5093C29.0918 45.0228 29.217 45.5762 29.2316 46.138Z" fill="#D2D2D2"/>
</svg>
