<svg width="45" height="55" viewBox="0 0 45 55" fill="none" xmlns="http://www.w3.org/2000/svg">
<path d="M22.3404 14.4365C18.8238 14.3914 15.5505 14.2911 12.2802 14.0789C11.2555 14.0135 10.2369 13.9758 9.21519 13.9511C8.70214 13.9536 8.20139 13.801 7.78454 13.5151C7.02436 12.9889 6.22162 12.4977 5.56026 11.8437C5.25619 11.5429 5.14369 11.2493 5.31397 10.8264C6.06583 8.94379 7.09372 7.17288 8.36683 5.56675C8.57634 5.28484 8.85584 5.05711 9.18022 4.90403C12.7272 3.35622 16.2407 1.72994 19.8987 0.407399C21.3135 -0.139299 22.8957 -0.135648 24.3077 0.417572C27.5506 1.61512 30.64 3.14549 33.8555 4.38809C35.3652 4.96943 36.3519 5.91991 37.1076 7.21047C37.7963 8.38477 38.4607 9.56634 38.9061 10.8525C39.0369 11.229 38.9882 11.5167 38.7191 11.7943C37.8997 12.6387 36.8947 13.2476 35.87 13.829C35.6984 13.9057 35.5105 13.943 35.3211 13.938C32.6925 14.0557 30.0607 14.1371 27.4351 14.2926C25.6608 14.3972 23.8744 14.3493 22.3404 14.4365ZM17.5665 7.06805C17.6227 9.45443 18.7524 11.2217 21.0481 12.2899C21.3645 12.4519 21.72 12.5312 22.0787 12.52C22.4375 12.5088 22.7868 12.4073 23.0914 12.2259C25.3887 10.9514 26.7813 9.17393 26.5974 6.51142C26.5442 5.74987 26.5168 5.71354 25.7232 5.86323C24.4522 6.10158 23.7756 5.80219 23.1462 4.72236C23.044 4.53155 22.9319 4.34577 22.8102 4.16573C22.3541 3.53644 21.7779 3.53934 21.3096 4.16573C21.2118 4.29807 21.1287 4.43981 21.0618 4.58865C20.6057 5.55948 19.8683 6.01147 18.7265 5.92282C18.3753 5.8952 17.9025 5.57256 17.679 5.90974C17.4889 6.19314 17.5938 6.64949 17.5665 7.06805Z" fill="#D2D2D2"/>
<path d="M22.5411 38.6346C16.5464 38.6346 12.0096 35.6218 9.65612 30.1311C9.21972 29.12 8.87635 28.0745 8.62988 27.0064C8.6213 26.9198 8.58412 26.8381 8.52371 26.773C8.46331 26.7079 8.38282 26.6629 8.29388 26.6445C5.352 25.7231 4.33793 23.0911 4.71802 20.3457C4.97192 18.4811 5.83852 17.0467 7.60669 16.1659C7.96767 15.9688 8.38049 15.8755 8.7956 15.8971C12.2711 16.1558 15.7543 16.2764 19.2343 16.4043C21.3172 16.4813 23.4031 16.4857 25.4875 16.3738C27.4914 16.2677 29.4998 16.2066 31.5051 16.1151C32.6955 16.0613 33.8905 16.0337 35.0749 15.9073C36.4888 15.7619 37.4238 16.4886 38.2144 17.41C39.8093 19.2804 40.1407 22.9748 38.4029 25.0517C37.8342 25.7304 37.0825 26.248 36.2288 26.5486C36.1068 26.5798 35.9977 26.646 35.9162 26.7382C35.8346 26.8304 35.7846 26.9443 35.7727 27.0645C35.2406 29.5541 34.3482 31.9041 32.7153 33.9504C30.7388 36.4211 28.1542 37.9282 24.9265 38.4238C24.1401 38.5654 23.3414 38.6359 22.5411 38.6346ZM35.4778 17.6542C35.3957 18.5262 35.3257 19.3764 35.236 20.2164C35.1296 21.164 34.9913 22.1057 34.6279 23.0024C34.5154 23.2786 34.3938 23.6201 34 23.6201C33.6062 23.6201 33.5256 23.2626 33.4147 22.9865C33.0847 22.1624 32.9586 21.2861 32.7031 20.4431C32.4948 19.763 32.4918 19.7659 31.8517 20.0783C29.3143 21.3122 26.6324 22.1232 23.7939 22.3092C19.8759 22.565 16.183 21.6232 12.6147 20.1583C11.4973 19.7005 11.4349 19.7223 11.2464 20.8849C11.2464 20.9024 11.2464 20.9227 11.2464 20.9387C11.064 21.6552 11.0837 22.4066 10.8238 23.1085C10.7341 23.3483 10.6535 23.5998 10.3296 23.6317C10.1877 23.6435 10.0452 23.6169 9.9183 23.555C9.79142 23.493 9.68529 23.3983 9.61203 23.2815C9.4181 23.0158 9.26454 22.7251 9.15592 22.4182C8.68309 21.1523 8.57515 19.8225 8.39575 18.5044C8.3699 18.3169 8.5113 18.0408 8.29997 17.9608C8.08864 17.8809 7.91836 18.1425 7.7344 18.2515C7.62829 18.328 7.53409 18.4185 7.45465 18.5204C6.3676 19.7717 6.2186 22.299 7.13994 23.6782C7.76328 24.6142 8.73479 24.9499 9.80511 25.104C10.0773 25.1432 10.2004 25.2072 10.2536 25.508C10.4882 26.8892 10.8929 28.2391 11.4593 29.5294C12.709 32.3227 14.5653 34.5914 17.5315 35.8747C19.6509 36.7903 21.8828 36.9516 24.1709 36.6973C26.3739 36.4531 28.3139 35.6581 29.93 34.2033C32.5146 31.878 33.6153 28.8797 34.0927 25.617C34.1383 25.3133 34.149 25.1694 34.5397 25.1156C35.9932 24.9194 37.097 24.2305 37.4938 22.8077C37.7404 21.8566 37.7178 20.8599 37.4284 19.9199C37.135 18.8924 36.58 18.0916 35.4778 17.6542Z" fill="#D2D2D2"/>
<path d="M14.0849 39.3325C13.267 40.2728 12.5646 41.0896 11.8485 41.902C11.3924 42.4281 10.9165 42.947 10.4558 43.4745C10.0332 43.9614 9.95108 44.5965 10.2415 45.0267C10.5805 45.5266 11.0898 45.6792 11.8302 45.5019C13.4479 45.1139 15.0671 44.7331 16.6802 44.3393C16.8032 44.2985 16.9362 44.2945 17.0617 44.3277C17.1871 44.3609 17.299 44.4298 17.3826 44.5253C18.5076 45.6008 19.6403 46.6695 20.7805 47.7314C20.8743 47.8048 20.9502 47.897 21.0027 48.0014C21.0552 48.1059 21.0832 48.2201 21.0846 48.3359C21.0755 50.3474 21.0755 52.3578 21.0846 54.3673C21.0846 54.6333 21.0329 54.7583 20.7121 54.7466C13.4692 54.4865 6.65496 52.8805 0.594835 48.9013C-0.113649 48.4362 -0.113649 48.4202 0.202584 47.6674C0.949077 45.8972 1.68645 44.1343 2.58954 42.4368C2.72567 42.163 2.92409 41.9217 3.1703 41.7306C3.41651 41.5395 3.70429 41.4034 4.01259 41.3323C6.38281 40.7001 8.80169 40.283 11.2115 39.831C12.113 39.6653 13.0146 39.5185 14.0849 39.3325Z" fill="#D2D2D2"/>
<path d="M31.3242 39.4268C32.4766 39.6448 33.5393 39.8351 34.596 40.0502C36.7427 40.4862 38.8971 40.8975 41.0179 41.4513C41.2642 41.5065 41.4953 41.6112 41.6961 41.7582C41.8969 41.9053 42.0627 42.0915 42.1825 42.3044C43.2468 44.1239 44.083 46.0467 44.948 47.9578C45.1001 48.2907 44.8888 48.3706 44.6957 48.5058C42.0791 50.3413 39.1859 51.6566 36.13 52.6579C33.1975 53.6237 30.1551 54.2526 27.0672 54.5313C26.0866 54.6185 25.1105 54.7188 24.1253 54.7391C23.7939 54.7464 23.6692 54.6854 23.6692 54.3307C23.6875 52.4414 23.6798 50.5608 23.6692 48.6758C23.6644 48.569 23.6825 48.4624 23.7222 48.3624C23.7619 48.2625 23.8225 48.1713 23.9003 48.0945C25.0852 46.8717 26.2655 45.6456 27.4412 44.4161C27.5107 44.3232 27.6114 44.2559 27.7265 44.2255C27.8416 44.1951 27.9642 44.2033 28.0737 44.2489C29.594 44.6849 31.1417 45.073 32.6682 45.5119C33.2657 45.6848 33.7522 45.586 34.1429 45.1456C34.5625 44.6748 34.5473 44.217 34.1429 43.608C33.3148 42.3795 32.4847 41.1538 31.6526 39.9311C31.5461 39.7945 31.464 39.6549 31.3242 39.4268ZM32.764 47.7704C32.4051 47.8082 31.9931 47.5902 31.9445 48.1788C31.8305 49.5434 32.6773 50.9721 33.9878 51.5098C34.2265 51.6086 34.4667 51.7205 34.748 51.6639C36.0996 51.3877 37.433 49.587 37.284 48.2471C37.2444 47.8939 37.1319 47.6933 36.6941 47.7617C36.0494 47.8634 35.4991 47.7326 35.2178 47.0684C35.1053 46.8054 34.9365 46.4871 34.6005 46.4987C34.2645 46.5103 34.1231 46.8141 33.9848 47.08C33.7172 47.5698 33.3462 47.8866 32.7609 47.7704H32.764Z" fill="#D2D2D2"/>
<path d="M30.2052 42.2908C29.3082 42.0539 28.5632 41.8809 27.835 41.6557C27.201 41.4595 26.6978 41.5888 26.2553 42.0524C25.0391 43.3386 23.7984 44.6176 22.5578 45.9096C21.2214 44.6655 19.8851 43.4389 18.5684 42.1876C18.1123 41.7516 17.6425 41.5685 16.9918 41.769C16.3411 41.9696 15.6615 42.0829 14.8284 42.2719C15.6509 41.3388 16.367 40.5279 17.0815 39.7169C17.2077 39.5716 17.3263 39.6239 17.4814 39.6806C19.4776 40.4093 21.6142 40.7196 23.7468 40.5904C25.1933 40.5057 26.6145 40.1883 27.9505 39.6515C28.136 39.5774 28.3048 39.4698 28.469 39.7184C29.0087 40.5468 29.5682 41.3534 30.2052 42.2908Z" fill="#D2D2D2"/>
<path d="M22.6582 33.0901C21.3969 33.1344 20.141 32.9095 18.982 32.4317C18.3085 32.141 17.7505 31.7268 17.4221 31.0772C17.2412 30.7211 17.2245 30.3607 17.6167 30.1252C18.009 29.8898 18.2872 30.0642 18.5517 30.3592C19.3773 31.2821 20.5282 31.6076 21.7065 31.7515C22.8156 31.9023 23.9467 31.7834 24.995 31.4056C25.6141 31.1785 26.1624 30.8044 26.5883 30.3185C26.8164 30.0598 27.0855 29.9087 27.4184 30.1325C27.7514 30.3563 27.8244 30.6775 27.6115 31.0321C26.973 32.0974 25.9255 32.5872 24.7411 32.8677C24.0624 33.0414 23.3603 33.1164 22.6582 33.0901Z" fill="#D2D2D2"/>
<path d="M16.3548 26.5818C16.1397 26.5907 15.9249 26.5585 15.723 26.487C15.521 26.4156 15.336 26.3064 15.1788 26.1658C15.0216 26.0252 14.8952 25.856 14.8072 25.6681C14.7192 25.4803 14.6713 25.2776 14.6662 25.0718C14.6612 24.866 14.6991 24.6614 14.7778 24.4698C14.8565 24.2782 14.9744 24.1035 15.1245 23.956C15.2747 23.8085 15.4541 23.6911 15.6523 23.6107C15.8505 23.5303 16.0635 23.4884 16.2788 23.4877C17.2351 23.4702 17.9421 24.1097 17.9512 25.0006C17.9618 25.9191 17.3005 26.576 16.3548 26.5818Z" fill="#D2D2D2"/>
<path d="M28.0372 26.582C27.8248 26.5827 27.6143 26.5435 27.4177 26.4665C27.2211 26.3895 27.0423 26.2762 26.8916 26.1332C26.7408 25.9901 26.621 25.8201 26.5389 25.6328C26.4569 25.4454 26.4143 25.2445 26.4135 25.0414C26.4127 24.8384 26.4537 24.6371 26.5343 24.4492C26.6148 24.2613 26.7333 24.0904 26.883 23.9463C27.0326 23.8022 27.2105 23.6876 27.4065 23.6092C27.6024 23.5308 27.8126 23.49 28.025 23.4893C28.2375 23.4885 28.448 23.5277 28.6445 23.6048C28.8411 23.6818 29.0199 23.795 29.1707 23.9381C29.3214 24.0811 29.4413 24.2512 29.5233 24.4385C29.6053 24.6258 29.648 24.8267 29.6488 25.0298C29.6496 25.2329 29.6085 25.4341 29.528 25.622C29.4474 25.8099 29.3289 25.9808 29.1793 26.1249C29.0296 26.2691 28.8517 26.3836 28.6558 26.462C28.4598 26.5405 28.2496 26.5812 28.0372 26.582Z" fill="#D2D2D2"/>
</svg>
