<svg width="76" height="100" viewBox="0 0 76 100" fill="none" xmlns="http://www.w3.org/2000/svg">
<path d="M31.4312 88.1V89.12H35.0612V88.1H31.4312ZM31.3112 90.92V91.94H34.9712V90.92H31.3112ZM34.8512 85.61V93.74H36.0962V85.61H34.8512ZM30.6062 86.63V87.17C30.6062 89.735 28.5812 91.73 25.1162 92.735L25.6262 93.74C29.5262 92.57 31.9412 90.125 31.9412 86.63H30.6062ZM25.8212 86.63V87.65H31.4612V86.63H25.8212ZM31.6862 93.89C28.9412 93.89 27.2012 94.865 27.2012 96.5C27.2012 98.135 28.9412 99.11 31.6862 99.11C34.4312 99.11 36.1712 98.135 36.1712 96.5C36.1712 94.865 34.4312 93.89 31.6862 93.89ZM31.6862 94.865C33.6812 94.865 34.9562 95.48 34.9562 96.5C34.9562 97.52 33.6812 98.12 31.6862 98.12C29.7062 98.12 28.4312 97.52 28.4312 96.5C28.4312 95.48 29.7062 94.865 31.6862 94.865ZM48.59 85.595V99.185H49.835V85.595H48.59ZM39.515 86.75V95.915H45.905V86.75H44.66V90.335H40.745V86.75H39.515ZM40.745 91.325H44.66V94.895H40.745V91.325Z" fill="#7D7D7D"/>
<path d="M38.4839 15.8216C34.6299 15.7722 31.0425 15.6623 27.4584 15.4298C26.3354 15.3581 25.219 15.3167 24.0993 15.2896C23.5371 15.2924 22.9883 15.1251 22.5314 14.8118C21.6983 14.2352 20.8185 13.6968 20.0937 12.9801C19.7605 12.6504 19.6372 12.3286 19.8238 11.8651C20.6478 9.80192 21.7743 7.8611 23.1696 6.10087C23.3992 5.79191 23.7055 5.54232 24.061 5.37456C27.9483 3.67824 31.799 1.89592 35.8079 0.446488C37.3584 -0.152664 39.0925 -0.148663 40.64 0.457638C44.194 1.77009 47.5798 3.44729 51.1039 4.80912C52.7584 5.44623 53.8398 6.48791 54.6679 7.9023C55.4227 9.18927 56.1509 10.4842 56.6391 11.8938C56.7824 12.3063 56.729 12.6217 56.4341 12.9259C55.536 13.8513 54.4346 14.5187 53.3116 15.1558C53.1236 15.2399 52.9176 15.2808 52.7101 15.2753C49.8292 15.4043 46.945 15.4935 44.0674 15.6639C42.1229 15.7786 40.1651 15.7261 38.4839 15.8216ZM33.2519 7.74621C33.3136 10.3616 34.5516 12.2984 37.0676 13.4691C37.4144 13.6466 37.804 13.7336 38.1971 13.7213C38.5903 13.709 38.9731 13.5978 39.307 13.399C41.8247 12.0021 43.3509 10.0542 43.1493 7.13618C43.091 6.30156 43.061 6.26174 42.1912 6.42579C40.7983 6.68701 40.0568 6.3589 39.367 5.17546C39.255 4.96634 39.1321 4.76274 38.9987 4.56542C38.4989 3.87575 37.8674 3.87894 37.3542 4.56542C37.247 4.71046 37.156 4.8658 37.0826 5.02892C36.5827 6.0929 35.7746 6.58826 34.5232 6.4911C34.1384 6.46084 33.6202 6.10724 33.3752 6.47676C33.1669 6.78736 33.2819 7.28749 33.2519 7.74621V7.74621Z" fill="#D2D2D2"/>
<path d="M38.7038 42.3414C32.1339 42.3414 27.1619 39.0395 24.5826 33.022C24.1043 31.9139 23.728 30.7681 23.4579 29.5975C23.4485 29.5026 23.4077 29.413 23.3415 29.3417C23.2753 29.2704 23.1871 29.2211 23.0896 29.2009C19.8655 28.1911 18.7541 25.3066 19.1707 22.2978C19.4489 20.2543 20.3987 18.6822 22.3365 17.717C22.7321 17.5009 23.1845 17.3986 23.6395 17.4223C27.4485 17.7058 31.2658 17.838 35.0798 17.9782C37.3625 18.0626 39.6486 18.0674 41.933 17.9447C44.1291 17.8285 46.3302 17.7616 48.5279 17.6612C49.8326 17.6023 51.1422 17.572 52.4402 17.4334C53.9898 17.2742 55.0145 18.0706 55.881 19.0804C57.6288 21.1303 57.9921 25.1792 56.0876 27.4552C55.4642 28.1991 54.6404 28.7663 53.7049 29.0958C53.5711 29.13 53.4516 29.2025 53.3622 29.3036C53.2728 29.4047 53.218 29.5295 53.205 29.6612C52.6218 32.3897 51.6437 34.9652 49.8542 37.2078C47.6881 39.9156 44.8555 41.5673 41.3181 42.1104C40.4562 42.2656 39.5809 42.3429 38.7038 42.3414V42.3414ZM52.8818 19.348C52.7918 20.3036 52.7151 21.2354 52.6168 22.156C52.5002 23.1945 52.3486 24.2267 51.9503 25.2094C51.827 25.512 51.6937 25.8863 51.2622 25.8863C50.8306 25.8863 50.7423 25.4945 50.6207 25.1919C50.2591 24.2888 50.1208 23.3283 49.8409 22.4045C49.6126 21.6591 49.6093 21.6623 48.9078 22.0047C46.1269 23.357 43.1876 24.2458 40.0768 24.4497C35.7829 24.73 31.7357 23.6979 27.825 22.0923C26.6004 21.5906 26.532 21.6145 26.3254 22.8887C26.3254 22.9078 26.3254 22.9301 26.3254 22.9477C26.1255 23.7329 26.1472 24.5564 25.8622 25.3257C25.7639 25.5885 25.6756 25.864 25.3207 25.8991C25.1652 25.912 25.0089 25.8828 24.8699 25.815C24.7308 25.7471 24.6145 25.6432 24.5342 25.5152C24.3217 25.224 24.1534 24.9055 24.0344 24.5691C23.5162 23.1818 23.3979 21.7244 23.2013 20.2798C23.1729 20.0743 23.3279 19.7717 23.0963 19.684C22.8647 19.5964 22.6781 19.8831 22.4765 20.0026C22.3602 20.0864 22.2569 20.1857 22.1699 20.2973C20.9785 21.6687 20.8152 24.4385 21.825 25.9501C22.5081 26.9758 23.5728 27.3437 24.7459 27.5126C25.0441 27.5556 25.1791 27.6257 25.2374 27.9554C25.4945 29.4691 25.938 30.9485 26.5587 32.3626C27.9283 35.4239 29.9628 37.9103 33.2136 39.3167C35.5363 40.3201 37.9824 40.4969 40.49 40.2182C42.9044 39.9506 45.0305 39.0794 46.8017 37.485C49.6343 34.9365 50.8406 31.6506 51.3638 28.0748C51.4138 27.7419 51.4255 27.5843 51.8537 27.5253C53.4466 27.3103 54.6563 26.5553 55.0912 24.996C55.3614 23.9536 55.3367 22.8613 55.0195 21.8311C54.6979 20.705 54.0898 19.8274 52.8818 19.348V19.348Z" fill="#D2D2D2"/>
<path d="M29.4363 43.1064C28.5399 44.137 27.7701 45.0321 26.9853 45.9225C26.4854 46.4991 25.9639 47.0677 25.4591 47.6459C24.9958 48.1795 24.9059 48.8755 25.2241 49.347C25.5957 49.8949 26.1539 50.0621 26.9653 49.8678C28.7382 49.4425 30.5127 49.0252 32.2806 48.5936C32.4154 48.5489 32.5612 48.5445 32.6987 48.5809C32.8362 48.6173 32.9589 48.6928 33.0504 48.7975C34.2834 49.9761 35.5247 51.1473 36.7744 52.3111C36.8772 52.3916 36.9603 52.4926 37.0179 52.6071C37.0754 52.7216 37.1061 52.8467 37.1076 52.9737C37.0976 55.1781 37.0976 57.3815 37.1076 59.5838C37.1076 59.8753 37.051 60.0122 36.6994 59.9995C28.7615 59.7144 21.2935 57.9544 14.6519 53.5933C13.8754 53.0836 13.8754 53.0661 14.222 52.2411C15.0401 50.301 15.8483 48.369 16.838 46.5086C16.9872 46.2085 17.2047 45.9441 17.4745 45.7347C17.7443 45.5252 18.0597 45.3761 18.3976 45.2981C20.9952 44.6053 23.6462 44.1481 26.2872 43.6528C27.2752 43.4712 28.2633 43.3103 29.4363 43.1064Z" fill="#D2D2D2"/>
<path d="M48.3297 43.2095C49.5927 43.4484 50.7574 43.657 51.9154 43.8928C54.2682 44.3706 56.6292 44.8214 58.9536 45.4282C59.2234 45.4888 59.4768 45.6035 59.6968 45.7647C59.9168 45.9258 60.0985 46.1298 60.2299 46.3632C61.3963 48.3573 62.3127 50.4646 63.2608 52.5591C63.4274 52.9239 63.1958 53.0115 62.9842 53.1596C60.1166 55.1713 56.9458 56.6127 53.5967 57.7102C50.3827 58.7686 47.0485 59.4578 43.6643 59.7633C42.5896 59.8588 41.5199 59.9687 40.4401 59.991C40.0769 59.999 39.9403 59.9321 39.9403 59.5435C39.9603 57.4728 39.9519 55.4118 39.9403 53.3459C39.935 53.2289 39.9548 53.112 39.9984 53.0025C40.0419 52.893 40.1083 52.793 40.1935 52.7088C41.4921 51.3688 42.7856 50.025 44.0742 48.6775C44.1503 48.5757 44.2607 48.502 44.3868 48.4686C44.513 48.4353 44.6473 48.4444 44.7673 48.4943C46.4336 48.9722 48.1298 49.3974 49.8027 49.8785C50.4575 50.068 50.9907 49.9597 51.4189 49.4771C51.8788 48.961 51.8621 48.4593 51.4189 47.7919C50.5114 46.4455 49.6016 45.1022 48.6896 43.7622C48.573 43.6124 48.483 43.4595 48.3297 43.2095ZM49.9076 52.3536C49.5144 52.3951 49.0629 52.1561 49.0095 52.8012C48.8846 54.2968 49.8127 55.8625 51.249 56.4519C51.5106 56.5602 51.7738 56.6828 52.0821 56.6207C53.5633 56.3181 55.0246 54.3446 54.8613 52.8761C54.818 52.489 54.6947 52.2692 54.2148 52.3441C53.5084 52.4556 52.9052 52.3122 52.5969 51.5843C52.4736 51.296 52.2887 50.9472 51.9204 50.96C51.5522 50.9727 51.3972 51.3056 51.2456 51.5971C50.9524 52.1338 50.5458 52.4811 49.9043 52.3536H49.9076Z" fill="#D2D2D2"/>
<path d="M47.1033 46.3483C46.1202 46.0887 45.3038 45.8992 44.5057 45.6523C43.8108 45.4373 43.2593 45.579 42.7745 46.0871C41.4415 47.4967 40.0818 48.8984 38.7222 50.3144C37.2576 48.951 35.793 47.6066 34.35 46.2353C33.8501 45.7574 33.3353 45.5567 32.6221 45.7765C31.909 45.9963 31.1642 46.1206 30.2511 46.3276C31.1525 45.3051 31.9373 44.4163 32.7204 43.5275C32.8587 43.3683 32.9887 43.4256 33.1587 43.4877C35.3464 44.2864 37.6881 44.6264 40.0252 44.4848C41.6105 44.392 43.1681 44.0441 44.6323 43.4559C44.8356 43.3746 45.0205 43.2568 45.2005 43.5291C45.792 44.437 46.4052 45.321 47.1033 46.3483Z" fill="#D2D2D2"/>
<path d="M38.8322 36.2649C37.4498 36.3135 36.0735 36.067 34.8033 35.5434C34.0651 35.2248 33.4536 34.7709 33.0937 34.0589C32.8954 33.6687 32.8771 33.2737 33.307 33.0156C33.7369 32.7576 34.0418 32.9487 34.3317 33.2721C35.2365 34.2835 36.4978 34.6403 37.7891 34.798C39.0047 34.9632 40.2443 34.8328 41.3932 34.4189C42.0716 34.1699 42.6726 33.7599 43.1394 33.2275C43.3893 32.944 43.6842 32.7783 44.0492 33.0236C44.4141 33.2689 44.494 33.6209 44.2608 34.0095C43.5609 35.177 42.4129 35.7138 41.1149 36.0212C40.3711 36.2116 39.6016 36.2938 38.8322 36.2649V36.2649Z" fill="#D2D2D2"/>
<path d="M31.924 29.1321C31.6882 29.1419 31.4528 29.1066 31.2315 29.0283C31.0102 28.95 30.8075 28.8303 30.6351 28.6762C30.4628 28.5221 30.3244 28.3367 30.2279 28.1308C30.1314 27.9249 30.0789 27.7027 30.0734 27.4772C30.0678 27.2517 30.1094 27.0274 30.1956 26.8175C30.2819 26.6075 30.4111 26.4161 30.5756 26.2544C30.7402 26.0927 30.9368 25.9641 31.1541 25.8759C31.3713 25.7878 31.6047 25.742 31.8407 25.7411C32.8887 25.722 33.6635 26.4228 33.6735 27.3992C33.6852 28.4058 32.9604 29.1258 31.924 29.1321Z" fill="#D2D2D2"/>
<path d="M44.7273 29.1326C44.4945 29.1335 44.2638 29.0904 44.0483 29.0061C43.8329 28.9217 43.637 28.7975 43.4717 28.6407C43.3065 28.484 43.1752 28.2976 43.0853 28.0923C42.9954 27.887 42.9486 27.6668 42.9478 27.4443C42.9469 27.2217 42.9919 27.0012 43.0802 26.7952C43.1685 26.5893 43.2983 26.402 43.4623 26.2441C43.6263 26.0861 43.8213 25.9606 44.036 25.8746C44.2508 25.7887 44.4812 25.744 44.714 25.7432C44.9468 25.7423 45.1775 25.7853 45.3929 25.8697C45.6083 25.9541 45.8043 26.0783 45.9695 26.235C46.1348 26.3918 46.2661 26.5782 46.356 26.7835C46.4459 26.9888 46.4926 27.209 46.4935 27.4315C46.4944 27.6541 46.4494 27.8746 46.3611 28.0806C46.2728 28.2865 46.143 28.4738 45.979 28.6317C45.8149 28.7897 45.62 28.9152 45.4052 29.0012C45.1905 29.0871 44.9601 29.1318 44.7273 29.1326V29.1326Z" fill="#D2D2D2"/>
</svg>
