<svg width="57" height="31" viewBox="0 0 57 31" fill="none" xmlns="http://www.w3.org/2000/svg">
<path d="M24.4677 25.9258L8.38287 25.3794C6.80623 25.3248 5.22779 25.4867 3.65293 25.29C2.05571 25.0914 1.1006 24.2561 0.990597 22.6652C0.708892 18.6274 0.589951 14.5816 1.44311 10.5832C1.89831 8.44851 2.73269 6.47747 4.20918 4.82928C4.46104 4.53582 4.73814 4.265 5.0373 4.01994C5.86095 3.37068 6.50485 3.51019 6.98061 4.44473C7.31955 5.10383 7.61378 5.78618 7.92857 6.4569C8.44279 7.55331 9.30132 8.19274 10.472 8.50306C12.3616 9.00387 14.228 9.07362 16.0783 8.37249C16.3582 8.26607 16.7473 8.15249 16.7938 7.90567C16.8403 7.65884 16.4459 7.52112 16.2232 7.35836C15.6607 6.94519 15.0713 6.5669 14.6376 5.99991C14.1851 5.40878 14.0751 4.73806 14.4963 4.1362C15.3817 2.86987 16.3108 1.63216 17.2543 0.408756C17.6165 -0.0607507 18.1388 -0.104571 18.7076 0.169084C21.4775 1.50099 24.2463 2.8341 27.0138 4.16839C27.2821 4.29806 27.461 4.29896 27.7293 4.11652C29.1154 3.16856 30.9237 4.0566 31.0382 5.73431C31.0587 6.02764 31.1419 6.20024 31.4182 6.29325C31.5564 6.34535 31.6889 6.41158 31.8135 6.49089C32.2025 6.7243 32.5415 6.74844 32.9994 6.53828C34.0904 6.03748 35.4927 6.80121 35.7386 7.9951C35.8119 8.35282 35.964 8.54509 36.2752 8.66403C36.416 8.71477 36.5519 8.77823 36.6812 8.85362C37.0774 9.09061 37.4065 9.1389 37.884 8.89387C39.1602 8.23835 40.6716 9.10671 40.8442 10.5304C40.8808 10.8282 40.9899 11.0008 41.2627 11.1332C43.0629 12.0096 44.7853 13.0568 46.7063 13.6685C48.3616 14.1962 50.034 14.6701 51.6929 15.1888C52.7714 15.5242 53.8124 15.9374 54.7684 16.567C56.396 17.6401 56.6679 19.3259 55.9918 20.949C55.4016 22.3692 54.2926 23.3305 53.0013 24.0961C50.355 25.6691 47.4646 26.4123 44.4044 26.3828C40.0581 26.3399 35.7127 26.2111 31.3673 26.11C29.2093 26.0653 27.0514 25.9973 24.4677 25.9258ZM16.3761 21.5133V21.4364C16.9851 21.4364 17.5951 21.4409 18.2041 21.4364C18.4593 21.4282 18.7019 21.3233 18.8828 21.1431C22.3199 18.0273 25.7567 14.9113 29.1932 11.795C29.293 11.7062 29.3829 11.6069 29.4615 11.499C29.6404 11.2495 29.6162 11.0634 29.2827 10.9758C28.7801 10.8443 28.2712 10.729 27.7811 10.5599C27.0478 10.306 26.4602 10.5063 25.9031 11.0071C22.5048 14.0316 19.0999 17.0496 15.6884 20.061C15.3432 20.3668 14.998 20.6709 14.6564 20.9803C14.5348 21.0903 14.3747 21.22 14.4274 21.3863C14.4892 21.5777 14.7011 21.516 14.8594 21.5169C15.3638 21.5151 15.8699 21.5133 16.3761 21.5133ZM24.7942 21.5276V21.5339C25.1367 21.5339 25.481 21.5097 25.8208 21.5384C26.5228 21.5983 27.0675 21.3434 27.5826 20.865C29.8818 18.7303 32.207 16.6233 34.5215 14.5056C34.872 14.1845 35.2369 13.8733 35.5633 13.5308C35.8441 13.2384 35.7949 13.0917 35.4023 12.9781C34.8175 12.8082 34.2219 12.6759 33.6424 12.4925C33.1004 12.3199 32.6685 12.4442 32.2535 12.8198C29.6195 15.2046 26.981 17.5853 24.3381 19.9617C23.9294 20.3302 23.5225 20.7004 23.1236 21.0787C23.0342 21.1681 22.9143 21.2728 22.9993 21.4248C23.0682 21.5482 23.205 21.5258 23.3212 21.5267C23.8122 21.5294 24.3014 21.5276 24.7942 21.5276Z" fill="#D2D2D2"/>
<path d="M56.1733 21.7734C57.2465 23.1059 57.2626 24.8141 56.2932 26.2673C55.1789 27.9361 53.545 28.9126 51.7564 29.6549C49.4178 30.6225 46.9746 31.0429 44.4401 30.9963C36.014 30.8515 27.5924 30.5948 19.169 30.3408C14.617 30.2031 10.0677 29.8981 5.50858 29.9831C4.80881 30.003 4.10918 29.9384 3.42487 29.7908C2.3365 29.5476 1.63627 28.9368 1.34651 27.8368C1.17245 27.1906 1.11193 26.5192 1.16765 25.8523C1.20969 25.3667 1.55757 25.1002 2.03602 25.1977C2.5726 25.3077 3.10918 25.4562 3.62877 25.6171C4.26714 25.8233 4.93434 25.9262 5.60517 25.9221C10.1196 25.8416 14.6233 26.16 19.1314 26.2896C27.7033 26.5365 36.2734 26.8414 44.8488 26.9371C47.6738 26.9832 50.4636 26.3059 52.9529 24.9697C54.3266 24.2426 55.4838 23.2651 56.1733 21.7734Z" fill="#D2D2D2"/>
</svg>
