<svg width="76" height="74" viewBox="0 0 76 74" fill="none" xmlns="http://www.w3.org/2000/svg">
<path d="M34.061 28.5799L16.8942 27.9967C15.2115 27.9385 13.5269 28.1113 11.8461 27.9013C10.1414 27.6894 9.12204 26.7979 9.00465 25.1C8.70399 20.7906 8.57705 16.4726 9.4876 12.2053C9.97342 9.92697 10.8639 7.82335 12.4397 6.06429C12.7085 5.75109 13.0043 5.46206 13.3236 5.2005C14.2026 4.50757 14.8898 4.65646 15.3976 5.65387C15.7593 6.35731 16.0734 7.08556 16.4093 7.8014C16.9581 8.97156 17.8744 9.654 19.1238 9.98519C21.1406 10.5197 23.1325 10.5941 25.1073 9.84584C25.406 9.73226 25.8212 9.61105 25.8708 9.34762C25.9205 9.08419 25.4996 8.9372 25.2619 8.76349C24.6616 8.32253 24.0326 7.9188 23.5697 7.31367C23.0867 6.68277 22.9693 5.96693 23.4188 5.32458C24.3638 3.97307 25.3554 2.65211 26.3624 1.34641C26.7489 0.845319 27.3063 0.798551 27.9134 1.09061C30.8697 2.51212 33.8247 3.9349 36.7784 5.35894C37.0647 5.49734 37.2556 5.49829 37.5419 5.30359C39.0213 4.29186 40.9513 5.23964 41.0734 7.0302C41.0954 7.34326 41.1841 7.52747 41.4791 7.62673C41.6266 7.68234 41.768 7.75303 41.9009 7.83767C42.3161 8.08678 42.6779 8.11255 43.1666 7.88825C44.331 7.35376 45.8276 8.16886 46.0901 9.44306C46.1683 9.82485 46.3306 10.0301 46.6627 10.157C46.813 10.2112 46.9581 10.2789 47.0961 10.3593C47.5189 10.6123 47.8701 10.6638 48.3798 10.4023C49.7418 9.70268 51.3548 10.6295 51.539 12.1489C51.5782 12.4668 51.6946 12.651 51.9857 12.7923C53.9071 13.7276 55.7453 14.8453 57.7955 15.4981C59.5622 16.0613 61.347 16.5671 63.1176 17.1207C64.2686 17.4786 65.3796 17.9196 66.3999 18.5915C68.137 19.7369 68.4272 21.536 67.7056 23.2684C67.0757 24.784 65.8922 25.8101 64.5139 26.6271C61.6897 28.306 58.6049 29.0991 55.3387 29.0676C50.7001 29.0218 46.0624 28.8844 41.4247 28.7765C39.1216 28.7288 36.8185 28.6563 34.061 28.5799ZM25.4251 23.8706V23.7885C26.0751 23.7885 26.726 23.7933 27.376 23.7885C27.6484 23.7797 27.9074 23.6678 28.1005 23.4755C31.7688 20.1502 35.4367 16.8245 39.1044 13.4985C39.2108 13.4038 39.3068 13.2979 39.3907 13.1826C39.5816 12.9163 39.5558 12.7178 39.1998 12.6243C38.6634 12.484 38.1203 12.3608 37.5973 12.1804C36.8146 11.9094 36.1876 12.1232 35.5929 12.6577C31.966 15.8856 28.3321 19.1066 24.6911 22.3206C24.3227 22.647 23.9543 22.9715 23.5897 23.3018C23.4599 23.4192 23.289 23.5576 23.3454 23.7351C23.4112 23.9393 23.6374 23.8735 23.8064 23.8744C24.3447 23.8725 24.8849 23.8706 25.4251 23.8706V23.8706ZM34.4094 23.8859V23.8926C34.775 23.8926 35.1424 23.8668 35.5051 23.8974C36.2544 23.9613 36.8356 23.6893 37.3854 23.1786C39.8393 20.9004 42.3209 18.6517 44.791 16.3915C45.1652 16.0489 45.5546 15.7167 45.903 15.3511C46.2027 15.039 46.1502 14.8825 45.7312 14.7613C45.107 14.5799 44.4713 14.4387 43.8528 14.243C43.2744 14.0588 42.8134 14.1915 42.3705 14.5924C39.5593 17.1376 36.7434 19.6783 33.9226 22.2146C33.4865 22.6079 33.0522 23.003 32.6265 23.4068C32.531 23.5022 32.4031 23.6139 32.4938 23.7761C32.5673 23.9079 32.7133 23.884 32.8374 23.8849C33.3614 23.8878 33.8835 23.8859 34.4094 23.8859V23.8859Z" fill="#D2D2D2"/>
<path d="M67.8994 24.1484C69.0448 25.5706 69.062 27.3936 68.0273 28.9446C66.8381 30.7256 65.0943 31.7679 63.1854 32.5601C60.6895 33.5928 58.0819 34.0414 55.377 33.9917C46.3841 33.8371 37.3959 33.5632 28.4059 33.2921C23.5477 33.1451 18.6924 32.8197 13.8266 32.9103C13.0797 32.9316 12.3331 32.8627 11.6027 32.7051C10.4411 32.4455 9.6938 31.7936 9.38455 30.6197C9.19878 29.93 9.13419 29.2134 9.19366 28.5017C9.23852 27.9834 9.60981 27.699 10.1204 27.8031C10.6931 27.9205 11.2658 28.0789 11.8203 28.2507C12.5016 28.4707 13.2137 28.5806 13.9297 28.5762C18.7478 28.4903 23.5544 28.83 28.3658 28.9684C37.5143 29.2319 46.6609 29.5573 55.8131 29.6595C58.8281 29.7086 61.8056 28.9858 64.4624 27.5597C65.9285 26.7837 67.1635 25.7405 67.8994 24.1484Z" fill="#D2D2D2"/>
<path d="M27.9068 59.625V69.555H29.1668V59.625H27.9068ZM20.4518 71.85V72.87H29.5718V71.85H20.4518ZM20.4518 68.64V72.33H21.6818V68.64H20.4518ZM21.5768 60.36V61.74C21.5768 63.84 20.2268 65.82 18.1868 66.615L18.8318 67.62C21.1118 66.69 22.6118 64.38 22.6118 61.74V60.36H21.5768ZM21.8018 60.36V61.74C21.8018 64.32 23.3018 66.495 25.5518 67.365L26.2118 66.36C24.1868 65.625 22.8218 63.78 22.8218 61.74V60.36H21.8018ZM32.4056 60.165V66.09H38.6756V60.165H37.4606V62.115H33.6356V60.165H32.4056ZM33.6356 63.09H37.4606V65.085H33.6356V63.09ZM41.1206 59.61V66.6H42.3656V59.61H41.1206ZM41.8256 62.52V63.555H44.3606V62.52H41.8256ZM33.7556 67.26V68.25H41.1506V69.615H33.7856V72.585H35.0156V70.545H42.3656V67.26H33.7556ZM33.7856 72.03V73.02H42.8606V72.03H33.7856ZM48.9794 61.065V62.16C48.9794 64.095 47.6294 65.85 45.5894 66.57L46.2194 67.56C48.4994 66.735 49.9994 64.65 49.9994 62.16V61.065H48.9794ZM49.2044 61.065V62.145C49.2044 64.455 50.6444 66.39 52.9094 67.14L53.5094 66.165C51.5144 65.505 50.2244 63.915 50.2244 62.145V61.065H49.2044ZM45.9644 60.615V61.635H53.2094V60.615H45.9644ZM54.9194 59.61V67.785H56.1644V59.61H54.9194ZM55.8194 63.045V64.095H58.1744V63.045H55.8194ZM51.8444 68.145C49.0844 68.145 47.3894 69.06 47.3894 70.635C47.3894 72.225 49.0844 73.14 51.8444 73.14C54.6044 73.14 56.2994 72.225 56.2994 70.635C56.2994 69.06 54.6044 68.145 51.8444 68.145ZM51.8444 69.15C53.8544 69.15 55.0844 69.69 55.0844 70.635C55.0844 71.595 53.8544 72.165 51.8444 72.165C49.8344 72.165 48.6044 71.595 48.6044 70.635C48.6044 69.69 49.8344 69.15 51.8444 69.15Z" fill="#7D7D7D"/>
</svg>
