<svg width="76" height="101" viewBox="0 0 76 101" fill="none" xmlns="http://www.w3.org/2000/svg">
<path d="M21.2323 89.74V90.79H23.7223V89.74H21.2323ZM21.2323 93.76V94.795H23.7223V93.76H21.2323ZM14.4673 87.49V89.92C14.4673 92.395 12.9223 95.02 10.9423 96.025L11.7373 97.03C13.8823 95.86 15.4873 92.92 15.4873 89.92V87.49H14.4673ZM14.6773 87.49V89.92C14.6773 92.86 16.2523 95.62 18.3823 96.745L19.1323 95.74C17.2123 94.795 15.6973 92.35 15.6973 89.92V87.49H14.6773ZM20.3173 86.32V99.88H21.5773V86.32H20.3173ZM28.6262 93.895V99.46H29.8562V93.895H28.6262ZM34.8362 86.32V99.895H36.0812V86.32H34.8362ZM25.0562 94.51C27.5762 94.51 30.8462 94.465 33.8762 93.955L33.8012 93.025C30.8612 93.445 27.4562 93.46 24.8912 93.46L25.0562 94.51ZM31.7612 95.575V96.55H35.1512V95.575H31.7612ZM29.3162 86.995C27.2912 86.995 25.9112 88.06 25.9112 89.665C25.9112 91.27 27.2912 92.335 29.3162 92.335C31.3112 92.335 32.7062 91.27 32.7062 89.665C32.7062 88.06 31.3112 86.995 29.3162 86.995ZM29.3162 87.955C30.6062 87.955 31.5362 88.66 31.5362 89.665C31.5362 90.685 30.6062 91.375 29.3162 91.375C27.9962 91.375 27.0662 90.685 27.0662 89.665C27.0662 88.66 27.9962 87.955 29.3162 87.955ZM38.735 94.345V95.365H51.035V94.345H38.735ZM44.225 94.825V99.88H45.455V94.825H44.225ZM40.28 86.86V92.725H49.46V86.86H48.23V88.72H41.525V86.86H40.28ZM41.525 89.725H48.23V91.72H41.525V89.725ZM57.9788 87.25V88.285C57.9788 90.595 55.4288 92.665 53.0438 93.115L53.5988 94.15C56.3138 93.535 59.0588 91.24 59.0588 88.285V87.25H57.9788ZM58.2038 87.25V88.285C58.2038 91.255 60.9638 93.535 63.6638 94.15L64.2188 93.115C61.8488 92.665 59.2838 90.61 59.2838 88.285V87.25H58.2038ZM52.5488 97.03V98.05H64.8338V97.03H52.5488Z" fill="#7D7D7D"/>
<path d="M26.5692 14.1426C26.7636 14.2154 26.9675 14.2085 27.1662 14.2464C28.5832 14.5155 29.8252 15.1955 30.8278 16.4334C31.1167 16.7866 31.367 17.1812 31.573 17.6079C31.5943 17.6584 31.6245 17.7029 31.6618 17.7383C31.699 17.7737 31.7423 17.7992 31.7886 17.8129C33.9473 18.5054 36.1053 19.2 38.2625 19.8968C38.6661 20.0265 38.9464 20.3047 39.0397 20.799C39.1235 21.2429 39.0178 21.6282 38.7317 21.9334C38.641 22.0223 38.5427 22.0998 38.4384 22.1647C35.0821 24.4543 31.7252 26.7438 28.3679 29.0334C27.9841 29.2952 27.6036 29.285 27.2432 28.9791C26.9044 28.691 26.771 28.2034 26.8874 27.6997C27.2965 25.9254 27.7079 24.1515 28.1217 22.3781C28.314 21.5492 28.5031 20.7196 28.699 19.8925C28.7104 19.8498 28.7134 19.8047 28.7077 19.7605C28.702 19.7163 28.6877 19.6742 28.666 19.6375C28.3272 18.9754 27.8254 18.5595 27.21 18.3538C25.8441 17.8974 24.5766 18.1443 23.4627 19.2118C22.781 19.8673 22.4869 20.76 22.4481 21.7823C22.4434 21.9032 22.4456 22.0248 22.4456 22.1465C22.4456 34.2979 22.4456 46.4499 22.4456 58.6023C22.4456 59.2659 22.2626 59.8318 21.8184 60.2467C21.2769 60.7529 20.6722 60.8509 20.0442 60.5071C19.4161 60.1633 19.1031 59.5489 19.0609 58.7363C19.0584 58.6879 19.0609 58.6395 19.0609 58.5907C19.0609 46.421 19.0609 34.2514 19.0609 22.082C19.0609 20.9734 19.2112 19.8994 19.5846 18.8771C20.1889 17.212 21.1959 15.9923 22.5417 15.1507C23.4131 14.6044 24.3452 14.3036 25.3223 14.1815C25.359 14.1768 25.407 14.203 25.4304 14.1426H26.5692Z" fill="#D2D2D2"/>
<path d="M54.8783 41.2853C54.8299 41.309 54.8435 41.3687 54.8312 41.4106C54.6568 42.0089 54.1806 42.3429 53.6606 42.2278C53.1767 42.1208 52.8289 41.5909 52.849 40.9896C52.8681 40.416 53.2522 39.9232 53.7296 39.8606C54.2635 39.7906 54.7153 40.1567 54.85 40.7685C54.8584 40.7957 54.8687 40.822 54.8808 40.8472L54.8783 41.2853Z" fill="#D2D2D2"/>
<path d="M37.9934 26.8401C37.9909 27.8169 37.2187 28.4397 36.4224 27.9742C36.4187 28.9513 35.5463 29.5836 34.7562 28.971C34.7538 29.4947 34.5856 29.9125 34.1851 30.1444C33.7847 30.3764 33.4009 30.2974 33.0389 29.9594C33.0161 30.2734 32.9314 30.5378 32.7577 30.7556C32.5894 30.972 32.3586 31.1058 32.1108 31.1307C31.8951 31.153 31.6791 31.0934 31.4941 30.9604C31.3091 30.8274 31.1648 30.6281 31.0823 30.3914C30.9998 30.1547 30.9834 29.8931 31.0354 29.6446C31.0874 29.3962 31.2052 29.1738 31.3715 29.01C31.7452 28.6392 32.1965 28.6458 32.7146 29.0362C32.7528 28.5595 32.9354 28.1924 33.3035 27.9884C33.6716 27.7845 34.0296 27.8478 34.3817 28.1341C34.3764 27.6435 34.5178 27.2535 34.8634 26.9989C35.209 26.7443 35.5719 26.7574 35.9443 26.9909C35.9539 26.4887 36.1227 26.1008 36.4938 25.8699C36.865 25.639 37.2239 25.6925 37.5843 25.969C37.5809 25.4784 37.7278 25.088 38.0771 24.8298C38.1945 24.7418 38.3263 24.6844 38.4639 24.6613C38.6014 24.6383 38.7416 24.6501 38.875 24.6961C39.4433 24.8757 39.7578 25.6008 39.5579 26.2621C39.3342 26.9989 38.7246 27.2243 37.9934 26.8401Z" fill="#D2D2D2"/>
<path d="M38.7078 46.0545C38.5745 46.0556 38.4424 46.0253 38.3191 45.9654C38.1959 45.9055 38.0839 45.8171 37.9898 45.7056C37.8957 45.594 37.8214 45.4613 37.771 45.3154C37.7207 45.1695 37.6955 45.0132 37.6968 44.8556C37.6963 44.6176 37.7557 44.3847 37.8672 44.1866C37.9788 43.9885 38.1377 43.834 38.3236 43.7427C38.5096 43.6514 38.7143 43.6275 38.9117 43.674C39.1092 43.7205 39.2905 43.8352 39.4328 44.0037C39.575 44.1721 39.6717 44.3868 39.7107 44.6203C39.7496 44.8539 39.729 45.0958 39.6515 45.3155C39.5739 45.5352 39.443 45.7227 39.2752 45.8543C39.1074 45.9859 38.9104 46.0556 38.709 46.0545H38.7078Z" fill="#D2D2D2"/>
<path d="M43.4427 34.6975C43.4437 34.9354 43.3849 35.1682 43.2739 35.3665C43.1629 35.5649 43.0047 35.7198 42.8192 35.8118C42.6337 35.9037 42.4292 35.9285 42.2318 35.883C42.0344 35.8375 41.8528 35.7238 41.71 35.5563C41.5673 35.3887 41.4698 35.1749 41.4299 34.9418C41.39 34.7087 41.4095 34.4668 41.4859 34.2468C41.5623 34.0268 41.6922 33.8386 41.8591 33.7059C42.0261 33.5732 42.2226 33.5021 42.4237 33.5015C42.5573 33.4999 42.6898 33.5297 42.8135 33.5892C42.9373 33.6486 43.0498 33.7365 43.1446 33.8477C43.2394 33.959 43.3146 34.0914 43.3657 34.2373C43.4169 34.3832 43.4431 34.5396 43.4427 34.6975V34.6975Z" fill="#D2D2D2"/>
<path d="M40.7705 26.8408C40.9717 26.8404 41.1684 26.9105 41.3358 27.0423C41.5032 27.1741 41.6338 27.3617 41.711 27.5812C41.7882 27.8008 41.8086 28.0425 41.7696 28.2758C41.7306 28.5091 41.6339 28.7234 41.4918 28.8917C41.3497 29.06 41.1686 29.1747 40.9714 29.2212C40.7741 29.2678 40.5697 29.2441 40.3838 29.1532C40.1979 29.0623 40.0391 28.9083 39.9273 28.7106C39.8155 28.5129 39.7559 28.2805 39.7559 28.0427C39.7556 27.8849 39.7817 27.7287 39.8326 27.5829C39.8834 27.4371 39.9582 27.3046 40.0524 27.193C40.1466 27.0813 40.2586 26.9928 40.3818 26.9323C40.505 26.8719 40.6371 26.8408 40.7705 26.8408V26.8408Z" fill="#D2D2D2"/>
<path d="M49.844 43.7491C50.4228 43.7611 50.8605 44.2906 50.8516 44.9709C50.8479 45.2077 50.7851 45.4378 50.6711 45.6325C50.557 45.8271 50.3968 45.9775 50.2106 46.0647C50.0244 46.1519 49.8206 46.1721 49.6248 46.1226C49.4289 46.0731 49.2498 45.9563 49.11 45.7868C48.9702 45.6172 48.876 45.4026 48.8391 45.1699C48.8023 44.9371 48.8245 44.6967 48.9029 44.4789C48.9814 44.261 49.1126 44.0755 49.2801 43.9456C49.4475 43.8158 49.6437 43.7474 49.844 43.7491V43.7491Z" fill="#D2D2D2"/>
<path d="M39.8026 29.5145C39.8033 29.7524 39.7444 29.9852 39.6332 30.1835C39.522 30.3818 39.3635 30.5365 39.1778 30.6282C38.9922 30.7199 38.7876 30.7444 38.5902 30.6986C38.3927 30.6527 38.2112 30.5386 38.0687 30.3707C37.9261 30.2028 37.8289 29.9887 37.7894 29.7554C37.7498 29.5222 37.7697 29.2803 37.8465 29.0604C37.9233 28.8405 38.0536 28.6525 38.2209 28.5203C38.3881 28.388 38.5848 28.3174 38.786 28.3174C38.9193 28.3169 39.0513 28.3475 39.1746 28.4074C39.2978 28.4674 39.4099 28.5555 39.5043 28.6667C39.5987 28.7779 39.6737 28.91 39.7248 29.0555C39.776 29.2009 39.8024 29.3569 39.8026 29.5145V29.5145Z" fill="#D2D2D2"/>
<path d="M42.9077 29.0934C43.1084 29.0967 43.3037 29.1703 43.4691 29.3049C43.6344 29.4395 43.7622 29.6291 43.8365 29.8496C43.9107 30.0701 43.9279 30.3117 43.886 30.5438C43.8441 30.7759 43.7449 30.9881 43.601 31.1536C43.4571 31.319 43.2749 31.4303 43.0775 31.4734C42.8801 31.5164 42.6763 31.4893 42.492 31.3954C42.3076 31.3016 42.1509 31.1452 42.0417 30.946C41.9325 30.7469 41.8757 30.5139 41.8785 30.2766C41.8827 29.9585 41.9933 29.6553 42.1862 29.4335C42.3791 29.2117 42.6386 29.0894 42.9077 29.0934V29.0934Z" fill="#D2D2D2"/>
<path d="M45.091 31.2299C45.3524 31.2421 45.5997 31.373 45.7816 31.5952C45.9634 31.8175 46.0658 32.1141 46.0674 32.4234C46.0691 32.7326 45.9698 33.0307 45.7903 33.2556C45.6108 33.4806 45.3648 33.615 45.1036 33.6311C44.9664 33.6395 44.8292 33.6149 44.7002 33.5589C44.5713 33.5028 44.4533 33.4165 44.3533 33.305C44.2534 33.1935 44.1736 33.0592 44.1188 32.9103C44.064 32.7613 44.0353 32.6008 44.0344 32.4383C44.0336 32.2759 44.0606 32.1149 44.1138 31.9652C44.1671 31.8154 44.2454 31.68 44.3442 31.567C44.4429 31.4541 44.56 31.366 44.6884 31.308C44.8167 31.2501 44.9537 31.2235 45.091 31.2299V31.2299Z" fill="#D2D2D2"/>
<path d="M32.4948 34.4523C32.2288 34.446 31.9755 34.3164 31.7895 34.0914C31.6035 33.8664 31.4997 33.564 31.5005 33.2494C31.5013 32.9348 31.6065 32.6332 31.7936 32.4094C31.9807 32.1857 32.2346 32.0578 32.5006 32.0533C32.6353 32.0511 32.7691 32.0805 32.8941 32.14C33.019 32.1995 33.1327 32.2878 33.2285 32.3998C33.3243 32.5117 33.4003 32.6452 33.452 32.7922C33.5038 32.9393 33.5302 33.0971 33.5298 33.2563C33.5294 33.4156 33.5022 33.5732 33.4498 33.7199C33.3973 33.8666 33.3207 33.9995 33.2243 34.1108C33.128 34.2222 33.0139 34.3097 32.8886 34.3683C32.7634 34.4269 32.6295 34.4555 32.4948 34.4523V34.4523Z" fill="#D2D2D2"/>
<path d="M36.1119 49.8163C36.1127 50.0542 36.0537 50.287 35.9425 50.4853C35.8313 50.6835 35.6728 50.8383 35.4871 50.93C35.3015 51.0217 35.097 51.0462 34.8995 51.0003C34.7021 50.9545 34.5206 50.8404 34.378 50.6725C34.2354 50.5046 34.1382 50.2905 34.0987 50.0572C34.0591 49.824 34.079 49.5821 34.1559 49.3622C34.2327 49.1423 34.363 48.9543 34.5302 48.8221C34.6975 48.6898 34.8941 48.6192 35.0954 48.6192C35.2288 48.6178 35.3612 48.6478 35.4848 48.7075C35.6084 48.7671 35.7207 48.8551 35.8153 48.9665C35.9098 49.0779 35.9848 49.2103 36.0357 49.3562C36.0866 49.5021 36.1125 49.6585 36.1119 49.8163V49.8163Z" fill="#D2D2D2"/>
<path d="M32.4405 39.8851C32.4408 39.7275 32.4677 39.5715 32.5195 39.4262C32.5714 39.2809 32.6471 39.1493 32.7424 39.039C32.8378 38.9288 32.9507 38.842 33.0746 38.7839C33.1986 38.7257 33.3311 38.6974 33.4644 38.7004C33.6658 38.7022 33.8621 38.7746 34.0286 38.9085C34.1951 39.0423 34.3242 39.2317 34.3996 39.4524C34.4749 39.6732 34.4931 39.9154 34.4519 40.1484C34.4107 40.3814 34.3118 40.5947 34.1679 40.7612C34.024 40.9277 33.8415 41.0399 33.6436 41.0836C33.4457 41.1273 33.2413 41.1006 33.0562 41.0067C32.8712 40.9129 32.7139 40.7562 32.6043 40.5565C32.4947 40.3568 32.4377 40.1232 32.4405 39.8851V39.8851Z" fill="#D2D2D2"/>
<path d="M43.334 37.1967C43.3335 37.039 43.3594 36.8827 43.4104 36.7369C43.4613 36.5912 43.5363 36.4588 43.6308 36.3476C43.7254 36.2364 43.8377 36.1485 43.9613 36.089C44.0848 36.0295 44.2171 35.9996 44.3505 36.001C44.5511 36.0016 44.747 36.0725 44.9135 36.2047C45.08 36.337 45.2096 36.5246 45.2859 36.7439C45.3622 36.9632 45.3817 37.2044 45.3421 37.4368C45.3025 37.6693 45.2054 37.8827 45.0632 38.0499C44.921 38.2172 44.7401 38.3308 44.5433 38.3764C44.3464 38.4221 44.1426 38.3977 43.9575 38.3064C43.7724 38.2151 43.6144 38.0609 43.5034 37.8634C43.3924 37.6658 43.3334 37.4338 43.334 37.1967V37.1967Z" fill="#D2D2D2"/>
<path d="M35.5267 54.3495C35.3255 54.3508 35.1285 54.2814 34.9607 54.1503C34.7928 54.0191 34.6617 53.832 34.5838 53.6127C34.506 53.3934 34.4849 53.1516 34.5233 52.9181C34.5618 52.6846 34.6579 52.4699 34.7996 52.301C34.9414 52.1322 35.1223 52.0169 35.3195 51.9697C35.5167 51.9225 35.7213 51.9455 35.9074 52.0359C36.0935 52.1263 36.2527 52.2799 36.3649 52.4774C36.4771 52.6748 36.5372 52.9072 36.5377 53.1451C36.5385 53.3028 36.513 53.4591 36.4626 53.6051C36.4122 53.751 36.3379 53.8838 36.2439 53.9957C36.15 54.1077 36.0383 54.1965 35.9152 54.2572C35.7921 54.3179 35.6601 54.3493 35.5267 54.3495V54.3495Z" fill="#D2D2D2"/>
<path d="M39.5507 32.1659C39.5486 32.0082 39.573 31.8516 39.6225 31.7052C39.672 31.5588 39.7456 31.4255 39.839 31.313C39.9324 31.2005 40.0438 31.111 40.1667 31.0498C40.2896 30.9886 40.4215 30.9568 40.5549 30.9564C40.6894 30.9528 40.8233 30.9808 40.9486 31.039C41.0739 31.0972 41.1882 31.1842 41.2848 31.2951C41.3814 31.406 41.4583 31.5385 41.5111 31.6849C41.564 31.8313 41.5916 31.9887 41.5925 32.1479C41.5934 32.307 41.5675 32.4648 41.5163 32.612C41.465 32.7592 41.3896 32.8929 41.2942 33.0053C41.1989 33.1177 41.0856 33.2065 40.9609 33.2666C40.8363 33.3267 40.7027 33.3568 40.5681 33.3553C40.4348 33.3581 40.3024 33.3293 40.1786 33.2707C40.0549 33.2121 39.9423 33.1248 39.8475 33.0139C39.7527 32.9031 39.6776 32.771 39.6266 32.6253C39.5756 32.4797 39.5498 32.3235 39.5507 32.1659V32.1659Z" fill="#D2D2D2"/>
<path d="M39.5947 35.6364C39.7958 35.6402 39.9914 35.7147 40.1567 35.8503C40.3219 35.9858 40.4493 36.1765 40.5227 36.3979C40.5961 36.6194 40.6121 36.8616 40.5687 37.0938C40.5253 37.3261 40.4245 37.5378 40.279 37.7021C40.1336 37.8664 39.9501 37.9758 39.7519 38.0165C39.5537 38.0572 39.3498 38.0272 39.166 37.9305C38.9823 37.8337 38.827 37.6746 38.7199 37.4732C38.6129 37.2718 38.5589 37.0374 38.5649 36.7997C38.5721 36.4844 38.6843 36.1853 38.8772 35.9674C39.0701 35.7495 39.328 35.6306 39.5947 35.6364V35.6364Z" fill="#D2D2D2"/>
<path d="M35.5999 36.6338C35.3308 36.6304 35.0738 36.5007 34.8856 36.2734C34.6973 36.046 34.5931 35.7395 34.596 35.4214C34.5989 35.1032 34.7085 34.7994 34.9008 34.5768C35.0931 34.3542 35.3523 34.2311 35.6215 34.2344C35.7547 34.2361 35.8864 34.2688 36.0089 34.3306C36.1315 34.3925 36.2426 34.4822 36.3358 34.5948C36.429 34.7074 36.5025 34.8406 36.5522 34.9868C36.6019 35.133 36.6268 35.2893 36.6253 35.4468C36.6239 35.6044 36.5963 35.7601 36.544 35.905C36.4917 36.0499 36.4157 36.1812 36.3205 36.2914C36.2253 36.4016 36.1127 36.4886 35.989 36.5473C35.8654 36.6061 35.7331 36.6354 35.5999 36.6338V36.6338Z" fill="#D2D2D2"/>
<path d="M37.8087 30.9615C37.8086 31.1192 37.782 31.2753 37.7305 31.4207C37.6789 31.5661 37.6035 31.698 37.5085 31.8087C37.4135 31.9193 37.3008 32.0066 37.1771 32.0653C37.0533 32.1241 36.9209 32.1532 36.7876 32.151C36.5867 32.1495 36.3908 32.0777 36.2245 31.9445C36.0582 31.8113 35.9291 31.6227 35.8535 31.4027C35.7779 31.1827 35.7592 30.9411 35.7997 30.7085C35.8403 30.4759 35.9384 30.2628 36.0815 30.0962C36.2245 29.9295 36.4062 29.8168 36.6035 29.7722C36.8008 29.7277 37.0049 29.7534 37.1898 29.8461C37.3747 29.9387 37.5323 30.0942 37.6424 30.2928C37.7526 30.4913 37.8105 30.7241 37.8087 30.9615V30.9615Z" fill="#D2D2D2"/>
<path d="M38.1352 32.731C38.3364 32.731 38.5331 32.8016 38.7004 32.9339C38.8677 33.0662 38.9979 33.2542 39.0747 33.4741C39.1515 33.6941 39.1714 33.936 39.1318 34.1693C39.0922 34.4026 38.9949 34.6167 38.8523 34.7846C38.7097 34.9524 38.5281 35.0665 38.3306 35.1122C38.1332 35.158 37.9286 35.1334 37.743 35.0416C37.5573 34.9498 37.3989 34.7949 37.2877 34.5965C37.1766 34.3982 37.1177 34.1653 37.1187 33.9273C37.1199 33.6095 37.2275 33.3052 37.418 33.081C37.6085 32.8568 37.8664 32.731 38.1352 32.731V32.731Z" fill="#D2D2D2"/>
<path d="M46.1832 40.9655C46.0485 40.9659 45.9152 40.9342 45.7911 40.8724C45.667 40.8105 45.5547 40.7198 45.4609 40.6056C45.3671 40.4914 45.2936 40.356 45.245 40.2076C45.1964 40.0591 45.1735 39.9006 45.1777 39.7414C45.1828 39.426 45.2928 39.1257 45.4839 38.9055C45.675 38.6854 45.9318 38.5632 46.1986 38.5655C46.4678 38.57 46.7246 38.6995 46.9137 38.9261C47.1027 39.1527 47.2088 39.4581 47.2089 39.7764C47.2079 39.9342 47.1805 40.0902 47.1283 40.2355C47.0762 40.3807 47.0002 40.5124 46.9049 40.6228C46.8096 40.7333 46.6968 40.8205 46.573 40.8793C46.4491 40.9381 46.3166 40.9674 46.1832 40.9655V40.9655Z" fill="#D2D2D2"/>
<path d="M41.4838 42.623C41.4974 42.3155 41.6103 42.0259 41.7992 41.814C41.988 41.602 42.2385 41.4839 42.4989 41.4839C42.7593 41.4839 43.0098 41.602 43.1987 41.814C43.3876 42.0259 43.5005 42.3155 43.5141 42.623C43.5213 42.7859 43.5003 42.9488 43.4526 43.1018C43.4048 43.2548 43.3312 43.3948 43.2362 43.5131C43.1413 43.6314 43.0269 43.7256 42.9002 43.79C42.7734 43.8544 42.6369 43.8876 42.4989 43.8876C42.361 43.8876 42.2245 43.8544 42.0977 43.79C41.9709 43.7256 41.8566 43.6314 41.7616 43.5131C41.6667 43.3948 41.593 43.2548 41.5453 43.1018C41.4975 42.9488 41.4766 42.7859 41.4838 42.623V42.623Z" fill="#D2D2D2"/>
<path d="M38.7313 41.7099C38.7155 42.0174 38.6004 42.306 38.4098 42.516C38.2192 42.7261 37.9677 42.8416 37.7071 42.8387C37.4466 42.8358 37.1969 42.7147 37.0097 42.5005C36.8225 42.2862 36.712 41.9951 36.7011 41.6873C36.6953 41.5244 36.7176 41.3619 36.7666 41.2095C36.8157 41.0571 36.8904 40.9182 36.9863 40.801C37.0822 40.6839 37.1973 40.591 37.3245 40.5281C37.4517 40.4652 37.5884 40.4336 37.7263 40.4351C37.8642 40.4366 38.0003 40.4713 38.1265 40.5371C38.2527 40.6028 38.3663 40.6982 38.4603 40.8174C38.5543 40.9367 38.6268 41.0773 38.6734 41.2307C38.72 41.3841 38.7397 41.5472 38.7313 41.7099V41.7099Z" fill="#D2D2D2"/>
<path d="M49.0713 42.3112C49.0727 42.4689 49.0476 42.6252 48.9972 42.7712C48.9468 42.9172 48.8723 43.0498 48.7781 43.1613C48.6838 43.2727 48.5716 43.3608 48.4482 43.4203C48.3247 43.4799 48.1924 43.5097 48.0591 43.508C47.4951 43.508 47.0361 42.9711 47.0386 42.3149C47.0407 41.9967 47.1484 41.6922 47.3385 41.467C47.5286 41.2418 47.786 41.1139 48.0551 41.1108C48.3244 41.1109 48.5827 41.2374 48.7732 41.4625C48.9638 41.6875 49.071 41.9928 49.0713 42.3112V42.3112Z" fill="#D2D2D2"/>
<path d="M39.7426 46.8043C39.8761 46.8061 40.008 46.8389 40.1307 46.9009C40.2535 46.9628 40.3647 47.0528 40.4581 47.1656C40.5515 47.2785 40.6251 47.4119 40.6749 47.5584C40.7246 47.7049 40.7495 47.8615 40.748 48.0193C40.7465 48.1771 40.7188 48.3331 40.6664 48.4782C40.6139 48.6234 40.5378 48.7549 40.4424 48.8653C40.347 48.9757 40.2341 49.0628 40.1102 49.1216C39.9864 49.1804 39.8539 49.2098 39.7204 49.208C39.1659 49.208 38.7137 48.6588 38.718 47.992C38.7186 47.8342 38.7456 47.6781 38.7975 47.5327C38.8494 47.3874 38.9252 47.2556 39.0205 47.1452C39.1158 47.0347 39.2287 46.9477 39.3526 46.8892C39.4766 46.8307 39.6091 46.8018 39.7426 46.8043V46.8043Z" fill="#D2D2D2"/>
<path d="M46.301 48.5033C46.2994 49.1727 45.8531 49.6939 45.2826 49.6931C45.1492 49.6931 45.0172 49.662 44.894 49.6016C44.7708 49.5412 44.6589 49.4526 44.5647 49.341C44.4705 49.2293 44.3959 49.0968 44.345 48.951C44.2942 48.8052 44.2682 48.649 44.2686 48.4913C44.2724 48.173 44.3818 47.8692 44.5733 47.6454C44.7647 47.4216 45.0229 47.2958 45.2922 47.2949C45.4256 47.2957 45.5575 47.3277 45.6805 47.3889C45.8034 47.4501 45.9149 47.5394 46.0087 47.6516C46.1024 47.7639 46.1764 47.8969 46.2266 48.043C46.2767 48.1892 46.302 48.3456 46.301 48.5033V48.5033Z" fill="#D2D2D2"/>
<path d="M48.3587 34.5013C48.36 34.7393 48.3014 34.9725 48.1905 35.1711C48.0796 35.3697 47.9213 35.525 47.7357 35.6171C47.5501 35.7093 47.3455 35.7341 47.1479 35.6886C46.9503 35.6431 46.7685 35.5293 46.6257 35.3615C46.4829 35.1937 46.3854 34.9796 46.3457 34.7463C46.3059 34.5129 46.3257 34.2709 46.4024 34.0508C46.4792 33.8308 46.6095 33.6426 46.7768 33.5102C46.9441 33.3778 47.1409 33.3071 47.3422 33.3071C47.6108 33.3066 47.8686 33.4321 48.0591 33.6559C48.2497 33.8797 48.3574 34.1838 48.3587 34.5013V34.5013Z" fill="#D2D2D2"/>
<path d="M50.7178 38.8042C50.7178 38.6466 50.7443 38.4905 50.7956 38.3451C50.8469 38.1996 50.922 38.0675 51.0167 37.9565C51.1113 37.8456 51.2237 37.7578 51.3471 37.6984C51.4706 37.639 51.6028 37.6091 51.7362 37.6104C51.9374 37.6108 52.134 37.6819 52.3011 37.8146C52.4682 37.9473 52.5982 38.1356 52.6746 38.3557C52.7511 38.5758 52.7705 38.8178 52.7305 39.051C52.6906 39.2842 52.5929 39.4981 52.45 39.6657C52.3071 39.8332 52.1253 39.9468 51.9278 39.9921C51.7302 40.0374 51.5257 40.0123 51.3402 39.9201C51.1546 39.8278 50.9965 39.6725 50.8857 39.4739C50.7749 39.2752 50.7165 39.0422 50.7178 38.8042V38.8042Z" fill="#D2D2D2"/>
<path d="M49.5219 37.871C49.3206 37.8702 49.1241 37.7987 48.9572 37.6658C48.7903 37.5328 48.6606 37.3442 48.5844 37.124C48.5082 36.9037 48.4891 36.6617 48.5294 36.4286C48.5696 36.1954 48.6676 35.9817 48.8107 35.8144C48.9538 35.6471 49.1357 35.5338 49.3333 35.4889C49.531 35.444 49.7355 35.4694 49.9208 35.562C50.1062 35.6546 50.2642 35.8102 50.3748 36.009C50.4853 36.2078 50.5434 36.441 50.5418 36.679C50.5411 36.8364 50.5142 36.9922 50.4625 37.1374C50.4109 37.2825 50.3355 37.4142 50.2408 37.5249C50.1461 37.6356 50.0338 37.7232 49.9105 37.7825C49.7871 37.8419 49.6551 37.872 49.5219 37.871Z" fill="#D2D2D2"/>
<path d="M36.6363 37.3833C36.8375 37.384 37.034 37.4552 37.2009 37.588C37.3678 37.7208 37.4977 37.9092 37.574 38.1293C37.6503 38.3494 37.6697 38.5914 37.6296 38.8245C37.5896 39.0576 37.4919 39.2714 37.349 39.4389C37.206 39.6063 37.0243 39.7198 36.8268 39.7651C36.6292 39.8103 36.4248 39.7852 36.2393 39.693C36.0539 39.6008 35.8957 39.4455 35.7849 39.247C35.6741 39.0484 35.6157 38.8154 35.617 38.5775C35.6171 38.4198 35.6436 38.2637 35.695 38.1182C35.7464 37.9726 35.8216 37.8406 35.9163 37.7296C36.0111 37.6185 36.1235 37.5308 36.247 37.4714C36.3706 37.412 36.5029 37.382 36.6363 37.3833V37.3833Z" fill="#D2D2D2"/>
<path d="M33.5463 46.5121C33.5587 46.2039 33.6708 45.9132 33.8595 45.7001C34.0481 45.4869 34.2989 45.3678 34.5598 45.3672C34.8208 45.3666 35.0719 45.4847 35.2612 45.697C35.4505 45.9094 35.5636 46.1996 35.5769 46.5077C35.5839 46.6703 35.5629 46.8329 35.5152 46.9856C35.4674 47.1383 35.394 47.278 35.2992 47.3961C35.2044 47.5142 35.0904 47.6084 34.9639 47.6728C34.8374 47.7372 34.7012 47.7706 34.5635 47.7709C34.4258 47.7712 34.2895 47.7384 34.1629 47.6745C34.0362 47.6106 33.9218 47.517 33.8267 47.3993C33.7316 47.2816 33.6577 47.1422 33.6095 46.9897C33.5613 46.8372 33.5398 46.6747 33.5463 46.5121V46.5121Z" fill="#D2D2D2"/>
<path d="M33.929 36.6003C33.9278 36.8382 33.8669 37.0703 33.754 37.2672C33.6411 37.4641 33.4814 37.617 33.2949 37.7065C33.1085 37.796 32.9038 37.8181 32.7068 37.7699C32.5097 37.7218 32.3292 37.6056 32.1881 37.4361C32.0469 37.2665 31.9515 37.0513 31.9139 36.8176C31.8763 36.5839 31.8982 36.3423 31.9768 36.1233C32.0555 35.9043 32.1873 35.7179 32.3556 35.5875C32.5239 35.4572 32.7212 35.3889 32.9223 35.3912C33.0556 35.3924 33.1874 35.4246 33.3101 35.486C33.4328 35.5474 33.5441 35.6368 33.6376 35.7491C33.7311 35.8614 33.8049 35.9944 33.8549 36.1404C33.9049 36.2865 33.9301 36.4427 33.929 36.6003V36.6003Z" fill="#D2D2D2"/>
<path d="M34.7114 33.4388C34.5106 33.4404 34.314 33.3716 34.1463 33.241C33.9787 33.1104 33.8476 32.9239 33.7696 32.7052C33.6916 32.4865 33.6703 32.2453 33.7083 32.0122C33.7463 31.7792 33.8419 31.5646 33.983 31.3958C34.1241 31.227 34.3045 31.1115 34.5011 31.0639C34.6978 31.0163 34.902 31.0388 35.0879 31.1284C35.2738 31.2181 35.433 31.371 35.5454 31.5676C35.6578 31.7643 35.7183 31.996 35.7193 32.2334C35.7202 32.3908 35.6949 32.547 35.6448 32.6928C35.5946 32.8387 35.5206 32.9714 35.4269 33.0834C35.3333 33.1954 35.2219 33.2845 35.0991 33.3454C34.9763 33.4064 34.8446 33.4382 34.7114 33.4388V33.4388Z" fill="#D2D2D2"/>
<path d="M41.0854 40.892C40.9521 40.8943 40.8199 40.8651 40.6963 40.8062C40.5727 40.7473 40.4602 40.6598 40.3656 40.5489C40.2709 40.438 40.1959 40.3059 40.145 40.1603C40.094 40.0148 40.0682 39.8586 40.0689 39.7011C40.0674 39.4635 40.1256 39.2308 40.2361 39.0324C40.3467 38.8341 40.5045 38.6789 40.6897 38.5867C40.8748 38.4945 41.079 38.4694 41.2762 38.5145C41.4735 38.5596 41.655 38.673 41.7977 38.8402C41.9404 39.0074 42.0379 39.2209 42.0779 39.4537C42.1179 39.6865 42.0985 39.9281 42.0222 40.1479C41.9459 40.3676 41.8161 40.5556 41.6494 40.6881C41.4826 40.8206 41.2863 40.8915 41.0854 40.892V40.892Z" fill="#D2D2D2"/>
<path d="M43.9351 44.3282C44.1356 44.3264 44.3321 44.3949 44.4997 44.5251C44.6673 44.6554 44.7985 44.8414 44.8766 45.0598C44.9548 45.2781 44.9764 45.519 44.9388 45.7519C44.9012 45.9848 44.806 46.1993 44.6653 46.3682C44.5246 46.5372 44.3447 46.653 44.1483 46.7011C43.952 46.7492 43.7479 46.7273 43.5621 46.6383C43.3762 46.5493 43.2168 46.3971 43.1041 46.201C42.9913 46.0049 42.9303 45.7737 42.9287 45.5366C42.9267 45.2185 43.0316 44.9126 43.2203 44.686C43.409 44.4594 43.6661 44.3307 43.9351 44.3282Z" fill="#D2D2D2"/>
<path d="M35.07 43.1943C35.0708 43.4319 35.0119 43.6644 34.9008 43.8624C34.7897 44.0604 34.6314 44.215 34.4459 44.3065C34.2605 44.398 34.0562 44.4224 33.859 44.3765C33.6618 44.3306 33.4806 44.2165 33.3383 44.0487C33.196 43.881 33.099 43.667 33.0597 43.434C33.0203 43.201 33.0404 42.9594 33.1173 42.7399C33.1942 42.5204 33.3244 42.3328 33.4916 42.2009C33.6588 42.069 33.8553 41.9987 34.0562 41.999C34.1892 41.9986 34.321 42.0293 34.4439 42.0892C34.5669 42.1491 34.6786 42.237 34.7728 42.3481C34.867 42.4591 34.9417 42.591 34.9927 42.7362C35.0437 42.8814 35.0699 43.0371 35.07 43.1943V43.1943Z" fill="#D2D2D2"/>
<path d="M40.6484 52.3938C40.3871 52.38 40.1404 52.2477 39.9596 52.0244C39.7787 51.8011 39.6776 51.504 39.6772 51.1948C39.6769 50.8856 39.7773 50.5882 39.9577 50.3643C40.138 50.1404 40.3844 50.0073 40.6456 49.9927C40.9068 50.0065 41.1535 50.1388 41.3344 50.3621C41.5152 50.5854 41.6163 50.8825 41.6167 51.1917C41.6171 51.5008 41.5166 51.7983 41.3363 52.0222C41.1559 52.2461 40.9096 52.3792 40.6484 52.3938V52.3938Z" fill="#D2D2D2"/>
<line x1="11.7151" y1="58.96" x2="11.7151" y2="2.45996" stroke="#D2D2D2" stroke-width="3.5" stroke-linecap="round"/>
<line x1="63.877" y1="58.96" x2="63.8769" y2="2.45996" stroke="#D2D2D2" stroke-width="3.5" stroke-linecap="round"/>
<line x1="63.877" y1="2.45996" x2="12.7501" y2="2.45996" stroke="#D2D2D2" stroke-width="3.5" stroke-linecap="round"/>
</svg>
