<svg width="76" height="81" viewBox="0 0 76 81" fill="none" xmlns="http://www.w3.org/2000/svg">
<path d="M27.9068 65.7349V73.8049H29.1668V65.7349H27.9068ZM24.6818 74.1199C21.8618 74.1199 20.1368 75.0649 20.1368 76.6849C20.1368 78.3049 21.8618 79.2499 24.6818 79.2499C27.5018 79.2499 29.2418 78.3049 29.2418 76.6849C29.2418 75.0649 27.5018 74.1199 24.6818 74.1199ZM24.6818 75.1099C26.7518 75.1099 27.9968 75.6949 27.9968 76.6849C27.9968 77.6749 26.7518 78.2449 24.6818 78.2449C22.6268 78.2449 21.3668 77.6749 21.3668 76.6849C21.3668 75.6949 22.6268 75.1099 24.6818 75.1099ZM21.5768 66.3349V67.6549C21.5768 69.6949 20.2118 71.5849 18.1568 72.3499L18.8018 73.3399C21.0818 72.4699 22.6118 70.2349 22.6118 67.6549V66.3349H21.5768ZM21.8018 66.3349V67.6549C21.8018 70.1149 23.3468 72.1699 25.6268 72.9799L26.2268 71.9899C24.2318 71.3149 22.8218 69.5899 22.8218 67.6549V66.3349H21.8018ZM33.3056 67.0999V68.1199H41.9156V67.0999H33.3056ZM31.8506 76.3549V77.4049H44.1056V76.3549H31.8506ZM41.3756 67.0999V68.7649C41.3756 70.7149 41.3756 72.6499 40.7906 75.2599L42.0206 75.3799C42.5906 72.6049 42.5906 70.7599 42.5906 68.7649V67.0999H41.3756ZM41.6906 70.8499L32.9456 71.2099L33.1256 72.2449L41.6906 71.7799V70.8499ZM55.9544 65.7199V79.2799H57.1544V65.7199H55.9544ZM53.6594 71.1499V72.1849H56.2694V71.1499H53.6594ZM52.8794 66.0199V78.5899H54.0494V66.0199H52.8794ZM46.1294 74.8999V75.9349H47.0144C49.0544 75.9349 50.4194 75.8749 52.0394 75.5299L51.9194 74.4949C50.3444 74.8249 48.9944 74.8999 47.0144 74.8999H46.1294ZM46.1294 67.3699V75.3649H47.3594V68.3899H51.1694V67.3699H46.1294Z" fill="#7D7D7D"/>
<path d="M8 19.7126C8.33671 19.1676 8.85508 18.9953 9.4502 19.0674C9.94038 19.1269 10.0046 18.9107 10.0046 18.4863C9.98893 14.3853 9.98893 10.2842 10.0046 6.18314C10.0077 3.24986 11.9152 0.863138 14.7201 0.206946C18.1905 -0.602722 21.7456 2.0377 21.9617 5.59742C22.004 6.29903 21.9805 7.0069 22.0024 7.70538C22.0118 7.97945 21.9194 8.06558 21.6359 8.08124C19.9931 8.17208 19.9477 8.17834 20.0025 6.52298C20.0824 4.07205 18.6181 2.74714 17.3182 2.30551C14.7217 1.42536 12.0828 3.19191 12.0217 5.99521C11.9309 10.2393 11.9982 14.4678 11.9873 18.7072C11.9873 18.9984 12.0891 19.0861 12.36 19.0627C12.5351 19.0486 12.7111 19.0486 12.8862 19.0627C13.6348 19.1143 13.9825 19.4651 13.9825 20.2153C13.9934 21.0156 14.0028 21.8174 13.9825 22.6161C13.9699 22.9794 14.0796 23.075 14.4413 23.0781C15.9902 23.0969 16.0074 23.1094 15.9839 21.5559C15.9667 20.5066 16.1578 19.5591 16.8797 18.7369C17.3402 18.2138 17.2587 17.8552 16.6918 17.1317C16.2234 16.549 15.9765 15.8193 15.9948 15.0719C16.0132 14.3246 16.2956 13.6078 16.792 13.0489C17.4842 12.2846 18.3753 12.0027 19.3776 12.0795C19.8475 12.1155 20.015 11.9933 20.0041 11.4875C19.9743 10.067 20.0041 10.0905 21.4136 10.0592C21.9116 10.0482 22.0541 10.2002 22.0102 10.6856C21.9726 11.1101 21.8724 11.6363 22.0713 11.9385C22.2937 12.2862 22.8544 12.0356 23.2741 12.0951C24.4173 12.2345 25.2583 12.8061 25.7172 13.8476C26.1964 14.9438 26.1165 16.0244 25.4039 17.0079C24.6491 18.0588 24.6303 18.1042 25.4039 19.1237C25.8471 19.711 25.9928 20.386 26.0038 21.1017C26.0132 21.6295 26.021 22.1572 26.0038 22.6835C25.9928 22.9857 26.0883 23.1032 26.4 23.0844C26.7696 23.0609 27.1423 23.0844 27.5135 23.0844C32.1601 23.0844 36.8082 23.0844 41.4517 23.0953C41.8823 23.0953 41.9998 23.0029 42.0014 22.5566C42.0014 21.1925 41.8996 19.8238 42.0656 18.4613C42.1997 17.3289 42.7213 16.2778 43.5419 15.486C44.3625 14.6942 45.4316 14.2106 46.5681 14.1169C46.6855 14.106 46.803 14.0997 46.9189 14.095C47.929 14.0527 47.929 14.0527 48.0402 15.0347C48.3706 14.8593 48.6886 14.6854 49.0127 14.5241C49.8616 14.1044 50.7746 14.0762 51.697 14.0872C51.9304 14.0872 52.0102 14.1718 51.9961 14.4004C51.9836 14.593 51.9961 14.7872 51.9961 15.0785C52.2843 14.911 52.5035 14.7763 52.7306 14.6557C53.6546 14.1608 54.6538 14.0606 55.6811 14.0903C55.938 14.0903 56.0304 14.1843 56.0085 14.4349C55.9928 14.6244 56.0085 14.8154 56.0085 15.0879C56.9669 14.4615 57.9332 14.0982 59.0169 14.0935C59.9801 14.0935 59.9785 14.0747 60.0349 15.0331C60.4013 14.8436 60.7474 14.6494 61.1076 14.4834C61.9455 14.0935 62.8429 14.0778 63.7434 14.0919C64.1693 14.0919 64.0002 14.4145 64.0018 14.6009C64.0112 17.2366 64.0237 19.8739 63.9939 22.5096C63.9939 23.017 64.1396 23.1361 64.611 23.1C65.2922 23.0593 65.9766 23.0859 66.661 23.0906C67.6696 23.0906 67.9969 23.4226 68 24.4187C68 25.5118 68 26.6049 68 27.6981C68 28.763 67.668 29.095 66.5905 29.095H42.7515C41.992 29.095 41.9685 29.095 41.9967 29.8702C42.0405 31.5413 41.9559 33.1935 41.2136 34.7251C39.5254 38.2253 36.7017 40.0185 32.8397 40.0764C28.9543 40.1344 25.0672 40.114 21.1818 40.0764C15.89 40.0357 12.0092 36.108 11.9904 30.8209C11.9904 30.373 11.9732 29.9219 11.9904 29.474C12.0061 29.178 11.9278 29.0637 11.6083 29.0762C10.9646 29.1029 10.3178 29.0559 9.67572 29.0919C9.03362 29.1279 8.4526 29.0105 8 28.5015V19.7126ZM27.0139 29.0747C22.8544 29.0747 18.6948 29.0747 14.5353 29.0653C14.1156 29.0653 13.9402 29.1342 13.9793 29.5993C14.0294 30.1803 13.9793 30.7707 14.0075 31.3549C14.208 34.9835 16.9267 37.8589 20.5428 38.0029C24.8918 38.1768 29.2534 38.2003 33.5993 37.9873C36.4402 37.8479 38.39 36.2113 39.5113 33.6022C40.061 32.3259 39.9811 30.9728 40.0062 29.6259C40.0062 29.1561 39.884 29.0574 39.433 29.059C35.2938 29.0825 31.1531 29.0747 27.0139 29.0747V29.0747ZM38.0517 25.0733H11.2888C9.99833 25.0733 10.0359 25.0733 9.98267 26.3669C9.95605 26.9777 10.1393 27.0857 10.7172 27.0857C28.675 27.0701 46.6354 27.0659 64.5985 27.0732C66.0079 27.0732 65.9813 27.0732 66.0205 25.6528C66.033 25.1438 65.8732 25.0608 65.405 25.0623C56.2851 25.077 47.1674 25.0806 38.0517 25.0733V25.0733ZM21.0205 23.0703C21.8599 23.0703 22.6993 23.0562 23.5387 23.0703C23.8864 23.0797 24.018 22.9904 24.0086 22.6177C23.9898 21.5371 24.054 20.5113 23.2756 19.5387C22.4801 18.5427 22.715 17.1755 23.5888 16.0934C23.949 15.6439 24.1198 15.1725 23.8801 14.6385C23.6405 14.1044 23.1535 14.0621 22.6382 14.0684C21.5451 14.083 20.452 14.083 19.3588 14.0684C18.8452 14.0684 18.3565 14.1076 18.106 14.6306C17.8554 15.1537 18.0339 15.6376 18.391 16.0855C19.4199 17.3713 19.4184 18.7573 18.4004 20.0305C18.1385 20.3227 17.9892 20.6985 17.9791 21.0907C17.9791 21.6169 17.9948 22.1447 17.9791 22.6709C17.9682 22.9841 18.07 23.0812 18.3785 23.075C19.2633 23.0609 20.1419 23.0703 21.0205 23.0703ZM54.0023 19.6546C54.0023 18.679 53.9819 17.7033 54.0101 16.7276C54.0242 16.2359 53.8535 16.2578 53.5199 16.4583C52.6727 16.9813 52.1105 17.7111 52.0463 18.7166C51.9836 19.6687 52.0008 20.6272 51.9977 21.5825C51.9977 23.1329 51.9977 23.122 53.5826 23.0797C53.9209 23.0703 54.0133 22.9654 54.0086 22.6412C53.9913 21.6451 54.0023 20.6507 54.0023 19.6546ZM58.0068 19.6813C58.0068 18.6696 57.9974 17.6579 58.0068 16.6462C58.0068 16.2782 57.8972 16.25 57.6074 16.4128C56.6678 16.9328 56.1024 17.7096 56.0413 18.7776C55.9818 19.7173 56.01 20.646 56.0085 21.5794C56.0085 23.0969 56.0085 23.0797 57.515 23.0828C57.9488 23.0828 58.0256 22.9262 58.0162 22.5425C57.9911 21.5888 58.0068 20.635 58.0068 19.6813ZM62.0081 19.6578C62.0081 18.6445 62.0003 17.6313 62.0081 16.6196C62.0081 16.2969 61.9204 16.2437 61.6417 16.394C60.677 16.914 60.0991 17.708 60.0302 18.7996C59.9707 19.7298 60.0035 20.6679 60.0035 21.6029C60.0035 22.0727 59.8469 22.685 60.0834 22.9607C60.3622 23.2864 61.0011 23.0108 61.4772 23.0765C61.9533 23.1423 62.0269 22.9419 62.0144 22.5206C61.9862 21.5668 62.0081 20.6115 62.0081 19.6578ZM45.9902 16.2954C44.7577 16.7198 44.0279 17.7644 43.9934 19.1143C43.9715 19.9334 43.9934 20.754 43.9934 21.5731C43.9934 23.2363 43.9934 23.2285 45.677 23.0844C45.9416 23.0624 45.9996 22.9669 45.9902 22.7304C45.9886 20.5974 45.9902 18.4707 45.9902 16.2954ZM49.9915 19.711C49.9915 18.7166 49.9696 17.7221 50.0009 16.7354C50.0166 16.228 49.8287 16.2656 49.5076 16.4708C48.4912 17.0972 48.0089 18.0196 47.9932 19.1973C47.9822 19.9976 47.9932 20.7963 47.9932 21.5966C47.9932 23.111 47.9932 23.0938 49.5233 23.0906C49.9289 23.0906 50.0103 22.9528 50.0025 22.5848C49.9712 21.6232 49.9915 20.6663 49.9915 19.711ZM9.9952 22.0398C9.9952 23.0703 9.9952 23.0703 11.0257 23.0703C11.992 23.0703 11.992 23.0703 11.992 22.0946C11.992 21.0673 11.992 21.0673 10.963 21.0673C9.9952 21.0673 9.9952 21.0673 9.9952 22.0398Z" fill="#D2D2D2"/>
</svg>
