<svg width="80" height="54" viewBox="0 0 80 54" fill="none" xmlns="http://www.w3.org/2000/svg">
<path d="M0 26.2034C0.448946 25.4767 1.14011 25.247 1.9336 25.3431C2.58718 25.4224 2.67279 25.1343 2.67279 24.5684C2.65191 19.1003 2.65191 13.6322 2.67279 8.16411C2.67697 4.25307 5.2203 1.07077 8.96012 0.19585C13.5874 -0.883707 18.3274 2.63686 18.6156 7.38316C18.672 8.31863 18.6406 9.26246 18.6699 10.1938C18.6824 10.5592 18.5592 10.674 18.1812 10.6949C15.9908 10.816 15.9303 10.8244 16.0033 8.61723C16.1098 5.34933 14.1574 3.58278 12.4243 2.99393C8.9622 1.82041 5.44373 4.17581 5.36229 7.91354C5.24118 13.5723 5.33097 19.2103 5.31635 24.8628C5.31635 25.2512 5.45208 25.3681 5.81332 25.3368C6.04681 25.318 6.28144 25.318 6.51493 25.3368C7.51305 25.4057 7.97661 25.8734 7.97661 26.8737C7.99123 27.9407 8.00376 29.0098 7.97661 30.0747C7.95991 30.5592 8.10608 30.6866 8.58843 30.6907C10.6536 30.7158 10.6766 30.7325 10.6452 28.6611C10.6223 27.262 10.877 25.9987 11.8396 24.9025C12.4535 24.205 12.345 23.7269 11.5891 22.7621C10.9645 21.9853 10.6353 21.0123 10.6597 20.0158C10.6842 19.0193 11.0608 18.0637 11.7227 17.3184C12.6456 16.2994 13.8338 15.9236 15.1702 16.0259C15.7966 16.0739 16.02 15.911 16.0054 15.2366C15.9658 13.3426 16.0054 13.374 17.8847 13.3322C18.5488 13.3176 18.7388 13.5201 18.6803 14.1675C18.6302 14.7333 18.4966 15.4349 18.7617 15.8379C19.0583 16.3015 19.8058 15.9674 20.3654 16.0468C21.8897 16.2326 23.0111 16.9948 23.6229 18.3834C24.2619 19.845 24.1554 21.2858 23.2053 22.5972C22.1988 23.9983 22.1737 24.0589 23.2053 25.4182C23.7962 26.2013 23.9904 27.1013 24.005 28.0555C24.0175 28.7592 24.028 29.4629 24.005 30.1645C23.9904 30.5675 24.1178 30.7241 24.5333 30.6991C25.0261 30.6678 25.5231 30.6991 26.018 30.6991C32.2134 30.6991 38.4109 30.6991 44.6022 30.7137C45.1764 30.7137 45.3331 30.5905 45.3351 29.9954C45.3351 28.1766 45.1994 26.3516 45.4208 24.535C45.5997 23.0251 46.2951 21.6236 47.3892 20.5679C48.4833 19.5122 49.9088 18.8673 51.4241 18.7425C51.5807 18.7279 51.7373 18.7196 51.8918 18.7133C53.2387 18.6569 53.2387 18.6569 53.3869 19.9662C53.8275 19.7323 54.2514 19.5005 54.6837 19.2854C55.8154 18.7258 57.0328 18.6882 58.2627 18.7028C58.5738 18.7028 58.6803 18.8156 58.6615 19.1205C58.6448 19.3773 58.6615 19.6362 58.6615 20.0246C59.0457 19.8012 59.3381 19.6216 59.6408 19.4608C60.8728 18.801 62.2051 18.6673 63.5749 18.707C63.9173 18.707 64.0405 18.8323 64.0113 19.1664C63.9904 19.4191 64.0113 19.6738 64.0113 20.0372C65.2892 19.2019 66.5776 18.7175 68.0226 18.7112C69.3067 18.7112 69.3047 18.6861 69.3798 19.9641C69.8685 19.7114 70.3299 19.4525 70.8102 19.2311C71.9273 18.7112 73.1238 18.6903 74.3245 18.7091C74.8925 18.7091 74.6669 19.1393 74.669 19.3877C74.6816 22.9021 74.6983 26.4184 74.6586 29.9327C74.6586 30.6093 74.8528 30.768 75.4813 30.72C76.3896 30.6657 77.3022 30.7012 78.2147 30.7074C79.5594 30.7074 79.9958 31.1501 80 32.4782C80 33.9357 80 35.3932 80 36.8507C80 38.2706 79.5573 38.7133 78.1207 38.7133H46.3354C45.3226 38.7133 45.2913 38.7133 45.3289 39.7469C45.3873 41.9749 45.2746 44.1779 44.2848 46.2201C42.0338 50.887 38.269 53.2779 33.1197 53.3552C27.939 53.4324 22.7563 53.4053 17.5757 53.3552C10.5199 53.3009 5.34558 48.0639 5.32053 41.0144C5.32053 40.4172 5.29756 39.8158 5.32053 39.2186C5.34141 38.824 5.237 38.6715 4.81103 38.6882C3.95281 38.7237 3.09042 38.6611 2.23429 38.7091C1.37816 38.7571 0.603466 38.6005 0 37.9219V26.2034ZM25.3518 38.6861C19.8058 38.6861 14.2598 38.6861 8.71372 38.6736C8.1541 38.6736 7.92023 38.7655 7.97244 39.3857C8.03926 40.1604 7.97244 40.9476 8.01002 41.7264C8.2773 46.5646 11.9023 50.3984 16.7237 50.5905C22.5224 50.8223 28.3379 50.8536 34.1324 50.5696C37.9202 50.3838 40.5199 48.2017 42.015 44.7229C42.748 43.0211 42.6415 41.2169 42.6749 39.4212C42.6749 38.7947 42.512 38.6632 41.9106 38.6653C36.3917 38.6966 30.8707 38.6861 25.3518 38.6861ZM40.0689 33.351H4.38505C2.66444 33.351 2.71455 33.351 2.64356 35.0758C2.60806 35.8901 2.85237 36.0342 3.62289 36.0342C27.5666 36.0134 51.5139 36.0078 75.4646 36.0175C77.3439 36.0175 77.3084 36.0175 77.3606 34.1236C77.3773 33.445 77.1643 33.3343 76.54 33.3364C64.3802 33.3559 52.2232 33.3607 40.0689 33.351ZM17.3606 30.6803C18.4799 30.6803 19.5991 30.6615 20.7183 30.6803C21.1819 30.6928 21.3573 30.5738 21.3447 30.0768C21.3197 28.636 21.4053 27.2683 20.3675 25.9716C19.3067 24.6435 19.62 22.8206 20.7851 21.3777C21.2654 20.7784 21.493 20.1499 21.1735 19.4379C20.854 18.7258 20.2046 18.6694 19.5176 18.6778C18.0601 18.6973 16.6026 18.6973 15.1451 18.6778C14.4602 18.6778 13.8087 18.73 13.4746 19.4274C13.1405 20.1249 13.3786 20.7701 13.8547 21.3673C15.2266 23.0816 15.2245 24.9296 13.8672 26.6273C13.5181 27.0168 13.3189 27.5179 13.3055 28.0409C13.3055 28.7425 13.3264 29.4462 13.3055 30.1478C13.2909 30.5654 13.4266 30.6949 13.838 30.6866C15.0177 30.6678 16.1892 30.6803 17.3606 30.6803ZM61.3364 26.1261C61.3364 24.8252 61.3093 23.5243 61.3468 22.2234C61.3656 21.5677 61.138 21.597 60.6933 21.8643C59.5636 22.5617 58.8139 23.5348 58.7283 24.8753C58.6448 26.1449 58.6678 27.4228 58.6636 28.6966C58.6636 30.7638 58.6636 30.7492 60.7768 30.6928C61.2278 30.6803 61.351 30.5404 61.3447 30.1082C61.3218 28.7801 61.3364 27.4542 61.3364 26.1261ZM66.6757 26.1616C66.6757 24.8127 66.6632 23.4638 66.6757 22.1148C66.6757 21.6241 66.5295 21.5865 66.1432 21.8037C64.8904 22.497 64.1366 23.5327 64.0551 24.9568C63.9758 26.2096 64.0134 27.4479 64.0113 28.6924C64.0113 30.7158 64.0113 30.6928 66.0201 30.697C66.5985 30.697 66.7008 30.4882 66.6882 29.9766C66.6548 28.7049 66.6757 27.4333 66.6757 26.1616ZM72.0109 26.1303C72.0109 24.7793 72.0004 23.4283 72.0109 22.0793C72.0109 21.6492 71.8939 21.5782 71.5222 21.7786C70.236 22.4719 69.4654 23.5306 69.3736 24.986C69.2942 26.2263 69.3381 27.4771 69.3381 28.7237C69.3381 29.3502 69.1293 30.1666 69.4446 30.5341C69.8162 30.9685 70.6682 30.6009 71.303 30.6886C71.9378 30.7763 72.0359 30.5091 72.0192 29.9474C71.9816 28.6757 72.0109 27.4019 72.0109 26.1303ZM50.6536 21.6471C49.0102 22.213 48.0372 23.6057 47.9912 25.4057C47.962 26.4978 47.9912 27.592 47.9912 28.6841C47.9912 30.9016 47.9912 30.8912 50.236 30.6991C50.5889 30.6699 50.6661 30.5425 50.6536 30.2272C50.6515 27.3832 50.6536 24.5475 50.6536 21.6471ZM55.9887 26.2013C55.9887 24.8753 55.9595 23.5494 56.0013 22.2339C56.0221 21.5573 55.7716 21.6074 55.3435 21.881C53.9883 22.7162 53.3452 23.9461 53.3243 25.5164C53.3097 26.5834 53.3243 27.6483 53.3243 28.7154C53.3243 30.7346 53.3243 30.7116 55.3644 30.7074C55.9052 30.7074 56.0138 30.5237 56.0033 30.033C55.9616 28.7509 55.9887 27.475 55.9887 26.2013ZM2.66026 29.3063C2.66026 30.6803 2.66026 30.6803 4.03425 30.6803C5.32261 30.6803 5.32261 30.6803 5.32261 29.3794C5.32261 28.0096 5.32261 28.0096 3.95072 28.0096C2.66026 28.0096 2.66026 28.0096 2.66026 29.3063Z" fill="#D2D2D2"/>
</svg>
