<svg width="80" height="46" viewBox="0 0 80 46" fill="none" xmlns="http://www.w3.org/2000/svg">
<path d="M80 7.34458C79.4343 8.22155 78.5965 8.45645 77.5962 8.4173C76.453 8.37228 75.3039 8.43296 74.1607 8.39577C73.6537 8.37815 73.4932 8.53475 73.4639 9.03783C73.2113 13.3248 72.9353 17.6117 72.6632 21.8967C72.2717 28.1608 71.8718 34.4248 71.4633 40.6888C71.3909 41.832 71.3243 42.9752 71.2538 44.1184C71.1795 45.3223 70.5785 45.9154 69.3727 45.935C68.2804 45.9506 67.1861 45.935 66.0919 45.935C64.6629 45.935 64.0639 45.3242 64.0639 43.8815C64.0639 32.3453 64.0698 20.8103 64.0815 9.27665C64.0815 8.56803 63.9073 8.39772 63.2006 8.39772C47.6815 8.41077 32.1623 8.40751 16.6432 8.38793C15.9267 8.38793 15.7662 8.57194 15.7682 9.27077C15.7917 20.7287 15.7969 32.1861 15.7838 43.6427C15.7858 45.4143 15.2729 45.9252 13.5112 45.9271C12.4952 45.9271 11.4793 45.9389 10.4653 45.9271C9.2575 45.9056 8.66634 45.3144 8.58999 44.1066C7.92966 33.7397 7.26672 23.374 6.60116 13.0096C6.51699 11.6844 6.4289 10.3591 6.38192 9.03196C6.3643 8.52888 6.18617 8.37815 5.68309 8.39381C4.45965 8.431 3.2362 8.41338 2.0108 8.39381C0.619009 8.38989 0.0141376 7.78306 0.00435002 6.40302C-0.00543753 5.02297 0.00435002 3.59203 0.00435002 2.18458C0.00435002 0.569636 0.556368 0.0137026 2.15761 0.0117451H11.0545C33.2918 0.0117451 55.5285 0.00783004 77.7645 0C78.7863 0 79.5791 0.252519 80 1.25085V7.34458ZM40.0041 5.19132H75.8599C76.0693 5.19132 76.2768 5.19132 76.4843 5.19132C76.5841 5.19132 76.7642 5.14042 76.7642 5.1091C76.7877 4.53947 76.8758 3.95221 76.7642 3.40607C76.6938 3.0635 76.222 3.23381 75.9362 3.23381C51.9802 3.22598 28.0242 3.22598 4.06814 3.23381C3.88609 3.23381 3.70209 3.23381 3.522 3.23381C3.42412 3.2436 3.25969 3.28275 3.2499 3.3356C3.12178 3.89298 3.11777 4.47171 3.23816 5.0308C3.31646 5.36358 3.78235 5.1874 4.06814 5.1874C16.0481 5.19132 28.0268 5.19067 40.0041 5.18545V5.19132ZM12.599 25.5729C12.599 20.0801 12.599 14.5874 12.6107 9.0946C12.6107 8.56215 12.4894 8.35074 11.9276 8.39577C11.3303 8.44666 10.7298 8.44666 10.1325 8.39577C9.58049 8.34879 9.49828 8.5739 9.53156 9.0574C9.72731 11.7568 9.88195 14.4582 10.0542 17.1595C10.4535 23.4236 10.8542 29.6817 11.2561 35.934C11.3912 38.0364 11.5498 40.1388 11.6594 42.2431C11.6868 42.7579 11.9452 42.7794 12.3132 42.7305C12.783 42.6659 12.5911 42.2901 12.5911 42.0513C12.6068 36.5533 12.6114 31.0585 12.6049 25.5671L12.599 25.5729ZM67.2331 25.6336C67.2331 31.099 67.2331 36.5657 67.2331 42.0336C67.2331 42.3312 67.0667 42.7227 67.654 42.7481C68.2021 42.7716 68.1453 42.4388 68.1668 42.1041C68.4096 38.3653 68.6523 34.6258 68.895 30.8856C69.19 26.2894 69.4849 21.6925 69.7798 17.0949C69.9501 14.419 70.1048 11.7431 70.3025 9.06915C70.3456 8.50147 70.1792 8.34487 69.6369 8.39381C69.1162 8.44614 68.5916 8.44614 68.0709 8.39381C67.3995 8.31942 67.1979 8.51713 67.2038 9.22967C67.2546 14.6931 67.239 20.1624 67.239 25.6277L67.2331 25.6336Z" fill="#D2D2D2"/>
</svg>
