<svg width="76" height="75" viewBox="0 0 76 75" fill="none" xmlns="http://www.w3.org/2000/svg">
<path d="M28.4762 60.965V62.285C28.4762 64.31 27.1112 66.185 25.0562 66.935L25.6862 67.925C27.9812 67.055 29.5112 64.85 29.5112 62.285V60.965H28.4762ZM28.7012 60.965V62.285C28.7012 64.775 30.2312 66.845 32.4962 67.67L33.1262 66.695C31.1162 65.99 29.7212 64.235 29.7212 62.285V60.965H28.7012ZM27.0062 69.17V70.19H34.8062V73.88H36.0662V69.17H27.0062ZM34.8062 60.32V68.48H36.0662V60.32H34.8062ZM39.365 66.8V67.82H40.4C43.16 67.82 44.72 67.76 46.58 67.43L46.445 66.425C44.63 66.74 43.115 66.8 40.4 66.8H39.365ZM39.365 61.235V67.19H40.595V62.255H45.56V61.235H39.365ZM40.205 63.98V64.985H45.305V63.98H40.205ZM48.02 60.32V68.525H49.265V60.32H48.02ZM48.92 63.905V64.955H51.275V63.905H48.92ZM40.46 69.2V70.22H48.02V73.88H49.265V69.2H40.46Z" fill="#7D7D7D"/>
<path d="M68 5.75844C67.5757 6.41616 66.9473 6.59234 66.1971 6.56297C65.3397 6.52921 64.4779 6.57472 63.6206 6.54682C63.2403 6.53361 63.1199 6.65106 63.0979 7.02837C62.9085 10.2436 62.7015 13.4588 62.4974 16.6725C62.2038 21.3706 61.9038 26.0686 61.5975 30.7666C61.5431 31.624 61.4932 32.4814 61.4404 33.3388C61.3846 34.2417 60.9339 34.6865 60.0295 34.7012C59.2103 34.713 58.3896 34.7012 57.5689 34.7012C56.4972 34.7012 56.0479 34.2432 56.0479 33.1611C56.0479 24.5089 56.0523 15.8577 56.0611 7.20748C56.0611 6.67602 55.9305 6.54829 55.4005 6.54829C43.7611 6.55808 32.1218 6.55563 20.4824 6.54095C19.9451 6.54095 19.8247 6.67896 19.8261 7.20308C19.8438 15.7966 19.8477 24.3895 19.8379 32.982C19.8394 34.3107 19.4547 34.6939 18.1334 34.6953C17.3714 34.6953 16.6095 34.7042 15.849 34.6953C14.9431 34.6792 14.4998 34.2358 14.4425 33.33C13.9472 25.5547 13.45 17.7805 12.9509 10.0072C12.8877 9.01329 12.8217 8.01936 12.7864 7.02397C12.7732 6.64666 12.6396 6.53361 12.2623 6.54536C11.3447 6.57325 10.4272 6.56004 9.5081 6.54536C8.46426 6.54242 8.0106 6.0873 8.00326 5.05226C7.99592 4.01723 8.00326 2.94402 8.00326 1.88844C8.00326 0.677227 8.41728 0.260277 9.61821 0.258809H16.2909C32.9689 0.258809 49.6464 0.255873 66.3234 0.25C67.0898 0.25 67.6844 0.439389 68 1.18814V5.75844ZM38.0031 4.14349H64.8949C65.052 4.14349 65.2076 4.14349 65.3632 4.14349C65.4381 4.14349 65.5732 4.10532 65.5732 4.08183C65.5908 3.6546 65.6569 3.21416 65.5732 2.80455C65.5203 2.54763 65.1665 2.67536 64.9522 2.67536C46.9851 2.66948 29.0181 2.66948 11.0511 2.67536C10.9146 2.67536 10.7766 2.67536 10.6415 2.67536C10.5681 2.6827 10.4448 2.71206 10.4374 2.7517C10.3413 3.16973 10.3383 3.60378 10.4286 4.0231C10.4873 4.27269 10.8368 4.14055 11.0511 4.14055C20.0361 4.14349 29.0201 4.143 38.0031 4.13909V4.14349ZM17.4492 19.4297C17.4492 15.3101 17.4492 11.1905 17.458 7.07095C17.458 6.67162 17.367 6.51306 16.9457 6.54682C16.4977 6.585 16.0473 6.585 15.5994 6.54682C15.1854 6.51159 15.1237 6.68042 15.1487 7.04305C15.2955 9.06761 15.4115 11.0936 15.5407 13.1197C15.8402 17.8177 16.1406 22.5113 16.4421 27.2005C16.5434 28.7773 16.6623 30.3541 16.7445 31.9323C16.7651 32.3184 16.9589 32.3346 17.2349 32.2979C17.5872 32.2494 17.4434 31.9676 17.4434 31.7884C17.4551 27.6649 17.4585 23.5439 17.4536 19.4253L17.4492 19.4297ZM58.4248 19.4752C58.4248 23.5742 58.4248 27.6742 58.4248 31.7752C58.4248 31.9984 58.3 32.292 58.7405 32.3111C59.1516 32.3287 59.109 32.0791 59.1251 31.8281C59.3072 29.0239 59.4892 26.2193 59.6713 23.4142C59.8925 19.967 60.1137 16.5194 60.3349 13.0712C60.4626 11.0643 60.5786 9.05733 60.7269 7.05186C60.7592 6.6261 60.6344 6.50865 60.2277 6.54536C59.8372 6.5846 59.4437 6.5846 59.0532 6.54536C58.5496 6.48957 58.3984 6.63785 58.4028 7.17225C58.441 11.2698 58.4292 15.3718 58.4292 19.4708L58.4248 19.4752Z" fill="#D2D2D2"/>
</svg>
