<svg width="48" height="51" viewBox="0 0 48 51" fill="none" xmlns="http://www.w3.org/2000/svg">
<path d="M47.9895 25.3804C47.9895 33.4024 47.993 41.4249 48 49.4479C48 49.8873 47.9312 50.0489 47.4014 50.0389C45.3855 50.0035 43.3696 50.012 41.3552 50.0389C40.9167 50.0389 40.7281 49.9369 40.8149 49.5202C40.9301 48.9745 40.6817 48.8739 40.1354 48.8753C29.366 48.8923 18.5971 48.8923 7.82864 48.8753C7.32728 48.8753 7.10878 48.983 7.21055 49.4677C7.31232 49.9525 7.07885 50.0446 6.60144 50.0347C4.60599 50.0082 2.61054 50.0082 0.615097 50.0347C0.134693 50.0432 0 49.9426 0 49.4649C0.0209522 44.5709 0.0134693 39.6755 0.0134693 34.7814V1.58917C0.0134693 0.336255 0.371153 0.00034942 1.71209 0.00034942H46.3358C46.7474 0.00034942 47.1574 -0.0194931 47.5121 0.239877C47.9027 0.523342 47.9955 0.908853 47.9955 1.35956C47.9865 9.36555 47.9845 17.3725 47.9895 25.3804ZM25.2145 17.6007C25.2145 22.5485 25.222 27.4964 25.204 32.4443C25.204 32.8865 25.3162 32.9928 25.7817 32.9914C32.2 32.9744 38.6194 32.9744 45.0398 32.9914C45.4992 32.9914 45.6249 32.8851 45.6234 32.4415C45.6095 22.5627 45.6095 12.684 45.6234 2.80523C45.6234 2.38003 45.4917 2.28649 45.0637 2.28791C38.6254 2.30114 32.1901 2.30114 25.7577 2.28791C25.3088 2.28791 25.2115 2.40271 25.213 2.8109C25.2205 7.73893 25.2145 12.6698 25.2145 17.6007ZM22.796 17.6531C22.796 12.7057 22.799 7.7583 22.805 2.8109C22.805 2.41405 22.7272 2.28366 22.2707 2.28507C15.8334 2.30019 9.39806 2.30019 2.96474 2.28507C2.47835 2.28224 2.39454 2.4098 2.39454 2.835C2.40851 12.7109 2.40851 22.5877 2.39454 32.4655C2.39454 32.861 2.47086 32.9914 2.92732 32.99C9.36464 32.9729 15.8 32.9729 22.2333 32.99C22.7107 32.99 22.8005 32.8695 22.799 32.44C22.79 27.512 22.796 22.5826 22.796 17.6531ZM23.9843 39.7761C31.0202 39.7761 38.0542 39.7789 45.0861 39.7846C45.4887 39.7846 45.6339 39.718 45.6204 39.2999C45.586 38.166 45.5755 37.0322 45.6204 35.9082C45.6429 35.3626 45.4917 35.2137 44.8991 35.2152C37.7155 35.2364 30.5318 35.2293 23.3482 35.2293C16.5368 35.2293 9.72531 35.226 2.91385 35.2194C2.49331 35.2194 2.38256 35.3129 2.39304 35.7126C2.42297 36.8777 2.42746 38.0455 2.39304 39.2106C2.37957 39.6613 2.47984 39.7903 2.99168 39.7889C9.98772 39.7709 16.9853 39.7667 23.9843 39.7761ZM24.0097 46.5892C31.0257 46.5892 38.0422 46.592 45.0592 46.5977C45.4797 46.5977 45.6384 46.5211 45.6249 46.0832C45.589 44.9493 45.5815 43.8155 45.6249 42.6915C45.6459 42.1756 45.4947 42.0566 44.9559 42.058C34.1506 42.074 23.3457 42.0783 12.5414 42.0707C9.31325 42.0707 6.08362 42.0707 2.85549 42.0622C2.49182 42.0622 2.38855 42.1487 2.39603 42.4959C2.41998 43.6624 2.42896 44.8288 2.39603 45.9953C2.38256 46.4588 2.49032 46.6033 3.01712 46.6019C10.0142 46.584 17.0117 46.5797 24.0097 46.5892Z" fill="#D2D2D2"/>
<path d="M31.1904 19.9098C31.1904 20.4768 31.1904 21.0437 31.1904 21.6007C31.1952 21.7504 31.1682 21.8995 31.111 22.0391C31.0538 22.1787 30.9676 22.306 30.8575 22.4135C30.7474 22.521 30.6156 22.6064 30.4699 22.6647C30.3242 22.723 30.1677 22.753 30.0096 22.753C29.8557 22.755 29.7029 22.7282 29.56 22.6739C29.4171 22.6197 29.287 22.5392 29.1772 22.4371C29.0674 22.3349 28.98 22.2132 28.9202 22.0788C28.8604 21.9445 28.8293 21.8003 28.8288 21.6545C28.8063 20.4739 28.8033 19.2933 28.8288 18.1112C28.8297 17.9651 28.8621 17.8206 28.9241 17.6868C28.9862 17.553 29.0764 17.4325 29.1894 17.333C29.3024 17.2334 29.4357 17.1568 29.5811 17.1078C29.7266 17.0588 29.881 17.0386 30.035 17.0482C30.1886 17.0476 30.3408 17.0762 30.4826 17.1322C30.6243 17.1883 30.7528 17.2706 30.8603 17.3745C30.9679 17.4784 31.0524 17.6016 31.1088 17.7369C31.1653 17.8722 31.1925 18.0168 31.1889 18.1623C31.1994 18.7462 31.1904 19.3287 31.1904 19.9098Z" fill="#D2D2D2"/>
<path d="M19.2057 19.9252C19.2057 20.4722 19.2147 21.0179 19.2057 21.565C19.1908 22.2623 18.6715 22.7641 17.992 22.7541C17.8339 22.7512 17.6779 22.7186 17.5331 22.6583C17.3884 22.5979 17.2577 22.511 17.1486 22.4026C17.0395 22.2941 16.9541 22.1663 16.8975 22.0264C16.8409 21.8865 16.8141 21.7374 16.8187 21.5877C16.8037 20.4538 16.8022 19.3313 16.8187 18.2045C16.8306 17.5143 17.3245 17.0537 17.9935 17.0522C18.6924 17.0522 19.1908 17.5228 19.2027 18.2343C19.2162 18.797 19.2057 19.3611 19.2057 19.9252Z" fill="#D2D2D2"/>
<path d="M24.0338 38.6352C23.715 38.6413 23.4066 38.5277 23.1758 38.3193C22.9451 38.1109 22.8108 37.8245 22.8021 37.5226C22.8063 37.2219 22.9334 36.9345 23.1566 36.7206C23.3799 36.5068 23.682 36.3833 23.9994 36.376C24.3089 36.3786 24.6056 36.4935 24.8283 36.6971C25.0511 36.9006 25.1829 37.1773 25.1967 37.4701C25.2055 37.7707 25.088 38.0622 24.8699 38.2807C24.6519 38.4991 24.3511 38.6267 24.0338 38.6352Z" fill="#D2D2D2"/>
<path d="M23.9948 45.4724C23.8364 45.4697 23.6801 45.4375 23.5348 45.3776C23.3896 45.3177 23.2582 45.2313 23.1482 45.1233C23.0382 45.0153 22.9518 44.8879 22.8938 44.7482C22.8358 44.6086 22.8074 44.4595 22.8103 44.3095C22.8131 44.1595 22.8471 44.0115 22.9104 43.8739C22.9736 43.7363 23.0649 43.6119 23.1789 43.5077C23.2929 43.4036 23.4275 43.3217 23.5749 43.2668C23.7224 43.2119 23.8798 43.185 24.0382 43.1877C24.3581 43.1931 24.6626 43.3187 24.8848 43.5368C25.1069 43.7549 25.2285 44.0476 25.2228 44.3506C25.217 44.6536 25.0844 44.942 24.8541 45.1524C24.6238 45.3627 24.3147 45.4779 23.9948 45.4724Z" fill="#D2D2D2"/>
</svg>
