<svg width="76" height="101" viewBox="0 0 76 101" fill="none" xmlns="http://www.w3.org/2000/svg">
<path d="M66.5421 30.4725C66.5421 40.0914 66.5463 49.7108 66.5547 59.3309C66.5547 59.8577 66.4722 60.0514 65.8369 60.0395C63.4197 59.997 61.0025 60.0072 58.5872 60.0395C58.0614 60.0395 57.8353 59.9172 57.9393 59.4175C58.0775 58.7632 57.7796 58.6426 57.1246 58.6443C44.2115 58.6647 31.2989 58.6647 18.387 58.6443C17.7858 58.6443 17.5238 58.7734 17.6459 59.3546C17.7679 59.9359 17.4879 60.0463 16.9155 60.0344C14.5228 60.0027 12.1302 60.0027 9.73754 60.0344C9.1615 60.0446 9 59.924 9 59.3512C9.02512 53.483 9.01615 47.6131 9.01615 41.745V1.94554C9.01615 0.443228 9.44503 0.040458 11.0529 0.040458H64.5592C65.0527 0.040458 65.5444 0.0166657 65.9697 0.327665C66.4381 0.667555 66.5493 1.12981 66.5493 1.67023C66.5386 11.2699 66.5362 20.8706 66.5421 30.4725ZM39.2336 21.1442C39.2336 27.077 39.2426 33.0098 39.221 38.9426C39.221 39.4728 39.3556 39.6002 39.9137 39.5985C47.6097 39.5782 55.3068 39.5782 63.0052 39.5985C63.5561 39.5985 63.7068 39.4711 63.705 38.9392C63.6883 27.094 63.6883 15.2488 63.705 3.40367C63.705 2.89383 63.5471 2.78167 63.0339 2.78337C55.314 2.79923 47.5977 2.79923 39.885 2.78337C39.3466 2.78337 39.23 2.92103 39.2318 3.41047C39.2408 9.31945 39.2336 15.2318 39.2336 21.1442ZM36.3337 21.2071C36.3337 15.2749 36.3373 9.34268 36.3444 3.41047C36.3444 2.93462 36.2511 2.77827 35.7038 2.77997C27.9851 2.7981 20.2688 2.7981 12.5549 2.77997C11.9717 2.77657 11.8712 2.92952 11.8712 3.43936C11.8879 15.2811 11.8879 27.124 11.8712 38.9681C11.8712 39.4422 11.9627 39.5985 12.51 39.5968C20.2287 39.5765 27.945 39.5765 35.659 39.5968C36.2314 39.5968 36.3391 39.4524 36.3373 38.9375C36.3265 33.0285 36.3337 27.1178 36.3337 21.2071V21.2071ZM37.7585 47.7338C46.195 47.7338 54.6291 47.7372 63.0608 47.744C63.5435 47.744 63.7176 47.6641 63.7015 47.1628C63.6602 45.8032 63.6476 44.4437 63.7015 43.096C63.7284 42.4417 63.5471 42.2633 62.8365 42.265C54.223 42.2905 45.6094 42.282 36.9958 42.282C28.8285 42.282 20.6612 42.278 12.4939 42.2701C11.9896 42.2701 11.8568 42.3822 11.8694 42.8615C11.9053 44.2584 11.9107 45.6588 11.8694 47.0557C11.8532 47.5962 11.9735 47.7508 12.5872 47.7491C20.9758 47.7276 29.3663 47.7225 37.7585 47.7338ZM37.789 55.9031C46.2016 55.9031 54.6148 55.9065 63.0285 55.9133C63.5328 55.9133 63.723 55.8215 63.7068 55.2964C63.6638 53.9368 63.6548 52.5772 63.7068 51.2296C63.732 50.611 63.5507 50.4682 62.9047 50.4699C49.9485 50.4892 36.9929 50.4943 24.0378 50.4852C20.1671 50.4852 16.2946 50.4852 12.4239 50.475C11.9878 50.475 11.864 50.5787 11.873 50.9951C11.9017 52.3937 11.9125 53.7923 11.873 55.191C11.8568 55.7467 11.986 55.9201 12.6177 55.9184C21.0075 55.8968 29.398 55.8917 37.789 55.9031V55.9031Z" fill="#D2D2D2"/>
<path d="M46.399 23.913C46.399 24.5928 46.399 25.2726 46.399 25.9404C46.4048 26.1199 46.3724 26.2987 46.3039 26.4661C46.2353 26.6335 46.1319 26.7862 45.9999 26.9151C45.8678 27.0439 45.7098 27.1464 45.5351 27.2163C45.3605 27.2862 45.1728 27.3222 44.9832 27.3221C44.7986 27.3246 44.6154 27.2924 44.4441 27.2274C44.2728 27.1623 44.1168 27.0658 43.9851 26.9433C43.8534 26.8208 43.7487 26.6748 43.677 26.5138C43.6053 26.3527 43.568 26.1798 43.5673 26.005C43.5404 24.5894 43.5368 23.1737 43.5673 21.7564C43.5684 21.5812 43.6073 21.408 43.6817 21.2475C43.756 21.087 43.8643 20.9426 43.9998 20.8232C44.1353 20.7038 44.2951 20.612 44.4695 20.5532C44.6438 20.4945 44.829 20.4702 45.0137 20.4818C45.1979 20.4811 45.3803 20.5153 45.5503 20.5825C45.7203 20.6497 45.8743 20.7485 46.0033 20.873C46.1323 20.9975 46.2336 21.1453 46.3013 21.3075C46.3689 21.4698 46.4016 21.6432 46.3972 21.8176C46.4098 22.5178 46.399 23.2162 46.399 23.913Z" fill="#D2D2D2"/>
<path d="M32.0287 23.9316C32.0287 24.5876 32.0395 25.2419 32.0287 25.8979C32.0108 26.734 31.3881 27.3356 30.5734 27.3237C30.3837 27.3202 30.1967 27.2811 30.0232 27.2088C29.8496 27.1364 29.6928 27.0322 29.562 26.9022C29.4312 26.7721 29.3289 26.6188 29.261 26.4511C29.1931 26.2834 29.161 26.1046 29.1665 25.9251C29.1485 24.5655 29.1467 23.2195 29.1665 21.8685C29.1808 21.0408 29.773 20.4885 30.5752 20.4868C31.4132 20.4868 32.0108 21.051 32.0251 21.9042C32.0413 22.5788 32.0287 23.2552 32.0287 23.9316Z" fill="#D2D2D2"/>
<path d="M37.8179 46.3657C37.4357 46.373 37.0658 46.2368 36.7892 45.9869C36.5125 45.737 36.3514 45.3936 36.3411 45.0316C36.3461 44.6711 36.4984 44.3264 36.7661 44.07C37.0338 43.8136 37.396 43.6655 37.7767 43.6567C38.1478 43.6599 38.5035 43.7977 38.7706 44.0417C39.0377 44.2858 39.1957 44.6176 39.2122 44.9687C39.2229 45.329 39.082 45.6786 38.8205 45.9406C38.559 46.2025 38.1984 46.3554 37.8179 46.3657Z" fill="#D2D2D2"/>
<path d="M37.7712 54.564C37.5812 54.5607 37.3938 54.5221 37.2196 54.4503C37.0455 54.3784 36.8879 54.2748 36.7561 54.1453C36.6242 54.0159 36.5205 53.863 36.451 53.6956C36.3814 53.5282 36.3474 53.3494 36.3508 53.1696C36.3542 52.9897 36.395 52.8122 36.4709 52.6472C36.5467 52.4823 36.6561 52.3331 36.7928 52.2082C36.9296 52.0833 37.0909 51.9851 37.2677 51.9193C37.4445 51.8534 37.6333 51.8212 37.8232 51.8244C38.2068 51.831 38.5719 51.9816 38.8383 52.2431C39.1047 52.5046 39.2504 52.8556 39.2435 53.2188C39.2366 53.5821 39.0776 53.9279 38.8015 54.1802C38.5254 54.4324 38.1548 54.5705 37.7712 54.564Z" fill="#D2D2D2"/>
<path d="M24.9362 92.355V93.345H37.1912V92.355H24.9362ZM30.4412 94.26V94.695C30.4412 96.48 28.3562 97.83 25.8812 98.19L26.3762 99.165C29.1362 98.7 31.5062 97.11 31.5062 94.695V94.26H30.4412ZM30.6362 94.26V94.695C30.6362 97.11 32.9912 98.7 35.7512 99.165L36.2462 98.19C33.7712 97.83 31.7012 96.48 31.7012 94.695V94.26H30.6362ZM30.4412 90.66V92.79H31.6712V90.66H30.4412ZM31.0712 85.92C28.1312 85.92 26.3012 86.88 26.3012 88.485C26.3012 90.09 28.1312 91.05 31.0712 91.05C33.9962 91.05 35.8412 90.09 35.8412 88.485C35.8412 86.88 33.9962 85.92 31.0712 85.92ZM31.0712 86.91C33.2162 86.91 34.5662 87.495 34.5662 88.485C34.5662 89.475 33.2162 90.06 31.0712 90.06C28.9112 90.06 27.5762 89.475 27.5762 88.485C27.5762 87.495 28.9112 86.91 31.0712 86.91ZM42.08 87.105V88.2C42.08 90.135 40.73 91.89 38.69 92.61L39.32 93.6C41.6 92.775 43.1 90.69 43.1 88.2V87.105H42.08ZM42.305 87.105V88.185C42.305 90.495 43.745 92.43 46.01 93.18L46.61 92.205C44.615 91.545 43.325 89.955 43.325 88.185V87.105H42.305ZM39.065 86.655V87.675H46.31V86.655H39.065ZM48.02 85.65V93.825H49.265V85.65H48.02ZM48.92 89.085V90.135H51.275V89.085H48.92ZM44.945 94.185C42.185 94.185 40.49 95.1 40.49 96.675C40.49 98.265 42.185 99.18 44.945 99.18C47.705 99.18 49.4 98.265 49.4 96.675C49.4 95.1 47.705 94.185 44.945 94.185ZM44.945 95.19C46.955 95.19 48.185 95.73 48.185 96.675C48.185 97.635 46.955 98.205 44.945 98.205C42.935 98.205 41.705 97.635 41.705 96.675C41.705 95.73 42.935 95.19 44.945 95.19Z" fill="#7D7D7D"/>
</svg>
