<svg width="42" height="56" viewBox="0 0 42 56" fill="none" xmlns="http://www.w3.org/2000/svg">
<path d="M4.25041 56C3.76994 55.7443 3.2491 55.568 2.85612 55.1562C2.16974 54.4388 2.00824 53.5654 2.07418 52.6273C2.1011 52.2451 1.99882 52.0325 1.63275 51.8414C0.687967 51.3474 0.210193 50.5265 0.161743 49.4498C0.161743 49.3246 0.161743 49.1995 0.161743 49.0743C0.161743 34.7187 0.161743 20.363 0.161743 6.00741C0.161743 3.9725 0.993473 2.43286 2.82651 1.48C3.50351 1.14532 4.2518 0.98042 5.00677 0.999539C15.6739 0.999539 26.3406 0.999539 37.0068 0.999539C39.8169 0.999539 41.8518 3.03041 41.8518 5.84456C41.8599 20.3249 41.8599 34.8044 41.8518 49.2829C41.8518 50.4861 41.3324 51.3851 40.2449 51.9086C39.9434 52.054 39.9381 52.2532 39.9461 52.5102C39.9784 53.4173 39.9111 54.2881 39.2732 55.027C38.8331 55.533 38.2517 55.7618 37.6582 55.9946L4.25041 56ZM20.9994 14.1982C14.8417 14.1982 8.68495 14.1951 2.52908 14.1888C2.09168 14.1888 1.92883 14.2453 1.93018 14.7513C1.94723 26.1524 1.95216 37.553 1.94498 48.9532C1.94498 50.1173 2.24107 50.4134 3.40387 50.4134H38.6272C39.7591 50.4134 40.0713 50.1079 40.0713 48.9909C40.0713 37.571 40.0749 26.1519 40.0821 14.7338C40.0821 14.2776 39.9609 14.1861 39.5235 14.1874C33.3488 14.2036 27.1741 14.2072 20.9994 14.1982ZM20.9806 12.3975C27.1714 12.3975 33.3645 12.4006 39.5599 12.4069C39.9865 12.4069 40.0861 12.2925 40.0807 11.8793C40.0592 9.92919 40.0727 7.97638 40.0713 6.02625C40.0713 5.48792 40.0377 4.94958 39.7846 4.45969C39.1602 3.24844 38.1346 2.78547 36.7969 2.78681C26.2715 2.80027 15.7461 2.80296 5.22076 2.79489C5.02427 2.79489 4.82643 2.80296 4.63128 2.81642C3.20469 2.91871 2.04592 3.99807 1.99343 5.44081C1.92076 7.56859 1.96921 9.69905 1.93287 11.8282C1.92479 12.2898 2.02573 12.415 2.50754 12.4136C8.66476 12.3907 14.822 12.3975 20.9806 12.3975ZM21.0075 52.2101H4.46843C4.32443 52.2101 4.18177 52.2101 4.03911 52.2101C3.91664 52.2101 3.8655 52.2693 3.83454 52.3985C3.56537 53.5237 4.10371 54.2046 5.27459 54.2046H36.7417C37.8601 54.2046 38.1481 53.8857 38.1912 52.7754C38.21 52.2882 38.0566 52.1953 37.6003 52.1967C32.0689 52.2168 26.5402 52.2101 21.0075 52.2101Z" fill="#D2D2D2"/>
<path d="M36.1536 32.2807C36.1805 40.6047 29.3409 47.447 21.0008 47.4349C16.9928 47.4264 13.1511 45.8323 10.3145 43.0008C7.47794 40.1693 5.87703 36.3304 5.86139 32.3224C5.83717 24.0132 12.705 17.1346 21.0142 17.1494C25.0225 17.1675 28.8615 18.7672 31.6966 21.6007C34.5316 24.4343 36.1334 28.2725 36.1536 32.2807ZM20.9833 45.6691C28.2898 45.7122 34.2654 39.7596 34.3582 32.3574C34.4497 25.0563 28.4015 18.9704 21.0344 18.9461C13.6996 18.9219 7.74692 24.8476 7.66078 32.2565C7.57196 39.5563 13.6 45.6247 20.9833 45.6691Z" fill="#D2D2D2"/>
<path d="M12.9364 10.3815C10.9849 10.3815 9.03391 10.3815 7.08333 10.3815C5.60291 10.3815 4.90846 9.68301 4.90442 8.22143C4.90442 7.8446 4.90442 7.46866 4.90442 7.09362C4.90442 5.4638 5.57734 4.79492 7.23003 4.79492C9.62832 4.79492 12.0266 4.79492 14.4249 4.79492C15.8757 4.79492 17.3252 4.79492 18.7747 4.79492C20.247 4.79492 20.9361 5.49476 20.9428 6.97249C20.9428 7.36548 20.9428 7.75981 20.9428 8.15279C20.9428 9.71531 20.2833 10.3802 18.7356 10.3829C16.8021 10.3829 14.869 10.3824 12.9364 10.3815ZM12.9108 8.61307C14.8421 8.61307 16.7734 8.60365 18.6979 8.62115C19.0748 8.62115 19.2067 8.52021 19.1744 8.14203C19.139 7.78401 19.139 7.42338 19.1744 7.06535C19.2215 6.64276 19.0505 6.57143 18.6643 6.57278C15.1961 6.58893 11.7278 6.57278 8.2596 6.58758C7.74953 6.58758 7.06718 6.35475 6.77917 6.69121C6.52885 6.98057 6.73072 7.64541 6.69304 8.14203C6.66478 8.52155 6.79532 8.6198 7.16947 8.61711C9.08595 8.60365 10.9984 8.61307 12.9108 8.61307Z" fill="#D2D2D2"/>
<path d="M26.7353 10.3733C25.9954 10.3779 25.2837 10.0898 24.7554 9.57162C24.2272 9.05348 23.9254 8.34743 23.9158 7.60756C23.9088 6.86691 24.1964 6.15383 24.7152 5.62519C25.234 5.09655 25.9415 4.79566 26.6821 4.7887C27.4228 4.78174 28.1359 5.06928 28.6645 5.58808C29.1932 6.10688 29.4941 6.81442 29.501 7.55507C29.5053 7.92194 29.437 8.28603 29.3002 8.62645C29.1634 8.96687 28.9606 9.27691 28.7037 9.53876C28.4467 9.80062 28.1405 10.0091 27.8027 10.1523C27.4649 10.2956 27.1022 10.3706 26.7353 10.3733ZM27.6976 7.5793C27.6908 7.38393 27.6264 7.19494 27.5123 7.03619C27.3982 6.87744 27.2397 6.75604 27.0567 6.68733C26.8737 6.61862 26.6744 6.60568 26.484 6.65014C26.2937 6.69459 26.1207 6.79445 25.9871 6.93711C25.8534 7.07977 25.7651 7.25883 25.7331 7.45169C25.7011 7.64454 25.727 7.84254 25.8075 8.02069C25.888 8.19883 26.0195 8.34914 26.1853 8.45262C26.3512 8.55611 26.544 8.60814 26.7393 8.60214C27.0009 8.59026 27.2475 8.47667 27.4265 8.28559C27.6055 8.09452 27.7028 7.84107 27.6976 7.5793Z" fill="#D2D2D2"/>
<path d="M34.3272 10.3733C33.9607 10.3758 33.5972 10.3057 33.2579 10.1672C32.9185 10.0286 32.6099 9.82431 32.3498 9.56599C32.0898 9.30767 31.8834 9.00046 31.7425 8.66205C31.6017 8.32363 31.5292 7.96069 31.5292 7.59414C31.5268 7.0425 31.6881 6.50255 31.9926 6.04258C32.2972 5.58262 32.7313 5.22332 33.2401 5.01012C33.7488 4.79693 34.3094 4.73943 34.8509 4.8449C35.3924 4.95036 35.8904 5.21405 36.2819 5.60261C36.6735 5.99117 36.9411 6.48714 37.0507 7.02778C37.1603 7.56841 37.1072 8.12942 36.8979 8.63984C36.6887 9.15025 36.3327 9.58713 35.8751 9.89521C35.4175 10.2033 34.8788 10.3687 34.3272 10.3706V10.3733ZM34.3164 6.59418C34.117 6.5907 33.921 6.64672 33.7535 6.75509C33.5861 6.86345 33.4547 7.01926 33.3761 7.20262C33.2975 7.38598 33.2754 7.58858 33.3124 7.78459C33.3495 7.9806 33.4441 8.16112 33.5842 8.30313C33.7243 8.44514 33.9035 8.54219 34.099 8.58191C34.2945 8.62163 34.4974 8.60222 34.6818 8.52615C34.8662 8.45008 35.0238 8.3208 35.1344 8.1548C35.245 7.98881 35.3037 7.79362 35.3029 7.59414C35.3009 7.33188 35.1967 7.08074 35.0125 6.89404C34.8283 6.70734 34.5786 6.59977 34.3164 6.59418Z" fill="#D2D2D2"/>
<path d="M9.66068 32.3224C9.60819 26.1315 14.7237 20.9998 20.9738 20.9689C27.2239 20.9379 32.2412 25.931 32.3529 32.2538C32.4606 38.4016 27.3235 43.5884 21.068 43.6463C14.8408 43.7028 9.7172 38.6156 9.66068 32.3224ZM20.9927 41.8523C23.5255 41.8534 25.9555 40.8504 27.7501 39.063C29.5448 37.2757 30.5577 34.8498 30.567 32.317C30.5791 27.0682 26.2966 22.7683 21.0236 22.7387C15.7937 22.7091 11.4587 27.0319 11.448 32.2861C11.449 34.8191 12.4543 37.2485 14.2434 39.0416C16.0325 40.8348 18.4596 41.8455 20.9927 41.8523Z" fill="#D2D2D2"/>
<path d="M28.5294 31.9659C28.5375 32.1089 28.5375 32.2522 28.5294 32.3952C28.5111 32.6114 28.4117 32.8127 28.2512 32.9587C28.0907 33.1047 27.881 33.1847 27.664 33.1825C27.2132 33.1543 26.8754 32.9322 26.8081 32.4517C26.7085 31.7277 26.6735 30.9996 26.4043 30.2984C26.0104 29.2471 25.3185 28.3334 24.4132 27.6694C23.508 27.0053 22.4287 26.6197 21.3076 26.5596C21.2363 26.5596 21.165 26.5596 21.0936 26.5502C20.4463 26.4802 20.095 26.1155 20.1421 25.561C20.1852 25.0469 20.589 24.7266 21.2188 24.7535C23.8405 24.8881 25.8996 26.0388 27.3545 28.2298C28.0853 29.342 28.4921 30.6356 28.5294 31.9659Z" fill="#D2D2D2"/>
</svg>
