<svg width="76" height="101" viewBox="0 0 76 101" fill="none" xmlns="http://www.w3.org/2000/svg">
<path d="M23.3918 91.455V92.49H25.9868V91.455H23.3918ZM20.8568 87.885V90.465C20.8568 92.79 19.7468 95.22 17.8868 96.315L18.6668 97.26C20.6468 96.045 21.8318 93.3 21.8318 90.465V87.885H20.8568ZM21.0968 87.885V90.42C21.0968 93.06 22.1918 95.76 24.1418 96.96L24.8618 95.985C23.0768 94.905 22.0568 92.595 22.0568 90.42V87.885H21.0968ZM28.3718 86.61V100.17H29.5718V86.61H28.3718ZM25.6268 86.895V99.495H26.7968V86.895H25.6268ZM32.4656 93.09V94.11H33.5006C36.2606 94.11 37.8206 94.05 39.6806 93.72L39.5456 92.715C37.7306 93.03 36.2156 93.09 33.5006 93.09H32.4656ZM32.4656 87.525V93.48H33.6956V88.545H38.6606V87.525H32.4656ZM33.3056 90.27V91.275H38.4056V90.27H33.3056ZM41.1206 86.61V94.815H42.3656V86.61H41.1206ZM42.0206 90.195V91.245H44.3756V90.195H42.0206ZM33.5606 95.49V96.51H41.1206V100.17H42.3656V95.49H33.5606ZM55.5194 86.61V100.17H56.7644V86.61H55.5194ZM51.5444 88.065V88.275C51.5444 91.875 49.7294 94.755 45.8144 96.645L46.4744 97.65C51.0044 95.43 52.7744 91.995 52.7744 88.065H51.5444ZM46.4294 88.065V89.085H52.0844V88.065H46.4294Z" fill="#7D7D7D"/>
<path d="M19.6219 60.998C19.0978 60.7191 18.5297 60.5268 18.101 60.0775C17.3522 59.295 17.176 58.3422 17.248 57.3189C17.2773 56.9019 17.1658 56.67 16.7664 56.4615C15.7358 55.9227 15.2146 55.0271 15.1617 53.8526C15.1617 53.7161 15.1617 53.5795 15.1617 53.443C15.1617 37.7829 15.1617 22.1227 15.1617 6.46261C15.1617 4.24279 16.0691 2.56324 18.0687 1.5238C18.8072 1.1587 19.6235 0.978819 20.447 0.999674C32.0835 0.999674 43.7195 0.999674 55.3549 0.999674C58.4204 0.999674 60.6402 3.21509 60.6402 6.28497C60.6491 22.0811 60.6491 37.8763 60.6402 53.6706C60.6402 54.9831 60.0735 55.9638 58.8873 56.5349C58.5584 56.6935 58.5525 56.9107 58.5614 57.1912C58.5966 58.1807 58.5232 59.1306 57.8273 59.9366C57.3472 60.4886 56.713 60.7382 56.0655 60.9922L19.6219 60.998ZM37.8929 15.3977C31.1757 15.3977 24.4595 15.3943 17.7442 15.3874C17.2671 15.3874 17.0894 15.4491 17.0909 16.0011C17.1095 28.4382 17.1149 40.8748 17.107 53.3109C17.107 54.5808 17.43 54.9038 18.6985 54.9038H57.1226C58.3573 54.9038 58.6979 54.5705 58.6979 53.352C58.6979 40.8943 58.7018 28.4377 58.7096 15.982C58.7096 15.4843 58.5775 15.3845 58.1004 15.386C51.3645 15.4036 44.6287 15.4075 37.8929 15.3977ZM37.8724 13.4333C44.6258 13.4333 51.3817 13.4368 58.14 13.4436C58.6054 13.4436 58.714 13.3188 58.7082 12.8681C58.6847 10.7408 58.6994 8.6105 58.6979 6.48317C58.6979 5.89591 58.6612 5.30866 58.3852 4.77426C57.704 3.45293 56.5852 2.94789 55.1259 2.94936C43.6441 2.96404 32.1623 2.96698 20.6805 2.95817C20.4661 2.95817 20.2503 2.96698 20.0374 2.98166C18.4812 3.09324 17.2171 4.27068 17.1599 5.84453C17.0806 8.16565 17.1335 10.4897 17.0938 12.8123C17.085 13.3159 17.1951 13.4524 17.7207 13.4509C24.4374 13.426 31.1542 13.4333 37.8724 13.4333V13.4333ZM37.9017 56.8638H19.8598C19.7027 56.8638 19.5471 56.8638 19.3914 56.8638C19.2578 56.8638 19.2021 56.9284 19.1683 57.0693C18.8747 58.2967 19.4619 59.0395 20.7392 59.0395H55.0657C56.2857 59.0395 56.5999 58.6916 56.6469 57.4804C56.6675 56.9489 56.5001 56.8476 56.0024 56.8491C49.9683 56.8711 43.9372 56.8638 37.9017 56.8638V56.8638Z" fill="#D2D2D2"/>
<path d="M54.4242 35.1235C54.4535 44.2039 46.9925 51.6679 37.8944 51.6547C33.5223 51.6454 29.3314 49.9065 26.2371 46.8177C23.1428 43.7289 21.3964 39.5411 21.3793 35.169C21.3529 26.1047 28.8448 18.6011 37.9091 18.6172C42.2816 18.6369 46.4695 20.382 49.5622 23.473C52.6549 26.564 54.4022 30.751 54.4242 35.1235V35.1235ZM37.8753 49.7285C45.8459 49.7755 52.3644 43.2819 52.4657 35.2072C52.5655 27.2425 45.9677 20.6036 37.9311 20.5772C29.9298 20.5508 23.4362 27.015 23.3422 35.0971C23.2453 43.0602 29.8211 49.6801 37.8753 49.7285Z" fill="#D2D2D2"/>
<path d="M29.0972 11.2344C26.9684 11.2344 24.8401 11.2344 22.7122 11.2344C21.0973 11.2344 20.3397 10.4724 20.3353 8.87802C20.3353 8.46694 20.3353 8.05684 20.3353 7.64772C20.3353 5.8698 21.0694 5.14014 22.8723 5.14014C25.4885 5.14014 28.1047 5.14014 30.7209 5.14014C32.3036 5.14014 33.8848 5.14014 35.466 5.14014C37.0721 5.14014 37.8238 5.90357 37.8311 7.51558C37.8311 7.94428 37.8311 8.37444 37.8311 8.80314C37.8311 10.5076 37.1117 11.2329 35.4234 11.2358C33.3142 11.2358 31.2054 11.2354 29.0972 11.2344ZM29.0693 9.30524C31.1761 9.30524 33.2828 9.29497 35.3823 9.31405C35.7933 9.31405 35.9372 9.20394 35.902 8.79139C35.8634 8.40084 35.8634 8.00744 35.902 7.61688C35.9534 7.15589 35.7669 7.07808 35.3456 7.07955C31.5622 7.09716 27.7788 7.07955 23.9954 7.0957C23.439 7.0957 22.6946 6.84171 22.3804 7.20874C22.1074 7.52439 22.3276 8.24965 22.2865 8.79139C22.2557 9.20541 22.3981 9.31258 22.8062 9.30965C24.8968 9.29497 26.9831 9.30524 29.0693 9.30524V9.30524Z" fill="#D2D2D2"/>
<path d="M44.1501 11.225C43.3429 11.2301 42.5665 10.9157 41.9903 10.3505C41.4141 9.78527 41.0848 9.01506 41.0744 8.20796C41.0668 7.40001 41.3804 6.62213 41.9464 6.04546C42.5123 5.46878 43.2842 5.14054 44.0921 5.13295C44.9001 5.12535 45.6779 5.43903 46.2546 6.00497C46.8313 6.57091 47.1595 7.34275 47.1671 8.1507C47.1718 8.55091 47.0973 8.94808 46.9481 9.31944C46.7988 9.69079 46.5776 10.029 46.2973 10.3147C46.017 10.6003 45.683 10.8278 45.3145 10.984C44.946 11.1402 44.5503 11.2221 44.1501 11.225ZM45.1998 8.17713C45.1925 7.96401 45.1221 7.75784 44.9977 7.58467C44.8733 7.41149 44.7003 7.27907 44.5007 7.20411C44.301 7.12916 44.0836 7.11504 43.876 7.16353C43.6683 7.21203 43.4797 7.32097 43.3339 7.47659C43.1881 7.63221 43.0917 7.82755 43.0568 8.03792C43.022 8.2483 43.0502 8.4643 43.138 8.65863C43.2258 8.85296 43.3692 9.01693 43.5501 9.12982C43.7311 9.24271 43.9414 9.29946 44.1545 9.29291C44.4398 9.27995 44.7088 9.15604 44.9041 8.94761C45.0994 8.73917 45.2055 8.46269 45.1998 8.17713V8.17713Z" fill="#D2D2D2"/>
<path d="M52.4318 11.2251C52.0319 11.2278 51.6355 11.1514 51.2653 11.0002C50.8951 10.8491 50.5585 10.6262 50.2748 10.3444C49.9911 10.0626 49.7659 9.72748 49.6123 9.35831C49.4586 8.98914 49.3795 8.59323 49.3795 8.19336C49.3769 7.5916 49.5529 7.00258 49.8851 6.50082C50.2173 5.99906 50.6909 5.6071 51.2459 5.37454C51.8009 5.14197 52.4124 5.07925 53.0031 5.1943C53.5937 5.30935 54.137 5.597 54.5642 6.02087C54.9913 6.44474 55.2832 6.98578 55.4028 7.57554C55.5224 8.1653 55.4644 8.77729 55.2361 9.33409C55.0079 9.89088 54.6196 10.3675 54.1204 10.7035C53.6212 11.0396 53.0336 11.2201 52.4318 11.2221V11.2251ZM52.4201 7.10254C52.2025 7.09875 51.9887 7.15985 51.806 7.27807C51.6233 7.39628 51.48 7.56624 51.3943 7.76626C51.3086 7.96629 51.2844 8.1873 51.3248 8.40112C51.3653 8.61494 51.4685 8.81187 51.6213 8.96678C51.7741 9.12169 51.9696 9.22757 52.1829 9.2709C52.3961 9.31423 52.6175 9.29305 52.8186 9.21007C53.0198 9.12709 53.1917 8.98606 53.3124 8.80498C53.433 8.6239 53.497 8.41097 53.4962 8.19336C53.494 7.90727 53.3803 7.63331 53.1794 7.42965C52.9785 7.22598 52.7061 7.10864 52.4201 7.10254V7.10254Z" fill="#D2D2D2"/>
<path d="M25.5239 35.1691C25.4666 28.4156 31.047 22.8176 37.865 22.7838C44.6831 22.7501 50.1563 28.1969 50.2781 35.0942C50.3956 41.8006 44.7917 47.4588 37.9678 47.522C31.1747 47.5836 25.5855 42.0341 25.5239 35.1691ZM37.8856 45.5649C40.6486 45.5661 43.2994 44.472 45.2571 42.5222C47.2148 40.5725 48.3198 37.9262 48.3299 35.1632C48.3431 29.4374 43.6715 24.7467 37.9194 24.7144C32.2142 24.6821 27.4853 29.3978 27.4736 35.1294C27.4747 37.8927 28.5713 40.5428 30.523 42.4989C32.4747 44.455 35.1224 45.5576 37.8856 45.5649V45.5649Z" fill="#D2D2D2"/>
<path d="M46.1071 34.7801C46.1159 34.9361 46.1159 35.0925 46.1071 35.2484C46.0871 35.4843 45.9788 35.7039 45.8037 35.8631C45.6286 36.0224 45.3998 36.1096 45.1631 36.1073C44.6713 36.0765 44.3028 35.8342 44.2294 35.3101C44.1207 34.5202 44.0826 33.726 43.7889 32.9611C43.3592 31.8142 42.6044 30.8176 41.6169 30.0932C40.6294 29.3688 39.4521 28.9481 38.2291 28.8826C38.1513 28.8826 38.0735 28.8826 37.9957 28.8723C37.2895 28.796 36.9063 28.3981 36.9577 27.7932C37.0047 27.2324 37.4451 26.883 38.1322 26.9124C40.9921 27.0592 43.2384 28.3144 44.8255 30.7046C45.6227 31.9178 46.0664 33.329 46.1071 34.7801V34.7801Z" fill="#D2D2D2"/>
</svg>
