<svg width="76" height="100" viewBox="0 0 76 100" fill="none" xmlns="http://www.w3.org/2000/svg">
<path d="M24.2468 93.1951C21.4868 93.1951 19.7918 94.1251 19.7918 95.7151C19.7918 97.3051 21.4868 98.2351 24.2468 98.2351C27.0068 98.2351 28.7018 97.3051 28.7018 95.7151C28.7018 94.1251 27.0068 93.1951 24.2468 93.1951ZM24.2468 94.2001C26.2568 94.2001 27.4868 94.7551 27.4868 95.7151C27.4868 96.6901 26.2568 97.2451 24.2468 97.2451C22.2368 97.2451 21.0068 96.6901 21.0068 95.7151C21.0068 94.7551 22.2368 94.2001 24.2468 94.2001ZM27.3218 84.6901V92.8351H28.5668V84.6901H27.3218ZM28.2218 88.0951V89.1451H30.5768V88.0951H28.2218ZM18.6068 85.5451V91.8001H24.8768V85.5451H23.6618V87.5701H19.8368V85.5451H18.6068ZM19.8368 88.5601H23.6618V90.7951H19.8368V88.5601ZM32.5106 85.4551V91.8001H38.6306V85.4551H37.4156V87.6001H33.7406V85.4551H32.5106ZM33.7406 88.5901H37.4156V90.7951H33.7406V88.5901ZM38.2856 88.1101V89.1451H42.1256V88.1101H38.2856ZM41.7506 84.6901V92.5501H42.9956V84.6901H41.7506ZM34.2056 93.2401V98.0701H42.9956V93.2401H34.2056ZM41.7806 94.2301V97.0651H35.4206V94.2301H41.7806ZM49.0244 87.0301V87.6151C49.0244 89.4301 47.6744 91.0501 45.6644 91.6801L46.2644 92.6551C48.5294 91.9051 50.0444 89.9701 50.0444 87.6151V87.0301H49.0244ZM49.2494 87.0301V87.6151C49.2494 89.7901 50.7344 91.6201 52.9994 92.3101L53.5844 91.3351C51.5894 90.7501 50.2694 89.2501 50.2694 87.6151V87.0301H49.2494ZM46.0244 86.3251V87.3301H53.2544V86.3251H46.0244ZM49.0244 84.6301V86.6851H50.2694V84.6301H49.0244ZM54.9194 84.6901V93.0001H56.1644V84.6901H54.9194ZM55.8194 88.1851V89.2351H58.1744V88.1851H55.8194ZM51.8444 93.3301C49.0694 93.3301 47.3894 94.2301 47.3894 95.7751C47.3894 97.3351 49.0694 98.2201 51.8444 98.2201C54.6194 98.2201 56.2994 97.3351 56.2994 95.7751C56.2994 94.2301 54.6194 93.3301 51.8444 93.3301ZM51.8444 94.3051C53.8544 94.3051 55.0844 94.8451 55.0844 95.7751C55.0844 96.7051 53.8544 97.2451 51.8444 97.2451C49.8344 97.2451 48.6044 96.7051 48.6044 95.7751C48.6044 94.8451 49.8344 94.3051 51.8444 94.3051Z" fill="#7D7D7D"/>
<rect x="10.5" y="3.04004" width="55" height="53.5366" stroke="#D2D2D2" stroke-width="5"/>
<line x1="21.5374" y1="0.540039" x2="21.5374" y2="58.3449" stroke="#D2D2D2" stroke-width="2"/>
<path d="M32.1792 0.540039V58.3449" stroke="#D2D2D2" stroke-width="2"/>
<path d="M55.4626 0.540039V58.3449" stroke="#D2D2D2" stroke-width="2"/>
<path d="M43.8208 0.540039V58.3449" stroke="#D2D2D2" stroke-width="2"/>
<line x1="9.79102" y1="29.4878" x2="67.1044" y2="29.4878" stroke="#D2D2D2" stroke-width="3"/>
</svg>
