<svg width="56" height="63" viewBox="0 0 56 63" fill="none" xmlns="http://www.w3.org/2000/svg">
<path d="M14.9362 54.737V55.757H27.1912V54.737H14.9362ZM16.5262 59.852V60.872H25.8412V59.852H16.5262ZM16.5262 56.942V60.167H17.7712V56.942H16.5262ZM21.0712 48.062C18.1612 48.062 16.3012 49.082 16.3012 50.777C16.3012 52.457 18.1612 53.477 21.0712 53.477C23.9662 53.477 25.8412 52.457 25.8412 50.777C25.8412 49.082 23.9662 48.062 21.0712 48.062ZM21.0712 49.082C23.2012 49.082 24.5662 49.712 24.5662 50.777C24.5662 51.842 23.2012 52.472 21.0712 52.472C18.9412 52.472 17.5762 51.842 17.5762 50.777C17.5762 49.712 18.9412 49.082 21.0712 49.082ZM38.98 47.612V56.192H40.165V47.612H38.98ZM36.775 51.287V52.322H39.34V51.287H36.775ZM36.085 47.882V55.712H37.255V47.882H36.085ZM28.675 49.232V50.222H35.545V49.232H28.675ZM32.125 50.912C30.415 50.912 29.23 51.842 29.23 53.237C29.23 54.647 30.415 55.562 32.125 55.562C33.82 55.562 35.005 54.647 35.005 53.237C35.005 51.842 33.82 50.912 32.125 50.912ZM32.125 51.842C33.175 51.842 33.895 52.397 33.895 53.237C33.895 54.092 33.175 54.632 32.125 54.632C31.06 54.632 30.34 54.092 30.34 53.237C30.34 52.397 31.06 51.842 32.125 51.842ZM31.51 47.717V49.787H32.725V47.717H31.51ZM35.725 56.432C32.875 56.432 31.195 57.272 31.195 58.787C31.195 60.287 32.875 61.142 35.725 61.142C38.545 61.142 40.24 60.287 40.24 58.787C40.24 57.272 38.545 56.432 35.725 56.432ZM35.725 57.392C37.78 57.392 39.01 57.887 39.01 58.787C39.01 59.687 37.78 60.197 35.725 60.197C33.64 60.197 32.425 59.687 32.425 58.787C32.425 57.887 33.64 57.392 35.725 57.392Z" fill="#7D7D7D"/>
<path d="M47.9962 19.9448C48.2122 30.9303 38.6972 40.002 28.0301 40.002C17.3541 40.003 7.97505 30.9293 8.00005 19.9008C8.02405 9.24398 17.2111 -0.00505656 28.0451 0.00195711C38.8202 0.00897079 48.2162 9.23195 47.9962 19.9448Z" fill="#C6C6C6"/>
<path d="M27.5383 8.7765C30.7864 8.7765 34.0344 8.7765 37.2824 8.7765C37.8884 8.7765 38.4524 8.90074 38.9404 9.28949C39.5684 9.79047 39.8404 10.4538 39.8544 11.2403C39.8564 11.3746 39.8644 11.5088 39.8544 11.6421C39.7304 13.2081 40.0944 14.7201 40.3634 16.2421C40.8674 19.1026 41.3774 21.9612 41.8824 24.8218C41.9854 25.4049 42.0944 25.9871 42.1704 26.5742C42.3244 27.7575 41.4994 28.9138 40.1354 29.1562C34.4644 30.1652 28.7953 31.1812 23.1253 32.1942C22.3183 32.3384 21.5103 32.4827 20.7013 32.618C19.2833 32.8544 18.1173 32.0248 17.8693 30.6091C17.6353 29.2725 17.4023 27.9369 17.1663 26.6002C17.1453 26.484 17.1433 26.3698 16.9733 26.3287C15.9423 26.0772 15.1813 25.1725 15.1873 23.8449C15.2043 20.1697 15.1923 16.4945 15.1943 12.8184C15.1943 12.2252 15.1943 11.6321 15.2113 11.0389C15.2463 9.79248 16.2833 8.76648 17.7093 8.77249C20.9863 8.78551 24.2623 8.7765 27.5393 8.7765H27.5383ZM27.5273 15.8383C23.9073 15.8383 20.2873 15.8403 16.6663 15.8333C16.4393 15.8333 16.3643 15.8703 16.3653 16.1208C16.3763 18.7149 16.3713 21.3079 16.3723 23.902C16.3723 24.7917 16.8263 25.2516 17.7053 25.2516C24.2483 25.2516 30.7914 25.2516 37.3344 25.2516C38.2174 25.2516 38.6744 24.7937 38.6744 23.909C38.6744 21.3149 38.6714 18.7219 38.6804 16.1278C38.6804 15.8914 38.6274 15.8313 38.3874 15.8323C34.7674 15.8413 31.1474 15.8383 27.5263 15.8383H27.5273ZM39.9134 20.4533L39.8544 20.4633C39.8544 20.5675 39.8544 20.6717 39.8544 20.7759C39.8544 21.8189 39.8554 22.862 39.8544 23.905C39.8544 24.4821 39.7284 25.0222 39.3654 25.4881C38.8364 26.1664 38.1304 26.4279 37.2864 26.4269C31.0874 26.4209 24.8893 26.4239 18.6903 26.4239C18.6143 26.4239 18.5373 26.4279 18.4613 26.4239C18.3413 26.4159 18.3163 26.466 18.3373 26.5782C18.5823 27.9118 18.8113 29.2494 19.0723 30.58C19.1973 31.2162 19.7533 31.585 20.3963 31.4748C22.3223 31.1421 24.2453 30.7944 26.1703 30.4518C29.1173 29.9267 32.0654 29.4007 35.0124 28.8737C36.6924 28.5731 38.3734 28.2795 40.0504 27.9629C40.7624 27.8286 41.1214 27.2505 40.9954 26.5391C40.7914 25.3919 40.5914 24.2437 40.3884 23.0964C40.2324 22.2157 40.0734 21.336 39.9154 20.4553L39.9134 20.4533ZM27.5243 12.9015C30.6104 12.9015 33.6964 12.9015 36.7824 12.9015C37.3464 12.9015 37.9094 12.8985 38.4734 12.9035C38.6054 12.9045 38.6824 12.8965 38.6794 12.7262C38.6674 12.1711 38.6854 11.615 38.6674 11.0609C38.6504 10.5409 38.2824 10.1061 37.7814 9.99587C37.6164 9.9598 37.4394 9.96481 37.2684 9.96481C32.0424 9.96381 26.8163 9.96381 21.5903 9.96381C20.2623 9.96381 18.9343 9.9588 17.6063 9.96581C16.8443 9.96982 16.3803 10.4447 16.3733 11.2062C16.3693 11.6751 16.3873 12.1451 16.3663 12.613C16.3553 12.8554 16.4253 12.9075 16.6623 12.9075C20.2833 12.8995 23.9043 12.9015 27.5253 12.9015H27.5243Z" fill="white"/>
<path d="M19.5962 11.568C19.3662 11.568 19.2672 11.527 19.2962 11.2775C19.3192 11.0791 19.3152 10.8747 19.2962 10.6753C19.2762 10.4569 19.3382 10.3867 19.5712 10.3897C20.8882 10.4028 22.2062 10.3958 23.5232 10.3958H24.0102C25.4902 10.3958 26.9692 10.3998 28.4492 10.3907C28.6442 10.3897 28.7212 10.4298 28.7002 10.6372C28.6702 10.9388 28.8232 11.3436 28.6402 11.5159C28.4812 11.6652 28.0802 11.562 27.7862 11.562" fill="white"/>
</svg>
