<svg width="56" height="63" viewBox="0 0 56 63" fill="none" xmlns="http://www.w3.org/2000/svg">
<path d="M14.9362 54.737V55.757H27.1912V54.737H14.9362ZM16.5262 59.852V60.872H25.8412V59.852H16.5262ZM16.5262 56.942V60.167H17.7712V56.942H16.5262ZM21.0712 48.062C18.1612 48.062 16.3012 49.082 16.3012 50.777C16.3012 52.457 18.1612 53.477 21.0712 53.477C23.9662 53.477 25.8412 52.457 25.8412 50.777C25.8412 49.082 23.9662 48.062 21.0712 48.062ZM21.0712 49.082C23.2012 49.082 24.5662 49.712 24.5662 50.777C24.5662 51.842 23.2012 52.472 21.0712 52.472C18.9412 52.472 17.5762 51.842 17.5762 50.777C17.5762 49.712 18.9412 49.082 21.0712 49.082ZM38.98 47.612V56.192H40.165V47.612H38.98ZM36.775 51.287V52.322H39.34V51.287H36.775ZM36.085 47.882V55.712H37.255V47.882H36.085ZM28.675 49.232V50.222H35.545V49.232H28.675ZM32.125 50.912C30.415 50.912 29.23 51.842 29.23 53.237C29.23 54.647 30.415 55.562 32.125 55.562C33.82 55.562 35.005 54.647 35.005 53.237C35.005 51.842 33.82 50.912 32.125 50.912ZM32.125 51.842C33.175 51.842 33.895 52.397 33.895 53.237C33.895 54.092 33.175 54.632 32.125 54.632C31.06 54.632 30.34 54.092 30.34 53.237C30.34 52.397 31.06 51.842 32.125 51.842ZM31.51 47.717V49.787H32.725V47.717H31.51ZM35.725 56.432C32.875 56.432 31.195 57.272 31.195 58.787C31.195 60.287 32.875 61.142 35.725 61.142C38.545 61.142 40.24 60.287 40.24 58.787C40.24 57.272 38.545 56.432 35.725 56.432ZM35.725 57.392C37.78 57.392 39.01 57.887 39.01 58.787C39.01 59.687 37.78 60.197 35.725 60.197C33.64 60.197 32.425 59.687 32.425 58.787C32.425 57.887 33.64 57.392 35.725 57.392Z" fill="#7D7D7D"/>
<path d="M47.9962 19.9448C48.2122 30.9303 38.6972 40.002 28.0301 40.002C17.3541 40.003 7.97505 30.9293 8.00005 19.9008C8.02405 9.24398 17.2111 -0.00505656 28.0451 0.00195711C38.8202 0.00897079 48.2162 9.23195 47.9962 19.9448Z" fill="#356FEF"/>
<path d="M27.5383 8.77698C30.7864 8.77698 34.0344 8.77698 37.2824 8.77698C37.8884 8.77698 38.4524 8.90123 38.9404 9.28998C39.5684 9.79096 39.8404 10.4543 39.8544 11.2408C39.8564 11.375 39.8644 11.5093 39.8544 11.6426C39.7304 13.2086 40.0944 14.7206 40.3634 16.2425C40.8674 19.1031 41.3774 21.9617 41.8824 24.8223C41.9854 25.4054 42.0944 25.9875 42.1704 26.5747C42.3244 27.758 41.4994 28.9142 40.1354 29.1567C34.4644 30.1657 28.7953 31.1817 23.1253 32.1946C22.3183 32.3389 21.5103 32.4832 20.7013 32.6185C19.2833 32.8549 18.1173 32.0253 17.8693 30.6096C17.6353 29.2729 17.4023 27.9373 17.1663 26.6007C17.1453 26.4845 17.1433 26.3703 16.9733 26.3292C15.9423 26.0777 15.1813 25.173 15.1873 23.8454C15.2043 20.1702 15.1923 16.495 15.1943 12.8189C15.1943 12.2257 15.1943 11.6326 15.2113 11.0394C15.2463 9.79296 16.2833 8.76696 17.7093 8.77298C20.9863 8.786 24.2623 8.77698 27.5393 8.77698H27.5383ZM27.5273 15.8388C23.9073 15.8388 20.2873 15.8408 16.6663 15.8337C16.4393 15.8337 16.3643 15.8708 16.3653 16.1213C16.3763 18.7154 16.3713 21.3084 16.3723 23.9025C16.3723 24.7922 16.8263 25.2521 17.7053 25.2521C24.2483 25.2521 30.7914 25.2521 37.3344 25.2521C38.2174 25.2521 38.6744 24.7942 38.6744 23.9095C38.6744 21.3154 38.6714 18.7224 38.6804 16.1283C38.6804 15.8919 38.6274 15.8317 38.3874 15.8327C34.7674 15.8418 31.1474 15.8388 27.5263 15.8388H27.5273ZM39.9134 20.4538L39.8544 20.4638C39.8544 20.568 39.8544 20.6722 39.8544 20.7764C39.8544 21.8194 39.8554 22.8624 39.8544 23.9055C39.8544 24.4826 39.7284 25.0227 39.3654 25.4886C38.8364 26.1669 38.1304 26.4284 37.2864 26.4274C31.0874 26.4214 24.8893 26.4244 18.6903 26.4244C18.6143 26.4244 18.5373 26.4284 18.4613 26.4244C18.3413 26.4164 18.3163 26.4665 18.3373 26.5787C18.5823 27.9123 18.8113 29.2499 19.0723 30.5805C19.1973 31.2167 19.7533 31.5855 20.3963 31.4752C22.3223 31.1426 24.2453 30.7949 26.1703 30.4522C29.1173 29.9272 32.0654 29.4012 35.0124 28.8742C36.6924 28.5736 38.3734 28.28 40.0504 27.9634C40.7624 27.8291 41.1214 27.251 40.9954 26.5396C40.7914 25.3924 40.5914 24.2441 40.3884 23.0969C40.2324 22.2162 40.0734 21.3365 39.9154 20.4558L39.9134 20.4538ZM27.5243 12.902C30.6104 12.902 33.6964 12.902 36.7824 12.902C37.3464 12.902 37.9094 12.899 38.4734 12.904C38.6054 12.905 38.6824 12.897 38.6794 12.7267C38.6674 12.1716 38.6854 11.6155 38.6674 11.0614C38.6504 10.5414 38.2824 10.1066 37.7814 9.99636C37.6164 9.96029 37.4394 9.9653 37.2684 9.9653C32.0424 9.9643 26.8163 9.9643 21.5903 9.9643C20.2623 9.9643 18.9343 9.95929 17.6063 9.9663C16.8443 9.97031 16.3803 10.4452 16.3733 11.2067C16.3693 11.6756 16.3873 12.1456 16.3663 12.6135C16.3553 12.8559 16.4253 12.908 16.6623 12.908C20.2833 12.9 23.9043 12.902 27.5253 12.902H27.5243Z" fill="white"/>
<path d="M19.5962 11.5685C19.3662 11.5685 19.2672 11.5274 19.2962 11.278C19.3192 11.0796 19.3152 10.8752 19.2962 10.6758C19.2762 10.4574 19.3382 10.3872 19.5712 10.3902C20.8882 10.4033 22.2062 10.3962 23.5232 10.3962H24.0102C25.4902 10.3962 26.9692 10.4002 28.4492 10.3912C28.6442 10.3902 28.7212 10.4303 28.7002 10.6377C28.6702 10.9393 28.8232 11.3441 28.6402 11.5164C28.4812 11.6657 28.0802 11.5625 27.7862 11.5625" fill="white"/>
</svg>
