<svg width="56" height="82" viewBox="0 0 56 82" fill="none" xmlns="http://www.w3.org/2000/svg">
<path d="M24.8812 47.597V61.187H26.1112V47.597H24.8812ZM21.2962 52.637V53.657H25.2412V52.637H21.2962ZM15.4912 48.677V57.782H21.7162V48.677H20.4862V52.202H16.7212V48.677H15.4912ZM16.7212 53.192H20.4862V56.747H16.7212V53.192ZM34.18 48.542V49.577C34.18 51.887 31.63 53.957 29.245 54.407L29.8 55.442C32.515 54.827 35.26 52.532 35.26 49.577V48.542H34.18ZM34.405 48.542V49.577C34.405 52.547 37.165 54.827 39.865 55.442L40.42 54.407C38.05 53.957 35.485 51.902 35.485 49.577V48.542H34.405ZM28.75 58.322V59.342H41.035V58.322H28.75ZM15.2818 69.122V70.157H18.3418V69.122H15.2818ZM17.9518 65.612V73.697H19.1968V65.612H17.9518ZM14.7418 74.102C11.9368 74.102 10.2118 75.047 10.2118 76.637C10.2118 78.242 11.9368 79.157 14.7418 79.157C17.5318 79.157 19.2568 78.242 19.2568 76.637C19.2568 75.047 17.5318 74.102 14.7418 74.102ZM14.7418 75.077C16.7818 75.077 18.0268 75.647 18.0268 76.637C18.0268 77.612 16.7818 78.182 14.7418 78.182C12.7018 78.182 11.4568 77.612 11.4568 76.637C11.4568 75.647 12.7018 75.077 14.7418 75.077ZM11.5018 66.977V68.072C11.5018 70.022 10.1068 71.837 8.09676 72.572L8.74176 73.562C10.9918 72.722 12.5218 70.577 12.5218 68.072V66.977H11.5018ZM11.7418 66.977V68.072C11.7418 70.352 13.1968 72.392 15.4018 73.187L16.0318 72.197C14.0668 71.507 12.7468 69.827 12.7468 68.072V66.977H11.7418ZM8.47176 66.602V67.622H15.7168V66.602H8.47176ZM21.8356 73.682V74.702H34.1356V73.682H21.8356ZM25.0156 74.237V79.172H26.2756V74.237H25.0156ZM29.6806 74.237V79.172H30.9256V74.237H29.6806ZM23.3056 66.137V67.142H31.3906V68.672H23.3356V71.957H24.5956V69.632H32.6356V66.137H23.3056ZM23.3356 71.297V72.302H32.9506V71.297H23.3356ZM38.9794 67.067V68.162C38.9794 70.097 37.6294 71.852 35.5894 72.572L36.2194 73.562C38.4994 72.737 39.9994 70.652 39.9994 68.162V67.067H38.9794ZM39.2044 67.067V68.147C39.2044 70.457 40.6444 72.392 42.9094 73.142L43.5094 72.167C41.5144 71.507 40.2244 69.917 40.2244 68.147V67.067H39.2044ZM35.9644 66.617V67.637H43.2094V66.617H35.9644ZM44.9194 65.612V73.787H46.1644V65.612H44.9194ZM45.8194 69.047V70.097H48.1744V69.047H45.8194ZM41.8444 74.147C39.0844 74.147 37.3894 75.062 37.3894 76.637C37.3894 78.227 39.0844 79.142 41.8444 79.142C44.6044 79.142 46.2994 78.227 46.2994 76.637C46.2994 75.062 44.6044 74.147 41.8444 74.147ZM41.8444 75.152C43.8544 75.152 45.0844 75.692 45.0844 76.637C45.0844 77.597 43.8544 78.167 41.8444 78.167C39.8344 78.167 38.6044 77.597 38.6044 76.637C38.6044 75.692 39.8344 75.152 41.8444 75.152Z" fill="#7D7D7D"/>
<path d="M47.9971 20.0315C48.1739 30.9008 38.7978 40.1422 27.7354 39.9983C17.1417 39.8601 8 30.8793 8 19.9867C8 9.09416 17.2721 -0.132821 28.2858 0.00144722C38.813 0.132519 48.1875 9.047 47.9971 20.0315Z" fill="#C6C6C6"/>
<path d="M35.5402 8.02601C35.7978 8.12671 36.077 8.12991 36.3402 8.20823C37.8867 8.66858 38.98 9.63804 39.62 11.1166C39.8999 11.7656 39.9991 12.4505 39.9983 13.1546C39.9951 17.7213 39.9951 22.2883 39.9983 26.8556C39.9983 28.6251 39.2952 30.0453 37.8537 31.0787C37.0268 31.671 36.032 31.9836 35.0147 31.9706C30.3382 31.9749 25.6618 31.9749 20.9853 31.9706C19.9307 31.9727 18.9028 31.6394 18.0504 31.0189C17.198 30.3985 16.5653 29.5231 16.244 28.5196C16.0811 28.0121 16.0001 27.482 16.004 26.9491C16.004 22.3192 15.9864 17.6886 16.0128 13.0587C16.0248 10.9216 17.0528 9.38229 18.9838 8.452C19.3986 8.25888 19.8409 8.13135 20.2949 8.07397C20.3389 8.06757 20.4013 8.09395 20.4229 8.02441L35.5402 8.02601ZM39.0856 20.0143V13.117C39.0856 12.4833 38.9912 11.8655 38.7048 11.294C37.9289 9.74433 36.661 8.94112 34.9299 8.93552C30.311 8.92114 25.6913 8.92993 21.0717 8.93552C20.6269 8.92692 20.1837 8.99117 19.7598 9.12574C17.9999 9.72036 16.9184 11.2213 16.9168 13.0827C16.9136 17.6936 16.9136 22.3046 16.9168 26.9155C16.9084 27.3597 16.973 27.8022 17.108 28.2255C17.6991 29.9726 19.199 31.0595 21.0525 31.0619C25.6841 31.0683 30.3164 31.0683 34.9491 31.0619C36.5034 31.0619 37.7017 30.3778 38.52 29.0551C38.9304 28.3909 39.0864 27.654 39.0856 26.8796C39.0845 24.5922 39.0845 22.3051 39.0856 20.0183V20.0143Z" fill="white"/>
<path d="M21.5991 17.4445C21.7103 16.63 21.7527 15.8004 21.9191 14.9908C22.0998 14.1116 22.651 13.5441 23.395 13.1525C24.1389 12.7609 24.9348 12.5874 25.7492 12.4827C27.1294 12.3092 28.5249 12.2926 29.9089 12.4332C30.8328 12.5235 31.7416 12.6913 32.5935 13.107C33.519 13.5585 34.095 14.2787 34.2214 15.3584C34.3014 16.0234 34.4078 16.6852 34.4454 17.3566C34.4522 17.3841 34.4619 17.4109 34.4742 17.4365C34.5406 17.2766 34.5078 17.1352 34.5086 16.9993C34.5086 16.5781 34.6134 16.4638 35.0109 16.463C35.1949 16.463 35.3789 16.4582 35.5629 16.463C35.8157 16.4726 35.9533 16.6125 35.9557 16.8746C35.9605 17.5055 35.9605 18.1364 35.9557 18.7672C35.9557 19.031 35.8189 19.1725 35.5637 19.178C35.3085 19.1836 35.0437 19.178 34.7845 19.1621C34.6861 19.1549 34.6973 19.1956 34.7045 19.2564C34.8173 21.0011 34.7245 22.7483 34.7549 24.4938C34.7549 24.5594 34.7445 24.6265 34.7997 24.6785C34.9389 24.812 34.9597 24.9878 34.9597 25.1716C34.9597 25.3554 34.9597 25.5305 34.9597 25.7095C34.9533 26.1275 34.7605 26.3313 34.3638 26.3377C34.0974 26.3377 33.8302 26.3441 33.5638 26.3377C33.4478 26.3377 33.4038 26.3713 33.4126 26.4976C33.4214 26.7293 33.419 26.9627 33.4126 27.1945C33.4038 27.6453 33.1527 27.9138 32.7239 27.9226C32.4007 27.929 32.0773 27.929 31.7536 27.9226C31.3176 27.9146 31.064 27.6421 31.0576 27.1809C31.0576 26.9555 31.052 26.7293 31.0576 26.504C31.0576 26.3905 31.0408 26.3393 30.9144 26.3393C28.9978 26.3441 27.0814 26.3441 25.1652 26.3393C25.0524 26.3393 25.026 26.3809 25.0284 26.4896C25.0348 26.7288 25.0348 26.9686 25.0284 27.2089C25.018 27.6445 24.7629 27.9146 24.3461 27.9242C24.0165 27.9317 23.6867 27.9317 23.3566 27.9242C22.9374 27.9146 22.6854 27.6477 22.6742 27.2097C22.6686 26.9771 22.667 26.7445 22.6742 26.5128C22.679 26.3849 22.647 26.3361 22.5142 26.3409C22.2478 26.3513 21.9807 26.3481 21.7143 26.3409C21.3263 26.3329 21.1335 26.1307 21.1247 25.7263C21.1207 25.5273 21.1247 25.3267 21.1247 25.1285C21.1247 25.0086 21.1247 24.8743 21.2047 24.788C21.3335 24.6545 21.3287 24.4978 21.3279 24.3316C21.3279 22.9105 21.3279 21.4892 21.3279 20.0676C21.3218 19.8019 21.3379 19.5362 21.3759 19.2732C21.3903 19.1932 21.3879 19.1421 21.2719 19.1629C21.0067 19.1982 20.7383 19.203 20.472 19.1772C20.2528 19.1669 20.124 19.0214 20.1216 18.7872C20.1157 18.143 20.1157 17.4988 20.1216 16.8546C20.1216 16.6236 20.2576 16.4806 20.4784 16.4694C20.7183 16.4566 20.9583 16.4574 21.1983 16.4694C21.4383 16.4814 21.5543 16.6228 21.5631 16.8834C21.5775 17.0688 21.5463 17.2591 21.5991 17.4445ZM28.0354 19.1828H32.2039C32.6751 19.1828 32.8487 18.9926 32.8215 18.5019C32.7767 17.7026 32.7231 16.9114 32.6823 16.1161C32.6567 15.627 32.4647 15.4264 31.9919 15.4264H24.0933C24.0421 15.4264 23.9917 15.4264 23.9405 15.4264C23.6717 15.4448 23.4989 15.5974 23.4278 15.8724C23.3758 16.0738 23.3942 16.2816 23.3798 16.4854C23.331 17.1871 23.2926 17.8905 23.2518 18.5922C23.2382 18.8232 23.3062 19.0158 23.5141 19.1213C23.6314 19.1713 23.759 19.1925 23.8861 19.1828C25.269 19.1828 26.6521 19.1828 28.0354 19.1828ZM28.0354 13.6496C27.3421 13.6496 26.6507 13.6496 25.9612 13.6496C25.6804 13.6496 25.5364 13.7663 25.5356 13.9877C25.5348 14.2091 25.6876 14.3282 25.9604 14.3322H26.0172C27.3621 14.3322 28.7071 14.3322 30.0521 14.3322C30.1328 14.3345 30.2135 14.3261 30.2921 14.3074C30.335 14.2963 30.3751 14.2764 30.4099 14.249C30.4447 14.2216 30.4734 14.1873 30.4942 14.1482C30.5151 14.1092 30.5275 14.0662 30.5309 14.0221C30.5342 13.9779 30.5284 13.9336 30.5136 13.8918C30.4569 13.6864 30.3009 13.652 30.1249 13.652L28.0354 13.6496ZM24.7245 21.6477C24.1693 21.6477 23.7237 22.1049 23.7165 22.6867C23.7093 23.2686 24.1549 23.7418 24.7085 23.7497C25.262 23.7577 25.7148 23.2798 25.7204 22.7035C25.726 22.1273 25.2788 21.6509 24.7245 21.6477ZM31.368 21.6477C30.8152 21.6477 30.3633 22.1121 30.3585 22.6915C30.3537 23.271 30.8064 23.7481 31.3552 23.7529C31.9039 23.7577 32.3583 23.2854 32.3623 22.7051C32.3663 22.1249 31.9183 21.6501 31.368 21.6469V21.6477Z" fill="white"/>
</svg>
