<svg width="56" height="82" viewBox="0 0 56 82" fill="none" xmlns="http://www.w3.org/2000/svg">
<path d="M24.8812 47.597V61.187H26.1112V47.597H24.8812ZM21.2962 52.637V53.657H25.2412V52.637H21.2962ZM15.4912 48.677V57.782H21.7162V48.677H20.4862V52.202H16.7212V48.677H15.4912ZM16.7212 53.192H20.4862V56.747H16.7212V53.192ZM34.18 48.542V49.577C34.18 51.887 31.63 53.957 29.245 54.407L29.8 55.442C32.515 54.827 35.26 52.532 35.26 49.577V48.542H34.18ZM34.405 48.542V49.577C34.405 52.547 37.165 54.827 39.865 55.442L40.42 54.407C38.05 53.957 35.485 51.902 35.485 49.577V48.542H34.405ZM28.75 58.322V59.342H41.035V58.322H28.75ZM15.2818 69.122V70.157H18.3418V69.122H15.2818ZM17.9518 65.612V73.697H19.1968V65.612H17.9518ZM14.7418 74.102C11.9368 74.102 10.2118 75.047 10.2118 76.637C10.2118 78.242 11.9368 79.157 14.7418 79.157C17.5318 79.157 19.2568 78.242 19.2568 76.637C19.2568 75.047 17.5318 74.102 14.7418 74.102ZM14.7418 75.077C16.7818 75.077 18.0268 75.647 18.0268 76.637C18.0268 77.612 16.7818 78.182 14.7418 78.182C12.7018 78.182 11.4568 77.612 11.4568 76.637C11.4568 75.647 12.7018 75.077 14.7418 75.077ZM11.5018 66.977V68.072C11.5018 70.022 10.1068 71.837 8.09676 72.572L8.74176 73.562C10.9918 72.722 12.5218 70.577 12.5218 68.072V66.977H11.5018ZM11.7418 66.977V68.072C11.7418 70.352 13.1968 72.392 15.4018 73.187L16.0318 72.197C14.0668 71.507 12.7468 69.827 12.7468 68.072V66.977H11.7418ZM8.47176 66.602V67.622H15.7168V66.602H8.47176ZM21.8356 73.682V74.702H34.1356V73.682H21.8356ZM25.0156 74.237V79.172H26.2756V74.237H25.0156ZM29.6806 74.237V79.172H30.9256V74.237H29.6806ZM23.3056 66.137V67.142H31.3906V68.672H23.3356V71.957H24.5956V69.632H32.6356V66.137H23.3056ZM23.3356 71.297V72.302H32.9506V71.297H23.3356ZM38.9794 67.067V68.162C38.9794 70.097 37.6294 71.852 35.5894 72.572L36.2194 73.562C38.4994 72.737 39.9994 70.652 39.9994 68.162V67.067H38.9794ZM39.2044 67.067V68.147C39.2044 70.457 40.6444 72.392 42.9094 73.142L43.5094 72.167C41.5144 71.507 40.2244 69.917 40.2244 68.147V67.067H39.2044ZM35.9644 66.617V67.637H43.2094V66.617H35.9644ZM44.9194 65.612V73.787H46.1644V65.612H44.9194ZM45.8194 69.047V70.097H48.1744V69.047H45.8194ZM41.8444 74.147C39.0844 74.147 37.3894 75.062 37.3894 76.637C37.3894 78.227 39.0844 79.142 41.8444 79.142C44.6044 79.142 46.2994 78.227 46.2994 76.637C46.2994 75.062 44.6044 74.147 41.8444 74.147ZM41.8444 75.152C43.8544 75.152 45.0844 75.692 45.0844 76.637C45.0844 77.597 43.8544 78.167 41.8444 78.167C39.8344 78.167 38.6044 77.597 38.6044 76.637C38.6044 75.692 39.8344 75.152 41.8444 75.152Z" fill="#7D7D7D"/>
<path d="M47.9971 20.0315C48.1739 30.9008 38.7978 40.1422 27.7354 39.9983C17.1417 39.8601 8 30.8793 8 19.9867C8 9.09416 17.2721 -0.132821 28.2858 0.00144722C38.813 0.132519 48.1875 9.047 47.9971 20.0315Z" fill="#72DC1E"/>
<path d="M35.5402 8.02552C35.7978 8.12623 36.077 8.12942 36.3402 8.20775C37.8867 8.6681 38.98 9.63755 39.62 11.1161C39.8999 11.7651 39.9991 12.45 39.9983 13.1541C39.9951 17.7208 39.9951 22.2878 39.9983 26.8551C39.9983 28.6246 39.2952 30.0448 37.8537 31.0782C37.0268 31.6705 36.032 31.9831 35.0147 31.9701C30.3382 31.9744 25.6618 31.9744 20.9853 31.9701C19.9307 31.9722 18.9028 31.6389 18.0504 31.0184C17.198 30.398 16.5653 29.5227 16.244 28.5191C16.0811 28.0116 16.0001 27.4815 16.004 26.9486C16.004 22.3187 15.9864 17.6881 16.0128 13.0582C16.0248 10.9211 17.0528 9.3818 18.9838 8.45151C19.3986 8.25839 19.8409 8.13086 20.2949 8.07348C20.3389 8.06708 20.4013 8.09346 20.4229 8.02393L35.5402 8.02552ZM39.0856 20.0138V13.1165C39.0856 12.4828 38.9912 11.865 38.7048 11.2935C37.9289 9.74384 36.661 8.94063 34.9299 8.93504C30.311 8.92065 25.6913 8.92944 21.0717 8.93504C20.6269 8.92643 20.1837 8.99068 19.7598 9.12525C17.9999 9.71987 16.9184 11.2208 16.9168 13.0822C16.9136 17.6931 16.9136 22.3041 16.9168 26.9151C16.9084 27.3592 16.973 27.8017 17.108 28.225C17.6991 29.9721 19.199 31.059 21.0525 31.0614C25.6841 31.0678 30.3164 31.0678 34.9491 31.0614C36.5034 31.0614 37.7017 30.3773 38.52 29.0546C38.9304 28.3904 39.0864 27.6535 39.0856 26.8791C39.0845 24.5917 39.0845 22.3046 39.0856 20.0178V20.0138Z" fill="white"/>
<path d="M21.5991 17.445C21.7103 16.6305 21.7527 15.8009 21.9191 14.9913C22.0998 14.1121 22.651 13.5446 23.395 13.153C24.1389 12.7614 24.9348 12.5879 25.7492 12.4832C27.1294 12.3097 28.5249 12.2931 29.9089 12.4337C30.8328 12.524 31.7416 12.6918 32.5935 13.1074C33.519 13.559 34.095 14.2791 34.2214 15.3589C34.3014 16.0239 34.4078 16.6857 34.4454 17.357C34.4522 17.3846 34.4619 17.4114 34.4742 17.437C34.5406 17.2771 34.5078 17.1357 34.5086 16.9998C34.5086 16.5786 34.6134 16.4643 35.0109 16.4635C35.1949 16.4635 35.3789 16.4587 35.5629 16.4635C35.8157 16.4731 35.9533 16.6129 35.9557 16.8751C35.9605 17.506 35.9605 18.1368 35.9557 18.7677C35.9557 19.0315 35.8189 19.1729 35.5637 19.1785C35.3085 19.1841 35.0437 19.1785 34.7845 19.1626C34.6861 19.1554 34.6973 19.1961 34.7045 19.2569C34.8173 21.0016 34.7245 22.7488 34.7549 24.4943C34.7549 24.5599 34.7445 24.627 34.7997 24.679C34.9389 24.8124 34.9597 24.9883 34.9597 25.1721C34.9597 25.3559 34.9597 25.531 34.9597 25.71C34.9533 26.128 34.7605 26.3318 34.3638 26.3382C34.0974 26.3382 33.8302 26.3446 33.5638 26.3382C33.4478 26.3382 33.4038 26.3718 33.4126 26.4981C33.4214 26.7298 33.419 26.9632 33.4126 27.195C33.4038 27.6458 33.1527 27.9143 32.7239 27.9231C32.4007 27.9295 32.0773 27.9295 31.7536 27.9231C31.3176 27.9151 31.064 27.6426 31.0576 27.1814C31.0576 26.956 31.052 26.7298 31.0576 26.5044C31.0576 26.391 31.0408 26.3398 30.9144 26.3398C28.9978 26.3446 27.0814 26.3446 25.1652 26.3398C25.0524 26.3398 25.026 26.3814 25.0284 26.4901C25.0348 26.7293 25.0348 26.9691 25.0284 27.2094C25.018 27.645 24.7629 27.9151 24.3461 27.9247C24.0165 27.9322 23.6867 27.9322 23.3566 27.9247C22.9374 27.9151 22.6854 27.6482 22.6742 27.2102C22.6686 26.9776 22.667 26.745 22.6742 26.5132C22.679 26.3854 22.647 26.3366 22.5142 26.3414C22.2478 26.3518 21.9807 26.3486 21.7143 26.3414C21.3263 26.3334 21.1335 26.1312 21.1247 25.7268C21.1207 25.5278 21.1247 25.3272 21.1247 25.1289C21.1247 25.0091 21.1247 24.8748 21.2047 24.7885C21.3335 24.655 21.3287 24.4983 21.3279 24.3321C21.3279 22.911 21.3279 21.4897 21.3279 20.0681C21.3218 19.8024 21.3379 19.5367 21.3759 19.2736C21.3903 19.1937 21.3879 19.1426 21.2719 19.1633C21.0067 19.1987 20.7383 19.2035 20.472 19.1777C20.2528 19.1673 20.124 19.0219 20.1216 18.7877C20.1157 18.1435 20.1157 17.4993 20.1216 16.8551C20.1216 16.6241 20.2576 16.4811 20.4784 16.4699C20.7183 16.4571 20.9583 16.4579 21.1983 16.4699C21.4383 16.4819 21.5543 16.6233 21.5631 16.8839C21.5775 17.0693 21.5463 17.2595 21.5991 17.445ZM28.0354 19.1833H32.2039C32.6751 19.1833 32.8487 18.9931 32.8215 18.5024C32.7767 17.7031 32.7231 16.9119 32.6823 16.1166C32.6567 15.6275 32.4647 15.4269 31.9919 15.4269H24.0933C24.0421 15.4269 23.9917 15.4269 23.9405 15.4269C23.6717 15.4452 23.4989 15.5979 23.4278 15.8728C23.3758 16.0743 23.3942 16.2821 23.3798 16.4859C23.331 17.1876 23.2926 17.8909 23.2518 18.5927C23.2382 18.8237 23.3062 19.0163 23.5141 19.1218C23.6314 19.1718 23.759 19.1929 23.8861 19.1833C25.269 19.1833 26.6521 19.1833 28.0354 19.1833ZM28.0354 13.6501C27.3421 13.6501 26.6507 13.6501 25.9612 13.6501C25.6804 13.6501 25.5364 13.7668 25.5356 13.9882C25.5348 14.2096 25.6876 14.3287 25.9604 14.3327H26.0172C27.3621 14.3327 28.7071 14.3327 30.0521 14.3327C30.1328 14.335 30.2135 14.3266 30.2921 14.3079C30.335 14.2968 30.3751 14.2769 30.4099 14.2495C30.4447 14.2221 30.4734 14.1878 30.4942 14.1487C30.5151 14.1097 30.5275 14.0667 30.5309 14.0226C30.5342 13.9784 30.5284 13.9341 30.5136 13.8923C30.4569 13.6869 30.3009 13.6525 30.1249 13.6525L28.0354 13.6501ZM24.7245 21.6482C24.1693 21.6482 23.7237 22.1054 23.7165 22.6872C23.7093 23.2691 24.1549 23.7422 24.7085 23.7502C25.262 23.7582 25.7148 23.2803 25.7204 22.704C25.726 22.1278 25.2788 21.6514 24.7245 21.6482ZM31.368 21.6482C30.8152 21.6482 30.3633 22.1126 30.3585 22.692C30.3537 23.2715 30.8064 23.7486 31.3552 23.7534C31.9039 23.7582 32.3583 23.2859 32.3623 22.7056C32.3663 22.1254 31.9183 21.6506 31.368 21.6474V21.6482Z" fill="white"/>
</svg>
