<svg width="56" height="81" viewBox="0 0 56 81" fill="none" xmlns="http://www.w3.org/2000/svg">
<path d="M24.8812 47.595V61.185H26.1112V47.595H24.8812ZM21.2962 52.635V53.655H25.2412V52.635H21.2962ZM15.4912 48.675V57.78H21.7162V48.675H20.4862V52.2H16.7212V48.675H15.4912ZM16.7212 53.19H20.4862V56.745H16.7212V53.19ZM34.18 48.54V49.575C34.18 51.885 31.63 53.955 29.245 54.405L29.8 55.44C32.515 54.825 35.26 52.53 35.26 49.575V48.54H34.18ZM34.405 48.54V49.575C34.405 52.545 37.165 54.825 39.865 55.44L40.42 54.405C38.05 53.955 35.485 51.9 35.485 49.575V48.54H34.405ZM28.75 58.32V59.34H41.035V58.32H28.75ZM17.9818 65.595V79.185H19.2118V65.595H17.9818ZM15.1618 70.71V71.745H18.1618V70.71H15.1618ZM8.66676 74.895V75.93H9.70176C12.2818 75.93 13.9318 75.855 15.8818 75.51L15.7618 74.49C13.8568 74.85 12.2518 74.895 9.70176 74.895H8.66676ZM8.66676 66.84V75.255H9.89676V67.875H14.9368V66.84H8.66676ZM9.58176 70.65V71.655H14.3518V70.65H9.58176ZM22.6156 66.93V75.765H28.8556V66.93H22.6156ZM27.6406 67.935V74.76H23.8306V67.935H27.6406ZM31.6906 65.595V79.185H32.9356V65.595H31.6906ZM36.4294 66.255V71.685H37.6744V66.255H36.4294ZM36.4294 71.01V72.045H37.4794C39.6844 72.045 41.5444 71.94 43.6444 71.52L43.4794 70.485C41.4544 70.89 39.6394 71.01 37.4794 71.01H36.4294ZM41.7094 67.86V68.88H45.8494V67.86H41.7094ZM45.5494 65.61V72.615H46.7944V65.61H45.5494ZM38.0644 73.245V74.265H45.5644V75.57H38.1094V78.525H39.3394V76.515H46.7944V73.245H38.0644ZM38.1094 77.985V78.99H47.2744V77.985H38.1094Z" fill="#7D7D7D"/>
<path d="M47.9962 19.9429C48.2122 30.9283 38.6972 40 28.0301 40C17.3541 40.001 7.97505 30.9273 8.00005 19.8988C8.02405 9.24203 17.2111 -0.00700969 28.0451 3.98633e-06C38.8202 0.00701766 48.2162 9.23 47.9962 19.9429Z" fill="#C6C6C6"/>
<path d="M43.4003 27.5739C43.1943 27.9737 42.8533 28.0658 42.4293 28.0578C41.4143 28.0388 40.3983 28.0558 39.3833 28.0478C39.2103 28.0468 39.1303 28.0969 39.0693 28.2632C38.6833 29.3203 37.7373 29.9856 36.6343 29.9936C35.5273 30.0016 34.5623 29.3333 34.1663 28.2642C34.1043 28.0959 34.0273 28.0478 33.8543 28.0478C29.8223 28.0528 25.7903 28.0528 21.7583 28.0478C21.5842 28.0478 21.5042 28.0989 21.4432 28.2642C21.0542 29.3223 20.1122 29.9856 19.0082 29.9936C17.8982 30.0016 16.9442 29.3373 16.5442 28.2622C16.4822 28.0939 16.4002 28.0448 16.2282 28.0478C15.5552 28.0578 14.8812 28.0548 14.2072 28.0508C13.6602 28.0478 13.4062 27.7883 13.4022 27.2382C13.3992 26.8374 13.3972 26.4357 13.4022 26.0349C13.4092 25.579 13.6042 25.3355 14.0452 25.2784C14.2312 25.2543 14.2312 25.1652 14.2312 25.0279C14.2282 24.1382 14.2582 23.2464 14.2222 22.3577C14.1742 21.1463 14.3232 19.963 14.5852 18.7847C14.7632 17.9842 14.9022 17.1756 15.0672 16.373C15.0962 16.2328 15.1022 16.1807 14.9262 16.1566C14.4192 16.0855 14.2332 15.845 14.2292 15.322C14.2182 14.1096 14.9932 13.297 16.1972 13.296C24.0753 13.292 31.9543 13.289 39.8323 13.297C41.4943 13.299 42.6963 14.5344 42.6983 16.2037C42.7023 19.1084 42.7003 22.014 42.6983 24.9187C42.6983 25.1201 42.6823 25.2834 42.9653 25.3215C43.1833 25.3505 43.2763 25.585 43.3993 25.7543V27.5739H43.4003ZM25.3673 16.1676C24.6363 16.1676 23.9043 16.1736 23.1733 16.1636C22.9983 16.1616 22.9433 16.2007 22.9443 16.3861C22.9533 17.5092 22.9533 18.6334 22.9443 19.7566C22.9433 19.941 22.9813 20.0031 23.1803 20.0021C24.6333 19.9931 26.0863 19.9941 27.5393 20.0011C27.7213 20.0011 27.7893 19.966 27.7873 19.7646C27.7773 18.6415 27.7783 17.5173 27.7863 16.3941C27.7873 16.2177 27.7453 16.1606 27.5613 16.1636C26.8303 16.1746 26.0983 16.1676 25.3673 16.1676V16.1676ZM31.5763 16.1676C30.8453 16.1676 30.1133 16.1736 29.3823 16.1636C29.2063 16.1616 29.1523 16.2017 29.1543 16.3871C29.1633 17.5203 29.1623 18.6545 29.1553 19.7877C29.1553 19.949 29.1923 20.0021 29.3623 20.0021C30.8353 19.9951 32.3073 19.9941 33.7803 20.0031C33.9773 20.0041 33.9973 19.929 33.9963 19.7646C33.9903 18.6405 33.9893 17.5173 33.9963 16.3931C33.9973 16.2147 33.9523 16.1606 33.7703 16.1636C33.0393 16.1746 32.3073 16.1676 31.5763 16.1676V16.1676ZM39.7053 19.9971C39.5253 19.2456 39.3683 18.5312 39.1833 17.8249C38.9583 16.9672 38.4113 16.4011 37.5403 16.2237C36.8593 16.0855 36.1593 16.1867 35.4683 16.1676C35.3393 16.1636 35.3693 16.2628 35.3693 16.334C35.3683 17.4972 35.3693 18.6605 35.3663 19.8238C35.3663 19.938 35.3813 19.9991 35.5213 19.9991C36.9063 19.9941 38.2913 19.9961 39.7043 19.9961L39.7053 19.9971ZM21.5752 18.0633C21.5752 17.4962 21.5702 16.9291 21.5782 16.363C21.5802 16.2087 21.5332 16.1636 21.3802 16.1646C20.4242 16.1706 19.4682 16.1716 18.5122 16.1646C18.3432 16.1636 18.3262 16.2358 18.3272 16.374C18.3312 17.5173 18.3322 18.6615 18.3262 19.8047C18.3262 19.96 18.3712 20.0021 18.5232 20.0011C19.4692 19.9951 20.4152 19.9911 21.3612 20.0031C21.5592 20.0051 21.5802 19.929 21.5772 19.7646C21.5692 19.1975 21.5742 18.6314 21.5742 18.0643L21.5752 18.0633ZM35.3693 27.3775C35.3733 28.0648 35.9353 28.6269 36.6203 28.6279C37.2963 28.6279 37.8713 28.0568 37.8793 27.3775C37.8863 26.6962 37.2873 26.1 36.6053 26.111C35.9213 26.122 35.3663 26.6912 35.3703 27.3785L35.3693 27.3775ZM18.9912 28.6279C19.6772 28.6309 20.2592 28.0468 20.2532 27.3605C20.2472 26.6871 19.6712 26.113 19.0002 26.11C18.3262 26.108 17.7512 26.6741 17.7402 27.3514C17.7292 28.0418 18.3012 28.6249 18.9912 28.6279V28.6279ZM15.7552 19.9981C16.1052 19.9981 16.4272 19.9871 16.7472 20.0021C16.9302 20.0111 16.9752 19.952 16.9732 19.7727C16.9652 18.6495 16.9692 17.5263 16.9682 16.4031C16.9682 16.2959 17.0152 16.1536 16.8152 16.1656C16.6562 16.1746 16.4992 16.1225 16.4532 16.375C16.2332 17.5734 15.9942 18.7677 15.7552 19.9981Z" fill="white"/>
</svg>
