<svg width="56" height="81" viewBox="0 0 56 81" fill="none" xmlns="http://www.w3.org/2000/svg">
<path d="M24.8812 47.595V61.185H26.1112V47.595H24.8812ZM21.2962 52.635V53.655H25.2412V52.635H21.2962ZM15.4912 48.675V57.78H21.7162V48.675H20.4862V52.2H16.7212V48.675H15.4912ZM16.7212 53.19H20.4862V56.745H16.7212V53.19ZM34.18 48.54V49.575C34.18 51.885 31.63 53.955 29.245 54.405L29.8 55.44C32.515 54.825 35.26 52.53 35.26 49.575V48.54H34.18ZM34.405 48.54V49.575C34.405 52.545 37.165 54.825 39.865 55.44L40.42 54.405C38.05 53.955 35.485 51.9 35.485 49.575V48.54H34.405ZM28.75 58.32V59.34H41.035V58.32H28.75ZM17.9818 65.595V79.185H19.2118V65.595H17.9818ZM15.1618 70.71V71.745H18.1618V70.71H15.1618ZM8.66676 74.895V75.93H9.70176C12.2818 75.93 13.9318 75.855 15.8818 75.51L15.7618 74.49C13.8568 74.85 12.2518 74.895 9.70176 74.895H8.66676ZM8.66676 66.84V75.255H9.89676V67.875H14.9368V66.84H8.66676ZM9.58176 70.65V71.655H14.3518V70.65H9.58176ZM22.6156 66.93V75.765H28.8556V66.93H22.6156ZM27.6406 67.935V74.76H23.8306V67.935H27.6406ZM31.6906 65.595V79.185H32.9356V65.595H31.6906ZM36.4294 66.255V71.685H37.6744V66.255H36.4294ZM36.4294 71.01V72.045H37.4794C39.6844 72.045 41.5444 71.94 43.6444 71.52L43.4794 70.485C41.4544 70.89 39.6394 71.01 37.4794 71.01H36.4294ZM41.7094 67.86V68.88H45.8494V67.86H41.7094ZM45.5494 65.61V72.615H46.7944V65.61H45.5494ZM38.0644 73.245V74.265H45.5644V75.57H38.1094V78.525H39.3394V76.515H46.7944V73.245H38.0644ZM38.1094 77.985V78.99H47.2744V77.985H38.1094Z" fill="#7D7D7D"/>
<path d="M47.9962 19.9429C48.2122 30.9283 38.6972 40 28.0301 40C17.3541 40.001 7.97505 30.9273 8.00005 19.8988C8.02405 9.24203 17.2111 -0.00700969 28.0451 3.98633e-06C38.8202 0.00701766 48.2162 9.23 47.9962 19.9429Z" fill="#30E2D8"/>
<path d="M43.4003 27.5734C43.1943 27.9732 42.8533 28.0653 42.4293 28.0573C41.4143 28.0383 40.3983 28.0553 39.3833 28.0473C39.2103 28.0463 39.1303 28.0964 39.0693 28.2627C38.6833 29.3198 37.7373 29.9851 36.6343 29.9931C35.5273 30.0011 34.5623 29.3328 34.1663 28.2637C34.1043 28.0954 34.0273 28.0473 33.8543 28.0473C29.8223 28.0523 25.7903 28.0523 21.7583 28.0473C21.5842 28.0473 21.5042 28.0984 21.4432 28.2637C21.0542 29.3218 20.1122 29.9851 19.0082 29.9931C17.8982 30.0011 16.9442 29.3368 16.5442 28.2617C16.4822 28.0934 16.4002 28.0443 16.2282 28.0473C15.5552 28.0573 14.8812 28.0543 14.2072 28.0503C13.6602 28.0473 13.4062 27.7878 13.4022 27.2377C13.3992 26.8369 13.3972 26.4352 13.4022 26.0344C13.4092 25.5785 13.6042 25.335 14.0452 25.2779C14.2312 25.2539 14.2312 25.1647 14.2312 25.0274C14.2282 24.1377 14.2582 23.2459 14.2222 22.3572C14.1742 21.1458 14.3232 19.9625 14.5852 18.7842C14.7632 17.9837 14.9022 17.1751 15.0672 16.3725C15.0962 16.2323 15.1022 16.1802 14.9262 16.1561C14.4192 16.085 14.2332 15.8445 14.2292 15.3215C14.2182 14.1091 14.9932 13.2965 16.1972 13.2955C24.0753 13.2915 31.9543 13.2885 39.8323 13.2965C41.4943 13.2985 42.6963 14.534 42.6983 16.2032C42.7023 19.1079 42.7003 22.0135 42.6983 24.9182C42.6983 25.1196 42.6823 25.2829 42.9653 25.321C43.1833 25.35 43.2763 25.5845 43.3993 25.7538V27.5734H43.4003ZM25.3673 16.1671C24.6363 16.1671 23.9043 16.1732 23.1733 16.1631C22.9983 16.1611 22.9433 16.2002 22.9443 16.3856C22.9533 17.5088 22.9533 18.6329 22.9443 19.7561C22.9433 19.9405 22.9813 20.0026 23.1803 20.0016C24.6333 19.9926 26.0863 19.9936 27.5393 20.0006C27.7213 20.0006 27.7893 19.9655 27.7873 19.7642C27.7773 18.641 27.7783 17.5168 27.7863 16.3936C27.7873 16.2172 27.7453 16.1601 27.5613 16.1631C26.8303 16.1742 26.0983 16.1671 25.3673 16.1671V16.1671ZM31.5763 16.1671C30.8453 16.1671 30.1133 16.1732 29.3823 16.1631C29.2063 16.1611 29.1523 16.2012 29.1543 16.3866C29.1633 17.5198 29.1623 18.654 29.1553 19.7872C29.1553 19.9485 29.1923 20.0016 29.3623 20.0016C30.8353 19.9946 32.3073 19.9936 33.7803 20.0026C33.9773 20.0036 33.9973 19.9285 33.9963 19.7642C33.9903 18.64 33.9893 17.5168 33.9963 16.3926C33.9973 16.2142 33.9523 16.1601 33.7703 16.1631C33.0393 16.1742 32.3073 16.1671 31.5763 16.1671V16.1671ZM39.7053 19.9966C39.5253 19.2451 39.3683 18.5307 39.1833 17.8244C38.9583 16.9667 38.4113 16.4006 37.5403 16.2233C36.8593 16.085 36.1593 16.1862 35.4683 16.1671C35.3393 16.1631 35.3693 16.2623 35.3693 16.3335C35.3683 17.4967 35.3693 18.66 35.3663 19.8233C35.3663 19.9375 35.3813 19.9986 35.5213 19.9986C36.9063 19.9936 38.2913 19.9956 39.7043 19.9956L39.7053 19.9966ZM21.5752 18.0628C21.5752 17.4957 21.5702 16.9286 21.5782 16.3625C21.5802 16.2082 21.5332 16.1631 21.3802 16.1641C20.4242 16.1701 19.4682 16.1711 18.5122 16.1641C18.3432 16.1631 18.3262 16.2353 18.3272 16.3735C18.3312 17.5168 18.3322 18.661 18.3262 19.8042C18.3262 19.9595 18.3712 20.0016 18.5232 20.0006C19.4692 19.9946 20.4152 19.9906 21.3612 20.0026C21.5592 20.0046 21.5802 19.9285 21.5772 19.7642C21.5692 19.197 21.5742 18.6309 21.5742 18.0638L21.5752 18.0628ZM35.3693 27.377C35.3733 28.0643 35.9353 28.6264 36.6203 28.6274C37.2963 28.6274 37.8713 28.0563 37.8793 27.377C37.8863 26.6957 37.2873 26.0995 36.6053 26.1105C35.9213 26.1216 35.3663 26.6907 35.3703 27.378L35.3693 27.377ZM18.9912 28.6274C19.6772 28.6304 20.2592 28.0463 20.2532 27.36C20.2472 26.6867 19.6712 26.1125 19.0002 26.1095C18.3262 26.1075 17.7512 26.6736 17.7402 27.351C17.7292 28.0413 18.3012 28.6244 18.9912 28.6274V28.6274ZM15.7552 19.9976C16.1052 19.9976 16.4272 19.9866 16.7472 20.0016C16.9302 20.0106 16.9752 19.9515 16.9732 19.7722C16.9652 18.649 16.9692 17.5258 16.9682 16.4026C16.9682 16.2954 17.0152 16.1531 16.8152 16.1651C16.6562 16.1742 16.4992 16.1221 16.4532 16.3745C16.2332 17.5729 15.9942 18.7672 15.7552 19.9976Z" fill="white"/>
</svg>
