<svg width="56" height="62" viewBox="0 0 56 62" fill="none" xmlns="http://www.w3.org/2000/svg">
<path d="M20.7112 49.02V49.155C20.7112 52.845 19.3612 55.875 15.0712 57.99L15.7462 58.95C20.6062 56.535 21.9262 52.935 21.9262 49.02H20.7112ZM15.8062 49.02V50.025H21.4462V49.02H15.8062ZM20.5162 52.38L15.1312 52.74L15.3262 53.85L20.5162 53.34V52.38ZM24.1162 47.595V61.17H25.3762V47.595H24.1162ZM25.0312 53.1V54.135H27.5362V53.1H25.0312ZM39.13 47.61V61.17H40.33V47.61H39.13ZM34.66 52.77V53.865H36.91V52.77H34.66ZM36.505 47.94V60.465H37.69V47.94H36.505ZM28.87 49.32V50.34H35.065V49.32H28.87ZM28.75 57.84C30.49 57.84 33.325 57.78 35.44 57.375L35.35 56.46C33.295 56.73 30.355 56.79 28.6 56.79L28.75 57.84ZM29.98 49.98V57.075H31.12V49.98H29.98ZM32.8 49.98V57.075H33.94V49.98H32.8Z" fill="#7D7D7D"/>
<path d="M47.9971 20.0315C48.1739 30.9008 38.7978 40.1422 27.7354 39.9983C17.1417 39.8601 8 30.8793 8 19.9867C8 9.09416 17.2721 -0.132821 28.2858 0.00144722C38.813 0.132519 48.1875 9.047 47.9971 20.0315Z" fill="#C6C6C6"/>
<path d="M40.4405 27.0393C40.3285 27.1344 40.3509 27.279 40.3125 27.3997C40.0462 28.2317 39.4934 28.8167 38.7487 29.2435C37.8143 29.779 36.7856 30.0244 35.7417 30.2218C33.2547 30.6917 30.7404 30.8428 28.2142 30.8436C27.0031 30.8436 25.7928 30.8396 24.5849 30.7381C22.6122 30.5734 20.6651 30.2769 18.8253 29.5089C17.9341 29.1372 17.1454 28.6169 16.6654 27.7322C16.6358 27.6771 16.6086 27.6211 16.5798 27.5668C16.2271 26.9066 16.6182 26.6365 17.1598 26.5949C17.6334 26.5589 18.1117 26.5949 18.5877 26.5949C19.2868 26.5949 19.986 26.5949 20.6268 26.5949C20.406 26.4542 20.11 26.2888 19.8388 26.0898C18.5069 25.11 17.7142 23.7721 17.2886 22.1992C16.8886 20.7278 16.8702 19.2253 16.9382 17.7164C16.9526 17.3815 16.9846 17.0474 17.003 16.7126C17.0294 16.2234 17.323 15.9373 17.8126 15.9373C20.2188 15.9373 22.625 15.9421 25.0304 15.9373C28.7022 15.9293 32.3731 15.8382 36.0433 15.7455C36.1446 15.7423 36.2461 15.7447 36.3472 15.7527C36.788 15.7887 36.9368 15.9126 37.0608 16.3281C37.1888 16.7613 37.3064 17.1969 37.3976 17.6389C37.4144 17.7188 37.42 17.7987 37.5407 17.8163C39.0134 18.0313 39.7918 18.9704 40.0846 20.3482C40.3325 21.5167 40.1582 22.6372 39.4334 23.617C38.7087 24.5969 37.7023 24.8862 36.5336 24.7271C36.4392 24.7143 36.36 24.6888 36.2832 24.7839C35.7457 25.4504 35.0545 25.9292 34.3234 26.3559C34.3037 26.3689 34.285 26.3834 34.2674 26.3991C34.317 26.463 34.3842 26.4295 34.4378 26.4271C35.6945 26.3735 36.9504 26.312 38.2063 26.2632C38.7439 26.2425 39.2814 26.2401 39.819 26.2433C40.1118 26.2433 40.3453 26.3615 40.4437 26.6636L40.4405 27.0393ZM26.9471 17.121C24.1785 17.1617 21.2811 17.1553 18.3877 17.1441C18.2741 17.1441 18.1717 17.1114 18.1589 17.304C18.0613 18.7314 18.0261 20.1556 18.3189 21.5686C18.6437 23.1439 19.4092 24.4202 20.8219 25.2626C22.2834 26.133 23.8977 26.467 25.5648 26.6213C26.6047 26.7172 27.6407 26.6317 28.679 26.6213C29.9994 26.6109 31.308 26.3707 32.5459 25.9116C33.4162 25.5919 34.2186 25.1459 34.8849 24.489C35.9481 23.4404 36.376 22.1249 36.4632 20.6727C36.5352 19.4619 36.3504 18.2806 36.0401 17.113C36.0009 16.9667 35.9337 16.9427 35.7961 16.9467C32.8851 17.0243 29.9813 17.0994 26.9471 17.121ZM18.2277 27.8257C18.2669 27.8585 18.3077 27.8928 18.3461 27.924C18.9861 28.4219 19.7412 28.6745 20.5148 28.8663C22.6322 29.3914 24.7913 29.6016 26.9639 29.6415C29.8253 29.6951 32.6779 29.5712 35.5017 29.0525C36.4312 28.8815 37.352 28.6841 38.1863 28.2109C38.5312 28.0285 38.8207 27.7569 39.0246 27.4245C32.0787 27.7338 25.1696 28.087 18.2269 27.8257H18.2277ZM37.0384 23.5731C37.6831 23.5419 38.2047 23.3397 38.5511 22.837C39.1798 21.9259 39.1814 20.9596 38.7031 19.9878C38.5992 19.7677 38.4489 19.5727 38.2625 19.4161C38.0761 19.2595 37.858 19.1451 37.6231 19.0807C37.7583 20.6207 37.6655 22.1161 37.0384 23.5731Z" fill="white"/>
<path d="M22.9108 15.1065C22.7971 15.1096 22.685 15.0783 22.5894 15.0167C22.4938 14.955 22.419 14.866 22.3749 14.7612C22.3262 14.6627 22.3102 14.5511 22.3294 14.4429C22.3485 14.3347 22.4017 14.2353 22.4812 14.1594C22.6412 13.9828 22.8364 13.8349 22.9748 13.6311C23.0577 13.5174 23.113 13.3861 23.1364 13.2474C23.1599 13.1087 23.1509 12.9665 23.11 12.8319C23.0028 12.4267 22.7772 12.0806 22.5836 11.7186C22.3525 11.287 22.1037 10.8642 21.9797 10.3839C21.8045 9.70536 21.8861 9.07238 22.2997 8.49454C22.3642 8.39548 22.4581 8.31909 22.5683 8.27609C22.6785 8.23309 22.7994 8.22563 22.914 8.25477C23.0182 8.27403 23.1147 8.3224 23.1924 8.39426C23.2702 8.46612 23.3259 8.55854 23.3532 8.66078C23.3766 8.73976 23.3808 8.8232 23.3653 8.90412C23.3499 8.98504 23.3153 9.06109 23.2644 9.12592C22.9788 9.53752 23.0036 9.9667 23.2084 10.3887C23.4692 10.9266 23.7748 11.4429 24.0299 11.9871C24.3315 12.6265 24.4467 13.2923 24.1275 13.9676C23.9307 14.3856 23.6148 14.7069 23.2612 14.9938C23.1636 15.0757 23.0379 15.1161 22.9108 15.1065Z" fill="white"/>
<path d="M25.9188 15.107C25.8048 15.1099 25.6926 15.0782 25.5969 15.0162C25.5012 14.9541 25.4266 14.8646 25.3829 14.7593C25.3342 14.6605 25.3184 14.5487 25.3378 14.4403C25.3573 14.3319 25.4109 14.2325 25.4909 14.1567C25.6613 13.9753 25.8589 13.8202 25.9988 13.6085C26.0747 13.4995 26.1253 13.3751 26.147 13.2442C26.1687 13.1133 26.161 12.9792 26.1244 12.8516C26.014 12.4312 25.7837 12.0684 25.5773 11.6935C25.2637 11.1261 24.9549 10.5602 24.9077 9.89289C24.8636 9.37517 25.0199 8.86027 25.3445 8.45429C25.4361 8.34052 25.5677 8.26595 25.7125 8.24575C25.8573 8.22555 26.0043 8.26126 26.1236 8.3456C26.374 8.51344 26.4764 8.80995 26.3052 9.0585C25.9252 9.61236 26.0612 10.1319 26.3364 10.6633C26.626 11.2228 26.9764 11.7487 27.1812 12.3521C27.4899 13.272 27.2732 14.0544 26.5812 14.7146C26.3892 14.8952 26.2204 15.1206 25.9188 15.107Z" fill="white"/>
<path d="M30.3187 13.2262C30.2987 13.9903 29.8387 14.5673 29.2044 15.0301C28.974 15.1987 28.6244 15.11 28.4492 14.8846C28.2741 14.6592 28.2932 14.3675 28.506 14.1429C28.6716 13.9679 28.8604 13.8161 28.9972 13.6115C29.0735 13.5027 29.1245 13.3783 29.1464 13.2474C29.1682 13.1164 29.1605 12.9822 29.1236 12.8546C29.0124 12.435 28.7812 12.0722 28.5756 11.6973C28.2645 11.1291 27.9541 10.564 27.9069 9.89589C27.8656 9.38595 28.0155 8.87888 28.3276 8.47328C28.4178 8.35341 28.551 8.27317 28.6991 8.24947C28.8473 8.22576 28.9989 8.26044 29.122 8.3462C29.3708 8.51244 29.4732 8.81455 29.3044 9.05991C28.9228 9.61297 29.0644 10.1341 29.3364 10.6647C29.6292 11.2306 29.9923 11.7613 30.1859 12.3767C30.2747 12.6511 30.3195 12.9378 30.3187 13.2262Z" fill="white"/>
<path d="M35.0536 19.8712C35.0488 21.7361 34.3454 23.2876 32.9434 24.5259C32.6738 24.7656 32.3658 24.7728 32.0946 24.561C31.8051 24.3341 31.7747 23.9912 32.0378 23.7347C32.3954 23.3862 32.7522 23.0385 33.033 22.6213C33.7657 21.536 33.9929 20.3428 33.8049 19.0576C33.7433 18.6396 33.9513 18.3423 34.3433 18.2664C34.6633 18.2041 34.9032 18.3607 34.9544 18.6828C35.0243 19.075 35.0575 19.4729 35.0536 19.8712V19.8712Z" fill="white"/>
</svg>
