<svg width="56" height="62" viewBox="0 0 56 62" fill="none" xmlns="http://www.w3.org/2000/svg">
<path d="M16.7061 56.6089H18.1123C18.0391 57.2827 17.8462 57.8857 17.5337 58.418C17.2212 58.9502 16.7793 59.3726 16.208 59.6851C15.6367 59.9927 14.9238 60.1465 14.0693 60.1465C13.4443 60.1465 12.8755 60.0293 12.3628 59.7949C11.855 59.5605 11.418 59.2285 11.0518 58.7988C10.6855 58.3643 10.4023 57.8442 10.2021 57.2388C10.0068 56.6284 9.90918 55.9497 9.90918 55.2026V54.1406C9.90918 53.3936 10.0068 52.7173 10.2021 52.1118C10.4023 51.5015 10.688 50.979 11.0591 50.5444C11.4351 50.1099 11.8867 49.7754 12.4141 49.541C12.9414 49.3066 13.5347 49.1895 14.1938 49.1895C14.9995 49.1895 15.6807 49.3408 16.2373 49.6436C16.7939 49.9463 17.2261 50.3662 17.5337 50.9033C17.8462 51.4355 18.0391 52.0532 18.1123 52.7563H16.7061C16.6377 52.2583 16.5107 51.8311 16.3252 51.4746C16.1396 51.1133 15.876 50.835 15.5342 50.6396C15.1924 50.4443 14.7456 50.3467 14.1938 50.3467C13.7202 50.3467 13.3027 50.437 12.9414 50.6177C12.585 50.7983 12.2847 51.0547 12.0405 51.3867C11.8013 51.7188 11.6206 52.1167 11.4985 52.5806C11.3765 53.0444 11.3154 53.5596 11.3154 54.126V55.2026C11.3154 55.7251 11.3691 56.2158 11.4766 56.6748C11.5889 57.1338 11.7573 57.5366 11.9819 57.8833C12.2065 58.23 12.4922 58.5034 12.8389 58.7036C13.1855 58.8989 13.5957 58.9966 14.0693 58.9966C14.6699 58.9966 15.1484 58.9014 15.5049 58.7109C15.8613 58.5205 16.1299 58.2471 16.3105 57.8906C16.4961 57.5342 16.6279 57.1069 16.7061 56.6089ZM26.4766 56.6089H27.8828C27.8096 57.2827 27.6167 57.8857 27.3042 58.418C26.9917 58.9502 26.5498 59.3726 25.9785 59.6851C25.4072 59.9927 24.6943 60.1465 23.8398 60.1465C23.2148 60.1465 22.646 60.0293 22.1333 59.7949C21.6255 59.5605 21.1885 59.2285 20.8223 58.7988C20.4561 58.3643 20.1729 57.8442 19.9727 57.2388C19.7773 56.6284 19.6797 55.9497 19.6797 55.2026V54.1406C19.6797 53.3936 19.7773 52.7173 19.9727 52.1118C20.1729 51.5015 20.4585 50.979 20.8296 50.5444C21.2056 50.1099 21.6572 49.7754 22.1846 49.541C22.7119 49.3066 23.3052 49.1895 23.9644 49.1895C24.77 49.1895 25.4512 49.3408 26.0078 49.6436C26.5645 49.9463 26.9966 50.3662 27.3042 50.9033C27.6167 51.4355 27.8096 52.0532 27.8828 52.7563H26.4766C26.4082 52.2583 26.2812 51.8311 26.0957 51.4746C25.9102 51.1133 25.6465 50.835 25.3047 50.6396C24.9629 50.4443 24.5161 50.3467 23.9644 50.3467C23.4907 50.3467 23.0732 50.437 22.7119 50.6177C22.3555 50.7983 22.0552 51.0547 21.811 51.3867C21.5718 51.7188 21.3911 52.1167 21.269 52.5806C21.147 53.0444 21.0859 53.5596 21.0859 54.126V55.2026C21.0859 55.7251 21.1396 56.2158 21.2471 56.6748C21.3594 57.1338 21.5278 57.5366 21.7524 57.8833C21.9771 58.23 22.2627 58.5034 22.6094 58.7036C22.9561 58.8989 23.3662 58.9966 23.8398 58.9966C24.4404 58.9966 24.9189 58.9014 25.2754 58.7109C25.6318 58.5205 25.9004 58.2471 26.0811 57.8906C26.2666 57.5342 26.3984 57.1069 26.4766 56.6089ZM33.5298 49.3359V60H32.1382V49.3359H33.5298ZM36.9575 49.3359V50.4932H28.7178V49.3359H36.9575ZM42.0991 58.3813L45.2412 49.3359H46.772L42.8242 60H41.7329L42.0991 58.3813ZM39.1621 49.3359L42.2749 58.3813L42.6631 60H41.5718L37.6313 49.3359H39.1621Z" fill="#7D7D7D"/>
<path d="M47.9962 19.9429C48.2122 30.9283 38.6972 40 28.0301 40C17.3541 40.001 7.97505 30.9273 8.00005 19.8988C8.02405 9.24203 17.2111 -0.00700969 28.0451 3.98633e-06C38.8202 0.00701766 48.2162 9.23 47.9962 19.9429Z" fill="#C6C6C6"/>
<path d="M15.253 22.8457C15.454 22.3758 15.807 22.1914 16.315 22.2285C16.949 22.2746 17.592 22.1633 18.222 22.2956C19.024 22.4639 19.594 22.9419 19.937 23.6823C20.005 23.8286 20.078 23.8797 20.238 23.8787C21.022 23.8697 21.806 23.8707 22.589 23.8787C22.737 23.8807 22.816 23.8376 22.88 23.7023C23.095 23.2505 23.318 22.8026 23.552 22.3607C23.637 22.2014 23.61 22.1423 23.446 22.0662C22.158 21.473 20.876 20.8698 19.592 20.2686C17.855 19.4551 16.978 17.9652 17.111 16.0444C17.145 15.5565 17.301 15.0996 17.505 14.6597C18.167 13.2319 18.829 11.8041 19.501 10.3804C20.288 8.71111 21.782 7.82839 23.617 7.94361C24.131 7.97568 24.614 8.13699 25.079 8.35441C30.9321 11.0887 36.7861 13.8221 42.6391 16.5564C43.2641 16.848 43.4041 17.2828 43.0891 17.889C42.7531 18.5353 42.3271 19.1094 41.7751 19.5863C41.6601 19.6855 41.6101 19.7516 41.7261 19.9069C41.9391 20.1915 41.8831 20.5031 41.7391 20.8117C40.9911 22.4108 40.2481 24.0119 39.5041 25.6121C39.3581 25.9257 39.2151 26.2403 39.0651 26.5519C38.8081 27.0869 38.3921 27.2402 37.8501 26.9908C37.1571 26.6721 36.4651 26.3485 35.7761 26.0209C35.6601 25.9658 35.5751 25.9417 35.4591 26.0399C34.6031 26.7653 33.6651 26.8435 32.6621 26.3756C31.2221 25.7022 29.7791 25.0329 28.3421 24.3536C28.1581 24.2664 28.0771 24.2674 27.9791 24.4718C27.529 25.4067 27.048 26.3265 26.596 27.2593C26.089 28.3043 25.268 28.8073 24.11 28.7953C22.889 28.7833 21.667 28.7983 20.446 28.7873C20.224 28.7853 20.15 28.8303 20.16 29.0668C20.188 29.681 20.156 30.2902 19.824 30.8383C19.389 31.5577 18.76 31.9885 17.922 32.0456C17.296 32.0887 16.665 32.0646 16.036 32.0636C15.623 32.0626 15.41 31.7891 15.25 31.4535V22.8487L15.253 22.8457ZM33.8371 25.0309C34.1831 25.0059 34.4401 24.8466 34.5891 24.5269C35.1461 23.3316 35.7001 22.1343 36.2641 20.943C36.3371 20.7897 36.2701 20.7636 36.1571 20.7195C35.8951 20.6183 35.6311 20.5181 35.3761 20.3989C30.3301 18.0433 25.285 15.6867 20.242 13.3241C20.043 13.2309 19.958 13.2419 19.865 13.4564C19.594 14.0826 19.294 14.6958 19.01 15.316C18.365 16.7227 18.862 18.1124 20.257 18.7667C24.633 20.8167 29.0131 22.8597 33.3911 24.9057C33.5321 24.9718 33.6771 25.0229 33.8351 25.0309H33.8371ZM23.235 9.57379C22.704 9.5768 22.253 9.74112 21.834 10.0237C21.258 10.4134 21.005 11.0216 20.728 11.6168C20.676 11.728 20.744 11.756 20.826 11.7931C21.074 11.9053 21.319 12.0256 21.566 12.1408C26.431 14.4132 31.2951 16.6897 36.1631 18.9561C37.9611 19.7937 39.9351 19.3629 41.1331 17.9C41.2321 17.7798 41.2801 17.7257 41.0931 17.6385C35.5101 15.0354 29.9291 12.4254 24.347 9.82027C23.991 9.65395 23.613 9.54975 23.235 9.57379ZM22.313 27.1511C22.942 27.1511 23.571 27.1491 24.2 27.1511C24.576 27.1521 24.877 27.0228 25.052 26.6731C25.549 25.6812 26.042 24.6863 26.543 23.6953C26.607 23.5691 26.577 23.525 26.461 23.4729C26.08 23.3016 25.697 23.1312 25.326 22.9409C25.156 22.8527 25.1 22.9078 25.028 23.0581C24.731 23.6723 24.408 24.2735 24.119 24.8917C23.911 25.3365 23.584 25.5229 23.102 25.5159C22.2 25.5029 21.297 25.5159 20.395 25.5089C20.226 25.5079 20.156 25.5379 20.164 25.7283C20.18 26.1291 20.181 26.5319 20.164 26.9336C20.156 27.129 20.232 27.1561 20.399 27.1541C21.037 27.1461 21.675 27.1511 22.313 27.1511V27.1511ZM16.893 27.119C16.893 28.131 16.902 29.144 16.886 30.1559C16.882 30.3934 16.952 30.4535 17.172 30.4295C17.352 30.4094 17.536 30.4295 17.718 30.4224C18.182 30.4014 18.521 30.0908 18.524 29.6289C18.536 27.9787 18.536 26.3275 18.525 24.6772C18.522 24.2153 18.183 23.8987 17.724 23.8777C17.524 23.8687 17.322 23.8887 17.124 23.8697C16.927 23.8506 16.887 23.9228 16.888 24.1101C16.898 25.1131 16.893 26.116 16.893 27.119ZM39.9981 20.6734C39.3311 20.8889 38.7291 21.0151 38.1101 21.0291C38.0131 21.0311 37.9921 21.1003 37.9621 21.1634C37.4671 22.2265 36.9741 23.2905 36.4761 24.3526C36.4211 24.4698 36.4341 24.5209 36.5561 24.575C36.9301 24.7404 37.3011 24.9107 37.6661 25.0951C37.8351 25.1812 37.9161 25.1792 38.0021 24.9828C38.2861 24.3336 38.5921 23.6933 38.8911 23.0501C39.2471 22.2846 39.6041 21.5191 39.9991 20.6734H39.9981Z" fill="white"/>
<path d="M33.8571 21.9282C33.8571 22.6256 33.2701 23.0123 32.7041 22.7699C32.2211 22.5635 31.7501 22.328 31.2731 22.1046C30.7881 21.8781 30.3031 21.6537 29.8201 21.4232C29.3211 21.1858 29.1311 20.7259 29.3441 20.286C29.5521 19.8572 30.0171 19.7129 30.5061 19.9393C31.4441 20.3722 32.3791 20.815 33.3171 21.2489C33.6531 21.4042 33.8481 21.6487 33.8571 21.9272V21.9282Z" fill="white"/>
<path d="M21.9873 16.4757C21.9903 16.9295 21.6303 17.3003 21.1823 17.3043C20.7423 17.3083 20.3603 16.9325 20.3553 16.4887C20.3513 16.0458 20.7233 15.6691 21.1683 15.6651C21.6213 15.6611 21.9833 16.0198 21.9863 16.4747L21.9873 16.4757Z" fill="white"/>
<path d="M23.3321 17.8586C23.3371 17.4067 23.7101 17.039 24.1541 17.048C24.6021 17.056 24.9621 17.4308 24.9561 17.8806C24.9501 18.3325 24.5841 18.6902 24.1311 18.6852C23.6801 18.6802 23.3261 18.3145 23.3311 17.8586H23.3321Z" fill="white"/>
</svg>
