<svg width="56" height="63" viewBox="0 0 56 63" fill="none" xmlns="http://www.w3.org/2000/svg">
<path d="M6.58234 48.947V49.517C6.58234 51.302 4.25734 52.862 1.87234 53.207L2.35234 54.197C5.08234 53.732 7.66234 51.947 7.66234 49.517V48.947H6.58234ZM6.89734 48.947V49.517C6.89734 51.947 9.46234 53.732 12.2073 54.197L12.6723 53.207C10.3023 52.862 7.96234 51.302 7.96234 49.517V48.947H6.89734ZM6.62734 55.997V61.172H7.85734V55.997H6.62734ZM1.15234 55.337V56.357H13.4073V55.337H1.15234ZM2.29234 48.452V49.457H12.2223V48.452H2.29234ZM15.6562 48.782V55.097H21.9712V48.782H15.6562ZM20.7712 49.787V54.092H16.8562V49.787H20.7712ZM24.8062 47.627V57.362H26.0662V47.627H24.8062ZM17.3512 59.702V60.737H26.4712V59.702H17.3512ZM17.3512 56.432V60.122H18.5812V56.432H17.3512ZM34.225 51.032V52.052H36.79V51.032H34.225ZM38.98 47.612V57.782H40.165V47.612H38.98ZM36.325 47.882V57.392H37.51V47.882H36.325ZM31.33 59.852V60.872H40.585V59.852H31.33ZM31.33 56.537V60.422H32.575V56.537H31.33ZM31.555 48.572V50.567C31.555 52.172 30.52 54.032 28.765 54.887L29.455 55.847C31.42 54.887 32.545 52.667 32.545 50.567V48.572H31.555ZM31.78 48.572V50.567C31.78 52.637 32.815 54.632 34.705 55.487L35.41 54.542C33.715 53.777 32.755 52.157 32.755 50.567V48.572H31.78ZM52.4788 47.597V61.187H53.7088V47.597H52.4788ZM49.6588 52.712V53.747H52.6588V52.712H49.6588ZM43.1638 56.897V57.932H44.1988C46.7788 57.932 48.4288 57.857 50.3788 57.512L50.2588 56.492C48.3538 56.852 46.7488 56.897 44.1988 56.897H43.1638ZM43.1638 48.842V57.257H44.3938V49.877H49.4338V48.842H43.1638ZM44.0788 52.652V53.657H48.8488V52.652H44.0788Z" fill="#7D7D7D"/>
<path d="M47.9962 19.9448C48.2122 30.9303 38.6972 40.002 28.0301 40.002C17.3541 40.003 7.97505 30.9293 8.00005 19.9008C8.02405 9.24398 17.2111 -0.00505656 28.0451 0.00195711C38.8202 0.00897079 48.2162 9.23195 47.9962 19.9448Z" fill="#CE91FF"/>
<path d="M41.5412 15.1659C41.3362 15.4765 41.0442 15.5427 40.6852 15.5427C32.2412 15.5347 23.7971 15.5367 15.3541 15.5367C15.2491 15.5367 15.1421 15.5427 15.0381 15.5266C14.8121 15.4906 14.6531 15.3623 14.5761 15.1439C14.4981 14.9225 14.5531 14.7261 14.7121 14.5618C14.7791 14.4926 14.8581 14.4355 14.9371 14.3804C19.1751 11.4016 23.4141 8.42379 27.6541 5.44599C28.0441 5.17145 28.2111 5.17345 28.6042 5.453C32.7822 8.4268 36.9592 11.4026 41.1392 14.3734C41.3042 14.4906 41.4312 14.6329 41.5422 14.7962V15.1659H41.5412ZM39.1352 14.3674C39.0632 14.3143 39.0322 14.2902 39.0002 14.2682C35.4302 11.7272 31.8592 9.18728 28.2931 6.64031C28.1451 6.53511 28.0601 6.56517 27.9321 6.65534C24.3411 9.18227 20.7481 11.7052 17.1571 14.2311C17.1091 14.2642 17.0231 14.2782 17.0311 14.3684H39.1352V14.3674Z" fill="white"/>
<path d="M28.0352 31.9632C24.2562 31.9632 20.4762 31.9632 16.6972 31.9632C16.0842 31.9632 15.8952 31.7738 15.8952 31.1616C15.8952 30.325 15.8932 29.4884 15.8952 28.6517C15.8972 28.1357 16.0972 27.9343 16.6132 27.9323C17.3252 27.9293 18.0372 27.9223 18.7492 27.9374C18.9642 27.9414 19.0252 27.8933 19.0252 27.6678C19.0172 24.2682 19.0192 20.8696 19.0202 17.4699C19.0202 17.3557 19.0192 17.2395 19.0432 17.1293C19.1012 16.8628 19.3282 16.6894 19.5952 16.6914C19.8682 16.6934 20.0772 16.8598 20.1362 17.1353C20.1602 17.2455 20.1692 17.3617 20.1692 17.475C20.1712 21.077 20.1702 24.678 20.1702 28.28C20.1702 28.8862 19.9772 29.0766 19.3652 29.0776C18.6622 29.0776 17.9592 29.0836 17.2562 29.0736C17.0782 29.0706 17.0312 29.1267 17.0352 29.299C17.0462 29.7389 17.0452 30.1797 17.0352 30.6196C17.0322 30.7679 17.0722 30.83 17.2232 30.809C17.2832 30.8009 17.3462 30.8079 17.4072 30.8079C24.5172 30.8079 31.6282 30.8059 38.7383 30.815C38.9963 30.815 39.0633 30.7508 39.0483 30.4983C39.0253 30.0946 39.0353 29.6888 39.0453 29.284C39.0493 29.1217 38.9993 29.0746 38.8373 29.0756C38.1163 29.0836 37.3963 29.0796 36.6753 29.0786C36.1133 29.0786 35.9083 28.8782 35.9083 28.3231C35.9083 24.695 35.9083 21.067 35.9083 17.4389C35.9083 16.977 36.0953 16.7195 36.4423 16.6964C36.7433 16.6754 36.9903 16.8648 37.0443 17.1684C37.0623 17.2716 37.0593 17.3788 37.0593 17.484C37.0593 20.8746 37.0623 24.2652 37.0533 27.6548C37.0533 27.8913 37.1133 27.9444 37.3413 27.9394C38.0443 27.9233 38.7473 27.9313 39.4503 27.9343C39.9863 27.9363 40.1823 28.1317 40.1833 28.6648C40.1853 29.5104 40.1843 30.3551 40.1833 31.2007C40.1833 31.7598 39.9783 31.9642 39.4233 31.9642C35.6263 31.9642 31.8292 31.9642 28.0322 31.9642L28.0352 31.9632Z" fill="white"/>
<path d="M23.5149 23.4581C23.5149 25.0682 23.5149 26.6793 23.5149 28.2895C23.5149 28.4037 23.5169 28.5199 23.4959 28.6311C23.4469 28.8886 23.2099 29.072 22.9459 29.073C22.6789 29.073 22.4479 28.8947 22.3989 28.6342C22.3759 28.5139 22.3689 28.3897 22.3689 28.2674C22.3669 25.0642 22.3669 21.8609 22.3689 18.6577C22.3689 18.5355 22.3749 18.4112 22.3979 18.291C22.4479 18.0275 22.6739 17.8501 22.9419 17.8491C23.2189 17.8491 23.4539 18.0385 23.4989 18.311C23.5159 18.4142 23.5139 18.5214 23.5139 18.6266C23.5139 20.2368 23.5139 21.8479 23.5139 23.4581H23.5149Z" fill="white"/>
<path d="M32.5672 23.4656C32.5672 21.8204 32.5662 20.1742 32.5672 18.529C32.5672 18.1032 32.7812 17.8507 33.1312 17.8477C33.4092 17.8447 33.6352 18.029 33.6862 18.3086C33.7052 18.4118 33.7122 18.518 33.7122 18.6232C33.7132 21.8445 33.7132 25.0648 33.7122 28.286C33.7122 28.8051 33.5202 29.0686 33.1422 29.0736C32.7632 29.0776 32.5652 28.8131 32.5652 28.2991C32.5652 26.6889 32.5652 25.0778 32.5652 23.4677L32.5672 23.4656Z" fill="white"/>
<path d="M29.1442 23.4645C29.1442 21.8193 29.1432 20.173 29.1442 18.5278C29.1442 18.0699 29.3972 17.8104 29.7902 17.8575C30.0332 17.8866 30.1912 18.0259 30.2552 18.2583C30.2832 18.3585 30.2932 18.4657 30.2932 18.5709C30.2952 21.8273 30.2952 25.0836 30.2952 28.339C30.2952 28.5544 30.2732 28.7638 30.1042 28.9201C29.9432 29.0694 29.7462 29.1105 29.5402 29.0443C29.3342 28.9782 29.1992 28.8279 29.1602 28.6115C29.1422 28.5083 29.1442 28.4011 29.1442 28.2959C29.1442 26.6857 29.1442 25.0746 29.1442 23.4645V23.4645Z" fill="white"/>
<path d="M26.937 23.4895C26.937 25.0997 26.937 26.7098 26.937 28.321C26.937 28.4442 26.942 28.5674 26.9 28.6867C26.813 28.9342 26.596 29.0834 26.3329 29.0704C26.0849 29.0584 25.8809 28.8971 25.8229 28.6526C25.7969 28.5424 25.7849 28.4272 25.7849 28.3139C25.7829 25.0756 25.7829 21.8373 25.7849 18.599C25.7849 18.4948 25.7969 18.3886 25.8199 18.2864C25.8799 18.0229 26.0789 17.8596 26.3399 17.8505C26.6109 17.8405 26.84 18.0008 26.905 18.2664C26.934 18.3836 26.934 18.5098 26.934 18.6321C26.936 20.2512 26.935 21.8704 26.935 23.4895H26.937Z" fill="white"/>
</svg>
