<svg width="56" height="63" viewBox="0 0 56 63" fill="none" xmlns="http://www.w3.org/2000/svg">
<path d="M6.58234 48.947V49.517C6.58234 51.302 4.25734 52.862 1.87234 53.207L2.35234 54.197C5.08234 53.732 7.66234 51.947 7.66234 49.517V48.947H6.58234ZM6.89734 48.947V49.517C6.89734 51.947 9.46234 53.732 12.2073 54.197L12.6723 53.207C10.3023 52.862 7.96234 51.302 7.96234 49.517V48.947H6.89734ZM6.62734 55.997V61.172H7.85734V55.997H6.62734ZM1.15234 55.337V56.357H13.4073V55.337H1.15234ZM2.29234 48.452V49.457H12.2223V48.452H2.29234ZM15.6562 48.782V55.097H21.9712V48.782H15.6562ZM20.7712 49.787V54.092H16.8562V49.787H20.7712ZM24.8062 47.627V57.362H26.0662V47.627H24.8062ZM17.3512 59.702V60.737H26.4712V59.702H17.3512ZM17.3512 56.432V60.122H18.5812V56.432H17.3512ZM34.225 51.032V52.052H36.79V51.032H34.225ZM38.98 47.612V57.782H40.165V47.612H38.98ZM36.325 47.882V57.392H37.51V47.882H36.325ZM31.33 59.852V60.872H40.585V59.852H31.33ZM31.33 56.537V60.422H32.575V56.537H31.33ZM31.555 48.572V50.567C31.555 52.172 30.52 54.032 28.765 54.887L29.455 55.847C31.42 54.887 32.545 52.667 32.545 50.567V48.572H31.555ZM31.78 48.572V50.567C31.78 52.637 32.815 54.632 34.705 55.487L35.41 54.542C33.715 53.777 32.755 52.157 32.755 50.567V48.572H31.78ZM52.4788 47.597V61.187H53.7088V47.597H52.4788ZM49.6588 52.712V53.747H52.6588V52.712H49.6588ZM43.1638 56.897V57.932H44.1988C46.7788 57.932 48.4288 57.857 50.3788 57.512L50.2588 56.492C48.3538 56.852 46.7488 56.897 44.1988 56.897H43.1638ZM43.1638 48.842V57.257H44.3938V49.877H49.4338V48.842H43.1638ZM44.0788 52.652V53.657H48.8488V52.652H44.0788Z" fill="#7D7D7D"/>
<path d="M47.9962 19.9448C48.2122 30.9303 38.6972 40.002 28.0301 40.002C17.3541 40.003 7.97505 30.9293 8.00005 19.9008C8.02405 9.24398 17.2111 -0.00505656 28.0451 0.00195711C38.8202 0.00897079 48.2162 9.23195 47.9962 19.9448Z" fill="#C6C6C6"/>
<path d="M41.5412 15.1655C41.3362 15.4761 41.0442 15.5422 40.6852 15.5422C32.2412 15.5342 23.7971 15.5362 15.3541 15.5362C15.2491 15.5362 15.1421 15.5422 15.0381 15.5262C14.8121 15.4901 14.6531 15.3618 14.5761 15.1434C14.4981 14.922 14.5531 14.7256 14.7121 14.5613C14.7791 14.4921 14.8581 14.435 14.9371 14.3799C19.1751 11.4011 23.4141 8.4233 27.6541 5.4455C28.0441 5.17096 28.2111 5.17297 28.6042 5.45251C32.7822 8.42631 36.9592 11.4021 41.1392 14.3729C41.3042 14.4901 41.4312 14.6324 41.5422 14.7957V15.1655H41.5412ZM39.1352 14.3669C39.0632 14.3138 39.0322 14.2897 39.0002 14.2677C35.4302 11.7267 31.8592 9.18679 28.2931 6.63983C28.1451 6.53462 28.0601 6.56468 27.9321 6.65486C24.3411 9.18178 20.7481 11.7047 17.1571 14.2306C17.1091 14.2637 17.0231 14.2777 17.0311 14.3679H39.1352V14.3669Z" fill="white"/>
<path d="M28.0352 31.9632C24.2562 31.9632 20.4762 31.9632 16.6972 31.9632C16.0842 31.9632 15.8952 31.7738 15.8952 31.1616C15.8952 30.325 15.8932 29.4884 15.8952 28.6517C15.8972 28.1357 16.0972 27.9343 16.6132 27.9323C17.3252 27.9293 18.0372 27.9223 18.7492 27.9374C18.9642 27.9414 19.0252 27.8933 19.0252 27.6678C19.0172 24.2682 19.0192 20.8696 19.0202 17.4699C19.0202 17.3557 19.0192 17.2395 19.0432 17.1293C19.1012 16.8628 19.3282 16.6894 19.5952 16.6914C19.8682 16.6934 20.0772 16.8598 20.1362 17.1353C20.1602 17.2455 20.1692 17.3617 20.1692 17.475C20.1712 21.077 20.1702 24.678 20.1702 28.28C20.1702 28.8862 19.9772 29.0766 19.3652 29.0776C18.6622 29.0776 17.9592 29.0836 17.2562 29.0736C17.0782 29.0706 17.0312 29.1267 17.0352 29.299C17.0462 29.7389 17.0452 30.1797 17.0352 30.6196C17.0322 30.7679 17.0722 30.83 17.2232 30.809C17.2832 30.8009 17.3462 30.8079 17.4072 30.8079C24.5172 30.8079 31.6282 30.8059 38.7383 30.815C38.9963 30.815 39.0633 30.7508 39.0483 30.4983C39.0253 30.0946 39.0353 29.6888 39.0453 29.284C39.0493 29.1217 38.9993 29.0746 38.8373 29.0756C38.1163 29.0836 37.3963 29.0796 36.6753 29.0786C36.1133 29.0786 35.9083 28.8782 35.9083 28.3231C35.9083 24.695 35.9083 21.067 35.9083 17.4389C35.9083 16.977 36.0953 16.7195 36.4423 16.6964C36.7433 16.6754 36.9903 16.8648 37.0443 17.1684C37.0623 17.2716 37.0593 17.3788 37.0593 17.484C37.0593 20.8746 37.0623 24.2652 37.0533 27.6548C37.0533 27.8913 37.1133 27.9444 37.3413 27.9394C38.0443 27.9233 38.7473 27.9313 39.4503 27.9343C39.9863 27.9363 40.1823 28.1317 40.1833 28.6648C40.1853 29.5104 40.1843 30.3551 40.1833 31.2007C40.1833 31.7598 39.9783 31.9642 39.4233 31.9642C35.6263 31.9642 31.8292 31.9642 28.0322 31.9642L28.0352 31.9632Z" fill="white"/>
<path d="M23.5149 23.4576C23.5149 25.0677 23.5149 26.6789 23.5149 28.289C23.5149 28.4032 23.5169 28.5194 23.4959 28.6307C23.4469 28.8882 23.2099 29.0715 22.9459 29.0725C22.6789 29.0725 22.4479 28.8942 22.3989 28.6337C22.3759 28.5134 22.3689 28.3892 22.3689 28.2669C22.3669 25.0637 22.3669 21.8605 22.3689 18.6572C22.3689 18.535 22.3749 18.4107 22.3979 18.2905C22.4479 18.027 22.6739 17.8496 22.9419 17.8486C23.2189 17.8486 23.4539 18.038 23.4989 18.3105C23.5159 18.4137 23.5139 18.5209 23.5139 18.6261C23.5139 20.2363 23.5139 21.8474 23.5139 23.4576H23.5149Z" fill="white"/>
<path d="M32.5672 23.4656C32.5672 21.8204 32.5662 20.1742 32.5672 18.529C32.5672 18.1032 32.7812 17.8507 33.1312 17.8477C33.4092 17.8447 33.6352 18.029 33.6862 18.3086C33.7052 18.4118 33.7122 18.518 33.7122 18.6232C33.7132 21.8445 33.7132 25.0648 33.7122 28.286C33.7122 28.8051 33.5202 29.0686 33.1422 29.0736C32.7632 29.0776 32.5652 28.8131 32.5652 28.2991C32.5652 26.6889 32.5652 25.0778 32.5652 23.4677L32.5672 23.4656Z" fill="white"/>
<path d="M29.1442 23.4649C29.1442 21.8197 29.1432 20.1735 29.1442 18.5283C29.1442 18.0704 29.3972 17.8109 29.7902 17.858C30.0332 17.8871 30.1912 18.0263 30.2552 18.2588C30.2832 18.359 30.2932 18.4662 30.2932 18.5714C30.2952 21.8278 30.2952 25.0841 30.2952 28.3395C30.2952 28.5549 30.2732 28.7643 30.1042 28.9206C29.9432 29.0699 29.7462 29.111 29.5402 29.0448C29.3342 28.9787 29.1992 28.8284 29.1602 28.612C29.1422 28.5088 29.1442 28.4016 29.1442 28.2964C29.1442 26.6862 29.1442 25.0751 29.1442 23.4649V23.4649Z" fill="white"/>
<path d="M26.937 23.49C26.937 25.1002 26.937 26.7103 26.937 28.3214C26.937 28.4447 26.942 28.5679 26.9 28.6872C26.813 28.9346 26.596 29.0839 26.3329 29.0709C26.0849 29.0589 25.8809 28.8976 25.8229 28.6531C25.7969 28.5429 25.7849 28.4277 25.7849 28.3144C25.7829 25.0761 25.7829 21.8378 25.7849 18.5995C25.7849 18.4953 25.7969 18.3891 25.8199 18.2869C25.8799 18.0234 26.0789 17.86 26.3399 17.851C26.6109 17.841 26.84 18.0013 26.905 18.2668C26.934 18.3841 26.934 18.5103 26.934 18.6326C26.936 20.2517 26.935 21.8709 26.935 23.49H26.937Z" fill="white"/>
</svg>
