<svg width="56" height="62" viewBox="0 0 56 62" fill="none" xmlns="http://www.w3.org/2000/svg">
<path d="M17.9518 47.61V57.705H19.1968V47.61H17.9518ZM8.44176 48.705V49.725H15.5818V48.705H8.44176ZM8.21676 55.665C10.4218 55.665 13.4668 55.62 16.0768 55.2L16.0018 54.27C13.4668 54.57 10.3018 54.6 8.08176 54.6L8.21676 55.665ZM9.79176 49.575V54.78H10.9918V49.575H9.79176ZM13.0318 49.575V54.78H14.2318V49.575H13.0318ZM15.7018 50.175V51.195H18.6118V50.175H15.7018ZM15.7018 52.77V53.79H18.6118V52.77H15.7018ZM10.5268 59.85V60.87H19.5568V59.85H10.5268ZM10.5268 56.88V60.495H11.7718V56.88H10.5268ZM26.2456 48.585C24.1306 48.585 22.6006 49.89 22.6006 51.78C22.6006 53.685 24.1306 54.99 26.2456 54.99C28.3606 54.99 29.8756 53.685 29.8756 51.78C29.8756 49.89 28.3606 48.585 26.2456 48.585ZM26.2456 49.665C27.6406 49.665 28.6606 50.52 28.6606 51.78C28.6606 53.04 27.6406 53.91 26.2456 53.91C24.8356 53.91 23.8156 53.04 23.8156 51.78C23.8156 50.52 24.8356 49.665 26.2456 49.665ZM31.6456 47.595V61.185H32.8906V47.595H31.6456ZM22.0906 58.215C24.5056 58.215 27.8206 58.2 30.8656 57.615L30.7606 56.7C27.8056 57.165 24.3856 57.18 21.9106 57.18L22.0906 58.215ZM42.8794 51V52.035H45.8944V51H42.8794ZM45.5494 47.61V55.545H46.7944V47.61H45.5494ZM38.0044 56.205V60.99H46.7944V56.205H38.0044ZM45.5794 57.195V59.985H39.2194V57.195H45.5794ZM39.0994 48.9V49.995C39.0994 51.915 37.7044 53.715 35.6794 54.435L36.3244 55.425C38.5894 54.585 40.1194 52.47 40.1194 49.995V48.9H39.0994ZM39.3394 48.9V49.98C39.3394 52.26 40.7944 54.315 42.9994 55.11L43.6294 54.12C41.6644 53.43 40.3444 51.735 40.3444 49.98V48.9H39.3394ZM36.0694 48.48V49.485H43.3144V48.48H36.0694Z" fill="#7D7D7D"/>
<path d="M47.9971 20.0315C48.1739 30.9008 38.7978 40.1422 27.7354 39.9983C17.1417 39.8601 8 30.8793 8 19.9867C8 9.09416 17.2721 -0.132821 28.2858 0.00144722C38.813 0.132519 48.1875 9.047 47.9971 20.0315Z" fill="#C6C6C6"/>
<path d="M15.9993 18.8068V17.4617C16.0449 17.4337 16.0337 17.3818 16.0425 17.3426C16.1191 16.979 16.2765 16.6373 16.5032 16.3428C17.0803 15.5798 17.6589 14.8163 18.2391 14.0522C18.4583 13.7645 18.6575 13.4592 18.9087 13.197C18.9387 13.1686 18.9624 13.134 18.9781 13.0957C18.9939 13.0574 19.0013 13.0162 18.9999 12.9749C18.9999 11.8384 18.9927 10.7011 18.9999 9.5638C18.9999 8.91643 19.3118 8.45209 19.8918 8.16357C20.0406 8.09004 20.2062 8.07565 20.3606 8.02051H20.3854C20.4078 8.04848 20.4382 8.03409 20.4653 8.03409H35.6083C35.6955 8.05008 35.7859 8.05887 35.8715 8.08205C36.5498 8.26507 36.9914 8.8493 36.9914 9.57579C36.9914 10.6475 36.9914 11.7201 36.9914 12.7918C36.9914 12.9861 36.9954 13.1611 37.173 13.2834C37.194 13.3026 37.2123 13.3247 37.2274 13.3489C37.9937 14.3612 38.7598 15.3752 39.5256 16.3907C39.7656 16.7068 39.9197 17.0796 39.9728 17.4729C40.0192 17.8173 39.9944 18.165 39.9928 18.5119C39.9871 19.0817 39.7648 19.6281 39.3709 20.0403C38.9769 20.4524 38.4408 20.6995 37.8713 20.7313C37.7529 20.7377 37.7297 20.7672 37.7297 20.8815C37.734 24.0523 37.734 27.2225 37.7297 30.3922C37.7337 30.5553 37.7146 30.7181 37.6729 30.8758C37.4785 31.5527 36.8962 31.9795 36.1642 31.9795H23.5595C22.3111 31.9795 21.0629 31.9795 19.815 31.9795C19.4275 31.9919 19.0501 31.8551 18.7607 31.5975C18.4095 31.2778 18.2623 30.8782 18.2623 30.4098C18.2623 27.2316 18.2636 24.0528 18.2663 20.8735C18.2663 20.7624 18.2375 20.7361 18.1279 20.7321C17.6543 20.7095 17.2002 20.5375 16.8307 20.2406C16.4613 19.9437 16.1956 19.5374 16.0721 19.0801C16.0613 18.9859 16.0368 18.8938 15.9993 18.8068V18.8068ZM27.9984 20.7385C25.2978 20.7385 22.5969 20.7385 19.8958 20.7385C19.7966 20.7385 19.7606 20.7513 19.7606 20.8663C19.7643 24.0286 19.7643 27.1916 19.7606 30.3555C19.7606 30.453 19.779 30.4833 19.8846 30.4833C21.4189 30.4791 22.9529 30.4791 24.4867 30.4833C24.5995 30.4833 24.6163 30.4506 24.6163 30.3483C24.6131 27.9107 24.6131 25.4733 24.6163 23.0362C24.6163 22.5871 24.9434 22.237 25.3818 22.237C27.2483 22.2333 29.1167 22.2333 30.987 22.237C31.127 22.2346 31.2646 22.2736 31.3824 22.3491C31.5003 22.4246 31.5932 22.5333 31.6494 22.6614C31.7111 22.7993 31.7386 22.9501 31.7293 23.101C31.7293 25.5146 31.728 27.9277 31.7253 30.3403C31.7253 30.4626 31.7597 30.4833 31.8733 30.4833C33.2812 30.4791 34.6889 30.4791 36.0962 30.4833C36.2034 30.4833 36.2282 30.4586 36.2282 30.3515C36.225 27.1919 36.225 24.0329 36.2282 20.8743C36.2282 20.7617 36.1986 20.7377 36.0898 20.7377C33.393 20.7398 30.6958 20.7401 27.9984 20.7385ZM27.9984 9.53103C25.5453 9.53103 23.0894 9.53103 20.6309 9.53103C20.5213 9.53103 20.4989 9.5582 20.4997 9.6637C20.5045 10.5807 20.5045 11.4976 20.4997 12.4146C20.4997 12.5065 20.5221 12.5273 20.6133 12.5273C25.5373 12.5273 30.4609 12.5273 35.3843 12.5273C35.4771 12.5273 35.4971 12.5041 35.4971 12.4138C35.4933 11.4968 35.4933 10.5799 35.4971 9.6629C35.4971 9.55581 35.4731 9.53103 35.3651 9.53103C32.9071 9.53263 30.4516 9.53263 27.9984 9.53103ZM25.377 26.7334C25.377 27.9354 25.377 29.1377 25.377 30.3403C25.377 30.4466 25.3954 30.4825 25.5122 30.4817C27.2955 30.4775 29.0783 30.4775 30.8606 30.4817C30.9766 30.4817 30.9982 30.4474 30.9974 30.3411C30.9974 27.9392 30.9974 25.538 30.9974 23.1377C30.9974 23.0322 30.979 22.9939 30.8606 22.9939C29.0773 22.9987 27.2942 22.9987 25.5114 22.9939C25.4082 22.9939 25.3754 23.0123 25.3762 23.1249C25.3786 24.3278 25.377 25.5306 25.377 26.7334ZM22.6428 14.0162C21.9116 14.0162 21.2029 14.0162 20.4925 14.0162C20.3778 14.0152 20.2645 14.0417 20.1621 14.0936C20.0598 14.1455 19.9715 14.2212 19.9046 14.3144C19.1676 15.2937 18.4284 16.2722 17.6871 17.2499C17.5573 17.4141 17.4891 17.6185 17.4944 17.8277C17.5 18.0275 17.4944 18.2273 17.4944 18.4271C17.4944 18.9258 17.8143 19.2423 18.3111 19.2431C18.7151 19.2431 19.119 19.2431 19.5222 19.2431C19.5592 19.247 19.5965 19.239 19.6287 19.2203C19.6609 19.2017 19.6864 19.1733 19.7014 19.1392C20.5216 17.706 21.3432 16.274 22.166 14.8434C22.3228 14.5765 22.4788 14.308 22.6428 14.0162ZM33.362 14.0162C33.3658 14.0324 33.3708 14.0481 33.3772 14.0634L36.3178 19.1832C36.327 19.2029 36.3421 19.2193 36.361 19.23C36.38 19.2407 36.4018 19.2453 36.4234 19.2431C36.8642 19.2431 37.3033 19.2487 37.7449 19.2431C37.8452 19.2433 37.9445 19.2233 38.0369 19.1845C38.1294 19.1457 38.2131 19.0888 38.2832 19.0172C38.3533 18.9455 38.4083 18.8605 38.445 18.7673C38.4817 18.6741 38.4993 18.5744 38.4969 18.4743C38.4969 18.2545 38.4969 18.0339 38.4969 17.8141C38.5028 17.6249 38.4438 17.4394 38.3297 17.2882C37.5831 16.2988 36.8364 15.3112 36.0898 14.3255C36.0198 14.2295 35.9276 14.1516 35.8211 14.0986C35.7146 14.0456 35.5969 14.019 35.4779 14.021C34.7731 14.0178 34.0716 14.0186 33.358 14.0186L33.362 14.0162ZM27.6152 16.6377C27.6152 15.8065 27.6152 14.9753 27.6152 14.1441C27.6152 14.0466 27.5968 14.0122 27.4904 14.0138C27.0014 14.0202 26.5121 14.0202 26.0226 14.0138C26.0052 14.011 25.9874 14.0118 25.9704 14.0161C25.9533 14.0204 25.9374 14.0281 25.9234 14.0388C25.9095 14.0496 25.8979 14.063 25.8893 14.0784C25.8808 14.0937 25.8755 14.1107 25.8738 14.1281C25.3991 15.7921 24.9224 17.4555 24.4435 19.1185C24.4123 19.2256 24.4299 19.2439 24.5387 19.2439C25.521 19.2402 26.5039 19.2402 27.4872 19.2439C27.5864 19.2439 27.616 19.2224 27.616 19.1193C27.6088 18.2945 27.6112 17.4673 27.6112 16.6401L27.6152 16.6377ZM28.3824 16.6377C28.3824 17.4689 28.3824 18.3001 28.3824 19.132C28.3824 19.212 28.4024 19.2415 28.4896 19.2407C29.4767 19.2375 30.4633 19.2375 31.4494 19.2407C31.5446 19.2407 31.5526 19.22 31.5294 19.1336C31.0419 17.4617 30.5582 15.7876 30.0783 14.1114C30.0767 14.0968 30.0722 14.0827 30.065 14.0699C30.0578 14.0572 30.048 14.046 30.0363 14.0372C30.0246 14.0283 30.0112 14.022 29.997 14.0185C29.9827 14.0151 29.9679 14.0146 29.9535 14.017C29.4735 14.017 28.9991 14.0226 28.5216 14.017C28.4072 14.017 28.3712 14.0386 28.3728 14.1609C28.3808 14.9873 28.3784 15.8145 28.3784 16.6425L28.3824 16.6377ZM35.4875 19.2391C35.4825 19.2227 35.4763 19.2067 35.4691 19.1912C34.4915 17.4862 33.514 15.7828 32.5365 14.081C32.5253 14.0578 32.507 14.0388 32.4843 14.0266C32.4616 14.0144 32.4356 14.0096 32.4101 14.013C31.9245 14.013 31.439 14.013 30.9542 14.013C30.8662 14.013 30.8534 14.0314 30.8782 14.1161C31.0478 14.6932 31.211 15.2718 31.3766 15.8497L32.3173 19.1312C32.3341 19.188 32.3373 19.2423 32.4293 19.2423C33.438 19.2423 34.4564 19.2439 35.4835 19.2439L35.4875 19.2391ZM20.5045 19.2295C20.5168 19.2335 20.5294 19.2364 20.5421 19.2383C21.5501 19.2383 22.5572 19.2383 23.5651 19.2383C23.6547 19.2383 23.6619 19.1888 23.6787 19.1296C24.1587 17.4577 24.6387 15.786 25.1186 14.1145C25.1474 14.0146 25.1186 14.0091 25.0338 14.0099C24.5643 14.0099 24.0955 14.0099 23.6267 14.0099C23.5877 14.0052 23.5482 14.013 23.514 14.0323C23.4798 14.0515 23.4526 14.0812 23.4363 14.1169C22.7532 15.3152 22.0676 16.5111 21.3797 17.7046L20.5045 19.2295Z" fill="white"/>
</svg>
