<svg width="56" height="62" viewBox="0 0 56 62" fill="none" xmlns="http://www.w3.org/2000/svg">
<path d="M17.9518 47.61V57.705H19.1968V47.61H17.9518ZM8.44176 48.705V49.725H15.5818V48.705H8.44176ZM8.21676 55.665C10.4218 55.665 13.4668 55.62 16.0768 55.2L16.0018 54.27C13.4668 54.57 10.3018 54.6 8.08176 54.6L8.21676 55.665ZM9.79176 49.575V54.78H10.9918V49.575H9.79176ZM13.0318 49.575V54.78H14.2318V49.575H13.0318ZM15.7018 50.175V51.195H18.6118V50.175H15.7018ZM15.7018 52.77V53.79H18.6118V52.77H15.7018ZM10.5268 59.85V60.87H19.5568V59.85H10.5268ZM10.5268 56.88V60.495H11.7718V56.88H10.5268ZM26.2456 48.585C24.1306 48.585 22.6006 49.89 22.6006 51.78C22.6006 53.685 24.1306 54.99 26.2456 54.99C28.3606 54.99 29.8756 53.685 29.8756 51.78C29.8756 49.89 28.3606 48.585 26.2456 48.585ZM26.2456 49.665C27.6406 49.665 28.6606 50.52 28.6606 51.78C28.6606 53.04 27.6406 53.91 26.2456 53.91C24.8356 53.91 23.8156 53.04 23.8156 51.78C23.8156 50.52 24.8356 49.665 26.2456 49.665ZM31.6456 47.595V61.185H32.8906V47.595H31.6456ZM22.0906 58.215C24.5056 58.215 27.8206 58.2 30.8656 57.615L30.7606 56.7C27.8056 57.165 24.3856 57.18 21.9106 57.18L22.0906 58.215ZM42.8794 51V52.035H45.8944V51H42.8794ZM45.5494 47.61V55.545H46.7944V47.61H45.5494ZM38.0044 56.205V60.99H46.7944V56.205H38.0044ZM45.5794 57.195V59.985H39.2194V57.195H45.5794ZM39.0994 48.9V49.995C39.0994 51.915 37.7044 53.715 35.6794 54.435L36.3244 55.425C38.5894 54.585 40.1194 52.47 40.1194 49.995V48.9H39.0994ZM39.3394 48.9V49.98C39.3394 52.26 40.7944 54.315 42.9994 55.11L43.6294 54.12C41.6644 53.43 40.3444 51.735 40.3444 49.98V48.9H39.3394ZM36.0694 48.48V49.485H43.3144V48.48H36.0694Z" fill="#7D7D7D"/>
<path d="M47.9971 20.0315C48.1739 30.9008 38.7978 40.1422 27.7354 39.9983C17.1417 39.8601 8 30.8793 8 19.9867C8 9.09416 17.2721 -0.132821 28.2858 0.00144722C38.813 0.132519 48.1875 9.047 47.9971 20.0315Z" fill="#6DE6F7"/>
<path d="M15.9993 18.8063V17.4612C16.0449 17.4332 16.0337 17.3813 16.0425 17.3421C16.1191 16.9785 16.2765 16.6368 16.5032 16.3423C17.0803 15.5793 17.6589 14.8158 18.2391 14.0517C18.4583 13.764 18.6575 13.4587 18.9087 13.1966C18.9387 13.1681 18.9624 13.1335 18.9781 13.0952C18.9939 13.0569 19.0013 13.0157 18.9999 12.9744C18.9999 11.8379 18.9927 10.7006 18.9999 9.56331C18.9999 8.91594 19.3118 8.4516 19.8918 8.16308C20.0406 8.08955 20.2062 8.07517 20.3606 8.02002H20.3854C20.4078 8.04799 20.4382 8.03361 20.4653 8.03361H35.6083C35.6955 8.04959 35.7859 8.05838 35.8715 8.08156C36.5498 8.26458 36.9914 8.84881 36.9914 9.5753C36.9914 10.6471 36.9914 11.7196 36.9914 12.7914C36.9914 12.9856 36.9954 13.1606 37.173 13.2829C37.194 13.3021 37.2123 13.3242 37.2274 13.3484C37.9937 14.3608 38.7598 15.3747 39.5256 16.3902C39.7656 16.7064 39.9197 17.0792 39.9728 17.4724C40.0192 17.8168 39.9944 18.1645 39.9928 18.5114C39.9871 19.0812 39.7648 19.6276 39.3709 20.0398C38.9769 20.4519 38.4408 20.699 37.8713 20.7308C37.7529 20.7372 37.7297 20.7668 37.7297 20.881C37.734 24.0518 37.734 27.222 37.7297 30.3917C37.7337 30.5548 37.7146 30.7176 37.6729 30.8753C37.4785 31.5522 36.8962 31.979 36.1642 31.979H23.5595C22.3111 31.979 21.0629 31.979 19.815 31.979C19.4275 31.9914 19.0501 31.8546 18.7607 31.597C18.4095 31.2773 18.2623 30.8777 18.2623 30.4093C18.2623 27.2311 18.2636 24.0523 18.2663 20.8731C18.2663 20.762 18.2375 20.7356 18.1279 20.7316C17.6543 20.7091 17.2002 20.537 16.8307 20.2401C16.4613 19.9432 16.1956 19.5369 16.0721 19.0796C16.0613 18.9854 16.0368 18.8933 15.9993 18.8063V18.8063ZM27.9984 20.738C25.2978 20.738 22.5969 20.738 19.8958 20.738C19.7966 20.738 19.7606 20.7508 19.7606 20.8659C19.7643 24.0281 19.7643 27.1911 19.7606 30.355C19.7606 30.4525 19.779 30.4829 19.8846 30.4829C21.4189 30.4786 22.9529 30.4786 24.4867 30.4829C24.5995 30.4829 24.6163 30.4501 24.6163 30.3478C24.6131 27.9102 24.6131 25.4728 24.6163 23.0357C24.6163 22.5866 24.9434 22.2365 25.3818 22.2365C27.2483 22.2328 29.1167 22.2328 30.987 22.2365C31.127 22.2341 31.2646 22.2731 31.3824 22.3486C31.5003 22.4241 31.5932 22.5328 31.6494 22.6609C31.7111 22.7988 31.7386 22.9496 31.7293 23.1005C31.7293 25.5141 31.728 27.9272 31.7253 30.3398C31.7253 30.4621 31.7597 30.4829 31.8733 30.4829C33.2812 30.4786 34.6889 30.4786 36.0962 30.4829C36.2034 30.4829 36.2282 30.4581 36.2282 30.351C36.225 27.1914 36.225 24.0324 36.2282 20.8739C36.2282 20.7612 36.1986 20.7372 36.0898 20.7372C33.393 20.7393 30.6958 20.7396 27.9984 20.738ZM27.9984 9.53054C25.5453 9.53054 23.0894 9.53054 20.6309 9.53054C20.5213 9.53054 20.4989 9.55772 20.4997 9.66321C20.5045 10.5802 20.5045 11.4972 20.4997 12.4141C20.4997 12.506 20.5221 12.5268 20.6133 12.5268C25.5373 12.5268 30.4609 12.5268 35.3843 12.5268C35.4771 12.5268 35.4971 12.5036 35.4971 12.4133C35.4933 11.4964 35.4933 10.5794 35.4971 9.66241C35.4971 9.55532 35.4731 9.53054 35.3651 9.53054C32.9071 9.53214 30.4516 9.53214 27.9984 9.53054ZM25.377 26.7329C25.377 27.9349 25.377 29.1372 25.377 30.3398C25.377 30.4461 25.3954 30.4821 25.5122 30.4813C27.2955 30.477 29.0783 30.477 30.8606 30.4813C30.9766 30.4813 30.9982 30.4469 30.9974 30.3406C30.9974 27.9387 30.9974 25.5376 30.9974 23.1372C30.9974 23.0317 30.979 22.9934 30.8606 22.9934C29.0773 22.9982 27.2942 22.9982 25.5114 22.9934C25.4082 22.9934 25.3754 23.0118 25.3762 23.1245C25.3786 24.3273 25.377 25.5301 25.377 26.7329ZM22.6428 14.0158C21.9116 14.0158 21.2029 14.0158 20.4925 14.0158C20.3778 14.0147 20.2645 14.0412 20.1621 14.0931C20.0598 14.145 19.9715 14.2207 19.9046 14.3139C19.1676 15.2932 18.4284 16.2717 17.6871 17.2494C17.5573 17.4136 17.4891 17.618 17.4944 17.8272C17.5 18.027 17.4944 18.2268 17.4944 18.4266C17.4944 18.9254 17.8143 19.2418 18.3111 19.2426C18.7151 19.2426 19.119 19.2426 19.5222 19.2426C19.5592 19.2465 19.5965 19.2385 19.6287 19.2198C19.6609 19.2012 19.6864 19.1728 19.7014 19.1387C20.5216 17.7055 21.3432 16.2735 22.166 14.8429C22.3228 14.576 22.4788 14.3075 22.6428 14.0158ZM33.362 14.0158C33.3658 14.0319 33.3708 14.0476 33.3772 14.0629L36.3178 19.1827C36.327 19.2024 36.3421 19.2188 36.361 19.2295C36.38 19.2403 36.4018 19.2448 36.4234 19.2426C36.8642 19.2426 37.3033 19.2482 37.7449 19.2426C37.8452 19.2428 37.9445 19.2229 38.0369 19.184C38.1294 19.1452 38.2131 19.0883 38.2832 19.0167C38.3533 18.945 38.4083 18.8601 38.445 18.7668C38.4817 18.6736 38.4993 18.574 38.4969 18.4738C38.4969 18.254 38.4969 18.0334 38.4969 17.8136C38.5028 17.6244 38.4438 17.4389 38.3297 17.2878C37.5831 16.2983 36.8364 15.3108 36.0898 14.3251C36.0198 14.229 35.9276 14.1511 35.8211 14.0981C35.7146 14.0451 35.5969 14.0185 35.4779 14.0206C34.7731 14.0174 34.0716 14.0182 33.358 14.0182L33.362 14.0158ZM27.6152 16.6372C27.6152 15.806 27.6152 14.9748 27.6152 14.1436C27.6152 14.0461 27.5968 14.0118 27.4904 14.0134C27.0014 14.0198 26.5121 14.0198 26.0226 14.0134C26.0052 14.0105 25.9874 14.0113 25.9704 14.0156C25.9533 14.0199 25.9374 14.0277 25.9234 14.0384C25.9095 14.0491 25.8979 14.0625 25.8893 14.0779C25.8808 14.0932 25.8755 14.1102 25.8738 14.1276C25.3991 15.7916 24.9224 17.4551 24.4435 19.118C24.4123 19.2251 24.4299 19.2434 24.5387 19.2434C25.521 19.2397 26.5039 19.2397 27.4872 19.2434C27.5864 19.2434 27.616 19.2219 27.616 19.1188C27.6088 18.294 27.6112 17.4668 27.6112 16.6396L27.6152 16.6372ZM28.3824 16.6372C28.3824 17.4684 28.3824 18.2996 28.3824 19.1316C28.3824 19.2115 28.4024 19.241 28.4896 19.2402C29.4767 19.2371 30.4633 19.2371 31.4494 19.2402C31.5446 19.2402 31.5526 19.2195 31.5294 19.1332C31.0419 17.4612 30.5582 15.7871 30.0783 14.1109C30.0767 14.0963 30.0722 14.0822 30.065 14.0694C30.0578 14.0567 30.048 14.0455 30.0363 14.0367C30.0246 14.0278 30.0112 14.0215 29.997 14.018C29.9827 14.0146 29.9679 14.0141 29.9535 14.0166C29.4735 14.0166 28.9991 14.0222 28.5216 14.0166C28.4072 14.0166 28.3712 14.0381 28.3728 14.1604C28.3808 14.9868 28.3784 15.814 28.3784 16.642L28.3824 16.6372ZM35.4875 19.2387C35.4825 19.2223 35.4763 19.2062 35.4691 19.1907C34.4915 17.4857 33.514 15.7823 32.5365 14.0805C32.5253 14.0573 32.507 14.0383 32.4843 14.0261C32.4616 14.0139 32.4356 14.0091 32.4101 14.0126C31.9245 14.0126 31.439 14.0126 30.9542 14.0126C30.8662 14.0126 30.8534 14.0309 30.8782 14.1157C31.0478 14.6927 31.211 15.2713 31.3766 15.8492L32.3173 19.1308C32.3341 19.1875 32.3373 19.2418 32.4293 19.2418C33.438 19.2418 34.4564 19.2434 35.4835 19.2434L35.4875 19.2387ZM20.5045 19.2291C20.5168 19.233 20.5294 19.2359 20.5421 19.2379C21.5501 19.2379 22.5572 19.2379 23.5651 19.2379C23.6547 19.2379 23.6619 19.1883 23.6787 19.1292C24.1587 17.4572 24.6387 15.7855 25.1186 14.1141C25.1474 14.0142 25.1186 14.0086 25.0338 14.0094C24.5643 14.0094 24.0955 14.0094 23.6267 14.0094C23.5877 14.0047 23.5482 14.0125 23.514 14.0318C23.4798 14.051 23.4526 14.0807 23.4363 14.1165C22.7532 15.3148 22.0676 16.5107 21.3797 17.7042L20.5045 19.2291Z" fill="white"/>
</svg>
