<svg width="56" height="81" viewBox="0 0 56 81" fill="none" xmlns="http://www.w3.org/2000/svg">
<path d="M17.4418 47.595V61.185H18.6868V47.595H17.4418ZM18.1318 52.935V53.97H20.6368V52.935H18.1318ZM8.44176 56.58V57.63H9.04176C9.86676 57.63 10.8718 57.615 12.1168 57.33L11.9968 56.295C10.8268 56.565 9.80676 56.58 9.04176 56.58H8.44176ZM8.44176 49.035V57.09H9.67176V50.04H11.8618V49.035H8.44176ZM12.6268 56.58V57.63H13.2868C14.6818 57.63 15.6118 57.585 16.7668 57.3L16.6468 56.265C15.5518 56.55 14.6068 56.58 13.2868 56.58H12.6268ZM12.6268 49.035V57.105H13.8568V50.04H16.2268V49.035H12.6268ZM21.8356 54.765V55.77H34.1356V54.765H21.8356ZM23.3956 48.03V49.005H31.3306V50.355H23.4256V53.085H24.6556V51.27H32.5456V48.03H23.3956ZM23.4256 52.635V53.61H32.8456V52.635H23.4256ZM27.9556 56.805C24.9856 56.805 23.2756 57.57 23.2756 58.995C23.2756 60.405 24.9856 61.17 27.9556 61.17C30.9256 61.17 32.6506 60.405 32.6506 58.995C32.6506 57.57 30.9256 56.805 27.9556 56.805ZM27.9556 57.735C30.1456 57.735 31.3906 58.185 31.3906 58.995C31.3906 59.775 30.1456 60.225 27.9556 60.225C25.7656 60.225 24.5356 59.775 24.5356 58.995C24.5356 58.185 25.7656 57.735 27.9556 57.735ZM45.4894 47.595V61.185H46.7344V47.595H45.4894ZM39.5794 48.645C37.5844 48.645 36.1444 50.49 36.1444 53.37C36.1444 56.265 37.5844 58.11 39.5794 58.11C41.5894 58.11 43.0294 56.265 43.0294 53.37C43.0294 50.49 41.5894 48.645 39.5794 48.645ZM39.5794 49.77C40.9144 49.77 41.8294 51.18 41.8294 53.37C41.8294 55.575 40.9144 57.015 39.5794 57.015C38.2594 57.015 37.3294 55.575 37.3294 53.37C37.3294 51.18 38.2594 49.77 39.5794 49.77ZM18.3568 65.61V79.17H19.5568V65.61H18.3568ZM16.0618 71.04V72.075H18.6718V71.04H16.0618ZM15.2818 65.91V78.48H16.4518V65.91H15.2818ZM8.53176 74.79V75.825H9.41676C11.4568 75.825 12.8218 75.765 14.4418 75.42L14.3218 74.385C12.7468 74.715 11.3968 74.79 9.41676 74.79H8.53176ZM8.53176 67.26V75.255H9.76176V68.28H13.5718V67.26H8.53176ZM27.9556 68.625V69.66H32.0506V68.625H27.9556ZM27.9556 72.915V73.95H32.0506V72.915H27.9556ZM25.4656 66.645C23.4856 66.645 22.0906 68.49 22.0906 71.37C22.0906 74.265 23.4856 76.11 25.4656 76.11C27.4306 76.11 28.8406 74.265 28.8406 71.37C28.8406 68.49 27.4306 66.645 25.4656 66.645ZM25.4656 67.77C26.7706 67.77 27.6706 69.18 27.6706 71.37C27.6706 73.575 26.7706 75.015 25.4656 75.015C24.1606 75.015 23.2606 73.575 23.2606 71.37C23.2606 69.18 24.1606 67.77 25.4656 67.77ZM31.7806 65.595V79.185H33.0106V65.595H31.7806ZM35.6494 76.38V77.415H47.9344V76.38H35.6494ZM41.1094 73.095V76.725H42.3394V73.095H41.1094ZM41.0794 66.51V67.56C41.0794 69.795 38.5144 71.79 36.1294 72.225L36.6544 73.26C39.3844 72.69 42.1594 70.455 42.1594 67.56V66.51H41.0794ZM41.3044 66.51V67.56C41.3044 70.455 44.0794 72.69 46.8094 73.26L47.3494 72.225C44.9644 71.79 42.3844 69.81 42.3844 67.56V66.51H41.3044Z" fill="#7D7D7D"/>
<path d="M47.9971 20.0315C48.1739 30.9008 38.7978 40.1422 27.7354 39.9983C17.1417 39.8601 8 30.8793 8 19.9867C8 9.09416 17.2721 -0.132821 28.2858 0.00144722C38.813 0.132519 48.1875 9.047 47.9971 20.0315Z" fill="#C6C6C6"/>
<path d="M17.414 28.9659C17.2756 28.886 17.114 28.8987 16.9644 28.874C14.5158 28.4663 12.4999 26.4546 12.0848 23.9985C11.5792 20.9854 13.2935 18.1441 16.2013 17.2257C17.9147 16.6846 19.561 16.898 21.1121 17.8052C21.2345 17.8763 21.2833 17.8579 21.3649 17.754C21.9515 17.0001 22.5448 16.2504 23.1448 15.5049C23.1783 15.4708 23.2005 15.4272 23.2083 15.38C23.2162 15.3328 23.2094 15.2844 23.1888 15.2412C23.1192 15.0653 23.104 14.8511 22.9904 14.7137C22.8768 14.5762 22.6424 14.6154 22.464 14.5626C22.0281 14.4347 21.6121 14.2693 21.2521 13.9864C21.1663 13.9196 21.0878 13.844 21.0177 13.761C20.9329 13.6603 20.8577 13.542 20.9233 13.4053C20.9889 13.2686 21.1249 13.2247 21.2657 13.2231C21.5753 13.2231 21.8857 13.2231 22.196 13.2351C23.196 13.2814 24.1959 13.3358 25.1958 13.3829C25.4078 13.3925 25.6198 13.3829 25.8358 13.3829C25.9281 13.3853 26.0202 13.3926 26.1118 13.4045C26.2525 13.4221 26.3869 13.4613 26.4189 13.6227C26.4509 13.7842 26.3509 13.8992 26.2174 13.9792C25.9862 14.1182 25.7246 14.1766 25.4702 14.2509C25.0281 14.3804 24.5844 14.5051 24.1391 14.625C24.0591 14.6473 24.0591 14.6801 24.0775 14.7496C24.1719 15.0693 24.1695 15.0693 24.5127 15.059C26.2965 15.0195 28.081 14.9817 29.8659 14.9455L32.9513 14.8791C32.9721 14.8791 32.9921 14.8751 33.0257 14.8719C32.8113 14.2845 32.6009 13.7058 32.3857 13.1264C32.2657 12.7995 32.2657 12.7995 32.5209 12.5669C32.6385 12.4614 32.7529 12.3527 32.8721 12.2472C32.9209 12.2048 32.9201 12.1785 32.8721 12.1345C32.7761 12.0458 32.6833 11.9539 32.5961 11.8572C32.5425 11.798 32.4793 11.81 32.4161 11.81C31.7298 11.81 31.0442 11.806 30.3587 11.81C30.2307 11.81 30.1899 11.7788 30.1987 11.6502C30.2107 11.4775 30.2051 11.3025 30.1987 11.129C30.1987 11.0491 30.2235 11.0275 30.3011 11.0283C31.1826 11.0283 32.0644 11.0283 32.9465 11.0283C32.9758 11.0282 33.0048 11.0341 33.0316 11.0458C33.0585 11.0575 33.0826 11.0747 33.1025 11.0963C33.4328 11.404 33.7624 11.7125 34.0976 12.0146C34.1776 12.0849 34.1696 12.1217 34.0976 12.1904C33.8856 12.3927 33.6832 12.6069 33.472 12.8099C33.4434 12.8327 33.4234 12.8647 33.4156 12.9005C33.4077 12.9363 33.4124 12.9737 33.4288 13.0065C33.9824 14.5107 34.5333 16.0159 35.0815 17.5222C35.1239 17.6397 35.1687 17.6221 35.2543 17.5798C36.0941 17.1557 37.0217 16.9342 37.9627 16.9331C38.9036 16.932 39.8318 17.1513 40.6726 17.5733C41.5134 17.9954 42.2435 18.6085 42.8043 19.3635C43.3651 20.1184 43.7409 20.9942 43.9017 21.9205C43.9313 22.0923 43.9185 22.273 43.9929 22.4368V23.4471C43.9185 23.6117 43.9313 23.7915 43.9017 23.9642C43.4881 26.3923 41.5771 28.36 39.166 28.8308C38.926 28.8772 38.6861 28.9147 38.4413 28.9563H37.4334C37.4158 28.9051 37.3702 28.9259 37.3366 28.9219C36.1903 28.797 35.1035 28.3485 34.2032 27.6287C31.9633 25.8536 31.2978 22.6654 32.6401 20.1502C33.0195 19.441 33.5355 18.8139 34.1584 18.3047C34.1976 18.2719 34.2768 18.2583 34.2448 18.1712C34.1496 17.9171 34.0584 17.6621 33.9592 17.3904L33.7648 17.5998L31.4554 20.0846C30.248 21.3831 29.0409 22.6814 27.834 23.9794C27.8073 24.0011 27.7861 24.0289 27.7722 24.0605C27.7583 24.092 27.7521 24.1264 27.754 24.1608C27.7786 24.3704 27.7305 24.5822 27.6179 24.7607C27.5052 24.9393 27.3348 25.0739 27.1349 25.1423C27.0805 25.1631 27.0373 25.1798 27.0221 25.2422C26.8957 25.7521 26.7677 26.262 26.6381 26.7719C26.6213 26.8399 26.6381 26.8686 26.7045 26.8559C26.8749 26.8239 26.9077 26.9086 26.8893 27.0541C26.8801 27.1297 26.8801 27.2062 26.8893 27.2819C26.9029 27.3858 26.8613 27.4073 26.7629 27.4057C26.4037 27.3994 26.043 27.4057 25.6854 27.4057C25.4454 27.4057 25.4454 27.4057 25.4454 27.158C25.4454 26.8615 25.4454 26.8583 25.7406 26.8615C25.8422 26.8615 25.891 26.8407 25.9198 26.7304C26.035 26.2908 26.1584 25.8531 26.2901 25.4172C26.3509 25.219 26.4045 25.0472 26.1678 24.9161C26.0758 24.8657 26.0254 24.7602 25.895 24.741C25.2662 24.6475 24.6391 24.5428 24.0127 24.4349C23.8935 24.415 23.8527 24.4437 23.8151 24.5628C23.1008 26.8599 21.5753 28.2937 19.2219 28.842C18.9939 28.8947 18.7603 28.9259 18.5291 28.9675L17.414 28.9659ZM34.7183 19.3589C33.4856 20.3979 32.8665 22.2634 33.2065 23.8922C33.7512 26.5058 36.1758 28.1658 38.8125 27.7286C41.4923 27.2867 43.3193 24.6028 42.7362 21.9653C42.2354 19.697 40.3659 18.1584 38.0373 18.1017C37.2071 18.0822 36.3866 18.2827 35.6591 18.6827C35.6031 18.7131 35.5271 18.7227 35.5687 18.8314C35.7423 19.2822 35.9199 19.7298 36.1918 20.1326C36.6606 20.8271 37.2574 21.4066 37.8717 21.9709C37.8944 21.9894 37.9207 22.0031 37.9489 22.0112C37.9771 22.0193 38.0066 22.0216 38.0357 22.018C38.2144 22.0157 38.3867 22.0842 38.5149 22.2085C38.6431 22.3328 38.7167 22.5029 38.7197 22.6814C38.7259 22.8593 38.6626 23.0327 38.5431 23.1649C38.4237 23.297 38.2575 23.3776 38.0797 23.3895C37.99 23.3963 37.8999 23.3851 37.8146 23.3568C37.7292 23.3284 37.6504 23.2834 37.5826 23.2244C37.5148 23.1654 37.4594 23.0935 37.4196 23.0129C37.3799 22.9323 37.3565 22.8446 37.351 22.7549C37.3516 22.695 37.3373 22.6359 37.3094 22.5829C37.2814 22.5298 37.2408 22.4846 37.191 22.4512C36.4326 21.8566 35.7583 21.1844 35.2511 20.358C35.0549 20.0352 34.877 19.7017 34.7183 19.3589V19.3589ZM13.1479 22.9619C13.1504 23.2065 13.1697 23.4505 13.2055 23.6924C13.234 23.8699 13.272 24.0457 13.3191 24.2191C14.0022 26.6656 16.3381 28.1738 18.8547 27.7222C20.7801 27.377 22.0401 26.2093 22.672 24.3654C22.712 24.2487 22.692 24.2175 22.5648 24.1976C21.2441 23.989 19.925 23.7716 18.6059 23.5582C18.4803 23.5374 18.3595 23.4974 18.2235 23.5494C18.0834 23.6009 17.9295 23.6011 17.7892 23.5501C17.6488 23.499 17.5312 23.4 17.457 23.2705C17.3828 23.141 17.3569 22.9894 17.3838 22.8427C17.4108 22.6959 17.489 22.5635 17.6044 22.4688C17.6706 22.4128 17.7311 22.3504 17.7852 22.2826C18.6715 21.1636 19.5589 20.0447 20.4474 18.9257C20.5274 18.8258 20.5194 18.7922 20.4082 18.7307C19.4622 18.1949 18.3632 17.993 17.2884 18.1576C14.927 18.4893 13.1559 20.5426 13.1479 22.9619ZM27.4957 22.8676C27.5669 22.7925 27.6077 22.7509 27.6469 22.7078C29.5486 20.6675 31.4524 18.6287 33.3584 16.5911C33.5352 16.4025 33.5944 16.2522 33.4608 16.0228C33.4064 15.9293 33.3744 15.8774 33.2512 15.8798C30.3955 15.9437 27.5391 16.0031 24.6823 16.058C24.5407 16.058 24.5223 16.0916 24.5695 16.2179C25.3251 18.4558 26.0792 20.6937 26.8317 22.9316C26.8445 22.9691 26.8317 23.0339 26.9117 23.0434C26.9589 22.7237 27.0053 22.4104 27.0533 22.0955C27.0645 22.0236 27.0669 21.978 26.9645 21.9756C26.7013 21.9693 26.7013 21.9637 26.7013 21.6951C26.7037 21.6571 26.7037 21.6189 26.7013 21.5808C26.6901 21.4897 26.7245 21.4601 26.8181 21.4617C27.1669 21.4665 27.5149 21.4617 27.8636 21.4617C28.078 21.4617 28.078 21.4617 28.078 21.6735C28.078 21.9709 28.078 21.9701 27.7868 21.9772C27.7308 21.9772 27.662 21.9549 27.6469 22.046C27.5989 22.3073 27.5493 22.5655 27.4957 22.8676ZM26.0518 23.7468C25.2398 21.3418 24.4351 18.9441 23.6223 16.5304C23.1176 17.1698 22.6336 17.7804 22.1424 18.3886C22.0704 18.4773 22.0776 18.5221 22.1568 18.5956C22.5909 18.9989 22.9597 19.467 23.2504 19.9831C23.829 20.9922 24.098 22.149 24.0239 23.3096C24.0183 23.3895 24.0359 23.4247 24.1207 23.4351C24.2663 23.4519 24.4095 23.4822 24.5543 23.5062L26.0518 23.7468ZM18.8339 22.5687C18.8947 22.5831 18.9315 22.5935 18.9683 22.5999C20.2338 22.8053 21.4993 23.0083 22.764 23.2177C22.8824 23.2377 22.8704 23.1777 22.872 23.105C22.904 21.7159 22.4264 20.5282 21.4649 19.5276C21.3689 19.4276 21.3225 19.4117 21.2289 19.5355C20.9089 19.9599 20.5722 20.3732 20.2418 20.7904C19.777 21.3786 19.3122 21.9653 18.8339 22.5703V22.5687Z" fill="white"/>
</svg>
