<svg width="56" height="81" viewBox="0 0 56 81" fill="none" xmlns="http://www.w3.org/2000/svg">
<path d="M17.4418 47.595V61.185H18.6868V47.595H17.4418ZM18.1318 52.935V53.97H20.6368V52.935H18.1318ZM8.44176 56.58V57.63H9.04176C9.86676 57.63 10.8718 57.615 12.1168 57.33L11.9968 56.295C10.8268 56.565 9.80676 56.58 9.04176 56.58H8.44176ZM8.44176 49.035V57.09H9.67176V50.04H11.8618V49.035H8.44176ZM12.6268 56.58V57.63H13.2868C14.6818 57.63 15.6118 57.585 16.7668 57.3L16.6468 56.265C15.5518 56.55 14.6068 56.58 13.2868 56.58H12.6268ZM12.6268 49.035V57.105H13.8568V50.04H16.2268V49.035H12.6268ZM21.8356 54.765V55.77H34.1356V54.765H21.8356ZM23.3956 48.03V49.005H31.3306V50.355H23.4256V53.085H24.6556V51.27H32.5456V48.03H23.3956ZM23.4256 52.635V53.61H32.8456V52.635H23.4256ZM27.9556 56.805C24.9856 56.805 23.2756 57.57 23.2756 58.995C23.2756 60.405 24.9856 61.17 27.9556 61.17C30.9256 61.17 32.6506 60.405 32.6506 58.995C32.6506 57.57 30.9256 56.805 27.9556 56.805ZM27.9556 57.735C30.1456 57.735 31.3906 58.185 31.3906 58.995C31.3906 59.775 30.1456 60.225 27.9556 60.225C25.7656 60.225 24.5356 59.775 24.5356 58.995C24.5356 58.185 25.7656 57.735 27.9556 57.735ZM45.4894 47.595V61.185H46.7344V47.595H45.4894ZM39.5794 48.645C37.5844 48.645 36.1444 50.49 36.1444 53.37C36.1444 56.265 37.5844 58.11 39.5794 58.11C41.5894 58.11 43.0294 56.265 43.0294 53.37C43.0294 50.49 41.5894 48.645 39.5794 48.645ZM39.5794 49.77C40.9144 49.77 41.8294 51.18 41.8294 53.37C41.8294 55.575 40.9144 57.015 39.5794 57.015C38.2594 57.015 37.3294 55.575 37.3294 53.37C37.3294 51.18 38.2594 49.77 39.5794 49.77ZM18.3568 65.61V79.17H19.5568V65.61H18.3568ZM16.0618 71.04V72.075H18.6718V71.04H16.0618ZM15.2818 65.91V78.48H16.4518V65.91H15.2818ZM8.53176 74.79V75.825H9.41676C11.4568 75.825 12.8218 75.765 14.4418 75.42L14.3218 74.385C12.7468 74.715 11.3968 74.79 9.41676 74.79H8.53176ZM8.53176 67.26V75.255H9.76176V68.28H13.5718V67.26H8.53176ZM27.9556 68.625V69.66H32.0506V68.625H27.9556ZM27.9556 72.915V73.95H32.0506V72.915H27.9556ZM25.4656 66.645C23.4856 66.645 22.0906 68.49 22.0906 71.37C22.0906 74.265 23.4856 76.11 25.4656 76.11C27.4306 76.11 28.8406 74.265 28.8406 71.37C28.8406 68.49 27.4306 66.645 25.4656 66.645ZM25.4656 67.77C26.7706 67.77 27.6706 69.18 27.6706 71.37C27.6706 73.575 26.7706 75.015 25.4656 75.015C24.1606 75.015 23.2606 73.575 23.2606 71.37C23.2606 69.18 24.1606 67.77 25.4656 67.77ZM31.7806 65.595V79.185H33.0106V65.595H31.7806ZM35.6494 76.38V77.415H47.9344V76.38H35.6494ZM41.1094 73.095V76.725H42.3394V73.095H41.1094ZM41.0794 66.51V67.56C41.0794 69.795 38.5144 71.79 36.1294 72.225L36.6544 73.26C39.3844 72.69 42.1594 70.455 42.1594 67.56V66.51H41.0794ZM41.3044 66.51V67.56C41.3044 70.455 44.0794 72.69 46.8094 73.26L47.3494 72.225C44.9644 71.79 42.3844 69.81 42.3844 67.56V66.51H41.3044Z" fill="#7D7D7D"/>
<path d="M47.9971 20.0315C48.1739 30.9008 38.7978 40.1422 27.7354 39.9983C17.1417 39.8601 8 30.8793 8 19.9867C8 9.09416 17.2721 -0.132821 28.2858 0.00144722C38.813 0.132519 48.1875 9.047 47.9971 20.0315Z" fill="#41A256"/>
<path d="M17.414 28.9654C17.2756 28.8855 17.114 28.8983 16.9644 28.8735C14.5158 28.4659 12.4999 26.4541 12.0848 23.9981C11.5792 20.9849 13.2935 18.1436 16.2013 17.2252C17.9147 16.6841 19.561 16.8975 21.1121 17.8047C21.2345 17.8758 21.2833 17.8574 21.3649 17.7535C21.9515 16.9996 22.5448 16.2499 23.1448 15.5044C23.1783 15.4703 23.2005 15.4267 23.2083 15.3795C23.2162 15.3323 23.2094 15.2839 23.1888 15.2407C23.1192 15.0649 23.104 14.8507 22.9904 14.7132C22.8768 14.5757 22.6424 14.6149 22.464 14.5621C22.0281 14.4343 21.6121 14.2688 21.2521 13.9859C21.1663 13.9191 21.0878 13.8436 21.0177 13.7605C20.9329 13.6598 20.8577 13.5415 20.9233 13.4048C20.9889 13.2681 21.1249 13.2242 21.2657 13.2226C21.5753 13.2226 21.8857 13.2226 22.196 13.2346C23.196 13.2809 24.1959 13.3353 25.1958 13.3824C25.4078 13.392 25.6198 13.3824 25.8358 13.3824C25.9281 13.3849 26.0202 13.3921 26.1118 13.404C26.2525 13.4216 26.3869 13.4608 26.4189 13.6222C26.4509 13.7837 26.3509 13.8988 26.2174 13.9787C25.9862 14.1177 25.7246 14.1761 25.4702 14.2504C25.0281 14.3799 24.5844 14.5046 24.1391 14.6245C24.0591 14.6469 24.0591 14.6796 24.0775 14.7492C24.1719 15.0689 24.1695 15.0689 24.5127 15.0585C26.2965 15.019 28.081 14.9812 29.8659 14.945L32.9513 14.8786C32.9721 14.8786 32.9921 14.8746 33.0257 14.8714C32.8113 14.284 32.6009 13.7053 32.3857 13.1259C32.2657 12.799 32.2657 12.799 32.5209 12.5664C32.6385 12.4609 32.7529 12.3522 32.8721 12.2467C32.9209 12.2043 32.9201 12.178 32.8721 12.134C32.7761 12.0453 32.6833 11.9534 32.5961 11.8567C32.5425 11.7975 32.4793 11.8095 32.4161 11.8095C31.7298 11.8095 31.0442 11.8055 30.3587 11.8095C30.2307 11.8095 30.1899 11.7783 30.1987 11.6497C30.2107 11.477 30.2051 11.302 30.1987 11.1286C30.1987 11.0486 30.2235 11.0271 30.3011 11.0279C31.1826 11.0279 32.0644 11.0279 32.9465 11.0279C32.9758 11.0277 33.0048 11.0337 33.0316 11.0454C33.0585 11.0571 33.0826 11.0742 33.1025 11.0958C33.4328 11.4035 33.7624 11.712 34.0976 12.0141C34.1776 12.0845 34.1696 12.1212 34.0976 12.19C33.8856 12.3922 33.6832 12.6064 33.472 12.8094C33.4434 12.8322 33.4234 12.8642 33.4156 12.9C33.4077 12.9358 33.4124 12.9732 33.4288 13.006C33.9824 14.5102 34.5333 16.0154 35.0815 17.5217C35.1239 17.6392 35.1687 17.6217 35.2543 17.5793C36.0941 17.1552 37.0217 16.9338 37.9627 16.9326C38.9036 16.9315 39.8318 17.1508 40.6726 17.5728C41.5134 17.9949 42.2435 18.608 42.8043 19.363C43.3651 20.1179 43.7409 20.9937 43.9017 21.92C43.9313 22.0919 43.9185 22.2725 43.9929 22.4363V23.4466C43.9185 23.6112 43.9313 23.7911 43.9017 23.9637C43.4881 26.3918 41.5771 28.3596 39.166 28.8303C38.926 28.8767 38.6861 28.9142 38.4413 28.9558H37.4334C37.4158 28.9046 37.3702 28.9254 37.3366 28.9214C36.1903 28.7965 35.1035 28.348 34.2032 27.6282C31.9633 25.8531 31.2978 22.6649 32.6401 20.1497C33.0195 19.4406 33.5355 18.8134 34.1584 18.3042C34.1976 18.2714 34.2768 18.2579 34.2448 18.1707C34.1496 17.9166 34.0584 17.6616 33.9592 17.3899L33.7648 17.5993L31.4554 20.0841C30.248 21.3827 29.0409 22.6809 27.834 23.9789C27.8073 24.0007 27.7861 24.0285 27.7722 24.06C27.7583 24.0915 27.7521 24.1259 27.754 24.1603C27.7786 24.37 27.7305 24.5817 27.6179 24.7602C27.5052 24.9388 27.3348 25.0735 27.1349 25.1418C27.0805 25.1626 27.0373 25.1793 27.0221 25.2417C26.8957 25.7516 26.7677 26.2615 26.6381 26.7715C26.6213 26.8394 26.6381 26.8682 26.7045 26.8554C26.8749 26.8234 26.9077 26.9081 26.8893 27.0536C26.8801 27.1292 26.8801 27.2057 26.8893 27.2814C26.9029 27.3853 26.8613 27.4069 26.7629 27.4053C26.4037 27.3989 26.043 27.4053 25.6854 27.4053C25.4454 27.4053 25.4454 27.4053 25.4454 27.1575C25.4454 26.861 25.4454 26.8578 25.7406 26.861C25.8422 26.861 25.891 26.8402 25.9198 26.7299C26.035 26.2903 26.1584 25.8526 26.2901 25.4167C26.3509 25.2185 26.4045 25.0467 26.1678 24.9156C26.0758 24.8652 26.0254 24.7597 25.895 24.7406C25.2662 24.647 24.6391 24.5423 24.0127 24.4345C23.8935 24.4145 23.8527 24.4432 23.8151 24.5623C23.1008 26.8594 21.5753 28.2932 19.2219 28.8415C18.9939 28.8943 18.7603 28.9254 18.5291 28.967L17.414 28.9654ZM34.7183 19.3584C33.4856 20.3974 32.8665 22.2629 33.2065 23.8918C33.7512 26.5053 36.1758 28.1653 38.8125 27.7282C41.4923 27.2862 43.3193 24.6023 42.7362 21.9648C42.2354 19.6965 40.3659 18.158 38.0373 18.1012C37.2071 18.0817 36.3866 18.2822 35.6591 18.6823C35.6031 18.7126 35.5271 18.7222 35.5687 18.8309C35.7423 19.2817 35.9199 19.7293 36.1918 20.1321C36.6606 20.8266 37.2574 21.4061 37.8717 21.9704C37.8944 21.9889 37.9207 22.0026 37.9489 22.0107C37.9771 22.0188 38.0066 22.0212 38.0357 22.0175C38.2144 22.0152 38.3867 22.0837 38.5149 22.208C38.6431 22.3324 38.7167 22.5024 38.7197 22.6809C38.7259 22.8588 38.6626 23.0322 38.5431 23.1644C38.4237 23.2965 38.2575 23.3771 38.0797 23.389C37.99 23.3958 37.8999 23.3846 37.8146 23.3563C37.7292 23.3279 37.6504 23.283 37.5826 23.2239C37.5148 23.1649 37.4594 23.093 37.4196 23.0124C37.3799 22.9318 37.3565 22.8441 37.351 22.7544C37.3516 22.6945 37.3373 22.6354 37.3094 22.5824C37.2814 22.5294 37.2408 22.4841 37.191 22.4507C36.4326 21.8561 35.7583 21.1839 35.2511 20.3575C35.0549 20.0347 34.877 19.7012 34.7183 19.3584V19.3584ZM13.1479 22.9614C13.1504 23.206 13.1697 23.45 13.2055 23.6919C13.234 23.8694 13.272 24.0452 13.3191 24.2187C14.0022 26.6652 16.3381 28.1733 18.8547 27.7218C20.7801 27.3765 22.0401 26.2088 22.672 24.3649C22.712 24.2482 22.692 24.2171 22.5648 24.1971C21.2441 23.9885 19.925 23.7711 18.6059 23.5577C18.4803 23.5369 18.3595 23.4969 18.2235 23.5489C18.0834 23.6004 17.9295 23.6006 17.7892 23.5496C17.6488 23.4985 17.5312 23.3995 17.457 23.27C17.3828 23.1405 17.3569 22.9889 17.3838 22.8422C17.4108 22.6954 17.489 22.563 17.6044 22.4683C17.6706 22.4123 17.7311 22.3499 17.7852 22.2821C18.6715 21.1631 19.5589 20.0442 20.4474 18.9252C20.5274 18.8253 20.5194 18.7918 20.4082 18.7302C19.4622 18.1944 18.3632 17.9925 17.2884 18.1572C14.927 18.4888 13.1559 20.5421 13.1479 22.9614ZM27.4957 22.8671C27.5669 22.792 27.6077 22.7504 27.6469 22.7073C29.5486 20.6671 31.4524 18.6282 33.3584 16.5906C33.5352 16.402 33.5944 16.2517 33.4608 16.0224C33.4064 15.9288 33.3744 15.8769 33.2512 15.8793C30.3955 15.9432 27.5391 16.0026 24.6823 16.0575C24.5407 16.0575 24.5223 16.0911 24.5695 16.2174C25.3251 18.4553 26.0792 20.6932 26.8317 22.9311C26.8445 22.9686 26.8317 23.0334 26.9117 23.043C26.9589 22.7233 27.0053 22.41 27.0533 22.095C27.0645 22.0231 27.0669 21.9776 26.9645 21.9752C26.7013 21.9688 26.7013 21.9632 26.7013 21.6946C26.7037 21.6566 26.7037 21.6184 26.7013 21.5803C26.6901 21.4892 26.7245 21.4596 26.8181 21.4612C27.1669 21.466 27.5149 21.4612 27.8636 21.4612C28.078 21.4612 28.078 21.4612 28.078 21.673C28.078 21.9704 28.078 21.9696 27.7868 21.9768C27.7308 21.9768 27.662 21.9544 27.6469 22.0455C27.5989 22.3068 27.5493 22.565 27.4957 22.8671ZM26.0518 23.7463C25.2398 21.3414 24.4351 18.9436 23.6223 16.5299C23.1176 17.1693 22.6336 17.7799 22.1424 18.3881C22.0704 18.4769 22.0776 18.5216 22.1568 18.5951C22.5909 18.9985 22.9597 19.4665 23.2504 19.9826C23.829 20.9917 24.098 22.1485 24.0239 23.3091C24.0183 23.389 24.0359 23.4242 24.1207 23.4346C24.2663 23.4514 24.4095 23.4817 24.5543 23.5057L26.0518 23.7463ZM18.8339 22.5682C18.8947 22.5826 18.9315 22.593 18.9683 22.5994C20.2338 22.8048 21.4993 23.0078 22.764 23.2172C22.8824 23.2372 22.8704 23.1772 22.872 23.1045C22.904 21.7154 22.4264 20.5277 21.4649 19.5271C21.3689 19.4272 21.3225 19.4112 21.2289 19.5351C20.9089 19.9595 20.5722 20.3727 20.2418 20.7899C19.777 21.3781 19.3122 21.9648 18.8339 22.5698V22.5682Z" fill="white"/>
</svg>
