<svg width="56" height="62" viewBox="0 0 56 62" fill="none" xmlns="http://www.w3.org/2000/svg">
<path d="M21.3562 49.815V50.835H25.1812V49.815H21.3562ZM21.3562 52.59V53.625H25.1812V52.59H21.3562ZM15.6112 48.435V54.825H21.7312V48.435H20.5162V50.595H16.8412V48.435H15.6112ZM16.8412 51.6H20.5162V53.82H16.8412V51.6ZM24.8512 47.61V55.815H26.0962V47.61H24.8512ZM21.6412 56.085C18.8362 56.085 17.1112 57.03 17.1112 58.62C17.1112 60.225 18.8362 61.14 21.6412 61.14C24.4312 61.14 26.1562 60.225 26.1562 58.62C26.1562 57.03 24.4312 56.085 21.6412 56.085ZM21.6412 57.075C23.6812 57.075 24.9262 57.63 24.9262 58.62C24.9262 59.595 23.6812 60.165 21.6412 60.165C19.6012 60.165 18.3562 59.595 18.3562 58.62C18.3562 57.63 19.6012 57.075 21.6412 57.075ZM32.59 54.435V57.45H33.835V54.435H32.59ZM38.605 47.61V57.93H39.85V47.61H38.605ZM30.595 59.85V60.87H40.18V59.85H30.595ZM30.595 56.925V60.135H31.84V56.925H30.595ZM28.84 54.9C31.3 54.9 34.585 54.855 37.51 54.39L37.42 53.475C34.54 53.85 31.18 53.88 28.675 53.88L28.84 54.9ZM35.845 55.62V56.535H38.92V55.62H35.845ZM33.085 48.165C31.09 48.165 29.74 49.095 29.74 50.52C29.74 51.96 31.09 52.89 33.085 52.89C35.065 52.89 36.415 51.96 36.415 50.52C36.415 49.095 35.065 48.165 33.085 48.165ZM33.085 49.095C34.345 49.095 35.23 49.65 35.23 50.52C35.23 51.39 34.345 51.945 33.085 51.945C31.81 51.945 30.925 51.39 30.925 50.52C30.925 49.65 31.81 49.095 33.085 49.095Z" fill="#7D7D7D"/>
<path d="M47.9962 19.9429C48.2122 30.9283 38.6972 40 28.0301 40C17.3541 40.001 7.97505 30.9273 8.00005 19.8988C8.02405 9.24203 17.2111 -0.00700969 28.0451 3.98633e-06C38.8202 0.00701766 48.2162 9.23 47.9962 19.9429Z" fill="#C6C6C6"/>
<path d="M27.9712 30.2728C23.0972 30.2728 18.2222 30.2698 13.3481 30.2798C13.0561 30.2798 12.9901 30.1967 13.0011 29.9221C13.0231 29.3851 13.0171 28.846 13.0021 28.309C12.9971 28.1096 13.0621 28.0675 13.2481 28.0725C13.7021 28.0855 14.1571 28.0705 14.6111 28.0805C14.7721 28.0835 14.8291 28.0455 14.8021 27.8751C14.7751 27.7028 14.7761 27.5255 14.7761 27.3501C14.7751 23.4395 14.7761 19.5289 14.7741 15.6172C14.7741 15.2565 14.8121 14.9139 15.0881 14.6463C15.3061 14.4339 15.5681 14.3387 15.8721 14.3387C17.7001 14.3407 19.5282 14.3458 21.3562 14.3327C21.6412 14.3307 21.5802 14.493 21.5802 14.6473C21.5802 18.2273 21.5782 21.8073 21.5832 25.3863C21.5842 26.1718 21.5432 26.9583 21.6142 27.7429C21.6252 27.8621 21.6142 28.0365 21.7412 28.0635C21.9282 28.1026 22.1312 28.0815 22.3242 28.0605C22.3972 28.0525 22.3642 27.9543 22.3512 27.9012C22.2992 27.6858 22.3192 27.4683 22.3192 27.2519C22.3182 21.8404 22.3192 16.4298 22.3172 11.0183C22.3172 10.7037 22.3442 10.4011 22.5472 10.1376C22.8152 9.78887 23.1852 9.71874 23.5942 9.71974C26.2482 9.72274 28.9022 9.72174 31.5562 9.72174C31.8552 9.72174 32.1552 9.71974 32.4542 9.72174C33.2812 9.72875 33.6872 10.1355 33.6882 10.9672C33.6892 14.4019 33.6882 17.8366 33.6882 21.2723C33.6882 23.3213 33.6882 25.3692 33.6882 27.4182C33.6882 27.4904 33.6902 27.5635 33.6882 27.6357C33.6732 28.0946 33.6722 28.0815 34.1242 28.0835C34.3062 28.0835 34.3632 27.9994 34.3782 27.8551C34.4012 27.6397 34.4242 27.4223 34.4242 27.2058C34.4272 23.0257 34.4292 18.8465 34.4192 14.6664C34.4192 14.3928 34.4842 14.3297 34.7542 14.3317C36.5512 14.3458 38.3482 14.3377 40.1452 14.3387C40.9742 14.3387 41.3782 14.7445 41.3782 15.5782C41.3792 19.5619 41.3782 23.5447 41.3772 27.5285C41.3772 27.7018 41.2782 27.9603 41.3572 28.0294C41.5012 28.1577 41.7492 28.0685 41.9532 28.0745C42.2422 28.0825 42.5312 28.0825 42.8202 28.0745C42.9523 28.0705 43.0022 28.1086 43.0002 28.2479C42.9942 28.8691 42.9952 29.4893 43.0002 30.1105C43.0002 30.2287 42.9663 30.2838 42.8423 30.2748C42.7602 30.2688 42.6772 30.2748 42.5942 30.2748C37.7202 30.2748 32.8452 30.2748 27.9712 30.2748V30.2728ZM28.0032 17.6722C30.0562 17.6712 31.7202 16.007 31.7262 13.949C31.7332 11.8799 30.0592 10.1937 28.0012 10.1937C25.9432 10.1937 24.2702 11.882 24.2772 13.95C24.2842 16.007 25.9522 17.6722 28.0022 17.6712L28.0032 17.6722ZM25.9002 25.239C25.9002 26.0866 25.9042 26.9353 25.8962 27.783C25.8942 27.9503 25.9302 28.0134 26.1132 28.0124C27.4552 28.0044 28.7972 28.0054 30.1392 28.0124C30.3142 28.0124 30.3612 27.9663 30.3602 27.791C30.3542 26.0846 30.3532 24.3773 30.3602 22.671C30.3602 22.4716 30.2982 22.4335 30.1142 22.4355C28.7932 22.4435 27.4712 22.4435 26.1502 22.4355C25.9462 22.4345 25.8902 22.4916 25.8932 22.696C25.9052 23.5437 25.8982 24.3923 25.8982 25.24L25.9002 25.239ZM17.9531 17.7875C17.9531 17.2498 17.6981 16.9809 17.1881 16.9809C16.4261 16.9809 16.4221 16.9809 16.4291 17.7474C16.4311 17.9909 16.3201 18.3095 16.4781 18.4588C16.6331 18.6061 16.9481 18.5009 17.1921 18.4999C17.4361 18.4999 17.7521 18.6071 17.9051 18.4558C18.0592 18.3035 17.9321 17.9869 17.9531 17.7875V17.7875ZM20.3242 17.7945C20.2952 17.4999 20.4192 17.1823 20.2682 17.03C20.1162 16.8757 19.7992 16.9859 19.5552 16.9829C18.7932 16.9769 18.7892 16.9809 18.7962 17.7474C18.7982 17.9919 18.6852 18.3235 18.8462 18.4558C18.9962 18.579 19.3152 18.5049 19.5592 18.5009C19.8032 18.4969 20.1322 18.6091 20.2652 18.4548C20.3912 18.3085 20.3142 17.9879 20.3242 17.7945V17.7945ZM39.9972 17.7975C39.9972 17.2531 39.7429 16.9809 39.2342 16.9809H39.2032C38.4772 16.9809 38.4712 16.9809 38.4802 17.7213C38.4832 17.9758 38.3642 18.3135 38.5332 18.4608C38.6762 18.585 39.0042 18.5019 39.2502 18.5019C39.4872 18.5019 39.8012 18.584 39.9412 18.4648C40.1082 18.3225 39.9712 17.9969 39.9982 17.7965L39.9972 17.7975ZM20.3242 20.3465C20.2902 20.0699 20.4232 19.7463 20.2612 19.604C20.1252 19.4838 19.8102 19.5679 19.5742 19.5619C19.5642 19.5619 19.5532 19.5619 19.5432 19.5619C19.3002 19.585 18.9782 19.4507 18.8362 19.619C18.7172 19.7603 18.7942 20.0719 18.7932 20.3084C18.7902 21.0819 18.7932 21.0859 19.5532 21.0799C19.7982 21.0779 20.1312 21.1901 20.2652 21.0318C20.3912 20.8835 20.3132 20.5609 20.3232 20.3475L20.3242 20.3465ZM39.2082 21.0819C39.7342 21.0819 39.9972 20.8231 39.9972 20.3054V20.2743C39.9972 19.7994 39.7569 19.5623 39.2762 19.5629C39.0202 19.5629 38.6862 19.4808 38.5302 19.609C38.3642 19.7453 38.4832 20.093 38.4812 20.3475C38.4732 21.0819 38.4782 21.0819 39.2102 21.0819H39.2082ZM20.3212 22.9656C20.2872 22.7421 20.4242 22.4085 20.2642 22.2772C20.1142 22.154 19.7932 22.2271 19.5482 22.2341C19.3042 22.2401 18.9722 22.1209 18.8412 22.2842C18.7182 22.4375 18.7952 22.7572 18.7942 23.0026C18.7912 23.7481 18.7932 23.7521 19.5492 23.7461C19.7952 23.7441 20.1142 23.8523 20.2672 23.702C20.4202 23.5517 20.2952 23.2311 20.3212 22.9656V22.9656ZM39.2352 22.2261C38.9912 22.2502 38.6712 22.1249 38.5222 22.2782C38.3752 22.4295 38.4782 22.7491 38.4812 22.9946C38.4842 23.2381 38.3672 23.5717 38.5302 23.702C38.6842 23.8252 39.0032 23.7471 39.2492 23.7481C39.9972 23.7511 40.0012 23.7481 39.9952 22.9966C39.9932 22.7511 40.1012 22.4315 39.9502 22.2792C39.7992 22.1279 39.4802 22.2512 39.2352 22.2281V22.2261ZM17.1691 19.5619C16.9621 19.586 16.6381 19.4537 16.4731 19.612C16.3211 19.7573 16.4301 20.0809 16.4281 20.3244C16.4221 21.0819 16.4261 21.0869 17.1951 21.0799C17.4391 21.0779 17.7561 21.1901 17.9081 21.0298C18.0561 20.8735 17.9491 20.5589 17.9511 20.3144C17.9571 19.5619 17.9531 19.5619 17.1691 19.5619V19.5619ZM17.9531 22.9555C17.9271 22.7652 18.0641 22.4335 17.9031 22.2772C17.7441 22.1219 17.4141 22.2351 17.1601 22.2321C16.4261 22.2261 16.4211 22.2301 16.4281 22.9535C16.4301 23.208 16.3161 23.5377 16.4751 23.696C16.6351 23.8563 16.9641 23.7421 17.2191 23.7441C17.9531 23.7511 17.9531 23.7461 17.9531 22.9545V22.9555ZM37.6092 17.7354C37.6292 16.9809 37.6292 16.9769 36.8842 16.9829C36.6392 16.9849 36.3222 16.8777 36.1682 17.027C36.0132 17.1773 36.1272 17.4959 36.1222 17.7404C36.1172 17.9849 36.0442 18.3085 36.1682 18.4548C36.2992 18.6101 36.6322 18.5009 36.8762 18.4999C37.1202 18.4999 37.4562 18.6121 37.5842 18.4528C37.7042 18.3045 37.6102 17.9818 37.6102 17.7364L37.6092 17.7354ZM37.6292 20.2743C37.6092 20.0749 37.7342 19.7523 37.5792 19.609C37.4482 19.4878 37.1302 19.5579 36.8952 19.5649C36.6412 19.5729 36.3052 19.4477 36.1582 19.617C36.0342 19.7603 36.1142 20.089 36.1212 20.3344C36.1282 20.5799 36.0112 20.9055 36.1722 21.0468C36.3082 21.1661 36.6252 21.0799 36.8622 21.0799C37.3729 21.0806 37.6282 20.8117 37.6282 20.2733L37.6292 20.2743ZM36.1102 23.0177C36.1202 23.2281 36.0412 23.5497 36.1672 23.699C36.2982 23.8543 36.6302 23.7311 36.8732 23.7471C36.8832 23.7471 36.8942 23.7471 36.9042 23.7471C37.6282 23.7471 37.6342 23.7471 37.6252 23.0066C37.6222 22.7542 37.7422 22.4175 37.5712 22.2722C37.4252 22.148 37.1002 22.2311 36.8542 22.2311C36.6192 22.2311 36.3032 22.152 36.1702 22.2722C36.0122 22.4145 36.1412 22.7371 36.1092 23.0167L36.1102 23.0177Z" fill="white"/>
<path d="M28.0105 11.5722C28.2475 11.5722 28.4855 11.5812 28.7225 11.5692C28.8835 11.5612 28.9395 11.6113 28.9335 11.7776C28.9215 12.1182 28.9385 12.4599 28.9265 12.8016C28.9215 12.9619 28.9665 13.016 29.1315 13.01C29.4715 12.997 29.8125 13.014 30.1535 13.003C30.3185 12.997 30.3645 13.0531 30.3605 13.2134C30.3515 13.6993 30.3515 14.1853 30.3605 14.6712C30.3635 14.8205 30.3195 14.8666 30.1705 14.8616C29.8305 14.8516 29.4885 14.8686 29.1485 14.8546C28.9685 14.8476 28.9195 14.9087 28.9265 15.082C28.9395 15.4127 28.9195 15.7443 28.9345 16.075C28.9425 16.2573 28.8795 16.2994 28.7075 16.2954C28.2435 16.2844 27.7785 16.2834 27.3145 16.2954C27.1305 16.3004 27.0595 16.2593 27.0705 16.0599C27.0885 15.7403 27.0645 15.4187 27.0795 15.0991C27.0875 14.9127 27.0395 14.8446 26.8415 14.8546C26.5015 14.8716 26.1605 14.8546 25.8195 14.8616C25.6845 14.8646 25.6425 14.8225 25.6445 14.6873C25.6515 14.1913 25.6555 13.6943 25.6435 13.1983C25.6385 13.015 25.7225 13.001 25.8665 13.004C26.2075 13.011 26.5485 12.999 26.8885 13.01C27.0405 13.015 27.0825 12.9659 27.0785 12.8176C27.0685 12.4659 27.0815 12.1142 27.0725 11.7625C27.0685 11.6113 27.1205 11.5642 27.2675 11.5702C27.5145 11.5802 27.7625 11.5732 28.0105 11.5732V11.5722Z" fill="white"/>
</svg>
