<svg width="56" height="62" viewBox="0 0 56 62" fill="none" xmlns="http://www.w3.org/2000/svg">
<path d="M21.3562 49.815V50.835H25.1812V49.815H21.3562ZM21.3562 52.59V53.625H25.1812V52.59H21.3562ZM15.6112 48.435V54.825H21.7312V48.435H20.5162V50.595H16.8412V48.435H15.6112ZM16.8412 51.6H20.5162V53.82H16.8412V51.6ZM24.8512 47.61V55.815H26.0962V47.61H24.8512ZM21.6412 56.085C18.8362 56.085 17.1112 57.03 17.1112 58.62C17.1112 60.225 18.8362 61.14 21.6412 61.14C24.4312 61.14 26.1562 60.225 26.1562 58.62C26.1562 57.03 24.4312 56.085 21.6412 56.085ZM21.6412 57.075C23.6812 57.075 24.9262 57.63 24.9262 58.62C24.9262 59.595 23.6812 60.165 21.6412 60.165C19.6012 60.165 18.3562 59.595 18.3562 58.62C18.3562 57.63 19.6012 57.075 21.6412 57.075ZM32.59 54.435V57.45H33.835V54.435H32.59ZM38.605 47.61V57.93H39.85V47.61H38.605ZM30.595 59.85V60.87H40.18V59.85H30.595ZM30.595 56.925V60.135H31.84V56.925H30.595ZM28.84 54.9C31.3 54.9 34.585 54.855 37.51 54.39L37.42 53.475C34.54 53.85 31.18 53.88 28.675 53.88L28.84 54.9ZM35.845 55.62V56.535H38.92V55.62H35.845ZM33.085 48.165C31.09 48.165 29.74 49.095 29.74 50.52C29.74 51.96 31.09 52.89 33.085 52.89C35.065 52.89 36.415 51.96 36.415 50.52C36.415 49.095 35.065 48.165 33.085 48.165ZM33.085 49.095C34.345 49.095 35.23 49.65 35.23 50.52C35.23 51.39 34.345 51.945 33.085 51.945C31.81 51.945 30.925 51.39 30.925 50.52C30.925 49.65 31.81 49.095 33.085 49.095Z" fill="#7D7D7D"/>
<path d="M47.9962 19.9429C48.2122 30.9283 38.6972 40 28.0301 40C17.3541 40.001 7.97505 30.9273 8.00005 19.8988C8.02405 9.24203 17.2111 -0.00700969 28.0451 3.98633e-06C38.8202 0.00701766 48.2162 9.23 47.9962 19.9429Z" fill="#F45890"/>
<path d="M27.9712 30.2733C23.0972 30.2733 18.2222 30.2703 13.3481 30.2803C13.0561 30.2803 12.9901 30.1972 13.0011 29.9226C13.0231 29.3856 13.0171 28.8465 13.0021 28.3095C12.9971 28.1101 13.0621 28.068 13.2481 28.073C13.7021 28.086 14.1571 28.071 14.6111 28.081C14.7721 28.084 14.8291 28.046 14.8021 27.8756C14.7751 27.7033 14.7761 27.5259 14.7761 27.3506C14.7751 23.44 14.7761 19.5294 14.7741 15.6177C14.7741 15.257 14.8121 14.9144 15.0881 14.6468C15.3061 14.4344 15.5681 14.3392 15.8721 14.3392C17.7001 14.3412 19.5282 14.3462 21.3562 14.3332C21.6412 14.3312 21.5802 14.4935 21.5802 14.6478C21.5802 18.2278 21.5782 21.8078 21.5832 25.3868C21.5842 26.1723 21.5432 26.9588 21.6142 27.7434C21.6252 27.8626 21.6142 28.0369 21.7412 28.064C21.9282 28.1031 22.1312 28.082 22.3242 28.061C22.3972 28.053 22.3642 27.9548 22.3512 27.9017C22.2992 27.6863 22.3192 27.4688 22.3192 27.2524C22.3182 21.8409 22.3192 16.4303 22.3172 11.0188C22.3172 10.7041 22.3442 10.4016 22.5472 10.138C22.8152 9.78936 23.1852 9.71922 23.5942 9.72023C26.2482 9.72323 28.9022 9.72223 31.5562 9.72223C31.8552 9.72223 32.1552 9.72023 32.4542 9.72223C33.2812 9.72924 33.6872 10.136 33.6882 10.9677C33.6892 14.4024 33.6882 17.8371 33.6882 21.2728C33.6882 23.3217 33.6882 25.3697 33.6882 27.4187C33.6882 27.4909 33.6902 27.564 33.6882 27.6362C33.6732 28.0951 33.6722 28.082 34.1242 28.084C34.3062 28.084 34.3632 27.9999 34.3782 27.8556C34.4012 27.6402 34.4242 27.4227 34.4242 27.2063C34.4272 23.0262 34.4292 18.847 34.4192 14.6669C34.4192 14.3933 34.4842 14.3302 34.7542 14.3322C36.5512 14.3462 38.3482 14.3382 40.1452 14.3392C40.9742 14.3392 41.3782 14.745 41.3782 15.5786C41.3792 19.5624 41.3782 23.5452 41.3772 27.5289C41.3772 27.7023 41.2782 27.9608 41.3572 28.0299C41.5012 28.1582 41.7492 28.069 41.9532 28.075C42.2422 28.083 42.5312 28.083 42.8202 28.075C42.9523 28.071 43.0022 28.1091 43.0002 28.2484C42.9942 28.8696 42.9952 29.4898 43.0002 30.111C43.0002 30.2292 42.9663 30.2843 42.8423 30.2753C42.7602 30.2693 42.6772 30.2753 42.5942 30.2753C37.7202 30.2753 32.8452 30.2753 27.9712 30.2753V30.2733ZM28.0032 17.6727C30.0562 17.6717 31.7202 16.0075 31.7262 13.9495C31.7332 11.8804 30.0592 10.1941 28.0012 10.1941C25.9432 10.1941 24.2702 11.8824 24.2772 13.9505C24.2842 16.0075 25.9522 17.6727 28.0022 17.6717L28.0032 17.6727ZM25.9002 25.2395C25.9002 26.0871 25.9042 26.9358 25.8962 27.7834C25.8942 27.9508 25.9302 28.0139 26.1132 28.0129C27.4552 28.0049 28.7972 28.0059 30.1392 28.0129C30.3142 28.0129 30.3612 27.9668 30.3602 27.7915C30.3542 26.0851 30.3532 24.3778 30.3602 22.6715C30.3602 22.4721 30.2982 22.434 30.1142 22.436C28.7932 22.444 27.4712 22.444 26.1502 22.436C25.9462 22.435 25.8902 22.4921 25.8932 22.6965C25.9052 23.5442 25.8982 24.3928 25.8982 25.2405L25.9002 25.2395ZM17.9531 17.788C17.9531 17.2502 17.6981 16.9814 17.1881 16.9814C16.4261 16.9814 16.4221 16.9814 16.4291 17.7479C16.4311 17.9914 16.3201 18.31 16.4781 18.4593C16.6331 18.6066 16.9481 18.5013 17.1921 18.5003C17.4361 18.5003 17.7521 18.6076 17.9051 18.4563C18.0592 18.304 17.9321 17.9873 17.9531 17.788V17.788ZM20.3242 17.795C20.2952 17.5004 20.4192 17.1828 20.2682 17.0305C20.1162 16.8762 19.7992 16.9864 19.5552 16.9834C18.7932 16.9774 18.7892 16.9814 18.7962 17.7479C18.7982 17.9924 18.6852 18.324 18.8462 18.4563C18.9962 18.5795 19.3152 18.5054 19.5592 18.5013C19.8032 18.4973 20.1322 18.6096 20.2652 18.4553C20.3912 18.309 20.3142 17.9883 20.3242 17.795V17.795ZM39.9972 17.798C39.9972 17.2536 39.7429 16.9814 39.2342 16.9814H39.2032C38.4772 16.9814 38.4712 16.9814 38.4802 17.7218C38.4832 17.9763 38.3642 18.314 38.5332 18.4613C38.6762 18.5855 39.0042 18.5023 39.2502 18.5023C39.4872 18.5023 39.8012 18.5845 39.9412 18.4653C40.1082 18.323 39.9712 17.9974 39.9982 17.797L39.9972 17.798ZM20.3242 20.3469C20.2902 20.0704 20.4232 19.7468 20.2612 19.6045C20.1252 19.4843 19.8102 19.5684 19.5742 19.5624C19.5642 19.5624 19.5532 19.5624 19.5432 19.5624C19.3002 19.5855 18.9782 19.4512 18.8362 19.6195C18.7172 19.7608 18.7942 20.0724 18.7932 20.3089C18.7902 21.0824 18.7932 21.0864 19.5532 21.0804C19.7982 21.0784 20.1312 21.1906 20.2652 21.0323C20.3912 20.884 20.3132 20.5614 20.3232 20.3479L20.3242 20.3469ZM39.2082 21.0824C39.7342 21.0824 39.9972 20.8235 39.9972 20.3059V20.2748C39.9972 19.7999 39.7569 19.5627 39.2762 19.5634C39.0202 19.5634 38.6862 19.4813 38.5302 19.6095C38.3642 19.7458 38.4832 20.0935 38.4812 20.3479C38.4732 21.0824 38.4782 21.0824 39.2102 21.0824H39.2082ZM20.3212 22.9661C20.2872 22.7426 20.4242 22.409 20.2642 22.2777C20.1142 22.1545 19.7932 22.2276 19.5482 22.2346C19.3042 22.2406 18.9722 22.1214 18.8412 22.2847C18.7182 22.438 18.7952 22.7576 18.7942 23.0031C18.7912 23.7486 18.7932 23.7526 19.5492 23.7466C19.7952 23.7446 20.1142 23.8528 20.2672 23.7025C20.4202 23.5522 20.2952 23.2316 20.3212 22.9661V22.9661ZM39.2352 22.2266C38.9912 22.2507 38.6712 22.1254 38.5222 22.2787C38.3752 22.43 38.4782 22.7496 38.4812 22.9951C38.4842 23.2386 38.3672 23.5722 38.5302 23.7025C38.6842 23.8257 39.0032 23.7476 39.2492 23.7486C39.9972 23.7516 40.0012 23.7486 39.9952 22.9971C39.9932 22.7516 40.1012 22.432 39.9502 22.2797C39.7992 22.1284 39.4802 22.2517 39.2352 22.2286V22.2266ZM17.1691 19.5624C16.9621 19.5865 16.6381 19.4542 16.4731 19.6125C16.3211 19.7578 16.4301 20.0814 16.4281 20.3249C16.4221 21.0824 16.4261 21.0874 17.1951 21.0804C17.4391 21.0784 17.7561 21.1906 17.9081 21.0303C18.0561 20.874 17.9491 20.5594 17.9511 20.3149C17.9571 19.5624 17.9531 19.5624 17.1691 19.5624V19.5624ZM17.9531 22.956C17.9271 22.7657 18.0641 22.434 17.9031 22.2777C17.7441 22.1224 17.4141 22.2356 17.1601 22.2326C16.4261 22.2266 16.4211 22.2306 16.4281 22.954C16.4301 23.2085 16.3161 23.5382 16.4751 23.6965C16.6351 23.8568 16.9641 23.7426 17.2191 23.7446C17.9531 23.7516 17.9531 23.7466 17.9531 22.955V22.956ZM37.6092 17.7359C37.6292 16.9814 37.6292 16.9774 36.8842 16.9834C36.6392 16.9854 36.3222 16.8782 36.1682 17.0275C36.0132 17.1778 36.1272 17.4964 36.1222 17.7409C36.1172 17.9853 36.0442 18.309 36.1682 18.4553C36.2992 18.6106 36.6322 18.5013 36.8762 18.5003C37.1202 18.5003 37.4562 18.6126 37.5842 18.4533C37.7042 18.305 37.6102 17.9823 37.6102 17.7369L37.6092 17.7359ZM37.6292 20.2748C37.6092 20.0754 37.7342 19.7528 37.5792 19.6095C37.4482 19.4883 37.1302 19.5584 36.8952 19.5654C36.6412 19.5734 36.3052 19.4482 36.1582 19.6175C36.0342 19.7608 36.1142 20.0894 36.1212 20.3349C36.1282 20.5804 36.0112 20.906 36.1722 21.0473C36.3082 21.1665 36.6252 21.0804 36.8622 21.0804C37.3729 21.081 37.6282 20.8122 37.6282 20.2738L37.6292 20.2748ZM36.1102 23.0182C36.1202 23.2286 36.0412 23.5502 36.1672 23.6995C36.2982 23.8548 36.6302 23.7315 36.8732 23.7476C36.8832 23.7476 36.8942 23.7476 36.9042 23.7476C37.6282 23.7476 37.6342 23.7476 37.6252 23.0071C37.6222 22.7546 37.7422 22.418 37.5712 22.2727C37.4252 22.1485 37.1002 22.2316 36.8542 22.2316C36.6192 22.2316 36.3032 22.1525 36.1702 22.2727C36.0122 22.415 36.1412 22.7376 36.1092 23.0172L36.1102 23.0182Z" fill="white"/>
<path d="M28.0105 11.5722C28.2475 11.5722 28.4855 11.5812 28.7225 11.5692C28.8835 11.5612 28.9395 11.6113 28.9335 11.7776C28.9215 12.1182 28.9385 12.4599 28.9265 12.8016C28.9215 12.9619 28.9665 13.016 29.1315 13.01C29.4715 12.997 29.8125 13.014 30.1535 13.003C30.3185 12.997 30.3645 13.0531 30.3605 13.2134C30.3515 13.6993 30.3515 14.1853 30.3605 14.6712C30.3635 14.8205 30.3195 14.8666 30.1705 14.8616C29.8305 14.8516 29.4885 14.8686 29.1485 14.8546C28.9685 14.8476 28.9195 14.9087 28.9265 15.082C28.9395 15.4127 28.9195 15.7443 28.9345 16.075C28.9425 16.2573 28.8795 16.2994 28.7075 16.2954C28.2435 16.2844 27.7785 16.2834 27.3145 16.2954C27.1305 16.3004 27.0595 16.2593 27.0705 16.0599C27.0885 15.7403 27.0645 15.4187 27.0795 15.0991C27.0875 14.9127 27.0395 14.8446 26.8415 14.8546C26.5015 14.8716 26.1605 14.8546 25.8195 14.8616C25.6845 14.8646 25.6425 14.8225 25.6445 14.6873C25.6515 14.1913 25.6555 13.6943 25.6435 13.1983C25.6385 13.015 25.7225 13.001 25.8665 13.004C26.2075 13.011 26.5485 12.999 26.8885 13.01C27.0405 13.015 27.0825 12.9659 27.0785 12.8176C27.0685 12.4659 27.0815 12.1142 27.0725 11.7625C27.0685 11.6113 27.1205 11.5642 27.2675 11.5702C27.5145 11.5802 27.7625 11.5732 28.0105 11.5732V11.5722Z" fill="white"/>
</svg>
