<svg width="56" height="62" viewBox="0 0 56 62" fill="none" xmlns="http://www.w3.org/2000/svg">
<path d="M13.3918 52.455V53.49H15.9868V52.455H13.3918ZM10.8568 48.885V51.465C10.8568 53.79 9.74676 56.22 7.88676 57.315L8.66676 58.26C10.6468 57.045 11.8318 54.3 11.8318 51.465V48.885H10.8568ZM11.0968 48.885V51.42C11.0968 54.06 12.1918 56.76 14.1418 57.96L14.8618 56.985C13.0768 55.905 12.0568 53.595 12.0568 51.42V48.885H11.0968ZM18.3718 47.61V61.17H19.5718V47.61H18.3718ZM15.6268 47.895V60.495H16.7968V47.895H15.6268ZM22.4656 54.09V55.11H23.5006C26.2606 55.11 27.8206 55.05 29.6806 54.72L29.5456 53.715C27.7306 54.03 26.2156 54.09 23.5006 54.09H22.4656ZM22.4656 48.525V54.48H23.6956V49.545H28.6606V48.525H22.4656ZM23.3056 51.27V52.275H28.4056V51.27H23.3056ZM31.1206 47.61V55.815H32.3656V47.61H31.1206ZM32.0206 51.195V52.245H34.3756V51.195H32.0206ZM23.5606 56.49V57.51H31.1206V61.17H32.3656V56.49H23.5606ZM35.6494 58.38V59.415H47.9344V58.38H35.6494ZM41.1094 55.095V58.725H42.3394V55.095H41.1094ZM41.0794 48.51V49.56C41.0794 51.795 38.5144 53.79 36.1294 54.225L36.6544 55.26C39.3844 54.69 42.1594 52.455 42.1594 49.56V48.51H41.0794ZM41.3044 48.51V49.56C41.3044 52.455 44.0794 54.69 46.8094 55.26L47.3494 54.225C44.9644 53.79 42.3844 51.81 42.3844 49.56V48.51H41.3044Z" fill="#7D7D7D"/>
<path d="M47.9971 20.0315C48.1739 30.9008 38.7978 40.1422 27.7354 39.9983C17.1417 39.8601 8 30.8793 8 19.9867C8 9.09416 17.2721 -0.132821 28.2858 0.00144722C38.813 0.132519 48.1875 9.047 47.9971 20.0315Z" fill="#C6C6C6"/>
<path d="M15.1995 13.0842C15.3275 12.8685 15.5194 12.7518 15.7594 12.6639C18.348 11.6952 20.9159 10.6658 23.5637 9.86659C23.6269 9.84741 23.6885 9.82023 23.7525 9.80265C24.1724 9.68437 24.4844 9.90415 24.5028 10.3429C24.5404 11.2444 24.8508 12.0373 25.4875 12.6758C26.4835 13.6765 27.6898 14.0097 29.0361 13.587C30.396 13.1586 31.2023 12.1915 31.4551 10.7793C31.478 10.6399 31.4924 10.4992 31.4983 10.3581C31.5263 9.89057 31.8335 9.67318 32.2838 9.81624C32.8534 9.99686 33.423 10.1791 33.9877 10.3757C34.1565 10.434 34.2437 10.4149 34.3373 10.251C34.6573 9.69636 34.9828 9.14649 35.3444 8.61821C35.6516 8.16985 36.0596 8.16266 36.3604 8.61102C37.035 9.59904 37.6332 10.637 38.1498 11.716C38.1785 11.7832 38.2216 11.8433 38.2761 11.892C38.3305 11.9407 38.395 11.977 38.465 11.9981C39.0818 12.2219 39.6929 12.4585 40.3049 12.6902C40.6992 12.8397 40.7992 12.9803 40.8 13.3943C40.8 15.5336 40.8 17.6728 40.8 19.8121C40.8 20.322 40.5425 20.5314 40.0329 20.4379C38.6271 20.1762 37.2216 19.9125 35.8164 19.6466C35.634 19.6123 35.5724 19.633 35.5764 19.84C35.5876 20.8055 35.5828 21.7717 35.5764 22.7372C35.5747 22.8695 35.6141 22.9991 35.6892 23.108C36.4803 24.3197 37.2091 25.5656 37.7259 26.9235C38.0514 27.7779 38.2506 28.6466 37.9026 29.5449C37.4403 30.7438 36.5627 31.4511 35.2892 31.5534C33.9629 31.6605 32.955 31.0779 32.3166 29.9022C32.2892 29.8356 32.2408 29.7798 32.1787 29.7433C32.1166 29.7068 32.0442 29.6916 31.9727 29.7C28.382 29.7037 24.791 29.7037 21.1998 29.7C21.0837 29.7005 20.9678 29.6906 20.8535 29.6704C20.7494 29.6564 20.6531 29.6081 20.5797 29.5331C20.5064 29.458 20.4602 29.3607 20.4487 29.2564C20.4308 29.1417 20.4225 29.0257 20.4239 28.9096C20.4239 25.9045 20.4239 22.8997 20.4239 19.8952C20.4239 19.669 20.3951 19.6019 20.1407 19.6554C18.7192 19.9327 17.2985 20.1893 15.877 20.461C15.557 20.521 15.3747 20.3427 15.1995 20.1286V13.0842ZM21.499 20.1286C21.499 22.8837 21.499 25.6389 21.499 28.3941C21.499 28.5467 21.5038 28.625 21.7014 28.625C25.0612 28.6181 28.4188 28.6181 31.7743 28.625C31.9215 28.625 31.9743 28.5947 31.9799 28.4396C32.0015 27.8682 32.1703 27.3303 32.3798 26.8028C32.9006 25.4833 33.6109 24.2653 34.3869 23.0833C34.4629 22.9754 34.5037 22.8467 34.5037 22.7148C34.4989 20.875 34.4989 19.0355 34.5037 17.1962C34.509 17.1324 34.4945 17.0684 34.4619 17.0132C34.4294 16.9579 34.3806 16.9141 34.3221 16.8877C33.7363 16.5517 33.2795 16.0298 33.0241 15.405C32.7688 14.7801 32.7295 14.088 32.9126 13.4383C33.0898 12.7986 33.3277 12.1771 33.6229 11.5825C33.6885 11.449 33.6861 11.3875 33.5262 11.3427C33.2764 11.2799 33.0313 11.1998 32.7926 11.103C32.5718 11.0103 32.4974 11.0478 32.4454 11.2948C31.9127 13.8091 29.1657 15.4124 26.717 14.6371C25.0156 14.0993 23.9548 12.9468 23.5341 11.2133C23.4965 11.059 23.4581 11.0191 23.2941 11.0766C22.7773 11.258 22.2542 11.4259 21.731 11.5841C21.5518 11.6377 21.495 11.7184 21.4958 11.911C21.5022 14.6507 21.5033 17.3899 21.499 20.1286V20.1286ZM20.4199 15.2805C20.4199 14.2823 20.4199 13.2824 20.4239 12.2858C20.4239 12.094 20.3847 12.0644 20.2039 12.134C18.9571 12.6135 17.7078 13.085 16.4562 13.5486C16.3322 13.5949 16.2738 13.6485 16.2746 13.7947C16.2805 15.5663 16.2805 17.338 16.2746 19.1096C16.2746 19.2318 16.2858 19.2886 16.4386 19.2598C17.6865 19.0195 18.936 18.7856 20.1871 18.5581C20.3727 18.5253 20.4271 18.4606 20.4231 18.2744C20.4151 17.2769 20.4199 16.2787 20.4199 15.2805V15.2805ZM35.0284 24.0671C34.5157 24.8959 34.0301 25.7151 33.6365 26.5854C33.3862 27.1385 33.1566 27.6956 33.0686 28.3038C32.8798 29.6185 34.2101 30.7933 35.4924 30.4369C36.6267 30.1212 37.2267 29.0726 36.9179 27.9409C36.5339 26.5351 35.7756 25.3147 35.0284 24.0671ZM35.8508 9.79786C35.1092 11.0287 34.4013 12.2163 33.9925 13.5542C33.8731 13.9101 33.847 14.2906 33.9165 14.6595C33.97 14.9165 34.0743 15.1603 34.2232 15.3765C34.3721 15.5928 34.5627 15.7772 34.7838 15.919C35.0049 16.0608 35.2521 16.1571 35.5109 16.2023C35.7697 16.2474 36.0349 16.2406 36.2911 16.1821C36.5472 16.1237 36.7891 16.0148 37.0026 15.8618C37.2161 15.7088 37.3969 15.5148 37.5345 15.2912C37.672 15.0675 37.7635 14.8187 37.8037 14.5593C37.8438 14.2999 37.8318 14.0351 37.7683 13.7804C37.4123 12.337 36.6179 11.099 35.8508 9.79786V9.79786ZM38.7618 13.2585C38.7818 13.3744 38.7882 13.4463 38.8066 13.5158C39.3185 15.4635 37.7891 17.3744 35.7436 17.3065C35.606 17.3017 35.5708 17.3417 35.574 17.4664C35.5903 17.7152 35.5889 17.9649 35.57 18.2136C35.5412 18.467 35.65 18.5333 35.874 18.5709C37.084 18.784 38.293 19.0083 39.5009 19.2438C39.6897 19.2806 39.7241 19.2438 39.7225 19.0648C39.7137 18.2912 39.7185 17.5175 39.7185 16.7471C39.7185 15.7736 39.7185 14.8004 39.7185 13.8275C39.7185 13.7252 39.7481 13.6181 39.5953 13.5702C39.3265 13.4855 39.0674 13.3752 38.7618 13.2585V13.2585Z" fill="white"/>
</svg>
