<svg width="56" height="62" viewBox="0 0 56 62" fill="none" xmlns="http://www.w3.org/2000/svg">
<path d="M13.3918 52.455V53.49H15.9868V52.455H13.3918ZM10.8568 48.885V51.465C10.8568 53.79 9.74676 56.22 7.88676 57.315L8.66676 58.26C10.6468 57.045 11.8318 54.3 11.8318 51.465V48.885H10.8568ZM11.0968 48.885V51.42C11.0968 54.06 12.1918 56.76 14.1418 57.96L14.8618 56.985C13.0768 55.905 12.0568 53.595 12.0568 51.42V48.885H11.0968ZM18.3718 47.61V61.17H19.5718V47.61H18.3718ZM15.6268 47.895V60.495H16.7968V47.895H15.6268ZM22.4656 54.09V55.11H23.5006C26.2606 55.11 27.8206 55.05 29.6806 54.72L29.5456 53.715C27.7306 54.03 26.2156 54.09 23.5006 54.09H22.4656ZM22.4656 48.525V54.48H23.6956V49.545H28.6606V48.525H22.4656ZM23.3056 51.27V52.275H28.4056V51.27H23.3056ZM31.1206 47.61V55.815H32.3656V47.61H31.1206ZM32.0206 51.195V52.245H34.3756V51.195H32.0206ZM23.5606 56.49V57.51H31.1206V61.17H32.3656V56.49H23.5606ZM35.6494 58.38V59.415H47.9344V58.38H35.6494ZM41.1094 55.095V58.725H42.3394V55.095H41.1094ZM41.0794 48.51V49.56C41.0794 51.795 38.5144 53.79 36.1294 54.225L36.6544 55.26C39.3844 54.69 42.1594 52.455 42.1594 49.56V48.51H41.0794ZM41.3044 48.51V49.56C41.3044 52.455 44.0794 54.69 46.8094 55.26L47.3494 54.225C44.9644 53.79 42.3844 51.81 42.3844 49.56V48.51H41.3044Z" fill="#7D7D7D"/>
<path d="M47.9971 20.0315C48.1739 30.9008 38.7978 40.1422 27.7354 39.9983C17.1417 39.8601 8 30.8793 8 19.9867C8 9.09416 17.2721 -0.132821 28.2858 0.00144722C38.813 0.132519 48.1875 9.047 47.9971 20.0315Z" fill="#06C4FF"/>
<path d="M15.1995 13.0847C15.3275 12.8689 15.5194 12.7523 15.7594 12.6643C18.348 11.6957 20.9159 10.6663 23.5637 9.86708C23.6269 9.8479 23.6885 9.82072 23.7525 9.80314C24.1724 9.68486 24.4844 9.90464 24.5028 10.3434C24.5404 11.2449 24.8508 12.0378 25.4875 12.6763C26.4835 13.677 27.6898 14.0102 29.0361 13.5874C30.396 13.1591 31.2023 12.192 31.4551 10.7798C31.478 10.6404 31.4924 10.4997 31.4983 10.3586C31.5263 9.89105 31.8335 9.67367 32.2838 9.81673C32.8534 9.99735 33.423 10.1796 33.9877 10.3762C34.1565 10.4345 34.2437 10.4153 34.3373 10.2515C34.6573 9.69684 34.9828 9.14698 35.3444 8.6187C35.6516 8.17034 36.0596 8.16314 36.3604 8.61151C37.035 9.59953 37.6332 10.6375 38.1498 11.7165C38.1785 11.7837 38.2216 11.8437 38.2761 11.8925C38.3305 11.9412 38.395 11.9775 38.465 11.9986C39.0818 12.2224 39.6929 12.4589 40.3049 12.6907C40.6992 12.8402 40.7992 12.9808 40.8 13.3948C40.8 15.5341 40.8 17.6733 40.8 19.8126C40.8 20.3225 40.5425 20.5319 40.0329 20.4383C38.6271 20.1767 37.2216 19.913 35.8164 19.6471C35.634 19.6127 35.5724 19.6335 35.5764 19.8405C35.5876 20.806 35.5828 21.7722 35.5764 22.7377C35.5747 22.87 35.6141 22.9996 35.6892 23.1085C36.4803 24.3201 37.2091 25.5661 37.7259 26.924C38.0514 27.7784 38.2506 28.6471 37.9026 29.5454C37.4403 30.7443 36.5627 31.4516 35.2892 31.5539C33.9629 31.661 32.955 31.0783 32.3166 29.9027C32.2892 29.8361 32.2408 29.7803 32.1787 29.7438C32.1166 29.7073 32.0442 29.6921 31.9727 29.7005C28.382 29.7042 24.791 29.7042 21.1998 29.7005C21.0837 29.701 20.9678 29.6911 20.8535 29.6709C20.7494 29.6569 20.6531 29.6086 20.5797 29.5336C20.5064 29.4585 20.4602 29.3612 20.4487 29.2569C20.4308 29.1422 20.4225 29.0262 20.4239 28.9101C20.4239 25.905 20.4239 22.9002 20.4239 19.8957C20.4239 19.6695 20.3951 19.6024 20.1407 19.6559C18.7192 19.9332 17.2985 20.1898 15.877 20.4615C15.557 20.5215 15.3747 20.3432 15.1995 20.129V13.0847ZM21.499 20.129C21.499 22.8842 21.499 25.6394 21.499 28.3946C21.499 28.5472 21.5038 28.6255 21.7014 28.6255C25.0612 28.6186 28.4188 28.6186 31.7743 28.6255C31.9215 28.6255 31.9743 28.5952 31.9799 28.4401C32.0015 27.8687 32.1703 27.3308 32.3798 26.8033C32.9006 25.4838 33.6109 24.2658 34.3869 23.0838C34.4629 22.9759 34.5037 22.8472 34.5037 22.7153C34.4989 20.8755 34.4989 19.036 34.5037 17.1967C34.509 17.1328 34.4945 17.0689 34.4619 17.0136C34.4294 16.9584 34.3806 16.9146 34.3221 16.8882C33.7363 16.5521 33.2795 16.0303 33.0241 15.4055C32.7688 14.7806 32.7295 14.0885 32.9126 13.4388C33.0898 12.799 33.3277 12.1776 33.6229 11.583C33.6885 11.4495 33.6861 11.388 33.5262 11.3432C33.2764 11.2804 33.0313 11.2002 32.7926 11.1035C32.5718 11.0108 32.4974 11.0483 32.4454 11.2953C31.9127 13.8096 29.1657 15.4129 26.717 14.6376C25.0156 14.0997 23.9548 12.9473 23.5341 11.2138C23.4965 11.0595 23.4581 11.0196 23.2941 11.0771C22.7773 11.2585 22.2542 11.4264 21.731 11.5846C21.5518 11.6381 21.495 11.7189 21.4958 11.9115C21.5022 14.6512 21.5033 17.3904 21.499 20.129V20.129ZM20.4199 15.281C20.4199 14.2828 20.4199 13.2829 20.4239 12.2863C20.4239 12.0945 20.3847 12.0649 20.2039 12.1345C18.9571 12.614 17.7078 13.0855 16.4562 13.5491C16.3322 13.5954 16.2738 13.649 16.2746 13.7952C16.2805 15.5668 16.2805 17.3384 16.2746 19.11C16.2746 19.2323 16.2858 19.2891 16.4386 19.2603C17.6865 19.02 18.936 18.7861 20.1871 18.5586C20.3727 18.5258 20.4271 18.4611 20.4231 18.2749C20.4151 17.2774 20.4199 16.2792 20.4199 15.281V15.281ZM35.0284 24.0676C34.5157 24.8964 34.0301 25.7156 33.6365 26.5859C33.3862 27.139 33.1566 27.696 33.0686 28.3043C32.8798 29.619 34.2101 30.7938 35.4924 30.4374C36.6267 30.1217 37.2267 29.0731 36.9179 27.9414C36.5339 26.5356 35.7756 25.3152 35.0284 24.0676ZM35.8508 9.79834C35.1092 11.0291 34.4013 12.2168 33.9925 13.5547C33.8731 13.9106 33.847 14.2911 33.9165 14.66C33.97 14.917 34.0743 15.1608 34.2232 15.377C34.3721 15.5933 34.5627 15.7777 34.7838 15.9195C35.0049 16.0613 35.2521 16.1576 35.5109 16.2027C35.7697 16.2479 36.0349 16.2411 36.2911 16.1826C36.5472 16.1242 36.7891 16.0153 37.0026 15.8623C37.2161 15.7093 37.3969 15.5153 37.5345 15.2916C37.672 15.068 37.7635 14.8192 37.8037 14.5598C37.8438 14.3004 37.8318 14.0356 37.7683 13.7809C37.4123 12.3375 36.6179 11.0995 35.8508 9.79834V9.79834ZM38.7618 13.259C38.7818 13.3748 38.7882 13.4468 38.8066 13.5163C39.3185 15.464 37.7891 17.3749 35.7436 17.307C35.606 17.3022 35.5708 17.3422 35.574 17.4668C35.5903 17.7157 35.5889 17.9654 35.57 18.2141C35.5412 18.4675 35.65 18.5338 35.874 18.5714C37.084 18.7845 38.293 19.0088 39.5009 19.2443C39.6897 19.2811 39.7241 19.2443 39.7225 19.0653C39.7137 18.2916 39.7185 17.518 39.7185 16.7475C39.7185 15.7741 39.7185 14.8009 39.7185 13.828C39.7185 13.7257 39.7481 13.6186 39.5953 13.5707C39.3265 13.4859 39.0674 13.3756 38.7618 13.259V13.259Z" fill="white"/>
</svg>
