<svg width="56" height="63" viewBox="0 0 56 63" fill="none" xmlns="http://www.w3.org/2000/svg">
<path d="M8.03676 55.382V56.402H20.3368V55.382H8.03676ZM13.5268 56.012V61.172H14.7568V56.012H13.5268ZM14.1568 48.152C11.3368 48.152 9.41676 49.307 9.41676 51.122C9.41676 52.937 11.3368 54.092 14.1568 54.092C16.9918 54.092 18.8968 52.937 18.8968 51.122C18.8968 49.307 16.9918 48.152 14.1568 48.152ZM14.1568 49.157C16.2268 49.157 17.6218 49.922 17.6218 51.122C17.6218 52.322 16.2268 53.087 14.1568 53.087C12.0868 53.087 10.6768 52.322 10.6768 51.122C10.6768 49.922 12.0868 49.157 14.1568 49.157ZM27.3706 52.967V53.987H29.9356V52.967H27.3706ZM24.6106 51.077V51.782C24.6106 54.002 23.5606 56.387 21.7306 57.452L22.4656 58.397C24.4456 57.212 25.5706 54.482 25.5706 51.782V51.077H24.6106ZM24.8356 51.077V51.782C24.8356 54.422 26.0056 56.987 28.0006 58.097L28.7056 57.167C26.8756 56.177 25.7956 53.942 25.7956 51.782V51.077H24.8356ZM22.1056 50.102V51.137H28.3006V50.102H22.1056ZM24.6106 48.092V50.897H25.8106V48.092H24.6106ZM32.1556 47.612V61.172H33.3556V47.612H32.1556ZM29.4406 47.927V60.482H30.6106V47.927H29.4406ZM37.2094 48.242V49.262H45.9394V48.242H37.2094ZM35.6494 53.102V54.122H47.9344V53.102H35.6494ZM41.1544 53.792V56.987H42.3844V53.792H41.1544ZM45.1294 48.242V49.247C45.1294 50.342 45.1294 51.632 44.6794 53.447L45.8944 53.597C46.3444 51.737 46.3444 50.372 46.3444 49.247V48.242H45.1294ZM36.9244 56.582V57.602H45.1894V61.172H46.4344V56.582H36.9244Z" fill="#7D7D7D"/>
<path d="M47.9962 19.9448C48.2122 30.9303 38.6972 40.002 28.0301 40.002C17.3541 40.003 7.97505 30.9293 8.00005 19.9008C8.02405 9.24398 17.2111 -0.00505656 28.0451 0.00195711C38.8202 0.00897079 48.2162 9.23195 47.9962 19.9448Z" fill="#F4553B"/>
<path d="M13 17.1876C13.219 16.884 13.52 16.8039 13.88 16.8209C14.309 16.842 14.74 16.8159 15.169 16.8299C15.362 16.837 15.427 16.7748 15.474 16.5845C16.146 13.9183 17.802 12.1759 20.418 11.3583C21.101 11.1449 21.814 11.0717 22.527 11.0687C25.0181 11.0597 27.5091 11.0607 30.0001 11.0717C30.2451 11.0727 30.3051 11.0106 30.3021 10.7681C30.2891 9.56478 30.2951 8.36043 30.2961 7.15708C30.2961 6.6551 30.5521 6.39459 31.0501 6.39359C32.4761 6.39159 33.9021 6.39159 35.3291 6.39359C35.8041 6.39359 36.0731 6.65711 36.0791 7.13604C36.0871 7.83039 36.0881 8.52575 36.0791 9.22111C36.0731 9.68401 35.8461 9.89642 35.3861 9.89642C34.1651 9.89642 32.9441 9.90243 31.7231 9.89141C31.5071 9.88941 31.4271 9.9375 31.4491 10.1629C31.4701 10.3764 31.4671 10.5938 31.4491 10.8082C31.4331 11.0126 31.5001 11.0717 31.7071 11.0697C32.9571 11.0597 34.2081 11.0877 35.4581 11.0597C37.4651 11.0146 39.2241 11.6328 40.7081 12.9844C42.2241 14.3661 42.9981 16.0965 42.9991 18.1575C43.0021 21.6814 43.0001 25.2043 42.9991 28.7281C42.9991 29.3464 42.8161 29.5277 42.1941 29.5277C39.1071 29.5277 36.0201 29.5307 32.9341 29.5217C32.6791 29.5217 32.6081 29.5768 32.6131 29.8393C32.6311 30.8182 32.6211 31.7971 32.6201 32.775C32.6201 33.261 32.3631 33.6197 32.0251 33.6107C31.6891 33.6016 31.4511 33.263 31.4511 32.7901C31.4511 31.7921 31.4431 30.7932 31.4571 29.7952C31.4601 29.5708 31.3961 29.5207 31.1801 29.5217C29.8221 29.5317 28.4641 29.5317 27.1071 29.5217C26.8891 29.5197 26.8301 29.5728 26.8331 29.7952C26.8461 30.8322 26.8361 31.8703 26.8411 32.9073C26.8411 33.1147 26.8051 33.3081 26.6351 33.4303C26.4841 33.5385 26.3351 33.6738 26.1061 33.5606C25.8541 33.4353 25.6991 33.269 25.6991 32.9774C25.7001 31.9304 25.6881 30.8823 25.7071 29.8363C25.7121 29.5628 25.6261 29.5217 25.3801 29.5217C22.274 29.5297 19.167 29.5277 16.061 29.5267C15.491 29.5267 15.314 29.3474 15.314 28.7702C15.314 27.1651 15.314 25.56 15.314 23.9548C15.314 23.8075 15.307 23.6643 15.254 23.523C14.522 21.5772 13.793 19.6294 13.064 17.6826C13.051 17.6465 13.048 17.6065 13 17.5974V17.1866V17.1876ZM26.0931 12.2049L26.0741 12.262C26.1761 12.3362 26.2801 12.4073 26.3801 12.4845C28.1941 13.8912 29.1431 15.7508 29.1611 18.0423C29.1881 21.3788 29.1661 24.7163 29.1531 28.0528C29.1521 28.3304 29.2341 28.3845 29.4911 28.3815C30.4481 28.3704 31.4051 28.3885 32.3621 28.3895C35.4191 28.3915 38.4761 28.3875 41.5331 28.3955C41.7761 28.3955 41.8381 28.3334 41.8381 28.0899C41.8301 24.6843 41.8321 21.2786 41.8331 17.874C41.8331 17.4902 41.7811 17.1135 41.6871 16.7438C41.0131 14.1106 38.5691 12.2169 35.8311 12.2069C34.4731 12.2019 33.1161 12.2159 31.7581 12.1979C31.4831 12.1939 31.4471 12.2841 31.4481 12.5266C31.4581 14.317 31.4541 16.1085 31.4531 17.899C31.4531 18.3529 31.1581 18.6224 30.7561 18.5443C30.4641 18.4882 30.2981 18.2417 30.2981 17.8539C30.2981 16.1707 30.2981 14.4874 30.2981 12.8041C30.2981 12.4046 30.0947 12.2049 29.6881 12.2049H26.0951H26.0931ZM22.249 16.8259C24.045 16.8259 25.8421 16.8229 27.6381 16.8299C27.8491 16.8299 27.8731 16.7758 27.8261 16.5835C27.2471 14.1988 24.9831 12.3512 22.519 12.26C19.807 12.1598 17.411 13.9163 16.668 16.5364C16.599 16.7798 16.639 16.8309 16.888 16.8299C18.675 16.8209 20.462 16.8249 22.248 16.8249L22.249 16.8259ZM20.777 26.0629C20.785 26.0239 20.792 26.0128 20.789 26.0048C19.81 23.3827 18.829 20.7606 17.852 18.1375C17.804 18.0082 17.724 17.9932 17.607 17.9932C16.621 17.9962 15.635 17.9972 14.649 17.9932C14.493 17.9932 14.413 17.9992 14.488 18.1966C15.455 20.7626 16.417 23.3306 17.375 25.8996C17.421 26.0219 17.477 26.065 17.605 26.0639C18.659 26.0599 19.713 26.0619 20.779 26.0619L20.777 26.0629ZM25.4171 26.0629C25.4001 26.0058 25.3931 25.9778 25.3841 25.9527C24.416 23.3647 23.447 20.7766 22.485 18.1856C22.423 18.0193 22.331 18.0002 22.18 18.0012C21.233 18.0072 20.285 18.0032 19.337 18.0062C19.245 18.0062 19.147 17.9792 19.062 18.0303C19.058 18.0473 19.051 18.0583 19.054 18.0664C20.032 20.6815 21.011 23.2966 21.986 25.9127C22.031 26.0339 22.095 26.068 22.221 26.067C23.276 26.0619 24.33 26.0639 25.4171 26.0639V26.0629ZM23.683 18.0042C23.678 18.0403 23.668 18.0623 23.674 18.0784C24.651 20.6925 25.6301 23.3056 26.6051 25.9207C26.6461 26.0319 26.7041 26.069 26.8191 26.066C27.1211 26.0589 27.4251 26.0509 27.7271 26.068C27.9281 26.079 27.9881 26.0219 27.9881 25.8125C27.9801 23.2986 27.9791 20.7847 27.9901 18.2708C27.9911 18.0213 27.9031 17.9892 27.6901 17.9912C26.4211 18.0022 25.1521 18.0012 23.883 18.0042C23.816 18.0042 23.749 18.0042 23.684 18.0042H23.683ZM16.46 26.8856C16.46 27.3034 16.472 27.7212 16.455 28.137C16.447 28.3464 16.512 28.3955 16.715 28.3935C17.945 28.3835 19.175 28.3905 20.406 28.3885C22.827 28.3845 25.2481 28.3765 27.6701 28.3795C27.9111 28.3795 28.0351 28.3384 27.9981 28.0608C27.9711 27.8595 27.9811 27.65 27.9961 27.4456C28.0101 27.2623 27.9461 27.2132 27.7661 27.2162C27.0631 27.2262 26.3611 27.2202 25.6581 27.2202C22.827 27.2202 19.995 27.2182 17.164 27.2242C16.874 27.2242 16.648 27.1481 16.46 26.8856V26.8856ZM33.1811 8.73917C33.4641 8.73917 33.7471 8.74718 34.0291 8.73716C34.3171 8.72714 34.7231 8.86641 34.8631 8.67905C35.0091 8.48367 34.8991 8.09992 34.9141 7.79933C34.9221 7.64704 34.8741 7.59694 34.7191 7.59794C33.6951 7.60395 32.6711 7.60395 31.6471 7.59794C31.4981 7.59794 31.4391 7.63201 31.4491 7.79132C31.4631 8.02477 31.4611 8.26023 31.4491 8.49469C31.4401 8.67604 31.4871 8.75019 31.6891 8.74418C32.1861 8.72814 32.6841 8.73917 33.1811 8.73917Z" fill="white"/>
</svg>
