<svg width="56" height="63" viewBox="0 0 56 63" fill="none" xmlns="http://www.w3.org/2000/svg">
<path d="M8.03676 55.382V56.402H20.3368V55.382H8.03676ZM13.5268 56.012V61.172H14.7568V56.012H13.5268ZM14.1568 48.152C11.3368 48.152 9.41676 49.307 9.41676 51.122C9.41676 52.937 11.3368 54.092 14.1568 54.092C16.9918 54.092 18.8968 52.937 18.8968 51.122C18.8968 49.307 16.9918 48.152 14.1568 48.152ZM14.1568 49.157C16.2268 49.157 17.6218 49.922 17.6218 51.122C17.6218 52.322 16.2268 53.087 14.1568 53.087C12.0868 53.087 10.6768 52.322 10.6768 51.122C10.6768 49.922 12.0868 49.157 14.1568 49.157ZM27.3706 52.967V53.987H29.9356V52.967H27.3706ZM24.6106 51.077V51.782C24.6106 54.002 23.5606 56.387 21.7306 57.452L22.4656 58.397C24.4456 57.212 25.5706 54.482 25.5706 51.782V51.077H24.6106ZM24.8356 51.077V51.782C24.8356 54.422 26.0056 56.987 28.0006 58.097L28.7056 57.167C26.8756 56.177 25.7956 53.942 25.7956 51.782V51.077H24.8356ZM22.1056 50.102V51.137H28.3006V50.102H22.1056ZM24.6106 48.092V50.897H25.8106V48.092H24.6106ZM32.1556 47.612V61.172H33.3556V47.612H32.1556ZM29.4406 47.927V60.482H30.6106V47.927H29.4406ZM37.2094 48.242V49.262H45.9394V48.242H37.2094ZM35.6494 53.102V54.122H47.9344V53.102H35.6494ZM41.1544 53.792V56.987H42.3844V53.792H41.1544ZM45.1294 48.242V49.247C45.1294 50.342 45.1294 51.632 44.6794 53.447L45.8944 53.597C46.3444 51.737 46.3444 50.372 46.3444 49.247V48.242H45.1294ZM36.9244 56.582V57.602H45.1894V61.172H46.4344V56.582H36.9244Z" fill="#7D7D7D"/>
<path d="M47.9962 19.9448C48.2122 30.9303 38.6972 40.002 28.0301 40.002C17.3541 40.003 7.97505 30.9293 8.00005 19.9008C8.02405 9.24398 17.2111 -0.00505656 28.0451 0.00195711C38.8202 0.00897079 48.2162 9.23195 47.9962 19.9448Z" fill="#C6C6C6"/>
<path d="M13 17.1872C13.219 16.8836 13.52 16.8034 13.88 16.8204C14.309 16.8415 14.74 16.8154 15.169 16.8295C15.362 16.8365 15.427 16.7743 15.474 16.584C16.146 13.9178 17.802 12.1754 20.418 11.3578C21.101 11.1444 21.814 11.0712 22.527 11.0682C25.0181 11.0592 27.5091 11.0602 30.0001 11.0712C30.2451 11.0722 30.3051 11.0101 30.3021 10.7676C30.2891 9.56429 30.2951 8.35994 30.2961 7.15659C30.2961 6.65461 30.5521 6.39411 31.0501 6.3931C32.4761 6.3911 33.9021 6.3911 35.3291 6.3931C35.8041 6.3931 36.0731 6.65662 36.0791 7.13555C36.0871 7.82991 36.0881 8.52526 36.0791 9.22062C36.0731 9.68352 35.8461 9.89593 35.3861 9.89593C34.1651 9.89593 32.9441 9.90195 31.7231 9.89092C31.5071 9.88892 31.4271 9.93702 31.4491 10.1625C31.4701 10.3759 31.4671 10.5933 31.4491 10.8077C31.4331 11.0121 31.5001 11.0712 31.7071 11.0692C32.9571 11.0592 34.2081 11.0873 35.4581 11.0592C37.4651 11.0141 39.2241 11.6323 40.7081 12.984C42.2241 14.3657 42.9981 16.096 42.9991 18.157C43.0021 21.6809 43.0001 25.2038 42.9991 28.7277C42.9991 29.3459 42.8161 29.5272 42.1941 29.5272C39.1071 29.5272 36.0201 29.5302 32.9341 29.5212C32.6791 29.5212 32.6081 29.5763 32.6131 29.8388C32.6311 30.8177 32.6211 31.7966 32.6201 32.7745C32.6201 33.2605 32.3631 33.6192 32.0251 33.6102C31.6891 33.6012 31.4511 33.2625 31.4511 32.7896C31.4511 31.7916 31.4431 30.7927 31.4571 29.7947C31.4601 29.5703 31.3961 29.5202 31.1801 29.5212C29.8221 29.5312 28.4641 29.5312 27.1071 29.5212C26.8891 29.5192 26.8301 29.5723 26.8331 29.7947C26.8461 30.8318 26.8361 31.8698 26.8411 32.9068C26.8411 33.1142 26.8051 33.3076 26.6351 33.4298C26.4841 33.538 26.3351 33.6733 26.1061 33.5601C25.8541 33.4348 25.6991 33.2685 25.6991 32.9769C25.7001 31.9299 25.6881 30.8819 25.7071 29.8358C25.7121 29.5623 25.6261 29.5212 25.3801 29.5212C22.274 29.5292 19.167 29.5272 16.061 29.5262C15.491 29.5262 15.314 29.3469 15.314 28.7697C15.314 27.1646 15.314 25.5595 15.314 23.9543C15.314 23.8071 15.307 23.6638 15.254 23.5225C14.522 21.5767 13.793 19.6289 13.064 17.6821C13.051 17.646 13.048 17.606 13 17.597V17.1861V17.1872ZM26.0931 12.2044L26.0741 12.2615C26.1761 12.3357 26.2801 12.4068 26.3801 12.484C28.1941 13.8907 29.1431 15.7504 29.1611 18.0418C29.1881 21.3783 29.1661 24.7158 29.1531 28.0523C29.1521 28.3299 29.2341 28.384 29.4911 28.381C30.4481 28.37 31.4051 28.388 32.3621 28.389C35.4191 28.391 38.4761 28.387 41.5331 28.395C41.7761 28.395 41.8381 28.3329 41.8381 28.0894C41.8301 24.6838 41.8321 21.2781 41.8331 17.8735C41.8331 17.4897 41.7811 17.113 41.6871 16.7433C41.0131 14.1102 38.5691 12.2165 35.8311 12.2064C34.4731 12.2014 33.1161 12.2155 31.7581 12.1974C31.4831 12.1934 31.4471 12.2836 31.4481 12.5261C31.4581 14.3166 31.4541 16.108 31.4531 17.8985C31.4531 18.3524 31.1581 18.6219 30.7561 18.5438C30.4641 18.4877 30.2981 18.2412 30.2981 17.8535C30.2981 16.1702 30.2981 14.4869 30.2981 12.8036C30.2981 12.4042 30.0947 12.2044 29.6881 12.2044H26.0951H26.0931ZM22.249 16.8254C24.045 16.8254 25.8421 16.8224 27.6381 16.8295C27.8491 16.8295 27.8731 16.7753 27.8261 16.583C27.2471 14.1983 24.9831 12.3507 22.519 12.2595C19.807 12.1593 17.411 13.9158 16.668 16.5359C16.599 16.7794 16.639 16.8305 16.888 16.8295C18.675 16.8204 20.462 16.8244 22.248 16.8244L22.249 16.8254ZM20.777 26.0625C20.785 26.0234 20.792 26.0124 20.789 26.0043C19.81 23.3822 18.829 20.7601 17.852 18.137C17.804 18.0078 17.724 17.9927 17.607 17.9927C16.621 17.9957 15.635 17.9967 14.649 17.9927C14.493 17.9927 14.413 17.9987 14.488 18.1961C15.455 20.7621 16.417 23.3301 17.375 25.8991C17.421 26.0214 17.477 26.0645 17.605 26.0635C18.659 26.0595 19.713 26.0615 20.779 26.0615L20.777 26.0625ZM25.4171 26.0625C25.4001 26.0053 25.3931 25.9773 25.3841 25.9522C24.416 23.3642 23.447 20.7762 22.485 18.1851C22.423 18.0188 22.331 17.9997 22.18 18.0007C21.233 18.0068 20.285 18.0027 19.337 18.0057C19.245 18.0057 19.147 17.9787 19.062 18.0298C19.058 18.0468 19.051 18.0578 19.054 18.0659C20.032 20.681 21.011 23.2961 21.986 25.9122C22.031 26.0334 22.095 26.0675 22.221 26.0665C23.276 26.0615 24.33 26.0635 25.4171 26.0635V26.0625ZM23.683 18.0037C23.678 18.0398 23.668 18.0619 23.674 18.0779C24.651 20.692 25.6301 23.3051 26.6051 25.9202C26.6461 26.0314 26.7041 26.0685 26.8191 26.0655C27.1211 26.0585 27.4251 26.0504 27.7271 26.0675C27.9281 26.0785 27.9881 26.0214 27.9881 25.812C27.9801 23.2981 27.9791 20.7842 27.9901 18.2703C27.9911 18.0208 27.9031 17.9887 27.6901 17.9907C26.4211 18.0017 25.1521 18.0007 23.883 18.0037C23.816 18.0037 23.749 18.0037 23.684 18.0037H23.683ZM16.46 26.8851C16.46 27.3029 16.472 27.7207 16.455 28.1365C16.447 28.3459 16.512 28.395 16.715 28.393C17.945 28.383 19.175 28.39 20.406 28.388C22.827 28.384 25.2481 28.376 27.6701 28.379C27.9111 28.379 28.0351 28.3379 27.9981 28.0604C27.9711 27.859 27.9811 27.6496 27.9961 27.4452C28.0101 27.2618 27.9461 27.2127 27.7661 27.2157C27.0631 27.2257 26.3611 27.2197 25.6581 27.2197C22.827 27.2197 19.995 27.2177 17.164 27.2237C16.874 27.2237 16.648 27.1476 16.46 26.8851V26.8851ZM33.1811 8.73868C33.4641 8.73868 33.7471 8.74669 34.0291 8.73667C34.3171 8.72665 34.7231 8.86593 34.8631 8.67856C35.0091 8.48318 34.8991 8.09943 34.9141 7.79885C34.9221 7.64655 34.8741 7.59645 34.7191 7.59745C33.6951 7.60346 32.6711 7.60346 31.6471 7.59745C31.4981 7.59745 31.4391 7.63152 31.4491 7.79083C31.4631 8.02428 31.4611 8.25974 31.4491 8.4942C31.4401 8.67556 31.4871 8.7497 31.6891 8.74369C32.1861 8.72766 32.6841 8.73868 33.1811 8.73868Z" fill="white"/>
</svg>
