<svg width="56" height="62" viewBox="0 0 56 62" fill="none" xmlns="http://www.w3.org/2000/svg">
<path d="M8.05176 58.41V59.445H20.3368V58.41H8.05176ZM13.5418 55.17V58.71H14.7868V55.17H13.5418ZM9.49176 48.57V55.5H18.8668V48.57H17.6368V50.985H10.7218V48.57H9.49176ZM10.7218 51.99H17.6368V54.48H10.7218V51.99ZM31.7506 47.61V57.63H32.9956V47.61H31.7506ZM28.8256 51.795V52.83H31.9906V51.795H28.8256ZM27.5656 48.66V49.155C27.5656 51.84 25.3606 53.97 22.0456 55.08L22.5856 56.085C26.4106 54.81 28.8706 52.155 28.8706 48.66H27.5656ZM22.7206 48.66V49.68H28.3756V48.66H22.7206ZM24.4306 59.85V60.87H33.3406V59.85H24.4306ZM24.4306 56.625V60.36H25.6756V56.625H24.4306ZM35.6494 58.38V59.415H47.9344V58.38H35.6494ZM41.1094 55.095V58.725H42.3394V55.095H41.1094ZM41.0794 48.51V49.56C41.0794 51.795 38.5144 53.79 36.1294 54.225L36.6544 55.26C39.3844 54.69 42.1594 52.455 42.1594 49.56V48.51H41.0794ZM41.3044 48.51V49.56C41.3044 52.455 44.0794 54.69 46.8094 55.26L47.3494 54.225C44.9644 53.79 42.3844 51.81 42.3844 49.56V48.51H41.3044Z" fill="#7D7D7D"/>
<path d="M47.9962 19.9449C48.2122 30.9304 38.6972 40.0021 28.0301 40.0021C17.3541 40.0031 7.97505 30.9294 8.00005 19.9008C8.02405 9.24402 17.2111 -0.00505659 28.0451 0.00195711C38.8202 0.00897082 48.2162 9.23199 47.9962 19.9449Z" fill="#C6C6C6"/>
<path d="M41.479 15.7387C41.2739 16.0493 40.9819 16.1155 40.6229 16.1155C32.1789 16.1075 23.7349 16.1095 15.2918 16.1095C15.1868 16.1095 15.0798 16.1155 14.9758 16.0994C14.7498 16.0634 14.5908 15.9351 14.5138 15.7167C14.4358 15.4953 14.4908 15.2989 14.6498 15.1346C14.7168 15.0654 14.7958 15.0083 14.8748 14.9532C19.1129 11.9744 23.3519 8.99656 27.5919 6.01874C27.9819 5.7442 28.1489 5.74621 28.5419 6.02575C32.7199 8.99957 36.8969 11.9754 41.0769 14.9462C41.2419 15.0634 41.3689 15.2057 41.4799 15.369V15.7387H41.479ZM39.0729 14.9402C39.0009 14.8871 38.9699 14.863 38.9379 14.841C35.3679 12.3 31.7969 9.76005 28.2309 7.21308C28.0829 7.10787 27.9979 7.13793 27.8699 7.2281C24.2789 9.75504 20.6859 12.278 17.0948 14.8039C17.0468 14.837 16.9608 14.851 16.9688 14.9412H39.0729V14.9402Z" fill="white"/>
<path d="M27.973 32.5365C24.194 32.5365 20.4139 32.5365 16.6349 32.5365C16.0219 32.5365 15.8329 32.3471 15.8329 31.7349C15.8329 30.8983 15.8309 30.0617 15.8329 29.225C15.8349 28.709 16.0349 28.5076 16.5509 28.5056C17.2629 28.5026 17.9749 28.4956 18.6869 28.5106C18.9019 28.5146 18.9629 28.4666 18.9629 28.2411C18.9549 24.8415 18.9569 21.4428 18.9579 18.0432C18.9579 17.929 18.9569 17.8127 18.9809 17.7025C19.0389 17.436 19.2659 17.2627 19.5329 17.2647C19.8059 17.2667 20.0149 17.433 20.0739 17.7085C20.0979 17.8187 20.1069 17.935 20.1069 18.0482C20.1089 21.6502 20.1079 25.2513 20.1079 28.8533C20.1079 29.4595 19.9149 29.6499 19.3029 29.6509C18.5999 29.6509 17.8969 29.6569 17.1939 29.6469C17.0159 29.6439 16.9689 29.7 16.9729 29.8723C16.9839 30.3122 16.9829 30.753 16.9729 31.1929C16.9699 31.3412 17.0099 31.4033 17.1609 31.3823C17.2209 31.3742 17.2839 31.3812 17.3449 31.3812C24.455 31.3812 31.566 31.3792 38.676 31.3883C38.934 31.3883 39.001 31.3241 38.986 31.0716C38.963 30.6679 38.973 30.2621 38.983 29.8573C38.987 29.695 38.937 29.6479 38.775 29.6489C38.054 29.6569 37.334 29.6529 36.613 29.6519C36.051 29.6519 35.846 29.4515 35.846 28.8964C35.846 25.2683 35.846 21.6402 35.846 18.0121C35.846 17.5502 36.033 17.2927 36.38 17.2697C36.681 17.2486 36.928 17.438 36.982 17.7416C37 17.8448 36.997 17.952 36.997 18.0572C36.997 21.4478 37 24.8385 36.991 28.2281C36.991 28.4646 37.051 28.5177 37.279 28.5126C37.982 28.4966 38.685 28.5046 39.388 28.5076C39.924 28.5096 40.12 28.705 40.121 29.2381C40.123 30.0837 40.122 30.9284 40.121 31.774C40.121 32.3331 39.916 32.5375 39.361 32.5375C35.564 32.5375 31.767 32.5375 27.97 32.5375L27.973 32.5365Z" fill="white"/>
<path d="M23.4532 24.0308C23.4532 25.641 23.4532 27.2521 23.4532 28.8623C23.4532 28.9765 23.4552 29.0927 23.4342 29.2039C23.3852 29.4614 23.1482 29.6448 22.8842 29.6458C22.6172 29.6458 22.3862 29.4675 22.3372 29.207C22.3142 29.0867 22.3072 28.9625 22.3072 28.8402C22.3052 25.637 22.3052 22.4337 22.3072 19.2305C22.3072 19.1082 22.3132 18.984 22.3362 18.8637C22.3862 18.6002 22.6122 18.4229 22.8802 18.4219C23.1572 18.4219 23.3922 18.6112 23.4372 18.8838C23.4542 18.987 23.4522 19.0942 23.4522 19.1994C23.4522 20.8095 23.4522 22.4207 23.4522 24.0308H23.4532Z" fill="white"/>
<path d="M32.5049 24.0389C32.5049 22.3937 32.5039 20.7475 32.5049 19.1023C32.5049 18.6764 32.7189 18.4239 33.0689 18.4209C33.3469 18.4179 33.5729 18.6023 33.6239 18.8818C33.6429 18.985 33.6499 19.0912 33.6499 19.1965C33.6509 22.4177 33.6509 25.638 33.6499 28.8593C33.6499 29.3783 33.4579 29.6419 33.0799 29.6469C32.7009 29.6509 32.5029 29.3864 32.5029 28.8724C32.5029 27.2622 32.5029 25.6511 32.5029 24.0409L32.5049 24.0389Z" fill="white"/>
<path d="M29.0822 24.0382C29.0822 22.393 29.0812 20.7468 29.0822 19.1016C29.0822 18.6437 29.3352 18.3842 29.7282 18.4313C29.9712 18.4603 30.1292 18.5996 30.1932 18.832C30.2212 18.9322 30.2312 19.0394 30.2312 19.1447C30.2332 22.401 30.2332 25.6574 30.2332 28.9127C30.2332 29.1282 30.2112 29.3376 30.0422 29.4939C29.8812 29.6432 29.6842 29.6842 29.4782 29.6181C29.2722 29.552 29.1372 29.4017 29.0982 29.1853C29.0802 29.0821 29.0822 28.9749 29.0822 28.8697C29.0822 27.2595 29.0822 25.6484 29.0822 24.0382V24.0382Z" fill="white"/>
<path d="M26.8752 24.0633C26.8752 25.6734 26.8752 27.2836 26.8752 28.8947C26.8752 29.018 26.8802 29.1412 26.8382 29.2604C26.7512 29.5079 26.5342 29.6572 26.2712 29.6442C26.0232 29.6322 25.8192 29.4709 25.7612 29.2264C25.7352 29.1162 25.7232 29.0009 25.7232 28.8877C25.7212 25.6494 25.7212 22.4111 25.7232 19.1727C25.7232 19.0685 25.7352 18.9623 25.7582 18.8601C25.8182 18.5966 26.0172 18.4333 26.2782 18.4243C26.5492 18.4143 26.7782 18.5746 26.8432 18.8401C26.8722 18.9573 26.8722 19.0836 26.8722 19.2058C26.8742 20.825 26.8732 22.4441 26.8732 24.0633H26.8752Z" fill="white"/>
<path d="M27.9661 9.37784C28.2031 9.37784 28.4411 9.38686 28.6781 9.37483C28.8391 9.36682 28.8951 9.41692 28.8891 9.58324C28.8771 9.92391 28.8941 10.2656 28.8821 10.6072C28.8771 10.7676 28.9221 10.8217 29.0871 10.8156C29.4271 10.8026 29.7681 10.8197 30.1091 10.8086C30.2741 10.8026 30.3201 10.8587 30.3161 11.019C30.3071 11.505 30.3071 11.9909 30.3161 12.4769C30.3191 12.6262 30.2751 12.6723 30.1261 12.6673C29.7861 12.6572 29.4441 12.6743 29.1041 12.6603C28.9241 12.6532 28.8751 12.7144 28.8821 12.8877C28.8951 13.2183 28.8751 13.55 28.8901 13.8806C28.8981 14.063 28.8351 14.1051 28.6631 14.1011C28.1991 14.09 27.7341 14.089 27.2701 14.1011C27.0861 14.1061 27.0151 14.065 27.0261 13.8656C27.0441 13.546 27.0201 13.2244 27.0351 12.9047C27.0431 12.7184 26.9951 12.6502 26.7971 12.6603C26.4571 12.6773 26.1161 12.6603 25.7751 12.6673C25.6401 12.6703 25.5981 12.6282 25.6001 12.4929C25.6071 11.997 25.6111 11.5 25.5991 11.004C25.5941 10.8207 25.6781 10.8066 25.8221 10.8096C26.1631 10.8167 26.5041 10.8046 26.8441 10.8156C26.9961 10.8207 27.0381 10.7716 27.0341 10.6233C27.0241 10.2716 27.0371 9.9199 27.0281 9.56821C27.0241 9.41692 27.0761 9.36982 27.2231 9.37584C27.4701 9.38586 27.7181 9.37884 27.9661 9.37884V9.37784Z" fill="white"/>
</svg>
