<svg width="56" height="62" viewBox="0 0 56 62" fill="none" xmlns="http://www.w3.org/2000/svg">
<path d="M8.05176 58.41V59.445H20.3368V58.41H8.05176ZM13.5418 55.17V58.71H14.7868V55.17H13.5418ZM9.49176 48.57V55.5H18.8668V48.57H17.6368V50.985H10.7218V48.57H9.49176ZM10.7218 51.99H17.6368V54.48H10.7218V51.99ZM31.7506 47.61V57.63H32.9956V47.61H31.7506ZM28.8256 51.795V52.83H31.9906V51.795H28.8256ZM27.5656 48.66V49.155C27.5656 51.84 25.3606 53.97 22.0456 55.08L22.5856 56.085C26.4106 54.81 28.8706 52.155 28.8706 48.66H27.5656ZM22.7206 48.66V49.68H28.3756V48.66H22.7206ZM24.4306 59.85V60.87H33.3406V59.85H24.4306ZM24.4306 56.625V60.36H25.6756V56.625H24.4306ZM35.6494 58.38V59.415H47.9344V58.38H35.6494ZM41.1094 55.095V58.725H42.3394V55.095H41.1094ZM41.0794 48.51V49.56C41.0794 51.795 38.5144 53.79 36.1294 54.225L36.6544 55.26C39.3844 54.69 42.1594 52.455 42.1594 49.56V48.51H41.0794ZM41.3044 48.51V49.56C41.3044 52.455 44.0794 54.69 46.8094 55.26L47.3494 54.225C44.9644 53.79 42.3844 51.81 42.3844 49.56V48.51H41.3044Z" fill="#7D7D7D"/>
<path d="M47.9962 19.9449C48.2122 30.9304 38.6972 40.0021 28.0301 40.0021C17.3541 40.0031 7.97505 30.9294 8.00005 19.9008C8.02405 9.24402 17.2111 -0.00505659 28.0451 0.00195711C38.8202 0.00897082 48.2162 9.23199 47.9962 19.9449Z" fill="#FF6B8F"/>
<path d="M41.479 15.7387C41.2739 16.0493 40.9819 16.1155 40.6229 16.1155C32.1789 16.1075 23.7349 16.1095 15.2918 16.1095C15.1868 16.1095 15.0798 16.1155 14.9758 16.0994C14.7498 16.0634 14.5908 15.9351 14.5138 15.7167C14.4358 15.4953 14.4908 15.2989 14.6498 15.1346C14.7168 15.0654 14.7958 15.0083 14.8748 14.9532C19.1129 11.9744 23.3519 8.99656 27.5919 6.01874C27.9819 5.7442 28.1489 5.74621 28.5419 6.02575C32.7199 8.99957 36.8969 11.9754 41.0769 14.9462C41.2419 15.0634 41.3689 15.2057 41.4799 15.369V15.7387H41.479ZM39.0729 14.9402C39.0009 14.8871 38.9699 14.863 38.9379 14.841C35.3679 12.3 31.7969 9.76005 28.2309 7.21308C28.0829 7.10787 27.9979 7.13793 27.8699 7.2281C24.2789 9.75504 20.6859 12.278 17.0948 14.8039C17.0468 14.837 16.9608 14.851 16.9688 14.9412H39.0729V14.9402Z" fill="white"/>
<path d="M27.973 32.536C24.194 32.536 20.4139 32.536 16.6349 32.536C16.0219 32.536 15.8329 32.3466 15.8329 31.7345C15.8329 30.8978 15.8309 30.0612 15.8329 29.2245C15.8349 28.7085 16.0349 28.5071 16.5509 28.5051C17.2629 28.5021 17.9749 28.4951 18.6869 28.5102C18.9019 28.5142 18.9629 28.4661 18.9629 28.2406C18.9549 24.841 18.9569 21.4423 18.9579 18.0427C18.9579 17.9285 18.9569 17.8122 18.9809 17.702C19.0389 17.4355 19.2659 17.2622 19.5329 17.2642C19.8059 17.2662 20.0149 17.4325 20.0739 17.708C20.0979 17.8183 20.1069 17.9345 20.1069 18.0477C20.1089 21.6497 20.1079 25.2508 20.1079 28.8528C20.1079 29.459 19.9149 29.6494 19.3029 29.6504C18.5999 29.6504 17.8969 29.6564 17.1939 29.6464C17.0159 29.6434 16.9689 29.6995 16.9729 29.8718C16.9839 30.3117 16.9829 30.7525 16.9729 31.1924C16.9699 31.3407 17.0099 31.4028 17.1609 31.3818C17.2209 31.3737 17.2839 31.3808 17.3449 31.3808C24.455 31.3808 31.566 31.3788 38.676 31.3878C38.934 31.3878 39.001 31.3237 38.986 31.0712C38.963 30.6674 38.973 30.2616 38.983 29.8568C38.987 29.6945 38.937 29.6474 38.775 29.6484C38.054 29.6564 37.334 29.6524 36.613 29.6514C36.051 29.6514 35.846 29.451 35.846 28.8959C35.846 25.2678 35.846 21.6397 35.846 18.0116C35.846 17.5497 36.033 17.2922 36.38 17.2692C36.681 17.2481 36.928 17.4375 36.982 17.7411C37 17.8443 36.997 17.9515 36.997 18.0567C36.997 21.4474 37 24.838 36.991 28.2276C36.991 28.4641 37.051 28.5172 37.279 28.5122C37.982 28.4961 38.685 28.5041 39.388 28.5071C39.924 28.5092 40.12 28.7045 40.121 29.2376C40.123 30.0832 40.122 30.9279 40.121 31.7735C40.121 32.3326 39.916 32.537 39.361 32.537C35.564 32.537 31.767 32.537 27.97 32.537L27.973 32.536Z" fill="white"/>
<path d="M23.4532 24.0308C23.4532 25.641 23.4532 27.2521 23.4532 28.8623C23.4532 28.9765 23.4552 29.0927 23.4342 29.2039C23.3852 29.4614 23.1482 29.6448 22.8842 29.6458C22.6172 29.6458 22.3862 29.4675 22.3372 29.207C22.3142 29.0867 22.3072 28.9625 22.3072 28.8402C22.3052 25.637 22.3052 22.4337 22.3072 19.2305C22.3072 19.1082 22.3132 18.984 22.3362 18.8637C22.3862 18.6002 22.6122 18.4229 22.8802 18.4219C23.1572 18.4219 23.3922 18.6112 23.4372 18.8838C23.4542 18.987 23.4522 19.0942 23.4522 19.1994C23.4522 20.8095 23.4522 22.4207 23.4522 24.0308H23.4532Z" fill="white"/>
<path d="M32.5049 24.0384C32.5049 22.3932 32.5039 20.747 32.5049 19.1018C32.5049 18.6759 32.7189 18.4235 33.0689 18.4204C33.3469 18.4174 33.5729 18.6018 33.6239 18.8813C33.6429 18.9845 33.6499 19.0908 33.6499 19.196C33.6509 22.4173 33.6509 25.6375 33.6499 28.8588C33.6499 29.3779 33.4579 29.6414 33.0799 29.6464C32.7009 29.6504 32.5029 29.3859 32.5029 28.8719C32.5029 27.2617 32.5029 25.6506 32.5029 24.0404L32.5049 24.0384Z" fill="white"/>
<path d="M29.0822 24.0382C29.0822 22.393 29.0812 20.7468 29.0822 19.1016C29.0822 18.6437 29.3352 18.3842 29.7282 18.4313C29.9712 18.4603 30.1292 18.5996 30.1932 18.832C30.2212 18.9322 30.2312 19.0394 30.2312 19.1447C30.2332 22.401 30.2332 25.6574 30.2332 28.9127C30.2332 29.1282 30.2112 29.3376 30.0422 29.4939C29.8812 29.6432 29.6842 29.6842 29.4782 29.6181C29.2722 29.552 29.1372 29.4017 29.0982 29.1853C29.0802 29.0821 29.0822 28.9749 29.0822 28.8697C29.0822 27.2595 29.0822 25.6484 29.0822 24.0382V24.0382Z" fill="white"/>
<path d="M26.8752 24.0633C26.8752 25.6734 26.8752 27.2836 26.8752 28.8947C26.8752 29.018 26.8802 29.1412 26.8382 29.2604C26.7512 29.5079 26.5342 29.6572 26.2712 29.6442C26.0232 29.6322 25.8192 29.4709 25.7612 29.2264C25.7352 29.1162 25.7232 29.0009 25.7232 28.8877C25.7212 25.6494 25.7212 22.4111 25.7232 19.1727C25.7232 19.0685 25.7352 18.9623 25.7582 18.8601C25.8182 18.5966 26.0172 18.4333 26.2782 18.4243C26.5492 18.4143 26.7782 18.5746 26.8432 18.8401C26.8722 18.9573 26.8722 19.0836 26.8722 19.2058C26.8742 20.825 26.8732 22.4441 26.8732 24.0633H26.8752Z" fill="white"/>
<path d="M27.9661 9.37833C28.2031 9.37833 28.4411 9.38735 28.6781 9.37532C28.8391 9.36731 28.8951 9.4174 28.8891 9.58373C28.8771 9.9244 28.8941 10.2661 28.8821 10.6077C28.8771 10.768 28.9221 10.8221 29.0871 10.8161C29.4271 10.8031 29.7681 10.8201 30.1091 10.8091C30.2741 10.8031 30.3201 10.8592 30.3161 11.0195C30.3071 11.5055 30.3071 11.9914 30.3161 12.4774C30.3191 12.6267 30.2751 12.6728 30.1261 12.6678C29.7861 12.6577 29.4441 12.6748 29.1041 12.6607C28.9241 12.6537 28.8751 12.7148 28.8821 12.8882C28.8951 13.2188 28.8751 13.5505 28.8901 13.8811C28.8981 14.0635 28.8351 14.1056 28.6631 14.1016C28.1991 14.0905 27.7341 14.0895 27.2701 14.1016C27.0861 14.1066 27.0151 14.0655 27.0261 13.8661C27.0441 13.5465 27.0201 13.2248 27.0351 12.9052C27.0431 12.7189 26.9951 12.6507 26.7971 12.6607C26.4571 12.6778 26.1161 12.6607 25.7751 12.6678C25.6401 12.6708 25.5981 12.6287 25.6001 12.4934C25.6071 11.9974 25.6111 11.5005 25.5991 11.0045C25.5941 10.8211 25.6781 10.8071 25.8221 10.8101C26.1631 10.8171 26.5041 10.8051 26.8441 10.8161C26.9961 10.8211 27.0381 10.7721 27.0341 10.6238C27.0241 10.2721 27.0371 9.92039 27.0281 9.5687C27.0241 9.41741 27.0761 9.37031 27.2231 9.37632C27.4701 9.38634 27.7181 9.37933 27.9661 9.37933V9.37833Z" fill="white"/>
</svg>
