<svg width="56" height="62" viewBox="0 0 56 62" fill="none" xmlns="http://www.w3.org/2000/svg">
<path d="M4.73734 49.545V51.75C4.73734 54.09 3.10234 56.64 1.13734 57.57L1.85734 58.56C4.01734 57.495 5.74234 54.615 5.74234 51.75V49.545H4.73734ZM4.97734 49.545V51.75C4.97734 54.57 6.71734 57.21 8.90734 58.23L9.61234 57.24C7.61734 56.385 5.98234 54.045 5.98234 51.75V49.545H4.97734ZM1.58734 48.99V50.04H9.16234V48.99H1.58734ZM10.9923 47.61V61.17H12.2373V47.61H10.9923ZM24.1312 47.61V61.17H25.3762V47.61H24.1312ZM25.0762 53.175V54.225H27.5962V53.175H25.0762ZM14.8762 49.77V50.79H22.8712V49.77H14.8762ZM18.9262 51.915C17.0212 51.915 15.6262 53.205 15.6262 55.035C15.6262 56.865 17.0212 58.155 18.9262 58.155C20.8462 58.155 22.2262 56.865 22.2262 55.035C22.2262 53.205 20.8462 51.915 18.9262 51.915ZM18.9262 52.95C20.1562 52.95 21.0412 53.805 21.0412 55.035C21.0412 56.25 20.1562 57.12 18.9262 57.12C17.6962 57.12 16.8112 56.25 16.8112 55.035C16.8112 53.805 17.6962 52.95 18.9262 52.95ZM18.2812 47.775V50.235H19.5262V47.775H18.2812ZM32.125 49.695V50.265C32.125 51.87 30.715 53.235 28.705 53.76L29.26 54.735C31.555 54.105 33.145 52.41 33.145 50.265V49.695H32.125ZM32.35 49.695V50.265C32.35 52.305 33.985 53.895 36.295 54.465L36.82 53.505C34.825 53.04 33.37 51.765 33.37 50.265V49.695H32.35ZM29.125 48.945V49.965H36.355V48.945H29.125ZM32.125 47.55V49.515H33.37V47.55H32.125ZM35.965 50.97V51.99H39.445V50.97H35.965ZM38.65 47.61V54.705H39.895V47.61H38.65ZM31.165 55.365V56.355H38.665V57.66H31.195V60.6H32.41V58.59H39.895V55.365H31.165ZM31.195 60.045V61.02H40.39V60.045H31.195ZM48.7138 49.605V50.625H52.8538V49.605H48.7138ZM48.7138 52.635V53.67H52.8538V52.635H48.7138ZM44.6488 56.355V57.36H52.4488V61.17H53.6938V56.355H44.6488ZM52.4488 47.61V55.605H53.6938V47.61H52.4488ZM46.2388 48.36C44.2288 48.36 42.7438 49.71 42.7438 51.63C42.7438 53.55 44.2288 54.885 46.2388 54.885C48.2338 54.885 49.7338 53.55 49.7338 51.63C49.7338 49.71 48.2338 48.36 46.2388 48.36ZM46.2388 49.425C47.5588 49.425 48.5488 50.34 48.5488 51.63C48.5488 52.92 47.5588 53.82 46.2388 53.82C44.9188 53.82 43.9438 52.92 43.9438 51.63C43.9438 50.34 44.9188 49.425 46.2388 49.425Z" fill="#7D7D7D"/>
<path d="M47.9971 20.0315C48.1739 30.9008 38.7978 40.1422 27.7354 39.9983C17.1417 39.8601 8 30.8793 8 19.9867C8 9.09416 17.2721 -0.132821 28.2858 0.00144722C38.813 0.132519 48.1875 9.047 47.9971 20.0315Z" fill="#C6C6C6"/>
<path d="M18.9323 31.3418L21.217 29.0593C21.0149 28.9642 20.8179 28.8589 20.6266 28.7436C19.2699 27.8911 18.4276 26.6805 18.0996 25.1119C18.0332 24.7796 18.001 24.4414 18.0036 24.1025C18.0036 20.4437 17.9916 16.7849 18.01 13.1261C18.0172 11.7011 18.6276 10.5382 19.7323 9.64067C20.3304 9.15479 21.0461 8.83502 21.8073 8.71357C22.0452 8.67317 22.286 8.65285 22.5273 8.65283C26.1742 8.65283 29.822 8.63685 33.4689 8.66003C35.1888 8.67121 36.4951 9.47363 37.3846 10.9378C37.7985 11.6288 38.011 12.4216 37.9982 13.2268C37.9982 16.8334 37.9982 20.4408 37.9982 24.049C38.0028 25.0921 37.709 26.1148 37.1513 26.9967C36.5936 27.8785 35.7953 28.5828 34.8504 29.0265L34.796 29.0529L37.0782 31.3315L37.0686 31.3522H36.9886C36.3375 31.3522 35.6861 31.3522 35.0344 31.3522C35.0094 31.3534 34.9845 31.3491 34.9614 31.3396C34.9383 31.3301 34.9176 31.3155 34.9008 31.2971C34.327 30.7217 33.7521 30.147 33.1761 29.5732C33.159 29.5528 33.1371 29.5371 33.1124 29.5273C33.0877 29.5175 33.0609 29.5141 33.0345 29.5172C32.8025 29.5396 32.569 29.5396 32.3354 29.5396H23.3928C23.2512 29.5396 23.108 29.5316 22.9664 29.518C22.9401 29.5151 22.9135 29.5188 22.8889 29.5287C22.8643 29.5386 22.8426 29.5544 22.8257 29.5748C22.2502 30.1507 21.6743 30.7265 21.0978 31.3019C21.0854 31.3186 21.0695 31.3324 21.051 31.3421C21.0326 31.3518 21.0122 31.3572 20.9914 31.3578C20.3162 31.3578 19.6403 31.3578 18.9651 31.3578C18.9539 31.353 18.9403 31.3594 18.9323 31.3418ZM27.9989 21.3652C25.3031 21.3652 22.6073 21.3652 19.9115 21.3652C19.8379 21.3652 19.8171 21.3796 19.8171 21.4571C19.8171 22.3283 19.8171 23.2002 19.8171 24.0714C19.806 24.7211 19.9766 25.361 20.3098 25.9192C21.0162 27.0812 22.0593 27.707 23.4168 27.7166C26.4702 27.7374 29.5236 27.723 32.5762 27.7222C32.6972 27.7223 32.8182 27.7157 32.9385 27.7022C33.5792 27.6373 34.1899 27.3988 34.7048 27.0125C35.6503 26.2932 36.1447 25.3341 36.1719 24.1521C36.1919 23.257 36.1719 22.361 36.1783 21.4651C36.1783 21.3788 36.1527 21.3652 36.0743 21.3652C33.3844 21.3668 30.6926 21.3668 27.9989 21.3652ZM23.4552 14.1011C22.274 14.1011 21.0924 14.1011 19.9107 14.1011C19.8355 14.1011 19.8171 14.1179 19.8179 14.1938C19.8179 15.9489 19.8179 17.7042 19.8179 19.4599C19.8179 19.535 19.8347 19.5526 19.9107 19.5526C22.2726 19.5526 24.6354 19.5526 26.999 19.5526C27.0742 19.5526 27.0918 19.5358 27.0918 19.4599C27.0918 17.7048 27.0918 15.9494 27.0918 14.1938C27.0918 14.1187 27.075 14.1011 26.999 14.1011C25.8188 14.1027 24.6381 14.1027 23.4568 14.1011H23.4552ZM32.5522 14.1011C31.3677 14.1011 30.1833 14.1011 28.9988 14.1011C28.9236 14.1011 28.906 14.1187 28.906 14.1938C28.906 15.9489 28.906 17.7042 28.906 19.4599C28.906 19.5358 28.9236 19.5526 28.9988 19.5526C31.3618 19.5526 33.7246 19.5526 36.0871 19.5526C36.1631 19.5526 36.1807 19.5358 36.1807 19.4599C36.1807 17.7048 36.1807 15.9494 36.1807 14.1938C36.1807 14.1187 36.1631 14.1011 36.0871 14.1011C34.908 14.1027 33.7302 14.1027 32.5538 14.1011H32.5522ZM36.0303 12.2829C36.0303 12.2685 36.0303 12.2629 36.0263 12.2573C35.6695 11.2183 34.612 10.4695 33.4969 10.4695C29.8444 10.4695 26.1913 10.4695 22.5377 10.4695C21.6649 10.4695 20.9458 10.8219 20.3922 11.4989C20.2031 11.7316 20.0578 11.9967 19.9635 12.2813L36.0303 12.2829Z" fill="white"/>
<path d="M24.3653 24.547C24.3634 24.8155 24.2819 25.0775 24.1311 25.2998C23.9803 25.522 23.767 25.6947 23.5181 25.7959C23.2691 25.8971 22.9958 25.9224 22.7325 25.8685C22.4692 25.8146 22.2278 25.684 22.0387 25.4931C21.8497 25.3022 21.7215 25.0597 21.6704 24.7961C21.6192 24.5324 21.6474 24.2596 21.7513 24.012C21.8553 23.7643 22.0303 23.553 22.2544 23.4047C22.4784 23.2564 22.7414 23.1778 23.0102 23.1787C23.3712 23.1817 23.7163 23.3272 23.9702 23.5836C24.2241 23.84 24.3661 24.1864 24.3653 24.547Z" fill="white"/>
<path d="M34.3621 24.5454C34.3605 24.814 34.2793 25.076 34.1288 25.2985C33.9782 25.521 33.765 25.6939 33.5162 25.7954C33.2673 25.8969 32.9939 25.9224 32.7306 25.8688C32.4672 25.8151 32.2256 25.6847 32.0364 25.494C31.8472 25.3032 31.7188 25.0607 31.6674 24.7971C31.616 24.5335 31.644 24.2606 31.7478 24.0129C31.8515 23.7651 32.0265 23.5537 32.2504 23.4052C32.4744 23.2567 32.7374 23.1779 33.0062 23.1787C33.3671 23.1813 33.7123 23.3264 33.9664 23.5825C34.2205 23.8386 34.3628 24.1848 34.3621 24.5454Z" fill="white"/>
</svg>
