<svg width="448" height="306" viewBox="0 0 448 306" fill="none" xmlns="http://www.w3.org/2000/svg">
<path d="M0 24.22C0.21 24.18 0.42 24.17 0.63 24.18C0.67 25.3 0.74 26.42 0.74 27.54C0.74 110.87 0.74 194.2 0.74 277.54C0.74 278.66 0.67 279.78 0.63 280.9C0.42 280.91 0.21 280.9 0 280.86V24.22Z" fill="#FF9421"/>
<path d="M407.66 233.46C407.66 251.17 407.66 268.87 407.66 286.58C407.66 289.93 407.09 293.2 406.1 296.34C404.15 302.48 399.8 305.54 393.49 305.54C372.76 305.54 352.03 305.47 331.29 305.61C328.22 305.63 327.33 304.91 327.35 301.75C327.48 273.94 327.37 246.13 327.5 218.33C327.51 215.16 326.92 214.09 323.47 214.16C310.99 214.4 298.49 214.35 286.01 214.19C283.16 214.15 282.5 214.97 282.51 217.74C282.61 245.42 282.51 273.11 282.66 300.79C282.68 304.56 281.65 305.67 277.84 305.63C257.48 305.45 237.13 305.54 216.77 305.54C209.49 305.54 204.1 300.57 203.04 293.42C202.35 288.72 202.35 284.05 202.35 279.35C202.35 246.3 202.37 213.26 202.31 180.21C202.31 176.67 203.4 174 205.86 171.32C216.52 159.75 226.91 147.93 237.43 136.22C242.24 130.87 247.08 125.55 251.92 120.23C262.93 108.13 274.06 96.1499 284.77 83.7699C290.61 77.0199 296.93 70.6699 302.88 64.0099C304.64 62.0399 305.61 62.3499 307.22 64.1099C315.85 73.5099 324.45 82.9399 332.79 92.6099C337.57 98.1499 342.62 103.45 347.52 108.88C358.64 121.21 369.72 133.58 380.87 145.88C386.87 152.51 393 159.02 399.05 165.6C401.4 168.15 403.77 170.69 406.01 173.33C407.51 175.1 407.7 177.31 407.7 179.57C407.67 197.53 407.68 215.48 407.68 233.44L407.66 233.46Z" fill="#FF9421"/>
<path d="M0.629883 280.89C0.669883 279.77 0.739883 278.65 0.739883 277.53C0.739883 194.2 0.739883 110.87 0.739883 27.53C0.739883 26.41 0.669883 25.29 0.629883 24.17C1.54988 11.32 9.36988 4.02002 22.2899 4.02002C65.4899 4.02002 108.69 4.02002 151.89 4.02002C163.08 4.02002 166.73 6.99002 168.88 18.02C169.8 22.72 169.67 27.45 168.49 32.09C166.85 38.51 161.78 42.04 154.07 42.06C137.96 42.11 121.86 42.08 105.75 42.08C86.6499 42.08 67.5399 42.14 48.4399 42.02C45.6599 42 44.8999 42.69 44.8999 45.52C44.9799 117.08 44.9899 188.63 44.8799 260.19C44.8799 263.42 46.0999 263.71 48.7499 263.7C86.2099 263.63 123.66 263.65 161.12 263.65C168.51 263.65 172.7 266.81 174.63 273.98C176.1 279.47 176.24 285.07 175.1 290.61C173.57 298.05 168.7 301.68 160.49 301.7C144.51 301.74 128.53 301.71 112.55 301.71C83.4599 301.71 54.3699 301.7 25.2799 301.73C22.0199 301.73 18.7799 301.42 15.6499 300.68C6.58988 298.52 1.40988 291.57 0.629883 280.9V280.89Z" fill="#FF9421"/>
<path d="M361.2 54.19C361.2 41.76 361.2 29.97 361.2 18.17C361.2 14.68 361.13 11.19 361.22 7.70001C361.32 3.85001 364.24 1.04001 368.05 1.03001C377.91 1.01001 387.78 1.03001 397.64 1.03001C404.92 1.03001 407.21 3.20001 407.66 10.52C407.71 11.39 407.66 12.26 407.66 13.14C407.66 42.56 407.73 71.98 407.56 101.4C407.54 104.77 408.45 107.38 410.55 109.73C417.15 117.13 423.78 124.5 430.41 131.86C435.31 137.29 440.27 142.67 445.15 148.12C448.02 151.33 448.58 155 446.68 158.88C443.44 165.49 439.51 171.73 435 177.51C431.91 181.48 428.92 181.16 425.65 177.22C418.05 168.07 409.93 159.4 401.97 150.58C389.6 136.89 377.28 123.15 365.12 109.28C355.24 98.01 345.31 86.8 335.24 75.7C325.84 65.34 316.65 54.79 307.47 44.24C305.66 42.16 304.5 41.94 302.58 44.16C293.59 54.55 284.47 64.83 275.36 75.11C270.67 80.4 265.85 85.56 261.15 90.84C251.6 101.57 242.12 112.35 232.57 123.07C225.98 130.47 219.28 137.77 212.71 145.19C203.36 155.75 193.6 165.95 184.68 176.9C180.99 181.43 176.58 181.03 173.24 175.7C170.12 170.72 166.82 165.81 164.09 160.62C161.36 155.43 161.15 152.38 165.04 147.95C171.91 140.13 179.02 132.51 185.94 124.73C195.16 114.37 204.28 103.93 213.48 93.55C219.73 86.5 226.04 79.52 232.3 72.49C242.01 61.58 251.66 50.62 261.4 39.73C268.5 31.79 275.69 23.91 282.86 16.03C286.29 12.27 289.69 8.47001 293.29 4.87001C299.71 -1.55999 310.23 -1.62999 316.58 4.77001C325.93 14.19 334.51 24.3 343.24 34.28C348.94 40.8 354.83 47.16 361.19 54.2L361.2 54.19Z" fill="#FF9421"/>
<path d="M78.5799 146.42C77.5899 129.71 93.16 114.56 110.55 115.35C127.21 116.1 140.76 129.71 140.93 146.89C141.1 163.59 125.54 178.51 108 177.81C93.5399 177.23 77.6399 164.18 78.5799 146.43V146.42Z" fill="#FF9421"/>
</svg>